<svg width="180" height="87" xmlns="http://www.w3.org/2000/svg"><g fill="#FFF" fill-rule="evenodd"><path d="M35.182 86l-2.86-11.825H16.28L13.5 86H0l16.598-55h15.804L49 86H35.182zM18.504 64.73H30.1L24.3 40.444 18.504 64.73zM118.473 42c3.045 0 5.903.451 8.574 1.354 2.671.903 5.022 2.177 7.052 3.823l-4.648 7.088C125.978 52.088 122.479 51 118.953 51c-1.656 0-2.925.279-3.806.836-.882.558-1.322 1.341-1.322 2.35 0 .796.2 1.447.6 1.951.401.505 1.216 1.022 2.445 1.553 1.229.531 3.125 1.168 5.69 1.912 4.433 1.274 7.732 2.933 9.896 4.978 2.163 2.044 3.245 4.871 3.245 8.482 0 2.867-.828 5.35-2.484 7.447-1.656 2.097-3.926 3.703-6.811 4.818-2.885 1.115-6.09 1.673-9.616 1.673-3.58 0-6.905-.558-9.977-1.673s-5.676-2.654-7.813-4.619l6.17-6.85c3.58 2.761 7.346 4.142 11.3 4.142 1.922 0 3.432-.345 4.527-1.035 1.095-.69 1.642-1.673 1.642-2.947 0-1.01-.213-1.806-.64-2.39-.428-.584-1.256-1.128-2.485-1.632-1.228-.505-3.178-1.129-5.85-1.872-4.22-1.221-7.372-2.92-9.455-5.097-2.084-2.177-3.126-4.885-3.126-8.124 0-2.443.708-4.633 2.124-6.571 1.416-1.938 3.446-3.478 6.09-4.62C111.942 42.571 115 42 118.473 42zm58.642 31.38c0 1.593.227 2.762.681 3.505.454.743 1.189 1.3 2.204 1.673l-2.644 8.203c-2.618-.212-4.755-.783-6.411-1.712-1.656-.93-2.938-2.403-3.847-4.42-2.778 4.247-7.051 6.371-12.82 6.371-4.221 0-7.587-1.221-10.098-3.664-2.51-2.442-3.766-5.628-3.766-9.557 0-4.62 1.71-8.15 5.128-10.593 3.42-2.443 8.361-3.664 14.825-3.664h4.327V57.69c0-2.495-.534-4.208-1.602-5.137-1.069-.93-2.938-1.394-5.61-1.394-1.389 0-3.071.2-5.048.598a52.114 52.114 0 0 0-6.09 1.632l-2.885-8.283a48.999 48.999 0 0 1 8.214-2.31c2.804-.53 5.409-.796 7.813-.796 6.09 0 10.55 1.248 13.382 3.743 2.832 2.496 4.247 6.24 4.247 11.23v16.408zM157.963 78c2.885 0 5.129-1.354 6.731-4.062v-7.487h-3.125c-2.885 0-5.035.505-6.45 1.514-1.416 1.008-2.124 2.575-2.124 4.699 0 1.699.44 3.013 1.322 3.942.882.93 2.097 1.394 3.646 1.394z" fill-rule="nonzero"/><path d="M56 42H69V86H56z"/><path d="M80 0H93V86H80z"/></g></svg>