<?xml version="1.0" encoding="UTF-8"?>
<svg width="173px" height="54px" viewBox="0 0 173 54" version="1.1" xmlns="http://www.w3.org/2000/svg" xmlns:xlink="http://www.w3.org/1999/xlink">
    <!-- Generator: Sketch 53.2 (72643) - https://sketchapp.com -->
    <title>Logo landscape</title>
    <desc>Created with Sketch.</desc>
    <g id="Logo-landscape" stroke="none" stroke-width="1" fill="none" fill-rule="evenodd">
        <path d="M26,0 L0,26 L0,39 L32.51,6.5 L39,13 L26,26 L39,26 L52,13 L39,0 L26,0 Z M39,26 L26,39 L39,39 L52,26 L39,26 Z" id="Shape" fill="#FF4D5B"></path>
        <g id="Group" transform="translate(65.000000, -0.020000)" fill="#FFFFFF">
            <path d="M8.62,13.19 L5.52,13.19 L5.52,10.19 L8.62,10.19 C9.84,10.19 10.45,10.83 10.45,11.68 C10.45,12.53 9.84,13.16 8.62,13.16 L8.62,13.19 Z M5.52,3.84 L8.25,3.84 C8.63739961,3.81144824 9.01870838,3.94869541 9.29904583,4.21759052 C9.57938328,4.48648562 9.73239234,4.86174739 9.72,5.25 C9.72,5.98 9.23,6.4 8.25,6.4 L5.52,6.4 L5.52,3.84 Z M12.65,7.94 L12.65,7.68 C14.2613229,7.24976287 15.4020379,5.81676514 15.46,4.15 C15.46,1.96 13.51,0.02 9.72,0.02 L-3.55271368e-14,0.02 L-3.55271368e-14,17.02 L9.47,17.02 C13.88,17.02 16.08,14.85 16.08,12.02 C16.0789546,10.0015462 14.6356977,8.27216255 12.65,7.91 L12.65,7.94 Z" id="Shape"></path>
            <polygon id="Path" points="51.85 12.34 44.63 12.34 44.63 0.02 39.1 0.02 39.1 17.02 51.85 17.02"></polygon>
            <path d="M59.92,12.34 L59.92,4.69 L61.6,4.69 C62.6634961,4.59177449 63.7179092,4.95538704 64.4948,5.68826683 C65.2716909,6.42114661 65.6961078,7.452588 65.66,8.52 C65.6931719,9.58569938 65.2674716,10.6144046 64.4909412,11.3450317 C63.7144107,12.0756589 62.6617053,12.4379659 61.6,12.34 L59.92,12.34 Z M71.26,8.53 C71.26,3.79 67.47,0.02 61.72,0.02 L54.4,0.02 L54.4,17.02 L61.72,17.02 C67.47,17.02 71.26,13.27 71.26,8.53 Z" id="Shape"></path>
            <polygon id="Path" points="73.95 17.02 87.55 17.02 87.55 12.34 79.47 12.34 79.47 10.22 85.85 10.22 85.85 6.82 79.47 6.82 79.47 4.69 87.55 4.69 87.55 0.02 73.95 0.02"></polygon>
            <path d="M25.4,31.79 L26.63,26.69 L28,26.69 L29.22,31.79 L25.4,31.79 Z M22.84,22.02 L18.07,39.02 L23.45,39.02 L24.3,35.62 L30.17,35.62 L31.17,39.02 L36.55,39.02 L31.76,22.02 L22.84,22.02 Z" id="Shape"></path>
            <polygon id="Path" points="50.58 30.52 45.15 22.02 39.1 22.02 39.1 39.02 44.63 39.02 44.63 30.25 50.39 39.02 56.1 39.02 56.1 22.02 50.58 22.02"></polygon>
            <polygon id="Path" points="65 29.81 70 22.02 76.11 22.02 71.11 29.92 76.6 39.02 70.49 39.02 66.58 32.86 65 30.54 65 39.02 59.5 39.02 59.5 22.02 65 22.02"></polygon>
            <polygon id="Path" points="88.9 26.02 87.9 26.02 87.9 22.97 87.87 22.97 86.71 26.02 86.09 26.02 84.93 22.97 84.9 22.97 84.9 26.02 83.9 26.02 83.9 22.02 85.53 22.02 86.39 24.33 86.41 24.33 87.28 22.02 88.9 22.02"></polygon>
            <polygon id="Path" points="82.9 23.02 81.9 23.02 81.9 26.02 80.9 26.02 80.9 23.02 79.9 23.02 79.9 22.02 82.9 22.02"></polygon>
            <path d="M8.62,35.2 L5.52,35.2 L5.52,32.2 L8.62,32.2 C9.84,32.2 10.45,32.84 10.45,33.69 C10.45,34.54 9.84,35.18 8.62,35.18 L8.62,35.2 Z M5.52,25.84 L8.25,25.84 C9.25,25.84 9.72,26.39 9.72,27.12 C9.72,27.85 9.23,28.4 8.25,28.4 L5.52,28.4 L5.52,25.84 Z M12.65,29.96 L12.65,29.7 C14.2613229,29.2697629 15.4020379,27.8367651 15.46,26.17 C15.46,24.02 13.51,22.02 9.72,22.02 L-3.55271368e-14,22.02 L-3.55271368e-14,39.02 L9.47,39.02 C13.88,39.02 16.08,36.87 16.08,34.02 C16.0789546,32.0015462 14.6356977,30.2721625 12.65,29.91 L12.65,29.96 Z" id="Shape"></path>
            <polygon id="Path" fill-rule="nonzero" points="1.0658141e-13 48.08 3.76 48.08 3.76 48.94 1 48.94 1 50.65 3.3 50.65 3.3 51.48 1 51.48 1 54.02 1.0658141e-13 54.02"></polygon>
            <path d="M7.1,48.08 C7.47281165,48.0734845 7.84219234,48.1521489 8.18,48.31 C8.48146252,48.4517671 8.73260318,48.6819794 8.9,48.97 C9.07886407,49.2722995 9.16897073,49.6188635 9.16,49.97 C9.15820004,50.3282291 9.04650488,50.6772765 8.84,50.97 C8.64195361,51.2672697 8.34957835,51.4891931 8.01,51.6 L9.26,54.02 L8.18,54.02 L7.06,51.88 L5.75,51.88 L5.75,54.02 L4.75,54.02 L4.75,48.08 L7.1,48.08 Z M5.75,51.02 L7,51.02 C7.30220407,51.0355922 7.59899735,50.9354692 7.83,50.74 C8.23002083,50.3161451 8.23002083,49.6538549 7.83,49.23 C7.60354861,49.0236846 7.30625512,48.9126473 7,48.92 L5.75,48.92 L5.75,51.02 Z" id="Shape" fill-rule="nonzero"></path>
            <path d="M9.76,54.02 L12,48.08 L13.15,48.08 L15.32,54.02 L14.32,54.02 L13.77,52.56 L11.31,52.56 L10.76,54.02 L9.76,54.02 Z M11.58,51.74 L13.46,51.74 L12.51,49.17 L11.58,51.74 Z" id="Shape" fill-rule="nonzero"></path>
            <path d="M19.36,52.02 C19.3778206,52.3482838 19.5341066,52.6535868 19.79,52.86 C20.075698,53.0792817 20.430364,53.1892281 20.79,53.17 C21.0967738,53.1848318 21.4006359,53.1045004 21.66,52.94 C21.8733753,52.7981787 21.9982096,52.556076 21.99,52.3 C21.9979015,52.1251299 21.9326903,51.9548562 21.81,51.83 C21.6678203,51.7082862 21.5004962,51.619502 21.32,51.57 C21.0312182,51.4846875 20.737288,51.4178852 20.44,51.37 C20.0977371,51.3222795 19.7621624,51.2350301 19.44,51.11 C19.1792222,51.0053946 18.9512951,50.8327226 18.78,50.61 C18.5940256,50.3518345 18.5022503,50.0376804 18.52,49.72 C18.5184628,49.4012599 18.6087243,49.0888164 18.78,48.82 C18.9662151,48.5527962 19.2221721,48.3418046 19.52,48.21 C19.8710268,48.0640787 20.2504245,47.9991368 20.63,48.02 C21.0199989,48.0132114 21.4064267,48.0952845 21.76,48.26 C22.0729271,48.3991391 22.3424299,48.6202696 22.54,48.9 C22.7330108,49.1807093 22.8438358,49.5097213 22.86,49.85 L21.86,49.85 C21.8443657,49.5581987 21.701877,49.2878356 21.47,49.11 C20.9598421,48.7686058 20.2993407,48.7491793 19.77,49.06 C19.5710525,49.2067121 19.4584991,49.4430743 19.47,49.69 C19.4614487,49.8590815 19.5271998,50.0234592 19.65,50.14 C19.7866832,50.2620073 19.9516768,50.3479415 20.13,50.39 C20.33,50.45 20.62,50.51 21,50.58 C21.3416769,50.6356244 21.6767585,50.7260965 22,50.85 C22.2640095,50.9540209 22.497781,51.1224739 22.68,51.34 C22.8616153,51.5927173 22.9531693,51.8990712 22.94,52.21 C22.942084,52.5410708 22.8445232,52.865112 22.66,53.14 C22.4653126,53.4248112 22.1952497,53.6498636 21.88,53.79 C21.5276546,53.9466412 21.1455615,54.0251067 20.76,54.02 C20.3363336,54.0311696 19.9156903,53.945673 19.53,53.77 C19.1907395,53.6181907 18.9025296,53.3716497 18.7,53.06 C18.5045629,52.7625083 18.3971063,52.4158743 18.39,52.06 L19.36,52.02 Z" id="Path" fill-rule="nonzero"></path>
            <path d="M26.41,48.08 C26.7794813,48.0746558 27.1453505,48.1533006 27.48,48.31 C27.7763758,48.4554579 28.0233246,48.685016 28.19,48.97 C28.5334276,49.5924382 28.5334276,50.3475618 28.19,50.97 C28.0233246,51.254984 27.7763758,51.4845421 27.48,51.63 C27.1469066,51.7912711 26.7799412,51.8701515 26.41,51.86 L25.05,51.86 L25.05,54.02 L24.05,54.02 L24.05,48.08 L26.41,48.08 Z M25.05,51.02 L26.32,51.02 C26.622628,51.0387285 26.9205599,50.9382213 27.15,50.74 C27.3546911,50.5450507 27.4673132,50.2725778 27.46,49.99 C27.4727785,49.7055063 27.3636547,49.4290595 27.16,49.23 C26.9295066,49.0336303 26.6323444,48.9333828 26.33,48.95 L25.05,48.95 L25.05,51.02 Z" id="Shape" fill-rule="nonzero"></path>
            <path d="M28.25,54.02 L30.45,48.13 L31.61,48.13 L33.8,54.02 L32.8,54.02 L32.24,52.56 L29.8,52.56 L29.25,54.02 L28.25,54.02 Z M30.07,51.74 L31.94,51.74 L31,49.12 L30.07,51.74 Z" id="Shape" fill-rule="nonzero"></path>
            <path d="M37,48.08 C37.3728117,48.0734845 37.7421923,48.1521489 38.08,48.31 C38.3814625,48.4517671 38.6326032,48.6819794 38.8,48.97 C38.9753715,49.2733299 39.061996,49.6198282 39.05,49.97 C39.0517774,50.3272537 38.9435434,50.6763957 38.74,50.97 C38.5397177,51.2651584 38.2481461,51.4864717 37.91,51.6 L39.16,54.02 L38.09,54.02 L37,51.83 L35.69,51.83 L35.69,54.02 L34.69,54.02 L34.69,48.08 L37,48.08 Z M35.66,51.02 L36.93,51.02 C37.232628,51.0387285 37.5305599,50.9382213 37.76,50.74 C38.1757265,50.3225087 38.1757265,49.6474913 37.76,49.23 C37.5305599,49.0317787 37.232628,48.9312715 36.93,48.95 L35.66,48.95 L35.66,51.02 Z" id="Shape" fill-rule="nonzero"></path>
            <polygon id="Path" fill-rule="nonzero" points="40.22 48.08 44.07 48.08 44.07 48.94 41.19 48.94 41.19 50.57 43.57 50.57 43.57 51.4 41.19 51.4 41.19 53.11 44.19 53.11 44.19 54.02 40.19 54.02"></polygon>
            <path d="M47.4,48.08 C47.9304329,48.0442364 48.4578057,48.1848691 48.9,48.48 C49.2557763,48.7442034 49.4579232,49.1672145 49.44,49.61 C49.4490013,49.9235008 49.3501652,50.2305988 49.16,50.48 C48.9494038,50.7200492 48.6640425,50.8821063 48.35,50.94 C49.23,51.09 49.67,51.55 49.67,52.33 C49.6886103,52.7993376 49.4755489,53.247888 49.1,53.53 C48.6228733,53.850374 48.0536426,54.0049799 47.48,53.97 L45.24,53.97 L45.24,48.08 L47.4,48.08 Z M46.21,50.58 L47.43,50.58 C47.7056714,50.5957857 47.9781492,50.5143962 48.2,50.35 C48.3807909,50.1960254 48.4804213,49.9672445 48.47,49.73 C48.4835641,49.4921832 48.3833507,49.2620636 48.2,49.11 C47.9768251,48.949152 47.7044644,48.8713347 47.43,48.89 L46.21,48.89 L46.21,50.58 Z M46.21,53.15 L47.49,53.15 C47.800617,53.1718934 48.109819,53.0910792 48.37,52.92 C48.5691549,52.768976 48.6813224,52.5296852 48.67,52.28 C48.6837893,52.0191504 48.5677464,51.768348 48.36,51.61 C48.101174,51.4442713 47.796913,51.3638345 47.49,51.38 L46.21,51.38 L46.21,53.15 Z" id="Shape" fill-rule="nonzero"></path>
            <path d="M50.18,54.02 L52.38,48.13 L53.54,48.13 L55.73,54.02 L54.73,54.02 L54.17,52.56 L51.76,52.56 L51.18,54.02 L50.18,54.02 Z M52,51.69 L53.87,51.69 L52.93,49.12 L52,51.69 Z" id="Shape" fill-rule="nonzero"></path>
            <polygon id="Path" fill-rule="nonzero" points="56.62 54.02 56.62 48.08 57.5 48.08 60.37 52.25 60.37 48.08 61.32 48.08 61.32 54.02 60.44 54.02 57.57 49.85 57.57 54.02"></polygon>
            <polygon id="Path" fill-rule="nonzero" points="62.68 48.08 63.68 48.08 63.68 51.08 66.39 48.08 67.56 48.08 65.4 50.54 67.68 54.02 66.51 54.02 64.67 51.33 63.67 52.48 63.67 54.02 62.67 54.02"></polygon>
            <polygon id="Path" fill-rule="nonzero" points="68.49 48.08 72.34 48.08 72.34 48.94 69.46 48.94 69.46 50.57 71.83 50.57 71.83 51.4 69.46 51.4 69.46 53.11 72.46 53.11 72.46 54.02 68.51 54.02"></polygon>
            <polygon id="Path" fill-rule="nonzero" points="73.51 54.02 73.51 48.08 74.39 48.08 77.26 52.25 77.26 48.08 78.26 48.08 78.26 54.02 77.38 54.02 74.51 49.85 74.51 54.02"></polygon>
            <polygon id="Path" fill-rule="nonzero" points="81.5 48.08 82.5 48.08 84.12 52.81 85.76 48.08 86.76 48.08 84.73 54.02 83.57 54.02"></polygon>
            <polygon id="Path" fill-rule="nonzero" points="87.65 48.08 91.5 48.08 91.5 48.94 88.62 48.94 88.62 50.57 91 50.57 91 51.4 88.63 51.4 88.63 53.11 91.63 53.11 91.63 54.02 87.68 54.02"></polygon>
            <path d="M93.4,52.02 C93.4178206,52.3482838 93.5741066,52.6535868 93.83,52.86 C94.1148604,53.0808951 94.4701421,53.1910324 94.83,53.17 C95.137124,53.1882425 95.442017,53.1076386 95.7,52.94 C95.9157217,52.7992119 96.0440959,52.5575662 96.04,52.3 C96.0479015,52.1251299 95.9826903,51.9548562 95.86,51.83 C95.7141698,51.7080853 95.5435556,51.6193659 95.36,51.57 C95.0746571,51.4844877 94.7840401,51.4176792 94.49,51.37 C94.1477371,51.3222795 93.8121624,51.2350301 93.49,51.11 C93.226302,51.0056556 92.9950755,50.8330985 92.82,50.61 C92.641117,50.348872 92.5532541,50.03608 92.57,49.72 C92.5636919,49.4006144 92.6543441,49.0868182 92.83,48.82 C93.0138461,48.5506219 93.2704898,48.3390643 93.57,48.21 C93.9125223,48.0567403 94.2848475,47.9815921 94.66,47.99 C95.0499989,47.9832114 95.4364267,48.0652845 95.79,48.23 C96.1029271,48.3691391 96.3724299,48.5902696 96.57,48.87 C96.763999,49.1495439 96.871778,49.4798341 96.88,49.82 L95.93,49.82 C95.9143657,49.5281987 95.771877,49.2578356 95.54,49.08 C95.2854846,48.893384 94.9753812,48.7982386 94.66,48.81 C94.3702666,48.7946532 94.0831416,48.8716867 93.84,49.03 C93.638678,49.1756756 93.5225826,49.4116114 93.53,49.66 C93.5214487,49.8290815 93.5871998,49.9934592 93.71,50.11 C93.8504775,50.2320819 94.0187083,50.3179139 94.2,50.36 C94.4,50.42 94.69,50.48 95.07,50.55 C95.4113769,50.6070075 95.7463216,50.6974425 96.07,50.82 C96.3310128,50.9243428 96.5614645,51.0928821 96.74,51.31 C96.926043,51.5605198 97.0180768,51.8684788 97,52.18 C97.005664,52.5101106 96.9115605,52.8342449 96.73,53.11 C96.5330371,53.3927332 96.2636162,53.6172507 95.95,53.76 C95.594196,53.9168472 95.2088053,53.9952896 94.82,53.99 C94.3996292,54.0003475 93.9824197,53.9148538 93.6,53.74 C93.2607395,53.5881907 92.9725296,53.3416497 92.77,53.03 C92.5745629,52.7325083 92.4671063,52.3858743 92.46,52.03 L93.4,52.02 Z" id="Path" fill-rule="nonzero"></path>
            <polygon id="Path" fill-rule="nonzero" points="97.51 48.08 102.11 48.08 102.11 48.94 100.29 48.94 100.29 53.94 99.29 53.94 99.29 48.94 97.48 48.94"></polygon>
            <path d="M104.17,11.2 C106.065507,10.2592137 107.25476,8.31599001 107.23,6.2 C107.23,2.67 104.54,-8.8817842e-15 100.23,-8.8817842e-15 L91,-8.8817842e-15 L91,17.02 L96.53,17.02 L96.53,12.35 L99.21,12.35 L102.21,17.02 L107.83,17.02 L104.17,11.2 Z M99.77,7.67 L96.48,7.67 L96.48,4.67 L99.77,4.67 C100.87,4.67 101.57,5.31 101.57,6.16 C101.57,7.01 100.87,7.67 99.77,7.67 L99.77,7.67 Z" id="Shape"></path>
            <path d="M27.65,17.52 C32.83,17.52 35.86,14.57 35.86,10.11 L35.86,0.02 L30.25,0.02 L30.25,9.89 C30.3100781,10.8591958 29.8271247,11.7816168 28.9963632,12.2843944 C28.1656017,12.7871719 27.1243983,12.7871719 26.2936368,12.2843944 C25.4628753,11.7816168 24.9799219,10.8591958 25.04,9.89 L25.04,0.02 L19.52,0.02 L19.52,10.14 C19.52,14.6 22.52,17.52 27.65,17.52" id="Path"></path>
        </g>
    </g>
</svg>