<svg fill="none" height="553" viewBox="0 0 289 553" width="289" xmlns="http://www.w3.org/2000/svg"><rect fill="#fff" height="553" rx="40" width="289"/><path d="m124.719 22.0566h-3.586l-.528 3.0235h4.172l-.164.9199h-5.267l1.482-8.5312h5.209l-.164.9257h-4.107l-.475 2.7422h3.586zm3.416 1.0196-.832.7441-.375 2.1797h-1.061l1.565-9h1.06l-.937 5.3789.65-.6562 2.25-2.0625h1.377l-2.912 2.7011 2.004 3.6387h-1.16zm7.617 1.207c.059-.4375-.182-.7461-.721-.9258l-1.101-.3222c-.93-.3204-1.379-.8516-1.348-1.5938.027-.5586.281-1.0156.762-1.3711.484-.3594 1.052-.5351 1.705-.5273.64.0078 1.16.1953 1.558.5625.403.3633.596.8379.581 1.4238l-1.055-.0059c.008-.3164-.092-.5742-.299-.7734s-.482-.3027-.826-.3105c-.367-.0079-.684.082-.949.2695-.247.1758-.389.4062-.428.6914-.051.3672.174.6348.674.8027l.533.1465c.726.1875 1.242.4316 1.547.7324.304.3008.445.6739.422 1.1192-.024.3945-.153.7383-.387 1.0312-.234.293-.547.5176-.938.6738-.39.1524-.806.2227-1.248.211-.672-.0078-1.226-.2031-1.664-.586-.437-.3867-.648-.8828-.632-1.4882l1.06.0058c0 .3555.113.6407.34.8555.226.2148.537.3223.932.3223.386.0078.72-.0723 1.001-.2403.282-.1718.442-.4062.481-.7031zm4.875 1.834c-.789-.0156-1.406-.3067-1.852-.8731-.445-.5664-.632-1.291-.562-2.1738l.029-.2519c.067-.6289.252-1.2032.557-1.7227.308-.5195.683-.9102 1.125-1.1719.441-.2656.918-.3926 1.43-.3808.652.0156 1.164.2324 1.535.6504.371.4179.574.9843.609 1.6992.012.2539.004.5078-.023.7617l-.065.4863h-4.142c-.071.5742.023 1.0625.281 1.4649.262.4023.65.6113 1.166.6269.625.0156 1.203-.2656 1.734-.8437l.61.5156c-.266.3828-.61.6836-1.032.9023-.418.2149-.884.3184-1.4.3106zm.674-5.6895c-.438-.0117-.821.1368-1.149.4453-.324.3086-.582.7676-.773 1.377l3.082.0059.023-.0938c.063-.4922-.017-.9004-.24-1.2246-.219-.3281-.533-.498-.943-.5098zm4.898-.7734-.135.709c.532-.5625 1.174-.836 1.928-.8203.403.0078.742.0996 1.02.2754.281.1757.474.4238.58.7441.594-.6953 1.295-1.0352 2.103-1.0195.633.0156 1.1.2285 1.401.6386.3.4102.412.961.334 1.6524l-.698 4.166h-1.054l.691-4.1777c.024-.2032.024-.3887 0-.5567-.074-.5312-.422-.8027-1.043-.8144-.387-.0078-.738.1133-1.055.3633-.312.246-.513.5703-.603.9726l-.721 4.2129h-1.066l.703-4.1719c.051-.4336-.016-.7676-.199-1.0019-.18-.2344-.461-.3555-.844-.3633-.66-.0156-1.186.2851-1.576.9023l-.803 4.6348h-1.06l1.101-6.3398zm13.916 3.2051c-.078.6445-.252 1.2246-.521 1.7402-.27.5156-.604.9024-1.002 1.1602-.399.2539-.84.375-1.324.3632-.735-.0156-1.297-.2636-1.688-.7441l-.568 3.0586h-1.061l1.524-8.7773.961-.0059-.118.709c.524-.5625 1.151-.836 1.881-.8203.61.0156 1.084.2402 1.424.6738s.52 1.0312.539 1.793c.004.25-.006.4922-.029.7265zm-1.043-.1231.03-.4922c0-.5703-.11-1.0058-.329-1.3066-.214-.3047-.527-.4648-.937-.4805-.613-.0156-1.143.2754-1.588.8731l-.533 3.041c.238.5625.666.8516 1.283.8672.527.0117.975-.1934 1.342-.6153.371-.4257.615-1.0546.732-1.8867zm4.641 3.3809c-.789-.0156-1.406-.3067-1.852-.8731-.445-.5664-.632-1.291-.562-2.1738l.029-.2519c.067-.6289.252-1.2032.557-1.7227.308-.5195.683-.9102 1.125-1.1719.441-.2656.918-.3926 1.429-.3808.653.0156 1.165.2324 1.536.6504.371.4179.574.9843.609 1.6992.012.2539.004.5078-.023.7617l-.065.4863h-4.142c-.071.5742.023 1.0625.281 1.4649.261.4023.65.6113 1.166.6269.625.0156 1.203-.2656 1.734-.8437l.61.5156c-.266.3828-.61.6836-1.032.9023-.418.2149-.884.3184-1.4.3106zm.674-5.6895c-.438-.0117-.821.1368-1.149.4453-.324.3086-.582.7676-.773 1.377l3.082.0059.023-.0938c.063-.4922-.017-.9004-.24-1.2246-.219-.3281-.533-.498-.943-.5098zm3.955 5.5723h-1.055l1.559-9h1.06z" fill="#11253a"/><rect fill="#18bc9c" height="49" rx="24.5" width="244" x="22" y="453"/><path d="m50.084 483v-10.664h3.6548c1.206 0 2.124.242 2.7539.725s.9448 1.204.9448 2.161c0 .488-.1318.927-.3955 1.318s-.6494.693-1.1572.908c.5761.156 1.0205.452 1.333.886.3174.43.476.948.476 1.553 0 1.001-.3222 1.77-.9667 2.307-.6397.537-1.5577.806-2.754.806zm1.853-4.812v3.333h2.0581c.5811 0 1.0352-.145 1.3623-.433.3272-.288.4907-.688.4907-1.201 0-1.108-.5664-1.675-1.6992-1.699zm0-1.362h1.8164c.5762 0 1.0254-.13 1.3477-.388.3271-.264.4907-.635.4907-1.114 0-.527-.1514-.908-.4541-1.142-.2979-.235-.7642-.352-1.3989-.352h-1.8018zm10.9277 6.32c-1.1279 0-2.0434-.354-2.7465-1.062-.6983-.712-1.0474-1.66-1.0474-2.841v-.22c0-.791.1514-1.497.4541-2.117.3076-.625.7373-1.111 1.2891-1.457.5517-.347 1.167-.52 1.8457-.52 1.0791 0 1.9116.344 2.4975 1.032.5908.689.8863 1.663.8863 2.923v.718h-5.1783c.0537.654.271 1.171.6519 1.552.3857.381.8691.572 1.4502.572.8154 0 1.4795-.33 1.9922-.989l.9594.915c-.3173.474-.7421.843-1.2744 1.106-.5273.259-1.1206.388-1.7798.388zm-.2124-6.789c-.4882 0-.8837.171-1.1865.513-.2978.341-.4883.818-.5713 1.428h3.3911v-.132c-.039-.596-.1977-1.045-.476-1.348-.2784-.307-.6641-.461-1.1573-.461zm15.4688 2.761c0 1.231-.2759 2.21-.8276 2.937-.5469.728-1.3013 1.091-2.2632 1.091-.9278 0-1.6504-.334-2.168-1.003l-.0879.857h-1.6113v-11.25h1.7798v4.087c.5127-.606 1.2036-.908 2.0727-.908.9668 0 1.7261.359 2.2779 1.076.5517.718.8276 1.722.8276 3.011zm-1.7798-.154c0-.859-.1514-1.504-.4541-1.933-.3027-.43-.7422-.645-1.3184-.645-.7714 0-1.3134.337-1.6259 1.011v3.267c.3174.688.8642 1.032 1.6406 1.032.5566 0 .9863-.207 1.2891-.622.3027-.415.4589-1.043.4687-1.883zm8.0127 4.036c-.0781-.151-.1465-.398-.2051-.74-.5664.591-1.2597.886-2.0801.886-.7959 0-1.4453-.227-1.9482-.681s-.7544-1.015-.7544-1.684c0-.845.3125-1.492.9375-1.941.6299-.454 1.5283-.681 2.6953-.681h1.0913v-.52c0-.41-.1147-.738-.3442-.982-.2295-.249-.5786-.373-1.0474-.373-.4052 0-.7373.102-.9961.307-.2588.201-.3881.457-.3881.769h-1.7798c0-.434.144-.839.4321-1.215.2881-.381.6787-.679 1.1719-.894.498-.215 1.0522-.322 1.6626-.322.9277 0 1.6675.234 2.2192.703.5518.464.835 1.118.8496 1.963v3.574c0 .713.1001 1.282.3003 1.706v.125zm-1.9556-1.282c.3516 0 .6812-.085.9888-.256.3125-.171.5469-.4.7031-.689v-1.494h-.9594c-.6592 0-1.1548.115-1.4869.345-.332.229-.498.554-.498.974 0 .341.1123.615.3369.82.2295.2.5347.3.9155.3zm6.9873-6.643.0513.916c.5859-.708 1.355-1.062 2.3071-1.062 1.6504 0 2.4903.945 2.5196 2.834v5.237h-1.7798v-5.134c0-.503-.1099-.874-.3296-1.114-.2148-.244-.5689-.366-1.062-.366-.7178 0-1.2525.325-1.604.974v5.64h-1.7798v-7.925zm9.2725 4.527-.791.813v2.585h-1.7798v-11.25h1.7798v6.489l.5566-.696 2.1902-2.468h2.138l-2.9439 3.303 3.2589 4.622h-2.058zm8.6058 3.544c-1.128 0-2.043-.354-2.746-1.062-.699-.712-1.048-1.66-1.048-2.841v-.22c0-.791.152-1.497.454-2.117.308-.625.738-1.111 1.289-1.457.552-.347 1.167-.52 1.846-.52 1.079 0 1.912.344 2.498 1.032.59.689.886 1.663.886 2.923v.718h-5.178c.053.654.271 1.171.652 1.552.385.381.869.572 1.45.572.815 0 1.479-.33 1.992-.989l.959.915c-.317.474-.742.843-1.274 1.106-.527.259-1.121.388-1.78.388zm-.212-6.789c-.489 0-.884.171-1.187.513-.298.341-.488.818-.571 1.428h3.391v-.132c-.039-.596-.198-1.045-.476-1.348-.278-.307-.664-.461-1.157-.461zm6.43-1.282.052.916c.586-.708 1.355-1.062 2.307-1.062 1.65 0 2.49.945 2.519 2.834v5.237h-1.779v-5.134c0-.503-.11-.874-.33-1.114-.215-.244-.569-.366-1.062-.366-.718 0-1.252.325-1.604.974v5.64h-1.78v-7.925zm10.101 3.904c0-1.221.283-2.2.849-2.937.567-.742 1.326-1.113 2.278-1.113.84 0 1.519.293 2.036.879v-4.058h1.78v11.25h-1.611l-.088-.82c-.533.644-1.243.966-2.132.966-.927 0-1.679-.373-2.256-1.12-.571-.747-.856-1.763-.856-3.047zm1.779.154c0 .805.154 1.435.462 1.889.312.45.754.674 1.325.674.728 0 1.26-.324 1.597-.974v-3.384c-.327-.634-.854-.952-1.582-.952-.576 0-1.02.23-1.333.689-.312.454-.469 1.14-.469 2.058zm8.914 3.867h-1.78v-7.925h1.78zm-1.89-9.983c0-.273.086-.5.257-.681.175-.181.424-.271.747-.271.322 0 .571.09.747.271.175.181.263.408.263.681 0 .269-.088.493-.263.674-.176.176-.425.264-.747.264-.323 0-.572-.088-.747-.264-.171-.181-.257-.405-.257-.674zm5.486 2.058.051.916c.586-.708 1.355-1.062 2.307-1.062 1.651 0 2.491.945 2.52 2.834v5.237h-1.78v-5.134c0-.503-.11-.874-.329-1.114-.215-.244-.569-.366-1.062-.366-.718 0-1.253.325-1.604.974v5.64h-1.78v-7.925zm12.107 0 .051.828c.557-.65 1.319-.974 2.285-.974 1.06 0 1.785.405 2.176 1.216.576-.811 1.386-1.216 2.431-1.216.874 0 1.524.241 1.949.725.429.483.649 1.196.659 2.138v5.208h-1.78v-5.156c0-.503-.11-.872-.33-1.106-.219-.235-.583-.352-1.091-.352-.405 0-.737.11-.996.33-.254.215-.432.498-.535.849l.008 5.435h-1.78v-5.215c-.025-.932-.501-1.399-1.428-1.399-.713 0-1.219.291-1.516.872v5.742h-1.78v-7.925zm16.113 7.925c-.078-.151-.146-.398-.205-.74-.566.591-1.26.886-2.08.886-.796 0-1.445-.227-1.948-.681s-.755-1.015-.755-1.684c0-.845.313-1.492.938-1.941.63-.454 1.528-.681 2.695-.681h1.092v-.52c0-.41-.115-.738-.345-.982-.229-.249-.578-.373-1.047-.373-.405 0-.737.102-.996.307-.259.201-.388.457-.388.769h-1.78c0-.434.144-.839.432-1.215.288-.381.679-.679 1.172-.894.498-.215 1.052-.322 1.663-.322.927 0 1.667.234 2.219.703.552.464.835 1.118.849 1.963v3.574c0 .713.1 1.282.301 1.706v.125zm-1.955-1.282c.351 0 .681-.085.988-.256.313-.171.547-.4.704-.689v-1.494h-.96c-.659 0-1.155.115-1.487.345-.332.229-.498.554-.498.974 0 .341.113.615.337.82.23.2.535.3.916.3zm7.566-8.569v1.926h1.399v1.319h-1.399v4.423c0 .303.058.523.175.66.122.131.337.197.645.197.205 0 .413-.024.623-.073v1.377c-.406.112-.796.168-1.172.168-1.368 0-2.051-.754-2.051-2.263v-4.489h-1.304v-1.319h1.304v-1.926zm6.02 8.577c.444 0 .813-.13 1.106-.389.293-.258.449-.578.469-.959h1.677c-.019.493-.173.955-.461 1.384-.288.425-.679.762-1.172 1.011s-1.026.373-1.597.373c-1.108 0-1.987-.358-2.637-1.076-.649-.718-.974-1.709-.974-2.974v-.183c0-1.206.323-2.17.967-2.893.645-.728 1.524-1.091 2.637-1.091.942 0 1.709.276 2.3.827.595.547.908 1.267.937 2.161h-1.677c-.02-.454-.176-.828-.469-1.121-.288-.293-.657-.439-1.106-.439-.576 0-1.02.21-1.333.63-.312.415-.471 1.047-.476 1.897v.285c0 .86.154 1.502.461 1.927.313.42.762.63 1.348.63zm6.35-5.787c.581-.673 1.316-1.01 2.205-1.01 1.689 0 2.546.964 2.571 2.893v5.178h-1.78v-5.112c0-.547-.12-.933-.359-1.158-.234-.229-.581-.344-1.04-.344-.713 0-1.245.318-1.597.952v5.662h-1.78v-11.25h1.78zm10.071 7.207c-1.128 0-2.043-.354-2.747-1.062-.698-.712-1.047-1.66-1.047-2.841v-.22c0-.791.151-1.497.454-2.117.308-.625.738-1.111 1.289-1.457.552-.347 1.167-.52 1.846-.52 1.079 0 1.912.344 2.498 1.032.59.689.886 1.663.886 2.923v.718h-5.178c.053.654.271 1.171.651 1.552.386.381.87.572 1.451.572.815 0 1.479-.33 1.992-.989l.959.915c-.317.474-.742.843-1.274 1.106-.528.259-1.121.388-1.78.388zm-.212-6.789c-.489 0-.884.171-1.187.513-.298.341-.488.818-.571 1.428h3.391v-.132c-.039-.596-.198-1.045-.476-1.348-.278-.307-.664-.461-1.157-.461zm10.744-3.208v1.926h1.399v1.319h-1.399v4.423c0 .303.059.523.176.66.122.131.337.197.645.197.205 0 .412-.024.622-.073v1.377c-.405.112-.796.168-1.172.168-1.367 0-2.051-.754-2.051-2.263v-4.489h-1.303v-1.319h1.303v-1.926zm4.658 9.851h-1.779v-7.925h1.779zm-1.889-9.983c0-.273.085-.5.256-.681.176-.181.425-.271.747-.271.323 0 .572.09.747.271.176.181.264.408.264.681 0 .269-.088.493-.264.674-.175.176-.424.264-.747.264-.322 0-.571-.088-.747-.264-.171-.181-.256-.405-.256-.674zm5.727 9.983h-1.779v-11.25h1.779zm8.899-3.882c0 1.231-.276 2.21-.827 2.937-.547.728-1.302 1.091-2.264 1.091-.927 0-1.65-.334-2.168-1.003l-.087.857h-1.612v-11.25h1.78v4.087c.513-.606 1.204-.908 2.073-.908.967 0 1.726.359 2.278 1.076.551.718.827 1.722.827 3.011zm-1.779-.154c0-.859-.152-1.504-.455-1.933-.302-.43-.742-.645-1.318-.645-.771 0-1.313.337-1.626 1.011v3.267c.317.688.864 1.032 1.641 1.032.556 0 .986-.207 1.289-.622.302-.415.459-1.043.469-1.883zm8.078 3.26c-.522.615-1.265.922-2.226.922-.86 0-1.512-.251-1.956-.754-.439-.503-.659-1.23-.659-2.183v-5.134h1.78v5.113c0 1.005.417 1.508 1.252 1.508.864 0 1.448-.31 1.751-.93v-5.691h1.779v7.925h-1.677zm3.201-3.245c0-1.221.283-2.2.849-2.937.567-.742 1.326-1.113 2.278-1.113.84 0 1.519.293 2.036.879v-4.058h1.78v11.25h-1.611l-.088-.82c-.532.644-1.243.966-2.131.966-.928 0-1.68-.373-2.256-1.12-.572-.747-.857-1.763-.857-3.047zm1.78.154c0 .805.153 1.435.461 1.889.313.45.754.674 1.326.674.727 0 1.259-.324 1.596-.974v-3.384c-.327-.634-.854-.952-1.582-.952-.576 0-1.02.23-1.333.689-.312.454-.468 1.14-.468 2.058z" fill="#fff"/><path d="m8 245h133v68h-133z" fill="#e7e8ea"/><path d="m8 321h133v83h-133z" fill="#e7e8ea"/><path d="m149 321h131v83h-131z" fill="#e7e8ea"/><path d="m149 245h132v68h-132z" fill="#d0f3eb"/><path d="m35.8984 271v-7.109h1.9873c.5827 0 1.1052.133 1.5674.4.4623.264.822.643 1.0791 1.138.2604.495.3907 1.058.3907 1.689v.654c0 .635-.1286 1.198-.3858 1.69-.2572.491-.6201.871-1.0889 1.138-.4655.267-1.0009.4-1.6064.4zm.6006-6.597v6.089h1.3477c.7487 0 1.3493-.247 1.8017-.742.4525-.498.6787-1.17.6787-2.017v-.625c0-.817-.2229-1.471-.6689-1.962-.446-.492-1.0335-.739-1.7627-.743zm6.4698 6.597h-.586v-5.283h.586zm-.6885-6.812c0-.11.0358-.203.1074-.278.0716-.078.1693-.117.293-.117s.2213.039.2929.117c.0749.075.1123.168.1123.278 0 .111-.0374.204-.1123.279-.0716.075-.1692.112-.2929.112s-.2214-.037-.293-.112-.1074-.168-.1074-.279zm2.8369 1.529.0195.903c.1986-.325.446-.573.7422-.742.2962-.173.6234-.259.9815-.259.5664 0 .9879.16 1.2646.479s.4167.797.4199 1.435v3.467h-.581v-3.472c-.0033-.472-.1042-.823-.3028-1.054-.1953-.231-.5094-.347-.9423-.347-.3614 0-.682.114-.962.342-.2767.224-.4817.529-.6152.913v3.618h-.5811v-5.283zm9.4189 5.381c-.4492 0-.8561-.111-1.2207-.332-.3613-.222-.6429-.529-.8447-.923-.2018-.397-.3027-.842-.3027-1.333v-.21c0-.508.0976-.965.2929-1.372.1986-.407.4737-.726.8252-.957.3516-.235.7325-.352 1.1426-.352.6413 0 1.1491.22 1.5234.659.3777.437.5665 1.034.5665 1.792v.327h-3.7696v.113c0 .599.1709 1.098.5127 1.499.3451.397.778.595 1.2988.595.3125 0 .5876-.056.8252-.17.2409-.114.459-.297.6543-.547l.3662.278c-.4296.622-1.053.933-1.8701.933zm-.1074-4.981c-.4394 0-.8105.161-1.1133.484-.2994.322-.4817.755-.5468 1.298h3.1689v-.063c-.0163-.508-.1611-.921-.4346-1.24-.2734-.319-.6315-.479-1.0742-.479zm3.6475 4.883v-4.805h-.8741v-.478h.8741v-.64c0-.54.1367-.955.4101-1.245.2767-.29.6608-.435 1.1524-.435.2213 0 .428.028.6201.083l-.044.489c-.1627-.039-.3401-.059-.5322-.059-.3222 0-.5729.101-.7519.303-.1791.198-.2686.482-.2686.849v.655h1.2598v.478h-1.2598v4.805zm3.3105 0v-4.805h-.874v-.478h.874v-.64c0-.54.1367-.955.4102-1.245.2767-.29.6608-.435 1.1523-.435.2214 0 .4281.028.6201.083l-.0439.489c-.1628-.039-.3402-.059-.5322-.059-.3223 0-.573.101-.752.303-.179.198-.2685.482-.2685.849v.655h1.2597v.478h-1.2597v4.805zm4.8194.098c-.4493 0-.8562-.111-1.2207-.332-.3614-.222-.643-.529-.8448-.923-.2018-.397-.3027-.842-.3027-1.333v-.21c0-.508.0976-.965.293-1.372.1985-.407.4736-.726.8252-.957.3515-.235.7324-.352 1.1425-.352.6413 0 1.1491.22 1.5235.659.3776.437.5664 1.034.5664 1.792v.327h-3.7696v.113c0 .599.1709 1.098.5127 1.499.3451.397.778.595 1.2989.595.3125 0 .5875-.056.8252-.17.2408-.114.4589-.297.6543-.547l.3662.278c-.4297.622-1.0531.933-1.8701.933zm-.1075-4.981c-.4394 0-.8105.161-1.1132.484-.2995.322-.4818.755-.5469 1.298h3.1689v-.063c-.0163-.508-.1611-.921-.4345-1.24-.2735-.319-.6316-.479-1.0743-.479zm4.4825 2.222-.669.644v2.017h-.5859v-7.5h.5859v4.8l.5518-.596 2.0215-1.987h.7373l-2.2413 2.226 2.4366 3.057h-.6983zm4.5556-3.975v1.353h1.0938v.478h-1.0938v3.521c0 .293.0521.511.1563.654.1074.143.2848.215.5322.215.0977 0 .2555-.016.4736-.049l.0244.479c-.153.055-.3613.083-.625.083-.4003 0-.6917-.116-.874-.347-.1823-.234-.2734-.578-.2734-1.03v-3.526h-.9717v-.478h.9717v-1.353zm2.959 6.636h-.5859v-5.283h.5859zm-.6885-6.812c0-.11.0358-.203.1074-.278.0717-.078.1693-.117.293-.117s.2214.039.293.117c.0749.075.1123.168.1123.278 0 .111-.0374.204-.1123.279-.0716.075-.1693.112-.293.112s-.2213-.037-.293-.112c-.0716-.075-.1074-.168-.1074-.279zm3.9258 6.006 1.6065-4.477h.6005l-1.9726 5.283h-.4736l-1.9825-5.283h.6006zm5.1465.904c-.4492 0-.8561-.111-1.2207-.332-.3613-.222-.6429-.529-.8447-.923-.2019-.397-.3028-.842-.3028-1.333v-.21c0-.508.0977-.965.293-1.372.1986-.407.4736-.726.8252-.957.3516-.235.7324-.352 1.1426-.352.6412 0 1.1491.22 1.5234.659.3776.437.5664 1.034.5664 1.792v.327h-3.7695v.113c0 .599.1709 1.098.5127 1.499.345.397.778.595 1.2988.595.3125 0 .5876-.056.8252-.17.2409-.114.459-.297.6543-.547l.3662.278c-.4297.622-1.0531.933-1.8701.933zm-.1074-4.981c-.4395 0-.8106.161-1.1133.484-.2995.322-.4818.755-.5469 1.298h3.169v-.063c-.0163-.508-.1612-.921-.4346-1.24s-.6315-.479-1.0742-.479zm8.1006.098c-.1237-.023-.2556-.034-.3956-.034-.3645 0-.6738.102-.9277.307-.2506.202-.4297.497-.5371.884v3.628h-.5811v-5.283h.5713l.0098.84c.3092-.625.8057-.938 1.4893-.938.1627 0 .2913.021.3857.064zm2.8759 4.883c-.4492 0-.8561-.111-1.2207-.332-.3613-.222-.6429-.529-.8447-.923-.2018-.397-.3027-.842-.3027-1.333v-.21c0-.508.0976-.965.2929-1.372.1986-.407.4737-.726.8252-.957.3516-.235.7325-.352 1.1426-.352.6413 0 1.1491.22 1.5234.659.3777.437.5665 1.034.5665 1.792v.327h-3.7696v.113c0 .599.1709 1.098.5127 1.499.3451.397.778.595 1.2988.595.3125 0 .5876-.056.8252-.17.2409-.114.459-.297.6543-.547l.3663.278c-.4297.622-1.0531.933-1.8702.933zm-.1074-4.981c-.4394 0-.8105.161-1.1133.484-.2994.322-.4817.755-.5468 1.298h3.1689v-.063c-.0163-.508-.1611-.921-.4346-1.24-.2734-.319-.6315-.479-1.0742-.479zm3.7838-.4.02.903c.198-.325.446-.573.742-.742.296-.173.623-.259.982-.259.566 0 .988.16 1.264.479.277.319.417.797.42 1.435v3.467h-.581v-3.472c-.003-.472-.104-.823-.303-1.054-.195-.231-.509-.347-.942-.347-.361 0-.682.114-.962.342-.277.224-.482.529-.615.913v3.618h-.581v-5.283zm5.85-1.353v1.353h1.094v.478h-1.094v3.521c0 .293.052.511.156.654.108.143.285.215.532.215.098 0 .256-.016.474-.049l.025.479c-.153.055-.362.083-.625.083-.401 0-.692-.116-.875-.347-.182-.234-.273-.578-.273-1.03v-3.526h-.972v-.478h.972v-1.353zm4.351 6.734c-.45 0-.857-.111-1.221-.332-.361-.222-.643-.529-.845-.923-.202-.397-.303-.842-.303-1.333v-.21c0-.508.098-.965.293-1.372.199-.407.474-.726.826-.957.351-.235.732-.352 1.142-.352.641 0 1.149.22 1.524.659.377.437.566 1.034.566 1.792v.327h-3.77v.113c0 .599.171 1.098.513 1.499.345.397.778.595 1.299.595.312 0 .588-.056.825-.17.241-.114.459-.297.654-.547l.367.278c-.43.622-1.053.933-1.87.933zm-.108-4.981c-.439 0-.81.161-1.113.484-.3.322-.482.755-.547 1.298h3.169v-.063c-.016-.508-.161-.921-.435-1.24-.273-.319-.631-.479-1.074-.479z" fill="#14283d"/><path d="m52.8984 349v-7.109h2.0996c.7618 0 1.3396.158 1.7334.473.3939.313.5909.775.5909 1.387 0 .368-.1009.688-.3028.962-.1985.27-.472.464-.8203.581.4134.091.7455.295.9961.61.2539.316.3809.681.3809 1.094 0 .628-.2035 1.12-.6104 1.475-.4036.351-.9668.527-1.6894.527zm.6006-3.418v2.91h1.8018c.5143 0 .9212-.13 1.2207-.39.3027-.264.4541-.629.4541-1.094 0-.44-.1449-.786-.4346-1.04-.2864-.257-.6836-.386-1.1914-.386zm0-.503h1.6406c.5014-.01.8887-.127 1.1622-.351.2767-.228.415-.559.415-.992 0-.455-.1432-.791-.4297-1.006-.2832-.218-.7129-.327-1.2891-.327h-1.499zm5.2733 1.201c0-.508.0976-.965.2929-1.372.1986-.407.4769-.722.835-.947.3613-.228.7699-.342 1.2256-.342.7031 0 1.2728.248 1.709.742.4362.492.6543 1.145.6543 1.958v.122c0 .511-.0993.972-.2979 1.382-.1953.407-.472.721-.8301.943-.358.221-.7666.332-1.2256.332-.6998 0-1.2695-.246-1.7089-.738-.4362-.494-.6543-1.149-.6543-1.963zm.5859.161c0 .632.1628 1.151.4883 1.558.3288.404.7584.605 1.289.605.5274 0 .9538-.201 1.2793-.605.3288-.407.4932-.942.4932-1.606v-.113c0-.403-.0749-.773-.2246-1.108s-.3597-.594-.6299-.776c-.2702-.186-.5794-.279-.9277-.279-.5209 0-.9457.205-1.2744.615-.3288.407-.4932.941-.4932 1.602zm6.1961 2.559h-.5859v-7.5h.5859zm2.4461 0h-.5859v-5.283h.5859zm-.6885-6.812c0-.11.0358-.203.1074-.278.0717-.078.1693-.117.293-.117s.2214.039.293.117c.0748.075.1123.168.1123.278 0 .111-.0375.204-.1123.279-.0716.075-.1693.112-.293.112s-.2213-.037-.293-.112c-.0716-.075-.1074-.168-.1074-.279zm2.2459 4.122c0-.827.1823-1.482.5469-1.963.3678-.485.8659-.728 1.4941-.728.7194 0 1.2663.287 1.6407.86l.0292-.762h.5469v5.176c0 .68-.1904 1.219-.5713 1.616-.3808.397-.8968.595-1.5478.595-.3679 0-.7194-.083-1.0547-.249-.332-.162-.5941-.38-.7861-.654l.3271-.351c.4134.507.905.761 1.4746.761.4883 0 .8692-.145 1.1426-.434.2734-.287.415-.685.4248-1.197v-.664c-.3743.521-.9196.782-1.6357.782-.612 0-1.1036-.244-1.4746-.733-.3711-.488-.5567-1.147-.5567-1.977zm.5908.102c0 .674.1351 1.206.4053 1.597.2702.387.651.581 1.1426.581.7194 0 1.2288-.322 1.5283-.967v-2.456c-.1367-.339-.3337-.596-.5908-.771-.2572-.18-.5664-.269-.9278-.269-.4915 0-.874.194-1.1474.581-.2734.384-.4102.952-.4102 1.704zm7.036 1.782 1.6064-4.477h.6006l-1.9727 5.283h-.4736l-1.9824-5.283h.6006zm5.3465.904c-.4493 0-.8562-.111-1.2207-.332-.3614-.222-.643-.529-.8448-.923-.2018-.397-.3027-.842-.3027-1.333v-.21c0-.508.0976-.965.293-1.372.1985-.407.4736-.726.8252-.957.3515-.235.7324-.352 1.1425-.352.6413 0 1.1491.22 1.5235.659.3776.437.5664 1.034.5664 1.792v.327h-3.7696v.113c0 .599.1709 1.098.5127 1.499.3451.397.778.595 1.2989.595.3125 0 .5875-.056.8252-.17.2409-.114.4589-.297.6543-.547l.3662.278c-.4297.622-1.0531.933-1.8701.933zm-.1075-4.981c-.4394 0-.8105.161-1.1132.484-.2995.322-.4818.755-.5469 1.298h3.1689v-.063c-.0163-.508-.1611-.921-.4345-1.24-.2735-.319-.6316-.479-1.0743-.479zm5.869.098c-.1237-.023-.2556-.034-.3955-.034-.3646 0-.6739.102-.9278.307-.2506.202-.4297.497-.5371.884v3.628h-.581v-5.283h.5713l.0097.84c.3093-.625.8057-.938 1.4893-.938.1627 0 .2913.021.3857.064zm.7957 2.095c0-.821.1823-1.473.5469-1.958.3678-.489.8658-.733 1.4941-.733.7129 0 1.2565.282 1.6309.845v-2.964h.581v7.5h-.5469l-.0244-.703c-.3743.534-.9245.801-1.6504.801-.6087 0-1.1002-.244-1.4746-.733-.3711-.491-.5566-1.154-.5566-1.987zm.5908.102c0 .674.1351 1.206.4053 1.597.2702.387.651.581 1.1426.581.7194 0 1.2304-.318 1.5332-.952v-2.481c-.3028-.687-.8106-1.03-1.5235-1.03-.4915 0-.874.194-1.1474.581-.2735.384-.4102.952-.4102 1.704zm6.0545 2.588h-.5859v-5.283h.5859zm-.6885-6.812c0-.11.0358-.203.1074-.278.0717-.078.1693-.117.293-.117s.2214.039.293.117c.0748.075.1123.168.1123.278 0 .111-.0375.204-.1123.279-.0716.075-.1693.112-.293.112s-.2213-.037-.293-.112c-.0716-.075-.1074-.168-.1074-.279z" fill="#14283d"/><path d="m184.03 348.155c-.208.296-.535.528-.981.694-.443.166-.939.249-1.489.249-.557 0-1.052-.134-1.485-.401s-.768-.644-1.006-1.133c-.237-.488-.358-1.048-.361-1.679v-.899c0-.986.249-1.764.747-2.334.498-.573 1.167-.859 2.007-.859.732 0 1.322.187 1.767.561.446.372.712.884.796 1.539h-.6c-.088-.521-.301-.915-.64-1.182-.335-.27-.775-.405-1.318-.405-.664 0-1.19.236-1.577.708-.388.472-.581 1.137-.581 1.997v.84c0 .54.091 1.018.273 1.435.186.414.449.734.791.962.345.228.741.342 1.187.342.517 0 .961-.082 1.333-.244.24-.108.419-.233.537-.376v-1.836h-1.909v-.508h2.509zm2.198-4.438v5.913c0 .488-.118.861-.352 1.118s-.579.386-1.035.386c-.176 0-.347-.031-.513-.093l.01-.483c.143.042.29.063.439.063.58 0 .869-.334.869-1.001v-5.903zm-.289-1.924c.127 0 .227.039.298.117.072.075.108.168.108.278 0 .111-.036.204-.108.279-.071.075-.171.112-.298.112-.123 0-.221-.037-.293-.112-.068-.075-.102-.168-.102-.279 0-.11.034-.203.102-.278.072-.078.17-.117.293-.117zm3.99 7.305c-.45 0-.856-.111-1.221-.332-.361-.222-.643-.529-.845-.923-.202-.397-.302-.842-.302-1.333v-.21c0-.508.097-.965.293-1.372.198-.407.473-.726.825-.957.351-.235.732-.352 1.142-.352.642 0 1.149.22 1.524.659.377.437.566 1.034.566 1.792v.327h-3.769v.113c0 .599.17 1.098.512 1.499.345.397.778.595 1.299.595.313 0 .588-.056.825-.17.241-.114.459-.297.655-.547l.366.278c-.43.622-1.053.933-1.87.933zm-.108-4.981c-.439 0-.81.161-1.113.484-.299.322-.482.755-.547 1.298h3.169v-.063c-.016-.508-.161-.921-.434-1.24-.274-.319-.632-.479-1.075-.479zm3.784-.4.02.903c.199-.325.446-.573.742-.742.296-.173.624-.259.982-.259.566 0 .988.16 1.264.479.277.319.417.797.42 1.435v3.467h-.581v-3.472c-.003-.472-.104-.823-.303-1.054-.195-.231-.509-.347-.942-.347-.361 0-.682.114-.962.342-.277.224-.482.529-.615.913v3.618h-.581v-5.283zm6.587 4.477 1.607-4.477h.6l-1.972 5.283h-.474l-1.982-5.283h.6zm8.584.904c-.452 0-.841-.088-1.167-.264-.322-.179-.581-.426-.776-.742-.195.319-.479.566-.85.742s-.782.264-1.235.264c-.55 0-.977-.137-1.279-.41-.303-.277-.454-.65-.454-1.119 0-.511.179-.911.537-1.201.361-.293.875-.444 1.543-.454h1.318v-.43c0-.429-.104-.765-.312-1.005-.205-.241-.513-.362-.923-.362-.423 0-.77.106-1.04.318-.27.211-.406.488-.406.83l-.581-.064c0-.469.189-.849.567-1.142.381-.293.867-.44 1.46-.44.407 0 .753.088 1.04.264.289.172.499.431.63.776.195-.325.446-.579.752-.762.309-.185.652-.278 1.03-.278.638 0 1.139.197 1.504.591.368.391.555.939.561 1.645v.518h-3.696v.142c0 .654.156 1.167.469 1.538.312.368.748.551 1.308.551.603 0 1.13-.192 1.582-.576l.23.425c-.472.43-1.076.645-1.812.645zm-3.94-.489c.296 0 .596-.074.898-.224.306-.15.533-.329.679-.537v-1.465h-1.25c-.446 0-.809.099-1.089.298-.28.198-.434.468-.464.81l-.005.098c0 .316.106.565.318.747.215.182.519.273.913.273zm3.794-4.492c-.43 0-.791.16-1.084.479s-.47.752-.532 1.299h3.1v-.152c0-.501-.132-.897-.395-1.186-.261-.293-.624-.44-1.089-.44zm5.63.098c-.124-.023-.256-.034-.396-.034-.364 0-.674.102-.927.307-.251.202-.43.497-.538.884v3.628h-.581v-5.283h.572l.009.84c.31-.625.806-.938 1.49-.938.162 0 .291.021.385.064zm2.876 4.883c-.449 0-.856-.111-1.221-.332-.361-.222-.643-.529-.845-.923-.202-.397-.302-.842-.302-1.333v-.21c0-.508.097-.965.293-1.372.198-.407.473-.726.825-.957.351-.235.732-.352 1.142-.352.642 0 1.149.22 1.524.659.377.437.566 1.034.566 1.792v.327h-3.769v.113c0 .599.171 1.098.512 1.499.345.397.778.595 1.299.595.313 0 .588-.056.825-.17.241-.114.459-.297.655-.547l.366.278c-.43.622-1.053.933-1.87.933zm-.108-4.981c-.439 0-.81.161-1.113.484-.299.322-.482.755-.547 1.298h3.169v-.063c-.016-.508-.161-.921-.434-1.24-.274-.319-.632-.479-1.075-.479zm3.784-.4.02.903c.199-.325.446-.573.742-.742.296-.173.624-.259.982-.259.566 0 .988.16 1.264.479.277.319.417.797.42 1.435v3.467h-.581v-3.472c-.003-.472-.104-.823-.303-1.054-.195-.231-.509-.347-.942-.347-.361 0-.682.114-.962.342-.277.224-.482.529-.615.913v3.618h-.581v-5.283zm4.708 2.593c0-.821.182-1.473.546-1.958.368-.489.866-.733 1.495-.733.712 0 1.256.282 1.63.845v-2.964h.581v7.5h-.546l-.025-.703c-.374.534-.924.801-1.65.801-.609 0-1.1-.244-1.475-.733-.371-.491-.556-1.154-.556-1.987zm.59.102c0 .674.135 1.206.406 1.597.27.387.651.581 1.142.581.72 0 1.231-.318 1.533-.952v-2.481c-.302-.687-.81-1.03-1.523-1.03-.492 0-.874.194-1.147.581-.274.384-.411.952-.411 1.704zm7.246 2.686c-.449 0-.856-.111-1.22-.332-.362-.222-.643-.529-.845-.923-.202-.397-.303-.842-.303-1.333v-.21c0-.508.098-.965.293-1.372.199-.407.474-.726.825-.957.352-.235.733-.352 1.143-.352.641 0 1.149.22 1.523.659.378.437.567 1.034.567 1.792v.327h-3.77v.113c0 .599.171 1.098.513 1.499.345.397.778.595 1.299.595.312 0 .587-.056.825-.17.241-.114.459-.297.654-.547l.367.278c-.43.622-1.053.933-1.871.933zm-.107-4.981c-.439 0-.811.161-1.113.484-.3.322-.482.755-.547 1.298h3.169v-.063c-.016-.508-.161-.921-.435-1.24-.273-.319-.631-.479-1.074-.479zm6.313 4.883h-.585v-7.5h.585zm4.927 0c-.058-.166-.096-.412-.112-.737-.205.267-.467.473-.786.62-.316.143-.651.215-1.006.215-.508 0-.92-.142-1.235-.425-.313-.283-.469-.641-.469-1.074 0-.515.213-.922.64-1.221.429-.3 1.027-.449 1.791-.449h1.06v-.601c0-.377-.117-.674-.351-.889-.232-.218-.57-.327-1.016-.327-.407 0-.744.104-1.011.313-.267.208-.4.459-.4.752l-.586-.005c0-.42.195-.783.586-1.089.39-.309.871-.464 1.44-.464.589 0 1.053.148 1.392.444.342.293.517.704.527 1.231v2.5c0 .511.054.894.161 1.147v.059zm-1.836-.42c.391 0 .739-.094 1.045-.283.309-.189.534-.441.674-.757v-1.162h-1.045c-.583.006-1.038.114-1.367.322-.329.205-.493.488-.493.85 0 .296.109.542.327.737.221.195.508.293.859.293zm-.371-6.416c0-.26.091-.48.274-.659.185-.179.408-.269.669-.269.257 0 .478.09.664.269.185.179.278.399.278.659 0 .257-.09.474-.269.649-.179.176-.403.264-.673.264-.271 0-.495-.088-.674-.264-.179-.175-.269-.392-.269-.649zm.376 0c0 .163.054.298.161.405.108.108.243.161.406.161.159 0 .294-.052.405-.156.111-.107.166-.244.166-.41 0-.172-.057-.312-.171-.42-.114-.107-.247-.161-.4-.161-.16 0-.295.055-.406.166-.107.111-.161.249-.161.415zm4.414 1.553.02.903c.198-.325.446-.573.742-.742.296-.173.623-.259.981-.259.567 0 .988.16 1.265.479s.417.797.42 1.435v3.467h-.581v-3.472c-.003-.472-.104-.823-.303-1.054-.195-.231-.509-.347-.942-.347-.362 0-.682.114-.962.342-.277.224-.482.529-.615.913v3.618h-.581v-5.283z" fill="#14283d"/><path d="m189.898 272v-7.109h2.1c.762 0 1.34.158 1.733.473.394.313.591.775.591 1.387 0 .368-.101.688-.302.962-.199.27-.472.464-.821.581.414.091.746.295.996.61.254.316.381.681.381 1.094 0 .628-.203 1.12-.61 1.475-.404.351-.967.527-1.69.527zm.601-3.418v2.91h1.802c.514 0 .921-.13 1.22-.39.303-.264.455-.629.455-1.094 0-.44-.145-.786-.435-1.04-.286-.257-.684-.386-1.191-.386zm0-.503h1.641c.501-.01.888-.127 1.162-.351.276-.228.415-.559.415-.992 0-.455-.143-.791-.43-1.006-.283-.218-.713-.327-1.289-.327h-1.499zm7.441 4.019c-.449 0-.856-.111-1.22-.332-.362-.222-.643-.529-.845-.923-.202-.397-.303-.842-.303-1.333v-.21c0-.508.098-.965.293-1.372.199-.407.474-.726.825-.957.352-.235.733-.352 1.143-.352.641 0 1.149.22 1.523.659.378.437.567 1.034.567 1.792v.327h-3.77v.113c0 .599.171 1.098.513 1.499.345.397.778.595 1.299.595.312 0 .587-.056.825-.17.241-.114.459-.297.654-.547l.367.278c-.43.622-1.054.933-1.871.933zm-.107-4.981c-.439 0-.811.161-1.113.484-.3.322-.482.755-.547 1.298h3.169v-.063c-.016-.508-.161-.921-.435-1.24-.273-.319-.631-.479-1.074-.479zm6.392 3.54c0-.289-.118-.522-.352-.698-.231-.176-.581-.313-1.05-.41-.469-.101-.833-.215-1.094-.342-.257-.13-.449-.288-.576-.474-.123-.185-.185-.41-.185-.673 0-.417.174-.761.522-1.031.349-.273.795-.41 1.338-.41.589 0 1.061.147 1.416.44.358.289.537.669.537 1.137h-.586c0-.309-.13-.566-.39-.771-.257-.205-.583-.308-.977-.308-.384 0-.693.086-.928.259-.231.169-.346.391-.346.664 0 .264.096.469.288.615.195.144.548.275 1.059.396.515.12.899.249 1.153.386.257.136.447.301.571.493s.186.424.186.698c0 .446-.181.802-.542 1.069-.359.267-.827.401-1.407.401-.615 0-1.115-.148-1.499-.445-.381-.299-.571-.677-.571-1.132h.586c.023.341.166.608.43.8.267.189.618.283 1.054.283.407 0 .736-.089.987-.268.25-.179.376-.405.376-.679zm2.812-5.293v1.353h1.094v.478h-1.094v3.521c0 .293.052.511.156.654.108.143.285.215.533.215.097 0 .255-.016.473-.049l.025.479c-.153.055-.362.083-.625.083-.401 0-.692-.116-.874-.347-.183-.234-.274-.578-.274-1.03v-3.526h-.972v-.478h.972v-1.353zm4.351 6.734c-.45 0-.856-.111-1.221-.332-.361-.222-.643-.529-.845-.923-.202-.397-.302-.842-.302-1.333v-.21c0-.508.097-.965.292-1.372.199-.407.474-.726.826-.957.351-.235.732-.352 1.142-.352.642 0 1.149.22 1.524.659.377.437.566 1.034.566 1.792v.327h-3.769v.113c0 .599.17 1.098.512 1.499.345.397.778.595 1.299.595.313 0 .588-.056.825-.17.241-.114.459-.297.655-.547l.366.278c-.43.622-1.053.933-1.87.933zm-.108-4.981c-.439 0-.81.161-1.113.484-.299.322-.482.755-.547 1.298h3.169v-.063c-.016-.508-.161-.921-.435-1.24-.273-.319-.631-.479-1.074-.479zm6.568-1.753v1.353h1.093v.478h-1.093v3.521c0 .293.052.511.156.654.107.143.285.215.532.215.098 0 .256-.016.474-.049l.024.479c-.153.055-.361.083-.625.083-.4 0-.692-.116-.874-.347-.182-.234-.273-.578-.273-1.03v-3.526h-.972v-.478h.972v-1.353zm2.959 6.636h-.586v-5.283h.586zm-.689-6.812c0-.11.036-.203.108-.278.071-.078.169-.117.293-.117.123 0 .221.039.293.117.074.075.112.168.112.278 0 .111-.038.204-.112.279-.072.075-.17.112-.293.112-.124 0-.222-.037-.293-.112-.072-.075-.108-.168-.108-.279zm2.935 6.812h-.586v-7.5h.586zm5.844-2.588c0 .824-.182 1.478-.546 1.963-.365.482-.855.723-1.47.723-.736 0-1.292-.274-1.67-.821l-.024.723h-.547v-7.5h.581v2.983c.371-.576.921-.864 1.65-.864.625 0 1.118.239 1.48.718.364.475.546 1.138.546 1.987zm-.585-.102c0-.697-.136-1.234-.406-1.612-.27-.381-.651-.571-1.142-.571-.375 0-.692.093-.952.278-.261.183-.458.451-.591.806v2.383c.293.664.81.996 1.552.996.482 0 .858-.191 1.128-.571.274-.381.411-.951.411-1.709zm5.278 2.021c-.352.511-.913.767-1.685.767-.563 0-.991-.163-1.284-.489-.293-.328-.443-.813-.449-1.455v-3.437h.581v3.364c0 1.006.407 1.509 1.221 1.509.846 0 1.381-.35 1.606-1.05v-3.823h.586v5.283h-.566zm1.865-2.021c0-.821.182-1.473.547-1.958.368-.489.866-.733 1.494-.733.713 0 1.257.282 1.631.845v-2.964h.581v7.5h-.547l-.024-.703c-.375.534-.925.801-1.651.801-.608 0-1.1-.244-1.474-.733-.371-.491-.557-1.154-.557-1.987zm.591.102c0 .674.135 1.206.405 1.597.27.387.651.581 1.143.581.719 0 1.23-.318 1.533-.952v-2.481c-.303-.687-.811-1.03-1.523-1.03-.492 0-.875.194-1.148.581-.273.384-.41.952-.41 1.704z" fill="#14283d"/><path d="m46 276h63v27h-63z" fill="#e7e8ea"/><path d="m57.7412 293h-2.1269v-10.274l-3.1377 1.072v-1.802l4.9922-1.837h.2724zm4.8867 2.883-1.1513-.686c.3398-.533.5713-.999.6943-1.397.1289-.393.1963-.794.2021-1.204v-1.661h1.9249l-.0088 1.538c-.0059.621-.1641 1.242-.4746 1.863-.3047.627-.7002 1.143-1.1866 1.547zm9.5713-8.236c-.7148.756-1.5498 1.134-2.5049 1.134-1.125 0-2.0214-.392-2.6894-1.177-.668-.792-1.002-1.829-1.002-3.112 0-.844.17-1.608.5098-2.294.3398-.685.8232-1.219 1.4502-1.599.6269-.381 1.3535-.572 2.1797-.572 1.289 0 2.3115.481 3.0674 1.442.7558.961 1.1338 2.247 1.1338 3.858v.598c0 2.308-.5215 4.069-1.5645 5.282s-2.5986 1.828-4.667 1.846h-.2549v-1.767h.3076c1.2598-.017 2.2266-.319 2.9004-.905.6739-.592 1.0518-1.503 1.1338-2.734zm-2.0566-.536c.4277 0 .8291-.123 1.2041-.369s.665-.586.8701-1.019v-.835c0-.944-.1934-1.702-.5801-2.277-.3867-.574-.8877-.861-1.5029-.861s-1.1074.255-1.4766.765c-.3633.504-.5449 1.142-.5449 1.916 0 .802.1846 1.45.5537 1.942.3692.492.8613.738 1.4766.738zm12.876-6.969v1.766h-.2637c-1.1953.018-2.1504.346-2.8653.985-.7148.638-1.1396 1.544-1.2744 2.715.6856-.72 1.5616-1.081 2.628-1.081 1.1308 0 2.0214.399 2.6718 1.196.6563.797.9844 1.825.9844 3.085 0 1.3-.3838 2.355-1.1514 3.164-.7617.802-1.7636 1.204-3.0058 1.204-1.2774 0-2.3145-.472-3.1113-1.415-.7911-.944-1.1866-2.18-1.1866-3.709v-.73c0-2.244.545-4.002 1.6348-5.273 1.0957-1.272 2.6689-1.907 4.7197-1.907zm-2.294 6.108c-.4687 0-.8994.132-1.292.396-.3867.263-.6709.615-.8525 1.054v.651c0 .949.1992 1.705.5976 2.267.3985.557.9141.835 1.5469.835s1.1338-.237 1.5029-.712c.3692-.474.5537-1.098.5537-1.872 0-.773-.1874-1.403-.5624-1.89-.375-.486-.8731-.729-1.4942-.729zm5.792-3.586c0-.773.249-1.406.7471-1.898.498-.498 1.1513-.747 1.9599-.747.8203 0 1.4766.249 1.9688.747.498.492.7471 1.139.7471 1.942v.633c0 .767-.2491 1.397-.7471 1.889-.4922.493-1.1426.739-1.9512.739-.791 0-1.4443-.24-1.96-.721-.5097-.486-.7646-1.14-.7646-1.96zm1.4941.677c0 .404.1114.732.334.984.2285.246.5274.369.8965.369.3633 0 .6563-.123.8789-.369.2227-.252.334-.592.334-1.019v-.642c0-.404-.1143-.732-.3428-.984-.2226-.252-.5185-.378-.8877-.378-.3691 0-.665.129-.8877.386-.2168.252-.3252.586-.3252 1.002zm4.6582 6.521c0-.785.2549-1.421.7647-1.907s1.1602-.729 1.9512-.729c.7968 0 1.4472.243 1.9511.729.5098.486.7647 1.143.7647 1.969v.624c0 .762-.2461 1.391-.7383 1.89-.4863.492-1.1396.738-1.96.738-.8203 0-1.4824-.243-1.9863-.73-.498-.492-.7471-1.139-.7471-1.942zm1.4942.686c0 .398.1142.726.3428.984.2343.252.5332.378.8964.378.375 0 .668-.12.8789-.36.2168-.246.3252-.589.3252-1.029v-.659c0-.41-.1142-.738-.3427-.984s-.5215-.369-.8789-.369c-.3633 0-.6592.123-.8877.369-.2227.246-.334.586-.334 1.019zm-4.4824 1.494-1.0987-.633 6.2491-10.002 1.0986.633z" fill="#11253a"/><path d="m197.741 295h-2.127v-10.274l-3.137 1.072v-1.802l4.992-1.837h.272zm4.887 2.883-1.151-.686c.339-.533.571-.999.694-1.397.129-.393.196-.794.202-1.204v-1.661h1.925l-.009 1.538c-.006.621-.164 1.242-.475 1.863-.304.627-.7 1.143-1.186 1.547zm4.087-9.229.694-6.451h6.873v1.846h-5.097l-.352 3.058c.592-.339 1.26-.509 2.004-.509 1.219 0 2.165.389 2.839 1.169.679.779 1.019 1.828 1.019 3.146 0 1.301-.375 2.338-1.125 3.111-.75.768-1.778 1.152-3.085 1.152-1.172 0-2.144-.331-2.918-.993-.767-.668-1.183-1.547-1.248-2.637h2.066c.082.621.304 1.099.668 1.433.363.328.838.492 1.424.492.656 0 1.166-.235 1.529-.703.369-.469.554-1.108.554-1.916 0-.78-.203-1.395-.607-1.846-.404-.457-.961-.686-1.67-.686-.387 0-.715.053-.984.159-.27.099-.563.298-.879.597zm16.304-6.512v1.766h-.264c-1.195.018-2.151.346-2.865.985-.715.638-1.14 1.544-1.275 2.715.686-.72 1.562-1.081 2.628-1.081 1.131 0 2.022.399 2.672 1.196.656.797.984 1.825.984 3.085 0 1.3-.383 2.355-1.151 3.164-.762.802-1.764 1.204-3.006 1.204-1.277 0-2.314-.472-3.111-1.415-.791-.944-1.187-2.18-1.187-3.709v-.73c0-2.244.545-4.002 1.635-5.273 1.096-1.272 2.669-1.907 4.72-1.907zm-2.294 6.108c-.469 0-.9.132-1.292.396-.387.263-.671.615-.853 1.054v.651c0 .949.199 1.705.598 2.267.398.557.914.835 1.547.835.632 0 1.133-.237 1.503-.712.369-.474.553-1.098.553-1.872 0-.773-.187-1.403-.562-1.89-.375-.486-.873-.729-1.494-.729zm5.792-3.586c0-.773.249-1.406.747-1.898.498-.498 1.151-.747 1.96-.747.82 0 1.476.249 1.968.747.498.492.747 1.139.747 1.942v.633c0 .767-.249 1.397-.747 1.889-.492.493-1.142.739-1.951.739-.791 0-1.444-.24-1.96-.721-.51-.486-.764-1.14-.764-1.96zm1.494.677c0 .404.111.732.334.984.228.246.527.369.896.369.363 0 .656-.123.879-.369.223-.252.334-.592.334-1.019v-.642c0-.404-.114-.732-.343-.984-.222-.252-.518-.378-.887-.378-.37 0-.665.129-.888.386-.217.252-.325.586-.325 1.002zm4.658 6.521c0-.785.255-1.421.765-1.907.509-.486 1.16-.729 1.951-.729.797 0 1.447.243 1.951.729.51.486.765 1.143.765 1.969v.624c0 .762-.247 1.391-.739 1.89-.486.492-1.139.738-1.96.738-.82 0-1.482-.243-1.986-.73-.498-.492-.747-1.139-.747-1.942zm1.494.686c0 .398.114.726.343.984.234.252.533.378.896.378.375 0 .668-.12.879-.36.217-.246.325-.589.325-1.029v-.659c0-.41-.114-.738-.342-.984-.229-.246-.522-.369-.879-.369-.364 0-.659.123-.888.369-.223.246-.334.586-.334 1.019zm-4.482 1.494-1.099-.633 6.249-10.002 1.099.633z" fill="#11253a"/><path d="m29 352h90v22h-90z" fill="#e7e8ea"/><path d="m51.1826 366.438h1.5908v1.714h-1.5908v2.848h-2.1357v-2.848h-5.5283l-.0616-1.3 5.5196-8.649h2.206zm-5.4844 0h3.3487v-5.343l-.1582.281zm8.9297 7.445-1.1513-.686c.3398-.533.5713-.999.6943-1.397.1289-.393.1963-.794.2021-1.204v-1.661h1.9249l-.0088 1.538c-.0059.621-.1641 1.242-.4746 1.863-.3047.627-.7002 1.143-1.1866 1.547zm10.1602-15.741v1.766h-.2637c-1.1953.018-2.1504.346-2.8652.985-.7149.638-1.1397 1.544-1.2744 2.715.6855-.72 1.5615-1.081 2.6279-1.081 1.1309 0 2.0215.399 2.6719 1.196.6562.797.9843 1.825.9843 3.085 0 1.3-.3837 2.355-1.1513 3.164-.7617.802-1.7637 1.204-3.0059 1.204-1.2773 0-2.3144-.472-3.1113-1.415-.791-.944-1.1865-2.18-1.1865-3.709v-.73c0-2.244.5449-4.002 1.6347-5.273 1.0957-1.272 2.669-1.907 4.7198-1.907zm-2.294 6.108c-.4687 0-.8994.132-1.292.396-.3867.263-.6709.615-.8525 1.054v.651c0 .949.1992 1.705.5977 2.267.3984.557.914.835 1.5468.835.6329 0 1.1338-.237 1.503-.712.3691-.474.5537-1.098.5537-1.872 0-.773-.1875-1.403-.5625-1.89-.375-.486-.8731-.729-1.4942-.729zm12.5069-2.76.0615.993c.668-.779 1.582-1.169 2.7422-1.169 1.2715 0 2.1416.487 2.6103 1.459.6914-.972 1.6641-1.459 2.918-1.459 1.0488 0 1.8281.29 2.3379.871.5156.58.7793 1.435.791 2.566v6.249h-2.1357v-6.188c0-.603-.1319-1.045-.3955-1.327-.2637-.281-.7002-.422-1.3096-.422-.4863 0-.8848.132-1.1953.396-.3047.258-.5186.598-.6416 1.02l.0088 6.521h-2.1358v-6.258c-.0293-1.119-.6006-1.679-1.7138-1.679-.8555 0-1.462.349-1.8194 1.046v6.891h-2.1357v-9.51zm15.9258 9.51h-2.1358v-9.51h2.1358zm-2.2676-11.979c0-.329.1025-.601.3076-.818.2109-.217.5098-.325.8965-.325s.6855.108.8965.325c.2109.217.3164.489.3164.818 0 .322-.1055.591-.3164.808-.211.211-.5098.317-.8965.317s-.6856-.106-.8965-.317c-.2051-.217-.3076-.486-.3076-.808zm6.873 11.979h-2.1357v-13.5h2.1357zm4.6058 0h-2.136v-13.5h2.136zm3.665-2.25c.398 0 .706.114.923.343.216.222.325.504.325.844 0 .334-.109.612-.325.834-.217.217-.525.326-.923.326-.381 0-.683-.109-.906-.326-.222-.216-.334-.495-.334-.834 0-.34.109-.622.326-.844.216-.229.521-.343.914-.343z" fill="#11253a"/><path d="m170 350h91v24h-91z" fill="#e7e8ea"/><path d="m186.428 363.626h1.301c.656-.006 1.174-.176 1.555-.51.387-.334.58-.817.58-1.45 0-.609-.161-1.081-.483-1.415-.317-.34-.803-.51-1.459-.51-.574 0-1.046.167-1.415.501-.369.328-.554.759-.554 1.292h-2.136c0-.656.173-1.254.519-1.793.352-.539.838-.958 1.459-1.257.627-.304 1.327-.457 2.101-.457 1.277 0 2.279.323 3.005.967.733.639 1.099 1.529 1.099 2.672 0 .574-.185 1.116-.554 1.626-.363.504-.835.885-1.415 1.143.703.24 1.237.618 1.6 1.133.369.516.554 1.131.554 1.846 0 1.148-.396 2.063-1.187 2.742-.785.68-1.819 1.02-3.102 1.02-1.231 0-2.239-.328-3.024-.985-.785-.656-1.178-1.529-1.178-2.619h2.136c0 .563.188 1.02.563 1.371.38.352.89.528 1.529.528.662 0 1.183-.176 1.564-.528.381-.351.572-.861.572-1.529 0-.674-.2-1.192-.598-1.556-.398-.363-.99-.545-1.775-.545h-1.257zm8.2 10.257-1.151-.686c.339-.533.571-.999.694-1.397.129-.393.196-.794.202-1.204v-1.661h1.925l-.009 1.538c-.006.621-.164 1.242-.475 1.863-.304.627-.7 1.143-1.186 1.547zm10.74-7.445h1.591v1.714h-1.591v2.848h-2.136v-2.848h-5.528l-.061-1.3 5.519-8.649h2.206zm-5.484 0h3.348v-5.343l-.158.281zm15.117-4.948.061.993c.668-.779 1.583-1.169 2.743-1.169 1.271 0 2.141.487 2.61 1.459.691-.972 1.664-1.459 2.918-1.459 1.049 0 1.828.29 2.338.871.516.58.779 1.435.791 2.566v6.249h-2.136v-6.188c0-.603-.132-1.045-.395-1.327-.264-.281-.701-.422-1.31-.422-.486 0-.885.132-1.195.396-.305.258-.519.598-.642 1.02l.009 6.521h-2.136v-6.258c-.029-1.119-.6-1.679-1.714-1.679-.855 0-1.462.349-1.819 1.046v6.891h-2.136v-9.51zm15.926 9.51h-2.136v-9.51h2.136zm-2.268-11.979c0-.329.103-.601.308-.818.211-.217.51-.325.896-.325.387 0 .686.108.897.325s.316.489.316.818c0 .322-.105.591-.316.808-.211.211-.51.317-.897.317-.386 0-.685-.106-.896-.317-.205-.217-.308-.486-.308-.808zm6.873 11.979h-2.136v-13.5h2.136zm4.606 0h-2.136v-13.5h2.136zm3.665-2.25c.398 0 .706.114.923.343.216.222.325.504.325.844 0 .334-.109.612-.325.834-.217.217-.525.326-.923.326-.381 0-.683-.109-.906-.326-.222-.216-.334-.495-.334-.834 0-.34.109-.622.326-.844.216-.229.521-.343.914-.343z" fill="#11253a"/><path d="m170 373h91v17h-91z" fill="#e7e8ea"/><path d="m177.809 384v-6.398h1.889c.686 0 1.206.142 1.56.426.355.281.532.697.532 1.248 0 .331-.091.62-.272.866-.179.243-.425.417-.739.523.372.082.671.265.897.549.228.284.343.612.343.984 0 .566-.184 1.008-.55 1.327-.363.317-.87.475-1.52.475zm.54-3.076v2.619h1.622c.463 0 .829-.117 1.098-.352.273-.237.409-.565.409-.984 0-.395-.13-.707-.391-.936-.258-.231-.615-.347-1.072-.347zm0-.453h1.477c.451-.009.799-.114 1.046-.316.249-.205.373-.503.373-.892 0-.41-.129-.712-.387-.906-.254-.196-.641-.294-1.16-.294h-1.349zm6.697 3.617c-.404 0-.77-.1-1.098-.299-.325-.199-.579-.476-.76-.831-.182-.357-.273-.757-.273-1.199v-.189c0-.457.088-.869.264-1.235.178-.366.426-.653.742-.861.317-.211.66-.317 1.029-.317.577 0 1.034.198 1.371.593.34.393.51.931.51 1.613v.295h-3.393v.101c0 .539.154.989.461 1.349.311.357.701.536 1.169.536.282 0 .529-.051.743-.154.217-.102.413-.266.589-.492l.329.251c-.386.559-.947.839-1.683.839zm-.096-4.483c-.396 0-.73.145-1.002.436-.27.29-.434.679-.492 1.168h2.852v-.057c-.015-.457-.145-.829-.391-1.116-.247-.287-.569-.431-.967-.431zm3.493 4.395h-.527v-6.75h.527zm4.434 0c-.052-.149-.086-.371-.101-.664-.184.241-.42.427-.707.559-.284.128-.586.193-.905.193-.457 0-.828-.128-1.112-.382-.281-.255-.422-.578-.422-.967 0-.463.192-.829.576-1.099.386-.269.924-.404 1.612-.404h.954v-.541c0-.34-.105-.606-.316-.799-.208-.197-.513-.295-.914-.295-.367 0-.67.094-.91.281-.24.188-.361.413-.361.677l-.527-.004c0-.378.176-.705.527-.98.352-.279.784-.418 1.297-.418.53 0 .948.134 1.252.4.308.264.466.633.475 1.108v2.25c0 .46.048.804.145 1.032v.053zm-1.652-.378c.352 0 .665-.085.941-.255.278-.17.48-.397.606-.681v-1.046h-.94c-.525.006-.935.103-1.231.29-.296.185-.444.44-.444.765 0 .266.098.488.295.663.199.176.457.264.773.264zm-.334-5.774c0-.235.082-.432.246-.594.167-.161.368-.241.602-.241.232 0 .431.08.598.241.167.162.25.359.25.594 0 .231-.08.426-.241.584s-.364.237-.607.237-.445-.079-.606-.237-.242-.353-.242-.584zm.338 0c0 .146.049.268.146.364.096.097.218.145.364.145.144 0 .265-.046.365-.14.1-.097.149-.22.149-.369 0-.156-.051-.282-.153-.378-.103-.097-.223-.145-.361-.145-.143 0-.265.05-.364.149-.097.1-.146.224-.146.374zm3.973 1.397.018.813c.178-.293.401-.516.668-.668.266-.155.561-.233.883-.233.51 0 .889.144 1.138.431s.375.718.378 1.292v3.12h-.523v-3.125c-.003-.424-.094-.741-.272-.949-.176-.208-.459-.312-.848-.312-.326 0-.614.103-.866.308-.249.202-.434.476-.554.822v3.256h-.523v-4.755zm5.036 4.755h-.527v-4.755h.527zm-.619-6.13c0-.1.032-.183.096-.251.065-.07.153-.105.264-.105s.199.035.264.105c.067.068.101.151.101.251 0 .099-.034.183-.101.25-.065.068-.153.101-.264.101s-.199-.033-.264-.101c-.064-.067-.096-.151-.096-.25zm2.553 1.375.017.813c.179-.293.402-.516.668-.668.267-.155.561-.233.884-.233.509 0 .889.144 1.138.431s.375.718.378 1.292v3.12h-.523v-3.125c-.003-.424-.094-.741-.273-.949-.175-.208-.458-.312-.848-.312-.325 0-.613.103-.865.308-.249.202-.434.476-.554.822v3.256h-.523v-4.755zm4.236 2.334c0-.745.164-1.333.492-1.767.331-.437.78-.655 1.345-.655.648 0 1.14.258 1.477.774l.026-.686h.492v4.658c0 .613-.171 1.097-.514 1.455-.343.357-.807.536-1.393.536-.331 0-.647-.075-.949-.224-.299-.147-.535-.343-.708-.589l.295-.316c.372.457.814.685 1.327.685.439 0 .782-.13 1.028-.391.246-.258.374-.617.382-1.077v-.597c-.336.469-.827.703-1.472.703-.55 0-.993-.22-1.327-.659-.334-.44-.501-1.033-.501-1.78zm.532.092c0 .606.122 1.085.365 1.437.243.349.586.523 1.028.523.647 0 1.106-.29 1.375-.87v-2.211c-.123-.304-.3-.536-.531-.694-.232-.161-.51-.242-.835-.242-.443 0-.787.175-1.033.523-.246.346-.369.857-.369 1.534zm7.519 1.121c0-.261-.105-.471-.316-.629-.208-.158-.523-.281-.945-.369-.422-.091-.75-.193-.985-.308-.231-.117-.404-.259-.518-.426-.112-.167-.167-.369-.167-.606 0-.375.157-.684.47-.928.314-.246.715-.369 1.204-.369.53 0 .955.132 1.275.396.322.26.483.602.483 1.024h-.527c0-.279-.118-.51-.352-.695-.231-.184-.524-.277-.879-.277-.346 0-.624.078-.835.233-.208.153-.312.352-.312.598 0 .237.087.422.259.554.176.129.494.247.954.356.463.108.809.224 1.037.347.232.123.403.271.514.444.112.173.167.382.167.628 0 .402-.162.722-.487.963-.323.24-.745.36-1.266.36-.554 0-1.004-.133-1.349-.4-.343-.27-.514-.609-.514-1.02h.527c.02.308.149.548.387.721.24.17.556.255.949.255.366 0 .662-.081.888-.242.225-.161.338-.364.338-.61zm1.503-1.213c0-.745.164-1.333.492-1.767.331-.437.779-.655 1.345-.655.647 0 1.139.258 1.476.774l.027-.686h.492v4.658c0 .613-.171 1.097-.514 1.455-.343.357-.807.536-1.393.536-.331 0-.648-.075-.949-.224-.299-.147-.535-.343-.708-.589l.294-.316c.372.457.815.685 1.328.685.439 0 .782-.13 1.028-.391.246-.258.373-.617.382-1.077v-.597c-.337.469-.827.703-1.472.703-.551 0-.993-.22-1.327-.659-.334-.44-.501-1.033-.501-1.78zm.532.092c0 .606.121 1.085.364 1.437.244.349.586.523 1.029.523.647 0 1.106-.29 1.375-.87v-2.211c-.123-.304-.3-.536-.532-.694-.231-.161-.509-.242-.834-.242-.443 0-.787.175-1.033.523-.246.346-.369.857-.369 1.534zm6.868-1.978c-.111-.02-.23-.03-.356-.03-.328 0-.606.092-.835.276-.225.182-.386.447-.483.796v3.265h-.523v-4.755h.514l.009.756c.278-.563.725-.844 1.34-.844.147 0 .263.019.347.057zm3.661 4.307c-.053-.149-.086-.371-.101-.664-.185.241-.421.427-.708.559-.284.128-.586.193-.905.193-.457 0-.828-.128-1.112-.382-.281-.255-.422-.578-.422-.967 0-.463.192-.829.576-1.099.387-.269.924-.404 1.613-.404h.953v-.541c0-.34-.105-.606-.316-.799-.208-.197-.513-.295-.914-.295-.366 0-.669.094-.91.281-.24.188-.36.413-.36.677l-.527-.004c0-.378.175-.705.527-.98.352-.279.784-.418 1.296-.418.531 0 .948.134 1.253.4.307.264.466.633.474 1.108v2.25c0 .46.049.804.145 1.032v.053zm-1.652-.378c.351 0 .665-.085.94-.255.278-.17.481-.397.606-.681v-1.046h-.94c-.524.006-.935.103-1.23.29-.296.185-.444.44-.444.765 0 .266.098.488.294.663.199.176.457.264.774.264zm3.265-2.043c0-.739.164-1.326.492-1.763.331-.439.779-.659 1.345-.659.641 0 1.131.254 1.467.76v-2.667h.523v6.75h-.492l-.022-.633c-.337.481-.832.721-1.485.721-.548 0-.99-.22-1.327-.659-.334-.443-.501-1.039-.501-1.789zm.531.092c0 .606.122 1.085.365 1.437.243.349.586.523 1.029.523.647 0 1.107-.286 1.379-.857v-2.232c-.272-.619-.729-.928-1.371-.928-.442 0-.786.175-1.032.523-.246.346-.37.857-.37 1.534zm10.728-3.766-2.734 6.095h-.549l2.716-5.95h-3.639v-.448h4.206zm4.28 4.034h.997v.444h-.997v1.617h-.528v-1.617h-3.01v-.299l2.962-4.482h.576zm-2.892 0h2.364v-3.656l-.232.404zm4.531-3.107c0-.381.117-.696.352-.945.237-.252.537-.378.9-.378.364 0 .663.126.897.378.237.249.356.573.356.971v.312c0 .375-.117.689-.352.941-.231.249-.529.373-.892.373-.36 0-.66-.123-.901-.369-.24-.246-.36-.571-.36-.975zm.426.338c0 .273.075.497.224.673.153.176.356.263.611.263.249 0 .447-.087.593-.263.15-.179.225-.409.225-.69v-.321c0-.272-.077-.497-.229-.672-.152-.179-.352-.268-.598-.268-.243 0-.442.087-.597.263-.153.176-.229.41-.229.703zm2.795 3.261c0-.381.117-.696.352-.945.237-.249.536-.373.896-.373.361 0 .659.124.897.373.24.246.36.572.36.976v.312c0 .381-.119.696-.356.945-.234.249-.532.373-.892.373s-.661-.123-.901-.369c-.237-.249-.356-.573-.356-.971zm.422.343c0 .275.075.501.224.677.152.175.356.263.611.263.252 0 .451-.088.598-.263.149-.179.224-.412.224-.699v-.321c0-.281-.076-.507-.229-.677-.149-.172-.35-.259-.602-.259-.246 0-.445.087-.597.259-.153.173-.229.405-.229.695zm-2.215.694-.329-.211 3.124-5.001.33.211z" fill="#11253a"/><path d="m24 374h102v26h-102z" fill="#e7e8ea"/><path d="m39.333 382.012h-2.9839v2.988h-.5405v-6.398h3.9639v.461h-3.4234v2.487h2.9839zm3.1597 3.076c-.4043 0-.7705-.1-1.0987-.299-.3252-.199-.5786-.476-.7602-.831-.1817-.357-.2725-.757-.2725-1.199v-.189c0-.457.0879-.869.2637-1.235.1787-.366.4263-.653.7427-.861.3164-.211.6592-.317 1.0283-.317.5771 0 1.0342.198 1.3711.593.3398.393.5098.931.5098 1.613v.295h-3.3926v.101c0 .539.1538.989.4614 1.349.3105.357.7002.536 1.1689.536.2813 0 .5289-.051.7427-.154.2168-.102.4131-.266.5889-.492l.3296.251c-.3867.559-.9478.839-1.6831.839zm-.0967-4.483c-.3955 0-.7295.145-1.002.436-.2695.29-.4336.679-.4921 1.168h2.852v-.057c-.0146-.457-.145-.829-.3911-1.116s-.5684-.431-.9668-.431zm3.4936 4.395h-.5273v-6.75h.5273zm2.0215 0h-.5273v-6.75h.5273zm3.274.088c-.4043 0-.7705-.1-1.0987-.299-.3252-.199-.5786-.476-.7602-.831-.1817-.357-.2725-.757-.2725-1.199v-.189c0-.457.0879-.869.2637-1.235.1787-.366.4263-.653.7427-.861.3164-.211.6591-.317 1.0283-.317.5771 0 1.0342.198 1.3711.593.3398.393.5097.931.5097 1.613v.295h-3.3925v.101c0 .539.1538.989.4614 1.349.3105.357.7002.536 1.1689.536.2813 0 .5288-.051.7427-.154.2168-.102.4131-.266.5889-.492l.3296.251c-.3868.559-.9478.839-1.6831.839zm-.0967-4.483c-.3955 0-.7295.145-1.002.436-.2695.29-.4336.679-.4922 1.168h2.8521v-.057c-.0147-.457-.145-.829-.3911-1.116s-.5684-.431-.9668-.431zm5.7524 3.187c0-.261-.1054-.471-.3164-.629-.208-.158-.5229-.281-.9448-.369-.4219-.091-.75-.193-.9844-.308-.2314-.117-.4043-.259-.5185-.426-.1114-.167-.167-.369-.167-.606 0-.375.1567-.684.4702-.928.3135-.246.7148-.369 1.2041-.369.5303 0 .9551.132 1.2744.396.3223.26.4834.602.4834 1.024h-.5273c0-.279-.1172-.51-.3516-.695-.2315-.184-.5244-.277-.8789-.277-.3457 0-.624.078-.835.233-.208.153-.312.352-.312.598 0 .237.0864.422.2593.554.1758.129.4936.247.9536.356.4629.108.8086.224 1.0371.347.2315.123.4028.271.5142.444.1113.173.167.382.167.628 0 .402-.1626.722-.4878.963-.3223.24-.7442.36-1.2657.36-.5537 0-1.0034-.133-1.3491-.4-.3427-.27-.5141-.609-.5141-1.02h.5273c.0205.308.1494.548.3867.721.2403.17.5567.255.9492.255.3663 0 .6622-.081.8877-.242.2256-.161.3384-.364.3384-.61zm1.503-1.213c0-.745.164-1.333.4921-1.767.3311-.437.7793-.655 1.3448-.655.6474 0 1.1396.258 1.4765.774l.0264-.686h.4922v4.658c0 .613-.1714 1.097-.5142 1.455-.3428.357-.8071.536-1.393.536-.3311 0-.6475-.075-.9493-.224-.2988-.147-.5346-.343-.7075-.589l.2944-.316c.3721.457.8145.685 1.3272.685.4395 0 .7822-.13 1.0283-.391.2461-.258.3736-.617.3823-1.077v-.597c-.3369.469-.8276.703-1.4721.703-.5508 0-.9932-.22-1.3272-.659-.334-.44-.5009-1.033-.5009-1.78zm.5317.092c0 .606.1216 1.085.3647 1.437.2432.349.586.523 1.0284.523.6474 0 1.1059-.29 1.3754-.87v-2.211c-.123-.304-.3002-.536-.5317-.694-.2314-.161-.5098-.242-.835-.242-.4423 0-.7866.175-1.0327.523-.2461.346-.3691.857-.3691 1.534zm5.2383-2.426v5.322c0 .439-.1055.775-.3164 1.006-.211.232-.5215.347-.9317.347-.1582 0-.312-.027-.4614-.083l.0088-.435c.1289.038.2607.057.3955.057.5215 0 .7822-.3.7822-.901v-5.313zm-.2593-1.731c.1143 0 .2036.035.2681.105.0644.068.0966.151.0966.251 0 .099-.0322.183-.0966.25-.0645.068-.1538.101-.2681.101-.1113 0-.1992-.033-.2637-.101-.0615-.067-.0923-.151-.0923-.25 0-.1.0308-.183.0923-.251.0645-.07.1524-.105.2637-.105zm3.5903 6.574c-.4043 0-.7705-.1-1.0986-.299-.3252-.199-.5786-.476-.7603-.831-.1816-.357-.2724-.757-.2724-1.199v-.189c0-.457.0879-.869.2636-1.235.1788-.366.4263-.653.7427-.861.3164-.211.6592-.317 1.0283-.317.5772 0 1.0342.198 1.3711.593.3399.393.5098.931.5098 1.613v.295h-3.3926v.101c0 .539.1538.989.4615 1.349.3105.357.7001.536 1.1689.536.2812 0 .5288-.051.7427-.154.2168-.102.4131-.266.5888-.492l.3296.251c-.3867.559-.9477.839-1.6831.839zm-.0967-4.483c-.3955 0-.7294.145-1.0019.436-.2695.29-.4336.679-.4922 1.168h2.8521v-.057c-.0147-.457-.1451-.829-.3912-1.116s-.5683-.431-.9668-.431zm3.4937 4.395h-.5273v-6.75h.5273zm1.2217-2.421c0-.739.164-1.326.4922-1.763.331-.439.7793-.659 1.3447-.659.6416 0 1.1308.254 1.4678.76v-2.667h.5229v6.75h-.4922l-.0219-.633c-.337.481-.8321.721-1.4854.721-.5478 0-.9902-.22-1.3271-.659-.334-.443-.501-1.039-.501-1.789zm.5317.092c0 .606.1216 1.085.3648 1.437.2431.349.5859.523 1.0283.523.6474 0 1.1074-.286 1.3799-.857v-2.232c-.2725-.619-.7295-.928-1.3711-.928-.4424 0-.7867.175-1.0327.523-.2461.346-.3692.857-.3692 1.534zm10.6436-.338c0 .902-.1656 1.587-.4966 2.056-.3311.466-.8189.699-1.4634.699-.6328 0-1.1177-.229-1.4546-.686-.3369-.46-.5097-1.128-.5185-2.004v-1.147c0-.899.167-1.58.5009-2.043.334-.463.8218-.694 1.4634-.694.6328 0 1.1162.224 1.4502.672.334.445.5069 1.103.5186 1.973zm-.5274-1.147c0-.733-.1201-1.287-.3603-1.662-.2373-.375-.5977-.562-1.0811-.562-.4746 0-.832.183-1.0722.549-.2403.366-.3633.907-.3692 1.622v1.257c0 .729.1231 1.287.3692 1.674.249.387.6093.58 1.081.58.4688 0 .8233-.189 1.0635-.567.2431-.378.3662-.931.3691-1.661zm1.6348 5.009-.312-.228c.2666-.358.4043-.728.4131-1.112v-.681h.5141v.549c0 .61-.2051 1.1-.6152 1.472zm5.6074-3.862c0 .902-.1655 1.587-.4966 2.056-.331.466-.8188.699-1.4633.699-.6329 0-1.1177-.229-1.4546-.686-.337-.46-.5098-1.128-.5186-2.004v-1.147c0-.899.167-1.58.501-2.043s.8218-.694 1.4634-.694c.6328 0 1.1162.224 1.4502.672.3339.445.5068 1.103.5185 1.973zm-.5273-1.147c0-.733-.1201-1.287-.3604-1.662-.2373-.375-.5976-.562-1.081-.562-.4746 0-.8321.183-1.0723.549s-.3633.907-.3691 1.622v1.257c0 .729.123 1.287.3691 1.674.249.387.6094.58 1.0811.58.4687 0 .8232-.189 1.0634-.567.2432-.378.3662-.931.3692-1.661zm5.5195 1.147c0 .902-.1655 1.587-.4966 2.056-.331.466-.8188.699-1.4634.699-.6328 0-1.1176-.229-1.4546-.686-.3369-.46-.5097-1.128-.5185-2.004v-1.147c0-.899.167-1.58.501-2.043s.8217-.694 1.4634-.694c.6328 0 1.1162.224 1.4501.672.334.445.5069 1.103.5186 1.973zm-.5273-1.147c0-.733-.1202-1.287-.3604-1.662-.2373-.375-.5977-.562-1.081-.562-.4747 0-.8321.183-1.0723.549s-.3633.907-.3692 1.622v1.257c0 .729.1231 1.287.3692 1.674.249.387.6094.58 1.081.58.4688 0 .8233-.189 1.0635-.567.2432-.378.3662-.931.3692-1.661zm4.4121-.941.0175.774c.1758-.288.3956-.503.6592-.646.2637-.144.5567-.216.8787-.216.75 0 1.226.308 1.428.923.17-.296.397-.523.682-.681.284-.161.597-.242.94-.242 1.02 0 1.54.557 1.56 1.67v3.173h-.527v-3.133c-.003-.425-.095-.74-.277-.945-.179-.205-.472-.308-.879-.308-.378.006-.697.129-.958.369-.261.238-.406.528-.435.871v3.146h-.527v-3.173c-.003-.407-.1-.71-.29-.91-.188-.202-.478-.303-.871-.303-.3306 0-.6148.095-.8521.286-.2373.187-.4131.467-.5274.839v3.261h-.5273v-4.755zm8.0904 4.755h-.527v-4.755h.527zm-.62-6.13c0-.1.032-.183.097-.251.064-.07.152-.105.264-.105.111 0 .199.035.263.105.068.068.101.151.101.251 0 .099-.033.183-.101.25-.064.068-.152.101-.263.101-.112 0-.2-.033-.264-.101-.065-.067-.097-.151-.097-.25zm2.641 6.13h-.527v-6.75h.527zm2.022 0h-.527v-6.75h.527zm1.384-.316c0-.103.032-.189.097-.26.067-.073.159-.11.277-.11.117 0 .209.037.277.11.067.071.101.157.101.26 0 .102-.034.187-.101.254-.068.065-.16.097-.277.097-.118 0-.21-.032-.277-.097-.065-.067-.097-.152-.097-.254z" fill="#11253a"/><path d="m34.5503 441.297 1.9873-6.117h1.4932l-2.8145 7.82h-1.3159l-2.8037-7.82h1.4878zm5.6289 1.703h-1.3052v-5.812h1.3052zm-1.3857-7.321c0-.2.0626-.367.1879-.499.129-.133.3116-.199.5479-.199s.4189.066.5478.199c.129.132.1934.299.1934.499 0 .197-.0644.362-.1934.494-.1289.129-.3115.194-.5478.194s-.4189-.065-.5479-.194c-.1253-.132-.1879-.297-.1879-.494zm6.8374 2.143c.4261-.494.965-.741 1.6167-.741 1.2389 0 1.8673.707 1.8852 2.122v3.797h-1.3052v-3.749c0-.401-.0877-.684-.2631-.849-.1719-.168-.4262-.252-.7627-.252-.5228 0-.9131.233-1.1709.698v4.152h-1.3052v-8.25h1.3052zm6.1875-.634v6.328c0 .594-.1486 1.047-.4458 1.359-.2937.315-.7251.472-1.2945.472-.2399 0-.4708-.03-.6928-.091v-1.031c.136.032.29.048.4619.048.4332 0 .6552-.236.666-.709v-6.376zm-1.418-1.509c0-.2.0627-.367.188-.499.1289-.133.3115-.199.5478-.199.2364 0 .419.066.5479.199.1289.132.1933.299.1933.499 0 .197-.0644.362-.1933.494-.1289.129-.3115.194-.5479.194-.2363 0-.4189-.065-.5478-.194-.1253-.132-.188-.297-.188-.494zm5.3765 7.428c-.8272 0-1.4986-.259-2.0142-.778-.512-.523-.7681-1.218-.7681-2.084v-.162c0-.58.111-1.097.333-1.552.2256-.458.5407-.814.9453-1.069.4047-.254.8558-.381 1.3536-.381.7913 0 1.4018.252 1.8315.757.4333.505.6499 1.22.6499 2.143v.527h-3.7974c.0394.48.1988.859.4781 1.138.2829.28.6373.419 1.0635.419.5979 0 1.0849-.241 1.4609-.725l.7036.672c-.2327.347-.5443.617-.9346.811-.3867.19-.8217.284-1.3051.284zm-.1558-4.979c-.3581 0-.6481.126-.8701.376-.2184.251-.3581.6-.419 1.048h2.4868v-.097c-.0286-.437-.145-.766-.3491-.988-.2041-.226-.487-.339-.8486-.339zm4.8931 4.872h-1.3052v-8.25h1.3052zm6.5151-2.847c0 .899-.2041 1.617-.6123 2.154-.4082.534-.9561.8-1.6436.8-.6373 0-1.1476-.209-1.5307-.628v2.755h-1.3052v-8.046h1.2031l.0537.591c.3832-.465.9042-.698 1.563-.698.709 0 1.264.265 1.6651.795.4046.526.6069 1.259.6069 2.197zm-1.2998-.112c0-.581-.1164-1.041-.3491-1.381-.2292-.34-.5586-.51-.9883-.51-.5335 0-.9167.22-1.1494.661v2.578c.2363.451.623.676 1.1601.676.4154 0 .7395-.166.9722-.499.2363-.337.3545-.845.3545-1.525zm4.9683 3.066c-.8272 0-1.4986-.259-2.0142-.778-.5121-.523-.7681-1.218-.7681-2.084v-.162c0-.58.111-1.097.333-1.552.2256-.458.5407-.814.9453-1.069.4047-.254.8558-.381 1.3536-.381.7913 0 1.4018.252 1.8315.757.4333.505.6499 1.22.6499 2.143v.527h-3.7974c.0394.48.1988.859.4781 1.138.2829.28.6373.419 1.0634.419.598 0 1.085-.241 1.461-.725l.7036.672c-.2327.347-.5443.617-.9346.811-.3867.19-.8217.284-1.3051.284zm-.1558-4.979c-.3581 0-.6481.126-.8701.376-.2184.251-.3581.6-.419 1.048h2.4868v-.097c-.0286-.437-.145-.766-.3491-.988-.2041-.226-.487-.339-.8486-.339zm6.5474.253c-.1719-.029-.3492-.043-.5318-.043-.598 0-1.0008.229-1.2085.687v3.975h-1.3052v-5.812h1.2461l.0323.65c.3151-.505.7519-.757 1.3105-.757.1862 0 .3402.025.4619.075zm3.3193 1.67c0-.895.2077-1.613.623-2.154.4154-.544.9722-.816 1.6704-.816.6159 0 1.1137.215 1.4932.645v-2.976h1.3052v8.25h-1.1817l-.0644-.602c-.3903.473-.9113.709-1.563.709-.6803 0-1.2318-.274-1.6543-.821-.4189-.548-.6284-1.293-.6284-2.235zm1.3052.113c0 .591.1128 1.053.3383 1.386.2292.329.5533.494.9722.494.5335 0 .9238-.238 1.1709-.714v-2.482c-.2399-.465-.6266-.698-1.1601-.698-.4226 0-.7484.168-.9776.505-.2291.333-.3437.836-.3437 1.509zm7.7075 2.943c-.8272 0-1.4985-.259-2.0142-.778-.512-.523-.768-1.218-.768-2.084v-.162c0-.58.111-1.097.333-1.552.2256-.458.5407-.814.9453-1.069.4046-.254.8558-.381 1.3535-.381.7913 0 1.4019.252 1.8315.757.4333.505.6499 1.22.6499 2.143v.527h-3.7973c.0394.48.1987.859.478 1.138.2829.28.6374.419 1.0635.419.598 0 1.0849-.241 1.4609-.725l.7036.672c-.2327.347-.5442.617-.9345.811-.3868.19-.8218.284-1.3052.284zm-.1558-4.979c-.358 0-.6481.126-.8701.376-.2184.251-.3581.6-.4189 1.048h2.4868v-.097c-.0287-.437-.145-.766-.3491-.988-.2041-.226-.487-.339-.8487-.339zm3.2764 1.923c0-.902.2113-1.622.6338-2.159.4261-.541.9901-.811 1.6919-.811.6624 0 1.1834.231 1.563.693l.059-.586h1.1763v5.635c0 .762-.2381 1.364-.7143 1.804-.4727.441-1.1119.661-1.9175.661-.4261 0-.8433-.089-1.2515-.268-.4046-.176-.7126-.407-.9238-.693l.6177-.785c.401.477.8951.715 1.4824.715.4333 0 .7752-.118 1.0259-.355.2506-.232.3759-.576.3759-1.031v-.392c-.3759.419-.8772.628-1.5039.628-.6803 0-1.2371-.27-1.6704-.811-.4297-.54-.6445-1.289-.6445-2.245zm1.2998.113c0 .584.1182 1.044.3545 1.38.2399.333.5711.5.9936.5.5264 0 .9167-.226 1.1709-.677v-2.556c-.247-.441-.6337-.661-1.1601-.661-.4297 0-.7645.17-1.0044.51-.2363.34-.3545.842-.3545 1.504zm11.3812 2.836c-.057-.111-.107-.292-.15-.542-.416.433-.924.649-1.526.649-.583 0-1.06-.166-1.428-.499-.369-.333-.554-.745-.554-1.235 0-.62.23-1.094.688-1.424.462-.333 1.121-.499 1.976-.499h.801v-.382c0-.3-.084-.54-.253-.719-.168-.183-.424-.274-.768-.274-.297 0-.54.075-.73.225-.19.147-.285.335-.285.564h-1.305c0-.318.106-.616.317-.891.211-.28.498-.498.859-.656.365-.157.772-.236 1.219-.236.681 0 1.223.172 1.628.516.405.34.612.82.623 1.439v2.621c0 .523.073.94.22 1.252v.091zm-1.434-.94c.258 0 .5-.063.725-.188.229-.125.401-.294.516-.505v-1.096h-.704c-.483 0-.847.085-1.09.253-.244.168-.365.406-.365.714 0 .251.082.451.247.602.168.147.392.22.671.22zm.344-7.815c.333 0 .614.111.843.333.229.219.344.48.344.784 0 .305-.113.564-.339.779-.222.215-.504.322-.848.322-.348 0-.634-.107-.86-.322-.222-.215-.333-.474-.333-.779 0-.304.113-.565.339-.784.229-.222.514-.333.854-.333zm-.602 1.117c0 .169.059.312.177.43.119.115.26.172.425.172.168 0 .31-.057.424-.172.118-.115.177-.258.177-.43 0-.164-.057-.306-.172-.424-.111-.122-.254-.183-.429-.183-.176 0-.321.061-.435.183-.111.118-.167.26-.167.424zm12.01 4.791c0 .903-.202 1.621-.607 2.154-.401.534-.954.8-1.66.8-.68 0-1.21-.245-1.589-.735l-.065.628h-1.182v-8.25h1.306v2.997c.376-.444.882-.666 1.52-.666.709 0 1.265.263 1.67.79.405.526.607 1.262.607 2.207zm-1.305-.112c0-.631-.111-1.103-.333-1.418-.222-.316-.544-.473-.967-.473-.566 0-.963.247-1.192.741v2.396c.232.505.633.757 1.203.757.408 0 .723-.152.945-.457.222-.304.337-.764.344-1.38zm4.963 3.066c-.827 0-1.499-.259-2.014-.778-.512-.523-.768-1.218-.768-2.084v-.162c0-.58.111-1.097.333-1.552.225-.458.54-.814.945-1.069.404-.254.856-.381 1.353-.381.792 0 1.402.252 1.832.757.433.505.65 1.22.65 2.143v.527h-3.798c.04.48.199.859.478 1.138.283.28.638.419 1.064.419.598 0 1.085-.241 1.461-.725l.703.672c-.232.347-.544.617-.934.811-.387.19-.822.284-1.305.284zm-.156-4.979c-.358 0-.648.126-.87.376-.219.251-.358.6-.419 1.048h2.487v-.097c-.029-.437-.145-.766-.349-.988-.204-.226-.487-.339-.849-.339zm11.344 2.025c0 .903-.203 1.621-.607 2.154-.401.534-.954.8-1.66.8-.68 0-1.21-.245-1.59-.735l-.064.628h-1.182v-8.25h1.305v2.997c.376-.444.883-.666 1.52-.666.709 0 1.266.263 1.671.79.404.526.607 1.262.607 2.207zm-1.305-.112c0-.631-.111-1.103-.333-1.418-.222-.316-.545-.473-.967-.473-.566 0-.963.247-1.193.741v2.396c.233.505.634.757 1.203.757.409 0 .724-.152.946-.457.222-.304.336-.764.344-1.38zm5.876 2.959c-.058-.111-.108-.292-.151-.542-.415.433-.924.649-1.525.649-.584 0-1.06-.166-1.429-.499s-.553-.745-.553-1.235c0-.62.229-1.094.687-1.424.462-.333 1.121-.499 1.977-.499h.8v-.382c0-.3-.084-.54-.252-.719-.169-.183-.425-.274-.768-.274-.298 0-.541.075-.731.225-.19.147-.284.335-.284.564h-1.306c0-.318.106-.616.317-.891.211-.28.498-.498.86-.656.365-.157.771-.236 1.219-.236.68 0 1.223.172 1.627.516.405.34.613.82.623 1.439v2.621c0 .523.074.94.221 1.252v.091zm-1.435-.94c.258 0 .5-.063.726-.188.229-.125.401-.294.515-.505v-1.096h-.703c-.484 0-.847.085-1.091.253-.243.168-.365.406-.365.714 0 .251.082.451.247.602.168.147.392.22.671.22zm5.124-4.872.038.672c.43-.519.994-.779 1.692-.779 1.21 0 1.826.693 1.848 2.079v3.84h-1.306v-3.765c0-.369-.08-.641-.241-.817-.158-.179-.417-.268-.779-.268-.526 0-.919.238-1.176.714v4.136h-1.306v-5.812zm6.8 3.32-.58.596v1.896h-1.305v-8.25h1.305v4.759l.408-.51 1.606-1.811h1.569l-2.159 2.423 2.39 3.389h-1.51zm6.311 2.599c-.827 0-1.498-.259-2.014-.778-.512-.523-.768-1.218-.768-2.084v-.162c0-.58.111-1.097.333-1.552.226-.458.541-.814.945-1.069.405-.254.856-.381 1.354-.381.791 0 1.402.252 1.831.757.434.505.65 1.22.65 2.143v.527h-3.797c.039.48.199.859.478 1.138.283.28.637.419 1.063.419.598 0 1.085-.241 1.461-.725l.704.672c-.233.347-.544.617-.935.811-.386.19-.821.284-1.305.284zm-.155-4.979c-.359 0-.649.126-.871.376-.218.251-.358.6-.419 1.048h2.487v-.097c-.028-.437-.145-.766-.349-.988-.204-.226-.487-.339-.848-.339zm4.715-.94.038.672c.43-.519.994-.779 1.692-.779 1.21 0 1.826.693 1.848 2.079v3.84h-1.306v-3.765c0-.369-.08-.641-.241-.817-.158-.179-.418-.268-.779-.268-.527 0-.919.238-1.176.714v4.136h-1.306v-5.812zm7.407 2.863c0-.895.208-1.613.623-2.154.416-.544.972-.816 1.671-.816.615 0 1.113.215 1.493.645v-2.976h1.305v8.25h-1.182l-.064-.602c-.39.473-.911.709-1.563.709-.681 0-1.232-.274-1.654-.821-.419-.548-.629-1.293-.629-2.235zm1.305.113c0 .591.113 1.053.339 1.386.229.329.553.494.972.494.533 0 .924-.238 1.171-.714v-2.482c-.24-.465-.627-.698-1.16-.698-.423 0-.749.168-.978.505-.229.333-.344.836-.344 1.509zm6.537 2.836h-1.305v-5.812h1.305zm-1.386-7.321c0-.2.063-.367.188-.499.129-.133.312-.199.548-.199s.419.066.548.199c.129.132.193.299.193.499 0 .197-.064.362-.193.494-.129.129-.312.194-.548.194s-.419-.065-.548-.194c-.125-.132-.188-.297-.188-.494zm4.023 1.509.038.672c.429-.519.993-.779 1.692-.779 1.21 0 1.826.693 1.847 2.079v3.84h-1.305v-3.765c0-.369-.08-.641-.242-.817-.157-.179-.417-.268-.778-.268-.527 0-.919.238-1.177.714v4.136h-1.305v-5.812zm7.407 2.853c0-.57.113-1.082.338-1.537.226-.458.543-.809.951-1.052.408-.247.877-.371 1.407-.371.784 0 1.42.252 1.907.757.49.505.755 1.175.795 2.009l.005.306c0 .573-.111 1.085-.333 1.536-.218.452-.533.801-.945 1.048-.408.247-.881.37-1.418.37-.82 0-1.477-.272-1.971-.816-.491-.548-.736-1.277-.736-2.186zm1.305.112c0 .598.124 1.067.371 1.408.247.336.59.504 1.031.504.44 0 .782-.171 1.026-.515.247-.344.37-.847.37-1.509 0-.588-.127-1.053-.381-1.397-.251-.344-.593-.516-1.026-.516-.426 0-.764.171-1.015.511-.251.336-.376.841-.376 1.514zm6.429-2.965.038.607c.408-.476.967-.714 1.676-.714.777 0 1.308.297 1.595.892.422-.595 1.017-.892 1.783-.892.641 0 1.117.177 1.429.532.315.354.476.877.483 1.568v3.819h-1.305v-3.781c0-.369-.081-.639-.242-.811s-.428-.258-.8-.258c-.297 0-.541.08-.731.242-.186.157-.316.365-.392.623l.006 3.985h-1.305v-3.824c-.018-.684-.367-1.026-1.048-1.026-.523 0-.893.213-1.112.639v4.211h-1.305v-5.812zm12.472 5.812h-1.305v-8.25h1.305zm4.898 0c-.057-.111-.107-.292-.15-.542-.415.433-.924.649-1.525.649-.584 0-1.06-.166-1.429-.499s-.553-.745-.553-1.235c0-.62.229-1.094.687-1.424.462-.333 1.121-.499 1.977-.499h.8v-.382c0-.3-.084-.54-.252-.719-.169-.183-.425-.274-.769-.274-.297 0-.54.075-.73.225-.19.147-.285.335-.285.564h-1.305c0-.318.106-.616.317-.891.211-.28.498-.498.859-.656.366-.157.772-.236 1.22-.236.68 0 1.222.172 1.627.516.405.34.612.82.623 1.439v2.621c0 .523.074.94.22 1.252v.091zm-1.434-.94c.258 0 .5-.063.725-.188.23-.125.401-.294.516-.505v-1.096h-.704c-.483 0-.846.085-1.09.253-.243.168-.365.406-.365.714 0 .251.082.451.247.602.168.147.392.22.671.22zm5.876-.714 1.23-4.158h1.348l-2.014 5.812h-1.133l-2.03-5.812h1.353zm5.882 1.761c-.828 0-1.499-.259-2.015-.778-.512-.523-.768-1.218-.768-2.084v-.162c0-.58.111-1.097.333-1.552.226-.458.541-.814.946-1.069.404-.254.855-.381 1.353-.381.792 0 1.402.252 1.832.757.433.505.65 1.22.65 2.143v.527h-3.798c.04.48.199.859.478 1.138.283.28.638.419 1.064.419.598 0 1.085-.241 1.461-.725l.703.672c-.232.347-.544.617-.934.811-.387.19-.822.284-1.305.284zm-.156-4.979c-.358 0-.648.126-.87.376-.219.251-.358.6-.419 1.048h2.487v-.097c-.029-.437-.145-.766-.35-.988-.204-.226-.487-.339-.848-.339zm6.547.253c-.172-.029-.349-.043-.532-.043-.598 0-1 .229-1.208.687v3.975h-1.305v-5.812h1.246l.032.65c.315-.505.752-.757 1.311-.757.186 0 .34.025.462.075zm3.277 4.726c-.828 0-1.499-.259-2.015-.778-.512-.523-.768-1.218-.768-2.084v-.162c0-.58.111-1.097.333-1.552.226-.458.541-.814.946-1.069.404-.254.855-.381 1.353-.381.791 0 1.402.252 1.832.757.433.505.65 1.22.65 2.143v.527h-3.798c.04.48.199.859.478 1.138.283.28.638.419 1.064.419.598 0 1.085-.241 1.461-.725l.703.672c-.232.347-.544.617-.934.811-.387.19-.822.284-1.305.284zm-.156-4.979c-.358 0-.648.126-.87.376-.219.251-.358.6-.419 1.048h2.487v-.097c-.029-.437-.145-.766-.35-.988-.204-.226-.487-.339-.848-.339zm9.286.253c-.171-.029-.349-.043-.531-.043-.598 0-1.001.229-1.209.687v3.975h-1.305v-5.812h1.246l.032.65c.315-.505.752-.757 1.311-.757.186 0 .34.025.462.075zm3.277 4.726c-.827 0-1.499-.259-2.014-.778-.512-.523-.768-1.218-.768-2.084v-.162c0-.58.111-1.097.333-1.552.225-.458.54-.814.945-1.069.404-.254.856-.381 1.353-.381.792 0 1.402.252 1.832.757.433.505.65 1.22.65 2.143v.527h-3.798c.04.48.199.859.478 1.138.283.28.638.419 1.064.419.598 0 1.085-.241 1.461-.725l.704.672c-.233.347-.545.617-.935.811-.387.19-.822.284-1.305.284zm-.156-4.979c-.358 0-.648.126-.87.376-.219.251-.358.6-.419 1.048h2.487v-.097c-.029-.437-.145-.766-.349-.988-.204-.226-.487-.339-.849-.339zm4.716-.94.037.672c.43-.519.994-.779 1.692-.779 1.211 0 1.826.693 1.848 2.079v3.84h-1.305v-3.765c0-.369-.081-.641-.242-.817-.157-.179-.417-.268-.779-.268-.526 0-.918.238-1.176.714v4.136h-1.305v-5.812zm6.547-1.412v1.412h1.026v.967h-1.026v3.244c0 .222.043.384.129.484.09.096.247.145.473.145.15 0 .302-.018.456-.054v1.01c-.297.082-.583.123-.859.123-1.003 0-1.504-.553-1.504-1.659v-3.293h-.956v-.967h.956v-1.412zm4.587 7.331c-.827 0-1.498-.259-2.014-.778-.512-.523-.768-1.218-.768-2.084v-.162c0-.58.111-1.097.333-1.552.225-.458.541-.814.945-1.069.405-.254.856-.381 1.354-.381.791 0 1.402.252 1.831.757.434.505.65 1.22.65 2.143v.527h-3.797c.039.48.199.859.478 1.138.283.28.637.419 1.063.419.598 0 1.085-.241 1.461-.725l.704.672c-.233.347-.544.617-.935.811-.386.19-.821.284-1.305.284zm-.156-4.979c-.358 0-.648.126-.87.376-.218.251-.358.6-.419 1.048h2.487v-.097c-.029-.437-.145-.766-.349-.988-.204-.226-.487-.339-.849-.339z" fill="#10253a"/><path d="m8 59h273v178h-273z" fill="#11253a"/><path d="m99 178h98v23h-98z" fill="#11253a"/><g fill="#fff"><path d="m74.6211 99.1533h-2.6851v3.8467h-.7871v-9.2422h3.0025c.986 0 1.7562.2391 2.3105.7173.5544.4782.8316 1.1468.8316 2.0059 0 .5924-.1735 1.115-.5206 1.5678-.347.4528-.8125.766-1.3964.9395l2.3105 3.9287v.083h-.8315zm-2.6851-.6665h2.3931c.6559 0 1.1828-.1862 1.5806-.5586s.5966-.8548.5966-1.4472c0-.6517-.2073-1.1574-.622-1.5171s-.9966-.5396-1.7456-.5396h-2.2027zm9.9659 4.6402c-.584 0-1.113-.144-1.587-.432-.4697-.287-.8357-.687-1.0981-1.199-.2624-.517-.3936-1.094-.3936-1.7333v-.273c0-.6601.127-1.2547.3809-1.7836.2581-.529.6157-.9437 1.0728-1.2442.457-.3047.9521-.457 1.4853-.457.8337 0 1.4938.2856 1.9805.8569.4909.5671.7363 1.3436.7363 2.3296v.4253h-4.9004v.146c0 .7783.2222 1.4283.6665 1.9483.4486.517 1.0114.775 1.6885.775.4062 0 .7638-.074 1.0727-.222.3132-.148.5967-.385.8506-.711l.4761.362c-.5586.808-1.369 1.212-2.4311 1.212zm-.1397-6.4747c-.5713 0-1.0537.2095-1.4473.6285-.3893.4189-.6263.9817-.7109 1.6884h4.1196v-.0825c-.0211-.6601-.2094-1.1976-.5649-1.6123s-.821-.6221-1.3965-.6221zm4.9194-.5205.0254 1.1744c.2582-.4232.5798-.7448.9649-.9649.3851-.2243.8104-.3364 1.2759-.3364.7363 0 1.2843.2073 1.644.6221.3597.4147.5417 1.0367.5459 1.8662v4.5068h-.7554v-4.5132c-.0042-.6136-.1354-1.0706-.3935-1.3711-.2539-.3004-.6623-.4507-1.2251-.4507-.4698 0-.8866.1482-1.2505.4444-.3597.292-.6263.6876-.7998 1.187v4.7036h-.7554v-6.8682zm7.6045-1.7583v1.7583h1.4219v.6221h-1.4219v4.5771c0 .38.0677.664.2032.85.1396.186.3702.279.6919.279.1269 0 .3321-.021.6157-.063l.0317.622c-.1989.072-.4697.108-.8125.108-.5205 0-.8992-.15-1.1362-.451-.237-.304-.3555-.751-.3555-1.339v-4.5831h-1.2632v-.6221h1.2632v-1.7583zm5.6558 8.7535c-.584 0-1.113-.144-1.5869-.432-.4697-.287-.8358-.687-1.0982-1.199-.2623-.517-.3935-1.094-.3935-1.7333v-.273c0-.6601.1269-1.2547.3808-1.7836.2582-.529.6158-.9437 1.0728-1.2442.457-.3047.9521-.457 1.4853-.457.8338 0 1.4938.2856 1.9808.8569.491.5671.736 1.3436.736 2.3296v.4253h-4.9003v.146c0 .7783.2221 1.4283.6665 1.9483.4485.517 1.0113.775 1.6884.775.4064 0 .7634-.074 1.0724-.222.314-.148.597-.385.851-.711l.476.362c-.559.808-1.369 1.212-2.4311 1.212zm-.1397-6.4747c-.5712 0-1.0537.2095-1.4472.6285-.3893.4189-.6263.9817-.711 1.6884h4.12v-.0825c-.021-.6601-.21-1.1976-.565-1.6123-.356-.4147-.821-.6221-1.3968-.6221zm4.9198-.5205.025 1.1744c.258-.4232.58-.7448.965-.9649.385-.2243.81-.3364 1.276-.3364.736 0 1.284.2073 1.644.6221.36.4147.542 1.0367.546 1.8662v4.5068h-.756v-4.5132c-.004-.6136-.135-1.0706-.393-1.3711-.254-.3004-.662-.4507-1.225-.4507-.47 0-.887.1482-1.251.4444-.359.292-.626.6876-.8 1.187v4.7036h-.755v-6.8682zm9.28 3.3706c0-1.0664.237-1.9148.711-2.5454.478-.6347 1.126-.9521 1.942-.9521.927 0 1.634.366 2.12 1.0981v-3.853h.756v9.75h-.711l-.032-.914c-.487.694-1.202 1.041-2.145 1.041-.792 0-1.431-.317-1.917-.952-.483-.639-.724-1.5-.724-2.5837zm.768.1333c0 .8763.176 1.5683.527 2.0753.351.504.846.756 1.485.756.935 0 1.6-.413 1.993-1.238v-3.2246c-.393-.8929-1.053-1.3394-1.98-1.3394-.639 0-1.136.2518-1.492.7554-.355.4994-.533 1.2378-.533 2.2153zm7.611 3.3643h-.762v-6.8682h.762zm-.895-8.855c0-.1439.046-.2645.139-.3618.094-.1016.221-.1523.381-.1523.161 0 .288.0507.381.1523.098.0973.146.2179.146.3618s-.048.2645-.146.3618c-.093.0974-.22.146-.381.146-.16 0-.287-.0486-.381-.146-.093-.0973-.139-.2179-.139-.3618zm3.688 1.9868.025 1.1744c.258-.4232.58-.7448.965-.9649.385-.2243.81-.3364 1.276-.3364.736 0 1.284.2073 1.644.6221.36.4147.542 1.0367.546 1.8662v4.5068h-.755v-4.5132c-.005-.6136-.136-1.0706-.394-1.3711-.254-.3004-.662-.4507-1.225-.4507-.47 0-.887.1482-1.251.4444-.359.292-.626.6876-.799 1.187v4.7036h-.756v-6.8682zm12.244 6.9952c-.584 0-1.112-.144-1.586-.432-.47-.287-.836-.687-1.099-1.199-.262-.517-.393-1.094-.393-1.7333v-.273c0-.6601.127-1.2547.381-1.7836.258-.529.615-.9437 1.072-1.2442.457-.3047.953-.457 1.486-.457.833 0 1.494.2856 1.98.8569.491.5671.737 1.3436.737 2.3296v.4253h-4.901v.146c0 .7783.222 1.4283.667 1.9483.448.517 1.011.775 1.688.775.406 0 .764-.074 1.073-.222.313-.148.597-.385.851-.711l.476.362c-.559.808-1.369 1.212-2.432 1.212zm-.139-6.4747c-.571 0-1.054.2095-1.447.6285-.39.4189-.627.9817-.711 1.6884h4.119v-.0825c-.021-.6601-.209-1.1976-.565-1.6123-.355-.4147-.821-.6221-1.396-.6221zm7.369.127c-.16-.0296-.332-.0444-.514-.0444-.474 0-.876.1333-1.206.3999-.326.2623-.558.6453-.698 1.1489v4.7163h-.755v-6.8682h.742l.013 1.0918c.402-.8125 1.047-1.2187 1.936-1.2187.212 0 .379.0275.501.0825zm8.018 4.3547c0-.275-.115-.485-.343-.629-.225-.144-.599-.27-1.124-.38-.525-.111-.963-.2502-1.314-.4194-.77-.3724-1.155-.912-1.155-1.6187 0-.5924.25-1.0876.749-1.4853.499-.3978 1.134-.5967 1.904-.5967.821 0 1.484.2031 1.987.6094.508.4062.762.9331.762 1.5805h-1.543c0-.2962-.11-.5416-.33-.7363-.22-.1989-.512-.2983-.876-.2983-.338 0-.615.0782-.831.2348-.212.1566-.318.3661-.318.6284 0 .237.1.4211.299.5523s.601.2645 1.206.3999c.605.1312 1.079.2899 1.422.4761.347.1819.603.402.768.6603.169.258.254.571.254.939 0 .618-.256 1.12-.768 1.505-.512.381-1.183.571-2.013.571-.562 0-1.064-.102-1.504-.305s-.783-.482-1.028-.838c-.246-.355-.369-.738-.369-1.149h1.499c.021.364.158.646.412.845.254.194.59.292 1.009.292.407 0 .716-.076.927-.229.212-.156.318-.36.318-.609zm5.287-.089 1.454-4.9132h1.593l-2.38 6.8682h-1.34l-2.399-6.8682h1.599zm11.185 2.082c-1.071 0-1.902-.341-2.495-1.022-.275.326-.639.578-1.092.755-.453.178-.962.267-1.53.267-.744 0-1.328-.186-1.751-.559-.424-.372-.635-.888-.635-1.548 0-.669.252-1.1854.755-1.5493.504-.3639 1.249-.5459 2.235-.5459h1.212v-.4507c0-.3851-.102-.6855-.305-.9013-.199-.2201-.484-.3301-.857-.3301-.385 0-.7.0952-.946.2856-.241.1862-.361.419-.361.6983l-1.536-.1206c0-.6179.266-1.1215.799-1.5108.538-.3935 1.223-.5903 2.057-.5903.944 0 1.65.2814 2.12.8442.554-.5713 1.255-.8527 2.101-.8442.897 0 1.598.275 2.101.8252.504.5459.756 1.3161.756 2.3105v.8694h-4.412c.038.588.218 1.05.54 1.384.321.334.766.502 1.333.502.579 0 1.096-.123 1.548-.369l.388-.215.463 1.053c-.296.237-.667.423-1.111.559-.44.135-.899.203-1.377.203zm-4.818-1.168c.245 0 .512-.061.8-.184.287-.127.526-.282.717-.463v-1.3271h-1.244c-.44.0084-.787.1141-1.041.3171-.254.199-.381.447-.381.743 0 .275.097.497.292.666.199.165.484.248.857.248zm4.589-4.7163c-.419 0-.764.146-1.034.438-.267.292-.434.7067-.502 1.2441h2.869v-.1904c0-.4782-.116-.8464-.349-1.1045-.228-.2582-.556-.3872-.984-.3872zm7.636.2983c-.203-.0338-.412-.0508-.628-.0508-.707 0-1.183.2709-1.428.8125v4.6973h-1.543v-6.8682h1.473l.038.7681c.372-.5967.889-.895 1.549-.895.22 0 .402.0296.546.0889zm3.225-3.0786v1.6694h1.212v1.1426h-1.212v3.8336c0 .263.051.453.152.572.106.114.292.171.559.171.178 0 .358-.021.54-.063v1.193c-.352.097-.69.146-1.016.146-1.185 0-1.777-.654-1.777-1.961v-3.8916h-1.13v-1.1426h1.13v-1.6694zm5.345 5.0527c0-1.0579.245-1.9064.736-2.5454.491-.6432 1.149-.9648 1.974-.9648.728 0 1.316.2539 1.765.7617v-3.5166h1.542v9.75h-1.396l-.076-.711c-.462.559-1.077.838-1.848.838-.804 0-1.455-.324-1.955-.971-.495-.648-.742-1.528-.742-2.6409zm1.542.1333c0 .6986.134 1.2446.4 1.6376.271.389.654.584 1.149.584.631 0 1.092-.281 1.384-.844v-2.9327c-.284-.5502-.741-.8252-1.371-.8252-.5 0-.885.1989-1.156.5966-.27.3936-.406.9882-.406 1.7837zm10.188 3.3516c-.067-.131-.127-.345-.178-.641-.49.512-1.091.768-1.802.768-.69 0-1.253-.197-1.689-.59-.436-.394-.654-.881-.654-1.46 0-.732.271-1.2931.813-1.6825.546-.3935 1.325-.5903 2.336-.5903h.946v-.4507c0-.3555-.1-.639-.299-.8506-.199-.2158-.501-.3237-.907-.3237-.352 0-.639.0889-.864.2666-.224.1735-.336.3957-.336.6665h-1.543c0-.3766.125-.7279.375-1.0537.25-.3301.588-.5882 1.016-.7744.431-.1862.912-.2793 1.441-.2793.804 0 1.445.2031 1.923.6094.478.402.723.969.736 1.7011v3.0976c0 .618.087 1.111.26 1.479v.108zm-1.695-1.111c.305 0 .591-.074.857-.222.271-.148.474-.347.61-.597v-1.2946h-.832c-.571 0-1.001.0994-1.288.2986-.288.199-.432.48-.432.844 0 .296.097.533.292.711.199.173.463.26.793.26zm.407-9.2357c.393 0 .725.1312.996.3936.271.2581.406.567.406.9267s-.133.6665-.399.9204c-.263.2539-.597.3809-1.003.3809-.411 0-.749-.127-1.016-.3809-.262-.2539-.394-.5607-.394-.9204s.134-.6686.4-.9267c.271-.2624.608-.3936 1.01-.3936zm-.711 1.3203c0 .1989.07.3682.209.5078.14.1355.307.2032.502.2032.199 0 .366-.0677.501-.2032.14-.1354.21-.3046.21-.5078 0-.1946-.068-.3618-.204-.5014-.131-.1439-.3-.2159-.507-.2159-.208 0-.379.072-.515.2159-.131.1396-.196.3068-.196.5014zm8.525 3.5674c-.204-.0338-.413-.0508-.629-.0508-.707 0-1.183.2709-1.428.8125v4.6973h-1.543v-6.8682h1.473l.038.7681c.373-.5967.889-.895 1.549-.895.22 0 .402.0296.546.0889zm2.615 5.459h-1.543v-9.75h1.543zm3.326 0h-1.542v-6.8682h1.542zm-1.638-8.6519c0-.2369.074-.4337.222-.5903.153-.1566.369-.2349.648-.2349s.495.0783.647.2349c.153.1566.229.3534.229.5903 0 .2328-.076.4275-.229.584-.152.1524-.368.2285-.647.2285s-.495-.0761-.648-.2285c-.148-.1565-.222-.3512-.222-.584zm3.054 5.167c0-1.0664.249-1.917.749-2.5517.503-.639 1.17-.9585 1.999-.9585.783 0 1.399.2729 1.847.8188l.07-.6919h1.39v6.6592c0 .901-.281 1.612-.844 2.132-.559.521-1.314.781-2.266.781-.504 0-.997-.106-1.479-.317-.478-.208-.842-.481-1.092-.819l.73-.927c.474.563 1.058.844 1.752.844.512 0 .916-.139 1.212-.419.297-.275.445-.681.445-1.218v-.464c-.445.495-1.037.743-1.778.743-.804 0-1.462-.32-1.974-.959-.508-.639-.761-1.523-.761-2.6529zm1.536.1333c0 .6896.139 1.2336.419 1.6316.283.393.675.59 1.174.59.622 0 1.083-.266 1.384-.8v-3.0212c-.292-.5205-.749-.7807-1.371-.7807-.508 0-.904.201-1.187.603-.28.402-.419.9945-.419 1.7773z"/><path d="m108.168 174v-9.242h2.583c.758 0 1.437.173 2.038.52.601.343 1.069.836 1.403 1.479.338.644.508 1.376.508 2.197v.85c0 .825-.167 1.557-.502 2.196-.334.639-.806 1.132-1.415 1.479-.605.347-1.302.521-2.089.521zm.781-8.576v7.916h1.752c.973 0 1.754-.322 2.342-.965.588-.647.882-1.521.882-2.622v-.812c0-1.062-.29-1.913-.869-2.552-.58-.639-1.344-.96-2.292-.965zm11.978 7.706c-.457.665-1.187.997-2.19.997-.732 0-1.289-.212-1.67-.635-.38-.427-.575-1.058-.584-1.891v-4.469h.756v4.373c0 1.308.529 1.962 1.587 1.962 1.1 0 1.796-.455 2.088-1.365v-4.97h.762v6.868h-.737zm7.522-2.589-.87.837v2.622h-.762v-9.75h.762v6.24l.717-.775 2.628-2.583h.959l-2.914 2.894 3.168 3.974h-.908zm9.077 3.459c-.076-.216-.125-.535-.146-.958-.267.347-.607.615-1.022.806-.411.186-.846.279-1.308.279-.66 0-1.195-.184-1.606-.552-.406-.368-.609-.834-.609-1.397 0-.668.277-1.197.832-1.587.558-.389 1.335-.584 2.329-.584h1.378v-.78c0-.491-.153-.876-.457-1.156-.301-.283-.741-.425-1.321-.425-.529 0-.967.135-1.314.406s-.52.597-.52.978l-.762-.007c0-.545.254-1.017.762-1.415.508-.402 1.132-.603 1.872-.603.766 0 1.369.192 1.809.578.445.38.673.914.686 1.599v3.25c0 .665.07 1.162.209 1.492v.076zm-2.387-.546c.508 0 .961-.123 1.359-.368.402-.246.694-.573.876-.984v-1.511h-1.359c-.757.009-1.35.148-1.777.419-.428.267-.641.635-.641 1.105 0 .385.141.704.425.958.288.254.66.381 1.117.381zm5.745-6.322.025 1.174c.258-.423.58-.745.965-.965.385-.224.81-.336 1.276-.336.736 0 1.284.207 1.644.622s.542 1.037.546 1.866v4.507h-.756v-4.513c-.004-.614-.135-1.071-.393-1.371-.254-.301-.662-.451-1.225-.451-.47 0-.887.148-1.251.444-.359.292-.626.688-.799 1.187v4.704h-.756v-6.868zm13.698 5.122c0-.376-.152-.679-.457-.907-.3-.229-.755-.407-1.365-.534-.609-.131-1.083-.279-1.422-.444-.334-.169-.584-.374-.749-.616-.16-.241-.241-.533-.241-.876 0-.541.227-.988.679-1.339.453-.355 1.033-.533 1.74-.533.766 0 1.379.19 1.84.571.466.377.699.87.699 1.479h-.762c0-.402-.169-.736-.508-1.003-.334-.266-.757-.4-1.269-.4-.5 0-.902.112-1.206.337-.301.22-.451.508-.451.863 0 .343.125.609.374.8.254.186.713.357 1.378.514.668.157 1.168.324 1.498.501.334.178.582.392.743.642.16.249.241.552.241.907 0 .58-.235 1.043-.705 1.39-.465.347-1.075.521-1.828.521-.8 0-1.449-.193-1.949-.578-.495-.389-.742-.88-.742-1.472h.761c.03.444.216.791.559 1.041.347.245.804.368 1.371.368.529 0 .956-.117 1.282-.349.326-.233.489-.527.489-.883zm7.998-1.618c0 1.07-.237 1.921-.711 2.552-.474.626-1.109.939-1.904.939-.94 0-1.659-.33-2.158-.99v3.504h-.756v-9.509h.705l.038.971c.495-.732 1.212-1.098 2.152-1.098.821 0 1.464.311 1.929.933.47.622.705 1.485.705 2.59zm-.762-.134c0-.876-.179-1.567-.539-2.075s-.861-.762-1.505-.762c-.465 0-.865.112-1.199.336-.335.225-.591.551-.768.978v3.294c.182.394.442.694.78.902.339.207.739.311 1.2.311.639 0 1.136-.254 1.492-.762.36-.512.539-1.252.539-2.222zm6.786 3.498c-.076-.216-.125-.535-.146-.958-.267.347-.607.615-1.022.806-.41.186-.846.279-1.308.279-.66 0-1.195-.184-1.606-.552-.406-.368-.609-.834-.609-1.397 0-.668.277-1.197.832-1.587.558-.389 1.335-.584 2.329-.584h1.378v-.78c0-.491-.153-.876-.457-1.156-.301-.283-.741-.425-1.321-.425-.529 0-.967.135-1.314.406s-.52.597-.52.978l-.762-.007c0-.545.254-1.017.762-1.415.508-.402 1.132-.603 1.872-.603.766 0 1.369.192 1.809.578.445.38.673.914.686 1.599v3.25c0 .665.07 1.162.21 1.492v.076zm-2.387-.546c.508 0 .961-.123 1.359-.368.402-.246.694-.573.876-.984v-1.511h-1.359c-.757.009-1.35.148-1.777.419-.427.267-.641.635-.641 1.105 0 .385.142.704.425.958.288.254.66.381 1.117.381zm8.195-5.675c-.161-.029-.332-.044-.514-.044-.474 0-.876.133-1.206.4-.326.262-.559.645-.698 1.149v4.716h-.756v-6.868h.743l.013 1.092c.402-.813 1.047-1.219 1.936-1.219.211 0 .378.027.501.082zm3.739 6.348c-.584 0-1.113-.144-1.587-.432-.47-.287-.836-.687-1.098-1.199-.263-.517-.394-1.094-.394-1.733v-.273c0-.66.127-1.255.381-1.784.258-.529.616-.944 1.073-1.244.457-.305.952-.457 1.485-.457.834 0 1.494.286 1.981.857.491.567.736 1.343.736 2.329v.426h-4.9v.146c0 .778.222 1.428.666 1.948.449.517 1.012.775 1.689.775.406 0 .763-.074 1.072-.222.314-.148.597-.385.851-.711l.476.362c-.559.808-1.369 1.212-2.431 1.212zm-.14-6.475c-.571 0-1.053.21-1.447.629-.389.419-.626.982-.711 1.688h4.12v-.082c-.022-.66-.21-1.198-.565-1.613-.356-.414-.821-.622-1.397-.622z"/><path d="m92.5713 212.464c0-.66.1269-1.254.3808-1.783.2582-.529.62-.94 1.0855-1.232.4697-.296 1.0008-.444 1.5933-.444.914 0 1.6546.321 2.2216.965.5671.639.8506 1.487.8506 2.545v.159c0 .664-.129 1.263-.3872 1.796-.2539.529-.6136.938-1.0791 1.225-.4655.288-.9966.432-1.5932.432-.9099 0-1.6504-.32-2.2217-.959-.5671-.643-.8506-1.493-.8506-2.551zm.7617.21c0 .821.2116 1.496.6348 2.025.4274.524.986.787 1.6758.787.6855 0 1.2399-.263 1.663-.787.4274-.529.6412-1.225.6412-2.089v-.146c0-.524-.0974-1.005-.292-1.441-.1947-.435-.4676-.772-.8189-1.009-.3512-.241-.7532-.362-1.206-.362-.6771 0-1.2294.267-1.6568.8-.4274.529-.6411 1.223-.6411 2.082zm8.982 2.279 2.088-5.821h.781l-2.564 6.868h-.616l-2.5772-6.868h.7812zm6.69 1.174c-.584 0-1.113-.144-1.587-.432-.469-.287-.835-.687-1.098-1.199-.262-.517-.393-1.094-.393-1.733v-.273c0-.66.127-1.255.381-1.784.258-.529.615-.944 1.072-1.244.457-.305.953-.457 1.486-.457.833 0 1.494.286 1.98.857.491.567.737 1.343.737 2.329v.426h-4.901v.146c0 .778.222 1.428.667 1.948.448.517 1.011.775 1.688.775.406 0 .764-.074 1.073-.222.313-.148.597-.385.85-.711l.477.362c-.559.808-1.369 1.212-2.432 1.212zm-.139-6.475c-.572 0-1.054.21-1.448.629-.389.419-.626.982-.71 1.688h4.119v-.082c-.021-.66-.209-1.198-.565-1.613-.355-.414-.821-.622-1.396-.622zm7.369.127c-.16-.029-.332-.044-.514-.044-.474 0-.876.133-1.206.4-.326.262-.558.645-.698 1.149v4.716h-.755v-6.868h.742l.013 1.092c.402-.813 1.047-1.219 1.936-1.219.212 0 .379.027.501.082zm5.218 6.221h-.762v-9.75h.762zm6.405 0c-.076-.216-.125-.535-.146-.958-.267.347-.607.615-1.022.806-.411.186-.846.279-1.308.279-.66 0-1.195-.184-1.606-.552-.406-.368-.609-.834-.609-1.397 0-.668.277-1.197.832-1.587.558-.389 1.335-.584 2.329-.584h1.378v-.78c0-.491-.153-.876-.457-1.156-.301-.283-.741-.425-1.321-.425-.529 0-.967.135-1.314.406s-.52.597-.52.978l-.762-.007c0-.545.254-1.017.762-1.415.508-.402 1.132-.603 1.872-.603.766 0 1.369.192 1.809.578.445.38.673.914.686 1.599v3.25c0 .665.07 1.162.209 1.492v.076zm-2.387-.546c.508 0 .961-.123 1.359-.368.402-.246.694-.573.876-.984v-1.511h-1.359c-.757.009-1.35.148-1.777.419-.428.267-.641.635-.641 1.105 0 .385.141.704.425.958.288.254.66.381 1.117.381zm-.482-8.341c0-.338.118-.624.355-.857.241-.232.531-.349.87-.349.334 0 .622.117.863.349.241.233.362.519.362.857 0 .335-.116.616-.349.845-.233.228-.525.342-.876.342s-.643-.114-.876-.342c-.233-.229-.349-.51-.349-.845zm.489 0c0 .212.069.387.209.527s.315.21.527.21c.207 0 .383-.068.527-.204.144-.139.216-.317.216-.533 0-.224-.075-.406-.223-.546-.148-.139-.321-.209-.52-.209-.207 0-.383.072-.527.216-.14.144-.209.323-.209.539zm5.738 2.019.025 1.174c.258-.423.58-.745.965-.965.385-.224.81-.336 1.276-.336.736 0 1.284.207 1.644.622s.542 1.037.546 1.866v4.507h-.755v-4.513c-.005-.614-.136-1.071-.394-1.371-.254-.301-.662-.451-1.225-.451-.47 0-.887.148-1.251.444-.359.292-.626.688-.799 1.187v4.704h-.756v-6.868zm9.083 6.995c-.584 0-1.113-.144-1.587-.432-.469-.287-.835-.687-1.098-1.199-.262-.517-.393-1.094-.393-1.733v-.273c0-.66.127-1.255.381-1.784.258-.529.615-.944 1.072-1.244.457-.305.952-.457 1.486-.457.833 0 1.493.286 1.98.857.491.567.736 1.343.736 2.329v.426h-4.9v.146c0 .778.222 1.428.667 1.948.448.517 1.011.775 1.688.775.406 0 .764-.074 1.073-.222.313-.148.596-.385.85-.711l.476.362c-.558.808-1.369 1.212-2.431 1.212zm-.139-6.475c-.572 0-1.054.21-1.448.629-.389.419-.626.982-.711 1.688h4.12v-.082c-.021-.66-.209-1.198-.565-1.613-.355-.414-.821-.622-1.396-.622zm5.376-2.278v1.758h1.422v.622h-1.422v4.577c0 .38.068.664.203.85.14.186.371.279.692.279.127 0 .332-.021.616-.063l.032.622c-.199.072-.47.108-.813.108-.52 0-.899-.15-1.136-.451-.237-.304-.356-.751-.356-1.339v-4.583h-1.263v-.622h1.263v-1.758zm7.11 6.88c0-.376-.153-.679-.458-.907-.3-.229-.755-.407-1.364-.534-.61-.131-1.084-.279-1.422-.444-.334-.169-.584-.374-.749-.616-.161-.241-.241-.533-.241-.876 0-.541.226-.988.679-1.339.453-.355 1.032-.533 1.739-.533.766 0 1.38.19 1.841.571.465.377.698.87.698 1.479h-.762c0-.402-.169-.736-.507-1.003-.335-.266-.758-.4-1.27-.4-.499 0-.901.112-1.206.337-.3.22-.451.508-.451.863 0 .343.125.609.375.8.254.186.713.357 1.377.514.669.157 1.168.324 1.498.501.335.178.582.392.743.642.161.249.241.552.241.907 0 .58-.235 1.043-.704 1.39-.466.347-1.075.521-1.828.521-.8 0-1.45-.193-1.949-.578-.495-.389-.743-.88-.743-1.472h.762c.029.444.216.791.558 1.041.347.245.804.368 1.372.368.528 0 .956-.117 1.282-.349.326-.233.489-.527.489-.883zm6.487 1.746h-.762v-9.75h.762zm1.644-3.536c0-.66.127-1.254.381-1.783.258-.529.62-.94 1.085-1.232.47-.296 1.001-.444 1.593-.444.483 0 .936.101 1.359.305l.495-1.016h.597l-.635 1.295c.398.305.707.704.927 1.2.22.495.33 1.053.33 1.675v.21c0 .66-.129 1.257-.388 1.79-.258.533-.619.944-1.085 1.231-.465.288-.994.432-1.587.432-.457 0-.88-.087-1.269-.26l-.502 1.022h-.597l.629-1.289c-.423-.3-.751-.702-.984-1.206s-.349-1.077-.349-1.72zm.755.21c0 .465.074.899.222 1.301.153.402.375.732.667.99l2.469-5.04c-.317-.182-.668-.273-1.054-.273-.681 0-1.235.267-1.663.8-.427.529-.641 1.223-.641 2.082zm4.615-.21c0-.436-.07-.846-.209-1.231-.14-.385-.343-.711-.61-.978l-2.456 5.015c.287.144.613.216.977.216.681 0 1.234-.263 1.657-.787.427-.529.641-1.225.641-2.089zm7.814.172c0 1.07-.237 1.921-.711 2.552-.474.626-1.109.939-1.904.939-.94 0-1.659-.33-2.158-.99v3.504h-.756v-9.509h.705l.038.971c.495-.732 1.212-1.098 2.152-1.098.821 0 1.464.311 1.929.933.47.622.705 1.485.705 2.59zm-.762-.134c0-.876-.18-1.567-.539-2.075-.36-.508-.861-.762-1.505-.762-.465 0-.865.112-1.199.336-.335.225-.591.551-.768.978v3.294c.181.394.442.694.78.902.339.207.739.311 1.2.311.639 0 1.136-.254 1.492-.762.359-.512.539-1.252.539-2.222zm5.11 3.625c-.584 0-1.113-.144-1.587-.432-.47-.287-.836-.687-1.098-1.199-.262-.517-.394-1.094-.394-1.733v-.273c0-.66.127-1.255.381-1.784.258-.529.616-.944 1.073-1.244.457-.305.952-.457 1.485-.457.834 0 1.494.286 1.981.857.491.567.736 1.343.736 2.329v.426h-4.9v.146c0 .778.222 1.428.666 1.948.449.517 1.012.775 1.689.775.406 0 .764-.074 1.073-.222.313-.148.596-.385.85-.711l.476.362c-.558.808-1.369 1.212-2.431 1.212zm-.14-6.475c-.571 0-1.053.21-1.447.629-.389.419-.626.982-.711 1.688h4.12v-.082c-.021-.66-.21-1.198-.565-1.613-.356-.414-.821-.622-1.397-.622zm5.377-2.278v1.758h1.422v.622h-1.422v4.577c0 .38.068.664.203.85.14.186.37.279.692.279.127 0 .332-.021.616-.063l.031.622c-.199.072-.469.108-.812.108-.521 0-.899-.15-1.136-.451-.237-.304-.356-.751-.356-1.339v-4.583h-1.263v-.622h1.263v-1.758zm3.847 8.626h-.762v-6.868h.762zm-.895-8.855c0-.144.046-.264.139-.362.093-.101.22-.152.381-.152s.288.051.381.152c.097.098.146.218.146.362s-.049.265-.146.362c-.093.097-.22.146-.381.146s-.288-.049-.381-.146-.139-.218-.139-.362zm2.659 5.357c0-1.066.237-1.914.711-2.545.478-.635 1.126-.952 1.943-.952.926 0 1.633.366 2.12 1.098v-3.853h.755v9.75h-.711l-.032-.914c-.486.694-1.201 1.041-2.145 1.041-.791 0-1.43-.317-1.917-.952-.483-.639-.724-1.5-.724-2.584zm.768.134c0 .876.176 1.568.527 2.075.351.504.847.756 1.486.756.935 0 1.599-.413 1.993-1.238v-3.225c-.394-.893-1.054-1.339-1.981-1.339-.639 0-1.136.252-1.492.755-.355.5-.533 1.238-.533 2.216z"/><path d="m112.741 197h-2.127v-10.274l-3.137 1.072v-1.802l4.992-1.837h.272zm11.672-4.562h1.591v1.714h-1.591v2.848h-2.136v-2.848h-5.528l-.061-1.3 5.519-8.649h2.206zm-5.484 0h3.348v-5.343l-.158.281zm16.831-.826c0 1.84-.346 3.229-1.037 4.166-.686.932-1.732 1.398-3.138 1.398-1.383 0-2.426-.454-3.129-1.363-.697-.914-1.055-2.264-1.072-4.051v-2.215c0-1.84.343-3.22 1.028-4.14.692-.92 1.743-1.38 3.155-1.38 1.401 0 2.444.449 3.129 1.345.692.897 1.046 2.238 1.064 4.025zm-2.136-2.39c0-1.201-.164-2.08-.492-2.637-.328-.563-.85-.844-1.565-.844-.697 0-1.21.267-1.538.8-.328.527-.501 1.354-.518 2.479v2.9c0 1.195.167 2.086.501 2.672s.858.879 1.573.879c.686 0 1.192-.27 1.52-.809.329-.545.501-1.394.519-2.549zm16.849 2.39c0 1.84-.346 3.229-1.037 4.166-.686.932-1.732 1.398-3.138 1.398-1.383 0-2.426-.454-3.129-1.363-.697-.914-1.055-2.264-1.072-4.051v-2.215c0-1.84.342-3.22 1.028-4.14.691-.92 1.743-1.38 3.155-1.38 1.401 0 2.444.449 3.129 1.345.692.897 1.046 2.238 1.064 4.025zm-2.136-2.39c0-1.201-.164-2.08-.492-2.637-.328-.563-.85-.844-1.565-.844-.697 0-1.21.267-1.538.8-.328.527-.501 1.354-.518 2.479v2.9c0 1.195.167 2.086.501 2.672s.858.879 1.573.879c.685 0 1.192-.27 1.52-.809.328-.545.501-1.394.519-2.549zm12.366 2.39c0 1.84-.346 3.229-1.037 4.166-.686.932-1.731 1.398-3.138 1.398-1.382 0-2.425-.454-3.129-1.363-.697-.914-1.054-2.264-1.072-4.051v-2.215c0-1.84.343-3.22 1.028-4.14.692-.92 1.744-1.38 3.156-1.38 1.4 0 2.443.449 3.129 1.345.691.897 1.046 2.238 1.063 4.025zm-2.136-2.39c0-1.201-.164-2.08-.492-2.637-.328-.563-.849-.844-1.564-.844-.698 0-1.21.267-1.538.8-.328.527-.501 1.354-.519 2.479v2.9c0 1.195.167 2.086.501 2.672s.858.879 1.573.879c.686 0 1.193-.27 1.521-.809.328-.545.501-1.394.518-2.549zm12.367 2.39c0 1.84-.346 3.229-1.038 4.166-.685.932-1.731 1.398-3.137 1.398-1.383 0-2.426-.454-3.129-1.363-.697-.914-1.055-2.264-1.072-4.051v-2.215c0-1.84.342-3.22 1.028-4.14.691-.92 1.743-1.38 3.155-1.38 1.401 0 2.444.449 3.129 1.345.692.897 1.046 2.238 1.064 4.025zm-2.136-2.39c0-1.201-.164-2.08-.492-2.637-.328-.563-.85-.844-1.565-.844-.697 0-1.21.267-1.538.8-.328.527-.501 1.354-.518 2.479v2.9c0 1.195.167 2.086.501 2.672s.858.879 1.573.879c.685 0 1.192-.27 1.52-.809.328-.545.501-1.394.519-2.549zm4.465 10.661-1.152-.686c.34-.533.572-.999.695-1.397.129-.393.196-.794.202-1.204v-1.661h1.925l-.009 1.538c-.006.621-.164 1.242-.475 1.863-.304.627-.7 1.143-1.186 1.547zm7.796-7.462h-4.615v-1.723h4.615z"/><path d="m16.7227 136v-7.109h2.0996c.6282 0 1.1849.14 1.6699.42.4883.279.8659.677 1.1328 1.191s.4004 1.103.4004 1.768v.356c0 .674-.1351 1.266-.4053 1.777-.2669.511-.6494.905-1.1474 1.182-.4948.277-1.0629.415-1.7041.415zm1.2353-6.113v5.127h.8057c.6478 0 1.1442-.202 1.4892-.606.3483-.407.5257-.989.5323-1.748v-.395c0-.772-.1677-1.361-.503-1.768s-.8219-.61-1.4599-.61zm8.3399 6.113c-.0521-.101-.0977-.265-.1368-.493-.3776.394-.8398.591-1.3867.591-.5306 0-.9635-.152-1.2988-.454-.3353-.303-.5029-.678-.5029-1.123 0-.564.2083-.995.625-1.294.4199-.303 1.0188-.455 1.7968-.455h.7276v-.346c0-.274-.0765-.492-.2295-.655-.153-.166-.3858-.249-.6983-.249-.2701 0-.4915.069-.664.206-.1726.133-.2588.304-.2588.512h-1.1865c0-.289.096-.56.288-.81.1921-.254.4525-.453.7813-.596.332-.143.7015-.215 1.1084-.215.6185 0 1.1116.156 1.4795.469.3678.309.5566.745.5664 1.308v2.383c0 .476.0667.855.2002 1.138v.083zm-1.3038-.854c.2344 0 .4541-.057.6592-.171.2084-.114.3646-.267.4688-.459v-.996h-.6397c-.4394 0-.7698.076-.9912.229-.2213.153-.332.369-.332.649 0 .228.0748.411.2246.547.153.134.3564.201.6103.201zm.3125-7.105c.3028 0 .5583.101.7666.303.2084.198.3125.436.3125.713 0 .276-.1025.512-.3076.708-.2018.195-.459.293-.7715.293-.3157 0-.5761-.098-.7812-.293-.2018-.196-.3027-.432-.3027-.708 0-.277.1025-.515.3076-.713.2083-.202.4671-.303.7763-.303zm-.5468 1.016c0 .153.0537.283.1611.39.1074.104.236.157.3857.157.153 0 .2816-.053.3858-.157.1074-.104.1611-.234.1611-.39 0-.15-.0521-.279-.1562-.386-.1009-.111-.2312-.166-.3907-.166s-.2913.055-.3955.166c-.1009.107-.1513.236-.1513.386zm6.5576 2.744c-.1563-.026-.3174-.039-.4834-.039-.5436 0-.9098.208-1.0986.625v3.613h-1.1866v-5.283h1.1328l.0293.591c.2865-.459.6836-.689 1.1914-.689.1693 0 .3093.023.42.069zm2.0117 4.199h-1.1865v-7.5h1.1865zm2.5586 0h-1.1865v-5.283h1.1865zm-1.2598-6.655c0-.183.057-.334.1709-.454.1172-.121.2832-.181.4981-.181.2148 0 .3808.06.498.181.1172.12.1758.271.1758.454 0 .179-.0586.329-.1758.449-.1172.117-.2832.176-.498.176-.2149 0-.3809-.059-.4981-.176-.1139-.12-.1709-.27-.1709-.449zm2.3487 3.974c0-.82.192-1.474.5761-1.963.3874-.491.9001-.737 1.5381-.737.6022 0 1.0759.21 1.4209.63l.0537-.532h1.0694v5.122c0 .693-.2165 1.24-.6494 1.64-.4297.401-1.0108.601-1.7432.601-.3874 0-.7666-.081-1.1377-.244-.3678-.16-.6478-.37-.8399-.63l.5616-.713c.3646.433.8138.65 1.3476.65.3939 0 .7048-.108.9326-.323.2279-.211.3418-.524.3418-.937v-.357c-.3418.381-.7975.572-1.3671.572-.6185 0-1.1247-.246-1.5186-.738-.3906-.491-.5859-1.172-.5859-2.041zm1.1816.103c0 .53.1074.949.3223 1.255.2181.302.5192.454.9033.454.4785 0 .8333-.205 1.0644-.615v-2.325c-.2246-.4-.5761-.6-1.0546-.6-.3907 0-.695.154-.9131.464-.2149.309-.3223.765-.3223 1.367zm9.9561-1.621c-.1563-.026-.3174-.039-.4834-.039-.5437 0-.9099.208-1.0987.625v3.613h-1.1865v-5.283h1.1328l.0293.591c.2865-.459.6836-.689 1.1914-.689.1693 0 .3093.023.4199.069zm2.9785 4.297c-.752 0-1.3623-.236-1.8311-.708-.4655-.476-.6982-1.107-.6982-1.895v-.146c0-.528.1009-.998.3027-1.411.2051-.417.4915-.741.8594-.972.3678-.231.778-.347 1.2305-.347.7194 0 1.2744.23 1.665.689.3939.459.5908 1.108.5908 1.948v.478h-3.4521c.0358.437.1806.782.4345 1.036.2572.253.5795.38.9668.38.5437 0 .9864-.219 1.3282-.659l.6396.611c-.2116.315-.4948.561-.8496.737-.3516.172-.7471.259-1.1865.259zm-.1416-4.527c-.3255 0-.5892.114-.791.342-.1986.228-.3256.545-.3809.952h2.2607v-.088c-.026-.397-.1318-.696-.3173-.898-.1856-.205-.4428-.308-.7715-.308zm4.2871-.854.0342.61c.3906-.472.9033-.708 1.538-.708 1.1003 0 1.6602.63 1.6797 1.89v3.491h-1.1865v-3.423c0-.335-.0732-.583-.2197-.742-.1432-.163-.3792-.244-.708-.244-.4785 0-.835.216-1.0694.649v3.76h-1.1865v-5.283zm5.9521-1.284v1.284h.9326v.879h-.9326v2.949c0 .202.0391.348.1172.439.0814.088.2246.132.4297.132.1367 0 .2751-.016.415-.049v.918c-.2701.075-.5306.113-.7812.113-.9115 0-1.3672-.503-1.3672-1.509v-2.993h-.8691v-.879h.8691v-1.284zm4.17 6.665c-.752 0-1.3624-.236-1.8311-.708-.4655-.476-.6982-1.107-.6982-1.895v-.146c0-.528.1009-.998.3027-1.411.2051-.417.4915-.741.8594-.972.3678-.231.778-.347 1.2304-.347.7194 0 1.2744.23 1.6651.689.3939.459.5908 1.108.5908 1.948v.478h-3.4522c.0359.437.1807.782.4346 1.036.2572.253.5794.38.9668.38.5436 0 .9863-.219 1.3281-.659l.6397.611c-.2116.315-.4948.561-.8496.737-.3516.172-.7471.259-1.1865.259zm-.1416-4.527c-.3256 0-.5892.114-.7911.342-.1985.228-.3255.545-.3808.952h2.2607v-.088c-.026-.397-.1318-.696-.3174-.898-.1855-.205-.4427-.308-.7714-.308z"/><path d="m233.723 136v-7.109h2.436c.804 0 1.416.161 1.836.483s.63.802.63 1.44c0 .326-.088.619-.264.879-.175.261-.433.463-.771.606.384.104.68.301.889.591.211.286.317.631.317 1.035 0 .667-.215 1.18-.645 1.538-.426.358-1.038.537-1.836.537zm1.235-3.208v2.222h1.372c.387 0 .69-.096.908-.288s.327-.459.327-.801c0-.739-.377-1.117-1.132-1.133zm0-.908h1.211c.384 0 .684-.086.898-.259.218-.176.328-.423.328-.742 0-.352-.101-.606-.303-.762-.199-.156-.51-.234-.933-.234h-1.201zm7.725-.083c-.157-.026-.318-.039-.484-.039-.543 0-.91.208-1.098.625v3.613h-1.187v-5.283h1.133l.029.591c.287-.459.684-.689 1.192-.689.169 0 .309.023.42.069zm3.759 4.199c-.052-.101-.097-.265-.136-.493-.378.394-.84.591-1.387.591-.531 0-.964-.152-1.299-.454-.335-.303-.503-.678-.503-1.123 0-.564.209-.995.625-1.294.42-.303 1.019-.455 1.797-.455h.728v-.346c0-.274-.077-.492-.23-.655-.153-.166-.386-.249-.698-.249-.27 0-.492.069-.664.206-.173.133-.259.304-.259.512h-1.187c0-.289.097-.56.289-.81.192-.254.452-.453.781-.596.332-.143.701-.215 1.108-.215.619 0 1.112.156 1.48.469.368.309.556.745.566 1.308v2.383c0 .476.067.855.2 1.138v.083zm-1.303-.854c.234 0 .454-.057.659-.171.208-.114.364-.267.469-.459v-.996h-.64c-.439 0-.77.076-.991.229-.222.153-.332.369-.332.649 0 .228.075.411.224.547.153.134.357.201.611.201zm8.813-3.345c-.156-.026-.317-.039-.483-.039-.544 0-.91.208-1.099.625v3.613h-1.186v-5.283h1.132l.03.591c.286-.459.683-.689 1.191-.689.169 0 .309.023.42.069zm2.979 4.297c-.752 0-1.363-.236-1.831-.708-.466-.476-.699-1.107-.699-1.895v-.146c0-.528.101-.998.303-1.411.205-.417.492-.741.859-.972.368-.231.778-.347 1.231-.347.719 0 1.274.23 1.665.689.394.459.591 1.108.591 1.948v.478h-3.452c.035.437.18.782.434 1.036.257.253.58.38.967.38.544 0 .986-.219 1.328-.659l.64.611c-.212.315-.495.561-.85.737-.351.172-.747.259-1.186.259zm-.142-4.527c-.325 0-.589.114-.791.342-.199.228-.325.545-.381.952h2.261v-.088c-.026-.397-.132-.696-.317-.898-.186-.205-.443-.308-.772-.308zm4.287-.854.034.61c.391-.472.904-.708 1.538-.708 1.101 0 1.661.63 1.68 1.89v3.491h-1.186v-3.423c0-.335-.074-.583-.22-.742-.143-.163-.379-.244-.708-.244-.479 0-.835.216-1.069.649v3.76h-1.187v-5.283zm5.952-1.284v1.284h.933v.879h-.933v2.949c0 .202.039.348.118.439.081.088.224.132.429.132.137 0 .275-.016.415-.049v.918c-.27.075-.53.113-.781.113-.911 0-1.367-.503-1.367-1.509v-2.993h-.869v-.879h.869v-1.284zm4.17 6.665c-.752 0-1.362-.236-1.831-.708-.465-.476-.698-1.107-.698-1.895v-.146c0-.528.101-.998.303-1.411.205-.417.491-.741.859-.972s.778-.347 1.231-.347c.719 0 1.274.23 1.665.689.393.459.59 1.108.59 1.948v.478h-3.452c.036.437.181.782.435 1.036.257.253.579.38.967.38.543 0 .986-.219 1.328-.659l.639.611c-.211.315-.494.561-.849.737-.352.172-.747.259-1.187.259zm-.141-4.527c-.326 0-.59.114-.791.342-.199.228-.326.545-.381.952h2.261v-.088c-.027-.397-.132-.696-.318-.898-.185-.205-.443-.308-.771-.308z"/></g><rect fill="#c4c4c4" height="11" rx="5.5" width="258" x="16" y="142"/><path d="m16 147.5c0-3.038 2.4624-5.5 5.5-5.5h24.5v11h-24.5c-3.0376 0-5.5-2.462-5.5-5.5z" fill="#fe0400"/></svg>