<svg height="50" viewBox="0 0 50 50" width="50" xmlns="http://www.w3.org/2000/svg"><path d="m31.4921875 16.65-2.353125.0015625c-1.8453125 0-2.203125.8765625-2.203125 2.1625v2.8375h4.4015625l-.5734375 4.4453125h-3.828125v11.403125h-4.5890625v-11.403125h-3.8375v-4.4453125h3.8375v-3.2765625c0-3.8046875 2.3234375-5.875 5.715625-5.875 1.625 0 3.021875.1203125 3.4296875.175zm-6.4921875-16.65c-13.80625 0-25 11.1921875-25 25 0 13.80625 11.19375 25 25 25 13.8078125 0 25-11.19375 25-25 0-13.8078125-11.1921875-25-25-25z" fill="#fff" fill-rule="evenodd"/></svg>