<svg width="501" height="144" viewBox="0 0 501 144" preserveAspectRatio="xMinYMid meet" xmlns="http://www.w3.org/2000/svg" fill="currentColor"><path d="M0 11.613h35.227c-.145 13.426 0 26.997-.578 40.423h1.155l19.634-40.423h36.959l-26.853 49.23 30.462 55.582H56.593L35.804 72.248h-1.155c.578 17.902.433 29.307.578 44.177H0V11.613zM142.346 92.46v-9.095l-1.733.144c-9.673 1.155-12.704 5.197-12.704 9.673 0 4.764 3.464 6.497 6.785 6.497 3.898 0 7.363-2.599 7.652-7.219zm-20.934 25.699c-14.004 0-25.842-6.931-25.842-23.1 0-18.48 17.324-23.533 43.888-25.698l2.888-.144v-3.61c0-4.62-2.166-8.084-6.064-8.084-3.753 0-7.219 1.876-7.219 8.662H98.457c1.733-19.635 15.592-26.564 38.691-26.564 26.709 0 37.537 10.972 37.537 35.226v22.522c0 4.909.289 12.127 1.732 19.056h-30.029c-.577-2.309-1.01-4.331-1.155-8.662-5.197 7.508-14.582 10.396-23.821 10.396zm93.444-38.692c0 12.416 2.744 18.334 8.663 18.334 5.918 0 8.662-6.496 8.662-18.912 0-12.415-2.744-18.334-8.662-18.334-5.919 0-8.663 6.496-8.663 18.912zm51.396 0c0 24.831-13.282 38.403-30.029 38.403-8.662 0-14.87-2.599-19.635-7.219V144h-32.915V41.931h30.894v7.507c5.198-7.363 12.994-9.384 21.656-9.384 16.747 0 30.029 14.581 30.029 39.413zm7.812 36.958h32.916V41.931h-32.916v74.494zm0-80.558h32.916V11.613h-32.916v24.254zm51.089 6.064V21.719h32.916v20.212h13.282v21.943h-13.282v20.79c0 5.486 2.021 8.085 7.508 8.085 1.588 0 3.608 0 5.774-.578v24.254c-6.063.723-11.694 1.155-16.892 1.155-17.468 0-29.306-5.629-29.306-29.451V63.874h-10.395V41.931h10.395zM426.175 92.46v-9.095l-1.733.144c-9.672 1.155-12.703 5.197-12.703 9.673 0 4.764 3.464 6.497 6.785 6.497 3.897 0 7.362-2.599 7.651-7.219zm-20.933 25.699c-14.004 0-25.843-6.931-25.843-23.1 0-18.48 17.324-23.533 43.89-25.698l2.886-.144v-3.61c0-4.62-2.166-8.084-6.063-8.084-3.754 0-7.219 1.876-7.219 8.662h-30.605c1.731-19.635 15.59-26.564 38.69-26.564 26.708 0 37.536 10.972 37.536 35.226v22.522c0 4.909.289 12.127 1.733 19.056h-30.03c-.577-2.309-1.01-4.331-1.154-8.662-5.197 7.508-14.581 10.396-23.821 10.396zm62.167-1.734h32.917V11.613h-32.917v104.812z"></path></svg>
