<?xml version="1.0" encoding="UTF-8"?>
<svg width="50px" height="50px" viewBox="0 0 50 50" version="1.1" xmlns="http://www.w3.org/2000/svg" xmlns:xlink="http://www.w3.org/1999/xlink">
    <!-- Generator: Sketch 47.1 (45422) - http://www.bohemiancoding.com/sketch -->
    <title>linkedin</title>
    <desc>Created with Sketch.</desc>
    <defs></defs>
    <g id="desktop" stroke="none" stroke-width="1" fill="none" fill-rule="evenodd">
        <g id="home" transform="translate(-680.000000, -2691.000000)" fill="#FFFFFF">
            <g id="Group-15" transform="translate(0.000000, 2611.000000)">
                <g id="linkedin" transform="translate(680.000000, 80.000000)">
                    <path d="M37.5,37.4765625 L32.3203125,37.4765625 L32.3203125,29.3703125 C32.3203125,27.4375 32.2859375,24.9515625 29.628125,24.9515625 C26.9328125,24.9515625 26.521875,27.0578125 26.521875,29.2328125 L26.521875,37.4765625 L21.346875,37.4765625 L21.346875,20.8078125 L26.3125,20.8078125 L26.3125,23.0875 L26.384375,23.0875 C27.075,21.7765625 28.765625,20.39375 31.2859375,20.39375 C36.53125,20.39375 37.5,23.8453125 37.5,28.334375 L37.5,37.4765625 Z M15.50625,18.53125 C13.8421875,18.53125 12.5,17.184375 12.5,15.5265625 C12.5,13.86875 13.8421875,12.521875 15.50625,12.521875 C17.1625,12.521875 18.5078125,13.86875 18.5078125,15.5265625 C18.5078125,17.184375 17.1625,18.53125 15.50625,18.53125 L15.50625,18.53125 Z M18.096875,37.4765625 L12.9109375,37.4765625 L12.9109375,20.8078125 L18.096875,20.8078125 L18.096875,37.4765625 Z M25,0 C11.1921875,0 0,11.1921875 0,25 C0,38.80625 11.1921875,50 25,50 C38.8078125,50 50,38.80625 50,25 C50,11.1921875 38.8078125,0 25,0 L25,0 Z" id="Fill-209"></path>
                </g>
            </g>
        </g>
    </g>
</svg>