<?xml version="1.0" encoding="UTF-8"?>
<svg width="150px" height="20px" viewBox="0 0 150 20" version="1.1" xmlns="http://www.w3.org/2000/svg" xmlns:xlink="http://www.w3.org/1999/xlink">
    <!-- Generator: Sketch 47.1 (45422) - http://www.bohemiancoding.com/sketch -->
    <title>renteradar_white_logo</title>
    <desc>Created with Sketch.</desc>
    <defs></defs>
    <g id="mobile" stroke="none" stroke-width="1" fill="none" fill-rule="evenodd">
        <g id="frontpage" transform="translate(-20.000000, -20.000000)" fill-rule="nonzero" fill="#FFFFFF">
            <g id="Group-2">
                <g id="renteradar_white_logo" transform="translate(20.000000, 20.000000)">
                    <path d="M8.82939215,19.9500525 C8.47424341,19.8812168 7.64556303,19.7140445 7.44825818,19.6747098 C7.04378323,19.5862068 6.14604616,19.2420285 5.52453587,18.9273511 C3.72906171,18.0226537 2.15062289,16.508269 1.19369436,14.7578762 C0.503127374,13.4893331 0,11.5225996 0,10.0475495 C0,9.2510225 0.256496308,7.49079605 0.41434019,7.19578604 C0.473531646,7.07778203 0.522857859,6.96961169 0.512992616,6.95977802 C0.503127374,6.94011069 0.493262131,6.92044335 0.503127374,6.91060968 C0.503127374,6.89094235 0.522857859,6.80243934 0.542588344,6.70410267 C0.591914557,6.42875999 1.39099921,4.86520689 1.69682173,4.42269186 C1.85466561,4.20635118 2.05197047,3.92117483 2.15062289,3.78350349 C2.44658017,3.37048946 3.52189162,2.3379544 4.01515375,2.00360971 C4.27165006,1.8266037 4.50841588,1.64959769 4.53801161,1.62009669 C4.59720306,1.55126101 5.52453587,1.06941132 6.21510285,0.744900297 C6.84647838,0.459723946 7.685024,0.2630506 8.92804458,0.095878256 C9.88497311,-0.0319594187 10.1513347,-0.0319594187 11.098398,0.095878256 C12.7360282,0.312218936 13.1700989,0.430222944 14.314467,0.980908312 C15.5574876,1.57092835 16.2085936,2.04294438 17.2740398,3.10498044 L17.9152806,3.75400249 L18.1915074,3.55732914 C18.5367909,3.31148746 18.6847695,3.38032313 19.030053,3.99984417 C19.1681664,4.25551952 19.4246627,4.70786821 19.5923719,5.00287823 C19.9475206,5.63223294 19.9771163,5.5830646 18.9905921,6.04524696 C18.6157128,6.22225297 17.8166282,6.59593233 17.2148484,6.88110868 C14.5808286,8.13981809 13.8014744,8.50366378 13.7126872,8.50366378 C13.6534958,8.50366378 13.6140348,8.55283212 13.6140348,8.60200046 C13.6140348,8.66100246 13.5745739,8.70033713 13.5252476,8.70033713 C13.4759214,8.70033713 13.091177,8.85767581 12.686702,9.04451548 C12.2723618,9.23135516 11.8974826,9.38869384 11.8382911,9.38869384 C11.7593692,9.38869384 11.5423339,9.98854754 11.5423339,10.2343892 C11.5423339,10.3523932 11.0885327,10.7949083 10.8221712,10.9325796 C10.733384,10.9817479 10.3979657,10.9915816 10.0921432,10.9620806 C9.59888107,10.9030786 9.49036341,10.8539103 9.20427137,10.5195656 C8.93790982,10.2147219 8.87871836,10.0573832 8.87871836,9.69353753 C8.87871836,9.19202049 9.12534943,8.70033713 9.49036341,8.46432911 C9.77645544,8.27748944 10.6347315,8.23815477 10.9208236,8.38565978 C11.1378589,8.50366378 11.4436814,8.45449545 11.4436814,8.29715677 C11.4436814,8.24798843 11.5127381,8.20865377 11.5916601,8.20865377 C11.670582,8.20865377 11.7396387,8.1693191 11.7396387,8.12998443 C11.7396387,8.08081609 11.9073478,7.95297842 12.1145179,7.83497441 C12.8149502,7.43179405 12.7952197,7.46129505 12.4302057,7.13678403 C11.5719296,6.38942532 10.4571572,6.04524696 9.50022865,6.24192031 C8.41505196,6.45826099 7.18189663,7.37279205 6.88593935,8.1693191 C6.8267479,8.35615877 6.73796071,8.50366378 6.70836498,8.50366378 C6.66890401,8.50366378 6.58011683,8.7986738 6.51106013,9.17235316 C6.33348577,10.1557199 6.60971256,11.306259 7.19176187,11.9159463 C7.31014478,12.043784 7.40879721,12.1716217 7.4285277,12.2109563 C7.47785391,12.368295 8.16842089,12.9288141 8.32626478,12.9288141 C8.41505196,12.9288141 8.48410866,12.9681487 8.48410866,13.0173171 C8.48410866,13.1746557 9.41144146,13.3713291 10.1118737,13.3614954 C11.3154333,13.3516618 12.686702,12.7813091 13.7126872,11.8569443 C13.9494531,11.63077 14.1862189,11.453764 14.2256799,11.453764 C14.393389,11.453764 13.9099921,12.338794 13.4956519,12.7714754 C13.3476733,12.9386477 13.2194251,13.0959864 13.2194251,13.1451547 C13.2194251,13.1844894 13.1700989,13.2238241 13.1010422,13.2238241 C13.0319855,13.2238241 12.8642764,13.3319944 12.7162977,13.4696658 C12.5781843,13.6171708 12.1342484,13.8531788 11.7297735,14.0105175 C11.098398,14.2563591 10.8714974,14.2956938 10.0625475,14.2858601 C9.11548419,14.2760265 8.80966166,14.2071908 7.95138556,13.8138441 C7.38906673,13.5581688 6.31375528,12.5256337 6.11645043,12.043784 C6.03752849,11.8569443 5.9487413,11.6799383 5.90928033,11.6504373 C5.8796846,11.6209363 5.77116694,11.306259 5.68237975,10.9325796 C5.14965665,8.81834114 6.14604616,6.72377001 8.13882517,5.74040328 C8.76033545,5.43555959 8.91817933,5.40605859 9.84551214,5.37655759 C10.4867529,5.34705659 11.0490717,5.38639125 11.3351638,5.46506059 C12.0158655,5.65190027 12.7754892,6.0944153 13.2391556,6.576265 C13.5055172,6.85160768 13.5252476,6.86144135 13.7126872,6.68443534 C13.8212049,6.58609866 13.9099921,6.53693033 13.9099921,6.576265 C13.9099921,6.61559967 13.9790488,6.576265 14.0777012,6.48776199 C14.1664884,6.39925899 14.4032542,6.22225297 14.6104243,6.0944153 C14.8077292,5.95674396 15.005034,5.81907262 15.0346298,5.76990428 C15.083956,5.68140127 14.3243323,4.93404256 13.8113397,4.57019687 C12.4302057,3.58683014 10.6347315,3.16398245 9.05629273,3.43932513 C8.16842089,3.58683014 7.8231374,3.71466782 6.92540032,4.17685018 C6.37294674,4.45219286 5.09046519,5.50439526 4.99181277,5.75023694 C4.93262131,5.90757562 4.53801161,6.47792832 4.32097627,6.73360367 C4.25191957,6.81227301 4.20259336,6.89094235 4.22232384,6.90077602 C4.23218909,6.92044335 4.15326715,7.1466177 4.04474948,7.40229305 C3.59094832,8.40532711 3.43310443,9.89021087 3.66000501,10.9817479 C3.77838793,11.5816016 4.11380617,12.5256337 4.26178481,12.7026397 C4.32097627,12.7714754 4.33084151,12.8304774 4.2815153,12.8304774 C4.23218909,12.8304774 4.24205433,12.8698121 4.29138054,12.9091467 C4.350572,12.9484814 4.54787685,13.2139904 4.72545122,13.4893331 C5.49494014,14.6988742 7.2904143,15.8985816 8.73073972,16.1640906 C9.85537738,16.3705976 11.4436814,16.2624273 12.2033051,15.9182489 C13.0023898,15.5740706 13.6140348,15.2495595 13.6140348,15.2003912 C13.6140348,15.1708902 13.7324177,15.0823872 13.8902616,15.0135515 C14.2158146,14.8660465 15.3996437,13.7450084 15.9126364,13.1058201 C16.3368418,12.5846357 17.0175435,11.306259 17.1852527,10.7162389 C17.3036356,10.3228922 17.3036356,10.3228922 17.3430965,10.6179022 C17.4220185,11.2669243 16.8991606,12.8206437 16.2085936,13.9613491 C16.021154,14.2661928 14.4032542,15.9477499 14.4032542,15.8395796 C14.4032542,15.8002449 14.2552756,15.8789142 14.0777012,16.0165856 C13.6239001,16.3607639 12.5189929,16.83278 11.7692345,17.009786 C11.0293413,17.186792 9.17467564,17.2064593 8.50383914,17.0491207 C7.359471,16.7836116 6.14604616,16.2230926 5.43574869,15.6330726 C4.73531646,15.0627199 3.65013977,13.7843431 3.65013977,13.5385014 C3.65013977,13.4794994 3.6106788,13.4204974 3.57121783,13.4008301 C3.44296968,13.3516618 3.05822521,12.3781287 2.84118988,11.5619343 C2.56496308,10.5392329 2.57482833,9.12318482 2.85105512,8.03164775 C3.05822521,7.2351207 3.43310443,6.32058965 3.58108307,6.26158764 C3.62054404,6.24192031 3.65013977,6.14358364 3.65013977,6.0354133 C3.65013977,5.93707662 3.68960074,5.84857362 3.72906171,5.84857362 C3.76852268,5.84857362 3.88690559,5.70106861 3.99542326,5.53389626 C4.09407569,5.35689025 4.26178481,5.15038324 4.36043724,5.08154757 C4.45908967,5.0127119 4.53801161,4.88487422 4.53801161,4.80620489 C4.53801161,4.72753555 4.56760734,4.66853354 4.61693355,4.66853354 C4.65639452,4.66853354 4.87342986,4.5013612 5.10033044,4.29485419 C5.56399684,3.87200649 6.25456382,3.3901568 6.41240771,3.3901568 C6.46173392,3.3901568 6.51106013,3.36065579 6.51106013,3.31148746 C6.51106013,3.27215279 6.76755644,3.13448145 7.0832442,3.01647744 C9.03656224,2.24945139 11.0096108,2.22978406 12.8248154,2.97714277 C13.9395878,3.43932513 14.6498853,3.9310085 15.5476224,4.85537322 C15.8633101,5.17988424 15.8830406,5.18971791 16.100076,5.02254557 C16.2283241,4.93404256 16.4946857,4.75703655 16.7018558,4.61936521 C16.8991606,4.48169386 17.0668697,4.34402252 17.0668697,4.31452152 C17.0668697,4.21618485 15.9323668,3.12464778 15.3996437,2.71163375 C13.2490208,1.04974398 10.003356,0.499058615 7.30027954,1.33492033 C6.83661314,1.48242534 5.74157121,2.00360971 5.37655723,2.24945139 C5.21871335,2.3674554 5.08059995,2.43629107 5.08059995,2.40679007 C5.06086947,2.25928506 3.53175686,3.65566581 2.95957279,4.32435519 C1.59816931,5.91740929 0.710297469,8.66100246 0.937198049,10.5687339 C0.97665902,10.8637439 1.02598523,11.2865916 1.04571572,11.5029323 C1.12463766,12.1421207 1.46005591,13.1254874 1.88426134,13.9613491 C2.52550211,15.2102249 2.5452326,15.2298922 2.95957279,15.6822409 C3.17660813,15.9182489 3.35418249,16.1247559 3.35418249,16.1542569 C3.35418249,16.2132589 3.71919647,16.5476036 4.30124578,17.009786 C4.56760734,17.2261267 4.8142384,17.452301 4.85369937,17.5014693 C4.89316034,17.5604714 4.93262131,17.5604714 4.93262131,17.5211367 C4.93262131,17.481802 5.03127374,17.5309704 5.14965665,17.6489744 C5.26803956,17.7571447 5.40615296,17.8456477 5.44561393,17.8456477 C5.49494014,17.8456477 5.70211024,17.953818 5.91914557,18.0914894 C6.13618091,18.2291607 6.39267722,18.3569984 6.4814644,18.3766657 C6.58011683,18.3864994 6.79715217,18.4651687 6.95499605,18.5340044 C8.2868038,19.0846898 10.5262139,19.2321948 11.996135,18.8585154 C12.4400709,18.7405114 12.8840069,18.6126738 12.9826593,18.5536717 C13.091177,18.5045034 13.2194251,18.4455014 13.2687513,18.4455014 C13.4463257,18.4258341 13.7620135,18.3078301 13.8113397,18.2488281 C13.8409354,18.2193271 14.107297,18.0718221 14.4032542,17.9144834 C16.1395369,17.0491207 18.1816422,14.9447159 18.9807268,13.2041567 C19.4739889,12.1224533 19.8291377,10.9227459 19.8291377,10.2737239 C19.8291377,10.0868842 19.8784639,9.86070987 19.9376553,9.78204053 C20.0757687,9.58536718 19.9672511,11.2669243 19.7798115,12.191289 C19.5825066,13.1353211 19.5134499,13.3614954 19.1385707,14.1580225 C17.4318837,17.7669784 13.8310702,20.0483892 9.92443408,19.9992208 C9.43117195,19.9893872 8.93790982,19.9697198 8.82939215,19.9500525 Z" id="Shape"></path>
                    <path d="M129.252106,16.7478937 C128.777491,16.2831665 129.004911,15.5119171 129.667394,15.3537121 C130.191449,15.2152828 130.784717,15.8085515 130.646288,16.3326056 C130.488083,16.995089 129.716834,17.2225087 129.252106,16.7478937 Z" id="Shape"></path>
                    <path d="M144.474497,16.895462 C143.548201,16.5871098 142.89083,16.0798208 142.372901,15.2741265 C141.207561,13.4538542 141.526287,10.3703327 143.020312,9.04740255 C144.564139,7.68468501 147.283265,7.64489764 148.74741,8.96782781 C149.215538,9.40548891 149.653786,10.1713959 149.852989,10.9074623 C150.042232,11.6335818 150.052193,13.3145984 149.862949,13.9909837 C149.544224,15.1846049 148.71753,16.2190766 147.681672,16.6865783 C147.143823,16.9352494 146.924699,16.9750367 145.968523,16.9949304 C145.261351,17.0148241 144.733462,16.9750367 144.474497,16.895462 Z M147.163743,15.7814155 C147.811154,15.4830102 148.179681,15.114977 148.458565,14.4982727 C149.185658,12.8868841 148.906773,10.6289507 147.890836,9.70389422 C147.293225,9.16676467 146.894819,9.02750887 145.918722,9.02750887 C144.962545,9.02750887 144.564139,9.15681783 143.986449,9.67405369 C143.45856,10.1316085 143.149794,10.6488443 142.980472,11.3749639 C142.611945,12.9465652 143.010352,14.5977412 143.946608,15.3835418 C144.813143,16.1196082 146.088045,16.2688108 147.163743,15.7814155 Z" id="Shape"></path>
                    <path d="M26.5068273,16.5625579 C26.3429719,16.4753971 26.3333333,16.0880157 26.3333333,10.7227829 C26.3333333,5.20259766 26.3429719,4.97016881 26.5164659,4.81521624 C26.6803213,4.66026367 26.9212851,4.65057913 28.9068273,4.67963274 C30.9502008,4.70868635 31.1429719,4.72805542 31.6730924,4.9411152 C32.9164659,5.43502652 33.5718876,6.42284915 33.5718876,7.77868413 C33.5718876,8.42754801 33.5333333,8.6406078 33.2923695,9.15388818 C32.9935743,9.80275207 32.4345382,10.3450861 31.7983936,10.6162531 L31.4514056,10.7615211 L31.875502,11.158587 C32.1068273,11.3813314 32.415261,11.7590283 32.5598394,12.0108262 C32.848996,12.5241066 34.3333333,16.1558074 34.3333333,16.3398136 C34.3333333,16.4076053 34.2465863,16.5141352 34.1502008,16.5722424 C33.9092369,16.6981414 33.0321285,16.6981414 32.7911647,16.5722424 C32.6947791,16.5238198 32.502008,16.1654919 32.3574297,15.7781105 C32.2128514,15.3907291 32.0104418,14.8968178 31.9236948,14.683758 C31.8273092,14.4706982 31.6634538,14.0445787 31.5477912,13.7346735 C31.0851406,12.4756839 30.5742972,11.7396592 29.9477912,11.4878613 C29.7453815,11.4007004 29.2923695,11.3425932 28.7911647,11.3425932 L27.9718876,11.3425932 L27.9718876,13.9089952 C27.9718876,16.3398136 27.962249,16.4753971 27.788755,16.5722424 C27.5477912,16.6981414 26.7188755,16.6981414 26.5068273,16.5625579 Z M30.8441767,9.62843043 C31.5285141,9.27978714 31.8273092,8.76650676 31.8273092,7.9626903 C31.8273092,7.19761199 31.5285141,6.62622439 30.9598394,6.30663472 C30.5742972,6.09357494 30.4008032,6.06452133 29.2538153,6.03546772 L27.9718876,5.99672958 L27.9718876,8.00142845 L27.9718876,10.0158118 L29.1381526,9.95770464 C30.1791165,9.90928196 30.3718876,9.88022835 30.8441767,9.62843043 Z" id="Shape"></path>
                    <path d="M37.1515969,16.6273556 C37.0740081,16.5982542 36.928529,16.5109499 36.8412416,16.4236456 C36.6763653,16.2878389 36.6666667,15.8901193 36.6666667,10.6227599 C36.6666667,5.61731348 36.6860639,4.957681 36.8218443,4.82187431 C36.9479262,4.68606762 37.3843634,4.66666667 40.0611783,4.66666667 C42.7864863,4.66666667 43.1550333,4.68606762 43.2035263,4.82187431 C43.3005123,5.08378721 43.2714165,5.7822216 43.1453347,5.90832781 C43.0580472,5.99563211 42.3791449,6.02473354 40.6721904,6.02473354 L38.3154295,6.02473354 L38.3154295,7.86782429 L38.3154295,9.71091505 L40.3909309,9.71091505 C42.1948714,9.71091505 42.4761309,9.730316 42.5246239,9.86612269 C42.62161,10.1280356 42.5925142,10.82647 42.4664323,10.9525762 C42.3791449,11.0398805 41.7681328,11.0689819 40.3327393,11.0689819 L38.3154295,11.0689819 L38.3154295,13.1545846 L38.3154295,15.2401873 L40.7400807,15.2401873 C43.1162388,15.2401873 43.1647319,15.2401873 43.2714165,15.4438973 C43.3781012,15.6573078 43.3393068,16.452747 43.2132249,16.5788532 C43.1356361,16.656457 37.3552676,16.7049594 37.1515969,16.6273556 Z" id="Shape"></path>
                    <path d="M46.1791739,16.8948644 C46.0099541,16.8058375 46,16.4101624 46,10.9300623 C46,5.37082708 46.0099541,5.054287 46.1791739,4.90590884 C46.3185314,4.77731443 46.567384,4.73774692 47.2542173,4.73774692 C48.5084345,4.73774692 48.3292606,4.52012561 50.4395309,8.44720101 C50.6983376,8.94179488 51.1164101,9.69357758 51.3453545,10.1288202 C51.584253,10.5640628 52.052096,11.4444399 52.3706273,12.0874119 C52.6991128,12.7204921 53.1271393,13.541518 53.3162673,13.8976255 L53.664661,14.5504895 L53.664661,9.69357758 L53.664661,4.83666569 L53.9433759,4.72785504 C54.2718614,4.59926063 55.1577768,4.68828753 55.277226,4.85644945 C55.3170425,4.92569259 55.3469048,7.59649953 55.3269966,10.791576 C55.3070883,17.5477284 55.4066294,16.9542157 54.2121368,16.9542157 C53.0674147,16.9542157 53.3063132,17.2806477 49.9816421,11.1180079 C49.3644876,9.98044203 48.5980215,8.52633603 48.2794901,7.90314774 L47.6921979,6.76558182 L47.6921979,11.7807637 C47.6921979,16.6376756 47.6822438,16.8058375 47.5030699,16.9047563 C47.2542173,17.0333507 46.3981642,17.0333507 46.1791739,16.8948644 Z" id="Shape"></path>
                    <path d="M60.8115136,16.6068898 C60.7144872,16.5681133 60.6853793,15.4145125 60.6853793,11.2848156 L60.6853793,6.01121202 L58.9000937,6.01121202 C57.3670767,6.01121202 57.1051054,5.99182377 57.0565922,5.85610603 C56.9692684,5.6428353 56.9886737,4.91577598 57.0759975,4.77036412 C57.1439159,4.67342287 58.0947746,4.65403463 61.5101036,4.67342287 L65.8665887,4.70250525 L65.9636151,5.02241135 C66.0121283,5.21629383 66.0121283,5.44895281 65.9636151,5.65252942 L65.8665887,5.9627414 L64.1007084,5.99182377 L62.334828,6.01121202 L62.334828,11.2460391 C62.334828,16.3160661 62.3251254,16.4808662 62.1504778,16.5778074 C61.9564251,16.6747487 61.0346743,16.703831 60.8115136,16.6068898 Z" id="Shape"></path>
                    <path d="M68.1497583,16.6064159 C68.0724636,16.5773664 67.9275361,16.4902179 67.8405796,16.4030694 C67.6763285,16.2675051 67.6666667,15.8704954 67.6666667,10.6125371 C67.6666667,5.61602423 67.6859903,4.95756904 67.821256,4.82200474 C67.9468598,4.68644044 68.3816422,4.66707411 71.0483078,4.66707411 C74.4492727,4.66707411 74.2367124,4.62834145 74.2367124,5.30616296 C74.2367124,6.04208346 74.314007,6.02271713 71.6763269,6.02271713 L69.3091781,6.02271713 L69.3091781,7.86251838 L69.3091781,9.70231962 L71.2801918,9.70231962 C72.362317,9.70231962 73.3188383,9.73136911 73.4057948,9.76041861 C73.5990315,9.83788392 73.6280169,10.7577845 73.4444421,10.9417647 C73.3574857,11.0289131 72.7487902,11.0579626 71.3188391,11.0579626 L69.3091781,11.0579626 L69.3091781,13.139843 L69.3091781,15.2217234 L71.7053124,15.2217234 C73.4444421,15.2217234 74.1304322,15.2507728 74.2173887,15.3379213 C74.2850215,15.4057035 74.3333307,15.6574658 74.3333307,15.909228 C74.3333307,16.6838812 74.3526543,16.674198 71.096617,16.6645149 C69.5603857,16.6645149 68.2270529,16.6354654 68.1497583,16.6064159 Z" id="Shape"></path>
                    <path d="M77,10.6666667 L77,4.66666667 L78.93,4.66666667 C82.06,4.66666667 83.09,5.06010929 83.86,6.54535519 C84.09,6.98797814 84.13,7.20437158 84.14,7.86338798 C84.14,8.8863388 83.8,9.68306011 83.07,10.3322404 C82.8,10.568306 82.54,10.7650273 82.5,10.7650273 C82.45,10.7650273 82.2,10.8535519 81.93,10.9715847 L81.45,11.1781421 L81.71,11.3060109 C82.15,11.5420765 82.76,12.4666667 84.2,15.1420765 C84.49,15.6830601 84.79,16.2142077 84.87,16.3224044 C84.94,16.4306011 85,16.5486339 85,16.5879781 C85,16.6371585 84.69,16.6666667 84.32,16.6666667 L83.64,16.6666667 L82.56,14.6601093 C81.43,12.5453552 80.97,11.9060109 80.43,11.6896175 C80.23,11.6010929 79.73,11.5519126 79.15,11.5519126 L78.2,11.5519126 L78.2,14.1092896 L78.2,16.6666667 L77.6,16.6666667 L77,16.6666667 L77,10.6666667 Z M81.56,10.1453552 C82.44,9.70273224 82.9,8.96502732 82.9,8.0010929 C82.9,7.29289617 82.73,6.87978142 82.26,6.4568306 C81.69,5.94535519 81.35,5.8568306 79.63,5.77814208 L78.2,5.71912568 L78.2,8.10928962 L78.2,10.4994536 L79.63,10.4502732 C80.92,10.410929 81.1,10.3814208 81.56,10.1453552 Z" id="Shape"></path>
                    <path d="M85.6704791,16.5604828 C85.7003332,16.4915616 85.909312,15.9697303 86.1282421,15.3986696 C86.3471722,14.8276089 86.9442543,13.3014984 87.4418228,12.001843 C87.9393912,10.7021876 88.5165706,9.19576882 88.7255494,8.65424574 C88.9444795,8.11272265 89.3723883,6.99029299 89.6808808,6.17308543 L90.2580602,4.66666667 L90.8252882,4.66666667 L91.3925162,4.66666667 L91.71096,5.43464486 C91.8801333,5.85801745 92.0990634,6.43892403 92.2085285,6.73430026 C92.3179935,7.02967649 92.815562,8.33917776 93.3131304,9.63883316 C94.3182187,12.238144 94.8356898,13.5870287 95.3631124,15.0048346 C95.5521884,15.5168201 95.7711185,16.0780349 95.8507295,16.2552607 C95.9303404,16.4226405 96,16.5900204 96,16.619558 C96,16.6589415 95.7014589,16.6786332 95.3432097,16.6589415 L94.6764679,16.6294039 L94.0196776,14.9063759 L93.3628873,13.1833479 L90.8153368,13.1538103 L88.2777378,13.1341185 L87.9194885,14.0891683 C87.7204611,14.6208455 87.4318714,15.4085155 87.2726495,15.8417339 L86.9840598,16.6294039 L86.3073667,16.6589415 C85.7799442,16.6786332 85.640625,16.6589415 85.6704791,16.5604828 Z M92.9150757,12.0510724 C92.9150757,11.9919971 92.7857079,11.608008 92.626486,11.1846354 C92.4672641,10.7711087 92.1090148,9.80621302 91.8303765,9.04808071 C90.8451909,6.37984879 90.7357259,6.09431843 90.7357259,6.26169829 C90.7257745,6.41923228 90.4272334,7.26597747 89.0340418,11.0960225 L88.6459384,12.1495311 L90.7854827,12.1495311 C92.1786744,12.1495311 92.9150757,12.1101476 92.9150757,12.0510724 Z" id="Shape"></path>
                    <path d="M97.3333333,10.6715807 L97.3333333,4.66666667 L99.1365994,4.66666667 C103.220753,4.66666667 105.043514,5.4037674 106.047495,7.48730549 C106.447137,8.29320229 106.583601,8.89271089 106.651832,10.0720721 C106.759054,11.8607699 106.281432,13.5315315 105.335936,14.6420966 C104.751093,15.3300573 103.71787,16.00819 102.762626,16.3325143 C101.992583,16.5880426 101.865867,16.6076986 99.6532107,16.6371826 L97.3333333,16.6666667 L97.3333333,10.6715807 L97.3333333,10.6715807 Z M101.963341,15.4283374 C102.850353,15.1924652 103.571659,14.8091728 104.117513,14.2489762 C105.024019,13.3349713 105.423662,12.2145782 105.423662,10.5634726 C105.423662,8.44062244 104.731598,7.1040131 103.259743,6.36691237 C102.440963,5.96396396 101.934099,5.86568387 100.130833,5.78705979 L98.6004932,5.71826372 L98.6004932,10.6420966 L98.6004932,15.5757576 L99.9943692,15.5757576 C100.930118,15.5757576 101.583193,15.5266175 101.963341,15.4283374 Z" id="Shape"></path>
                    <path d="M107.666667,16.5683141 C107.666667,16.5093025 107.860841,15.958528 108.10356,15.3290714 C108.346278,14.70945 108.540453,14.178346 108.540453,14.1488403 C108.540453,14.1193345 108.608414,13.9521351 108.686084,13.7849357 C108.763754,13.607901 108.977346,13.0472912 109.161812,12.5358577 C109.346278,12.0244242 109.705502,11.0704041 109.94822,10.4212769 C110.190939,9.77214982 110.511327,8.93615277 110.647249,8.55257766 C110.783172,8.1788378 110.94822,7.73625113 111.02589,7.56905172 C111.093851,7.41168757 111.307443,6.85107778 111.491909,6.33964429 C112.122977,4.5692976 112.055016,4.66765019 112.695793,4.66765019 L113.2589,4.66765019 L113.666667,5.77903451 C113.880259,6.37898533 114.239482,7.37234653 114.462783,7.96246209 C114.676375,8.56241292 114.899676,9.13285796 114.94822,9.24104582 C114.996764,9.34923367 115.190939,9.86066716 115.375405,10.3721006 C115.559871,10.8835341 115.889968,11.7687075 116.10356,12.3391525 C117.404531,15.8109991 117.666667,16.5191378 117.666667,16.5879846 C117.666667,16.6273256 117.385113,16.6666667 117.045307,16.6666667 L116.423948,16.6666667 L116.152104,15.9093517 C116.006472,15.4864355 115.812298,14.9651668 115.724919,14.7487911 C115.63754,14.5324154 115.462783,14.0799934 115.33657,13.7455946 L115.122977,13.1259733 L112.618123,13.1259733 L110.122977,13.1259733 L109.996764,13.5488894 C109.938511,13.7751004 109.656958,14.5717564 109.385113,15.3192361 L108.899676,16.6666667 L108.278317,16.6666667 C107.928803,16.6666667 107.666667,16.6273256 107.666667,16.5683141 Z M114.521036,11.483485 C114.220065,10.5688058 113.501618,8.60175395 113.385113,8.35587247 C113.33657,8.24768462 113.142395,7.70674535 112.967638,7.14613556 L112.647249,6.13310384 L112.394822,6.90025408 C112.2589,7.32317023 111.79288,8.64109499 111.365696,9.83116138 C110.928803,11.0212278 110.579288,12.0244242 110.579288,12.0637653 C110.579288,12.1129416 111.511327,12.1424473 112.656958,12.1424473 L114.744337,12.1424473 L114.521036,11.483485 Z" id="Shape"></path>
                    <path d="M119.666667,10.6666667 L119.666667,4.66666667 L121.733755,4.70594654 C123.529114,4.7452264 123.878481,4.77468631 124.44135,4.96126568 C125.217722,5.2264048 125.964979,5.86470267 126.285232,6.53246045 C126.586076,7.18057829 126.586076,8.65357338 126.294937,9.30169122 C125.984388,9.94980906 125.411814,10.5095472 124.664557,10.872886 L124.004641,11.1871249 L124.31519,11.4326241 C124.742194,11.776323 125.217722,12.5226405 126.256118,14.5062739 C126.751055,15.4489907 127.197468,16.264048 127.245992,16.3229678 C127.294515,16.3720676 127.333333,16.4702673 127.333333,16.5390071 C127.333333,16.6470267 127.178059,16.6666667 126.683122,16.6470267 L126.023207,16.6175668 L124.955696,14.5750136 C123.490295,11.766503 123.276793,11.5602837 121.753165,11.5602837 L120.831224,11.5602837 L120.831224,14.1134752 L120.831224,16.6666667 L120.248945,16.6666667 L119.666667,16.6666667 L119.666667,10.6666667 L119.666667,10.6666667 Z M124.082278,10.1265685 C125.246835,9.52755046 125.693249,8.13311511 125.101266,6.94489907 C124.674262,6.10038189 124.111392,5.87452264 122.218987,5.7959629 L120.831224,5.7370431 L120.831224,8.12329514 L120.831224,10.4997272 L122.170464,10.4604474 C123.422363,10.4309875 123.529114,10.4113475 124.082278,10.1265685 Z" id="Shape"></path>
                    <path d="M133,12.4019608 L133,8.1372549 L133.599144,8.1372549 L134.198288,8.1372549 L134.198288,8.7745098 L134.198288,9.40196078 L134.647646,8.93137255 C135.31669,8.23529412 135.92582,8 137.044223,8 C137.82311,8 138.012839,8.03921569 138.462197,8.26470588 C138.801712,8.43137255 139.091298,8.68627451 139.291013,8.97058824 C139.920114,9.8627451 139.9301,9.94117647 139.970043,13.4607843 L140,16.6666667 L139.450785,16.6666667 L138.891583,16.6666667 L138.891583,14.2941176 C138.881598,11.4215686 138.801712,10.6666667 138.442225,9.95098039 C138.092725,9.23529412 137.623395,8.97058824 136.694722,8.98039216 C135.905849,8.99019608 135.376605,9.2254902 134.867332,9.81372549 C134.238231,10.5294118 134.198288,10.7745098 134.198288,13.8921569 L134.198288,16.6666667 L133.599144,16.6666667 L133,16.6666667 L133,12.4019608 Z" id="Shape"></path>
                </g>
            </g>
        </g>
    </g>
</svg>