<?xml version="1.0" encoding="UTF-8"?>
<svg width="1480px" height="204px" viewBox="0 0 1480 204" version="1.1" xmlns="http://www.w3.org/2000/svg" xmlns:xlink="http://www.w3.org/1999/xlink">
    <!-- Generator: Sketch 58 (84663) - https://sketch.com -->
    <title>Renteradar_darkblue</title>
    <desc>Created with Sketch.</desc>
    <g id="UI-Desktop" stroke="none" stroke-width="1" fill="none" fill-rule="evenodd">
        <g id="Artboard" transform="translate(-64.000000, -182.000000)" fill="#2B3E50" fill-rule="nonzero">
            <g id="Renteradar_darkblue" transform="translate(64.000000, 182.000000)">
                <path d="M89.5,202.9 C85.9,202.2 77.5,200.5 75.5,200.1 C71.4,199.2 62.3,195.7 56,192.5 C37.8,183.3 21.8,167.9 12.1,150.1 C5.1,137.2 0,117.2 0,102.2 C0,94.1 2.6,76.2 4.2,73.2 C4.8,72 5.3,70.9 5.2,70.8 C5.1,70.6 5,70.4 5.1,70.3 C5.1,70.1 5.3,69.2 5.5,68.2 C6,65.4 14.1,49.5 17.2,45 C18.8,42.8 20.8,39.9 21.8,38.5 C24.8,34.3 35.7,23.8 40.7,20.4 C43.3,18.6 45.7,16.8 46,16.5 C46.6,15.8 56,10.9 63,7.6 C69.4,4.7 77.9,2.7 90.5,1 C100.2,-0.3 102.9,-0.3 112.5,1 C129.1,3.2 133.5,4.4 145.1,10 C157.7,16 164.3,20.8 175.1,31.6 L181.6,38.2 L184.4,36.2 C187.9,33.7 189.4,34.4 192.9,40.7 C194.3,43.3 196.9,47.9 198.6,50.9 C202.2,57.3 202.5,56.8 192.5,61.5 C188.7,63.3 180.6,67.1 174.5,70 C147.8,82.8 139.9,86.5 139,86.5 C138.4,86.5 138,87 138,87.5 C138,88.1 137.6,88.5 137.1,88.5 C136.6,88.5 132.7,90.1 128.6,92 C124.4,93.9 120.6,95.5 120,95.5 C119.2,95.5 117,101.6 117,104.1 C117,105.3 112.4,109.8 109.7,111.2 C108.8,111.7 105.4,111.8 102.3,111.5 C97.3,110.9 96.2,110.4 93.3,107 C90.6,103.9 90,102.3 90,98.6 C90,93.5 92.5,88.5 96.2,86.1 C99.1,84.2 107.8,83.8 110.7,85.3 C112.9,86.5 116,86 116,84.4 C116,83.9 116.7,83.5 117.5,83.5 C118.3,83.5 119,83.1 119,82.7 C119,82.2 120.7,80.9 122.8,79.7 C129.9,75.6 129.7,75.9 126,72.6 C117.3,65 106,61.5 96.3,63.5 C85.3,65.7 72.8,75 69.8,83.1 C69.2,85 68.3,86.5 68,86.5 C67.6,86.5 66.7,89.5 66,93.3 C64.2,103.3 67,115 72.9,121.2 C74.1,122.5 75.1,123.8 75.3,124.2 C75.8,125.8 82.8,131.5 84.4,131.5 C85.3,131.5 86,131.9 86,132.4 C86,134 95.4,136 102.5,135.9 C114.7,135.8 128.6,130 139,120.6 C141.4,118.3 143.8,116.5 144.2,116.5 C145.9,116.5 141,125.5 136.8,129.9 C135.3,131.6 134,133.2 134,133.7 C134,134.1 133.5,134.5 132.8,134.5 C132.1,134.5 130.4,135.6 128.9,137 C127.5,138.5 123,140.9 118.9,142.5 C112.5,145 110.2,145.4 102,145.3 C92.4,145.2 89.3,144.5 80.6,140.5 C74.9,137.9 64,127.4 62,122.5 C61.2,120.6 60.3,118.8 59.9,118.5 C59.6,118.2 58.5,115 57.6,111.2 C52.2,89.7 62.3,68.4 82.5,58.4 C88.8,55.3 90.4,55 99.8,54.7 C106.3,54.4 112,54.8 114.9,55.6 C121.8,57.5 129.5,62 134.2,66.9 C136.9,69.7 137.1,69.8 139,68 C140.1,67 141,66.5 141,66.9 C141,67.3 141.7,66.9 142.7,66 C143.6,65.1 146,63.3 148.1,62 C150.1,60.6 152.1,59.2 152.4,58.7 C152.9,57.8 145.2,50.2 140,46.5 C126,36.5 107.8,32.2 91.8,35 C82.8,36.5 79.3,37.8 70.2,42.5 C64.6,45.3 51.6,56 50.6,58.5 C50,60.1 46,65.9 43.8,68.5 C43.1,69.3 42.6,70.1 42.8,70.2 C42.9,70.4 42.1,72.7 41,75.3 C36.4,85.5 34.8,100.6 37.1,111.7 C38.3,117.8 41.7,127.4 43.2,129.2 C43.8,129.9 43.9,130.5 43.4,130.5 C42.9,130.5 43,130.9 43.5,131.3 C44.1,131.7 46.1,134.4 47.9,137.2 C55.7,149.5 73.9,161.7 88.5,164.4 C99.9,166.5 116,165.4 123.7,161.9 C131.8,158.4 138,155.1 138,154.6 C138,154.3 139.2,153.4 140.8,152.7 C144.1,151.2 156.1,139.8 161.3,133.3 C165.6,128 172.5,115 174.2,109 C175.4,105 175.4,105 175.8,108 C176.6,114.6 171.3,130.4 164.3,142 C162.4,145.1 146,162.2 146,161.1 C146,160.7 144.5,161.5 142.7,162.9 C138.1,166.4 126.9,171.2 119.3,173 C111.8,174.8 93,175 86.2,173.4 C74.6,170.7 62.3,165 55.1,159 C48,153.2 37,140.2 37,137.7 C37,137.1 36.6,136.5 36.2,136.3 C34.9,135.8 31,125.9 28.8,117.6 C26,107.2 26.1,92.8 28.9,81.7 C31,73.6 34.8,64.3 36.3,63.7 C36.7,63.5 37,62.5 37,61.4 C37,60.4 37.4,59.5 37.8,59.5 C38.2,59.5 39.4,58 40.5,56.3 C41.5,54.5 43.2,52.4 44.2,51.7 C45.2,51 46,49.7 46,48.9 C46,48.1 46.3,47.5 46.8,47.5 C47.2,47.5 49.4,45.8 51.7,43.7 C56.4,39.4 63.4,34.5 65,34.5 C65.5,34.5 66,34.2 66,33.7 C66,33.3 68.6,31.9 71.8,30.7 C91.6,22.9 111.6,22.7 130,30.3 C141.3,35 148.5,40 157.6,49.4 C160.8,52.7 161,52.8 163.2,51.1 C164.5,50.2 167.2,48.4 169.3,47 C171.3,45.6 173,44.2 173,43.9 C173,42.9 161.5,31.8 156.1,27.6 C134.3,10.7 101.4,5.1 74,13.6 C69.3,15.1 58.2,20.4 54.5,22.9 C52.9,24.1 51.5,24.8 51.5,24.5 C51.3,23 35.8,37.2 30,44 C16.2,60.2 7.2,88.1 9.5,107.5 C9.9,110.5 10.4,114.8 10.6,117 C11.4,123.5 14.8,133.5 19.1,142 C25.6,154.7 25.8,154.9 30,159.5 C32.2,161.9 34,164 34,164.3 C34,164.9 37.7,168.3 43.6,173 C46.3,175.2 48.8,177.5 49.2,178 C49.6,178.6 50,178.6 50,178.2 C50,177.8 51,178.3 52.2,179.5 C53.4,180.6 54.8,181.5 55.2,181.5 C55.7,181.5 57.8,182.6 60,184 C62.2,185.4 64.8,186.7 65.7,186.9 C66.7,187 68.9,187.8 70.5,188.5 C84,194.1 106.7,195.6 121.6,191.8 C126.1,190.6 130.6,189.3 131.6,188.7 C132.7,188.2 134,187.6 134.5,187.6 C136.3,187.4 139.5,186.2 140,185.6 C140.3,185.3 143,183.8 146,182.2 C163.6,173.4 184.3,152 192.4,134.3 C197.4,123.3 201,111.1 201,104.5 C201,102.6 201.5,100.3 202.1,99.5 C203.5,97.5 202.4,114.6 200.5,124 C198.5,133.6 197.8,135.9 194,144 C176.7,180.7 140.2,203.9 100.6,203.4 C95.6,203.3 90.6,203.1 89.5,202.9 Z" id="Path"></path>
                <path d="M1268.5,170 C1263.7,165.3 1266,157.5 1272.7,155.9 C1278,154.5 1284,160.5 1282.6,165.8 C1281,172.5 1273.2,174.8 1268.5,170 Z" id="Path"></path>
                <path d="M1424.5,171.2 C1415.2,168.1 1408.6,163 1403.4,154.9 C1391.7,136.6 1394.9,105.6 1409.9,92.3 C1425.4,78.6 1452.7,78.2 1467.4,91.5 C1472.1,95.9 1476.5,103.6 1478.5,111 C1480.4,118.3 1480.5,135.2 1478.6,142 C1475.4,154 1467.1,164.4 1456.7,169.1 C1451.3,171.6 1449.1,172 1439.5,172.2 C1432.4,172.4 1427.1,172 1424.5,171.2 Z M1451.5,160 C1458,157 1461.7,153.3 1464.5,147.1 C1471.8,130.9 1469,108.2 1458.8,98.9 C1452.8,93.5 1448.8,92.1 1439,92.1 C1429.4,92.1 1425.4,93.4 1419.6,98.6 C1414.3,103.2 1411.2,108.4 1409.5,115.7 C1405.8,131.5 1409.8,148.1 1419.2,156 C1427.9,163.4 1440.7,164.9 1451.5,160 Z" id="Shape"></path>
                <path d="M219.8,170.4 C218.1,169.5 218,165.5 218,110.1 C218,53.1 218.1,50.7 219.9,49.1 C221.6,47.5 224.1,47.4 244.7,47.7 C265.9,48 267.9,48.2 273.4,50.4 C286.3,55.5 293.1,65.7 293.1,79.7 C293.1,86.4 292.7,88.6 290.2,93.9 C287.1,100.6 281.3,106.2 274.7,109 L271.1,110.5 L275.5,114.6 C277.9,116.9 281.1,120.8 282.6,123.4 C285.6,128.7 301,166.2 301,168.1 C301,168.8 300.1,169.9 299.1,170.5 C296.6,171.8 287.5,171.8 285,170.5 C284,170 282,166.3 280.5,162.3 C279,158.3 276.9,153.2 276,151 C275,148.8 273.3,144.4 272.1,141.2 C267.3,128.2 262,120.6 255.5,118 C253.4,117.1 248.7,116.5 243.5,116.5 L235,116.5 L235,143 C235,168.1 234.9,169.5 233.1,170.5 C230.6,171.8 222,171.8 219.8,170.4 Z M264.8,98.8 C271.9,95.2 275,89.9 275,81.6 C275,73.7 271.9,67.8 266,64.5 C262,62.3 260.2,62 248.3,61.7 L235,61.3 L235,82 L235,102.8 L247.1,102.2 C257.9,101.7 259.9,101.4 264.8,98.8 Z" id="Shape"></path>
                <path d="M329,170.8 C328.2,170.5 326.7,169.6 325.8,168.7 C324.1,167.3 324,163.2 324,108.9 C324,57.3 324.2,50.5 325.6,49.1 C326.9,47.7 331.4,47.5 359,47.5 C387.1,47.5 390.9,47.7 391.4,49.1 C392.4,51.8 392.1,59 390.8,60.3 C389.9,61.2 382.9,61.5 365.3,61.5 L341,61.5 L341,80.5 L341,99.5 L362.4,99.5 C381,99.5 383.9,99.7 384.4,101.1 C385.4,103.8 385.1,111 383.8,112.3 C382.9,113.2 376.6,113.5 361.8,113.5 L341,113.5 L341,135 L341,156.5 L366,156.5 C390.5,156.5 391,156.5 392.1,158.6 C393.2,160.8 392.8,169 391.5,170.3 C390.7,171.1 331.1,171.6 329,170.8 Z" id="Path"></path>
                <path d="M420.8,170.4 C419.1,169.5 419,165.5 419,110.1 C419,53.9 419.1,50.7 420.8,49.2 C422.2,47.9 424.7,47.5 431.6,47.5 C444.2,47.5 442.4,45.3 463.6,85 C466.2,90 470.4,97.6 472.7,102 C475.1,106.4 479.8,115.3 483,121.8 C486.3,128.2 490.6,136.5 492.5,140.1 L496,146.7 L496,97.6 L496,48.5 L498.8,47.4 C502.1,46.1 511,47 512.2,48.7 C512.6,49.4 512.9,76.4 512.7,108.7 C512.5,177 513.5,171 501.5,171 C490,171 492.4,174.3 459,112 C452.8,100.5 445.1,85.8 441.9,79.5 L436,68 L436,118.7 C436,167.8 435.9,169.5 434.1,170.5 C431.6,171.8 423,171.8 420.8,170.4 Z" id="Path"></path>
                <path d="M569.3,170.8 C568.3,170.4 568,158.5 568,115.9 L568,61.5 L549.6,61.5 C533.8,61.5 531.1,61.3 530.6,59.9 C529.7,57.7 529.9,50.2 530.8,48.7 C531.5,47.7 541.3,47.5 576.5,47.7 L621.4,48 L622.4,51.3 C622.9,53.3 622.9,55.7 622.4,57.8 L621.4,61 L603.2,61.3 L585,61.5 L585,115.5 C585,167.8 584.9,169.5 583.1,170.5 C581.1,171.5 571.6,171.8 569.3,170.8 Z" id="Path"></path>
                <path d="M645,170.8 C644.2,170.5 642.7,169.6 641.8,168.7 C640.1,167.3 640,163.2 640,108.9 C640,57.3 640.2,50.5 641.6,49.1 C642.9,47.7 647.4,47.5 675,47.5 C710.2,47.5 708,47.1 708,54.1 C708,61.7 708.8,61.5 681.5,61.5 L657,61.5 L657,80.5 L657,99.5 L677.4,99.5 C688.6,99.5 698.5,99.8 699.4,100.1 C701.4,100.9 701.7,110.4 699.8,112.3 C698.9,113.2 692.6,113.5 677.8,113.5 L657,113.5 L657,135 L657,156.5 L681.8,156.5 C699.8,156.5 706.9,156.8 707.8,157.7 C708.5,158.4 709.000028,161 709.000028,163.6 C709.000028,171.6 709.2,171.5 675.5,171.4 C659.6,171.4 645.8,171.1 645,170.8 Z" id="Path"></path>
                <path d="M734,109.5 L734,48.5 L753.3,48.5 C784.6,48.5 794.9,52.5 802.6,67.6 C804.9,72.1 805.3,74.3 805.4,81 C805.4,91.4 802,99.5 794.7,106.1 C792,108.5 789.4,110.5 789,110.5 C788.5,110.5 786,111.4 783.3,112.6 L778.5,114.7 L781.1,116 C785.5,118.4 791.6,127.8 806,155 C808.9,160.5 811.9,165.9 812.7,167 C813.4,168.1 814,169.3 814,169.7 C814,170.2 810.9,170.5 807.2,170.5 L800.4,170.5 L789.6,150.1 C778.3,128.6 773.7,122.1 768.3,119.9 C766.3,119 761.3,118.5 755.5,118.5 L746,118.5 L746,144.5 L746,170.5 L740,170.5 L734,170.5 L734,109.5 Z M779.6,104.2 C788.4,99.7 793,92.2 793,82.4 C793,75.2 791.3,71 786.6,66.7 C780.9,61.5 777.5,60.6 760.3,59.8 L746,59.2 L746,83.5 L746,107.8 L760.3,107.3 C773.2,106.9 775,106.6 779.6,104.2 Z" id="Shape"></path>
                <path d="M822.2,169.3 C822.5,168.6 824.6,163.3 826.8,157.5 C829,151.7 835,136.2 840,123 C845,109.8 850.8,94.5 852.9,89 C855.1,83.5 859.4,72.1 862.5,63.8 L868.3,48.5 L874,48.5 L879.7,48.5 L882.9,56.3 C884.6,60.6 886.8,66.5 887.9,69.5 C889,72.5 894,85.8 899,99 C909.1,125.4 914.3,139.1 919.6,153.5 C921.5,158.7 923.7,164.4 924.5,166.2 C925.3,167.9 926,169.6 926,169.9 C926,170.3 923,170.5 919.4,170.3 L912.7,170 L906.1,152.5 L899.5,135 L873.9,134.7 L848.4,134.5 L844.8,144.2 C842.8,149.6 839.9,157.6 838.3,162 L835.4,170 L828.6,170.3 C823.3,170.5 821.9,170.3 822.2,169.3 Z M895,123.5 C895,122.9 893.7,119 892.1,114.7 C890.5,110.5 886.9,100.7 884.1,93 C874.2,65.9 873.1,63 873.1,64.7 C873,66.3 870,74.9 856,113.8 L852.1,124.5 L873.6,124.5 C887.6,124.5 895,124.1 895,123.5 Z" id="Shape"></path>
                <path d="M944,109.6 L944,48.5 L962.5,48.5 C1004.4,48.5 1023.1,56 1033.4,77.2 C1037.5,85.4 1038.9,91.5 1039.6,103.5 C1040.7,121.7 1035.8,138.7 1026.1,150 C1020.1,157 1009.5,163.9 999.7,167.2 C991.8,169.8 990.5,170 967.8,170.3 L944,170.6 L944,109.6 L944,109.6 Z M991.5,158 C1000.6,155.6 1008,151.7 1013.6,146 C1022.9,136.7 1027,125.3 1027,108.5 C1027,86.9 1019.9,73.3 1004.8,65.8 C996.4,61.7 991.2,60.7 972.7,59.9 L957,59.2 L957,109.3 L957,159.5 L971.3,159.5 C980.9,159.5 987.6,159 991.5,158 Z" id="Shape"></path>
                <path d="M1049,169.5 C1049,168.9 1051,163.3 1053.5,156.9 C1056,150.6 1058,145.2 1058,144.9 C1058,144.6 1058.7,142.9 1059.5,141.2 C1060.3,139.4 1062.5,133.7 1064.4,128.5 C1066.3,123.3 1070,113.6 1072.5,107 C1075,100.4 1078.3,91.9 1079.7,88 C1081.1,84.2 1082.8,79.7 1083.6,78 C1084.3,76.4 1086.5,70.7 1088.4,65.5 C1094.9,47.5 1094.2,48.5 1100.8,48.5 L1106.6,48.5 L1110.8,59.8 C1113,65.9 1116.7,76 1119,82 C1121.2,88.1 1123.5,93.9 1124,95 C1124.5,96.1 1126.5,101.3 1128.4,106.5 C1130.3,111.7 1133.7,120.7 1135.9,126.5 C1149.3,161.8 1152,169 1152,169.7 C1152,170.1 1149.1,170.5 1145.6,170.5 L1139.2,170.5 L1136.4,162.8 C1134.9,158.5 1132.9,153.2 1132,151 C1131.1,148.8 1129.3,144.2 1128,140.8 L1125.8,134.5 L1100,134.5 L1074.3,134.5 L1073,138.8 C1072.4,141.1 1069.5,149.2 1066.7,156.8 L1061.7,170.5 L1055.3,170.5 C1051.7,170.5 1049,170.1 1049,169.5 Z M1119.6,117.8 C1116.5,108.5 1109.1,88.5 1107.9,86 C1107.4,84.9 1105.4,79.4 1103.6,73.7 L1100.3,63.4 L1097.7,71.2 C1096.3,75.5 1091.5,88.9 1087.1,101 C1082.6,113.1 1079,123.3 1079,123.7 C1079,124.2 1088.6,124.5 1100.4,124.5 L1121.9,124.5 L1119.6,117.8 Z" id="Shape"></path>
                <path d="M1171,109.4 L1171,48.3 L1192.3,48.7 C1210.8,49.1 1214.4,49.4 1220.2,51.3 C1228.2,54 1235.9,60.5 1239.2,67.3 C1242.3,73.9 1242.3,88.9 1239.3,95.5 C1236.1,102.1 1230.2,107.8 1222.5,111.5 L1215.7,114.7 L1218.9,117.2 C1223.3,120.7 1228.2,128.3 1238.9,148.5 C1244,158.1 1248.6,166.4 1249.1,167 C1249.6,167.5 1250,168.5 1250,169.2 C1250,170.3 1248.4,170.5 1243.3,170.3 L1236.5,170 L1225.5,149.2 C1210.4,120.6 1208.2,118.5 1192.5,118.5 L1183,118.5 L1183,144.5 L1183,170.5 L1177,170.5 L1171,170.5 L1171,109.4 L1171,109.4 Z M1216.5,103.9 C1228.5,97.8 1233.1,83.6 1227,71.5 C1222.6,62.9 1216.8,60.6 1197.3,59.8 L1183,59.2 L1183,83.5 L1183,107.7 L1196.8,107.3 C1209.7,107 1210.8,106.8 1216.5,103.9 Z" id="Shape"></path>
                <path d="M1307,127 L1307,83.5 L1313,83.5 L1319,83.5 L1319,90 L1319,96.4 L1323.5,91.6 C1330.2,84.5 1336.3,82.1 1347.5,82.1 C1355.3,82.1 1357.2,82.5 1361.7,84.8 C1365.1,86.5 1368,89.1 1370,92 C1376.3,101.1 1376.4,101.9 1376.8,137.8 L1377.1,170.5 L1371.6,170.5 L1366,170.5 L1366,146.3 C1365.9,117 1365.1,109.3 1361.5,102 C1358,94.7 1353.3,92 1344,92.1 C1336.1,92.2 1330.8,94.6 1325.7,100.6 C1319.4,107.9 1319,110.4 1319,142.2 L1319,170.5 L1313,170.5 L1307,170.5 L1307,127 Z" id="Path"></path>
            </g>
        </g>
    </g>
</svg>