<?xml version="1.0" encoding="utf-8"?>
<!-- Generator: Adobe Illustrator 23.0.2, SVG Export Plug-In . SVG Version: 6.00 Build 0)  -->
<svg version="1.1" id="Layer_1" xmlns="http://www.w3.org/2000/svg" xmlns:xlink="http://www.w3.org/1999/xlink" x="0px" y="0px"
	 viewBox="0 0 1480 203.4" style="enable-background:new 0 0 1480 203.4;" xml:space="preserve">
<style type="text/css">
	.st0{fill:#FFFFFF;}
</style>
<g id="layer101">
	<path class="st0" d="M89.5,202.9c-3.6-0.7-12-2.4-14-2.8c-4.1-0.9-13.2-4.4-19.5-7.6c-18.2-9.2-34.2-24.6-43.9-42.4
		C5.1,137.2,0,117.2,0,102.2c0-8.1,2.6-26,4.2-29c0.6-1.2,1.1-2.3,1-2.4c-0.1-0.2-0.2-0.4-0.1-0.5c0-0.2,0.2-1.1,0.4-2.1
		C6,65.4,14.1,49.5,17.2,45c1.6-2.2,3.6-5.1,4.6-6.5c3-4.2,13.9-14.7,18.9-18.1c2.6-1.8,5-3.6,5.3-3.9c0.6-0.7,10-5.6,17-8.9
		C69.4,4.7,77.9,2.7,90.5,1c9.7-1.3,12.4-1.3,22,0c16.6,2.2,21,3.4,32.6,9c12.6,6,19.2,10.8,30,21.6l6.5,6.6l2.8-2
		c3.5-2.5,5-1.8,8.5,4.5c1.4,2.6,4,7.2,5.7,10.2c3.6,6.4,3.9,5.9-6.1,10.6c-3.8,1.8-11.9,5.6-18,8.5c-26.7,12.8-34.6,16.5-35.5,16.5
		c-0.6,0-1,0.5-1,1c0,0.6-0.4,1-0.9,1s-4.4,1.6-8.5,3.5c-4.2,1.9-8,3.5-8.6,3.5c-0.8,0-3,6.1-3,8.6c0,1.2-4.6,5.7-7.3,7.1
		c-0.9,0.5-4.3,0.6-7.4,0.3c-5-0.6-6.1-1.1-9-4.5c-2.7-3.1-3.3-4.7-3.3-8.4c0-5.1,2.5-10.1,6.2-12.5c2.9-1.9,11.6-2.3,14.5-0.8
		c2.2,1.2,5.3,0.7,5.3-0.9c0-0.5,0.7-0.9,1.5-0.9c0.8,0,1.5-0.4,1.5-0.8c0-0.5,1.7-1.8,3.8-3c7.1-4.1,6.9-3.8,3.2-7.1
		c-8.7-7.6-20-11.1-29.7-9.1c-11,2.2-23.5,11.5-26.5,19.6c-0.6,1.9-1.5,3.4-1.8,3.4c-0.4,0-1.3,3-2,6.8c-1.8,10,1,21.7,6.9,27.9
		c1.2,1.3,2.2,2.6,2.4,3c0.5,1.6,7.5,7.3,9.1,7.3c0.9,0,1.6,0.4,1.6,0.9c0,1.6,9.4,3.6,16.5,3.5c12.2-0.1,26.1-5.9,36.5-15.3
		c2.4-2.3,4.8-4.1,5.2-4.1c1.7,0-3.2,9-7.4,13.4c-1.5,1.7-2.8,3.3-2.8,3.8c0,0.4-0.5,0.8-1.2,0.8s-2.4,1.1-3.9,2.5
		c-1.4,1.5-5.9,3.9-10,5.5c-6.4,2.5-8.7,2.9-16.9,2.8c-9.6-0.1-12.7-0.8-21.4-4.8c-5.7-2.6-16.6-13.1-18.6-18
		c-0.8-1.9-1.7-3.7-2.1-4c-0.3-0.3-1.4-3.5-2.3-7.3c-5.4-21.5,4.7-42.8,24.9-52.8c6.3-3.1,7.9-3.4,17.3-3.7
		c6.5-0.3,12.2,0.1,15.1,0.9c6.9,1.9,14.6,6.4,19.3,11.3c2.7,2.8,2.9,2.9,4.8,1.1c1.1-1,2-1.5,2-1.1s0.7,0,1.7-0.9
		c0.9-0.9,3.3-2.7,5.4-4c2-1.4,4-2.8,4.3-3.3c0.5-0.9-7.2-8.5-12.4-12.2c-14-10-32.2-14.3-48.2-11.5c-9,1.5-12.5,2.8-21.6,7.5
		c-5.6,2.8-18.6,13.5-19.6,16c-0.6,1.6-4.6,7.4-6.8,10c-0.7,0.8-1.2,1.6-1,1.7c0.1,0.2-0.7,2.5-1.8,5.1c-4.6,10.2-6.2,25.3-3.9,36.4
		c1.2,6.1,4.6,15.7,6.1,17.5c0.6,0.7,0.7,1.3,0.2,1.3s-0.4,0.4,0.1,0.8c0.6,0.4,2.6,3.1,4.4,5.9c7.8,12.3,26,24.5,40.6,27.2
		c11.4,2.1,27.5,1,35.2-2.5c8.1-3.5,14.3-6.8,14.3-7.3c0-0.3,1.2-1.2,2.8-1.9c3.3-1.5,15.3-12.9,20.5-19.4
		c4.3-5.3,11.2-18.3,12.9-24.3c1.2-4,1.2-4,1.6-1c0.8,6.6-4.5,22.4-11.5,34c-1.9,3.1-18.3,20.2-18.3,19.1c0-0.4-1.5,0.4-3.3,1.8
		c-4.6,3.5-15.8,8.3-23.4,10.1c-7.5,1.8-26.3,2-33.1,0.4c-11.6-2.7-23.9-8.4-31.1-14.4C48,153.2,37,140.2,37,137.7
		c0-0.6-0.4-1.2-0.8-1.4c-1.3-0.5-5.2-10.4-7.4-18.7c-2.8-10.4-2.7-24.8,0.1-35.9c2.1-8.1,5.9-17.4,7.4-18c0.4-0.2,0.7-1.2,0.7-2.3
		c0-1,0.4-1.9,0.8-1.9c0.4,0,1.6-1.5,2.7-3.2c1-1.8,2.7-3.9,3.7-4.6c1-0.7,1.8-2,1.8-2.8s0.3-1.4,0.8-1.4c0.4,0,2.6-1.7,4.9-3.8
		c4.7-4.3,11.7-9.2,13.3-9.2c0.5,0,1-0.3,1-0.8c0-0.4,2.6-1.8,5.8-3c19.8-7.8,39.8-8,58.2-0.4c11.3,4.7,18.5,9.7,27.6,19.1
		c3.2,3.3,3.4,3.4,5.6,1.7c1.3-0.9,4-2.7,6.1-4.1c2-1.4,3.7-2.8,3.7-3.1c0-1-11.5-12.1-16.9-16.3c-21.8-16.9-54.7-22.5-82.1-14
		c-4.7,1.5-15.8,6.8-19.5,9.3c-1.6,1.2-3,1.9-3,1.6C51.3,23,35.8,37.2,30,44C16.2,60.2,7.2,88.1,9.5,107.5c0.4,3,0.9,7.3,1.1,9.5
		c0.8,6.5,4.2,16.5,8.5,25c6.5,12.7,6.7,12.9,10.9,17.5c2.2,2.4,4,4.5,4,4.8c0,0.6,3.7,4,9.6,8.7c2.7,2.2,5.2,4.5,5.6,5
		c0.4,0.6,0.8,0.6,0.8,0.2s1,0.1,2.2,1.3c1.2,1.1,2.6,2,3,2c0.5,0,2.6,1.1,4.8,2.5c2.2,1.4,4.8,2.7,5.7,2.9c1,0.1,3.2,0.9,4.8,1.6
		c13.5,5.6,36.2,7.1,51.1,3.3c4.5-1.2,9-2.5,10-3.1c1.1-0.5,2.4-1.1,2.9-1.1c1.8-0.2,5-1.4,5.5-2c0.3-0.3,3-1.8,6-3.4
		c17.6-8.8,38.3-30.2,46.4-47.9c5-11,8.6-23.2,8.6-29.8c0-1.9,0.5-4.2,1.1-5c1.4-2,0.3,15.1-1.6,24.5c-2,9.6-2.7,11.9-6.5,20
		c-17.3,36.7-53.8,59.9-93.4,59.4C95.6,203.3,90.6,203.1,89.5,202.9z"/>
	<path class="st0" d="M1268.5,170c-4.8-4.7-2.5-12.5,4.2-14.1c5.3-1.4,11.3,4.6,9.9,9.9C1281,172.5,1273.2,174.8,1268.5,170z"/>
	<path class="st0" d="M1424.5,171.2c-9.3-3.1-15.9-8.2-21.1-16.3c-11.7-18.3-8.5-49.3,6.5-62.6c15.5-13.7,42.8-14.1,57.5-0.8
		c4.7,4.4,9.1,12.1,11.1,19.5c1.9,7.3,2,24.2,0.1,31c-3.2,12-11.5,22.4-21.9,27.1c-5.4,2.5-7.6,2.9-17.2,3.1
		C1432.4,172.4,1427.1,172,1424.5,171.2z M1451.5,160c6.5-3,10.2-6.7,13-12.9c7.3-16.2,4.5-38.9-5.7-48.2c-6-5.4-10-6.8-19.8-6.8
		c-9.6,0-13.6,1.3-19.4,6.5c-5.3,4.6-8.4,9.8-10.1,17.1c-3.7,15.8,0.3,32.4,9.7,40.3C1427.9,163.4,1440.7,164.9,1451.5,160z"/>
	<path class="st0" d="M219.8,170.4c-1.7-0.9-1.8-4.9-1.8-60.3c0-57,0.1-59.4,1.9-61c1.7-1.6,4.2-1.7,24.8-1.4
		c21.2,0.3,23.2,0.5,28.7,2.7c12.9,5.1,19.7,15.3,19.7,29.3c0,6.7-0.4,8.9-2.9,14.2c-3.1,6.7-8.9,12.3-15.5,15.1l-3.6,1.5l4.4,4.1
		c2.4,2.3,5.6,6.2,7.1,8.8c3,5.3,18.4,42.8,18.4,44.7c0,0.7-0.9,1.8-1.9,2.4c-2.5,1.3-11.6,1.3-14.1,0c-1-0.5-3-4.2-4.5-8.2
		s-3.6-9.1-4.5-11.3c-1-2.2-2.7-6.6-3.9-9.8c-4.8-13-10.1-20.6-16.6-23.2c-2.1-0.9-6.8-1.5-12-1.5H235V143c0,25.1-0.1,26.5-1.9,27.5
		C230.6,171.8,222,171.8,219.8,170.4z M264.8,98.8c7.1-3.6,10.2-8.9,10.2-17.2c0-7.9-3.1-13.8-9-17.1c-4-2.2-5.8-2.5-17.7-2.8
		L235,61.3V82v20.8l12.1-0.6C257.9,101.7,259.9,101.4,264.8,98.8z"/>
	<path class="st0" d="M329,170.8c-0.8-0.3-2.3-1.2-3.2-2.1c-1.7-1.4-1.8-5.5-1.8-59.8c0-51.6,0.2-58.4,1.6-59.8
		c1.3-1.4,5.8-1.6,33.4-1.6c28.1,0,31.9,0.2,32.4,1.6c1,2.7,0.7,9.9-0.6,11.2c-0.9,0.9-7.9,1.2-25.5,1.2H341v19v19h21.4
		c18.6,0,21.5,0.2,22,1.6c1,2.7,0.7,9.9-0.6,11.2c-0.9,0.9-7.2,1.2-22,1.2H341V135v21.5h25c24.5,0,25,0,26.1,2.1
		c1.1,2.2,0.7,10.4-0.6,11.7C390.7,171.1,331.1,171.6,329,170.8z"/>
	<path class="st0" d="M420.8,170.4c-1.7-0.9-1.8-4.9-1.8-60.3c0-56.2,0.1-59.4,1.8-60.9c1.4-1.3,3.9-1.7,10.8-1.7
		c12.6,0,10.8-2.2,32,37.5c2.6,5,6.8,12.6,9.1,17c2.4,4.4,7.1,13.3,10.3,19.8c3.3,6.4,7.6,14.7,9.5,18.3l3.5,6.6V97.6V48.5l2.8-1.1
		c3.3-1.3,12.2-0.4,13.4,1.3c0.4,0.7,0.7,27.7,0.5,60c-0.2,68.3,0.8,62.3-11.2,62.3c-11.5,0-9.1,3.3-42.5-59
		c-6.2-11.5-13.9-26.2-17.1-32.5L436,68v50.7c0,49.1-0.1,50.8-1.9,51.8C431.6,171.8,423,171.8,420.8,170.4z"/>
	<path class="st0" d="M569.3,170.8c-1-0.4-1.3-12.3-1.3-54.9V61.5h-18.4c-15.8,0-18.5-0.2-19-1.6c-0.9-2.2-0.7-9.7,0.2-11.2
		c0.7-1,10.5-1.2,45.7-1l44.9,0.3l1,3.3c0.5,2,0.5,4.4,0,6.5l-1,3.2l-18.2,0.3L585,61.5v54c0,52.3-0.1,54-1.9,55
		C581.1,171.5,571.6,171.8,569.3,170.8z"/>
	<path class="st0" d="M645,170.8c-0.8-0.3-2.3-1.2-3.2-2.1c-1.7-1.4-1.8-5.5-1.8-59.8c0-51.6,0.2-58.4,1.6-59.8
		c1.3-1.4,5.8-1.6,33.4-1.6c35.2,0,33-0.4,33,6.6c0,7.6,0.8,7.4-26.5,7.4H657v19v19h20.4c11.2,0,21.1,0.3,22,0.6
		c2,0.8,2.3,10.3,0.4,12.2c-0.9,0.9-7.2,1.2-22,1.2H657V135v21.5h24.8c18,0,25.1,0.3,26,1.2c0.7,0.7,1.2,3.3,1.2,5.9
		c0,8,0.2,7.9-33.5,7.8C659.6,171.4,645.8,171.1,645,170.8z"/>
	<path class="st0" d="M734,109.5v-61h19.3c31.3,0,41.6,4,49.3,19.1c2.3,4.5,2.7,6.7,2.8,13.4c0,10.4-3.4,18.5-10.7,25.1
		c-2.7,2.4-5.3,4.4-5.7,4.4c-0.5,0-3,0.9-5.7,2.1l-4.8,2.1l2.6,1.3c4.4,2.4,10.5,11.8,24.9,39c2.9,5.5,5.9,10.9,6.7,12
		c0.7,1.1,1.3,2.3,1.3,2.7c0,0.5-3.1,0.8-6.8,0.8h-6.8l-10.8-20.4c-11.3-21.5-15.9-28-21.3-30.2c-2-0.9-7-1.4-12.8-1.4H746v26v26h-6
		h-6V109.5z M779.6,104.2c8.8-4.5,13.4-12,13.4-21.8c0-7.2-1.7-11.4-6.4-15.7c-5.7-5.2-9.1-6.1-26.3-6.9L746,59.2v24.3v24.3
		l14.3-0.5C773.2,106.9,775,106.6,779.6,104.2z"/>
	<path class="st0" d="M822.2,169.3c0.3-0.7,2.4-6,4.6-11.8c2.2-5.8,8.2-21.3,13.2-34.5s10.8-28.5,12.9-34c2.2-5.5,6.5-16.9,9.6-25.2
		l5.8-15.3h5.7h5.7l3.2,7.8c1.7,4.3,3.9,10.2,5,13.2c1.1,3,6.1,16.3,11.1,29.5c10.1,26.4,15.3,40.1,20.6,54.5
		c1.9,5.2,4.1,10.9,4.9,12.7c0.8,1.7,1.5,3.4,1.5,3.7c0,0.4-3,0.6-6.6,0.4l-6.7-0.3l-6.6-17.5l-6.6-17.5l-25.6-0.3l-25.5-0.2
		l-3.6,9.7c-2,5.4-4.9,13.4-6.5,17.8l-2.9,8l-6.8,0.3C823.3,170.5,821.9,170.3,822.2,169.3z M895,123.5c0-0.6-1.3-4.5-2.9-8.8
		c-1.6-4.2-5.2-14-8-21.7c-9.9-27.1-11-30-11-28.3c-0.1,1.6-3.1,10.2-17.1,49.1l-3.9,10.7h21.5C887.6,124.5,895,124.1,895,123.5z"/>
	<path class="st0" d="M944,109.6V48.5h18.5c41.9,0,60.6,7.5,70.9,28.7c4.1,8.2,5.5,14.3,6.2,26.3c1.1,18.2-3.8,35.2-13.5,46.5
		c-6,7-16.6,13.9-26.4,17.2c-7.9,2.6-9.2,2.8-31.9,3.1l-23.8,0.3V109.6z M991.5,158c9.1-2.4,16.5-6.3,22.1-12
		c9.3-9.3,13.4-20.7,13.4-37.5c0-21.6-7.1-35.2-22.2-42.7c-8.4-4.1-13.6-5.1-32.1-5.9L957,59.2v50.1v50.2h14.3
		C980.9,159.5,987.6,159,991.5,158z"/>
	<path class="st0" d="M1049,169.5c0-0.6,2-6.2,4.5-12.6c2.5-6.3,4.5-11.7,4.5-12s0.7-2,1.5-3.7c0.8-1.8,3-7.5,4.9-12.7
		c1.9-5.2,5.6-14.9,8.1-21.5c2.5-6.6,5.8-15.1,7.2-19c1.4-3.8,3.1-8.3,3.9-10c0.7-1.6,2.9-7.3,4.8-12.5c6.5-18,5.8-17,12.4-17h5.8
		l4.2,11.3c2.2,6.1,5.9,16.2,8.2,22.2c2.2,6.1,4.5,11.9,5,13c0.5,1.1,2.5,6.3,4.4,11.5c1.9,5.2,5.3,14.2,7.5,20
		c13.4,35.3,16.1,42.5,16.1,43.2c0,0.4-2.9,0.8-6.4,0.8h-6.4l-2.8-7.7c-1.5-4.3-3.5-9.6-4.4-11.8s-2.7-6.8-4-10.2l-2.2-6.3H1100
		h-25.7l-1.3,4.3c-0.6,2.3-3.5,10.4-6.3,18l-5,13.7h-6.4C1051.7,170.5,1049,170.1,1049,169.5z M1119.6,117.8
		c-3.1-9.3-10.5-29.3-11.7-31.8c-0.5-1.1-2.5-6.6-4.3-12.3l-3.3-10.3l-2.6,7.8c-1.4,4.3-6.2,17.7-10.6,29.8
		c-4.5,12.1-8.1,22.3-8.1,22.7c0,0.5,9.6,0.8,21.4,0.8h21.5L1119.6,117.8z"/>
	<path class="st0" d="M1171,109.4V48.3l21.3,0.4c18.5,0.4,22.1,0.7,27.9,2.6c8,2.7,15.7,9.2,19,16c3.1,6.6,3.1,21.6,0.1,28.2
		c-3.2,6.6-9.1,12.3-16.8,16l-6.8,3.2l3.2,2.5c4.4,3.5,9.3,11.1,20,31.3c5.1,9.6,9.7,17.9,10.2,18.5c0.5,0.5,0.9,1.5,0.9,2.2
		c0,1.1-1.6,1.3-6.7,1.1l-6.8-0.3l-11-20.8c-15.1-28.6-17.3-30.7-33-30.7h-9.5v26v26h-6h-6V109.4z M1216.5,103.9
		c12-6.1,16.6-20.3,10.5-32.4c-4.4-8.6-10.2-10.9-29.7-11.7l-14.3-0.6v24.3v24.2l13.8-0.4C1209.7,107,1210.8,106.8,1216.5,103.9z"/>
	<path class="st0" d="M1307,127V83.5h6h6V90v6.4l4.5-4.8c6.7-7.1,12.8-9.5,24-9.5c7.8,0,9.7,0.4,14.2,2.7c3.4,1.7,6.3,4.3,8.3,7.2
		c6.3,9.1,6.4,9.9,6.8,45.8l0.3,32.7h-5.5h-5.6v-24.2c-0.1-29.3-0.9-37-4.5-44.3c-3.5-7.3-8.2-10-17.5-9.9
		c-7.9,0.1-13.2,2.5-18.3,8.5c-6.3,7.3-6.7,9.8-6.7,41.6v28.3h-6h-6V127z"/>
</g>
</svg>
