<svg width="149" height="19" viewBox="0 0 149 19" fill="none" xmlns="http://www.w3.org/2000/svg">
<path d="M8.38792 18.9525C8.05053 18.8872 7.26328 18.7283 7.07585 18.691C6.69159 18.6069 5.83874 18.2799 5.24831 17.981C3.54261 17.1215 2.04309 15.6829 1.13401 14.02C0.477971 12.8149 0 10.9465 0 9.54517C0 8.78847 0.243671 7.11626 0.393623 6.836C0.449855 6.72389 0.496715 6.62113 0.487343 6.61179C0.477971 6.59311 0.468599 6.57442 0.477971 6.56508C0.477971 6.5464 0.496715 6.46232 0.515459 6.3689C0.562319 6.10732 1.32145 4.62195 1.61198 4.20156C1.76193 3.99603 1.94937 3.72512 2.04309 3.59433C2.32425 3.20197 3.3458 2.22106 3.8144 1.90343C4.05807 1.73527 4.283 1.56712 4.31111 1.53909C4.36734 1.4737 5.24831 1.01594 5.90435 0.707655C6.50415 0.436738 7.30077 0.249898 8.48164 0.0910843C9.39073 -0.0303615 9.64377 -0.0303615 10.5435 0.0910843C12.0992 0.296608 12.5116 0.408712 13.5987 0.931863C14.7796 1.49238 15.3982 1.9408 16.4103 2.94973L17.0195 3.5663L17.2819 3.37946C17.61 3.14591 17.7505 3.21131 18.0786 3.79985C18.2098 4.04274 18.4534 4.47247 18.6128 4.75273C18.9501 5.35062 18.9783 5.30391 18.0411 5.74298C17.6849 5.91114 16.9258 6.26614 16.3541 6.53705C13.8518 7.73283 13.1114 8.07848 13.0271 8.07848C12.9708 8.07848 12.9333 8.12519 12.9333 8.1719C12.9333 8.22795 12.8958 8.26532 12.849 8.26532C12.8021 8.26532 12.4366 8.41479 12.0524 8.59229C11.6587 8.76979 11.3026 8.91926 11.2464 8.91926C11.1714 8.91926 10.9652 9.48912 10.9652 9.72267C10.9652 9.83477 10.5341 10.2552 10.2811 10.386C10.1967 10.4327 9.87807 10.442 9.58754 10.414C9.11894 10.3579 9.01585 10.3112 8.74406 9.99359C8.49101 9.70399 8.43478 9.55451 8.43478 9.20886C8.43478 8.73242 8.66908 8.26532 9.01585 8.04111C9.28763 7.86362 10.103 7.82625 10.3748 7.96638C10.581 8.07848 10.8715 8.03177 10.8715 7.8823C10.8715 7.83559 10.9371 7.79822 11.0121 7.79822C11.0871 7.79822 11.1527 7.76085 11.1527 7.72348C11.1527 7.67677 11.312 7.55533 11.5088 7.44323C12.1742 7.0602 12.1555 7.08823 11.8087 6.77994C10.9933 6.06995 9.9343 5.74298 9.02522 5.92982C7.9943 6.13535 6.8228 7.00415 6.54164 7.76085C6.48541 7.93835 6.40106 8.07848 6.37295 8.07848C6.33546 8.07848 6.25111 8.35874 6.18551 8.71374C6.01681 9.64793 6.27923 10.7409 6.83217 11.3201C6.94464 11.4416 7.03836 11.563 7.0571 11.6004C7.10396 11.7499 7.76 12.2824 7.90995 12.2824C7.9943 12.2824 8.0599 12.3197 8.0599 12.3665C8.0599 12.5159 8.94087 12.7028 9.60628 12.6934C10.7497 12.6841 12.0524 12.1422 13.0271 11.2641C13.252 11.0492 13.4769 10.8811 13.5144 10.8811C13.6737 10.8811 13.2145 11.7219 12.8209 12.1329C12.6803 12.2917 12.5585 12.4412 12.5585 12.4879C12.5585 12.5253 12.5116 12.5626 12.446 12.5626C12.3804 12.5626 12.2211 12.6654 12.0805 12.7962C11.9493 12.9363 11.5275 13.1605 11.1433 13.31C10.5435 13.5435 10.3279 13.5809 9.55942 13.5716C8.65971 13.5622 8.36918 13.4968 7.55382 13.1232C7.01961 12.8803 5.99807 11.8994 5.81063 11.4416C5.73565 11.2641 5.6513 11.0959 5.61382 11.0679C5.5857 11.0399 5.48261 10.7409 5.39826 10.386C4.89217 8.37742 5.83874 6.38758 7.73188 5.45338C8.32232 5.16378 8.47227 5.13576 9.35324 5.10773C9.96241 5.0797 10.4966 5.11707 10.7684 5.19181C11.4151 5.36931 12.1367 5.78969 12.5772 6.24745C12.8302 6.50903 12.849 6.51837 13.0271 6.35021C13.1301 6.25679 13.2145 6.21008 13.2145 6.24745C13.2145 6.28482 13.2801 6.24745 13.3738 6.16337C13.4582 6.0793 13.6831 5.91114 13.8799 5.78969C14.0673 5.65891 14.2548 5.52812 14.2829 5.48141C14.3298 5.39733 13.6081 4.68734 13.1208 4.34169C11.8087 3.40749 10.103 3.00578 8.60348 3.26736C7.76 3.40749 7.43198 3.52893 6.57913 3.96801C6.0543 4.22958 4.83594 5.22918 4.74222 5.46273C4.68599 5.6122 4.31111 6.15403 4.10493 6.39692C4.03932 6.47166 3.99246 6.54639 4.01121 6.55574C4.02058 6.57442 3.9456 6.78929 3.84251 7.03218C3.4114 7.98506 3.26145 9.3957 3.477 10.4327C3.58947 11.0025 3.90812 11.8994 4.0487 12.0675C4.10493 12.1329 4.1143 12.189 4.06744 12.189C4.02058 12.189 4.02995 12.2263 4.07681 12.2637C4.13304 12.3011 4.32048 12.5533 4.48918 12.8149C5.22019 13.9639 6.92589 15.1037 8.2942 15.3559C9.36261 15.5521 10.8715 15.4493 11.5931 15.1223C12.3523 14.7954 12.9333 14.4871 12.9333 14.4404C12.9333 14.4123 13.0458 14.3283 13.1957 14.2629C13.505 14.1227 14.6297 13.0578 15.117 12.4505C15.52 11.9554 16.1667 10.7409 16.326 10.1804C16.4385 9.80675 16.4385 9.80675 16.4759 10.087C16.5509 10.7036 16.0542 12.1796 15.3982 13.2633C15.2201 13.5529 13.6831 15.1504 13.6831 15.0476C13.6831 15.0102 13.5425 15.085 13.3738 15.2158C12.9427 15.5427 11.893 15.9911 11.1808 16.1593C10.4779 16.3275 8.71594 16.3461 8.07865 16.1967C6.9915 15.9444 5.83874 15.4119 5.16396 14.8514C4.49855 14.3096 3.46763 13.0951 3.46763 12.8616C3.46763 12.8055 3.43015 12.7495 3.39266 12.7308C3.27082 12.6841 2.90531 11.7592 2.69913 10.9838C2.43671 10.0123 2.44609 8.66703 2.7085 7.63007C2.90531 6.87336 3.26145 6.00456 3.40203 5.94851C3.43952 5.92982 3.46763 5.8364 3.46763 5.73364C3.46763 5.64022 3.50512 5.55614 3.54261 5.55614C3.5801 5.55614 3.69256 5.41602 3.79565 5.2572C3.88937 5.08905 4.0487 4.89286 4.14242 4.82747C4.23614 4.76208 4.31111 4.64063 4.31111 4.56589C4.31111 4.49116 4.33923 4.43511 4.38609 4.43511C4.42357 4.43511 4.62976 4.27629 4.84531 4.08011C5.2858 3.67841 5.94184 3.22065 6.09179 3.22065C6.13865 3.22065 6.18551 3.19262 6.18551 3.14591C6.18551 3.10855 6.42918 2.97776 6.72908 2.86565C8.58473 2.13698 10.4591 2.11829 12.1836 2.82829C13.2426 3.26736 13.9174 3.73446 14.7702 4.6126C15.0701 4.92089 15.0889 4.93023 15.2951 4.77142C15.4169 4.68734 15.67 4.51918 15.8668 4.3884C16.0542 4.25761 16.2135 4.12682 16.2135 4.0988C16.2135 4.00538 15.1357 2.96842 14.6297 2.57605C12.5866 0.997257 9.50319 0.474106 6.93527 1.26817C6.49478 1.4083 5.45449 1.90343 5.10773 2.13698C4.95778 2.24908 4.82657 2.31448 4.82657 2.28645C4.80783 2.14632 3.35517 3.47288 2.81159 4.10814C1.51826 5.62154 0.674783 8.22795 0.890338 10.0403C0.927826 10.3206 0.974686 10.7223 0.99343 10.9278C1.06841 11.535 1.38705 12.4692 1.79005 13.2633C2.39923 14.4497 2.41797 14.4684 2.81159 14.8981C3.01778 15.1223 3.18647 15.3185 3.18647 15.3465C3.18647 15.4026 3.53324 15.7202 4.08618 16.1593C4.33923 16.3648 4.57353 16.5797 4.61101 16.6264C4.6485 16.6824 4.68599 16.6824 4.68599 16.6451C4.68599 16.6077 4.77971 16.6544 4.89217 16.7665C5.00464 16.8693 5.13585 16.9534 5.17333 16.9534C5.22019 16.9534 5.41701 17.0561 5.62319 17.1869C5.82937 17.3177 6.07304 17.4391 6.15739 17.4578C6.25111 17.4672 6.45729 17.5419 6.60725 17.6073C7.87246 18.1305 9.9999 18.2706 11.3963 17.9156C11.8181 17.8035 12.2398 17.682 12.3335 17.626C12.4366 17.5793 12.5585 17.5232 12.6053 17.5232C12.774 17.5045 13.0739 17.3924 13.1208 17.3364C13.1489 17.3084 13.4019 17.1682 13.6831 17.0188C15.3326 16.1967 17.2726 14.1975 18.0317 12.5439C18.5003 11.5163 18.8377 10.3766 18.8377 9.76004C18.8377 9.58254 18.8845 9.36767 18.9408 9.29294C19.072 9.1061 18.9689 10.7036 18.7908 11.5817C18.6034 12.4786 18.5378 12.6934 18.1816 13.4501C16.5603 16.8786 13.1395 19.046 9.42821 18.9993C8.95961 18.9899 8.49101 18.9712 8.38792 18.9525Z" fill="white"/>
<path d="M29.712 9C30.1387 9 30.512 8.94933 30.832 8.848C31.152 8.74133 31.4187 8.59467 31.632 8.408C31.8453 8.22133 32.0053 8 32.112 7.744C32.2187 7.48267 32.272 7.19467 32.272 6.88C32.272 6.25067 32.064 5.77067 31.648 5.44C31.232 5.10933 30.6027 4.944 29.76 4.944H28.24V9H29.712ZM35.136 15H33.464C33.1333 15 32.8933 14.872 32.744 14.616L30.056 10.736C29.9653 10.6027 29.8667 10.5067 29.76 10.448C29.6533 10.3893 29.4933 10.36 29.28 10.36H28.24V15H26.368V3.48H29.76C30.5173 3.48 31.168 3.55733 31.712 3.712C32.2613 3.86667 32.712 4.088 33.064 4.376C33.416 4.65867 33.6747 5 33.84 5.4C34.0107 5.8 34.096 6.24533 34.096 6.736C34.096 7.136 34.0347 7.50933 33.912 7.856C33.7947 8.20267 33.6213 8.51733 33.392 8.8C33.168 9.08267 32.8907 9.328 32.56 9.536C32.2293 9.744 31.8533 9.90667 31.432 10.024C31.6613 10.1627 31.8587 10.3573 32.024 10.608L35.136 15ZM42.6203 10.68L41.0363 6.472C40.9083 6.14667 40.7776 5.73333 40.6443 5.232C40.5856 5.48267 40.5216 5.71467 40.4523 5.928C40.3829 6.136 40.3189 6.32 40.2603 6.48L38.6763 10.68H42.6203ZM46.1643 15H44.7163C44.5509 15 44.4176 14.96 44.3163 14.88C44.2149 14.7947 44.1376 14.6907 44.0843 14.568L43.1243 12.024H38.1643L37.2043 14.568C37.1616 14.6747 37.0869 14.7733 36.9803 14.864C36.8736 14.9547 36.7403 15 36.5803 15H35.1322L39.7003 3.48H41.5963L46.1643 15ZM39.9083 1.664C39.9083 1.79733 39.8816 1.92267 39.8283 2.04C39.7749 2.15733 39.7029 2.26133 39.6123 2.352C39.5216 2.43733 39.4149 2.50667 39.2923 2.56C39.1696 2.608 39.0416 2.632 38.9083 2.632C38.7803 2.632 38.6576 2.608 38.5403 2.56C38.4229 2.50667 38.3189 2.43733 38.2283 2.352C38.1429 2.26133 38.0736 2.15733 38.0203 2.04C37.9723 1.92267 37.9483 1.79733 37.9483 1.664C37.9483 1.53067 37.9723 1.40533 38.0203 1.288C38.0736 1.16533 38.1429 1.05867 38.2283 0.967999C38.3189 0.877333 38.4229 0.805333 38.5403 0.751999C38.6576 0.698666 38.7803 0.671999 38.9083 0.671999C39.0416 0.671999 39.1696 0.698666 39.2923 0.751999C39.4149 0.805333 39.5216 0.877333 39.6123 0.967999C39.7029 1.05867 39.7749 1.16533 39.8283 1.288C39.8816 1.40533 39.9083 1.53067 39.9083 1.664ZM43.3403 1.664C43.3403 1.79733 43.3136 1.92267 43.2603 2.04C43.2069 2.15733 43.1349 2.26133 43.0443 2.352C42.9589 2.43733 42.8576 2.50667 42.7403 2.56C42.6229 2.608 42.4976 2.632 42.3643 2.632C42.2256 2.632 42.0976 2.608 41.9803 2.56C41.8629 2.50667 41.7589 2.43733 41.6683 2.352C41.5776 2.26133 41.5056 2.15733 41.4523 2.04C41.4043 1.92267 41.3803 1.79733 41.3803 1.664C41.3803 1.53067 41.4043 1.40533 41.4523 1.288C41.5056 1.16533 41.5776 1.05867 41.6683 0.967999C41.7589 0.877333 41.8629 0.805333 41.9803 0.751999C42.0976 0.698666 42.2256 0.671999 42.3643 0.671999C42.4976 0.671999 42.6229 0.698666 42.7403 0.751999C42.8576 0.805333 42.9589 0.877333 43.0443 0.967999C43.1349 1.05867 43.2069 1.16533 43.2603 1.288C43.3136 1.40533 43.3403 1.53067 43.3403 1.664ZM57.0446 3.48V15H56.0926C55.9486 15 55.826 14.976 55.7246 14.928C55.6233 14.8747 55.5273 14.7893 55.4366 14.672L49.1086 6.544C49.1246 6.69867 49.1353 6.85333 49.1406 7.008C49.1513 7.15733 49.1566 7.296 49.1566 7.424V15H47.5086V3.48H48.4846C48.5646 3.48 48.6313 3.48533 48.6846 3.496C48.7433 3.50133 48.7966 3.51467 48.8446 3.536C48.8926 3.55733 48.938 3.58933 48.9806 3.632C49.0233 3.67467 49.0686 3.728 49.1166 3.792L55.4526 11.928C55.4366 11.7627 55.4233 11.6 55.4126 11.44C55.4073 11.28 55.4046 11.1307 55.4046 10.992V3.48H57.0446ZM67.7179 5.04H64.1259V15H62.2619V5.04H58.6619V3.48H67.7179V5.04ZM76.5131 13.488L76.5051 15H69.3211V3.48H76.5051V4.992H71.2011V8.464H75.4411V9.928H71.2011V13.488H76.5131ZM81.6279 9.272C82.1292 9.272 82.5772 9.21333 82.9719 9.096C83.3719 8.97333 83.7079 8.8 83.9799 8.576C84.2572 8.352 84.4679 8.08267 84.6119 7.768C84.7559 7.45333 84.8279 7.09867 84.8279 6.704C84.8279 5.89867 84.5639 5.30133 84.0359 4.912C83.5132 4.52267 82.7479 4.328 81.7399 4.328H79.6679V9.272H81.6279ZM86.6519 15H85.9479C85.8572 15 85.7799 14.9867 85.7159 14.96C85.6572 14.928 85.6012 14.872 85.5479 14.792L81.9159 10.2C81.8732 10.1413 81.8279 10.0907 81.7799 10.048C81.7372 10.0053 81.6865 9.97333 81.6279 9.952C81.5745 9.92533 81.5079 9.90667 81.4279 9.896C81.3532 9.88533 81.2599 9.88 81.1479 9.88H79.6679V15H78.8439V3.68H81.7399C83.0412 3.68 84.0145 3.93333 84.6599 4.44C85.3105 4.94133 85.6359 5.68 85.6359 6.656C85.6359 7.088 85.5612 7.48267 85.4119 7.84C85.2625 8.19733 85.0465 8.512 84.7639 8.784C84.4865 9.05067 84.1479 9.26933 83.7479 9.44C83.3532 9.61067 82.9079 9.72533 82.4119 9.784C82.5399 9.864 82.6545 9.97067 82.7559 10.104L86.6519 15ZM94.6666 10.888L92.3626 5.168C92.2826 4.98133 92.2053 4.75733 92.1306 4.496C92.0986 4.624 92.064 4.74667 92.0266 4.864C91.9893 4.976 91.9493 5.08 91.9066 5.176L89.6026 10.888H94.6666ZM97.1706 15H96.5386C96.464 15 96.4026 14.9813 96.3546 14.944C96.3066 14.9013 96.2693 14.848 96.2426 14.784L94.9146 11.496H89.3546L88.0266 14.784C88.0053 14.8427 87.968 14.8933 87.9146 14.936C87.8613 14.9787 87.7973 15 87.7226 15H87.0986L91.7306 3.68H92.5386L97.1706 15ZM108.583 9.336C108.583 10.2107 108.452 10.9973 108.191 11.696C107.93 12.3947 107.562 12.9893 107.087 13.48C106.612 13.9707 106.042 14.3467 105.375 14.608C104.714 14.8693 103.983 15 103.183 15H99.047V3.68H103.183C103.983 3.68 104.714 3.81067 105.375 4.072C106.042 4.33333 106.612 4.70933 107.087 5.2C107.562 5.69067 107.93 6.28533 108.191 6.984C108.452 7.68267 108.583 8.46667 108.583 9.336ZM107.735 9.336C107.735 8.54667 107.626 7.84267 107.407 7.224C107.188 6.60533 106.879 6.08267 106.479 5.656C106.079 5.22933 105.599 4.904 105.039 4.68C104.479 4.456 103.86 4.344 103.183 4.344H99.871V14.336H103.183C103.86 14.336 104.479 14.224 105.039 14C105.599 13.776 106.079 13.4507 106.479 13.024C106.879 12.5973 107.188 12.0747 107.407 11.456C107.626 10.8373 107.735 10.1307 107.735 9.336ZM117.057 10.888L114.753 5.168C114.673 4.98133 114.596 4.75733 114.521 4.496C114.489 4.624 114.455 4.74667 114.417 4.864C114.38 4.976 114.34 5.08 114.297 5.176L111.993 10.888H117.057ZM119.561 15H118.929C118.855 15 118.793 14.9813 118.745 14.944C118.697 14.9013 118.66 14.848 118.633 14.784L117.305 11.496H111.745L110.417 14.784C110.396 14.8427 110.359 14.8933 110.305 14.936C110.252 14.9787 110.188 15 110.113 15H109.489L114.121 3.68H114.929L119.561 15ZM124.222 9.272C124.723 9.272 125.171 9.21333 125.566 9.096C125.966 8.97333 126.302 8.8 126.574 8.576C126.851 8.352 127.062 8.08267 127.206 7.768C127.35 7.45333 127.422 7.09867 127.422 6.704C127.422 5.89867 127.158 5.30133 126.63 4.912C126.107 4.52267 125.342 4.328 124.334 4.328H122.262V9.272H124.222ZM129.246 15H128.542C128.451 15 128.374 14.9867 128.31 14.96C128.251 14.928 128.195 14.872 128.142 14.792L124.51 10.2C124.467 10.1413 124.422 10.0907 124.374 10.048C124.331 10.0053 124.28 9.97333 124.222 9.952C124.168 9.92533 124.102 9.90667 124.022 9.896C123.947 9.88533 123.854 9.88 123.742 9.88H122.262V15H121.438V3.68H124.334C125.635 3.68 126.608 3.93333 127.254 4.44C127.904 4.94133 128.23 5.68 128.23 6.656C128.23 7.088 128.155 7.48267 128.006 7.84C127.856 8.19733 127.64 8.512 127.358 8.784C127.08 9.05067 126.742 9.26933 126.342 9.44C125.947 9.61067 125.502 9.72533 125.006 9.784C125.134 9.864 125.248 9.97067 125.35 10.104L129.246 15ZM130.612 14.384C130.612 14.2827 130.631 14.1867 130.668 14.096C130.706 14.0053 130.756 13.928 130.82 13.864C130.89 13.7947 130.967 13.7413 131.052 13.704C131.143 13.6613 131.242 13.64 131.348 13.64C131.45 13.64 131.546 13.6613 131.636 13.704C131.727 13.7413 131.804 13.7947 131.868 13.864C131.938 13.928 131.991 14.0053 132.028 14.096C132.071 14.1867 132.092 14.2827 132.092 14.384C132.092 14.4907 132.071 14.5893 132.028 14.68C131.991 14.7653 131.938 14.8427 131.868 14.912C131.804 14.976 131.727 15.0267 131.636 15.064C131.546 15.1013 131.45 15.12 131.348 15.12C131.14 15.12 130.964 15.0507 130.82 14.912C130.682 14.768 130.612 14.592 130.612 14.384ZM138.907 8.024C138.864 8.09867 138.803 8.136 138.723 8.136C138.664 8.136 138.589 8.104 138.499 8.04C138.408 7.97067 138.285 7.896 138.131 7.816C137.981 7.73067 137.795 7.656 137.571 7.592C137.347 7.52267 137.075 7.488 136.755 7.488C136.467 7.488 136.203 7.53067 135.963 7.616C135.728 7.696 135.525 7.80533 135.355 7.944C135.189 8.08267 135.061 8.24533 134.971 8.432C134.88 8.61333 134.835 8.80533 134.835 9.008C134.835 9.25867 134.899 9.46667 135.027 9.632C135.155 9.79733 135.32 9.93867 135.523 10.056C135.731 10.1733 135.968 10.2747 136.235 10.36C136.501 10.4453 136.771 10.5307 137.043 10.616C137.32 10.7013 137.592 10.7973 137.859 10.904C138.125 11.0053 138.36 11.1333 138.563 11.288C138.771 11.4427 138.939 11.632 139.067 11.856C139.195 12.08 139.259 12.352 139.259 12.672C139.259 13.0187 139.197 13.3413 139.075 13.64C138.952 13.9387 138.771 14.1973 138.531 14.416C138.296 14.6347 138.005 14.808 137.659 14.936C137.312 15.064 136.915 15.128 136.467 15.128C135.907 15.128 135.424 15.04 135.019 14.864C134.613 14.6827 134.251 14.448 133.931 14.16L134.107 13.888C134.133 13.8453 134.163 13.8133 134.195 13.792C134.232 13.7707 134.28 13.76 134.339 13.76C134.408 13.76 134.491 13.8027 134.587 13.888C134.688 13.9733 134.821 14.0667 134.987 14.168C135.152 14.264 135.355 14.3547 135.595 14.44C135.84 14.5253 136.141 14.568 136.499 14.568C136.835 14.568 137.131 14.5227 137.387 14.432C137.643 14.336 137.856 14.208 138.027 14.048C138.197 13.888 138.325 13.7013 138.411 13.488C138.501 13.2693 138.547 13.04 138.547 12.8C138.547 12.5333 138.483 12.312 138.355 12.136C138.227 11.96 138.059 11.8107 137.851 11.688C137.643 11.5653 137.405 11.4613 137.139 11.376C136.877 11.2907 136.608 11.2053 136.331 11.12C136.053 11.0347 135.781 10.9413 135.515 10.84C135.253 10.7387 135.019 10.6107 134.811 10.456C134.603 10.3013 134.435 10.1147 134.307 9.896C134.179 9.672 134.115 9.39467 134.115 9.064C134.115 8.78133 134.176 8.50933 134.299 8.248C134.421 7.98667 134.595 7.75733 134.819 7.56C135.048 7.36267 135.325 7.20533 135.651 7.088C135.976 6.97067 136.341 6.912 136.747 6.912C137.232 6.912 137.661 6.98133 138.035 7.12C138.413 7.25867 138.757 7.472 139.067 7.76L138.907 8.024ZM146.912 10.216C146.912 9.78933 146.85 9.408 146.728 9.072C146.61 8.73067 146.442 8.44267 146.224 8.208C146.005 7.97333 145.744 7.79467 145.44 7.672C145.141 7.544 144.81 7.48 144.448 7.48C144.037 7.48 143.669 7.544 143.344 7.672C143.018 7.8 142.736 7.984 142.496 8.224C142.261 8.464 142.072 8.752 141.928 9.088C141.784 9.424 141.688 9.8 141.64 10.216H146.912ZM141.6 10.704V10.856C141.6 11.4533 141.669 11.9787 141.808 12.432C141.946 12.8853 142.144 13.2667 142.4 13.576C142.656 13.88 142.965 14.1093 143.328 14.264C143.69 14.4187 144.096 14.496 144.544 14.496C144.944 14.496 145.29 14.4533 145.584 14.368C145.877 14.2773 146.122 14.1787 146.32 14.072C146.522 13.96 146.682 13.8613 146.8 13.776C146.917 13.6853 147.002 13.64 147.056 13.64C147.125 13.64 147.178 13.6667 147.216 13.72L147.424 13.976C147.296 14.136 147.125 14.2853 146.912 14.424C146.704 14.5627 146.469 14.6827 146.208 14.784C145.952 14.88 145.674 14.9573 145.376 15.016C145.082 15.0747 144.786 15.104 144.488 15.104C143.944 15.104 143.448 15.0107 143 14.824C142.552 14.632 142.168 14.3547 141.848 13.992C141.528 13.6293 141.28 13.1867 141.104 12.664C140.933 12.136 140.848 11.5333 140.848 10.856C140.848 10.2853 140.928 9.76 141.088 9.28C141.253 8.79467 141.488 8.37867 141.792 8.032C142.101 7.68 142.477 7.40533 142.92 7.208C143.368 7.01067 143.874 6.912 144.44 6.912C144.888 6.912 145.304 6.98933 145.688 7.144C146.072 7.29867 146.405 7.52533 146.688 7.824C146.97 8.11733 147.192 8.48 147.352 8.912C147.517 9.344 147.6 9.84 147.6 10.4C147.6 10.5173 147.584 10.5973 147.552 10.64C147.52 10.6827 147.466 10.704 147.392 10.704H141.6Z" fill="white"/>
</svg>
