<svg height="15" viewBox="0 0 62 15" width="62" xmlns="http://www.w3.org/2000/svg"><g fill="#b92229"><path d="m4.12089716 3.23144796c.27516655-.2224532.61899083-.34240614.97273523-.33936651.34751005-.00023102.6905424.07844096 1.00326039.2300905.32347631.15583791.61053452.37807945.84249453.65226244l1.66463895-2.35723982c-.4346176-.45280628-.9613504-.80694405-1.54457331-1.03846154-.61547775-.25248869-1.31077315-.37873303-2.08588621-.37873303-.52878168.00126603-1.05377498.0893128-1.55407002.26063348-.51551108.17434203-.99235884.44701848-1.40415755.80294118-.43847541.38479972-.78759918.86083966-1.02293217 1.39479638-.26093362.56877828-.39140043 1.24751131-.39140043 2.0361991 0 .58823529.0734865 1.09660633.22045951 1.52511312.13550065.40782352.34220146.78837507.61050329 1.1239819.25750305.31820525.56168096.59555779.90218818.82262443.34940413.23236672.71455409.4401089 1.09280087.62171946.61502553.30769231 1.08307805.59864253 1.40415755.87285068.32107951.27420814.48161926.64547507.48161926 1.11380087 0 .4547512-.13363239.8092761-.40089716 1.0635747-.26384873.2529629-.61759613.3902452-.98291028.381448-.42386006-.0026921-.84149763-.1022872-1.22100656-.2911765-.39784947-.1914244-.75793139-.4530788-1.06295405-.7723982l-1.64496718 2.4081448c.42780452.4285068.99308534.8031674 1.69584245 1.1239819.73465487.3280478 1.53176984.4924735 2.33619256.4819004.56807994.0005243 1.13188516-.0982452 1.66599562-.2918552.52867625-.1882821 1.01339853-.4825186 1.42450766-.8647058.42614332-.4061765.7593741-.8998313.97680525-1.4470589.24239242-.5828054.36358863-1.2561086.36358863-2.0199095 0-.61628956-.09745442-1.14909499-.29236324-1.59841625-.17925729-.42317429-.42827961-.81321583-.73667396-1.15384616-.2878927-.31488085-.61744909-.58891033-.9795186-.81447964-.35680525-.22126696-.69597374-.41221719-1.01750547-.57285068-.57477754-.29457013-1.00936543-.56606334-1.30376368-.81447963s-.4420496-.59366516-.44295405-1.03574661c0-.52217195.14358133-.89728507.43074399-1.12533937z"/><path d="m16.3241794 5.75904977h-3.3089278v-5.37760181h-3.18818377v14.20656104h3.18818377v-5.93959271h3.3089278v5.93959271h3.1888622v-14.20656104h-3.1888622z"/><path d="m21.478184.381448h3.228884v14.20724h-3.228884z"/><path d="m26.3513567 3.27081448h3.6901531v2.90972851h-3.3896498v2.74886877h3.3692997v5.65859724h3.2492342v-14.20656104h-6.9190372z"/><path d="m34.6135011 3.11063348h2.6075273v11.47737552h3.148162v-11.47737552h2.6075273v-2.72918552h-8.3632166z"/><path d="m47.2882276 8.64841629h3.4893654v-2.64841629h-3.4893654v-2.78959276h3.7898687v-2.82895928h-6.8586652v14.20656104h7.0994748v-2.8893665h-4.0306783z"/><path d="m59.52814 8.24728507c.2530984-.09534792.4892326-.23078612.6993655-.40113122.2544267-.20270306.473949-.44574012.6498468-.71945702.2085848-.32912801.3668044-.68761767.4694092-1.06357466.1252359-.4585205.1852935-.93240727.1784026-1.40769231 0-1.41764705-.3800948-2.48461538-1.1402845-3.20090497-.7601896-.7162896-1.8272137-1.0739819-3.2010722-1.07307693h-4.5448577v14.20656104h3.0884682v-5.65859724h.9394968l1.8993435 5.65859724h3.3787965zm-1.6612472-2.01651584c-.331912.28449812-.7561931.43799462-1.1931948.43167421h-.9428884v-3.59253394h1.0025821c.1926235-.00006519.3845756.02271822.5718381.06787331.1956333.04821755.377436.14114672.5311378.27149321.1708694.14809864.3048825.33401377.3914005.54298642.1003938.22624435.1505908.52036199.1505908.88235294 0 .64298643-.1704887 1.10837105-.5114661 1.39615385z"/></g></svg>