<svg height="25" viewBox="0 0 49 25" width="49" xmlns="http://www.w3.org/2000/svg"><path d="m28.7905844.02435065v16.42045455l-8.474026-10.79545455c-.0730519-.10551948-.1948052-.16233766-.3165584-.16233766l-.1866883.0487013c-.1298701.07305194-.2029221.21103896-.2029221.36525974v19.03409087h1.2743507v-16.46915581l8.4740259 10.79545451c.073052.0974026.1948052.1623377.3165585.1623377l.1866883-.0487013c.1298701-.0730519.2029221-.211039.2029221-.3652597v-18.98538965h18.7012987v24.91071425h-48.70129874v-24.91071425zm13.7581169 17.10227275c.2516234-.5438312.3814935-1.185065.3814935-1.8993507 0-1.0876623-.4626623-2.0616883-1.2987013-2.7516233-.2191558-.1785715-.4545454-.3327923-.7224026-.4707793l-.0730519-.0324675.0568181-.0487013c.4951299-.4383117 1.0876624-1.25 1.0876624-2.66233766 0-1.29058442-.4464286-2.26461039-1.323052-2.88149351-.7467532-.5275974-1.7694805-.77922078-3.1412337-.77922078h-3.9448052c-.2272728 0-.4139611.18668831-.4139611.41396104v12.92207791c0 .2272727.1866883.4139611.4139611.4139611h4.5048701c1.4204545 0 2.5568182-.3003247 3.3766234-.9009741.4788961-.3490259.8441558-.7954545 1.0957792-1.3230519zm-4.4318182.9496753h-3.6363636v-5.3084416h4.1477273c1.8100649 0 3.0681818 1.0146104 3.0681818 2.4675325 0 .7061688 0 2.8409091-3.5795455 2.8409091zm-3.6363636-11.2012987h3.0925324c1.0876624 0 1.8993507.18668831 2.4188312.54383117.3327922.23538961.7792208.68993506.7792208 1.84253247 0 2.06980516-1.6314935 2.23214286-2.1266234 2.23214286h-4.163961zm-19.025974 10.4301948c1.3230519-1.6152597 1.5178571-3.6688312 1.5178571-4.7483766 0-.9172078-.1461039-3.2305195-1.5178571-4.9107143-.5844156-.71428572-1.3149351-1.25-2.1753247-1.59902598-.7386364-.30032467-1.5503247-.44642857-2.4188312-.44642857h-3.74188311c-.22727272 0-.42207792.18668831-.42207792.41396104v12.92207791c0 .2272727.18668831.4139611.41396104.4139611h3.74188309c.8685065 0 1.6801948-.1542208 2.4188312-.4464286.8685065-.349026 1.6071429-.8847403 2.1834416-1.599026zm-4.5454546.7711039h-2.87337661v-11.2012987h2.88149351c1.0551948 0 2.5405844.27597403 3.6038961 1.57467532 1.1444805 1.40422078 1.2337662 3.49837658 1.2337662 4.10714288 0 .9090909-.1623376 2.6298701-1.2337662 3.9448052-1.0714286 1.2987013-2.5487013 1.5746753-3.612013 1.5746753z" fill="#fff"/></svg>