<svg width="226" height="82" xmlns="http://www.w3.org/2000/svg"><g fill="none" fill-rule="evenodd"><path d="M117.398 20.35c.003 1.19.797 1.422 1.673.587l8.774-8.312a2.143 2.143 0 0 0 .05-3.073l-8.958-9.04c-.85-.858-1.544-.584-1.538.606V20.35" fill="#185F33"/><path d="M109.662 20.35c-.003 1.19-.795 1.422-1.67.587l-8.775-8.312a2.144 2.144 0 0 1-.05-3.073l8.96-9.04c.85-.858 1.542-.584 1.538.606l-.003 19.232" fill="#71B643"/><path d="M117.565 33.183c.01-.898.55-2.147 1.21-2.774l13.88-12.493a1.678 1.678 0 0 1 2.348.04l1.357 1.267c.634.652.564 1.78-.076 2.424L124.047 32.95c-.64.647-1.168 1.688-1.174 2.583l-.03 4.165c-.005.897.746 1.635 1.667 1.64l14.953-.003c.922.004 1.817.287 2.775 1.31l2.847 3.21c.606.677.34 1.234-.583 1.234h-21.3c-.922 0-2.424-.114-3.336-.253 0 0-2.5-.39-2.315-3.87l.015-9.784m-8.198.001c-.01-.898-.55-2.147-1.21-2.774L94.276 17.916a1.677 1.677 0 0 0-2.347.04l-1.356 1.267c-.636.652-.564 1.78.075 2.424l12.235 11.303c.644.647 1.17 1.688 1.175 2.583l.028 4.165c.005.897-.744 1.635-1.667 1.64l-14.95-.003c-.924.004-1.82.287-2.777 1.31l-2.846 3.21c-.605.677-.34 1.234.584 1.234h21.298c.924 0 2.425-.114 3.34-.253 0 0 2.496-.39 2.314-3.87l-.014-9.784" fill="#185F33"/><path d="M125.675 72.79c1.12-.13 1.926.277 2.433 1.23.715 1.344 1.374 2.717 2.115 4.046 1.442 2.582 3.228 3.343 6.366 3.045.16-.014.303-.21.455-.32-.156-.13-.3-.353-.47-.373-.9-.11-1.55-.585-2.044-1.307-.265-.39-.513-.793-.74-1.205-1.037-1.89-2.064-3.783-3.106-5.697.12-.048.295-.123.473-.186 1.795-.637 2.902-2.19 2.935-4.12.033-1.983-.938-3.582-2.79-4.178-1.036-.333-2.18-.43-3.28-.448-2.144-.037-4.29.057-6.435.095-.29.006-.583.002-.875.002.013.572.013.572.448.626 1.012.13 1.326.44 1.456 1.464.032.254.045.513.046.77.002 3.97.002 7.942 0 11.914 0 .256-.01.515-.04.77-.128 1.024-.44 1.352-1.456 1.454-.427.042-.58.185-.425.6h7.164c.173-.576-.052-.712-.56-.746-1.145-.08-1.63-.534-1.656-1.64-.046-1.908-.013-3.817-.013-5.794zm36.09-1.05c.614-.218 1.114-.35 1.576-.566 2.65-1.23 3.192-4.41 1.108-6.458-1.03-1.01-2.33-1.338-3.712-1.354-2.424-.03-4.85-.008-7.274-.008h-.924c-.157.484.025.604.445.638.966.077 1.33.448 1.444 1.396.038.32.056.642.057.963.003 3.885.004 7.77 0 11.654a8.077 8.077 0 0 1-.083 1.153c-.094.638-.46 1.05-1.112 1.164-.25.045-.502.064-.764.096v.56c2.916 0 5.79.037 8.662-.022.82-.018 1.66-.236 2.444-.5 1.406-.473 2.397-1.42 2.73-2.914.555-2.504-.636-4.588-3.074-5.404-.457-.154-.935-.247-1.522-.397zm41.458 4.622c-.283-.304-.456-.485-.624-.67-3.578-3.97-7.15-7.944-10.745-11.897-.21-.23-.603-.387-.92-.404-.963-.05-1.93-.018-2.896-.018h-1.143v.69c.218.023.407.04.594.062.948.12 1.46.618 1.464 1.562.013 4.187.017 8.373-.017 12.56-.01 1.392-.41 1.79-1.78 2.08-.12.027-.238.065-.375.102.01.2.016.36.023.528h5.517c.196-.593-.16-.64-.558-.693-1.123-.15-1.576-.625-1.68-1.75-.04-.45-.075-.9-.073-1.35.01-3.35.03-6.697.048-10.045.002-.174.03-.348.057-.633.284.303.477.503.664.708 4.208 4.612 8.414 9.227 12.636 13.828.207.227.556.323.984.56v-.99c0-4.66 0-9.318.002-13.977 0-.28.005-.56.042-.835.158-1.153.517-1.523 1.688-1.64.476-.046.514-.252.386-.692h-5.432v.64c.218.028.407.045.594.078 1.1.192 1.52.59 1.532 1.714.032 3.432.01 6.864.01 10.484zM51.238 63.634l-.134-.183h-5.478l.04.646c1.728.197 2.08.47 2.11 2.128.06 3.304.016 6.61.01 9.915 0 .03-.046.06-.14.175-.117-.157-.207-.303-.32-.428-3.615-4.02-7.237-8.033-10.843-12.062-.3-.336-.597-.475-1.046-.463-1.157.03-2.317.022-3.475.004-.56-.008-.673.222-.485.69 1.735.21 2.068.585 2.068 2.307 0 3.714 0 7.428-.002 11.142 0 .32-.013.644-.055.962-.17 1.285-.46 1.584-1.74 1.85-.122.026-.24.058-.366.088v.567h5.5v-.597c-.147-.03-.27-.06-.395-.08-1.36-.216-1.758-.634-1.885-1.997a7.25 7.25 0 0 1-.025-.708c.004-3.52.01-7.04.02-10.56 0-.153.034-.305.066-.574.245.265.402.436.56.61 4.236 4.643 8.468 9.29 12.717 13.923.22.24.585.35 1.04.613v-1.66c0-4.53-.002-9.06.002-13.59.002-1.597.29-1.922 1.837-2.25.164-.034.28-.306.418-.47zm13.817 12.713c-.16.492-.282.902-.424 1.305-.41 1.168-1.225 1.964-2.44 2.132-1.222.17-2.474.196-3.71.168-.8-.017-1.197-.462-1.25-1.29-.077-1.24-.07-2.487-.087-3.73-.012-.788-.003-1.576-.003-2.395.26-.015.45-.037.637-.034.815.01 1.637-.036 2.443.054 1.248.14 1.603.57 1.71 1.835.01.143.04.285.063.43h.775v-5.76h-.804c-.045.35-.08.665-.127.98-.09.623-.375 1.167-1.028 1.245-1.178.14-2.368.17-3.576.248V64.42c1.298 0 2.542-.04 3.782.01.982.043 1.773.542 2.268 1.388.31.526.486 1.13.75 1.768l.722-.097c-.15-1.404-.297-2.754-.44-4.08h-12.08c.01.203.02.382.03.55 1.51.2 1.902.566 1.906 1.87.013 4.27.013 8.543 0 12.815-.005 1.174-.373 1.577-1.518 1.75-.405.062-.51.226-.37.57h13.184l.37-4.452-.783-.166zm77.7-3.827c.958 0 1.882-.045 2.8.01 1.38.086 1.796.54 1.907 1.916.01.123.05.244.08.38h.77v-5.754h-.822c-.032.322-.052.598-.09.872-.095.725-.428 1.308-1.2 1.387-1.123.115-2.255.13-3.43.19v-7.157c1 0 1.964-.027 2.925.005 2.303.077 3.17.795 3.735 3.035.015.057.063.106.12.194l.743-.12-.436-4.067h-12.094l.064.562c1.503.167 1.87.57 1.897 2.027.003.17 0 .342 0 .514v8.82c0 1.074.017 2.147-.006 3.22-.02 1.002-.29 1.806-1.56 1.87-.156.008-.298.276-.446.424l.13.123H151l.373-4.45-.792-.163c-.14.45-.255.837-.384 1.22-.412 1.225-1.25 2.044-2.517 2.218-1.202.166-2.433.188-3.65.16-.813-.02-1.23-.427-1.257-1.274-.062-2.03-.02-4.063-.02-6.16zm-47.952 8.462l.162-.162c-.14-.143-.26-.382-.423-.416-1.332-.28-1.606-.564-1.623-1.93-.02-1.653-.007-3.306-.004-4.958 0-.185.03-.37.047-.578h.485c1.524.012 3.05.063 4.528-.42 1.184-.386 2.17-1.02 2.723-2.19 1.265-2.67-.024-5.662-2.832-6.533-.508-.157-1.046-.286-1.573-.3-2.12-.06-4.243-.072-6.364-.097-.658-.008-1.318-.002-1.977-.002l-.12.162c.155.146.293.392.468.422 1.22.212 1.556.46 1.576 1.694.06 3.604.05 7.21.06 10.814a31.95 31.95 0 0 1-.062 2.378c-.074 1.028-.45 1.405-1.48 1.504-.425.04-.578.18-.41.612h6.82zm-19.58-.226c.687.114 1.317.248 1.954.32 1.787.204 3.584.5 5.37.034 1.983-.52 3.352-1.732 3.805-3.775.47-2.108-.054-3.925-1.867-5.234-.694-.5-1.43-.943-2.165-1.387-1.155-.698-2.346-1.342-3.48-2.072-.912-.585-1.45-1.436-1.196-2.566.256-1.134 1.05-1.79 2.145-2.084 2.21-.595 4.57.88 5.16 3.216.06.244.12.488.18.72h.84l-.274-4.47c-2.07-.29-4.08-.642-6.126-.322-1.13.177-2.124.637-2.942 1.468-2.186 2.22-2.12 5.098.256 7.094.796.67 1.74 1.17 2.643 1.7 1.034.61 2.126 1.12 3.142 1.757 1.02.64 1.577 1.574 1.33 2.833-.246 1.26-1.187 2.16-2.47 2.405-2.123.407-4.574-1.063-5.345-3.213-.107-.298-.195-.604-.303-.94l-.866.052.206 4.466zM21.065 64.783V76.77c0 .58.002 1.16-.02 1.738-.044 1.132-.333 1.86-1.584 1.92-.147.008-.28.283-.42.434l.137.13h6.802c.165-.44-.045-.544-.41-.594-1.077-.148-1.356-.435-1.488-1.5a7.775 7.775 0 0 1-.052-.964c-.004-4.143-.002-8.286-.002-12.43v-.756c.87 0 1.66-.005 2.45 0 1.932.017 2.96.88 3.184 2.79.077.665.32.802.865.638v-4.77H14.65l-.22 4.815h.832c.17-.653.298-1.283.497-1.89.313-.956 1.02-1.487 2.012-1.536 1.068-.052 2.14-.01 3.294-.01zm155.526-1.92c-.144.33-.223.503-.295.678-1.243 3.035-2.48 6.07-3.726 9.103-.764 1.862-1.512 3.733-2.323 5.576-.496 1.125-1.284 1.965-2.603 2.157-.15.02-.262.312-.49.604h6.184l-.026-.58c-.174-.017-.3-.03-.426-.04-1.354-.11-1.67-.58-1.226-1.848.374-1.07.75-2.144 1.172-3.197.077-.192.376-.416.577-.42a116.3 116.3 0 0 1 4.762-.003c.19.004.474.202.552.38.48 1.1.936 2.21 1.357 3.334.426 1.134.06 1.667-1.14 1.757-.1.007-.198.037-.29.055v.56h7.402c.13-.4.006-.562-.398-.613-.89-.113-1.546-.605-1.977-1.384-.248-.448-.49-.904-.694-1.374-1.208-2.77-2.404-5.544-3.605-8.316l-2.786-6.427zm-66.198.015c-.118.248-.206.415-.278.588-1.298 3.173-2.59 6.35-3.892 9.52-.732 1.785-1.45 3.576-2.233 5.337-.472 1.064-1.24 1.862-2.48 2.018-.497.064-.356.34-.303.636h5.925c-.02-.22-.035-.4-.05-.582-.182-.015-.31-.024-.436-.036-1.313-.117-1.623-.573-1.198-1.82a73.718 73.718 0 0 1 1.186-3.26c.07-.178.354-.38.543-.385 1.61-.03 3.22-.026 4.83-.004.166 0 .42.15.48.296.507 1.182 1.01 2.366 1.447 3.575.353.978-.05 1.512-1.1 1.6-.124.01-.248.017-.4.028v.587h7.606c-.198-.27-.3-.55-.43-.564-1.418-.162-2.092-1.142-2.602-2.306a3057.911 3057.911 0 0 1-3.338-7.663c-1.082-2.49-2.16-4.986-3.276-7.562z" fill="#FFF"/><path d="M225.778 81.013h-5.5c-.47-.806-.792-1.524-1.26-2.127-1.464-1.88-2.98-3.717-4.483-5.566-.227-.28-.484-.537-.72-.797-.882.556-1.3 1.244-1.21 2.298.1 1.195.016 2.404.043 3.606.027 1.164.314 1.913 1.667 1.983.147.007.28.268.422.41l-.112.147h-6.92c-.15-.417.006-.552.4-.595 1.074-.117 1.365-.413 1.518-1.473.03-.212.04-.43.04-.642.002-4.037.002-8.073-.002-12.11 0-.255-.017-.514-.06-.767-.157-.946-.46-1.267-1.415-1.363-.43-.043-.513-.213-.407-.62h6.875v.537c-.165.022-.33.05-.494.066-.92.096-1.338.43-1.446 1.342-.093.785-.078 1.584-.083 2.377-.01 1.438 0 2.876.002 4.314 0 .04.017.082.06.276l1.293-1.372c1.605-1.702 3.21-3.404 4.813-5.107.03-.03.07-.055.088-.092.187-.386.372-.775.557-1.163-.386-.176-.77-.354-1.16-.527-.056-.026-.123-.03-.234-.053l-.045-.593h6.353v.545c-.047.03-.08.073-.116.074-1.54.043-2.73.794-3.77 1.85-1.46 1.482-2.918 2.967-4.435 4.51.534.653 1.1 1.345 1.666 2.034l5.485 6.66c.672.814 1.474 1.367 2.59 1.295v.643M.057 63.363h12.098l.44 4.105-.767.136c-.05-.133-.096-.227-.122-.326-.55-2.093-1.423-2.82-3.58-2.898-1-.036-2.004-.006-3.04-.006v7.18c1.24-.1 2.47-.144 3.68-.314.67-.093.848-.724.943-1.318.04-.272.048-.548.074-.858h.832v5.695c-.743.216-.797.18-.867-.565-.096-1.012-.44-1.486-1.443-1.58-1.06-.102-2.136-.024-3.243-.024.012-.016-.035.018-.035.052.002 1.952-.03 3.905.028 5.855.033 1.063.474 1.466 1.545 1.487 1.047.02 2.104-.005 3.142-.133 1.46-.18 2.4-1.05 2.827-2.462l.31-1.028.8.135-.376 4.518H.056v-.515c1.715-.405 1.952-.606 1.958-1.973.02-4.202.02-8.403 0-12.604-.007-1.462-.493-1.897-1.957-1.913v-.644m125.618 9.425c0 1.977-.033 3.886.013 5.794.027 1.106.51 1.56 1.657 1.64.507.034.732.17.56.745h-7.164c-.153-.415 0-.558.426-.6 1.017-.102 1.328-.43 1.455-1.455.033-.254.042-.513.042-.77.002-3.97.002-7.942 0-11.914 0-.255-.014-.514-.046-.768-.13-1.025-.444-1.335-1.456-1.464-.435-.054-.435-.054-.448-.626.292 0 .584.004.875 0 2.146-.04 4.29-.133 6.435-.096 1.1.018 2.244.115 3.28.448 1.852.596 2.823 2.195 2.79 4.18-.033 1.927-1.14 3.48-2.935 4.118-.178.063-.352.138-.473.186 1.042 1.914 2.07 3.808 3.106 5.697.227.412.475.816.74 1.205.494.722 1.145 1.197 2.046 1.307.17.02.313.242.47.372-.153.11-.296.306-.457.32-3.14.3-4.925-.462-6.367-3.044-.74-1.33-1.4-2.702-2.115-4.046-.507-.953-1.312-1.36-2.433-1.23zm0-.83c1.004-.09 1.945-.11 2.862-.272 1.11-.195 1.8-.927 2.12-2.003.965-3.25-1.597-6.1-4.983-5.503v7.778zm36.089-.22c.587.15 1.065.242 1.522.396 2.438.816 3.63 2.9 3.073 5.404-.333 1.495-1.324 2.44-2.73 2.914-.784.264-1.625.482-2.444.5-2.872.06-5.746.023-8.662.023v-.56c.262-.033.515-.052.764-.096.652-.113 1.018-.525 1.113-1.163.058-.38.082-.768.083-1.153.005-3.885.004-7.77 0-11.653 0-.32-.018-.643-.056-.962-.115-.948-.478-1.32-1.444-1.396-.42-.034-.602-.154-.445-.638h.924c2.425 0 4.85-.02 7.274.008 1.382.016 2.683.343 3.712 1.354 2.084 2.048 1.542 5.23-1.107 6.458-.46.215-.96.348-1.576.565zm-4.24.694c0 2.213-.04 4.392.02 6.568.02.795.502 1.19 1.317 1.215.7.02 1.42-.014 2.097-.175 1.228-.29 1.92-1.138 2.096-2.392.478-3.403-1.926-5.697-5.53-5.216zm-.03-.934c.835 0 1.64.03 2.444-.008.918-.044 1.61-.514 2.11-1.28.868-1.33.77-3.324-.234-4.652-.92-1.216-2.826-1.81-4.32-1.344V71.5zm45.729 4.862c0-3.62.02-7.052-.01-10.484-.012-1.123-.434-1.522-1.533-1.714-.187-.033-.376-.05-.594-.078v-.64h5.432c.128.44.09.646-.386.693-1.17.115-1.53.485-1.688 1.638a6.286 6.286 0 0 0-.042.835c-.002 4.66-.002 9.318-.002 13.977v.99c-.428-.237-.777-.333-.984-.56-4.222-4.6-8.428-9.215-12.637-13.827-.188-.205-.38-.405-.665-.708-.026.285-.055.46-.057.633-.02 3.348-.038 6.696-.047 10.045 0 .45.033.9.074 1.35.104 1.125.557 1.6 1.68 1.75.398.053.754.1.558.693h-5.517l-.023-.528c.137-.037.254-.075.374-.1 1.37-.293 1.77-.69 1.78-2.083.035-4.186.03-8.372.018-12.56-.003-.943-.516-1.442-1.463-1.56-.186-.024-.375-.04-.593-.062v-.69h1.142c.965 0 1.932-.034 2.895.018.317.018.71.175.92.405 3.595 3.953 7.167 7.928 10.744 11.896.167.187.34.368.623.672M51.238 63.634c-.14.163-.254.435-.42.47-1.545.327-1.834.652-1.836 2.25-.004 4.528 0 9.058 0 13.588v1.66c-.457-.262-.82-.372-1.042-.613-4.25-4.634-8.48-9.28-12.717-13.925l-.56-.61c-.032.27-.066.422-.067.574-.01 3.52-.015 7.04-.02 10.56 0 .237.004.473.026.708.127 1.363.525 1.78 1.885 1.998.125.02.248.05.396.08v.596h-5.5v-.567c.124-.03.243-.062.364-.087 1.282-.267 1.57-.566 1.74-1.85.043-.32.055-.642.056-.963.003-3.714.002-7.428.002-11.142 0-1.722-.333-2.098-2.068-2.306-.188-.47-.076-.7.485-.69a85.65 85.65 0 0 0 3.475-.005c.45-.012.746.127 1.046.463 3.606 4.03 7.228 8.042 10.844 12.062.112.125.202.27.32.428.093-.114.14-.145.14-.176.005-3.306.05-6.612-.01-9.916-.03-1.658-.383-1.93-2.11-2.128-.014-.206-.027-.426-.04-.645h5.477l.134.184m13.817 12.715l.782.166-.37 4.45H52.285c-.14-.342-.035-.506.37-.567 1.145-.174 1.513-.577 1.517-1.75.015-4.273.015-8.545.002-12.817-.004-1.304-.397-1.67-1.905-1.87-.01-.168-.02-.347-.03-.55h12.08l.44 4.08c-.295.038-.54.07-.723.096-.264-.637-.44-1.242-.75-1.768-.495-.846-1.286-1.345-2.268-1.387-1.24-.05-2.484-.01-3.782-.01v7.115c1.208-.078 2.398-.108 3.575-.248.652-.078.936-.622 1.027-1.246.046-.313.082-.628.127-.978h.804v5.76h-.775c-.022-.145-.052-.287-.064-.43-.107-1.265-.462-1.696-1.71-1.835-.806-.09-1.628-.045-2.443-.054-.188-.003-.376.02-.637.034 0 .82-.01 1.607.003 2.395.017 1.243.01 2.49.088 3.73.053.828.45 1.273 1.25 1.29 1.236.028 2.488.002 3.71-.168 1.215-.168 2.03-.964 2.44-2.132.143-.403.265-.813.425-1.305m77.7-3.828c0 2.097-.042 4.13.02 6.16.026.848.444 1.256 1.258 1.275 1.216.028 2.447.006 3.65-.16 1.266-.174 2.104-.993 2.515-2.217.128-.384.242-.772.383-1.22l.792.163-.372 4.45H137.84l-.128-.122c.148-.148.29-.416.445-.424 1.27-.064 1.54-.868 1.56-1.87.024-1.073.007-2.146.007-3.22v-8.82c0-.172.003-.343 0-.515-.027-1.457-.394-1.86-1.897-2.028l-.064-.562h12.094l.436 4.066-.744.12c-.057-.087-.105-.136-.12-.193-.565-2.24-1.432-2.958-3.735-3.035-.96-.032-1.924-.005-2.926-.005v7.158c1.175-.06 2.307-.075 3.43-.19.772-.078 1.105-.66 1.2-1.386.038-.274.058-.55.09-.872h.82v5.755h-.77c-.028-.137-.07-.258-.078-.38-.11-1.377-.526-1.83-1.907-1.916-.918-.055-1.842-.01-2.8-.01m-47.95 8.46h-6.82c-.167-.432-.014-.57.41-.612 1.03-.1 1.407-.476 1.48-1.504.058-.79.065-1.585.063-2.378-.01-3.605 0-7.21-.06-10.814-.02-1.233-.356-1.482-1.575-1.694-.174-.03-.312-.276-.467-.422l.12-.162c.66 0 1.32-.006 1.978.002 2.122.025 4.244.037 6.365.097.527.014 1.065.143 1.573.3 2.808.87 4.097 3.864 2.83 6.533-.553 1.17-1.538 1.804-2.722 2.19-1.478.483-3.004.432-4.528.42h-.485c-.017.208-.046.393-.047.578-.003 1.652-.017 3.305.003 4.958.016 1.366.29 1.65 1.622 1.93.163.034.283.273.423.416l-.162.162zm-1.89-16.68v6.27c0 1.52 0 1.52 1.57 1.505 1.613-.014 2.737-.722 3.2-2.012 1.152-3.22-1.305-6.252-4.77-5.763zM75.222 80.756l-.206-4.467c.31-.02.575-.035.866-.053.108.336.196.642.303.94.77 2.15 3.222 3.62 5.346 3.214 1.283-.245 2.224-1.145 2.47-2.404.247-1.26-.31-2.194-1.33-2.833-1.017-.636-2.11-1.148-3.143-1.757-.903-.53-1.847-1.03-2.643-1.7-2.376-1.996-2.442-4.873-.256-7.094.818-.83 1.813-1.29 2.942-1.468 2.046-.32 4.057.03 6.126.32l.273 4.472h-.84c-.06-.232-.12-.476-.18-.72-.59-2.335-2.95-3.81-5.16-3.216-1.097.295-1.89.95-2.146 2.084-.255 1.13.284 1.98 1.195 2.567 1.134.73 2.325 1.375 3.48 2.073.734.444 1.47.887 2.165 1.388 1.813 1.31 2.336 3.127 1.867 5.235-.453 2.043-1.822 3.256-3.805 3.775-1.786.467-3.583.17-5.37-.034-.637-.072-1.267-.206-1.955-.32M21.066 64.783c-1.155 0-2.226-.04-3.294.01-.99.05-1.7.58-2.013 1.538-.2.607-.33 1.237-.498 1.89h-.832l.22-4.817h15.88v4.77c-.547.165-.79.028-.866-.636-.223-1.912-1.252-2.774-3.185-2.79-.79-.006-1.58 0-2.45 0v.755c0 4.144-.002 8.287.002 12.43 0 .32.013.645.052.963.132 1.066.41 1.353 1.49 1.5.363.05.573.154.408.595h-6.8l-.138-.13c.14-.15.273-.426.42-.433 1.25-.06 1.54-.79 1.584-1.92.022-.58.02-1.16.02-1.74V64.785m155.526-1.922l2.786 6.427c1.2 2.772 2.397 5.547 3.605 8.316.205.47.446.926.694 1.375.43.78 1.087 1.272 1.977 1.385.404.05.528.212.398.612h-7.402v-.56c.092-.017.19-.047.29-.054 1.2-.09 1.566-.623 1.14-1.757a66.834 66.834 0 0 0-1.356-3.334c-.078-.178-.36-.376-.552-.38-1.588-.03-3.176-.032-4.763.002-.202.005-.5.23-.578.42a75.953 75.953 0 0 0-1.172 3.198c-.444 1.27-.128 1.737 1.226 1.848.126.01.252.023.426.04.01.192.017.37.026.58h-6.183c.227-.29.34-.582.49-.603 1.318-.192 2.106-1.032 2.602-2.158.81-1.844 1.56-3.715 2.324-5.577 1.247-3.032 2.484-6.068 3.727-9.102.072-.174.15-.346.295-.677zm-3.35 11.196h4.872l-2.594-6.306-2.277 6.305zm-62.848-11.181c1.116 2.576 2.194 5.07 3.276 7.563 1.11 2.556 2.22 5.112 3.338 7.664.51 1.164 1.184 2.144 2.602 2.307.13.016.232.295.43.565h-7.606v-.587c.152-.01.276-.02.4-.03 1.05-.086 1.453-.62 1.1-1.597-.436-1.208-.94-2.392-1.446-3.574-.062-.145-.315-.295-.482-.297-1.61-.023-3.22-.028-4.83.003-.188.004-.47.207-.542.385a73.718 73.718 0 0 0-1.186 3.26c-.425 1.247-.115 1.703 1.198 1.82.127.012.254.02.435.036l.052.582h-5.925c-.053-.297-.194-.572.304-.635 1.24-.155 2.008-.953 2.48-2.017.784-1.76 1.502-3.552 2.234-5.336 1.302-3.172 2.594-6.348 3.892-9.52.072-.174.16-.34.278-.59zm-3.34 11.144h4.847l-2.583-6.267-2.263 6.267z" fill="#333"/><path d="M125.674 71.96v-7.778c3.386-.598 5.948 2.253 4.984 5.503-.32 1.076-1.01 1.808-2.12 2.003-.918.16-1.86.182-2.864.272m31.849.474c3.604-.48 6.008 1.813 5.53 5.216-.176 1.254-.868 2.1-2.096 2.392-.676.16-1.398.195-2.096.175-.814-.024-1.295-.42-1.317-1.215-.06-2.176-.02-4.355-.02-6.568m-.031-.934v-7.284c1.495-.465 3.4.128 4.32 1.344 1.006 1.328 1.103 3.32.234 4.652-.5.766-1.19 1.236-2.11 1.28-.802.04-1.608.008-2.444.008m-64.579-7.198c3.464-.49 5.92 2.542 4.768 5.763-.462 1.29-1.586 1.998-3.198 2.012-1.57.015-1.57.015-1.57-1.504v-6.27m80.329 9.757l2.277-6.306 2.594 6.305h-4.87m-66.19-.037l2.263-6.267 2.584 6.267h-4.846" fill="#FFF"/></g></svg>