<svg height="29" viewBox="0 0 86 29" width="86" xmlns="http://www.w3.org/2000/svg" xmlns:xlink="http://www.w3.org/1999/xlink"><linearGradient id="a" x1="49.999654%" x2="49.999654%" y1="6.921373%" y2="113.817945%"><stop offset=".254" stop-color="#d9f6f7"/><stop offset=".396" stop-color="#d5f5f6"/><stop offset=".5308" stop-color="#caf2f4"/><stop offset=".6627" stop-color="#b7edf0"/><stop offset=".7928" stop-color="#9ce7ea"/><stop offset=".9205" stop-color="#79dee2"/><stop offset="1" stop-color="#60d8dd"/></linearGradient><radialGradient id="b" cx="105.413682%" cy="109.967306%" gradientTransform="matrix(1 0 0 .804904 0 .214542)" r="169.296182%"><stop offset=".2331" stop-color="#38ced5"/><stop offset=".3845" stop-color="#2fb8c0"/><stop offset=".6985" stop-color="#177f8b"/><stop offset=".9693" stop-color="#004959"/></radialGradient><radialGradient id="c" cx="90.267598%" cy="87.895486%" gradientTransform="matrix(.660449 0 0 1 .306505 0)" r="107.850131%"><stop offset=".135" stop-color="#38ced5"/><stop offset=".2368" stop-color="#33c8cf"/><stop offset=".3795" stop-color="#26b5be"/><stop offset=".5454" stop-color="#1098a2"/><stop offset=".6503" stop-color="#00818d"/><stop offset=".9264" stop-color="#004959"/></radialGradient><radialGradient id="d" cx="86.848819%" cy="33.066716%" gradientTransform="matrix(1 0 0 .546983 0 .149798)" r="130.052027%"><stop offset=".1166" stop-color="#38ced5"/><stop offset=".4188" stop-color="#23b2ba"/><stop offset=".865" stop-color="#00818d"/></radialGradient><g fill="none"><g fill="#07456b" transform="translate(8.746327 20.660896)"><path d="m1.65742902 4.15132369v3.75497567h-1.6157889v-7.70556643h1.58308524l2.44554917 4.2011752.42666866 1.00385417c-.00190137-.62039552.00437316-1.18620079-.00076055-1.26505338v-3.93997599h1.60476092v7.70556643h-1.71409001l-2.35808589-4.0487774-.37285974-.82965818z"/><path d="m22.1803057 5.62071144c.6987555 1.11019145 2.7292344 1.13198964 2.7948319.05440071.0327036-.66380236-.6879177-.81620016-1.4847841-.92500158-1.2119368-.18500032-2.467415-.75099513-2.4455492-2.44879004.0872731-1.45839389 1.4302146-2.22019334 2.8166977-2.22019334 1.0044966 0 1.9650715.39179882 2.6092575 1.36039679l-1.3210756.88159474c-.327607-.50060024-.7860287-.72919694-1.2881819-.72919694-.6112923 0-1.1463393.2285967-1.179043.76179946v.01099387c.0108378.63119985.6550239.71839262 1.3319135.85979655 1.3427514.25020534 2.6529893.74000126 2.576554 2.55759145-.1310048 1.44758957-1.5285158 2.23118722-2.9366745 2.23118722-1.0044967 0-2.030669-.48979592-2.6856929-1.46919821z"/></g><g fill="#07456b" transform="translate(36.50641 20.660896)"><path d="m.80485225 7.90629936h-.62935529v-7.5296645h2.84826049c3.33919565 0 3.32835781 4.71125293.01064771 4.71125293h-2.22955291zm2.2189052-6.90206609h-2.2189052v3.45624566h2.2189052c2.52844914 0 2.47502049-3.48827952 0-3.45624566z"/><path d="m12.3249061 2.49314463v3.28621975c0 3.08415998-5.9847695 3.08415998-5.9847695 0v-3.28621975c0-3.08415998 5.9847695-3.08415998 5.9847695 0zm-5.35541421 3.28621975c0 2.25469135 4.71522111 2.25469135 4.72586881 0v-3.28621975c0-1.19112909-1.1948244-1.69097113-2.37900103-1.69097113-1.17333882.01061477-2.34686778.52107159-2.34686778 1.69097113z"/><path d="m18.9207777 7.90629936h-.7573178l-2.5390969-3.19049725h-1.4401018v3.19049725h-.6293553v-7.5296645h2.8482605c1.4188064 0 2.4963159.62759841 2.528259 2.19081317 0 1.56340431-1.1626911 2.14816453-2.5176113 2.14816453h-.0212954zm-2.5069636-3.76483225c1.1628813 0 1.888256-.38288999 1.888256-1.57401908 0-1.18051431-.7894511-1.58463385-1.888256-1.56340431h-2.2295529v3.13723384h2.2295529z"/><path d="m24.8462243.36602009v.62759841h-2.5176113v6.91268086h-.6293553v-6.91268086h-2.5176113v-.62759841z"/><path d="m27.0305245.37663486h.9174137l2.7309456 7.5296645h-.6614885l-.906766-2.50982498h-3.2431762l-.8854706 2.50982498h-.6614885zm1.8561228 4.39243066-1.397511-3.92443293-1.397511 3.92443293z"/><path d="m35.9772568 7.90629936c-1.6749217 0-2.7309457 0-4.4058673 0v-7.5296645h.6293552v6.90225564h3.7765121z"/><path d="m41.6207294.9936185h-4.1071612v2.8288368h3.7871597v.63802363h-3.7871597v2.81841157h4.1071612v.62740886h-4.7365165v-7.54027927h4.7365165z"/><path d="m43.7546431.37663486 4.2670669 6.83837746v-6.83837746h.6295454v7.5296645c-.3093538 0-.6187076 0-.9388992 0l-4.0965135-6.56182473v6.56182473h-.6293553v-7.5296645z"/></g><path d="m16.4826439 14.7642004c0 .9210211-.7487617 1.667467-1.67264 1.667467h-13.13717374c-.92387835 0-1.67283016-.7464459-1.67283016-1.667467v-13.09673341c0-.92083149.74895181-1.66746699 1.67283016-1.66746699h13.13736384c.9236882 0 1.6726401.7466355 1.6726401 1.66746699v13.09673341z" fill="url(#a)"/><g fill="#07456b"><path d="m24.473935 24.8122196v3.7549757h-1.6157889v-7.7055664h1.5830852l2.4455492 4.2011752.4266687 1.0038541c-.0019014-.6203955.0043731-1.1862008-.0007606-1.2650533v-3.939976h1.6047609v7.7055664h-1.71409l-2.3580859-4.0487774-.3728597-.8296582z"/><path d="m18.1003342 20.8612498h1.539924l2.7737266 7.707841h-1.6817666l-.67727-1.7637581h-2.3040868c-.2403339.6533771-.3932045 1.077968-.644186 1.7637581h-1.7144703zm.768536 1.698174-.7137764 2.7763316h1.4853545l-.7685359-2.7763316z"/><path d="m5.19855075 22.416693h-3.58219144v1.698174h3.13441751v1.5785683h-3.13441751v2.8741391h-1.61635931v-7.7076515h5.19855075z"/><path d="m5.91860165 20.8599229h1.6051412v7.7076515h-1.6051412z"/></g><g transform="translate(3.042201 3.222342)"><path d="m4.85021876 3.60750616v3.59461679h2.5014496c.21542585 0 .39187349-.17571239.39187349-.39047197v-3.20414482z" fill="url(#b)"/><path d="m9.90122277.05876035h-4.27828501c-.51108973.24527705-.772719.64105642-.772719 1.45611929v.29531812 1.84317938h5.05100401c.21542583 0 .39168333-.17571239.39168333-.39047198v-2.81386238c0-.21475959-.1762575-.39028243-.39168333-.39028243z" fill="url(#c)"/><path d="m5.60240291 7.2023125v-5.34624376-.29550767c0-.86775763.29680471-1.26031466.87539327-1.50199027h-.70598072c-.57858856.24148607-.87539328.63423264-.87539328 1.50199027v.29550767 5.34624376z" fill="#004855" opacity=".3"/><path d="m5.30559819.05876035c-1.12751567 0-4.52071038.96272193-4.56691381.97523219-.36259231.09780755-.6314468.42459089-.6314468.81657927 0 .14576357.03707682.28280786.102294.40260314l.09735043.18101978 4.28646092 7.89625327c.02871077.0528843.08366052.0841599.14184261.0841599.01292935 0 .02623898-.0017059.03954861-.0049282.07168186-.0180072.12168803-.0822645.12168803-.1558097v-8.39780126-.29550767c0-.86775763.29699486-1.26031466.87539328-1.50199027h-.46621727z" fill="url(#d)"/></g><g fill="#07456b" transform="translate(38.407785 8.150629)"><path d="m1.72854047 5.35647943h-1.70040011v-4.90895305h1.68728061c1.49695293 0 2.12079424.71346433 2.12079424 2.43476338-.00019014 1.78688317-.6896289 2.47418967-2.10767474 2.47418967zm-.01977431-4.28059645h-1.01115149v3.65887408h1.01761617c.9651382 0 1.41823598-.36658874 1.41823598-1.85227775 0-1.41384975-.41354917-1.80659633-1.42470066-1.80659633z"/><path d="m6.97519602 4.87862513-.01977431-.00663423c-.22968616.33379668-.65654496.54324888-1.1621207.54324888-.71567774 0-1.20147918-.37303342-1.20147918-1.25007898 0-.73298793.47268195-1.1846844 1.40492635-1.1846844.33483223 0 .65654496.06539458.89954075.15050231v-.38630189c0-.61527769-.27569945-.83117458-.91266024-.83117458-.41354917 0-.74857153.07202881-1.09652325.23561004l-.05913278-.51709105c.3741907-.17021546.79439469-.25532318 1.26061196-.25532318 1.03073566 0 1.41823598.43198332 1.41823598 1.45953118v2.5198711h-.47268194zm-.08537176-1.30258419c-.09849126-.05894989-.38731019-.14386807-.7812752-.14386807-.65008028 0-.9322444.26176786-.9322444.72654325 0 .55651734.33483222.7462564.78793.7462564.48580144 0 .92577973-.327352.92577973-.65451444v-.67441714z"/><path d="m9.37872478 1.93984962v2.39552664c0 .40582548.21656667.56940671.5711732.56940671.11161072 0 .24946042-.01971315.32836752-.05231567l.0393585.47122007c-.1180754.0589499-.33483222.09818664-.54493421.09818664-.66966445 0-1.01780631-.37303342-1.01780631-1.06678461v-2.41523978h-.54493422v-.48429898h.56470853l.11807541-.96878751.48599158-.05231567v1.02110318h.96513822v.48429898z"/><path d="m13.31172 4.87862513-.0197743-.00663423c-.2296862.33379668-.656545.54324888-1.1621207.54324888-.7156777 0-1.2014792-.37303342-1.2014792-1.25007898 0-.73298793.472682-1.1846844 1.4049264-1.1846844.3348322 0 .6565449.06539458.8995407.15050231v-.38630189c0-.61527769-.2756994-.83117458-.9126602-.83117458-.4135492 0-.7485716.07202881-1.0965233.23561004l-.0591327-.51709105c.3741906-.17021546.7943946-.25532318 1.2606119-.25532318 1.0307357 0 1.418236.43198332 1.418236 1.45953118v2.5198711h-.472682zm-.0853718-1.30258419c-.0984912-.05894989-.3873101-.14386807-.7812752-.14386807-.6500802 0-.9324345.26176786-.9324345.72654325 0 .55651734.3348322.7462564.78793.7462564.4858015 0 .9257797-.327352.9257797-.65451444z"/><path d="m16.9695862 5.35647943v-5.16427623l.6238413-.03923675v5.20351298z"/><path d="m18.5849948 3.30119416c0-1.22392115.5384695-1.91122765 1.6152185-1.91122765.9322444 0 1.5429662.54988311 1.5429662 1.79996209 0 .09818665-.0066548.21608644-.0131195.30100462h-2.5079143c.0328938 1.02754786.4135492 1.38105768 1.2539572 1.38105768.393965 0 .7287972-.08510773 1.0636294-.24868895l.0722523.52353573c-.3283675.17666014-.735452.28811525-1.208134.28811525-1.2870411 0-1.8188558-.67403804-1.8188558-2.13375877zm2.5868214-.23561003c-.0131195-.82472989-.4004297-1.13881342-.9651382-1.13881342-.6631998 0-.9586736.36658874-.998032 1.13881342z"/><path d="m26.0309714 1.45555064-1.5167272 3.90092879h-.7221425l-1.5167272-3.90092879h.6892486l1.0111515 2.85366778.1707435.49756745h.0197743l.1640887-.49756745 1.0109614-2.85366778z"/><path d="m26.5698212 3.30119416c0-1.22392115.5384696-1.91122765 1.6152185-1.91122765.9322444 0 1.5429662.54988311 1.5429662 1.79996209 0 .09818665-.0066548.21608644-.0131195.30100462h-2.5081044c.0328938 1.02754786.4135492 1.38105768 1.2539571 1.38105768.393965 0 .7287973-.08510773 1.0636295-.24868895l.0722523.52353573c-.3283676.17666014-.7354521.28811525-1.208134.28811525-1.286851 0-1.8186657-.67403804-1.8186657-2.13375877zm2.5868214-.23561003c-.0131195-.82472989-.4004297-1.13881342-.9651382-1.13881342-.6631998 0-.9586736.36658874-.998032 1.13881342z"/><path d="m30.5883783 5.35647943v-3.87496051l.498921-.03260251.0524779.83780881h.0131195c.2429958-.56296203.6696645-.89012447 1.2014792-.89012447.1445045 0 .2823543.01971314.3873102.05231566l-.0393585.6283566c-.1182656-.03923674-.2494605-.05231566-.3873102-.05231566-.6105317 0-1.1029879.51709105-1.1029879 1.35489986v1.97662222z"/><path d="m34.3510103 1.93984962v2.39552664c0 .40582548.2165667.56940671.5711732.56940671.1116107 0 .2494605-.01971315.3283675-.05231567l.0393585.47122007c-.1182655.0589499-.3348322.09818664-.5449342.09818664-.6696644 0-1.0178063-.37303342-1.0178063-1.06678461v-2.41523978h-.5449342v-.48429898h.5647085l.1180754-.96878751.4859916-.05231567v1.02110318h.9651382v.48429898z"/><path d="m40.2538305 4.87862513-.0197743-.00663423c-.2296861.33379668-.6565449.54324888-1.1621207.54324888-.7156777 0-1.2014792-.37303342-1.2014792-1.25007898 0-.73298793.472682-1.1846844 1.4049264-1.1846844.3348322 0 .656545.06539458.8995408.15050231v-.38630189c0-.61527769-.2756995-.83117458-.9126603-.83117458-.4135492 0-.7485715.07202881-1.0965232.23561004l-.0591328-.51709105c.3741907-.17021546.7943947-.25532318 1.2606119-.25532318 1.0307357 0 1.418236.43198332 1.418236 1.45953118v2.5198711h-.4726819zm-.0851816-1.30258419c-.0984912-.05894989-.3873102-.14386807-.7812752-.14386807-.6500803 0-.9324345.26176786-.9324345.72654325 0 .55651734.3348322.7462564.78793.7462564.4858014 0 .9257797-.327352.9257797-.65451444z"/><path d="m45.2443708 1.45555064-1.5167272 3.90092879h-.7221424l-1.5167273-3.90092879h.6892486l1.0111515 2.85366778.1707435.49756745h.0197744l.1640887-.49756745 1.0109613-2.85366778z"/><path d="m46.2889865 2.45694067c-.2823543 0-.4070845-.11126556-.4070845-.40582549 0-.25532318.1247302-.39919125.4070845-.39919125.2821641 0 .4070845.14405762.4070845.39919125 0 .25513364-.1249204.40582549-.4070845.40582549zm0 2.97156758c-.2823543 0-.4070845-.11126556-.4070845-.40582549 0-.25532318.1247302-.39919126.4070845-.39919126.2821641 0 .4070845.14386808.4070845.39919126s-.1249204.40582549-.4070845.40582549z"/></g></g></svg>