<svg height="86" viewBox="0 0 287 86" width="287" xmlns="http://www.w3.org/2000/svg"><g fill="none" fill-rule="evenodd"><path d="m164.78 69.95h-.11c-1.452 0-2.067.95-3.24.893-.726-.056-2.01-.894-2.85-.894-.836 0-1.785.893-2.79.837-1.006 0-1.9-.838-2.96-.838-.782 0-2.067.893-3.073.837-1.117 0-1.675-.838-2.568-.838h-.448c-1.452 0-1.62.95-2.737.893-.726-.056-2.01-.894-2.848-.894-.78 0-1.787.893-2.793.837-1.005 0-1.898-.838-2.96-.838-.78 0-2.12.893-3.127.837-1.06 0-2.01-.838-2.96-.838m35.408-2.012h-.056c-1.452 0-2.067.895-3.24.838-.726-.056-2.01-.838-2.85-.838-.836 0-1.785.838-2.79.782-1.006 0-1.9-.782-2.96-.782-.782 0-2.067.838-3.073.838-1.117-.056-1.675-.838-2.568-.838h-.448c-1.452 0-1.62.895-2.737.838-.726-.056-2.01-.838-2.848-.838-.78 0-1.787.838-2.793.782-1.005 0-1.898-.782-2.96-.782-.78 0-2.12.838-3.127.838-1.06-.056-2.01-.838-2.96-.838m35.464-9.27h-.11c-1.452 0-2.067.837-3.24.782-.726 0-2.01-.783-2.85-.783-.836 0-1.785.783-2.79.783-1.006 0-1.9-.783-2.96-.783-.782-.055-2.067.783-3.073.783-1.117 0-1.618-.838-2.568-.838l-.337.055h-.11c-1.453 0-1.62.838-2.738.783-.726 0-2.01-.783-2.792-.783-.837 0-1.843.783-2.85.783-1.004 0-1.897-.783-2.958-.783-.782 0-2.122.783-3.128.783-1.06 0-2.01-.838-2.96-.838m35.408-2.01h-.056c-1.452 0-2.067.893-3.24.837-.726-.056-2.01-.84-2.85-.84-.78 0-1.785.84-2.79.84-1.006-.056-1.9-.84-2.96-.84-.782 0-2.067.84-3.073.84-1.117 0-1.618-.84-2.568-.84h-.448c-1.452 0-1.62.895-2.737.84-.726-.056-2.01-.84-2.792-.84-.837 0-1.843.84-2.85.84-1.004-.056-1.897-.84-2.958-.84-.782 0-2.122.84-3.128.84-1.06 0-2.01-.84-2.96-.84m35.352-40.21h-.057c-1.45 0-2.066-.838-3.24-.78-.725.054-2.01.78-2.847.78-.782 0-1.788-.78-2.793-.726-1.004 0-1.9.726-2.96.726-.838 0-2.122-.78-3.127-.78-1.117.054-1.62.78-2.513.78h-.39c-1.51 0-1.676-.838-2.793-.78-.726.054-2.01.78-2.85.78-.836 0-1.842-.78-2.79-.78-1.007.054-1.9.78-2.962.78-.78 0-2.122-.838-3.126-.78-1.062 0-2.01.78-2.96.78m35.407 2.066h-.057c-1.45 0-2.066-.893-3.24-.78-.725.054-2.01.78-2.847.78-.782 0-1.788-.78-2.793-.78-1.004.054-1.9.78-2.96.78-.838 0-2.122-.837-3.127-.78-1.117 0-1.62.78-2.513.78h-.39c-1.51 0-1.676-.893-2.793-.837-.726.055-2.01.836-2.85.836-.836 0-1.842-.837-2.79-.78-1.007 0-1.9.78-2.962.78-.78 0-2.122-.837-3.126-.837-1.062.055-2.01.836-2.96.836m35.407 9.327h-.057c-1.45 0-2.066-.95-3.24-.838-.725.056-2.01.838-2.847.838-.782 0-1.788-.838-2.793-.838-1.004.056-1.9.838-2.96.838-.838 0-2.122-.893-3.127-.838-1.117 0-1.62.838-2.513.838h-.39c-1.51 0-1.676-.95-2.793-.893-.726.055-2.01.893-2.85.893-.836 0-1.842-.893-2.79-.838-1.007 0-1.9.838-2.962.838-.78 0-2.122-.893-3.126-.893-1.062.055-2.01.893-2.96.893m35.407 2.067h-.057c-1.45 0-2.066-.95-3.24-.893-.725.055-2.01.893-2.847.893-.782 0-1.788-.893-2.793-.838-1.004 0-1.9.838-2.96.838-.838 0-2.122-.893-3.127-.893-1.117.055-1.62.893-2.513.893l-.39-.056c-1.51 0-1.676-.894-2.793-.837-.726.055-2.01.837-2.85.837-.836 0-1.842-.837-2.79-.782-1.007 0-1.9.782-2.962.782-.78 0-2.122-.837-3.126-.837-1.062.055-2.01.837-2.96.837" stroke="#09417a" stroke-linejoin="round" stroke-width=".916"/><path d="m147.02 10.414h-.055l-.056.112-.057 1.06.056.67.055.17.056.055.113-.054.056-.17.055-.724-.056-.614v-.336l-.057-.168h-.112" fill="#fff"/><path d="m147.02 10.414s-.11-.11-.167 1.173c0 .615.168.894.168.894s.17-.166.225-.948c0-1.062-.224-1.118-.224-1.118z" stroke="#c8a564" stroke-width=".457"/><path d="m147.02 8.292h-.055l-.056.168-.057 1.06.056.727.055.11.056.057.113-.056.056-.11.055-.782-.056-.615v-.334l-.057-.168-.112-.056" fill="#fff"/><path d="m147.02 8.292s-.11-.055-.167 1.23c0 .613.168.892.168.892s.17-.167.225-.948c0-1.062-.224-1.174-.224-1.174z" stroke="#c8a564" stroke-width=".457"/><path d="m147.02 5.835-.055.055-.056.28-.057 1.284.056.67.055.113.056.055h.113l.056-.112v-1.9l-.113-.333-.056-.112" fill="#fff"/><path d="m147.02 5.835s-.167.335-.167 1.62c0 .614.168.837.168.837s.17-.112.17-.893c0-1.063-.17-1.565-.17-1.565z" stroke="#c8a564" stroke-linejoin="round" stroke-width=".457"/><path d="m145.792 3.657-.447-1.676.112.224.39 1.285.224.39.28.447.336.558.056.895v.557l-.112-.056-.334-.11-.336-.335-.168-.224-.112-.277.056-.448.056-.39.113-.39-.113-.448" fill="#fff"/><path d="m145.792 3.657c-.502-1.62-.67-2.736.056-.168.223.614.838 1.228.838 1.395.112.448.056 1.452.056 1.452s-.894-.167-1.062-1.004c0-.67.39-1.062.112-1.676z" stroke="#c8a564" stroke-linejoin="round" stroke-width=".457"/><path d="m147.524 4.216-.224-.56-.11-.39-.113-.39-.056-2.29-.11 2.345-.224.67-.112.67.056.28.056.224.112.28.055.222.056.782.055.223.056.057.057-.056.112-.166v-.838l.055-.334.112-.224.167-.28v-.222" fill="#fff"/><path d="m147.524 4.216c0-.224-.39-.95-.447-1.34 0-.28-.056-2.29-.056-2.29s-.055 1.954-.11 2.345c-.057.336-.336 1.007-.336 1.34 0 .392.28.615.28 1.006 0 .614.167 1.06.167 1.06s.17-.278.17-1.06c0-.502.39-.67.334-1.06z" stroke="#c8a564" stroke-linejoin="round" stroke-width=".457"/><path d="m147.02 12.48h-.055l-.056.168-.057 1.118.056.67.055.168.112.055.056-.056.056-.17v-1.842l-.057-.11h-.112" fill="#fff"/><path d="m147.02 12.48s-.167 0-.167 1.286c0 .558.224.893.224.893s.112-.17.112-.95c.055-1.34-.17-1.23-.17-1.23z" stroke="#c8a564" stroke-width=".457"/><path d="m147.02 14.66h-.055l-.056.11-.057 1.006.056.726.055.224.056.055.113-.054.056-.224v-1.733l-.113-.055-.056-.056" fill="#fff"/><path d="m147.02 14.66s-.167-.17-.167 1.116c0 .558.168 1.005.168 1.005s.17-.278.17-1.06c.055-1.06-.17-1.06-.17-1.06z" stroke="#c8a564" stroke-width=".457"/><path d="m145.68 5.78-.5-1.676.11.167.39 1.34.28.337.223.28.336.278.166.447.056.894v.558l-.112-.056-.334-.11-.336-.336-.168-.224-.112-.28v-.446l.056-.39v-.336l-.056-.446" fill="#fff"/><path d="m145.68 5.78c-.5-1.62-.726-2.738 0-.17.225.616.894.67 1.006 1.342.056.447.056 1.452.056 1.452s-.894-.167-1.062-1.005c0-.615.225-1.006 0-1.62z" stroke="#c8a564" stroke-linejoin="round" stroke-width=".457"/><path d="m145.68 7.79-.5-1.62.11.167.446 1.286.224.39.223.224.336.334.166.392.056.894v.614l-.446-.223-.336-.335-.168-.167-.056-.28-.056-.446.056-.392v-.39l-.056-.45" fill="#fff"/><path d="m145.68 7.79c-.5-1.564-.726-2.68.056-.167.17.614.838.614.95 1.34.112.503.056 1.507.056 1.507s-.894-.223-1.006-1.004c-.056-.727.17-1.006-.056-1.677z" stroke="#c8a564" stroke-linejoin="round" stroke-width=".457"/><path d="m145.68 9.856-.5-1.62.11.168.39 1.285.28.39.223.223.336.335.166.39.056.895v.614l-.446-.223-.336-.336-.168-.223-.112-.223v-.448l.056-.39v-.39l-.056-.448" fill="#fff"/><path d="m145.68 9.856c-.5-1.62-.726-2.68 0-.167.225.557.894.668 1.006 1.34.056.502.056 1.507.056 1.507s-.894-.223-1.062-1.005c0-.727.225-1.006 0-1.676z" stroke="#c8a564" stroke-linejoin="round" stroke-width=".457"/><path d="m145.68 11.923-.5-1.676.11.223.446 1.285.224.39.223.224.336.334.166.39.056.895v.557l-.446-.223-.336-.28-.168-.223-.056-.278-.056-.39.056-.39v-.393l-.056-.447" fill="#fff"/><path d="m145.68 11.923c-.5-1.62-.726-2.68.056-.168.17.56.838.614.95 1.34.112.447.056 1.452.056 1.452s-.894-.223-1.006-1.005c-.056-.67.17-.95-.056-1.62z" stroke="#c8a564" stroke-linejoin="round" stroke-width=".457"/><path d="m145.68 14.1-.5-1.674.11.222.446 1.23.224.39.223.28.336.28.166.445.056.894v.56l-.446-.225-.336-.28-.168-.222-.056-.28-.056-.447.056-.39v-.336l-.056-.447" fill="#fff"/><path d="m145.68 14.1c-.5-1.62-.726-2.736.056-.223.17.614.838.67.95 1.396.112.447.056 1.453.056 1.453s-.894-.224-1.006-1.006c-.056-.67.17-.95-.056-1.62z" stroke="#c8a564" stroke-linejoin="round" stroke-width=".457"/><path d="m148.25 3.657.446-1.676-.056.224-.446 1.285-.167.39-.28.447-.335.558-.112.895v.557l.503-.167.39-.335.056-.224.112-.277v-.448l-.113-.39-.056-.39.055-.448" fill="#fff"/><path d="m148.25 3.657c.56-1.62.726-2.736-.056-.168-.167.614-.726 1.228-.782 1.395-.167.448-.112 1.452-.112 1.452s.95-.167 1.062-1.004c.112-.67-.28-1.062-.113-1.676z" stroke="#c8a564" stroke-linejoin="round" stroke-width=".457"/><path d="m148.418 5.78.447-1.676-.113.167-.39 1.34-.168.337-.335.28-.28.278-.168.447-.112.894v.558l.503-.167.39-.335.056-.224.112-.28v-.446l-.057-.39v-.336l.113-.446" fill="#fff"/><path d="m148.418 5.78c.558-1.62.725-2.738-.056-.17-.168.616-.782.67-.95 1.342-.112.447-.112 1.452-.112 1.452s.95-.167 1.062-1.005c.112-.615-.168-1.006.056-1.62z" stroke="#c8a564" stroke-linejoin="round" stroke-width=".457"/><path d="m148.418 7.79.447-1.62-.113.167-.39 1.286-.168.39-.335.224-.28.334-.168.392-.112.894v.614l.503-.223.39-.335.056-.167.112-.28v-.446l-.057-.392v-.39l.113-.45" fill="#fff"/><path d="m148.418 7.79c.558-1.564.725-2.68-.056-.167-.168.614-.782.614-.95 1.34-.112.503-.112 1.507-.112 1.507s.95-.223 1.062-1.004c.112-.727-.168-1.006.056-1.677z" stroke="#c8a564" stroke-linejoin="round" stroke-width=".457"/><path d="m148.418 9.856.447-1.62-.113.168-.39 1.285-.168.39-.335.223-.224.335-.224.39-.112.895v.614l.503-.223.39-.336.056-.223.112-.223v-.838l-.057-.39.113-.448" fill="#fff"/><path d="m148.418 9.856c.558-1.62.725-2.68-.056-.167-.168.557-.782.668-.95 1.34-.112.502-.112 1.507-.112 1.507s.95-.223 1.062-1.005c.112-.727-.168-1.006.056-1.676z" stroke="#c8a564" stroke-linejoin="round" stroke-width=".457"/><path d="m148.418 11.923.447-1.676-.113.223-.39 1.285-.168.39-.335.224-.28.334-.168.39-.112.895v.557l.503-.223.39-.28.056-.223.112-.278v-.39l-.057-.39v-.393l.113-.447" fill="#fff"/><path d="m148.418 11.923c.558-1.676.725-2.737-.056-.168-.168.56-.782.614-.95 1.34-.112.447-.112 1.452-.112 1.452s.95-.223 1.062-1.005c.112-.67-.168-.95.056-1.62z" stroke="#c8a564" stroke-linejoin="round" stroke-width=".457"/><path d="m148.418 14.1.447-1.674-.113.222-.39 1.23-.168.39-.335.28-.28.28-.168.445-.112.894v.56l.503-.225.39-.28.056-.222.112-.28v-.447l-.057-.39v-.336l.113-.447" fill="#fff"/><path d="m148.418 14.1c.558-1.62.725-2.736-.056-.223-.168.614-.782.67-.95 1.396-.112.503-.112 1.453-.112 1.453s.95-.224 1.062-1.006c.112-.67-.168-.95.056-1.62z" stroke="#c8a564" stroke-linejoin="round" stroke-width=".457"/><path d="m146.91 18.792h-.057l-.055.167-.056 1.06.056.67.055.168.112.056.056-.056.057-.11.112-.784-.057-.614-.056-.335-.056-.168-.11-.055" fill="#fff"/><path d="m146.91 18.792s-.112 0-.168 1.228c0 .615.223.894.223.894s.168-.112.224-.95c0-1.06-.28-1.172-.28-1.172z" stroke="#c8a564" stroke-width=".457"/><path d="m146.91 16.78h-.057l-.055.113-.056 1.06.056.67.055.17.056.054.11-.055.057-.112.112-.78-.057-.616-.056-.335-.056-.17h-.11" fill="#fff"/><path d="m146.91 16.78s-.112-.054-.168 1.174c0 .614.167.893.167.893s.223-.11.28-.948c0-1.063-.28-1.12-.28-1.12z" stroke="#c8a564" stroke-width=".457"/><path d="m146.965 20.914h-.112l-.055.167-.056 1.12.056.613.055.224.112.055.056-.055.057-.17.056-.725v-.78l-.056-.337-.056-.11h-.055" fill="#fff"/><path d="m146.965 20.914s-.167-.056-.223 1.285c0 .613.223.892.223.892s.168-.224.168-.95c.056-1.34-.168-1.228-.168-1.228z" stroke="#c8a564" stroke-width=".457"/><path d="m146.91 23.092h-.057l-.055.056-.056 1.06.056.672.055.222.056.112.11-.055.057-.225.056-.782v-.614l-.056-.28-.112-.168h-.056" fill="#fff"/><path d="m146.91 23.092s-.168-.224-.168 1.117c0 .613.167 1.004.167 1.004s.223-.334.223-1.06c.056-1.062-.224-1.062-.224-1.062z" stroke="#c8a564" stroke-width=".457"/><path d="m145.625 16.278-.502-1.674.11.166.447 1.286.168.39.335.28.224.278.223.39.056.896v.557l-.503-.167-.335-.335-.168-.167v-.336l-.055-.39.055-.39v-.336z" fill="#fff"/><path d="m145.625 16.278c-.558-1.674-.782-2.792.055-.222.112.614.782.67.95 1.34.056.446.056 1.45.056 1.45s-.95-.166-1.006-1.004c-.11-.614.112-.95-.055-1.564z" stroke="#c8a564" stroke-linejoin="round" stroke-width=".457"/><path d="m145.57 18.29-.447-1.62.056.167.5 1.284.168.393.56.558.222.392.056.894v.558l-.503-.167-.335-.335-.168-.168-.055-.336v-.39l.055-.39v-.336l-.11-.502" fill="#fff"/><path d="m145.57 18.29c-.503-1.564-.727-2.68.11-.17.112.616.782.672.95 1.342.056.446.056 1.452.056 1.452s-.95-.167-1.006-1.006c-.11-.613.112-.95-.11-1.618z" stroke="#c8a564" stroke-linejoin="round" stroke-width=".457"/><path d="m145.625 20.356-.502-1.62.11.168.447 1.284.168.335.335.28.224.334.223.39.056.895v.56l-.503-.17-.335-.334-.168-.168v-.334l-.055-.448.055-.335v-.39z" fill="#fff"/><path d="m145.625 20.356c-.558-1.62-.782-2.737.055-.168.112.614.782.614.95 1.34.056.448.056 1.453.056 1.453s-.95-.167-1.006-1.004c-.11-.67.112-.95-.055-1.62z" stroke="#c8a564" stroke-linejoin="round" stroke-width=".457"/><path d="m145.625 22.533-.502-1.675.11.223.447 1.23.168.39.335.28.224.335.223.392.056.893v.56l-.503-.225-.335-.28-.168-.223v-.28l-.055-.445.055-.392v-.334l-.055-.447" fill="#fff"/><path d="m145.625 22.533c-.558-1.675-.782-2.736.055-.223.112.614.782.67.95 1.397.056.446.056 1.452.056 1.452s-.95-.225-1.006-1.007c-.11-.67.112-.95-.055-1.62z" stroke="#c8a564" stroke-linejoin="round" stroke-width=".457"/><path d="m148.305 16.278.447-1.674-.056.166-.447 1.286-.168.39-.334.28-.28.278-.168.39-.11.896v.557l.5-.167.392-.335.112-.167.055-.336v-.39l-.056-.39v-.336l.11-.448" fill="#fff"/><path d="m148.305 16.278c.56-1.674.726-2.792-.056-.222-.168.614-.782.67-.95 1.34-.11.446-.11 1.45-.11 1.45s1.004-.166 1.06-1.004c.112-.614-.11-.95.055-1.564z" stroke="#c8a564" stroke-linejoin="round" stroke-width=".457"/><path d="m148.305 18.29.447-1.62-.056.167-.447 1.284-.168.393-.334.28-.224.278-.224.392-.055.894v.558l.446-.167.392-.335.112-.168.055-.336v-.78l-.056-.336.11-.502" fill="#fff"/><path d="m148.305 18.29c.56-1.62.726-2.738-.056-.17-.168.616-.782.672-.95 1.342-.11.446-.055 1.452-.055 1.452s.95-.167 1.004-1.006c.112-.613-.11-.95.055-1.618z" stroke="#c8a564" stroke-linejoin="round" stroke-width=".457"/><path d="m148.305 20.356.447-1.62-.056.168-.447 1.284-.168.335-.334.28-.224.334-.224.39-.11.895v.56l.5-.17.392-.334.112-.168.055-.334v-.783l-.056-.39.11-.447" fill="#fff"/><path d="m148.305 20.356c.56-1.62.726-2.737-.056-.168-.168.614-.782.614-.95 1.34-.11.448-.11 1.453-.11 1.453s1.004-.167 1.06-1.004c.112-.67-.11-.95.055-1.62z" stroke="#c8a564" stroke-linejoin="round" stroke-width=".457"/><path d="m148.305 22.533.447-1.675-.056.223-.447 1.23-.168.39-.334.28-.224.335-.224.392-.11.893v.56l.5-.225.392-.28.112-.223.055-.28v-.837l-.056-.334.11-.447" fill="#fff"/><path d="m148.305 22.533c.56-1.675.726-2.736-.056-.223-.168.614-.782.67-.95 1.397-.11.446-.055 1.452-.055 1.452s.95-.225 1.004-1.007c.112-.67-.11-.95.055-1.62z" stroke="#c8a564" stroke-linejoin="round" stroke-width=".457"/><path d="m146.965 40.35.168-.112v-14.856l-.168-.11-.223.11v14.856z" stroke="#c8a564" stroke-width=".457"/><path d="m137.36 17.284h-.057l-.056.11-.055 1.062.055.67.056.17.056.054.055-.055.056-.168.113-.726-.056-.614-.056-.335-.055-.166h-.056" fill="#fff"/><path d="m137.36 17.284s-.113-.112-.168 1.172c0 .56.167.894.167.894s.167-.167.223-.95c0-1.06-.224-1.116-.224-1.116z" stroke="#c8a564" stroke-width=".457"/><path d="m137.36 15.16h-.057l-.056.17-.055 1.06.055.67.056.168.056.056.055-.056.056-.112.113-.782-.056-.614-.056-.335-.055-.167-.056-.057" fill="#fff"/><path d="m137.36 15.16s-.113-.054-.168 1.23c0 .614.167.894.167.894s.167-.168.223-.95c0-1.06-.224-1.173-.224-1.173z" stroke="#c8a564" stroke-width=".457"/><path d="m137.36 12.704-.057.057-.056.223-.055 1.34.055.672.056.11.056.056h.055l.056-.165.057-.727-.056-1.173-.11-.28v-.11" fill="#fff"/><path d="m137.36 12.704s-.168.28-.168 1.62c0 .614.167.837.167.837s.167-.165.167-.892c0-1.06-.168-1.564-.168-1.564z" stroke="#c8a564" stroke-linejoin="round" stroke-width=".457"/><path d="m136.13 10.526-.446-1.675.11.17.392 1.338.168.39.335.45.334.557.057.837v.615l-.168-.055-.278-.17-.336-.278-.168-.223-.11-.278.054-.447.056-.39.113-.392-.113-.447" fill="#fff"/><path d="m136.13 10.526c-.502-1.62-.725-2.737.056-.168.168.615.783 1.174.838 1.397.112.447.057 1.452.057 1.452s-.894-.224-1.06-1.005c-.057-.67.334-1.062.11-1.676z" stroke="#c8a564" stroke-linejoin="round" stroke-width=".457"/><path d="m137.807 11.03-.17-.504-.166-.446-.11-.335v-2.29l-.113 2.345-.223.67-.167.614.055.335.112.223.112.28.056.223.055.78.056.17.056.11v-.054l.11-.17.057-.892.056-.28.112-.278.112-.223v-.28" fill="#fff"/><path d="m137.807 11.03c0-.17-.392-.895-.448-1.285v-2.29s-.057 1.954-.113 2.345c-.055.335-.39 1.005-.39 1.284 0 .448.335.67.335 1.062 0 .615.167 1.06.167 1.06s.11-.28.167-1.116c0-.447.335-.615.28-1.06z" stroke="#c8a564" stroke-linejoin="round" stroke-width=".457"/><path d="m137.36 19.35h-.057l-.056.168-.055 1.06.055.727.056.167.056.056.055-.056.056-.167.057-.782v-.726l-.056-.335-.055-.112z" fill="#fff"/><path d="m137.36 19.35s-.168 0-.168 1.23c0 .613.167.948.167.948s.167-.167.167-1.005c.056-1.285-.168-1.173-.168-1.173z" stroke="#c8a564" stroke-width=".457"/><path d="m137.36 21.528h-.057l-.056.057-.055 1.005.055.78.056.17.056.055.055-.056.056-.17.057-.837v-.557l-.056-.336-.11-.112" fill="#fff"/><path d="m137.36 21.528s-.168-.167-.168 1.062c0 .614.167 1.005.167 1.005s.167-.224.167-1.062c.056-1.005-.168-1.005-.168-1.005z" stroke="#c8a564" stroke-width=".457"/><path d="m135.963 12.592-.446-1.62.11.168.392 1.34.278.336.223.223.337.335.112.446.11.895v.558l-.168-.055-.278-.168-.336-.28-.168-.28-.11-.222v-.447l.054-.39v-.39l-.11-.448" fill="#fff"/><path d="m135.963 12.592c-.503-1.563-.67-2.68.056-.11.223.557.837.613 1.004 1.34.057.446.057 1.45.057 1.45s-.894-.222-1.06-1.004c-.057-.67.223-1.005-.057-1.676z" stroke="#c8a564" stroke-linejoin="round" stroke-width=".457"/><path d="m136.02 14.66-.503-1.677.11.224.447 1.284.224.393.223.223.337.335.167.392.057.894v.613l-.446-.224-.336-.335-.168-.222-.056-.224-.055-.447.054-.39v-.39l-.055-.448" fill="#fff"/><path d="m136.02 14.66c-.56-1.62-.727-2.682.054-.17.17.56.783.616.95 1.342.112.502.057 1.507.057 1.507s-.894-.224-1.006-1.006c-.11-.725.17-1.005-.055-1.675z" stroke="#c8a564" stroke-linejoin="round" stroke-width=".457"/><path d="m135.963 16.726-.446-1.676.11.223.392 1.23.278.446.56.557.11.392.113.892v.615l-.446-.224-.336-.336-.168-.223-.11-.223v-.446l.054-.447v-.335l-.11-.446" fill="#fff"/><path d="m135.963 16.726c-.503-1.62-.67-2.737.056-.224.223.614.837.726 1.004 1.397.057.5.057 1.507.057 1.507s-.894-.224-1.06-1.006c-.057-.725.223-1.005-.057-1.674z" stroke="#c8a564" stroke-linejoin="round" stroke-width=".457"/><path d="m136.02 18.792-.503-1.676.11.223.447 1.228.224.447.223.223.337.28.167.446.057.894v.558l-.446-.223-.336-.28-.168-.223-.056-.278-.055-.392.054-.447v-.335l-.055-.446" fill="#fff"/><path d="m136.02 18.792c-.56-1.62-.727-2.736.054-.224.17.615.783.67.95 1.396.112.448.057 1.452.057 1.452s-.894-.223-1.006-1.004c-.11-.67.17-.95-.055-1.62z" stroke="#c8a564" stroke-linejoin="round" stroke-width=".457"/><path d="m136.02 20.97-.503-1.675.11.223.447 1.23.224.39.223.278.337.28.167.39.057.95v.503l-.446-.17-.336-.333-.168-.17-.056-.334-.055-.39.054-.392v-.334z" fill="#fff"/><path d="m136.02 20.97c-.56-1.62-.727-2.737.054-.223.17.614.783.67.95 1.34.112.446.057 1.452.057 1.452s-.894-.17-1.006-1.007c-.11-.614.17-.948-.055-1.563z" stroke="#c8a564" stroke-linejoin="round" stroke-width=".457"/><path d="m138.588 10.526.447-1.675-.11.17-.392 1.338-.224.39-.224.45-.336.557-.112.837v.615l.503-.224.336-.28.112-.222.11-.278v-.447l-.11-.39-.055-.392.055-.447" fill="#fff"/><path d="m138.588 10.526c.56-1.62.726-2.737-.055-.168-.224.615-.726 1.174-.783 1.397-.167.447-.112 1.452-.112 1.452s.95-.224 1.06-1.005c.114-.67-.334-1.062-.11-1.676z" stroke="#c8a564" stroke-linejoin="round" stroke-width=".457"/><path d="m138.755 12.592.448-1.62-.113.168-.39 1.34-.224.336-.28.223-.334.335-.112.446-.112.895v.558l.503-.223.336-.28.112-.28.11-.222v-.447l-.055-.39v-.39l.112-.448" fill="#fff"/><path d="m138.755 12.592c.56-1.563.67-2.68-.056-.11-.224.557-.838.613-.95 1.34-.112.446-.112 1.45-.112 1.45s.95-.222 1.06-1.004c.114-.67-.165-1.005.057-1.676z" stroke="#c8a564" stroke-linejoin="round" stroke-width=".457"/><path d="m138.755 14.66.448-1.677-.113.224-.39 1.284-.224.393-.28.223-.334.335-.112.392-.112.894v.613l.503-.224.336-.335.223-.446v-.447l-.057-.39v-.39l.112-.448" fill="#fff"/><path d="m138.755 14.66c.56-1.62.67-2.682-.056-.17-.224.56-.838.616-.95 1.342-.112.502-.112 1.507-.112 1.507s.95-.224 1.06-1.006c.114-.725-.222-1.005.057-1.675z" stroke="#c8a564" stroke-linejoin="round" stroke-width=".457"/><path d="m138.755 16.726.448-1.676-.113.223-.39 1.23-.224.446-.28.222-.278.335-.168.392-.112.892v.615l.503-.224.336-.336.112-.223.11-.223v-.893l-.055-.335.112-.446" fill="#fff"/><path d="m138.755 16.726c.56-1.62.67-2.737-.056-.224-.224.614-.838.726-.95 1.397-.112.5-.112 1.507-.112 1.507s.95-.224 1.06-1.006c.114-.725-.165-1.005.057-1.674z" stroke="#c8a564" stroke-linejoin="round" stroke-width=".457"/><path d="m138.755 18.792.448-1.676-.113.223-.39 1.228-.224.447-.28.223-.334.28-.112.446-.112.894v.558l.503-.223.336-.28.112-.223.11-.278v-.392l-.055-.447v-.335l.112-.446" fill="#fff"/><path d="m138.755 18.792c.56-1.676.67-2.792-.056-.224-.224.615-.838.67-.95 1.396-.112.448-.112 1.452-.112 1.452s.95-.223 1.06-1.004c.114-.67-.165-.95.057-1.62z" stroke="#c8a564" stroke-linejoin="round" stroke-width=".457"/><path d="m138.755 20.97.448-1.675-.113.223-.39 1.23-.224.39-.28.278-.334.28-.112.39-.112.95v.503l.503-.17.336-.333.112-.17.11-.334v-.39l-.055-.392v-.334l.112-.446" fill="#fff"/><path d="m138.755 20.97c.56-1.62.67-2.737-.056-.223-.224.614-.838.67-.95 1.34-.112.503-.112 1.452-.112 1.452s.95-.17 1.06-1.007c.114-.614-.165-.948.057-1.563z" stroke="#c8a564" stroke-linejoin="round" stroke-width=".457"/><path d="m137.247 25.66h-.055l-.056.168-.055 1.062.056.67.056.168.11.055.057-.055v-.168l.11-.726-.055-.615-.056-.335v-.168l-.113-.056" fill="#fff"/><path d="m137.247 25.66s-.11-.055-.166 1.23c0 .614.223.893.223.893s.112-.167.168-.95c0-1.06-.223-1.172-.223-1.172z" stroke="#c8a564" stroke-width=".457"/><path d="m137.247 23.595h-.055l-.056.167-.055 1.06.056.672.056.167.055.057.112-.056v-.11l.11-.783-.055-.614-.056-.335v-.167l-.113-.055" fill="#fff"/><path d="m137.247 23.595s-.11-.056-.166 1.228c0 .615.167.894.167.894s.168-.168.224-.95c0-1.06-.223-1.172-.223-1.172z" stroke="#c8a564" stroke-width=".457"/><path d="m137.303 27.783h-.11l-.057.168-.055 1.118.056.614.056.223.11.057.057-.057v-.167l.055-.726v-.782l-.056-.335v-.112h-.057" fill="#fff"/><path d="m137.303 27.783s-.167-.055-.222 1.285c0 .558.223.894.223.894s.112-.224.112-.95c.056-1.34-.112-1.23-.112-1.23z" stroke="#c8a564" stroke-width=".457"/><path d="m137.247 29.962h-.055l-.056.056-.055 1.06.056.67.056.224.055.11.112-.054v-.224l.055-.78v-.615l-.056-.337-.057-.11h-.056" fill="#fff"/><path d="m137.247 29.962s-.166-.224-.166 1.116c0 .56.167 1.005.167 1.005s.168-.335.168-1.06c.056-1.06-.168-1.06-.168-1.06z" stroke="#c8a564" stroke-width=".457"/><path d="m135.907 23.092-.502-1.62.167.168.39 1.284.224.39.28.225.28.334.166.39.057.895v.557l-.45-.168-.5-.503-.057-.336-.056-.39.056-.39v-.39l-.056-.448" fill="#fff"/><path d="m135.907 23.092c-.56-1.62-.726-2.736.056-.168.167.615.837.615.95 1.34.11.447.056 1.453.056 1.453s-.896-.168-1.007-1.006c-.11-.668.167-.948-.056-1.618z" stroke="#c8a564" stroke-linejoin="round" stroke-width=".457"/><path d="m135.852 25.16-.447-1.62.112.167.446 1.284.223.392.56.558.166.39.057.895v.558l-.45-.223-.334-.28-.167-.223-.113-.28v-.39l.056-.39v-.392l-.11-.446" fill="#fff"/><path d="m135.852 25.16c-.504-1.62-.67-2.682.11-.17.168.56.838.615.95 1.34.112.448.057 1.453.057 1.453s-.896-.223-1.007-1.005c-.11-.67.167-.95-.11-1.62z" stroke="#c8a564" stroke-linejoin="round" stroke-width=".457"/><path d="m135.907 27.225-.502-1.676.167.223.39 1.284.224.336.28.278.28.337.166.39.057.894v.56l-.45-.224-.334-.28-.167-.222-.057-.28-.056-.447.056-.335v-.39l-.056-.447" fill="#fff"/><path d="m135.907 27.225c-.56-1.676-.726-2.737.056-.168.167.56.837.614.95 1.34.11.448.056 1.453.056 1.453s-.896-.224-1.007-1.005c-.11-.67.167-.95-.056-1.62z" stroke="#c8a564" stroke-linejoin="round" stroke-width=".457"/><path d="m135.907 29.404-.502-1.676.167.223.39 1.23.224.39.28.28.28.28.166.446.057.893v.558l-.45-.224-.334-.28-.167-.222-.057-.28-.056-.446.056-.39v-.336l-.056-.446" fill="#fff"/><path d="m135.907 29.404c-.56-1.676-.726-2.794.056-.224.167.614.837.67.95 1.396.11.447.056 1.452.056 1.452s-.896-.224-1.007-1.005c-.11-.67.167-.95-.056-1.62z" stroke="#c8a564" stroke-linejoin="round" stroke-width=".457"/><path d="m138.643 23.092.447-1.62-.11.168-.392 1.284-.224.39-.278.225-.28.334-.168.39-.11.895v.557l.5-.168.336-.336.112-.167.112-.336v-.39l-.055-.39v-.39l.11-.448" fill="#fff"/><path d="m138.643 23.092c.56-1.62.67-2.736-.055-.168-.224.615-.78.615-.95 1.34-.11.447-.11 1.453-.11 1.453s.948-.168 1.06-1.006c.11-.668-.167-.948.055-1.618z" stroke="#c8a564" stroke-linejoin="round" stroke-width=".457"/><path d="m138.643 25.16.447-1.62-.11.167-.392 1.284-.224.392-.278.223-.28.335-.168.39-.055.895v.558l.446-.223.334-.28.17-.223.054-.28v-.78l-.055-.392.11-.446" fill="#fff"/><path d="m138.643 25.16c.56-1.62.67-2.738-.055-.17-.224.56-.78.615-.95 1.34-.11.448-.055 1.453-.055 1.453s.893-.223 1.005-1.005c.11-.67-.167-.95.055-1.62z" stroke="#c8a564" stroke-linejoin="round" stroke-width=".457"/><path d="m138.643 27.225.447-1.676-.11.223-.392 1.284-.224.336-.278.278-.28.337-.168.39-.11.894v.56l.5-.224.336-.28.112-.222.112-.28v-.782l-.055-.39.11-.447" fill="#fff"/><path d="m138.643 27.225c.56-1.676.67-2.737-.055-.168-.224.56-.78.614-.95 1.34-.11.448-.11 1.453-.11 1.453s.948-.224 1.06-1.005c.11-.67-.167-.95.055-1.62z" stroke="#c8a564" stroke-linejoin="round" stroke-width=".457"/><path d="m138.643 29.404.447-1.676-.11.223-.392 1.23-.224.39-.278.28-.28.28-.168.446-.11.893v.558l.5-.224.336-.28.112-.222.112-.28v-.837l-.055-.335z" fill="#fff"/><path d="m138.643 29.404c.56-1.676.67-2.794-.055-.224-.224.614-.78.67-.95 1.396-.11.447-.055 1.452-.055 1.452s.893-.224 1.005-1.005c.11-.67-.167-.95.055-1.62z" stroke="#c8a564" stroke-linejoin="round" stroke-width=".457"/><path d="m156.46 17.284h-.057l-.055.11-.056 1.062.056.727.055.112.056.055.112-.055.056-.112.11-.782-.055-.614-.055-.335-.056-.166h-.113" fill="#fff"/><path d="m156.46 17.284s-.112-.056-.168 1.172c0 .615.167.894.167.894s.223-.112.278-.95c0-1.06-.28-1.116-.28-1.116z" stroke="#c8a564" stroke-width=".457"/><path d="m156.46 15.218h-.057l-.055.11-.056 1.062.056.726.055.112.056.056.112-.056.056-.056.11-.838-.055-.614-.055-.335-.056-.167h-.113" fill="#fff"/><path d="m156.46 15.218s-.112-.057-.168 1.172c0 .614.167.894.167.894s.223-.112.278-.95c0-1.06-.28-1.116-.28-1.116z" stroke="#c8a564" stroke-width=".457"/><path d="m156.46 12.704-.057.057-.055.28-.056 1.284.056.67.055.167.056.058h.112l.056-.168.055-.782-.055-1.116-.113-.336-.056-.112" fill="#fff"/><path d="m156.46 12.704s-.168.335-.168 1.62c0 .614.167.894.167.894s.223-.168.223-.95c0-1.06-.224-1.564-.224-1.564z" stroke="#c8a564" stroke-linejoin="round" stroke-width=".457"/><path d="m155.23 10.526-.446-1.675.11.225.392 1.283.224.39.28.45.39.557.057.893v.56h-.17l-.334-.17-.334-.334-.17-.223-.055-.278.056-.447v-.39l.113-.392-.112-.447" fill="#fff"/><path d="m155.23 10.526c-.5-1.62-.67-2.737.056-.168.224.615.838 1.23.895 1.397.057.447.057 1.452.057 1.452s-.95-.168-1.062-1.005c-.055-.67.335-1.005.056-1.676z" stroke="#c8a564" stroke-linejoin="round" stroke-width=".457"/><path d="m156.962 11.084-.224-.558-.11-.39-.113-.39-.056-2.292-.112 2.346-.167.67-.168.67.056.28.113.28.057.223.055.28.056.724.055.225.056.055h.055l.113-.224.055-.837.055-.335.057-.223.167-.278z" fill="#fff"/><path d="m156.962 11.084c0-.223-.39-.893-.447-1.34 0-.278-.056-2.29-.056-2.29s-.057 1.955-.112 2.346c-.056.39-.336 1.005-.336 1.34 0 .392.28.615.28 1.062 0 .56.167 1.005.167 1.005s.168-.28.223-1.06c0-.448.335-.672.28-1.063z" stroke="#c8a564" stroke-linejoin="round" stroke-width=".457"/><path d="m156.46 19.35h-.057l-.055.168-.056 1.117.056.67.055.167.112.056.057-.056.056-.167.055-.726v-.783l-.055-.335-.056-.112h-.113" fill="#fff"/><path d="m156.46 19.35s-.168 0-.168 1.285c0 .614.223.893.223.893s.168-.167.168-.95c.055-1.34-.224-1.228-.224-1.228z" stroke="#c8a564" stroke-width=".457"/><path d="m156.46 21.528h-.057l-.055.112-.056 1.005.056.726.055.225.056.056.112-.055.056-.224.055-.78v-.614l-.055-.28-.113-.11-.056-.058" fill="#fff"/><path d="m156.46 21.528s-.168-.167-.168 1.117c0 .56.167 1.006.167 1.006s.223-.28.223-1.06c.055-1.062-.224-1.062-.224-1.062z" stroke="#c8a564" stroke-width=".457"/><path d="m155.12 12.648-.448-1.675.057.224.445 1.284.224.336.277.28.28.28.167.445.113.895v.558l-.17-.055-.334-.112-.334-.336-.17-.223-.055-.28v-.446l.056-.39v-.335l-.11-.447" fill="#fff"/><path d="m155.12 12.648c-.503-1.62-.727-2.736.055-.167.168.615.837.672 1.006 1.34.057.448.057 1.453.057 1.453s-.95-.167-1.062-1.005c-.055-.615.168-1.005-.055-1.62z" stroke="#c8a564" stroke-linejoin="round" stroke-width=".457"/><path d="m155.175 14.715-.503-1.676.057.167.5 1.284.17.393.277.278.28.28.224.392.057.894v.613l-.504-.168-.334-.39-.17-.168v-.28l-.055-.447.056-.39v-.336l-.055-.445" fill="#fff"/><path d="m155.175 14.715c-.558-1.62-.782-2.737.056-.224.113.616.782.67.95 1.342.057.502.057 1.507.057 1.507s-.95-.168-1.006-1.006c-.11-.67.113-1.005-.055-1.62z" stroke="#c8a564" stroke-linejoin="round" stroke-width=".457"/><path d="m155.12 16.726-.448-1.62.057.167.445 1.285.224.39.277.28.28.28.167.39.113.894v.615l-.504-.17-.334-.39-.17-.167-.055-.28v-.446l.056-.39v-.336l-.11-.502" fill="#fff"/><path d="m155.12 16.726c-.503-1.565-.727-2.682.055-.168.168.614.837.67 1.006 1.34.057.503.057 1.51.057 1.51s-.95-.17-1.062-1.007c-.055-.67.168-1.005-.055-1.674z" stroke="#c8a564" stroke-linejoin="round" stroke-width=".457"/><path d="m155.175 18.792-.503-1.62.057.167.5 1.284.17.39.277.224.28.335.224.39.057.895v.558l-.504-.167-.334-.336-.17-.167v-.335l-.055-.392.056-.39v-.392l-.055-.446" fill="#fff"/><path d="m155.175 18.792c-.558-1.564-.782-2.68.056-.168.113.614.782.614.95 1.34.057.448.057 1.452.057 1.452s-.95-.167-1.006-1.004c-.11-.67.113-.95-.055-1.62z" stroke="#c8a564" stroke-linejoin="round" stroke-width=".457"/><path d="m155.175 20.97-.503-1.675.057.223.5 1.23.17.445.277.223.28.335.224.392.057.895v.558l-.504-.224-.334-.278-.17-.224v-.278l-.055-.39.056-.45v-.334l-.055-.446" fill="#fff"/><path d="m155.175 20.97c-.558-1.62-.782-2.737.056-.223.113.614.782.67.95 1.395.057.448.057 1.453.057 1.453s-.95-.224-1.006-1.005c-.11-.67.113-.95-.055-1.62z" stroke="#c8a564" stroke-linejoin="round" stroke-width=".457"/><path d="m157.744 10.526.447-1.675-.11.225-.392 1.283-.223.39-.224.45-.39.557-.112.893v.56l.503-.17.392-.334.112-.223.056-.278v-.447l-.112-.782.056-.447" fill="#fff"/><path d="m157.744 10.526c.503-1.62.67-2.737-.056-.168-.223.615-.782 1.23-.838 1.397-.112.447-.112 1.452-.112 1.452s1.006-.168 1.062-1.005c.112-.67-.28-1.005-.056-1.676z" stroke="#c8a564" stroke-linejoin="round" stroke-width=".457"/><path d="m157.856 12.648.447-1.675-.056.224-.447 1.284-.168.336-.335.28-.28.28-.167.445-.112.895v.558l.503-.167.392-.336.112-.223.056-.28v-.446l-.056-.39v-.335l.112-.447" fill="#fff"/><path d="m157.856 12.648c.56-1.62.725-2.736-.056-.167-.168.615-.782.672-.95 1.34-.112.448-.112 1.453-.112 1.453s1.006-.167 1.062-1.005c.112-.615-.112-1.005.056-1.62z" stroke="#c8a564" stroke-linejoin="round" stroke-width=".457"/><path d="m157.856 14.715.447-1.676-.056.167-.447 1.284-.168.393-.335.278-.28.28-.167.392-.112.894v.613l.503-.168.392-.39.112-.168.056-.28v-.447l-.056-.39v-.336l.112-.445" fill="#fff"/><path d="m157.856 14.715c.56-1.62.725-2.737-.056-.224-.168.616-.782.67-.95 1.342-.112.502-.112 1.507-.112 1.507s1.006-.168 1.062-1.006c.112-.67-.168-1.005.056-1.62z" stroke="#c8a564" stroke-linejoin="round" stroke-width=".457"/><path d="m157.856 16.726.447-1.62-.056.167-.447 1.285-.168.39-.335.28-.223.28-.224.39-.112.894v.615l.503-.17.392-.39.112-.167.056-.28v-.837l-.056-.335.112-.502" fill="#fff"/><path d="m157.856 16.726c.56-1.565.725-2.682-.056-.168-.168.614-.782.67-.95 1.34-.112.503-.112 1.51-.112 1.51s1.006-.17 1.062-1.007c.112-.67-.112-1.005.056-1.674z" stroke="#c8a564" stroke-linejoin="round" stroke-width=".457"/><path d="m157.856 18.792.447-1.62-.056.167-.447 1.284-.168.39-.335.224-.28.335-.167.39-.112.895v.558l.503-.167.392-.336.112-.167.056-.335v-.392l-.056-.39v-.392l.112-.446" fill="#fff"/><path d="m157.856 18.792c.56-1.62.725-2.736-.056-.168-.168.614-.782.614-.95 1.34-.112.448-.112 1.452-.112 1.452s1.006-.167 1.062-1.004c.112-.67-.112-.95.056-1.62z" stroke="#c8a564" stroke-linejoin="round" stroke-width=".457"/><path d="m157.856 20.97.447-1.675-.056.223-.447 1.23-.168.445-.335.223-.28.335-.167.392-.112.895v.558l.503-.224.392-.278.112-.224.056-.278v-.39l-.056-.45v-.334l.112-.446" fill="#fff"/><path d="m157.856 20.97c.56-1.62.725-2.737-.056-.223-.168.614-.782.67-.95 1.395-.112.503-.112 1.453-.112 1.453s1.006-.224 1.062-1.005c.112-.67-.112-.95.056-1.62z" stroke="#c8a564" stroke-linejoin="round" stroke-width=".457"/><path d="m156.348 25.717h-.056l-.055.11v1.733l.055.168.11.055.057-.055.055-.112.113-.782-.056-.615-.057-.335-.056-.168h-.112" fill="#fff"/><path d="m156.348 25.717s-.11-.056-.11 1.173c0 .614.165.893.165.893s.17-.112.225-.95c0-1.06-.28-1.116-.28-1.116z" stroke="#c8a564" stroke-width=".457"/><path d="m156.348 23.65h-.056l-.055.112v1.732l.055.223h.167l.055-.168.113-.783-.056-.558-.057-.392-.056-.11-.112-.057" fill="#fff"/><path d="m156.348 23.65s-.11-.055-.11 1.173c0 .615.11.894.11.894s.224-.112.28-.95c0-1.06-.28-1.116-.28-1.116z" stroke="#c8a564" stroke-width=".457"/><path d="m156.403 27.783h-.11l-.056.168v1.788l.055.167.11.057.057-.057.055-.167.057-.726v-.782l-.057-.335-.056-.112h-.057" fill="#fff"/><path d="m156.403 27.783s-.166-.055-.166 1.285c0 .614.166.894.166.894s.17-.224.17-.95c.055-1.284-.17-1.23-.17-1.23z" stroke="#c8a564" stroke-width=".457"/><path d="m156.348 29.962h-.056l-.055.056v1.73l.055.224.056.11.11-.054.057-.224.057-.78v-.615l-.057-.28-.112-.168h-.055" fill="#fff"/><path d="m156.348 29.962s-.11-.224-.11 1.116c0 .615.11 1.005.11 1.005s.224-.335.224-1.06c.056-1.06-.224-1.06-.224-1.06z" stroke="#c8a564" stroke-width=".457"/><path d="m155.063 23.148-.502-1.676.17.224.39 1.228.166.39.335.28.226.28.222.39.056.95v.503l-.447-.168-.39-.336-.112-.167-.055-.336-.057-.39.057-.39v-.335l-.057-.447" fill="#fff"/><path d="m155.063 23.148c-.558-1.676-.782-2.792.057-.224.11.615.78.67.948 1.34.113.447.056 1.453.056 1.453s-.893-.168-1.004-1.006c-.112-.613.11-.948-.057-1.562z" stroke="#c8a564" stroke-linejoin="round" stroke-width=".457"/><path d="m155.008 25.214-.447-1.675.112.167.448 1.284.166.392.28.28.28.278.222.39.056.895v.558l-.447-.167-.39-.335-.112-.166-.112-.336v-.39l.057-.392v-.335l-.112-.446" fill="#fff"/><path d="m155.008 25.214c-.503-1.62-.727-2.736.112-.223.11.615.78.67.948 1.34.113.448.056 1.453.056 1.453s-.893-.167-1.004-1.005c-.112-.614.11-.95-.112-1.564z" stroke="#c8a564" stroke-linejoin="round" stroke-width=".457"/><path d="m155.063 27.225-.502-1.62.17.168.39 1.284.166.336.335.335.226.28.222.39.056.893v.56l-.447-.168-.39-.335-.112-.167-.055-.335-.057-.448.057-.335v-.334l-.057-.503" fill="#fff"/><path d="m155.063 27.225c-.558-1.62-.782-2.737.057-.168.11.614.78.67.948 1.34.113.448.056 1.453.056 1.453s-.893-.168-1.004-1.005c-.112-.615.11-.95-.057-1.62z" stroke="#c8a564" stroke-linejoin="round" stroke-width=".457"/><path d="m155.063 29.404-.502-1.676.17.223.39 1.285.166.336.335.28.226.335.222.39.056.894v.558l-.447-.224-.39-.28-.112-.222-.055-.28-.057-.446.057-.336v-.39l-.057-.446" fill="#fff"/><path d="m155.063 29.404c-.558-1.676-.782-2.738.057-.17.11.56.78.616.948 1.342.113.447.056 1.452.056 1.452s-.893-.224-1.004-1.005c-.112-.67.11-.95-.057-1.62z" stroke="#c8a564" stroke-linejoin="round" stroke-width=".457"/><path d="m157.744 23.148.503-1.676-.112.224-.39 1.228-.225.39-.28.28-.334.28-.168.39-.055.95v.503l.503-.168.334-.336.112-.167.112-.336v-.39l-.056-.39v-.335z" fill="#fff"/><path d="m157.744 23.148c.56-1.676.726-2.792 0-.224-.224.615-.838.67-1.006 1.34-.055.447-.055 1.453-.055 1.453s.95-.168 1.06-1.006c.057-.613-.166-.948 0-1.562z" stroke="#c8a564" stroke-linejoin="round" stroke-width=".457"/><path d="m157.744 25.214.503-1.675-.112.167-.39 1.284-.225.392-.28.28-.278.278-.224.39v1.453l.448-.167.334-.335.168-.166.056-.336v-.782l-.056-.335.056-.446" fill="#fff"/><path d="m157.744 25.214c.56-1.675.726-2.792 0-.223-.224.615-.838.67-1.006 1.34-.055.448 0 1.453 0 1.453s.894-.167 1.006-1.005c.056-.614-.167-.95 0-1.564z" stroke="#c8a564" stroke-linejoin="round" stroke-width=".457"/><path d="m157.744 27.225.503-1.62-.112.168-.39 1.284-.225.336-.28.335-.278.28-.224.39-.055.893v.56l.503-.168.334-.335.112-.167.112-.335v-.783l-.056-.334.056-.503" fill="#fff"/><path d="m157.744 27.225c.56-1.62.726-2.737 0-.168-.224.614-.838.67-1.006 1.34-.055.448-.055 1.453-.055 1.453s.95-.168 1.06-1.005c.057-.615-.166-.95 0-1.62z" stroke="#c8a564" stroke-linejoin="round" stroke-width=".457"/><path d="m157.744 29.404.503-1.676-.112.223-.39 1.285-.225.336-.28.28-.278.335-.224.39-.055.894v.558l.503-.224.334-.28.112-.222.112-.28v-.782l-.056-.39.056-.446" fill="#fff"/><path d="m157.744 29.404c.56-1.676.726-2.738 0-.17-.224.56-.838.616-1.006 1.342-.055.447 0 1.452 0 1.452s.894-.224 1.006-1.005c.056-.67-.167-.95 0-1.62z" stroke="#c8a564" stroke-linejoin="round" stroke-width=".457"/><path d="m147.02 75.87h-.055l-.056-.113-.057-1.06.056-.67.055-.17.056-.054.057.055.056.168.112.727-.056.614-.057.334-.056.17h-.056" fill="#fff"/><path d="m147.02 75.87s-.11.11-.167-1.174c0-.614.168-.893.168-.893s.17.167.225.95c0 1.06-.224 1.117-.224 1.117z" stroke="#c8a564" stroke-width=".457"/><path d="m147.02 77.99h-.055l-.056-.166-.057-1.062.056-.726.055-.11.056-.056.057.055.056.11.112.784-.056.613-.057.335-.056.168-.056.055" fill="#fff"/><path d="m147.02 77.99s-.11.058-.167-1.228c0-.614.168-.892.168-.892s.17.166.225.95c0 1.06-.224 1.17-.224 1.17z" stroke="#c8a564" stroke-width=".457"/><path d="m147.02 80.448-.055-.055-.056-.28-.057-1.283.056-.67.055-.112.056-.057h.057l.056.113.056.782-.057 1.172-.112.28v.11" fill="#fff"/><path d="m147.02 80.448s-.167-.335-.167-1.618c0-.616.168-.84.168-.84s.17.113.17.895c0 1.062-.17 1.563-.17 1.563z" stroke="#c8a564" stroke-linejoin="round" stroke-width=".457"/><path d="m145.792 82.627-.447 1.675.112-.223.39-1.285.17-.39.334-.448.336-.56.056-.837v-.613l-.168.055-.278.11-.336.336-.168.224-.112.28.056.446.056.39.113.392-.113.447" fill="#fff"/><path d="m145.792 82.627c-.502 1.62-.725 2.736.056.168.168-.615.782-1.23.838-1.397.112-.447.056-1.45.056-1.45s-.894.165-1.062 1.003c-.055.672.336 1.063.112 1.677z" stroke="#c8a564" stroke-linejoin="round" stroke-width=".457"/><path d="m147.524 82.068-.224.56-.167.445-.112.335v2.29l-.11-2.345-.224-.67-.167-.615.054-.334.112-.224.112-.28.055-.223.056-.782.055-.168.056-.11v.055l.113.167.056.893.055.28.112.223.167.28v.222" fill="#fff"/><path d="m147.524 82.068c0 .223-.447.95-.503 1.34v2.29s-.055-1.955-.11-2.345c-.057-.336-.39-1.005-.39-1.285 0-.446.333-.67.333-1.06 0-.615.168-1.06.168-1.06s.113.277.17 1.115c0 .447.334.614.334 1.005z" stroke="#c8a564" stroke-linejoin="round" stroke-width=".457"/><path d="m147.02 73.803h-.055l-.056-.168-.057-1.116.056-.67.055-.17.056-.056.057.057.056.17.056.725v.78l-.057.336-.056.113h-.056" fill="#fff"/><path d="m147.02 73.803s-.167 0-.167-1.284c0-.56.168-.896.168-.896s.17.168.17.95c.055 1.34-.17 1.23-.17 1.23z" stroke="#c8a564" stroke-width=".457"/><path d="m147.02 71.624h-.055l-.056-.11-.057-1.006.056-.727.055-.222.056-.056.057.056.056.223.056.783v.615l-.057.335-.112.055v.056" fill="#fff"/><path d="m147.02 71.624s-.167.168-.167-1.116c0-.56.168-1.006.168-1.006s.17.28.17 1.06c.055 1.062-.17 1.062-.17 1.062z" stroke="#c8a564" stroke-width=".457"/><path d="m145.625 80.56-.446 1.62.11-.167.39-1.34.28-.335.223-.28.336-.28.11-.447.112-.89v-.56l-.168.056-.278.112-.336.334-.168.223-.112.28v.446l.056.392v.335l-.11.503" fill="#fff"/><path d="m145.625 80.56c-.502 1.565-.67 2.682.055.112.225-.615.84-.615 1.006-1.34.056-.447.056-1.452.056-1.452s-.894.168-1.062 1.005c-.055.67.225 1.006-.055 1.675z" stroke="#c8a564" stroke-linejoin="round" stroke-width=".457"/><path d="m145.68 78.494-.5 1.62.11-.167.446-1.285.224-.39.223-.224.336-.336.166-.39.056-.895v-.613l-.446.222-.336.335-.168.17-.056.28-.056.445.056.39v.393l-.056.446" fill="#fff"/><path d="m145.68 78.494c-.557 1.563-.726 2.68.056.168.17-.614.783-.614.95-1.34.112-.503.056-1.508.056-1.508s-.894.222-1.006 1.005c-.11.724.17 1.004-.056 1.674z" stroke="#c8a564" stroke-linejoin="round" stroke-width=".457"/><path d="m145.625 76.427-.446 1.62.11-.167.39-1.284.28-.39.223-.225.336-.335.11-.39.112-.894v-.613l-.446.223-.336.335-.168.224-.112.223v.446l.056.39v.39l-.11.447" fill="#fff"/><path d="m145.625 76.427c-.502 1.62-.67 2.682.055.17.225-.56.84-.672 1.006-1.342.056-.502.056-1.508.056-1.508s-.894.223-1.062 1.006c-.055.725.225 1.004-.055 1.674z" stroke="#c8a564" stroke-linejoin="round" stroke-width=".457"/><path d="m145.68 74.36-.5 1.676.11-.222.446-1.285.224-.392.223-.224.336-.335.166-.392.056-.893v-.558l-.446.222-.336.28-.168.222-.056.28-.056.39.056.392v.39l-.056.447" fill="#fff"/><path d="m145.68 74.36c-.557 1.62-.726 2.682.056.17.17-.56.783-.616.95-1.342.112-.447.056-1.45.056-1.45s-.894.22-1.006 1.003c-.11.672.17.95-.056 1.62z" stroke="#c8a564" stroke-linejoin="round" stroke-width=".457"/><path d="m145.68 72.184-.5 1.674.11-.223.446-1.23.224-.39.223-.278.336-.28.166-.447.056-.893v-.56l-.446.224-.336.28-.168.224-.056.28-.056.446.056.39v.337l-.056.447" fill="#fff"/><path d="m145.68 72.184c-.557 1.62-.726 2.735.056.222.17-.614.783-.67.95-1.396.112-.447.056-1.452.056-1.452s-.894.223-1.006 1.005c-.11.67.17.95-.056 1.62z" stroke="#c8a564" stroke-linejoin="round" stroke-width=".457"/><path d="m148.25 82.627.446 1.675-.11-.223-.392-1.285-.167-.39-.28-.448-.335-.56-.112-.837v-.613l.503.166.336.335.11.224.112.28v.446l-.113.39-.056.392.055.447" fill="#fff"/><path d="m148.25 82.627c.56 1.62.726 2.736-.056.168-.167-.615-.726-1.23-.782-1.397-.167-.447-.112-1.45-.112-1.45s.95.165 1.062 1.003c.112.672-.335 1.063-.113 1.677z" stroke="#c8a564" stroke-linejoin="round" stroke-width=".457"/><path d="m148.418 80.56.447 1.62-.113-.167-.39-1.34-.223-.335-.28-.28-.336-.28-.112-.447-.112-.89v-.56l.503.168.336.334.11.223.112.28v.446l-.057.392v.335l.113.503" fill="#fff"/><path d="m148.418 80.56c.558 1.565.67 2.682-.056.112-.223-.615-.838-.615-.95-1.34-.112-.447-.112-1.452-.112-1.452s.95.168 1.062 1.005c.112.67-.168 1.006.056 1.675z" stroke="#c8a564" stroke-linejoin="round" stroke-width=".457"/><path d="m148.418 78.494.447 1.62-.113-.167-.39-1.285-.223-.39-.28-.224-.336-.336-.112-.39-.112-.895v-.613l.503.222.336.335.11.17.112.28v.445l-.057.39v.393l.113.446" fill="#fff"/><path d="m148.418 78.494c.558 1.563.67 2.68-.056.168-.223-.614-.838-.614-.95-1.34-.112-.503-.112-1.508-.112-1.508s.95.222 1.062 1.005c.112.724-.223 1.004.056 1.674z" stroke="#c8a564" stroke-linejoin="round" stroke-width=".457"/><path d="m148.418 76.427.447 1.62-.113-.167-.39-1.284-.223-.39-.28-.225-.28-.335-.168-.39-.112-.894v-.613l.503.223.336.335.11.224.112.223v.837l-.057.39.113.447" fill="#fff"/><path d="m148.418 76.427c.558 1.62.67 2.682-.056.17-.223-.56-.838-.672-.95-1.342-.112-.502-.112-1.508-.112-1.508s.95.223 1.062 1.006c.112.725-.168 1.004.056 1.674z" stroke="#c8a564" stroke-linejoin="round" stroke-width=".457"/><path d="m148.418 74.36.447 1.676-.113-.222-.39-1.285-.223-.392-.28-.224-.336-.335-.112-.392-.112-.893v-.558l.503.222.336.28.11.222.112.28v.39l-.057.392v.39l.113.447" fill="#fff"/><path d="m148.418 74.36c.558 1.676.67 2.738-.056.17-.223-.56-.838-.616-.95-1.342-.112-.447-.112-1.45-.112-1.45s.95.22 1.062 1.003c.112.672-.168.95.056 1.62z" stroke="#c8a564" stroke-linejoin="round" stroke-width=".457"/><path d="m148.418 72.184.447 1.674-.113-.223-.39-1.23-.223-.39-.28-.278-.336-.28-.112-.447-.112-.893v-.56l.503.224.336.28.11.224.112.28v.446l-.057.39v.337l.113.447" fill="#fff"/><path d="m148.418 72.184c.558 1.62.67 2.735-.056.222-.223-.614-.838-.67-.95-1.396-.112-.502-.112-1.452-.112-1.452s.95.223 1.062 1.005c.112.67-.168.95.056 1.62z" stroke="#c8a564" stroke-linejoin="round" stroke-width=".457"/><path d="m146.91 67.492h-.057l-.055-.168-.056-1.06.056-.67.055-.17.112-.055.056.055v.113l.113.78-.056.615-.056.335v.168l-.11.056" fill="#fff"/><path d="m146.91 67.492s-.112 0-.168-1.23c0-.613.223-.893.223-.893s.112.11.168.95c0 1.06-.224 1.172-.224 1.172z" stroke="#c8a564" stroke-width=".457"/><path d="m146.91 69.502h-.057l-.055-.112-.056-1.06.056-.67.055-.168.056-.056.11.056v.112l.113.782-.056.614-.056.335v.167z" fill="#fff"/><path d="m146.91 69.502s-.112.056-.168-1.173c0-.615.167-.894.167-.894s.167.112.223.95c0 1.06-.224 1.116-.224 1.116z" stroke="#c8a564" stroke-width=".457"/><path d="m146.965 65.37h-.112l-.055-.167-.056-1.117.056-.615.055-.222.112-.057.056.058v.167l.057.726v.783l-.056.335v.11h-.055" fill="#fff"/><path d="m146.965 65.37s-.167.055-.223-1.284c0-.615.223-.895.223-.895s.112.225.112.95c.056 1.34-.112 1.23-.112 1.23z" stroke="#c8a564" stroke-width=".457"/><path d="m146.91 63.19h-.057l-.055-.054-.056-1.062.056-.67.055-.223.056-.11.11.055v.223l.057.782v.615l-.056.28-.055.166h-.056" fill="#fff"/><path d="m146.91 63.19s-.168.225-.168-1.116c0-.613.167-1.004.167-1.004s.167.335.167 1.06c.056 1.06-.168 1.06-.168 1.06z" stroke="#c8a564" stroke-width=".457"/><path d="m145.57 70.005-.503 1.676.167-.167.39-1.284.224-.392.28-.28.28-.28.166-.39.056-.893v-.56l-.447.17-.503.5-.055.337-.055.39.055.392v.334z" fill="#fff"/><path d="m145.57 70.005c-.56 1.676-.727 2.792.055.224.167-.615.837-.672.95-1.34.11-.448.055-1.454.055-1.454s-.894.168-1.005 1.006c-.11.613.167.948-.055 1.563z" stroke="#c8a564" stroke-linejoin="round" stroke-width=".457"/><path d="m145.514 67.995-.447 1.62.112-.17.445-1.282.223-.39.223-.28.337-.28.167-.39.056-.894v-.56l-.447.168-.503.5-.11.337v.39l.055.392v.335l-.11.503" fill="#fff"/><path d="m145.514 67.995c-.504 1.563-.67 2.68.11.167.168-.614.838-.67.95-1.34.112-.447.056-1.453.056-1.453s-.894.168-1.005 1.005c-.11.614.167.95-.11 1.62z" stroke="#c8a564" stroke-linejoin="round" stroke-width=".457"/><path d="m145.57 65.93-.503 1.618.167-.168.39-1.285.224-.335.28-.28.28-.333.166-.39.056-.895v-.56l-.447.17-.335.334-.168.168-.055.335-.055.446.055.335v.39z" fill="#fff"/><path d="m145.57 65.93c-.56 1.618-.727 2.734.055.165.167-.614.837-.614.95-1.34.11-.446.055-1.452.055-1.452s-.894.168-1.005 1.006c-.11.668.167.948-.055 1.62z" stroke="#c8a564" stroke-linejoin="round" stroke-width=".457"/><path d="m145.57 63.75-.503 1.675.167-.222.39-1.23.224-.39.28-.28.28-.335.166-.39.056-.895v-.558l-.447.223-.335.28-.168.224-.055.278-.055.447.055.39v.336z" fill="#fff"/><path d="m145.57 63.75c-.56 1.675-.727 2.736.055.224.167-.615.837-.67.95-1.397.11-.447.055-1.452.055-1.452s-.894.223-1.005 1.005c-.11.67.167.95-.055 1.62z" stroke="#c8a564" stroke-linejoin="round" stroke-width=".457"/><path d="m148.305 70.005.447 1.676-.112-.167-.39-1.284-.223-.392-.28-.28-.28-.28-.167-.39-.11-.893v-.56l.5.17.337.333.112.168.11.336v.39l-.056.392v.334l.11.447" fill="#fff"/><path d="m148.305 70.005c.56 1.676.726 2.792-.056.224-.223-.615-.782-.672-.95-1.34-.11-.448-.11-1.454-.11-1.454s.95.168 1.06 1.006c.112.613-.168.948.055 1.563z" stroke="#c8a564" stroke-linejoin="round" stroke-width=".457"/><path d="m148.305 67.995.447 1.62-.112-.17-.39-1.282-.223-.39-.28-.28-.223-.28-.224-.39-.055-.894v-.56l.446.168.337.334.167.167.055.335v.782l-.056.335.11.503" fill="#fff"/><path d="m148.305 67.995c.56 1.62.726 2.736-.056.167-.223-.614-.782-.67-.95-1.34-.11-.447-.055-1.453-.055-1.453s.894.168 1.004 1.005c.112.614-.168.95.055 1.62z" stroke="#c8a564" stroke-linejoin="round" stroke-width=".457"/><path d="m148.305 65.93.447 1.618-.112-.168-.39-1.285-.223-.335-.28-.28-.223-.333-.224-.39-.11-.895v-.56l.5.17.337.334.112.168.11.335v.78l-.056.39.11.45" fill="#fff"/><path d="m148.305 65.93c.56 1.618.726 2.734-.056.165-.223-.614-.782-.614-.95-1.34-.11-.446-.11-1.452-.11-1.452s.95.168 1.06 1.006c.112.668-.168.948.055 1.62z" stroke="#c8a564" stroke-linejoin="round" stroke-width=".457"/><path d="m148.305 63.75.447 1.675-.112-.222-.39-1.23-.223-.39-.28-.28-.223-.335-.224-.39-.11-.895v-.558l.5.223.337.28.112.224.11.278v.838l-.056.335.11.447" fill="#fff"/><path d="m148.305 63.75c.56 1.675.726 2.736-.056.224-.223-.615-.782-.67-.95-1.397-.11-.447-.055-1.452-.055-1.452s.894.223 1.004 1.005c.112.67-.168.95.055 1.62z" stroke="#c8a564" stroke-linejoin="round" stroke-width=".457"/><path d="m146.965 45.934.112.112v14.854l-.112.114-.223-.113v-14.854l.223-.112z" stroke="#c8a564" stroke-width=".457"/><path d="m137.303 69h-.056l-.055-.11v-1.733l.055-.168.056-.057.112.056.056.167.113.725-.056.615-.056.336-.055.167h-.112" fill="#fff"/><path d="m137.303 69s-.11.11-.11-1.173c0-.56.11-.894.11-.894s.224.168.28.95c0 1.06-.28 1.117-.28 1.117z" stroke="#c8a564" stroke-width=".457"/><path d="m137.303 71.122h-.056l-.055-.167v-1.73l.055-.17.056-.055.112.055.056.112.113.782-.056.613-.056.336-.055.167-.112.055" fill="#fff"/><path d="m137.303 71.122s-.11.056-.11-1.23c0-.613.11-.892.11-.892s.224.167.28.95c0 1.06-.28 1.172-.28 1.172z" stroke="#c8a564" stroke-width=".457"/><path d="m137.303 73.58-.056-.056-.055-.224v-2.01l.055-.112.056-.056h.112l.056.168.057.725-.056 1.173-.11.28-.057.11" fill="#fff"/><path d="m137.303 73.58s-.11-.28-.11-1.62c0-.614.11-.838.11-.838s.224.168.224.893c0 1.06-.224 1.564-.224 1.564z" stroke="#c8a564" stroke-linejoin="round" stroke-width=".457"/><path d="m136.13 75.814-.446 1.62.502-1.51.168-.39.335-.447.334-.558.057-.84v-.614l-.168.056-.278.168-.39.28-.114.223-.11.28.054.446.056.39.056.39-.056.504" fill="#fff"/><path d="m136.13 75.814c-.502 1.563-.725 2.68.056.11.168-.614.783-1.17.838-1.395.112-.448.057-1.454.057-1.454s-.894.224-1.06 1.006c-.057.726.334 1.062.11 1.732z" stroke="#c8a564" stroke-linejoin="round" stroke-width=".457"/><path d="m137.807 75.255-.17.56-.166.39-.11.334-.057 2.29-.11-2.347-.17-.67-.166-.614.055-.336.112-.223.112-.28.056-.222v-.782l.055-.168.056-.112.056.056.11.168.057.894.056.28.112.28.112.222z" fill="#fff"/><path d="m137.807 75.255c0 .168-.392.893-.448 1.284 0 .28-.057 2.29-.057 2.29s-.056-1.956-.11-2.347c0-.335-.336-1.005-.336-1.284 0-.392.335-.67.335-1.062 0-.614.11-1.062.11-1.062s.17.28.225 1.118c0 .447.335.614.28 1.06z" stroke="#c8a564" stroke-linejoin="round" stroke-width=".457"/><path d="m137.303 66.933h-.056l-.055-.167v-1.788l.055-.167.112-.054.055.055.056.168.057.782v.726l-.056.336-.055.11h-.112" fill="#fff"/><path d="m137.303 66.933s-.11 0-.11-1.23c0-.612.166-.947.166-.947s.167.167.167 1.004c.056 1.285-.224 1.173-.224 1.173z" stroke="#c8a564" stroke-width=".457"/><path d="m137.303 64.756h-.056l-.055-.056v-1.788l.055-.167.056-.056.112.055.056.167.057.838v.56l-.056.333-.11.113h-.057" fill="#fff"/><path d="m137.303 64.756s-.11.167-.11-1.062c0-.614.11-1.005.11-1.005s.224.222.224 1.06c.056 1.006-.224 1.006-.224 1.006z" stroke="#c8a564" stroke-width=".457"/><path d="m135.963 73.69-.446 1.62.11-.166.392-1.34.223-.337.278-.223.28-.334.17-.448.11-.894v-.558l-.168.057-.278.166-.39.28-.114.28-.11.222v.447l.054.39v.392l-.11.447" fill="#fff"/><path d="m135.963 73.69c-.503 1.62-.725 2.68.056.113.166-.56.837-.615 1.004-1.34.057-.448.057-1.453.057-1.453s-.894.223-1.06 1.005c-.057.67.166 1.006-.057 1.676z" stroke="#c8a564" stroke-linejoin="round" stroke-width=".457"/><path d="m136.02 71.624-.503 1.676.11-.224.447-1.284.17-.39.277-.224.28-.335.224-.39.057-.895v-.614l-.446.223-.39.335-.114.224-.056.223-.055.446.054.39v.392l-.055.446" fill="#fff"/><path d="m136.02 71.624c-.56 1.62-.782 2.68.054.168.112-.56.783-.614.95-1.34.112-.503.057-1.508.057-1.508s-.894.223-1.006 1.005c-.11.725.112 1.005-.055 1.674z" stroke="#c8a564" stroke-linejoin="round" stroke-width=".457"/><path d="m135.963 69.558-.446 1.675.11-.223.392-1.23.223-.445.278-.224.28-.334.17-.39.11-.894v-.615l-.446.224-.39.336-.114.224-.11.222v.447l.054.446v.335l-.11.448" fill="#fff"/><path d="m135.963 69.558c-.503 1.62-.725 2.737.056.223.166-.613.837-.725 1.004-1.394.057-.504.057-1.51.057-1.51s-.894.225-1.06 1.006c-.057.727.166 1.007-.057 1.676z" stroke="#c8a564" stroke-linejoin="round" stroke-width=".457"/><path d="m136.02 67.492-.503 1.675.11-.223.447-1.23.17-.446.277-.223.28-.28.224-.446.057-.895v-.558l-.446.224-.39.28-.114.223-.056.28-.055.39.054.447v.335z" fill="#fff"/><path d="m136.02 67.492c-.56 1.62-.782 2.737.054.223.112-.614.783-.67.95-1.396.112-.448.057-1.453.057-1.453s-.894.224-1.006 1.005c-.11.67.112.95-.055 1.62z" stroke="#c8a564" stroke-linejoin="round" stroke-width=".457"/><path d="m136.02 65.314-.503 1.675.11-.224.447-1.228.17-.39.556-.56.224-.392.057-.948v-.503l-.446.167-.39.336-.114.167-.056.335-.055.39.054.392v.335l-.055.447" fill="#fff"/><path d="m136.02 65.314c-.56 1.62-.782 2.737.054.224.112-.615.783-.67.95-1.342.112-.446.057-1.45.057-1.45s-.894.166-1.006 1.004c-.11.615.112.95-.055 1.564z" stroke="#c8a564" stroke-linejoin="round" stroke-width=".457"/><path d="m138.588 75.814.447 1.62-.11-.17-.392-1.34-.224-.39-.224-.447-.39-.558-.058-.84v-.614l.503.224.336.28.112.223.11.28v.446l-.11.39-.055.39.055.504" fill="#fff"/><path d="m138.588 75.814c.56 1.563.67 2.68-.055.11-.224-.614-.783-1.17-.838-1.395-.112-.448-.057-1.454-.057-1.454s.95.224 1.06 1.006c.057.726-.334 1.062-.11 1.732z" stroke="#c8a564" stroke-linejoin="round" stroke-width=".457"/><path d="m138.7 73.69.503 1.62-.113-.166-.39-1.34-.224-.337-.28-.223-.334-.334-.167-.448-.057-.894v-.558l.503.223.336.28.112.28.11.222v.447l-.055.39v.392l.056.447" fill="#fff"/><path d="m138.7 73.69c.558 1.62.726 2.68 0 .113-.224-.56-.838-.615-1.005-1.34-.057-.448-.057-1.453-.057-1.453s.95.223 1.06 1.005c.057.67-.165 1.006 0 1.676z" stroke="#c8a564" stroke-linejoin="round" stroke-width=".457"/><path d="m138.7 71.624.503 1.676-.113-.224-.39-1.284-.224-.39-.28-.224-.334-.335-.167-.39-.057-.895v-.614l.503.223.336.335.112.224.11.223v.446l-.055.39v.392l.056.446" fill="#fff"/><path d="m138.7 71.624c.558 1.62.726 2.68 0 .168-.224-.56-.838-.614-1.005-1.34-.057-.503-.057-1.508-.057-1.508s.95.223 1.06 1.005c.057.725-.222 1.005 0 1.674z" stroke="#c8a564" stroke-linejoin="round" stroke-width=".457"/><path d="m138.7 69.558.503 1.675-.113-.223-.39-1.23-.224-.445-.28-.224-.278-.334-.223-.39-.057-.894v-.615l.503.224.336.336.112.224.11.222v.894l-.055.335.056.448" fill="#fff"/><path d="m138.7 69.558c.558 1.62.726 2.737 0 .223-.224-.613-.838-.725-1.005-1.394-.057-.504-.057-1.51-.057-1.51s.95.225 1.06 1.006c.057.727-.165 1.007 0 1.676z" stroke="#c8a564" stroke-linejoin="round" stroke-width=".457"/><path d="m138.7 67.492.503 1.675-.113-.223-.39-1.23-.224-.446-.28-.223-.334-.28-.167-.446-.057-.895v-.558l.503.224.336.28.112.223.11.28v.39l-.055.447v.335z" fill="#fff"/><path d="m138.7 67.492c.558 1.675.726 2.792 0 .223-.224-.614-.838-.67-1.005-1.396-.057-.448-.057-1.453-.057-1.453s.95.224 1.06 1.005c.057.67-.165.95 0 1.62z" stroke="#c8a564" stroke-linejoin="round" stroke-width=".457"/><path d="m138.7 65.314.503 1.675-.113-.224-.39-1.228-.224-.39-.28-.28-.334-.28-.167-.392-.057-.948v-.503l.503.167.336.336.112.167.11.335v.39l-.055.392v.335l.056.447" fill="#fff"/><path d="m138.7 65.314c.558 1.62.726 2.737 0 .224-.224-.615-.838-.67-1.005-1.342-.057-.502-.057-1.45-.057-1.45s.95.166 1.06 1.004c.057.615-.165.95 0 1.564z" stroke="#c8a564" stroke-linejoin="round" stroke-width=".457"/><path d="m137.192 60.623-.056-.168-.055-1.06.056-.672.056-.166.055-.056.056.057.056.166.11.727-.055.614-.056.335-.057.167z" fill="#fff"/><path d="m137.192 60.623s-.056.056-.11-1.23c0-.614.165-.892.165-.892s.168.167.224.95c0 1.06-.278 1.173-.278 1.173z" stroke="#c8a564" stroke-width=".457"/><path d="m137.192 62.69-.056-.17-.055-1.06.056-.67.056-.167v-.056l.11.056.057.11.11.783-.055.614-.056.335-.057.168-.11.056" fill="#fff"/><path d="m137.192 62.69s-.056.055-.11-1.23c0-.614.11-.893.11-.893s.223.167.28.95c0 1.06-.28 1.172-.28 1.172z" stroke="#c8a564" stroke-width=".457"/><path d="m137.247 58.5h-.055l-.056-.167-.055-1.118.056-.614.056-.222.055-.056.056.056.056.168.055.725v.783l-.056.335-.057.113h-.056" fill="#fff"/><path d="m137.247 58.5s-.11.057-.166-1.285c0-.558.167-.893.167-.893s.168.224.168.95c.056 1.34-.168 1.23-.168 1.23z" stroke="#c8a564" stroke-width=".457"/><path d="m137.192 56.322-.056-.055-.055-1.062.056-.67.056-.224v-.055h.11l.057.225.055.78v.616l-.056.334-.113.112h-.055" fill="#fff"/><path d="m137.192 56.322s-.11.224-.11-1.117c0-.558.11-.95.11-.95s.223.28.223 1.006c.056 1.062-.223 1.062-.223 1.062z" stroke="#c8a564" stroke-width=".457"/><path d="m135.907 63.19-.502 1.62.167-.167.39-1.284.224-.392.28-.223.223-.336.222-.39.057-.895v-.558l-.45.167-.334.336-.167.166-.057.336-.056.39.056.39v.393l-.056.446" fill="#fff"/><path d="m135.907 63.19c-.56 1.62-.726 2.74.056.17.167-.615.782-.615.95-1.34.11-.448.056-1.453.056-1.453s-.896.167-1.007 1.005c-.11.67.167.95-.056 1.62z" stroke="#c8a564" stroke-linejoin="round" stroke-width=".457"/><path d="m135.852 61.125-.447 1.62.112-.168.446-1.285.223-.39.224-.223.28-.337.222-.39.057-.895v-.557l-.45.223-.334.28-.167.223-.113.28v.39l.056.39v.393l-.11.445" fill="#fff"/><path d="m135.852 61.125c-.504 1.62-.67 2.68.11.167.168-.558.783-.613.95-1.34.112-.447.057-1.45.057-1.45s-.896.22-1.007 1.003c-.11.67.167.95-.11 1.62z" stroke="#c8a564" stroke-linejoin="round" stroke-width=".457"/><path d="m135.907 59.058-.502 1.676.167-.224.39-1.284.224-.335.28-.278.223-.335.222-.39.057-.894v-.56l-.45.224-.334.28-.167.223-.057.28-.056.446.056.335v.392l-.056.446" fill="#fff"/><path d="m135.907 59.058c-.56 1.676-.726 2.737.056.168.167-.56.782-.614.95-1.34.11-.447.056-1.452.056-1.452s-.896.223-1.007 1.005c-.11.67.167.948-.056 1.618z" stroke="#c8a564" stroke-linejoin="round" stroke-width=".457"/><path d="m135.907 56.88-.502 1.677.167-.224.39-1.23.224-.39.28-.28.223-.278.222-.447.057-.894v-.56l-.45.226-.334.278-.167.223-.057.28-.056.448.056.39v.336l-.056.447" fill="#fff"/><path d="m135.907 56.88c-.56 1.677-.726 2.793.056.224.167-.614.782-.67.95-1.396.11-.447.056-1.453.056-1.453s-.896.225-1.007 1.006c-.11.67.167.95-.056 1.62z" stroke="#c8a564" stroke-linejoin="round" stroke-width=".457"/><path d="m138.643 63.19.447 1.62-.11-.167-.392-1.284-.224-.392-.278-.223-.336-.336-.112-.39-.11-.895v-.558l.5.167.336.336.112.166.112.336v.39l-.055.39v.393l.11.446" fill="#fff"/><path d="m138.643 63.19c.56 1.62.67 2.74-.055.17-.224-.615-.838-.615-.95-1.34-.11-.448-.11-1.453-.11-1.453s.948.167 1.06 1.005c.11.67-.167.95.055 1.62z" stroke="#c8a564" stroke-linejoin="round" stroke-width=".457"/><path d="m138.643 61.125.447 1.62-.11-.168-.392-1.285-.224-.39-.278-.223-.28-.337-.168-.39-.055-.895v-.557l.446.223.334.28.17.223.054.28v.78l-.055.393.11.445" fill="#fff"/><path d="m138.643 61.125c.56 1.62.67 2.737-.055.167-.224-.558-.838-.613-.95-1.34-.11-.447-.055-1.45-.055-1.45s.893.22 1.005 1.003c.11.67-.167.95.055 1.62z" stroke="#c8a564" stroke-linejoin="round" stroke-width=".457"/><path d="m138.643 59.058.447 1.676-.11-.224-.392-1.284-.224-.335-.278-.278-.28-.335-.168-.39-.11-.894v-.56l.5.224.336.28.112.223.112.28v.78l-.055.392.11.446" fill="#fff"/><path d="m138.643 59.058c.56 1.676.67 2.737-.055.168-.224-.56-.838-.614-.95-1.34-.11-.447-.11-1.452-.11-1.452s.948.223 1.06 1.005c.11.67-.167.948.055 1.618z" stroke="#c8a564" stroke-linejoin="round" stroke-width=".457"/><path d="m138.643 56.88.447 1.677-.11-.224-.392-1.23-.224-.39-.557-.558-.17-.447-.11-.894v-.56l.502.226.334.278.112.223.112.28v.84l-.055.334.11.447" fill="#fff"/><path d="m138.643 56.88c.56 1.677.67 2.793-.055.224-.224-.614-.838-.67-.95-1.396-.11-.447-.055-1.453-.055-1.453s.893.225 1.005 1.006c.11.67-.167.95.055 1.62z" stroke="#c8a564" stroke-linejoin="round" stroke-width=".457"/><path d="m156.46 69h-.057l-.055-.11-.056-1.063.056-.726.055-.11.056-.057.112.056v.11l.11.782-.054.615-.056.336v.167h-.113" fill="#fff"/><path d="m156.46 69s-.112.11-.168-1.173c0-.614.167-.894.167-.894s.168.168.223.95c0 1.06-.224 1.117-.224 1.117z" stroke="#c8a564" stroke-width=".457"/><path d="m156.46 71.122h-.057l-.055-.167-.056-1.062.056-.726.055-.112.056-.055.112.055v.056l.11.84-.054.613-.056.336v.167l-.113.055" fill="#fff"/><path d="m156.46 71.122s-.112 0-.168-1.23c0-.613.167-.892.167-.892s.168.11.223.95c0 1.06-.224 1.172-.224 1.172z" stroke="#c8a564" stroke-width=".457"/><path d="m156.46 73.58-.057-.056-.055-.28-.056-1.285.056-.67.055-.168h.17v.11l.055.783-.056 1.117-.057.335-.056.112" fill="#fff"/><path d="m156.46 73.58s-.168-.336-.168-1.62c0-.614.167-.838.167-.838s.168.11.168.893c0 1.06-.17 1.564-.17 1.564z" stroke="#c8a564" stroke-linejoin="round" stroke-width=".457"/><path d="m155.23 75.757-.446 1.676.11-.223.392-1.285.224-.39.28-.448.334-.558.057-.895v-.56h-.112l-.335.17-.334.334-.17.223-.11.28.055.446.056.39.113.39-.112.447" fill="#fff"/><path d="m155.23 75.757c-.5 1.62-.67 2.737.056.168.224-.615.782-1.23.838-1.396.113-.448.057-1.454.057-1.454s-.894.168-1.06 1.006c-.057.67.39 1.005.11 1.675z" stroke="#c8a564" stroke-linejoin="round" stroke-width=".457"/><path d="m156.962 75.2-.224.557-.166.39-.057.392-.056 2.29-.112-2.347-.224-.67-.112-.67.056-.28.056-.278.113-.224.055-.278.056-.726.055-.224.056-.056h.055l.057.224.056.838.055.335.112.223.167.28v.223" fill="#fff"/><path d="m156.962 75.2c0 .223-.39.892-.447 1.34 0 .28-.056 2.29-.056 2.29s-.057-1.956-.112-2.347c-.056-.39-.336-1.005-.336-1.34 0-.39.28-.614.28-1.06 0-.56.167-1.007.167-1.007s.112.28.168 1.062c0 .447.39.67.334 1.06z" stroke="#c8a564" stroke-linejoin="round" stroke-width=".457"/><path d="m156.46 66.933h-.057l-.055-.167-.056-1.117.056-.672.055-.167.112-.054.057.055v.168l.056.726v.782l-.056.336v.11h-.113" fill="#fff"/><path d="m156.46 66.933s-.168 0-.168-1.284c0-.56.223-.894.223-.894s.113.167.113.948c.055 1.34-.17 1.23-.17 1.23z" stroke="#c8a564" stroke-width=".457"/><path d="m156.46 64.756h-.057l-.055-.113-.056-1.005.056-.726.055-.223.056-.057.112.056v.222l.056.782v.615l-.056.277-.057.113-.056.056" fill="#fff"/><path d="m156.46 64.756s-.168.167-.168-1.118c0-.558.167-1.005.167-1.005s.168.28.168 1.06c.055 1.063-.17 1.063-.17 1.063z" stroke="#c8a564" stroke-width=".457"/><path d="m155.063 73.635-.446 1.675.112-.223.39-1.284.28-.336.22-.28.337-.277.11-.448.114-.894v-.558l-.112.057-.335.11-.334.336-.17.224-.11.278v.447l.055.39v.336l-.112.447" fill="#fff"/><path d="m155.063 73.635c-.502 1.62-.67 2.736.057.168.223-.615.892-.67 1.004-1.34.057-.448.057-1.453.057-1.453s-.894.168-1.06 1.005c-.057.615.223 1.006-.057 1.62z" stroke="#c8a564" stroke-linejoin="round" stroke-width=".457"/><path d="m155.12 71.624-.503 1.62.112-.168.445-1.284.224-.39.22-.28.337-.28.167-.39.057-.894v-.614l-.447.167-.334.392-.17.168-.055.28-.055.446.055.39v.336l-.055.502" fill="#fff"/><path d="m155.12 71.624c-.56 1.564-.727 2.68.055.168.168-.614.837-.67.95-1.34.112-.503.056-1.508.056-1.508s-.894.167-1.005 1.005c-.112.67.168 1.005-.055 1.674z" stroke="#c8a564" stroke-linejoin="round" stroke-width=".457"/><path d="m155.063 69.558-.446 1.62.112-.168.39-1.284.28-.39.22-.225.337-.334.11-.39.114-.894v-.615l-.447.224-.502.504-.11.278v.447l.055.39v.39l-.112.448" fill="#fff"/><path d="m155.063 69.558c-.502 1.564-.67 2.68.057.168.223-.615.892-.67 1.004-1.34.057-.504.057-1.51.057-1.51s-.894.225-1.06 1.006c-.057.727.223 1.007-.057 1.676z" stroke="#c8a564" stroke-linejoin="round" stroke-width=".457"/><path d="m155.12 67.492-.503 1.62.112-.168.445-1.284.224-.392.22-.223.337-.335.167-.39.057-.895v-.558l-.447.224-.334.28-.17.223-.055.28-.055.39.055.39v.392l-.055.447" fill="#fff"/><path d="m155.12 67.492c-.56 1.62-.727 2.68.055.168.168-.56.837-.615.95-1.34.112-.448.056-1.453.056-1.453s-.894.224-1.005 1.005c-.112.67.168.95-.055 1.62z" stroke="#c8a564" stroke-linejoin="round" stroke-width=".457"/><path d="m155.12 65.314-.503 1.675.112-.224.445-1.228.224-.447.22-.223.337-.28.167-.446.057-.892v-.56l-.447.224-.334.28-.17.223-.055.28-.055.39.055.447v.335l-.055.447" fill="#fff"/><path d="m155.12 65.314c-.56 1.62-.727 2.737.055.224.168-.615.837-.67.95-1.397.112-.446.056-1.45.056-1.45s-.894.222-1.005 1.004c-.112.67.168.95-.055 1.62z" stroke="#c8a564" stroke-linejoin="round" stroke-width=".457"/><path d="m157.688 75.757.447 1.676-.056-.223-.448-1.285-.167-.39-.28-.448-.335-.558-.112-.895v-.56l.503.17.337.334.11.223.113.28v.446l-.112.39-.056.39.056.447" fill="#fff"/><path d="m157.688 75.757c.56 1.62.727 2.737-.056.168-.167-.615-.726-1.23-.782-1.396-.167-.448-.112-1.454-.112-1.454s.95.168 1.062 1.006c.112.67-.28 1.005-.112 1.675z" stroke="#c8a564" stroke-linejoin="round" stroke-width=".457"/><path d="m157.856 73.635.447 1.675-.112-.223-.39-1.284-.223-.336-.56-.557-.167-.448-.112-.894v-.558l.503.168.337.335.11.224.113.278v.447l-.056.39v.336l.112.447" fill="#fff"/><path d="m157.856 73.635c.56 1.62.725 2.736-.056.168-.223-.615-.782-.67-.95-1.34-.112-.448-.112-1.453-.112-1.453s.95.168 1.062 1.005c.112.615-.168 1.006.056 1.62z" stroke="#c8a564" stroke-linejoin="round" stroke-width=".457"/><path d="m157.856 71.624.447 1.62-.112-.168-.39-1.284-.223-.39-.56-.56-.167-.39-.112-.894v-.614l.503.167.337.392.11.168.113.28v.446l-.056.39v.336l.112.502" fill="#fff"/><path d="m157.856 71.624c.56 1.564.725 2.68-.056.168-.223-.614-.782-.67-.95-1.34-.112-.503-.112-1.508-.112-1.508s.95.167 1.062 1.005c.112.67-.223 1.005.056 1.674z" stroke="#c8a564" stroke-linejoin="round" stroke-width=".457"/><path d="m157.856 69.558.447 1.62-.112-.168-.39-1.284-.223-.39-.28-.225-.223-.334-.224-.39-.112-.894v-.615l.503.224.337.336.11.168.113.278v.838l-.056.39.112.448" fill="#fff"/><path d="m157.856 69.558c.56 1.564.725 2.68-.056.168-.223-.615-.782-.67-.95-1.34-.112-.504-.112-1.51-.112-1.51s.95.225 1.062 1.006c.112.727-.168 1.007.056 1.676z" stroke="#c8a564" stroke-linejoin="round" stroke-width=".457"/><path d="m157.856 67.492.447 1.62-.112-.168-.39-1.284-.223-.392-.28-.223-.28-.335-.167-.39-.112-.895v-.558l.503.224.337.28.11.223.113.28v.39l-.056.39v.392l.112.447" fill="#fff"/><path d="m157.856 67.492c.56 1.62.725 2.737-.056.168-.223-.56-.782-.615-.95-1.34-.112-.448-.112-1.453-.112-1.453s.95.224 1.062 1.005c.112.67-.168.95.056 1.62z" stroke="#c8a564" stroke-linejoin="round" stroke-width=".457"/><path d="m157.856 65.314.447 1.675-.112-.224-.39-1.228-.223-.447-.28-.223-.28-.28-.167-.446-.112-.892v-.56l.503.224.337.28.11.223.113.28v.39l-.056.447v.335l.112.447" fill="#fff"/><path d="m157.856 65.314c.56 1.62.725 2.737-.056.224-.223-.615-.782-.67-.95-1.397-.112-.502-.112-1.45-.112-1.45s.95.222 1.062 1.004c.112.67-.168.95.056 1.62z" stroke="#c8a564" stroke-linejoin="round" stroke-width=".457"/><path d="m156.348 60.567h-.056l-.055-.112-.056-1.06.057-.672.055-.166.11-.056.057.057.055.11.057.783v.614l-.057.335-.056.167h-.112" fill="#fff"/><path d="m156.348 60.567s-.11.056-.167-1.173c0-.615.223-.893.223-.893s.17.112.17.95c0 1.06-.225 1.117-.225 1.117z" stroke="#c8a564" stroke-width=".457"/><path d="m156.348 62.633h-.056l-.055-.112-.056-1.06.057-.67.055-.223h.167l.055.167.057.782v.558l-.057.39-.056.113-.112.056" fill="#fff"/><path d="m156.348 62.633s-.11.056-.167-1.172c0-.614.168-.893.168-.893s.224.112.224.95c0 1.06-.224 1.116-.224 1.116z" stroke="#c8a564" stroke-width=".457"/><path d="m156.403 58.5h-.11l-.056-.167-.056-1.118.057-.67.055-.167.11-.056.057.056.055.168.057.725v.783l-.057.335-.056.113h-.057" fill="#fff"/><path d="m156.403 58.5s-.166.057-.222-1.285c0-.614.223-.893.223-.893s.17.224.17.95c0 1.285-.17 1.23-.17 1.23z" stroke="#c8a564" stroke-width=".457"/><path d="m156.348 56.322h-.056l-.055-.055-.056-1.062.057-.67.055-.224.056-.11.11.055.057.225.057.78v.616l-.057.28-.112.166h-.055" fill="#fff"/><path d="m156.348 56.322s-.167.224-.167-1.117c0-.614.168-1.005.168-1.005s.224.335.224 1.06c0 1.062-.224 1.062-.224 1.062z" stroke="#c8a564" stroke-width=".457"/><path d="m155.063 63.136-.502 1.675.112-.223.39-1.228.224-.392.28-.28.28-.28.222-.39v-1.45l-.447.166-.334.336-.166.166-.057.336v1.564" fill="#fff"/><path d="m155.063 63.136c-.558 1.675-.782 2.793 0 .223.168-.615.838-.67 1.005-1.34.056-.448 0-1.453 0-1.453s-.893.167-1.005 1.005c-.055.614.168.95 0 1.564z" stroke="#c8a564" stroke-linejoin="round" stroke-width=".457"/><path d="m155.008 61.07-.447 1.675.057-.168.446-1.285.223-.39.28-.28.28-.28.222-.39v-1.45l-.447.165-.334.336-.166.167-.057.335v1.118l-.055.447" fill="#fff"/><path d="m155.008 61.07c-.503 1.62-.727 2.736.055.222.168-.613.838-.67 1.005-1.34.056-.447 0-1.45 0-1.45s-.893.165-1.005 1.003c-.055.615.168.95-.055 1.565z" stroke="#c8a564" stroke-linejoin="round" stroke-width=".457"/><path d="m155.063 59.058-.502 1.62.112-.168.39-1.284.224-.335.28-.333.28-.28.222-.39v-1.453l-.447.167-.334.337-.166.167-.057.335v1.618" fill="#fff"/><path d="m155.063 59.058c-.558 1.62-.782 2.737 0 .168.168-.614.838-.67 1.005-1.34.056-.447 0-1.452 0-1.452s-.893.167-1.005 1.005c-.055.613.168.948 0 1.618z" stroke="#c8a564" stroke-linejoin="round" stroke-width=".457"/><path d="m155.063 56.88-.502 1.677.112-.224.39-1.285.224-.335.28-.28.28-.334.222-.392v-1.453l-.447.225-.334.278-.166.223-.057.28v1.62" fill="#fff"/><path d="m155.063 56.88c-.558 1.677-.782 2.737 0 .168.168-.558.838-.614 1.005-1.34.056-.447 0-1.453 0-1.453s-.893.225-1.005 1.006c-.055.67.168.95 0 1.62z" stroke="#c8a564" stroke-linejoin="round" stroke-width=".457"/><path d="m157.744 63.136.447 1.675-.11-.223-.392-1.228-.168-.392-.334-.28-.28-.28-.168-.39-.11-.948v-.503l.5.167.392.336.057.166.11.336v.39l-.055.39v.337l.112.446" fill="#fff"/><path d="m157.744 63.136c.56 1.675.726 2.793-.056.223-.168-.615-.782-.67-.95-1.34-.11-.448-.11-1.453-.11-1.453s.95.167 1.06 1.005c.112.614-.11.95.056 1.564z" stroke="#c8a564" stroke-linejoin="round" stroke-width=".457"/><path d="m157.744 61.07.447 1.675-.11-.168-.392-1.285-.168-.39-.334-.28-.224-.28-.224-.39-.055-.894v-.558l.446.167.39.336.112.167.056.335v.782l-.056.336z" fill="#fff"/><path d="m157.744 61.07c.56 1.675.726 2.792-.056.222-.168-.613-.782-.67-.95-1.34-.11-.447-.055-1.45-.055-1.45s.894.165 1.005 1.003c.112.615-.11.95.056 1.565z" stroke="#c8a564" stroke-linejoin="round" stroke-width=".457"/><path d="m157.744 59.058.447 1.62-.11-.168-.392-1.284-.168-.335-.334-.333-.224-.28-.224-.39-.11-.894v-.56l.5.168.392.337.057.167.11.335v.78l-.055.337.112.5" fill="#fff"/><path d="m157.744 59.058c.56 1.62.726 2.737-.056.168-.168-.614-.782-.67-.95-1.34-.11-.447-.11-1.452-.11-1.452s.95.167 1.06 1.005c.112.613-.11.948.056 1.618z" stroke="#c8a564" stroke-linejoin="round" stroke-width=".457"/><path d="m157.744 56.88.447 1.677-.11-.224-.392-1.285-.168-.335-.334-.28-.224-.334-.224-.392-.11-.894v-.56l.5.226.392.278.057.223.11.28v.783l-.055.39.112.448" fill="#fff"/><path d="m157.744 56.88c.56 1.677.726 2.737-.056.168-.168-.558-.782-.614-.95-1.34-.11-.447-.055-1.453-.055-1.453s.894.225 1.005 1.006c.112.67-.11.95.056 1.62z" stroke="#c8a564" stroke-linejoin="round" stroke-width=".457"/><path d="m145.68 60.343.056-.893-1.004-.056-.95-.168-1.006-.28-.837-.223-.392.727-1.23-.447-1.115-.56-1.117-.613-1.062-.726.39-.67-.837-.67-.725-.615-1.34-1.452-.67.502-.84-1.117-.78-1.173-.67-1.23-.56-1.283.726-.447-.278-.782-.28-1.06-.223-1.062-.168-.894-.84.056-.11-1.06v-1.062l.11-1.843.28-1.843.838.11.168-.836.335-1.006.392-1.06.39-.782-.725-.392.726-1.284.838-1.284.894-1.118 1.062-1.06.614.56.558-.616.894-.727.894-.558.726-.502-.28-.783 1.34-.725 1.452-.56 1.51-.446 1.562-.334.057.392.166.446 1.06-.11 1.118-.058 1.62.057.222-.895 1.508.224 1.452.336 1.452.446 1.34.56-.334.836.782.39.95.504.893.614.726.558.614-.614 1.005.95.948.95.893 1.06.783 1.173-.67.447.615.837.446.95.727 1.786.726-.223.335 1.23.28 1.395.168 1.34.056 1.34h-.39l-.39.056v.95l-.058 1.06-.167 1.006-.168.893.725.28-.39 1.284-.448 1.285-.614 1.228-.67 1.173-.67-.335-1.062 1.508-.727.727-.67.838.448.614-.894.894-1.004.726-1.062.726-1.116.614-.39-.725-.84.39-1.005.447-1.004.334-.895.224.168.838-1.956.335-1.005.112h-1.005l-1.397-.057" fill="#09417a"/><path d="m147.077 59.003 1.62-.056 1.563-.28 1.51-.39 1.45-.502 1.452-.727 1.285-.78 1.284-.896 1.063-1.005 1.06-1.172.895-1.23.837-1.284.67-1.394.502-1.453.39-1.563.225-1.565.112-1.62-.112-1.675-.224-1.563-.39-1.508-.503-1.51-.67-1.396-.837-1.284-.895-1.23-1.06-1.116-1.062-1.005-1.283-.95-1.285-.782-1.452-.67-1.45-.56-1.51-.39-1.564-.223-1.62-.056-1.62.055-1.562.223-1.508.39-1.453.56-1.395.67-1.285.782-1.284.95-1.118 1.004-1.06 1.117-.895 1.23-.783 1.284-.67 1.397-.558 1.51-.39 1.507-.225 1.563-.054 1.676.055 1.62.225 1.564.39 1.563.56 1.453.67 1.395.782 1.286.894 1.23 1.062 1.17 1.117 1.006 1.283.895 1.285.78 1.395.728 1.453.502 1.508.39 1.563.28 1.62.056" fill="#fff"/><path d="m147.077 58.667 1.62-.11 1.508-.224 1.508-.392 1.45-.5 1.342-.67 1.228-.783 1.23-.894 1.116-1.004 1.005-1.12.893-1.172.782-1.34.67-1.34.503-1.397.39-1.506.224-1.564.11-1.564-.11-1.62-.223-1.564-.39-1.508-.503-1.395-.67-1.342-.782-1.34-.893-1.173-1.006-1.117-1.118-1.005-1.23-.894-1.227-.783-1.34-.614-1.452-.56-1.508-.334-1.51-.28-1.618-.112-1.62.112-1.507.28-1.452.334-1.453.56-1.34.613-1.284.782-1.173.893-1.117 1.005-1.004 1.117-.895 1.173-.836 1.34-.67 1.34-.502 1.396-.39 1.508-.225 1.564-.056 1.62.057 1.564.224 1.564.392 1.507.502 1.398.67 1.34.837 1.34.896 1.173 1.004 1.12 1.117 1.003 1.174.894 1.285.782 1.34.67 1.453.5 1.452.393 1.507.224 1.62.11" fill="#09417a"/><path d="m147.02 58.053 1.565-.056 1.508-.222 1.396-.336 1.34-.503 1.396-.67 1.173-.783 1.172-.837 1.06-.95.95-1.06.894-1.174.782-1.23.557-1.338.504-1.34.39-1.453.223-1.452.11-1.564-.11-1.508-.223-1.507-.39-1.396-.505-1.397-.557-1.34-.782-1.173-.895-1.173-.948-1.06-1.06-1.005-1.173-.837-1.174-.783-1.397-.558-1.34-.502-1.397-.448-1.508-.167-1.564-.112-1.506.112-1.452.167-1.397.448-1.396.502-1.342.558-1.173.783-1.172.837-1.062 1.005-1.003 1.06-.84 1.174-.78 1.174-.614 1.34-.503 1.396-.392 1.397-.166 1.508-.113 1.508.112 1.564.166 1.452.392 1.452.503 1.34.614 1.34.78 1.23.84 1.172 1.004 1.062 1.063.95 1.172.836 1.173.783 1.34.67 1.397.502 1.397.335 1.452.222 1.507.056" fill="#fff"/><path d="m147.077 53.976 1.172-.056 1.228-.11 1.118-.336 1.004-.336 1.006-.502.894-.56.78-.613.84-.725.613-.782.615-.838.558-.894.39-.95.392-1.004.224-1.062.167-1.117v-1.116l-.056-1.117-.168-1.06-.28-1.06-.335-1.008-1.003-1.9-.67-.837-.727-.782-.782-.725-.838-.614-.95-.558-.948-.446-1.006-.39-1.06-.28-1.007-.168-1.173-.056-1.117.056-1.117.167-1.005.28-1.005.39-.95.447-.893.56-.838.613-.838.726-.67.783-.67.838-.56.95-.445.95-.336 1.006-.336 1.06-.112 1.06-.056 1.118.056 1.174.112 1.06.67 2.122.447.95.56.894.668.838.67.782.84.67.837.67.893.558.95.446 1.005.39 1.005.28 1.117.112 1.117.056" fill="#09417a"/><path d="m147.133 53.753 1.06-.055 1.063-.224 1.004-.223 1.006-.335.95-.502.893-.503.78-.615.782-.726.67-.727.615-.837.558-.894.447-.893.335-1.006.28-1.006.167-1.117.056-1.06-.056-1.116-.167-1.062-.28-1.005-.335-1.005-.447-.95-.558-.893-.614-.784-.67-.782-.783-.67-.78-.614-.895-.56-.95-.445-1.005-.335-1.004-.28-1.062-.167-1.06-.056-1.118.056-1.062.167-1.004.28-.95.335-.95.446-.893.56-.838.614-.727.67-.726.782-.614.783-.503.892-.503.95-.335 1.005-.223 1.005-.224 1.062-.056 1.117.056 1.06.223 1.118.222 1.006.335 1.005 1.006 1.786.614.837.726.726.726.725.837.615.893.503.95.502.95.336 1.004.224 1.062.224 1.117.055" fill="#9f873d"/><path d="m146.52 35.602-1.063.67-.78.67-1.286 1.173-1.395 1.452-1.452 1.732-.782 1.06-.948 1.508-1.23 2.01.113.112.334.224 1.117.558 1.786.67.168.167.17.335.334 1.005.39 1.062.168.39.168.167.223-.056.28-.056.725-.28.895-.39 2.233.78 1.843-.836 2.177.726 1.9-.67h.893l.055-1.117-.335-.223.057-.838h-.726l-.168.167h-.278l-.056-.838 1.284-.112-.112-2.123-.223-1.843-.224-1.62-.447-1.954-.613-1.955-.447-1.507-.39-.615-.225.057-.445.167-1.285.782-1.9 1.23-.055-.392v-2.57h.28l.558.057.67-.166.447-.168-.502-.056-.727-.168-.613-.278-.615-.224.057 2.122" fill="#09417a"/><path d="m146.574 36.105v2.178l-.335.28-.726.78-1.06 1.397-.616.838-.56 1.005-1.283 2.29-.67 1.397-.335.782-.112.11-.28-.054-.837-.336-1.227-.615 2.4-.055.503-2.01.39-1.62.448-1.23.336-.725.334-.726.614-.948 1.005-1.062 1.007-1.004.613-.504.28-.167h.11" fill="#9f873d"/><path d="m143.503 38.45-.224.335-.336.39-.67 1.175-.503 1.228-.39 1.284-.67 2.96h-1.396l-1.228-.11.447-.783 1.283-2.068 1.508-2.066 1.174-1.396.78-.67.225-.28m-2.067 8.491.726-.168 1.062-.167h.446l.392.112.446.11.055-.055.056-.28v-.837l-.057-1.06v-.95l.056-.783.112-.837.335-.95.558-1.284-1.062 1.62-1.34 2.123-.558.838-.558 1.173-.67 1.396" fill="#fff"/><path d="m146.574 38.842v8.153l-.167.224-.168.11h-.84l-.166-.056-.167-.11-.113-.447-.11-.56v-2.624l.11-.726.17-.727.166-.67.446-1.117.335-.726.226-.446z" fill="#9f873d"/><path d="m147.077 37.892.28.558.39.894.447 1.284 2.625-1.675-.057-.838v-1.787l-.056-.67-.56.28-1.282.78-1.788 1.174" fill="#fff"/><path d="m150.93 35.826.504 1.45.39 1.398.447 1.62.336 1.563.223 1.787.167 1.62.055.726-.11-.502-.39-.95-.448-1.172-.39-1.174-.337-1.62-.223-2.178-.223-2.568" fill="#9f873d"/><path d="m148.25 41.243 2.68-1.787.056 1.06.168 1.006.223 1.006.336 1.06.502 1.23.67 1.34-1.005-.224-.95-.11h-.95l-.724.055-.67.166-.838.28.11-.838.28-1.564.11-1.732v-.95" fill="#fff"/><path d="m147.69 46.717 4.972-.17-.893-.166-.784-.166h-.893l-1.34.167-.84.168-.222.17" fill="#9f873d"/><g fill="#fff"><path d="m141.604 47.777.167.447 4.637.335h1.396l1.954-.057 2.458-.112.11-.39-2.232.112-1.844.112h-1.397l-5.25-.447"/><path d="m141.827 48.503.168.392 1.787.166 2.625.28 1.396-.054 1.843-.112 2.345-.168.225-.39-2.234.222-1.73.057h-1.397l-5.026-.392"/><path d="m142.107 49.174.167.502 4.022.28h1.34l1.62-.056 2.178-.112.28-.28.11-.167-2.067.112-1.675.113-1.34.055-2.792-.223-1.843-.223"/></g><path d="m147.524 46.94h3.574l.056.39-.056.224-.112.167-.223.057h-.39l-.336-.056-.223.057-.057-.223.057-.224h-2.457l.167-.39" fill="#9f873d"/><path d="m152.662 47.89-.167.78-.224.727h1.007v-.56l-.225-.278-.055-.727-.335.056" fill="#fff"/><path d="m141.493 47.274.614-.222.39-.113.336-.057h.782l.447.056.557.28-.112.28-.167.166-.112.11-.725-.11-1.117-.057-.615-.167-.277-.17" fill="#9f873d"/><path d="m145.345 47.833.56.056h3.573v-.28h-3.182l-.95.223" fill="#fff"/><path d="m150.875 35.21 1.06.113.727.11.893.114h.615l.447-.113.167.113.28.28.557.613.448.727.17.67-.226.11-.502.112-.615.11h-.557l-.727-.334-.893-.28h-.28l-.277.057-.336.11-.95-2.512" fill="#09417a"/><path d="m152.606 35.434.167.838-.725-.11h-.503l-.223.054.112.112h.67l.948.112-.223-.95-.224-.056m.505.113.167 1.005.278.11.615.17h.39l.503-.056.67-.17-.167-.22-.726.166-.447.055h-.447l-.446-.222-.223-.783-.168-.055m-1.564 1.173.56-.057h.612l.335.056.336 1.06-.28-.056-.166-.838-.727-.055-.558.113-.112-.224" fill="#fff"/><path d="m153.723 37.948-.335-1.117.28.113.558.167.95-.11.67-.17.166.224-.613.223-.56.056-.39.057-.56-.113-.167-.055.335.837-.335-.112" fill="#fff"/><path d="m76.875 35.826 3.295-2.457 3.24.725-.783 2.457-2.457-.726v3.685h2.122v1.79h-2.122v10.107l1.396 1.062.224-.113.502-.39.17-.057h.11l.335.167.168.28v.112l-.112.11-3.128 2.458-.558-.447-1.285-.892-1.452-.783-.503-.28-.112-.166-.055-.057.112-.168.558-.335.223-.168.112-.335v-10.105h-1.117v-1.79h1.117zm10.667-2.57-.055.503-.28 1.004-.39 1.23.056.167.11.168.112.057h.28l.224-.057.11-.056.335-.334.56-1.005.78-.838.335-.336.112-.503h-2.29zm-4.133 7.596-.112.056v.11l.11.28.28.057h.168l.112-.056.336-.17.334-.11h.447l1.062.95-.112.278-.448.783-.166.67-.224.84-.11 1.06v2.457l.11.893.39 1.173.225.558.225.672.055.837.057 1.172-.057 1.173-.112.95-.28.782-.277.502-.335.334-.335.28-.558.335-.112.166-.167.11v.225l.055.168.112.056h.112l.558-.056.614-.278.614-.28.783-.615.727-.67.558-.614.39-.67.336-.725.224-.615.113-.67v-.67l-.057-1.34-.334-1.675-.224-1.844-.112-1.003-.055-1.117.11-1.006.17-.894.166-.726.28-.614.503-.782.167-.39-.112-.225-.335-.335-1.172-.95-1.005-.78-.28-.113-.222-.056-.335.112-.335.223-.838.726-1.676 1.062zm-55.123 11.672-1.397 1.23-1.172 1.004-.335.223-.223.058-.336-.112-.39-.39-.39-.392-.672-.502-.78-.447-.616-.28-.56-.055-.054-.168v-.28l.502-.446.28-.39.168-.447v-14.188l-.057-.39-.167-.392-.39-.78-.448-.56-.335-.28-.112-.166-.055-.168.055-.168.223-.056.615.168.727.335.95.503 1.395-.838 1.06-.614.505-.224.335-.055.39.112.168.166-.055.223-.225.11-.278.225-.448.39-.278.335-.113.335-.167.447-.055.447v5.92l.056 9.16 1.284 1.394.336-.11.558-.448.112-.056h.056l.28.167.11.224v.113l-.055.11zm73.83-11.225 3.185-2.68.614.222.448.334.39.335.503.895.28.558 2.848-2.344 2.345 2.79-2.29 2.123-.223-.39-.615-.895-.726-.838-.28-.223-1.172.893v8.658l.057.334.167.335.224.224.28.28.447.223.167.112.447-.335.783-.558.168-.112h.113l.39.167.112.28.056.167-.11.056-.894.726-1.117.893-1.62 1.508-.448-.447-.502-.5-.726-.56-.782-.503-.67-.223-.67-.223-.223-.11-.114-.057v-.168l.67-.447.28-.335.112-.11.055-.224v-9.216l-.055-.392-.112-.167-.224-.056h-.055l-.447.11-.447.28-.167.055-.28-.11-.168-.225v-.11zm-93.543-7.319v2.29l-1.23.168-1.004.28-1.004.28-.503.277-.39.39-.726.84-.56.95-.223.445-.055.39.113.448.167.223.168.056.223-.168.614-.56 1.285-.948.446-.223.505-.223 1.005-.112h1.172v13.407l-.055.28-.168.222-.224.055-.39-.055-.393-.168-.726-.447-.446-.167-.613-.224-.726-.166-1.004-.057h-.503l-.503.112-.39.167-.336.168-.558.503-.336.558-.28.616-.11.558-.056.782.056.112.055.055.335.056.336-.112.167-.112.056-.28.166-.335.223-.22.224-.17.334-.056.447-.055.502.11.448.056.893.448.726.447.223.168 3.91-1.676 2.513-1.117 1.173-.614.838-.5.615-.45.39-.277.28-.503.28-.503.222-.56.224-.78v-9.272h3.072l1.007-2.513h-4.08v-2.96l.783.224.837.223 1.286.11.446-.055.39-.11.727-.336.614-.504.446-.503.392-.615.222-.558.224-.78-.056-.392-.223-.28-.168-.167h-.114l-.057.112-.28.447-.5.613-.28.224-.335.223-.448.167h-1.172l-.67-.223-.56-.28-.502-.278-.726-.558-.28-.224-.223.28-.726.78-1.116 1.062-.726.503-.837.5-.836.45-.783.277-1.283.28-.95.055h-.335zm3.295 13.684v-13.234l1.564-.448v13.46l-.054.67-.057.56-.224.502-.224.446-.446.727-.336.39-.39.28-.614.39-.727.39.335-.557.334-.56.28-.557.39-1.062.11-.67.057-.724zm79.92-6.367.78-.28.727-.28.838-.39 1.508-1.006.614-.447.838.447.726.503.84.39.89.28.784.223.78.168v11.337l-.78.39-1.732.894-.67.56-.614.445-.615.503-.39-.224-.67-.56-.838-.668-.782-.503-.892-.28-.95-.28-.727-.11h-.613l-.223-.168-.055-.223.054-.112.056-.056.39-.168.336-.28.223-.39.166-.558v-9.16zm3.015 9.325.504.17 1.117.5 1.06.615.447.335v-9.438l-.112-.224-.278-.278-.448-.28-.614-.224-1.172-.39-.504-.11v9.325zm-29.767-8.71 5.92-3.073.167.167.503.557 1.397 1.732 2.01 2.512-5.753 4.97v2.625l2.736 1.453.838-.56 1.117-.725.057-.112.167.057.28.166.056.224v.167l-.112.168-2.29 1.508-1.955 1.285-5.082-2.067.503-.557.39-.503.113-.503-.055-8.545-.056-.223-.166-.17-.28-.165-.447-.28-.055-.11zm4.244 5.584 2.904-2.627-2.905-3.742v6.373zm43.45-13.63v3.798l3.742 2.682-.335.335-.447.223-.503.28-.95.334-.502.112v9.495l-.055.445-.168.335-.503.335-.056.168.112.11.222.17.895.222.892.28 1.23.39 1.06.504.727.445.446.39.39.113.393-.112.503-.28.615-.446.837-.502 1.675-1.006.726-.447v-10.61l.057-.616.055-.392.336-.502.055-.28-.113-.223-.28-.167-.278.055-1.286.952-9.494-6.59zm4.413 17.035v-8.99l.055-.337.223-.223h.28l.17-.056.222.055.334.223.838.614 1.117.894v9.16h-.278l-.502-.224-.894-.447-.56-.335-.502-.224-.5-.11zm-88.243-8.986 5.865-3.073.168.167.503.557 1.452 1.732 2.01 2.512-5.808 4.97v2.625l2.737 1.453.838-.56 1.116-.725.113-.112.112.057.278.166.113.224-.057.167-.112.168-2.29 1.508-1.954 1.285-5.084-2.066.504-.557.39-.503.113-.503v-8.545l-.112-.223-.168-.17-.28-.165-.446-.28v-.11zm4.19 5.584 2.904-2.627-2.904-3.742v6.37zm13.906 4.577.112.56.335 1.34.167.39.224.168.39.39.336.056.167.058 3.128-2.514.056-.11v-.057l-.167-.28-.278-.167h-.057l-.112.112-.335.28-.39.11-.112-.11-.167-.225-.166-.28-.056-.502-.056-.892-.112-1.23-.39-1.284-.224-.56-.335-.502-1.116-1.173-.502-.503 3.126-3.183-3.015-2.96-3.91 3.573v-6.531l.056-.448.11-.39.224-.392.168-.28.447-.445.39-.224.11-.11.058-.224-.112-.167-.447-.113-.337.112-.446.166-1.117.614-1.34.893-.95-.558-.782-.335-.614-.168-.168.056-.112.224.057.112.168.167.28.28.446.56.447.78.112.392.057.39v14.243l-.114.446-.223.336-.503.447-.11.11.055.17.055.167.503.167.56.335.78.447.67.445.447.392.39.28.336.11.28-.056.39-.166.56-.39.67-.615 1.452-1.286.558-.447zm-3.462-4.576v-3.632l2.29-2.178 1.786 1.787-4.076 4.022v-.002zm0 3.907v-2.624l1.395-1.285.11.11.392.225.447.39.39.672.28.837.167.782.055.838-1.73 1.172-1.508-1.117zm16.363.67-.558.447-1.454 1.285-.726.614-.557.39-.392.167-.222.058-.39-.112-.392-.28-.446-.39-.67-.447-.782-.448-.56-.335-.502-.167-.056-.168-.056-.168.112-.11.502-.448.224-.335.112-.445v-14.242l-.056-.39-.056-.392-.502-.78-.448-.56-.28-.28-.167-.166-.055-.112.11-.224.225-.056.615.168.726.335.948.558 1.34-.893 1.12-.614.445-.167.39-.113.39.112.17.166-.058.223-.167.11-.335.225-.446.446-.224.28-.224.39-.055.392-.056.447v6.533l1.955-1.787 1.9-1.787 3.014 2.96-3.127 3.182.503.503 1.117 1.173.335.502.28.56.334 1.284.167 1.23.056.89.055.504.112.28.167.223.168.113.39-.112.28-.278.11-.112h.113l.224.167.166.28v.056l-.055.11-3.128 2.515-.11-.057-.392-.054-.39-.39-.17-.17-.166-.39-.335-1.34-.113-.56zm-3.463-4.577 4.077-4.023-1.842-1.787-2.234 2.178v3.63zm0 3.907 1.508 1.117 1.676-1.172-.055-.838-.112-.782-.335-.837-.39-.67-.448-.392-.335-.224-.167-.11-1.34 1.283v2.624zm121.862-17.703 3.072 1.116 2.68.838 1.062-1.563.726.223-3.463 6.087 2.848-.055.616.055.95.223 1.06.28 1.06.502 1.007.782.447.447.446.502.28.558.28.67.11.67.113.84-.113 1.003-.28 1.006-.39.948-.56.894-.613.782-.783.838-.725.67-.78.67-1.51 1.117-1.396.78-1.285.67-.28-.222-.446-.224-.726-.39-1.9-.726-.558.278-1.564.782-1.005.335-1.117.335-1.117.224-1.117.112-1.006-.056-.838-.224-.67-.223-.502-.334-.335-.446-.223-.447-.113-.39-.056-.392.055-.446.112-.503.223-.558.39-.502.616-.502.838-.39 1.006-.28 1.395-.112 1.284.056.614.055 1.174-1.9-1.844.057-1.172-.056-.895-.168-.892-.223-.838-.39-.335-.335-.39-.335-.28-.447-.224-.447-.11-.615-.056-.67.056-.894.28-.782.39-.502.447-.503.39-.28.448-.222.39-.056v-.337l.112-.837.168-.615.28-.668.39-.838.502-.837.67-.84.615-.725.726-.614.67-.447 1.06-.67.448-.166zm-.447 2.68h-.558l-.615.112-.56.167-.502.223-.446.39-.336.392-.28.56-.056.614.112.67.224.446.447.392.56.222.502.224.614.056h2.29l1.005-.112 1.007-.112 1.563-2.792-.503-.28-1.117-.446-1.62-.503-.837-.167-.894-.055zm-5.138 5.808-.112.113-.28.166-.334.392-.112.39v.336l.055.503.28.392.39.39.503.224.67.28.725.112.838.055.894.057 1.34-.112.726-.056.503-.057 1.005-1.842-1.062.11-2.4.057-1.007-.056-.838-.167-.67-.224-.447-.334-.333-.225-.223-.28-.112-.223zm8.21 1.285-1.117 1.843 1.395-.168 1.285-.11 1.397-.057 1.395.11.614.113.616.167.503.336.39.392.28.56.11.668-.056.503-.11.447-.504.894-.614.838-.725.726-.78.557-.672.447-.558.335.558.336.502.168.56.112.446-.11.503-.28.67-.504.724-.67.615-.78.5-.95.448-1.007.056-.5.056-.56-.056-.558-.056-.502-.39-.895-.56-.67-.67-.614-.725-.39-.67-.334-.67-.17-.503-.054-1.34.055-1.397.17-1.45.11zm-2.57 4.635-1.285 2.122 2.738.726 2.512.726.615-.39 1.116-.782.448-.447.39-.502.224-.504.055-.5-.11-.17-.17-.222-.446-.335-.726-.28-.894-.054-1.23.11-1.45.223-1.787.28zm-4.97 4.357-.838.11-.726.28-.336.167-.223.224-.168.224v.335l.056.28.11.277.114.168.278.223.615.223.893.058 1.118-.112 1.005-.112 1.006-.334.838-.28 1.23-.558.5-.224-2.177-.503-1.788-.28-1.51-.166zm18.095-11.115-.112.11v.113l.168.223.278.114h.17l.39-.17.335-.11h.168l.11.167.057.95v8.602l-.558.055-.558.224-.56.28-.11.223-.057.168v.17l.057.166.28.224.166.055.167-.055.504-.113.392.057.222.11.056.113v4.02l-.11.28-.225.335-.725.56-.113.222v.113l.28.055.39.055.56-.166.613-.28.727-.39 1.284.67.895.447.838.447h.39l.28-.168.055-.112v-.167l-.055-.056-.168-.167-.502-.39-.448-.447-.335-.558-.167-.28v-3.015l.112.056.78.5 1.175.894.837-.67 1.396-1.06 1.453-.894.838-.447-.056-10.053v-.335l-.113-.28-.334-.502-.39-.447-.447-.39-.894-.727-.448-.336-.223-.11h-.336l-3.24 2.735-.166-.56-.224-.558-.336-.614-.502-.502-.502-.336-.447-.167-2.96 2.122zm5.026 10.108v-7.93l1.787-1.732.447.225.67.503.112.223.166.28.168.447.056.726v8.49l-.558-.336-.615-.39-.67-.17-1.118-.277-.447-.057zm85.17.838-.56.447-1.452 1.23-.725.614-.558.39-.39.225-.28.056-.335-.167-.39-.222-.447-.446-.67-.448-.727-.447-.614-.28-.447-.223-.112-.112-.056-.168.11-.11.504-.448.223-.336.112-.447v-14.24l-.058-.39-.11-.45-.392-.725-.447-.56-.335-.278-.223-.335.112-.168.223-.056.558.112.84.39.89.56 1.342-.95 1.117-.56.447-.222.335-.112.445.112.112.223-.056.167-.11.168-.39.223-.448.446-.167.28-.223.335-.112.446-.056.446v6.535l2.01-1.844 1.9-1.73 3.015 2.96-3.13 3.182 1.677 1.677.28.447.222.557.39 1.34.112 1.228.056.838.056.503.168.39.167.113.11.11h.224l.224-.11.278-.225.113-.056.11-.057.224.168.167.224v.112l-.055.11-3.128 2.515-.167-.055-.335-.112-.39-.28-.168-.278-.112-.335-.447-1.34-.056-.56zm-3.52-4.523 4.078-4.077-1.787-1.843-2.29 2.178v3.742zm0 3.854 1.508 1.117 1.733-1.227-.056-.782-.168-.838-.28-.782-.39-.727-.448-.39-.39-.167-.112-.056-1.396 1.173v2.68zm-42.162-17.648.614.168.782.335.893.558 1.342-.893 1.115-.614.447-.167.39-.113.448.112.11.166-.054.223-.168.11-.39.225-.448.446-.168.28-.223.39-.112.392-.057.447v6.086l.616-.335.726-.445.782-.615 1.396-1.23.503-.334.39-.11.224.055.336.168.39.28.336.39.39.56.278.725.168.837.11 1.006-.054 5.81.055 3.517-1.004.502-1.844.894-.67.445-.56.503-.39.335-.223.168-.447-.222-.67-.503-.84-.56-.89-.557-1.007-.335-.95-.336-1.004-.334-.058-.112-.056-.167.113-.11.165-.113.168-.224.168-.39.113-.558v-13.796l-.057-.39-.167-.392-.39-.78-.45-.56-.277-.28-.17-.166-.055-.112.056-.224.224-.056zm4.523 16.923 1.566.78 1.73.728v-9.494l-.055-.615-.223-.448-.222-.28-.28-.11-.502.334-.894.67-1.12.952zm-31.946-11.896.838.39.837.447 1.063.28.614.166h1.06l.392-.11.557-.28.225-.167.222-.057.17.11.166.112v.17l-.223.278-.28.502-.28.67-.11.783v8.824l.11.556.225.39.278.225.113.057.446-.168.39-.224.167-.056.224.112.17.223-.058.168-1.508 1.507-1.06.95-.39.28-.225.11-.28-.167-.447-.39-.335-.503-.223-.447-.67-1.73-.782.558-.614.503-.616.503-1.172 1.116-.503.39-.225.113-.224.056-.222-.11-.39-.28-.392-.446-.39-.504-.39-.614-.392-.725-.168-.726-.112-.782.057-.725.167-.782.225-.67.278-.615.56-1.06.446-.615.56-.782.445-.503-2.736-4.803h.894l.838-.112.78-.112.84-.39.614-.392.334-.334.112-.167zm-.894 6.03 1.452.67 1.508.67v-3.46l-1.954-.784-1.116-.335-.95-.222-.95-.112 2.01 3.575zm-.948 3.855.11.837.225.726.333.67.336.503.67.727.334.224 1.898-1.675v-3.687l-.502-.28-1.06-.448-1.23-.558h-.168l-.223.112-.168.168-.223.334-.17.504-.11.837-.056 1.005zm8.88-7.43-.057.113.056.056.168.223.224.057.224-.057.446-.223.392-.168h.167l.168.056.112.223v9.775l-.055.166-.39.28-.616.447v.168l.113.112.223.112.67.167.67.28.782.503.727.558.502.504.39.447 1.732-1.507 1.116-.893.893-.727.056-.11v-.113l-.224-.335-.28-.168h-.222l-.112.113-.782.613-.39.28-.28-.056-.446-.28-.225-.167-.222-.335-.17-.28v-8.99l1.12-.95.333.28.67.78.616.95.223.392 2.29-2.123-2.346-2.792-2.906 2.345-.167-.56-.502-.89-.39-.393-.504-.28-.558-.222-3.24 2.624zm10.61.727.112.056.39.223.28.225.168.167.112.17.055 8.6-.166.445-.335.504-.504.615 5.083 2.066 1.954-1.34 2.233-1.507.11-.112.057-.167-.11-.223-.224-.168h-.168l-.112.056-1.117.726-.893.503-2.68-1.396v-2.68l5.808-4.97-2.01-2.514-1.398-1.675-.502-.557-.223-.224-5.92 3.182zm4.245 5.53v-6.367l2.96 3.74-2.96 2.626zm22.338-8.713.783.39.894.447 1.06.28.616.166h1.06l.335-.11.56-.28.278-.167.168-.057.224.11.223.112-.055.17-.224.278-.278.502-.28.67-.11.783v8.824l.11.556.223.39.224.225.167.057.447-.168.336-.224.223-.056.223.112.112.223v.168l-1.564 1.507-1.005.95-.447.28-.167.11-.333-.167-.392-.39-.335-.503-.28-.447-.614-1.73-.782.558-.613.503-.614.503-1.173 1.116-.503.39-.222.113-.224.056-.28-.11-.334-.28-.39-.446-.392-.504-.39-.614-.392-.725-.168-.726-.112-.782.056-.725.168-.782.223-.67.28-.615.558-1.06.392-.615.615-.782.39-.503-2.68-4.803h.893l.782-.112.837-.112.837-.39.615-.392.335-.334.11-.167zm-.893 6.03 1.452.67 1.508.67v-3.46l-1.955-.784-1.117-.335-.95-.222-.948-.112 2.01 3.575zm-.894 3.855.058.837.222.726.28.67.39.503.67.727.336.224 1.9-1.675v-3.686l-.503-.28-1.06-.448-1.23-.558h-.168l-.224.112-.166.168-.224.334-.167.504-.112.837v1.005zm12.176-10.053-3.015 2.29-.11.11v.113l.055.223.223.112.224-.056.503-.28.223-.055.278.055.17.11.11.225.11.615v8.935l-.054.223-.167.28-.39.446-.56.502 2.68 2.57 2.68-2.515-.557-.502-.39-.56-.112-.278v-8.654l2.29-1.674.167.11.335.224.334.447.113.28.056.334v9.552l.167.502.17.614.39.726.837 1.062.223.335 1.564-1.284 1.844-1.563.056-.112.056-.167-.112-.223-.28-.112h-.167l-.056.056-.446.39-.39.17-.28-.448-.223-.503-.11-.558v-7.54l.11-1.005.168-.446.224-.448.167-.28.28-.278.446-.39.11-.168v-.112l-.167-.28-.336-.11h-.166l-.17.054-.78.67-.558.39-.224-.277-.56-.67-.612-.67-.504-.28-.167-.056h-.167l-.113.11-3.517 2.625v-.726l-.056-.558-.17-.39-.836-.728-.446-.39-.392-.112z" fill="#09417a"/><path d="m139.426 50.403.78.726.84.668.837.615.95.447 1.06.39.95.224 1.117.224 1.173.055 1.116-.055 1.06-.224 1.062-.28 1.062-.39.948-.503.895-.558.893-.67.725-.725-.502-.28-.503-.167-.67-.057-.725.28-.726.28-.616.055-.67-.11-.56-.28-.446-.168-.335-.168-.447.11-.557.28-.616.28-.39.056-.448-.055-.67-.28-.95-.28-.613.057-.727.334-.893.447-.838-.446-.614-.222h-.39l-.223.055-.783.39-.39.057-.168-.056v-.055" fill="#fff"/><path d="m153.834 51.463-.39-.056h-.392l-.28.113-.39.278-.334.224-.28.11-.334.057-.39-.057-.28-.056-.504-.223-.39-.334-.224-.057-.39-.056-.28.056-.224.057-.503.334-.447.223-.223.112-.335.055-.336-.056-.224-.057-.447-.223-.392-.28-.278-.11-.336-.057-.446.057-.28.11-.558.28-.447.28-.224.11-.28.057-.447-.112-.28-.28-.334-.223-.225-.056-.28-.055-.39.056-.278.168-.448-.39.447-.224.223-.168.39-.056.28.056.167.057.392.277.278.224.223.056.224.056.28-.056.223-.11.447-.224.56-.336.278-.11h.782l.278.11.447.28.39.224.223.055.336.056.278-.055.28-.055.5-.28.392-.28.28-.055.336-.056.278.055.223.055.503.28.447.223.28.112h.39l.336-.055.278-.113.336-.222.39-.28h.28l.336-.056.614.055.392.11-.504.448" fill="#09417a"/><path d="m150.875 53.418.838-.503h-.28l-.39-.055-.336-.056-.447-.28-.446-.28-.223-.055-.334-.057-.336.056-.224.055-.893.56-.28.11h-.67l-.223-.055-.39-.28-.392-.223-.278-.112-.39-.056-.448.055-.224.112-.558.224-.447.335-.503.112.726.39.615-.446.392-.11.502-.056.39.056.28.055.392.223.446.28.223.056.28.055.335-.056.28-.056.892-.558.28-.113h.28l.445.057.39.167.28.225.392.223h.055m3.854-2.847-.28-.167-.224-.113-.336-.223-.558-.055h-.39l-.28.11-.39.28-.337.223-.222.113-.39.056-.392-.056-.28-.057-.445-.277-.448-.28-.28-.056-.277-.055-.335.055-.28.056-.39.28-.447.278-.336.114-.28.055-.334-.056-.224-.056-.39-.28-.448-.224-.28-.11-.39-.057-.39.056-.28.11-.558.28-.447.28-.223.112h-.28l-.446-.056-.278-.28-.39-.223-.168-.057-.28-.056-.502.113-.28.167-.278.167-.224.114-.335-.056-.726-.782.5.167.448.055.28-.055.223-.223.337-.168.502-.112.278.056.223.112.28.168.336.278.167.056.28.057.278-.057.226-.112.446-.278.503-.28.39-.11h.726l.336.11.392.28.334.223.28.055.335.056.28-.056.28-.055.445-.28.447-.278.222-.113.39-.055.28.055.28.113.39.278.447.224.335.11h.39l.392-.054.223-.11.335-.225.39-.28.28-.056.335-.055.447.055.223.113.336.223.28.224.166.055h.503l-.446.502" fill="#09417a"/><path d="m147.02 38.394v8.714l.113-.28.224-.838.28-1.396.166-1.955v-.895l-.055-.893-.28-1.285-.28-.838-.167-.336" fill="#9f873d"/><path d="m132.78 45.208-.056-1.34h.335l.11.95.782-.057-.11-.892.39-.056.056.893 1.34-.166.056.333-2.904.335m-.111-1.955v-.39l2.513.056.058-1.006h.334l-.055 1.395-2.85-.057m.112-2.008.223-1.396.335.055-.112 1.006.783.168.22-.894.337.056-.224.893.95.225.167-1.005h.392l-.224 1.395-2.848-.502m.447-2.234.112-.28 1.23.39-.84-1.396.113-.39.894 1.508 1.843-.67-.167.502-1.676.56 1.34.445-.167.334-2.68-1.005m1.002-2.456.17-.28 1.06.614-.558-1.507.28-.392.558 1.675 1.955-.335-.28.503-1.73.17 1.172.724-.168.28-2.46-1.452m1.399-2.178.838-1.005.28.166-.616.782.615.558.558-.726.335.224-.614.725.726.614.67-.78.28.22-.893 1.062-2.18-1.842m1.397-1.562.95-.894.28.28-.727.67.56.558.668-.558.224.224-.67.614.893 1.005-.28.166-1.9-2.066m2.738.895c.056 0 .168-.057.224-.057.28-.223.223-.39 0-.726l-1.172-1.618.335-.224 1.172 1.788c.223.334.334.725-.056 1.005-.112.057-.224.112-.28.112l-.223-.278m1.007-3.633c.67-.28 1.34.112 1.73.838.336.783.28 1.51-.39 1.844-.726.336-1.34 0-1.73-.838-.393-.726-.225-1.507.39-1.843zm1.116 2.346c.503-.225.503-.84.28-1.342-.28-.502-.727-.893-1.23-.67-.502.224-.502.84-.223 1.396.223.503.67.894 1.173.615zm.782-3.072.56-.112c.5-.11.948-.167 1.06.503.11.335 0 .614-.28.726.112.056.223.112.28.28l.725.95-.334.11-.614-.893c-.224-.222-.28-.167-.447-.11l-.224.055.336 1.173-.39.112-.67-2.793zm.614 1.117.278-.055c.336-.058.504-.28.392-.56-.056-.28-.224-.39-.56-.28l-.334.056.223.838zm1.675-1.619.782-.056c.67-.057 1.285.39 1.397 1.283.056.95-.39 1.452-1.228 1.564l-.67.056-.28-2.848zm.56 2.457.334-.055c.614 0 .894-.392.894-1.118-.056-.726-.503-1.062-1.006-1.006h-.39l.168 2.178zm5.361-1.676c-.112-.112-.224-.167-.447-.222-.168-.057-.39 0-.503.278-.11.558.95.67.726 1.62-.166.56-.613.67-1.06.56-.168 0-.334-.114-.447-.225l.113-.335c.055.055.278.167.5.223.113.056.45 0 .504-.335.168-.614-.893-.67-.67-1.564.112-.446.503-.67.95-.558.167.056.28.112.446.223l-.11.336m.893-.167.612.278c.447.167.782.502.504 1.117-.17.558-.67.614-1.117.502l-.28-.167-.447 1.117-.28-.167 1.006-2.68zm-.17 1.395.335.112c.225.11.503.11.67-.224.112-.39-.167-.614-.39-.67l-.224-.168-.39.95zm2.905-.055.335.167-.614 2.96-.392-.168.224-.783-1.006-.614-.614.503-.278-.168 2.345-1.9zm-.056.39-1.173.95.893.558zm1.788.726.446.447c.335.335.558.67.112 1.173-.223.335-.558.335-.783.168.056.167.056.167 0 .39l-.446 1.173-.335-.334.447-.95c.056-.28 0-.336-.11-.503l-.168-.11-.84.948-.334-.28 2.01-2.122zm-.56 1.174.17.222c.277.224.5.224.725.057.166-.225.166-.504-.113-.672l-.223-.28-.56.672zm2.29.557.783 1.117-.224.17-.67-.784-.615.56.56.67-.28.222-.558-.726-.725.614.558.782-.223.224-.84-1.062 2.235-1.787m1.284 1.733.335.558c.223.447.223.893-.224 1.116-.334.223-.613.112-.837-.11.168.333 0 .67-.335.892-.502.28-.893 0-1.116-.503l-.336-.502 2.514-1.45zm-2.01 1.506.11.28c.168.224.392.502.672.28.39-.17.28-.56.167-.783l-.11-.223-.84.446zm1.116-.558.112.112c.168.336.28.56.726.336.28-.17.223-.448.11-.615l-.165-.334-.782.502zm2.29 2.012.112.334-2.402 1.898-.11-.334.613-.502-.39-1.117h-.726l-.112-.337 3.016.056zm-.334.28h-1.51l.392.89zm.948 1.73v.502l-2.12 1.34 2.288-.335.056.39-2.848.336-.057-.447 2.18-1.34-2.345.223-.057-.28 2.904-.39m.223 2.848v.336l-1.228-.056 1.116 1.117v.447l-1.284-1.172-1.564 1.06v-.502l1.508-1.004-1.396-.056v-.335l2.848.167m-23.736 6.589c.503.615.224 1.284-.503 1.787-.67.502-1.452.558-1.9-.055-.39-.615-.11-1.286.56-1.844.67-.447 1.452-.502 1.843.112zm-2.066 1.507c.335.447.893.336 1.397 0 .447-.335.727-.892.39-1.34-.278-.39-.893-.28-1.34 0-.446.392-.782.894-.446 1.34zm2.959-.39.447.502c.336.28.56.726.113 1.23-.448.446-.95.278-1.285 0l-.223-.224-.783.838-.223-.28 1.953-2.065zm-.725 1.228.28.28c.11.11.445.223.67-.056.28-.28.11-.56-.056-.726l-.17-.223-.724.726zm1.954-.056.56.392c.39.277.613.668.278 1.228-.39.502-.894.446-1.23.222l-.277-.222-.67.95-.28-.224 1.62-2.347zm-.446 1.34.28.17c.166.166.5.222.67-.113.222-.28 0-.56-.112-.67l-.28-.223-.558.838zm1.954-.222.56.223c.39.224.836.502.5 1.117-.166.336-.445.446-.725.39.056.056.056.392.056.392l-.055 1.173-.39-.112.11-1.06c0-.337-.11-.392-.222-.447l-.223-.112-.56 1.173-.278-.166 1.23-2.57zm-.223 1.23.28.11c.334.167.558.112.67-.11.112-.28.055-.505-.28-.616l-.28-.168-.39.782zm1.843-.505 1.285.447-.057.335-.95-.278-.278.78.894.224-.112.39-.894-.278-.223.894.95.335-.112.278-1.284-.335.78-2.793m2.011 1.007-.725-.112.056-.39 1.843.278-.055.336-.783-.112-.335 2.513-.334-.056.334-2.458m2.066.113h-.78l-.058-.336 1.9-.055.054.334h-.782l.056 2.515h-.335l-.056-2.457m1.174-.392 1.396-.223.056.39-1.006.112.113.893.947-.168v.335l-.892.168.166.893 1.007-.11.056.333-1.34.17-.504-2.793m2.291-.112-.726.28-.112-.39 1.787-.56.11.335-.725.224.782 2.4-.335.113-.783-2.402m2.682-1.061-.11.502-.337-.112.28-.78.224-.17 1.452 2.458-.28.168-1.23-2.066m1.901.836c-.28-.334-.28-.668-.112-.948-.336.112-.67-.056-.782-.28-.28-.222-.224-.67.112-1.005.39-.28.837-.223 1.005 0 .223.28.278.447.167.838.28-.055.614 0 .838.28.39.447.28.838-.11 1.172-.337.224-.84.335-1.118-.056zm.166-1.004c-.055.223-.11.447.057.67.223.28.503.28.725.113.17-.17.17-.392.056-.672-.278-.28-.503-.167-.838-.112zm-.055-.335c0-.334 0-.5-.11-.613-.225-.224-.39-.112-.56 0-.11.056-.28.335-.055.558.112.168.335.112.726.056zm1.006-1.061.166-.112c.17-.167.335-.503.056-.782-.223-.167-.503-.11-.67.056-.113.223-.17.335-.224.56l-.335-.225c.056-.167.225-.447.336-.558.28-.336.726-.447 1.172-.056.224.166.224.558.057.78h.055c.28-.167.56-.167.894.057.503.447.28.894 0 1.285-.167.112-.335.28-.503.336l-.278-.28c.167-.055.335-.11.503-.278.167-.223.28-.503 0-.782-.28-.28-.615-.112-.782.112l-.168.167-.278-.28m1.172-3.015 1.62 2.177-.225.335-1.564-2.178-.668 1.004-.28-.222.837-1.23.28.113m-22.453-.894.224-.055.168-.056.17-.224v-.447l-.17-.225-.167-.112h-.446l-.223.112-.11.224-.057.166.057.28.11.223.224.055.223.055m24.012.004.28-.055.167-.056.112-.224.055-.28-.055-.167-.113-.225-.168-.112h-.502l-.17.112-.165.224-.057.166.057.28.166.223.17.055.222.055" fill="#09417a"/></g></svg>