<svg height="14" viewBox="0 0 66 14" width="66" xmlns="http://www.w3.org/2000/svg"><g fill="#fff"><path d="m59.9103448 2.99310345c-2.6551724.19310345-4.7793103 2.36551724-4.9724138 5.02068965-.1931034 3.137931 2.2689656 5.7448276 5.3586207 5.7448276 1.1103449 0 2.6068966-.5793104 3.2827586-1.737931v1.5931034h2.0758621v-5.11724138c.0965517-3.37931034-2.6068965-5.74482758-5.7448276-5.50344827zm3.524138 5.50344827c-.0965518 1.78620688-1.6413794 3.13793108-3.4758621 2.89655168-1.4-.1931034-2.5103448-1.3034482-2.7034483-2.70344823-.1931034-1.88275862 1.2551724-3.47586207 3.0896552-3.47586207 1.6413793 0 2.9931034 1.30344828 3.0896552 2.94482759z"/><path d="m48.5172414 2.99310345c-2.8482759.09655172-5.262069 2.26896552-5.262069 5.45517241 0 2.89655174 2.3655173 5.35862074 5.4068966 5.35862074 2.1241379 0 4.2-1.2551725 5.0206896-3.3310345l-2.075862-.62758624c-.3862069.86896554-1.3034483 1.59310344-2.3172414 1.78620694-1.4482759.2896551-2.8-.6275862-3.3310345-1.5931035l8.062069-2.22068964c-.2413794-2.12413794-2.0758621-4.92413794-5.5034483-4.82758621zm-2.9931035 5.11724138c0-1.11034483.6758621-2.41379311 2.124138-2.94482759 1.6413793-.62758621 3.0896551.19310345 3.7172413 1.35172414z"/><path d="m30.8 5.16551724v-2.22068965c-2.0275862 0-2.7034483 1.0137931-3.0413793 1.54482758v-1.20689655h-2.3172414v4.92413793 5.35862065h2.3655173c0-3.1862069 0-3.137931 0-5.06896548 0-2.31724138 1.3517241-3.23448275 2.9931034-3.33103448z"/><path d="m9.51034483 9.46206897-7.04827586-8.30344828h-2.41379311v12.40689651h2.51034483v-8.30344823l7.14482759 8.35172413h2.17241382v-12.45517241h-2.36551727z"/><path d="m41.8551724.04827586h-2.2206896v4.05517242c-.5310345-.67586207-2.1724138-1.25517242-3.5724138-1.11034483-2.6551724.19310345-4.7793104 2.36551724-4.9724138 5.02068965-.1931035 3.137931 2.2689655 5.7448276 5.3586207 5.7448276 1.1586207 0 2.7517241-.5310345 3.2827586-1.5448276v1.3517241h2.0758621v-5.11724134c0-.04827586 0-.04827586 0-.09655172s0-.04827586 0-.09655173zm-2.3172414 8.44827586c-.0965517 1.78620688-1.6413793 3.13793108-3.475862 2.89655168-1.4-.1931034-2.5103449-1.3034482-2.7034483-2.70344823-.1931035-1.88275862 1.2551724-3.47586207 3.0896552-3.47586207 1.6413793 0 2.9931034 1.30344828 3.0896551 2.94482759z"/><path d="m18.6827586 2.94482759c-2.9931034 0-5.4068965 2.4137931-5.4068965 5.40689655 0 2.99310346 2.4137931 5.40689656 5.4068965 5.40689656 2.9931035 0 5.4068966-2.4137931 5.4068966-5.40689656-.0482759-2.99310345-2.462069-5.40689655-5.4068966-5.40689655zm0 8.49655171c-1.6896552 0-3.0896552-1.4-3.0896552-3.08965516 0-1.68965517 1.4-3.08965517 3.0896552-3.08965517s3.0896552 1.4 3.0896552 3.08965517c0 1.73793106-1.4 3.08965516-3.0896552 3.08965516z"/></g></svg>