<svg height="19" viewBox="0 0 86 19" width="86" xmlns="http://www.w3.org/2000/svg"><g fill="#fff" fill-rule="evenodd"><path d="m3.66411699 14.7182227c-1.73082115 0-3.10224972-.3992126-3.35534309-.4791901-.13329583-.0533183-.19977502-.1596175-.19977502-.2794151v-.0664791l.17311586-.8790777c.02665916-.1329583.11979752-.1727784.22643419-.1727784.02665917 0 .05331834 0 .09313836.0131609.27975253.0533183 1.63768279.4393701 2.915973.4393701 1.09167604 0 2.06355456-.3195726 2.06355456-1.4510686 0-1.1453319-.99820023-1.2647919-2.28998875-1.4514061-1.43790776-.2132734-3.28852644-.5993251-3.28852644-2.86299214 0-2.32980878 1.73082115-2.94229472 3.78121485-2.94229472 1.55804275 0 2.84949381.37289089 3.14206974.45253094.15995501.04015748.23993251.14679415.23993251.27975253v.06647919l-.18627672.8655793c-.01349831.09313836-.10663667.18627672-.21327334.18627672-.01316085 0-.02665916-.01316086-.03982002-.01316086-.63914511-.13329584-1.62452193-.39955005-2.79617548-.39955005-.98537682 0-2.02373453.18661417-2.02373453 1.30494938 0 1.10517435 1.11833521 1.2647919 2.30348706 1.43790776 1.55770529.23959505 3.32834646.46602924 3.32834646 2.94263215 0 2.3298088-1.89043869 3.0087739-3.8743532 3.0087739"/><path d="m20.0355456 11.1769404-1.6511811.2662542c-.5460068.07964-1.0518561.1596175-1.0518561 1.0248594 0 1.0386952.8389202 1.1186727 1.4780653 1.1186727.5190101 0 .9452193-.0931384 1.2249719-.1866142zm.5456692 3.3816648c-.4660292.1066366-1.1051743.1862767-1.8506186.1862767-1.4379078 0-3.2088864-.1461192-3.2088864-2.2633296 0-1.7176603 1.0785152-1.9035995 2.1438695-2.0770529l2.3699663-.3863892v-.42587173c0-.37289089-.0401575-.63914511-.3728909-.7856018-.2132734-.09313836-.5328459-.13295838-1.012036-.13295838-.9053994 0-1.8907762.26625422-2.2899888.37255343-.0401575 0-.0664792.01349831-.0931383.01349831-.0668167 0-.1332959-.02665916-.1467942-.11979752l-.1862767-.82542182v-.05331834c0-.11979752.0934758-.17311586.159955-.19977503.3195726-.11979752 1.544207-.45286839 2.9024747-.45286839.9452193 0 1.5843644.13329584 2.0105737.37289089.6789651.37289089.8122609.99853768.8122609 1.71766029v3.67491559c0 .9985377-.3330708 1.1716536-1.2384702 1.3845895z"/><path d="m26.5697413 8.7799775c-.8119235 0-1.504387.07997751-1.8772779.17311586v5.41923514c0 .1197975-.0799775.199775-.1994375.199775h-1.3582677c-.0799775 0-.2264342-.0799775-.2264342-.199775v-5.75196854c0-.51934759.3060742-.67896513.9452193-.86557931.5858268-.18627671 1.5313836-.31923509 2.2903262-.33273341h.2260968c.1866141 0 .1866141 0 .2797525.03982003.0533183.02665916.1197975.0799775.1197975.21293588v.8655793c0 .13329584-.0131608.23959505-.199775.23959505"/><path d="m31.6613048 9.60573678c-.1731158-.73228346-.5723284-.97221597-1.3579302-.97221597-.8922385 0-1.2651294.26625422-1.4115861.93205849-.0931383.37289089-.0931383.7592801-.1062992 1.1983127l2.9824522-.0134983c0-.4255343-.0134983-.78526434-.1066367-1.14465692zm1.8772779 1.98391452c0 .1461192-.0799775.3060742-.2794151.3060742h-4.4605174c0 .612486.1731158.9455568.5325084 1.2249719.3462317.2794151.852081.3992126 1.5712036.3992126.8257593 0 1.4510686-.1994376 1.864117-.3195725.0266592-.0131609.03982-.0131609.0664792-.0131609.0799775 0 .1464567.0533183.1866142.1866142l.1727784.6786276c0 .0134984.0134983.040495.0134983.0668167 0 .1066367-.0664792.1596175-.159955.199775-.452531.1862767-1.3579303.4258718-2.4097863.4258718-2.6095613 0-3.6347582-1.0251969-3.6347582-3.6344207 0-2.5032621.692126-3.70191227 3.2885265-3.70191227 1.3447694 0 2.1701912.34623172 2.6497188.98537683.4525309.59932508.5989876 1.45140607.5989876 2.55624294z"/><path d="m48.1393701 11.1769404-1.6508437.2662542c-.5460067.07964-1.051856.1596175-1.051856 1.0248594 0 1.0386952.8385827 1.1186727 1.4777278 1.1186727.5190101 0 .9452193-.0931384 1.2249719-.1866142zm.5456693 3.3816648c-.4656918.1066366-1.1051744.1862767-1.8506187.1862767-1.4382452 0-3.2088864-.1461192-3.2088864-2.2633296 0-1.7176603 1.0788527-1.9035995 2.1438695-2.0770529l2.3699663-.3863892v-.42587173c0-.37289089-.0401575-.63914511-.3728909-.7856018-.2129359-.09313836-.5325084-.13295838-1.0116985-.13295838-.9057368 0-1.8911137.26625422-2.2903263.37255343-.03982 0-.0668166.01349831-.0931383.01349831-.0664792 0-.1329584-.02665916-.1464567-.11979752l-.1862767-.82542182v-.05331834c0-.11979752.0928009-.17311586.1596175-.19977503.3195726-.11979752 1.5445445-.45286839 2.9024747-.45286839.9452194 0 1.5843645.13329584 2.0105737.37289089.6793026.37289089.812261.99853768.812261 1.71766029v3.67491559c0 .9985377-.3330709 1.1716536-1.2384702 1.3845895z"/><path d="m57.0438695 14.5721035h-1.3714286c-.1201349 0-.2129358-.0799775-.2129358-.199775v-4.70011253c0-.77244094-.2929134-1.03869516-.9985377-1.03869516-.7991001 0-1.664342.2264342-1.664342.2264342v5.51237349c0 .1197975-.0799775.199775-.199775.199775h-1.3582677c-.1332959 0-.2260968-.0799775-.2260968-.199775v-5.73880769c0-.50584927.2527559-.67896513.9985377-.87874016.6789652-.18627671 1.7973004-.34623172 2.6493813-.34623172 1.664342 0 2.5832396.42620923 2.5832396 2.02373453v4.94004504c0 .1197975-.0799775.199775-.199775.199775"/><path d="m64.7645669 14.4519685c0 .0533183-.0529808.120135-.1332958.120135h-1.7841395c-.0664792 0-.1329584 0-.199775-.0799775l-2.0635546-2.8096738h-.4525309v2.6898763c0 .1197975-.0668167.199775-.199775.199775h-1.3714286c-.1194601 0-.2132733-.0799775-.2132733-.199775v-9.30708666c0-.15961754.0668166-.23959505.2267716-.27941507l1.3046119-.22643419h.0533184c.1197975 0 .199775.0799775.199775.22643419v5.69831273h.4525309l2.1040495-2.80933635c.0529809-.07964005.1062992-.0928009.1727784-.0928009l1.624522.03982002c.0931383 0 .1329583.06647919.1329583.11979753 0 .02665917-.0131608.03982002-.0266591.06647919l-2.516423 3.16906641 2.6632171 3.4083239c.0131609.0134983.0263217.0401575.0263217.0664792"/><path d="m11.5515186 13.51991c-.7187852 0-1.2647919-.1592801-1.2647919-.1592801v-4.48717658s.7856018-.21293588 1.3977502-.21293588c1.012036 0 1.4514061.22609673 1.4514061 2.38312706 0 2.0237346-.3728909 2.4762655-1.5843644 2.4762655zm.5058492-6.11136107c-.891901 0-1.9170978.14679415-2.71586049.42620923-.59932508.18627671-.83892013.38605174-.83892013 1.07851518v8.24173226c0 .1329584.10427446.2419573.29628796.2071991.19167604-.0344207 1.26141736-.232171 1.26141736-.232171.159955-.0266591.2264342-.1066366.2264342-.2662542v-2.3213723c.4724409.1150731 1.0683914.2024747 1.7308211.2024747 2.4766029 0 2.9422947-1.5577053 2.9422947-3.6614173 0-2.11687292-.3327334-3.67491567-2.9024747-3.67491567z"/><path d="m39.1505062 10.2445444-2.5029246-.07964v3.0354331h2.5029246c1.3447694 0 1.7841395-.5854894 1.7841395-1.3980878 0-1.0913386-.3593926-1.5178852-1.7841395-1.5577053zm.0664792-4.14060739h-2.5694038v2.84915635l2.4766029-.10629921c1.0116985-.04015748 1.5310461-.39955006 1.5310461-1.41124859 0-.93239595-.4528684-1.33160855-1.4382452-1.33160855zm.1734533 8.46816649h-4.4338583c-.120135 0-.2264342-.0934758-.2264342-.2129359v-9.41372328c0-.11979753.1062992-.21293588.2264342-.21293588h4.4470192c2.2515185 0 3.1687289.88278965 3.1687289 2.48166479 0 1.41124859-.7839146 1.91642295-1.9970754 2.26366704 1.3467941.2223847 2.3301462.95331833 2.3301462 2.52418443 0 1.7841395-1.251631 2.5700788-3.5149606 2.5700788z"/><path d="m76.1082115.04420697c-.9894263 0-1.9427447.15455569-2.8383577.43869517 3.7690663-.8176603 7.5050618.73498312 8.8508436 3.9151856 1.5553431 3.67559055-.6712036 8.13138356-4.9734533 9.95196846-3.8588302 1.6329584-8.075703.5895389-10.0262092-2.295388 1.1409449 3.8861642 4.731496 6.7248594 8.9871766 6.7248594 5.1735658 0 9.367829-4.1939258 9.367829-9.36782906 0-5.17356581-4.1942632-9.36749157-9.367829-9.36749157"/><path d="m77.1472441 14.3500562c-3.8588302 1.6329584-8.075703.5895389-10.0262092-2.295388-.2460068-.8385827-.3806524-1.7247469-.3806524-2.64296966 0-4.18380203 2.7438695-7.72609674 6.5294713-8.9287964 3.7690663-.8176603 7.5050618.73498312 8.8508436 3.9151856 1.5553431 3.67559055-.6712036 8.13138356-4.9734533 9.95196846zm1.0150731-10.6700787h-2.1779527c-.1555681 0-.2429697.03475816-.3820023.08672666l-2.8103487 1.44668167c-.1731159.06985377-.2426322.17345332-.2426322.34724409v1.57626547c0 .18526434.1505062.33475815.3350956.33475815h1.7986502v7.55534306c.8213723-.1140607 1.6505062-.3327334 2.464117-.6769404.4815523-.2038245.9354331-.4420697 1.3623172-.7069741v-9.61653542c0-.19100112-.1559055-.34656918-.3472441-.34656918z"/></g></svg>