<svg width="24" height="22" viewBox="0 0 24 22" fill="none" xmlns="http://www.w3.org/2000/svg">
<path d="M15.3443 1.05676C14.9071 1.62648 14.9071 2.48105 15.3443 3.05077L20.4153 9.65949L1.0929 9.65949C0.480874 9.65949 6.07712e-08 10.2862 5.64633e-08 11.0838C5.21555e-08 11.8814 0.480874 12.5081 1.0929 12.5081L20.4153 12.5081L15.3005 19.1168C14.8634 19.6865 14.9071 20.5411 15.3005 21.1108C15.7377 21.6805 16.3934 21.6805 16.8306 21.1108L23.694 12.0523C23.7814 11.9384 23.8689 11.7674 23.9126 11.5965C23.9563 11.4256 24 11.2547 24 11.0268C24 10.685 23.9126 10.2862 23.694 10.0583L16.8306 0.999791C16.4372 0.487046 15.7377 0.487044 15.3443 1.05676Z" fill="white"/>
<path d="M15.3443 1.05676C14.9071 1.62648 14.9071 2.48105 15.3443 3.05077L20.4153 9.65949L1.0929 9.65949C0.480874 9.65949 6.07712e-08 10.2862 5.64633e-08 11.0838C5.21555e-08 11.8814 0.480874 12.5081 1.0929 12.5081L20.4153 12.5081L15.3005 19.1168C14.8634 19.6865 14.9071 20.5411 15.3005 21.1108C15.7377 21.6805 16.3934 21.6805 16.8306 21.1108L23.694 12.0523C23.7814 11.9384 23.8689 11.7674 23.9126 11.5965C23.9563 11.4256 24 11.2547 24 11.0268C24 10.685 23.9126 10.2862 23.694 10.0583L16.8306 0.999791C16.4372 0.487046 15.7377 0.487044 15.3443 1.05676Z" stroke="white"/>
</svg>
