<svg width="17" height="17" viewBox="0 0 17 17" fill="none" xmlns="http://www.w3.org/2000/svg">
<path d="M8.10801 1.19975C8.36524 1.02978 8.67288 0.938477 8.98831 0.938477C9.30375 0.938477 9.61138 1.02978 9.86862 1.19975L16.5459 5.61046C17.3754 6.15861 16.9601 7.37602 15.9435 7.37814H2.03659C1.01651 7.37814 0.598892 6.15967 1.43184 5.61046L8.10801 1.19975ZM8.98888 5.12074C9.24112 5.12074 9.48302 5.02745 9.66137 4.8614C9.83973 4.69535 9.93993 4.47013 9.93993 4.2353C9.93993 4.00047 9.83973 3.77526 9.66137 3.6092C9.48302 3.44315 9.24112 3.34987 8.98888 3.34987C8.73665 3.34987 8.49475 3.44315 8.31639 3.6092C8.13803 3.77526 8.03783 4.00047 8.03783 4.2353C8.03783 4.47013 8.13803 4.69535 8.31639 4.8614C8.49475 5.02745 8.73665 5.12074 8.98888 5.12074Z" fill="#54606E"/>
<path d="M2.71326 8.44043V12.6897H4.99532V8.44043H2.71326Z" fill="#54606E"/>
<path d="M1.00171 16.054C1.00171 14.7824 2.10851 13.752 3.47318 13.752H14.5035C15.8693 13.752 16.9761 14.7824 16.9761 16.054V16.4077C16.9761 16.5486 16.916 16.6837 16.809 16.7833C16.702 16.8829 16.5569 16.9389 16.4056 16.9389H1.57222C1.42091 16.9389 1.2758 16.8829 1.16881 16.7833C1.06182 16.6837 1.00171 16.5486 1.00171 16.4077V16.054Z" fill="#54606E"/>
<path d="M15.2646 8.44043V12.6897H12.9825V8.44043H15.2646Z" fill="#54606E"/>
<path d="M11.8415 8.44043V12.6897H9.55945V8.44043H11.8415Z" fill="#54606E"/>
<path d="M8.41841 8.44043V12.6897H6.13635V8.44043H8.41841Z" fill="#54606E"/>
</svg>
