<svg width="63" height="58" viewBox="0 0 63 58" fill="none" xmlns="http://www.w3.org/2000/svg">
<path d="M9.00002 57C7.58582 55.5858 10.5 48.6667 12 46L19.5 51.5C16.6667 53.8333 10.5 58.5 9.00002 57Z" fill="#112639" stroke="#112639"/>
<path d="M53.6232 57C55.0374 55.5858 52.1232 48.6667 50.6232 46L43.1232 51.5C45.9565 53.8333 52.1232 58.5 53.6232 57Z" fill="#112639" stroke="#112639"/>
<circle cx="31" cy="29" r="4" fill="#112639"/>
<path d="M32 27H44.5C45.3284 27 46 27.6716 46 28.5V28.5C46 29.3284 45.3284 30 44.5 30H32V27Z" fill="#112639"/>
<path d="M30 14C30 13.4477 30.4477 13 31 13V13C31.5523 13 32 13.4477 32 14V26H30V14Z" fill="#112639"/>
<circle cx="31" cy="29" r="24" stroke="#112639" stroke-width="4"/>
<path d="M50.8528 1.6007C51.6738 0.86174 52.9384 0.928233 53.6774 1.74922L60.7703 9.62944C61.5092 10.4504 61.4428 11.715 60.6218 12.454L56.9055 15.799C56.9055 15.799 56.5633 13.9241 52.7643 9.70334C48.9652 5.48263 47.1365 4.94571 47.1365 4.94571L50.8528 1.6007Z" fill="#112639"/>
<path d="M11.2554 1.338C10.4345 0.599045 9.16988 0.665538 8.43093 1.48652L1.338 9.36674C0.599045 10.1877 0.665538 11.4523 1.48652 12.1913L5.20282 15.5363C5.20282 15.5363 5.545 13.6614 9.34403 9.44065C13.1431 5.21993 14.9718 4.68302 14.9718 4.68302L11.2554 1.338Z" fill="#112639"/>
</svg>
