<svg width="96" height="96" viewBox="0 0 96 96" fill="none" xmlns="http://www.w3.org/2000/svg">
<path d="M73 19.2H69.5V12H62.5V19.2H34.5V12H27.5V19.2H24C20.115 19.2 17 22.44 17 26.4V76.8C17 80.76 20.115 84 24 84H73C76.85 84 80 80.76 80 76.8V26.4C80 22.44 76.85 19.2 73 19.2ZM48.5 30C54.31 30 59 34.824 59 40.8C59 46.776 54.31 51.6 48.5 51.6C42.69 51.6 38 46.776 38 40.8C38 34.824 42.69 30 48.5 30ZM69.5 73.2H27.5V69.6C27.5 62.4 41.5 58.44 48.5 58.44C55.5 58.44 69.5 62.4 69.5 69.6V73.2Z" fill="#54606E"/>
</svg>
