<svg width="128" height="123" viewBox="0 0 128 123" fill="none" xmlns="http://www.w3.org/2000/svg">
<ellipse cx="63.695" cy="61.21" rx="63.695" ry="61.21" fill="#F4F5F6"/>
<path d="M46.8656 56.6978C51.5856 66.76 59.19 74.9733 68.4661 80.1289L75.6772 72.3067C76.5622 71.3467 77.8733 71.0267 79.0206 71.4533C82.6917 72.7689 86.6578 73.48 90.7222 73.48C92.525 73.48 94 75.08 94 77.0356V89.4444C94 91.4 92.525 93 90.7222 93C59.9439 93 35 65.9422 35 32.5556C35 30.6 36.475 29 38.2778 29H49.75C51.5528 29 53.0278 30.6 53.0278 32.5556C53.0278 37 53.6833 41.2667 54.8961 45.2489C55.2567 46.4933 54.9944 47.88 54.0767 48.8756L46.8656 56.6978Z" fill="#18BC9C"/>
</svg>
