<svg width="33" height="33" viewBox="0 0 33 33" fill="none" xmlns="http://www.w3.org/2000/svg">
<circle cx="16.5" cy="16.5" r="16.5" fill="#54606E"/>
<path d="M22.8746 13.0089C22.8954 12.9905 22.9159 12.9715 22.9357 12.9514L23.7604 12.1143C24.2485 11.619 24.2485 10.816 23.7604 10.3207L22.2288 8.76616C21.7408 8.27086 20.9495 8.27086 20.4616 8.76616L19.6368 9.6032C19.617 9.6233 19.5983 9.6441 19.5801 9.66521L22.8746 13.0089Z" fill="white"/>
<path d="M11.1827 21.531L12.8116 23.1842L10.8926 23.4786L8.97363 23.773L9.26372 21.8254L9.55381 19.8778L11.1827 21.531Z" fill="white"/>
<path d="M20.0787 11.0681L11.3601 19.9167L10.8888 19.4384L19.6074 10.5898L19.1361 10.1115L9.94629 19.4384L13.2452 22.7865L22.435 13.4596L20.0787 11.0681Z" fill="white"/>
</svg>
