<svg width="128" height="123" viewBox="0 0 128 123" fill="none" xmlns="http://www.w3.org/2000/svg">
<ellipse cx="63.695" cy="61.21" rx="63.695" ry="61.21" fill="#F4F5F6"/>
<g clip-path="url(#clip0)">
<path d="M102 48.3568V78.55C102 83.7701 97.3617 88 91.6383 88H37.3619C34.6137 88 31.9781 87.0043 30.0349 85.2323C28.0917 83.4598 27 81.0564 27 78.55V48.3568L63.3119 66.5728C64.052 66.9436 64.95 66.9436 65.6881 66.5728L102 48.355V48.3568ZM91.6383 34C94.343 34.0002 96.9408 34.9651 98.8758 36.6884C100.811 38.4118 101.931 40.7571 101.996 43.2232L64.5 62.0332L27.0039 43.2214L27.0079 43.0594C27.1184 40.6226 28.2576 38.3193 30.1873 36.6308C32.117 34.9424 34.6877 33.9998 37.3619 34H91.6383Z" fill="#54606E"/>
</g>
<defs>
<clipPath id="clip0">
<rect width="75" height="54" fill="white" transform="translate(27 34)"/>
</clipPath>
</defs>
</svg>
