<svg width="15" height="16" viewBox="0 0 15 16" fill="none" xmlns="http://www.w3.org/2000/svg">
<path d="M5.625 11.2454V15.1885C5.625 15.3377 5.56574 15.4808 5.46025 15.5863C5.35476 15.6917 5.21169 15.751 5.0625 15.751H0.562501C0.413317 15.751 0.270243 15.6917 0.164753 15.5863C0.0592641 15.4808 8.97182e-07 15.3377 8.97182e-07 15.1885V7.3135C-0.000131118 7.23959 0.0143071 7.16637 0.0424903 7.09803C0.0706735 7.0297 0.112049 6.96759 0.164251 6.91525L6.91425 0.165256C6.9665 0.112872 7.02858 0.0713111 7.09691 0.0429539C7.16525 0.0145966 7.23851 0 7.3125 0C7.38649 0 7.45975 0.0145966 7.52809 0.0429539C7.59643 0.0713111 7.6585 0.112872 7.71075 0.165256L14.4608 6.91525C14.513 6.96759 14.5543 7.0297 14.5825 7.09803C14.6107 7.16637 14.6251 7.23959 14.625 7.3135V15.1885C14.625 15.3377 14.5657 15.4808 14.4602 15.5863C14.3548 15.6917 14.2117 15.751 14.0625 15.751H9.5625C9.41332 15.751 9.27024 15.6917 9.16475 15.5863C9.05926 15.4808 9 15.3377 9 15.1885V11.251C9 10.9698 8.71875 10.6885 8.4375 10.6885H6.1875C5.90625 10.6885 5.625 10.9698 5.625 11.2454Z" fill="white"/>
<path fill-rule="evenodd" clip-rule="evenodd" d="M12.9375 1.68848V5.62598L10.6875 3.37598V1.68848C10.6875 1.53929 10.7468 1.39622 10.8523 1.29073C10.9577 1.18524 11.1008 1.12598 11.25 1.12598H12.375C12.5242 1.12598 12.6673 1.18524 12.7727 1.29073C12.8782 1.39622 12.9375 1.53929 12.9375 1.68848Z" fill="white"/>
</svg>
