<svg width="71" height="64" viewBox="0 0 71 64" fill="none" xmlns="http://www.w3.org/2000/svg">
<path d="M29.8462 43.8393V57.1073C29.8462 57.6093 29.6476 58.0908 29.2942 58.4458C28.9407 58.8005 28.4614 59 27.9615 59H12.8846C12.3848 59 11.9054 58.8005 11.552 58.4458C11.1986 58.0908 11 57.6093 11 57.1073V30.6089C10.9996 30.3602 11.0479 30.1139 11.1424 29.8839C11.2368 29.654 11.3754 29.445 11.5503 29.2689L34.1657 6.55606C34.3408 6.3798 34.5487 6.23995 34.7777 6.14453C35.0066 6.04912 35.2521 6 35.5 6C35.7479 6 35.9934 6.04912 36.2223 6.14453C36.4513 6.23995 36.6592 6.3798 36.8343 6.55606L59.4499 29.2689C59.6248 29.445 59.7631 29.654 59.8576 29.8839C59.9521 30.1139 60.0003 30.3602 60 30.6089V57.1073C60 57.6093 59.8013 58.0908 59.4479 58.4458C59.0947 58.8005 58.6153 59 58.1154 59H43.0385C42.5386 59 42.0593 58.8005 41.7058 58.4458C41.3524 58.0908 41.1538 57.6093 41.1538 57.1073V43.8581C41.1538 42.9119 40.2115 41.9654 39.2692 41.9654H31.7308C30.7885 41.9654 29.8462 42.9119 29.8462 43.8393Z" fill="#478CCC"/>
</svg>
