<svg width="42" height="42" viewBox="0 0 42 42" fill="none" xmlns="http://www.w3.org/2000/svg">
<path d="M41.8009 21.0001C41.8009 32.5431 32.4435 41.9006 20.9005 41.9006C9.35746 41.9006 0 32.5431 0 21.0001C0 9.45707 9.35746 0.0996094 20.9005 0.0996094C32.4435 0.0996094 41.8009 9.45707 41.8009 21.0001Z" fill="#F4F5F6"/>
<path d="M18.3741 25.7514V31.1565C18.3741 31.361 18.2929 31.5572 18.1483 31.7018C18.0037 31.8463 17.8076 31.9275 17.6031 31.9275H11.4346C11.2301 31.9275 11.034 31.8463 10.8894 31.7018C10.7448 31.5572 10.6636 31.361 10.6636 31.1565V20.3617C10.6634 20.2604 10.6832 20.1601 10.7218 20.0664C10.7605 19.9727 10.8172 19.8876 10.8887 19.8158L20.1414 10.5632C20.213 10.4914 20.2981 10.4344 20.3917 10.3955C20.4854 10.3567 20.5858 10.3367 20.6873 10.3367C20.7887 10.3367 20.8891 10.3567 20.9828 10.3955C21.0765 10.4344 21.1616 10.4914 21.2332 10.5632L30.4859 19.8158C30.5574 19.8876 30.6141 19.9727 30.6527 20.0664C30.6914 20.1601 30.7111 20.2604 30.711 20.3617V31.1565C30.711 31.361 30.6297 31.5572 30.4851 31.7018C30.3406 31.8463 30.1444 31.9275 29.9399 31.9275H23.7715C23.567 31.9275 23.3709 31.8463 23.2263 31.7018C23.0817 31.5572 23.0004 31.361 23.0004 31.1565V25.7591C23.0004 25.3737 22.6149 24.9881 22.2294 24.9881H19.1452C18.7596 24.9881 18.3741 25.3737 18.3741 25.7514Z" fill="#54606E"/>
<path fill-rule="evenodd" clip-rule="evenodd" d="M28.3977 12.6512V18.0486L25.3135 14.9643V12.6512C25.3135 12.4467 25.3948 12.2506 25.5394 12.106C25.6839 11.9614 25.88 11.8801 26.0845 11.8801H27.6266C27.8312 11.8801 28.0273 11.9614 28.1718 12.106C28.3164 12.2506 28.3977 12.4467 28.3977 12.6512Z" fill="#54606E"/>
<path d="M18.3741 25.7514V31.1565C18.3741 31.361 18.2929 31.5572 18.1483 31.7018C18.0037 31.8463 17.8076 31.9275 17.6031 31.9275H11.4346C11.2301 31.9275 11.034 31.8463 10.8894 31.7018C10.7448 31.5572 10.6636 31.361 10.6636 31.1565V20.3617C10.6634 20.2604 10.6832 20.1601 10.7218 20.0664C10.7605 19.9727 10.8172 19.8876 10.8887 19.8158L20.1414 10.5632C20.213 10.4914 20.2981 10.4344 20.3917 10.3955C20.4854 10.3567 20.5858 10.3367 20.6873 10.3367C20.7887 10.3367 20.8891 10.3567 20.9828 10.3955C21.0765 10.4344 21.1616 10.4914 21.2332 10.5632L30.4859 19.8158C30.5574 19.8876 30.6141 19.9727 30.6527 20.0664C30.6914 20.1601 30.7111 20.2604 30.711 20.3617V31.1565C30.711 31.361 30.6297 31.5572 30.4851 31.7018C30.3406 31.8463 30.1444 31.9275 29.9399 31.9275H23.7715C23.567 31.9275 23.3709 31.8463 23.2263 31.7018C23.0817 31.5572 23.0004 31.361 23.0004 31.1565V25.7591C23.0004 25.3737 22.6149 24.9881 22.2294 24.9881H19.1452C18.7596 24.9881 18.3741 25.3737 18.3741 25.7514Z" fill="#54606E"/>
<path fill-rule="evenodd" clip-rule="evenodd" d="M28.3977 12.6512V18.0486L25.3135 14.9643V12.6512C25.3135 12.4467 25.3948 12.2506 25.5394 12.106C25.6839 11.9614 25.88 11.8801 26.0845 11.8801H27.6266C27.8312 11.8801 28.0273 11.9614 28.1718 12.106C28.3164 12.2506 28.3977 12.4467 28.3977 12.6512Z" fill="#54606E"/>
</svg>
