<svg width="15" height="16" viewBox="0 0 15 16" fill="none" xmlns="http://www.w3.org/2000/svg">
<g clip-path="url(#clip0)">
<path d="M5.20461 11.2454V15.1885C5.20461 15.3377 5.14535 15.4808 5.03986 15.5863C4.93437 15.6917 4.7913 15.751 4.64211 15.751H0.142106C-0.00707789 15.751 -0.150152 15.6917 -0.255642 15.5863C-0.361131 15.4808 -0.420394 15.3377 -0.420394 15.1885V7.3135C-0.420526 7.23959 -0.406088 7.16637 -0.377905 7.09803C-0.349721 7.0297 -0.308346 6.96759 -0.256144 6.91525L6.49385 0.165256C6.54611 0.112872 6.60819 0.0713111 6.67652 0.0429539C6.74486 0.0145966 6.81812 0 6.89211 0C6.9661 0 7.03936 0.0145966 7.1077 0.0429539C7.17604 0.0713111 7.23811 0.112872 7.29036 0.165256L12.0796 5L14.0404 6.91525C14.0926 6.96759 14.1339 7.0297 14.1621 7.09803C14.1903 7.16637 14.2047 7.23959 14.2046 7.3135V15.1885C14.2046 15.3377 14.1453 15.4808 14.0398 15.5863C13.9344 15.6917 13.7913 15.751 13.6421 15.751H9.14211C8.99293 15.751 8.84985 15.6917 8.74436 15.5863C8.63887 15.4808 8.57961 15.3377 8.57961 15.1885V11.251C8.57961 10.9698 8.29836 10.6885 8.01711 10.6885H5.76711C5.48586 10.6885 5.20461 10.9698 5.20461 11.2454Z" fill="#183A63"/>
<path fill-rule="evenodd" clip-rule="evenodd" d="M12.9375 1.68848V5.62598L10.6875 3.37598V1.68848C10.6875 1.53929 10.7468 1.39622 10.8523 1.29073C10.9577 1.18524 11.1008 1.12598 11.25 1.12598H12.375C12.5242 1.12598 12.6673 1.18524 12.7727 1.29073C12.8782 1.39622 12.9375 1.53929 12.9375 1.68848Z" fill="#183A63"/>
</g>
<defs>
<clipPath id="clip0">
<rect width="15" height="16" fill="white"/>
</clipPath>
</defs>
</svg>
