<svg width="88" height="95" viewBox="0 0 88 95" fill="none" xmlns="http://www.w3.org/2000/svg">
<path d="M33.75 67.4724V91.131C33.75 92.0262 33.3944 92.8848 32.7615 93.5178C32.1286 94.1502 31.2701 94.506 30.375 94.506H3.37501C2.4799 94.506 1.62146 94.1502 0.988518 93.5178C0.355585 92.8848 5.38308e-06 92.0262 5.38308e-06 91.131V43.881C-0.000786708 43.4375 0.0858426 42.9982 0.254942 42.5882C0.424041 42.1782 0.672294 41.8055 0.985506 41.4915L41.4855 0.991536C41.799 0.677232 42.1715 0.427867 42.5815 0.257723C42.9915 0.0875796 43.4311 0 43.875 0C44.3189 0 44.7585 0.0875796 45.1685 0.257723C45.5786 0.427867 45.951 0.677232 46.2645 0.991536L86.7648 41.4915C87.078 41.8055 87.3258 42.1782 87.495 42.5882C87.6642 42.9982 87.7506 43.4375 87.75 43.881V91.131C87.75 92.0262 87.3942 92.8848 86.7612 93.5178C86.1288 94.1502 85.2702 94.506 84.375 94.506H57.375C56.4799 94.506 55.6214 94.1502 54.9885 93.5178C54.3556 92.8848 54 92.0262 54 91.131V67.506C54 65.8188 52.3125 64.131 50.625 64.131H37.125C35.4375 64.131 33.75 65.8188 33.75 67.4724Z" fill="white"/>
<path fill-rule="evenodd" clip-rule="evenodd" d="M77.625 10.1309V33.7559L64.125 20.2559V10.1309C64.125 9.23572 64.4808 8.3773 65.1138 7.74436C65.7462 7.11142 66.6048 6.75586 67.5 6.75586H74.25C75.1452 6.75586 76.0038 7.11142 76.6362 7.74436C77.2692 8.3773 77.625 9.23572 77.625 10.1309Z" fill="white"/>
</svg>
