<svg width="49" height="53" viewBox="0 0 49 53" fill="none" xmlns="http://www.w3.org/2000/svg">
<path d="M18.8462 37.8393V51.1073C18.8462 51.6093 18.6476 52.0908 18.2942 52.4458C17.9407 52.8005 17.4614 53 16.9615 53H1.88462C1.38479 53 0.90543 52.8005 0.551993 52.4458C0.19856 52.0908 3.00594e-06 51.6093 3.00594e-06 51.1073V24.6089C-0.000439301 24.3602 0.0479349 24.1139 0.142361 23.8839C0.236786 23.654 0.375412 23.445 0.550311 23.2689L23.1657 0.556064C23.3408 0.379799 23.5487 0.239952 23.7777 0.144534C24.0066 0.0491156 24.2521 0 24.5 0C24.7479 0 24.9934 0.0491156 25.2223 0.144534C25.4513 0.239952 25.6592 0.379799 25.8343 0.556064L48.4499 23.2689C48.6248 23.445 48.7631 23.654 48.8576 23.8839C48.9521 24.1139 49.0003 24.3602 49 24.6089V51.1073C49 51.6093 48.8013 52.0908 48.4479 52.4458C48.0947 52.8005 47.6153 53 47.1154 53H32.0385C31.5386 53 31.0593 52.8005 30.7058 52.4458C30.3524 52.0908 30.1538 51.6093 30.1538 51.1073V37.8581C30.1538 36.9119 29.2115 35.9654 28.2692 35.9654H20.7308C19.7885 35.9654 18.8462 36.9119 18.8462 37.8393Z" fill="#478CCC"/>
</svg>
