<?xml version="1.0" encoding="UTF-8"?>
<svg width="52px" height="50px" viewBox="0 0 52 50" version="1.1" xmlns="http://www.w3.org/2000/svg" xmlns:xlink="http://www.w3.org/1999/xlink">
    <!-- Generator: Sketch 55.2 (78181) - https://sketchapp.com -->
    <title>ic_star_empty</title>
    <desc>Created with Sketch.</desc>
    <g id="Page-1" stroke="none" stroke-width="1" fill="none" fill-rule="evenodd">
        <g id="Artboard" transform="translate(-849.000000, -278.000000)" fill-rule="nonzero">
            <g id="Group-9" transform="translate(849.388256, 278.275270)">
                <path d="M14.0155665,48.7004662 C12.0319305,49.6728258 9.63562252,48.8530243 8.66326288,46.8693883 C8.31004836,46.1488226 8.18173352,45.3386746 8.29499343,44.5442265 L10.117703,31.7590494 L1.12816143,22.4869857 C-0.409584783,20.9009114 -0.370407125,18.3685545 1.21566718,16.8308083 C1.79181663,16.2722143 2.52266169,15.8998301 3.3132259,15.7620487 L16.0359001,13.5447116 L22.0762357,2.12992419 C23.1094923,0.177316715 25.5300133,-0.567964429 27.4826208,0.46529216 C28.1919153,0.8406278 28.7719172,1.42062973 29.1472528,2.12992419 L35.1875884,13.5447116 L47.9102626,15.7620487 C50.0865965,16.1413453 51.5433831,18.2130931 51.1640866,20.389427 C51.0263053,21.1799912 50.6539211,21.9108362 50.0953271,22.4869857 L41.1057855,31.7590494 L42.9284951,44.5442265 C43.2402868,46.7312522 41.7201094,48.7569439 39.5330838,49.0687356 C38.7386357,49.1819955 37.9284878,49.0536807 37.207922,48.7004662 L25.6117443,43.0161293 L14.0155665,48.7004662 Z" id="Star" fill="#CDCDCD"></path>
                <path d="M27.3723571,39.4244386 L38.9685349,45.1087754 L37.1458253,32.3235983 C36.9712569,31.0991092 37.3729785,29.8627374 38.2339439,28.9747136 L47.2234855,19.7026499 L34.5008113,17.4853127 C33.2823083,17.2729492 32.2305876,16.5088293 31.6520798,15.4155881 L25.6117443,4.00080074 L19.5714087,15.4155881 C18.9929009,16.5088293 17.9411802,17.2729492 16.7226773,17.4853127 L4.000003,19.7026499 L12.9895446,28.9747136 C13.85051,29.8627374 14.2522316,31.0991092 14.0776632,32.3235983 L12.2549536,45.1087754 L23.8511314,39.4244386 C24.9617451,38.8800262 26.2617434,38.8800262 27.3723571,39.4244386 Z" id="Path" fill="#F4F4F4"></path>
            </g>
        </g>
    </g>
</svg>