<svg width="150" height="150" xmlns="http://www.w3.org/2000/svg"><g transform="translate(27 24)" fill="none" fill-rule="evenodd"><g stroke="#2B3E50" stroke-width="3"><circle cx="48" cy="48" r="48"/><path d="M81 84l17 17" stroke-linecap="round"/></g><path d="M19.106 46.447l12-6A2 2 0 0 1 34 42.237V70a2 2 0 0 1-2 2H20a2 2 0 0 1-2-2V48.236a2 2 0 0 1 1.106-1.789zm23.788-6l12 6A2 2 0 0 1 56 48.237V70a2 2 0 0 1-2 2H42a2 2 0 0 1-2-2V42.236a2 2 0 0 1 2.894-1.789zm20.212 6l12-6A2 2 0 0 1 78 42.237V70a2 2 0 0 1-2 2H64a2 2 0 0 1-2-2V48.236a2 2 0 0 1 1.106-1.789z" fill="#2B3E50"/><path stroke="#18BC9C" stroke-width="3" stroke-linecap="round" stroke-linejoin="round" d="M18 37.5L37 28 59.5 39 76 30.5"/><circle stroke="#18BC9C" stroke-width="3" fill="#FFF" cx="37" cy="28" r="4"/><circle stroke="#18BC9C" stroke-width="3" fill="#FFF" cx="18" cy="37" r="4"/><circle stroke="#18BC9C" stroke-width="3" fill="#FFF" cx="59" cy="38" r="4"/><circle stroke="#18BC9C" stroke-width="3" fill="#FFF" cx="77" cy="30" r="4"/></g></svg>