<svg width="42" height="42" viewBox="0 0 42 42" fill="none" xmlns="http://www.w3.org/2000/svg">
<path d="M41.8009 20.9005C41.8009 32.4435 32.4435 41.8009 20.9005 41.8009C9.35746 41.8009 0 32.4435 0 20.9005C0 9.35746 9.35746 0 20.9005 0C32.4435 0 41.8009 9.35746 41.8009 20.9005Z" fill="#F4F5F6"/>
<path d="M22.5396 10.5646C22.3306 10.4046 22.089 10.2871 21.8081 10.2218C21.5305 10.1597 21.2366 10.1238 20.9198 10.1238C20.6031 10.1238 20.3059 10.1564 20.025 10.2218C19.7409 10.2838 19.4993 10.4014 19.287 10.5646C19.078 10.7247 18.9147 10.9369 18.7939 11.2015C18.6763 11.466 18.6143 11.7991 18.6143 12.1942C18.6143 12.5829 18.6763 12.9094 18.7939 13.1805C18.9147 13.445 19.078 13.6638 19.287 13.8238C19.496 13.9838 19.7409 14.1014 20.025 14.17C20.3059 14.2386 20.6031 14.2745 20.9198 14.2745C21.2333 14.2745 21.5305 14.2386 21.8081 14.17C22.089 14.1014 22.3306 13.9838 22.5396 13.8238C22.7486 13.6638 22.9152 13.445 23.0393 13.1805C23.1634 12.9094 23.2254 12.5829 23.2254 12.1942C23.2254 11.7958 23.1634 11.4627 23.0393 11.2015C22.9152 10.9369 22.7486 10.7247 22.5396 10.5646Z" fill="#54606E"/>
<path d="M18.8003 18.3256C18.8003 17.1559 19.7485 16.2078 20.9181 16.2078V16.2078C22.0877 16.2078 23.0359 17.1559 23.0359 18.3256V29.6053C23.0359 30.7749 22.0877 31.7231 20.9181 31.7231V31.7231C19.7485 31.7231 18.8003 30.7749 18.8003 29.6053V18.3256Z" fill="#54606E"/>
</svg>
