<svg width="128" height="123" viewBox="0 0 128 123" fill="none" xmlns="http://www.w3.org/2000/svg">
<path d="M127.393 61.2086C127.393 95.0131 98.8754 122.417 63.6968 122.417C28.518 122.417 0 95.0131 0 61.2086C0 27.404 28.518 0 63.6968 0C98.8754 0 127.393 27.404 127.393 61.2086Z" fill="#F4F5F6"/>
<path d="M51.3555 63.9643L48.9915 66.5714V74H43V48H48.9915V59.3393L50.8867 56.5357L56.4095 48H63.746L55.2479 59.4286L63.8886 74H56.7763L51.3555 63.9643Z" fill="#54606E"/>
<path d="M75.0972 64.5H72.1218V74H66.1303V48H75.6882C78.6907 48 81.0071 48.6845 82.6374 50.0536C84.2814 51.4107 85.1033 53.3452 85.1033 55.8571C85.1033 59.3095 83.67 61.7262 80.8033 63.1071L86 73.75V74H79.5602L75.0972 64.5ZM72.1218 60.125H75.5251C76.7207 60.125 77.6174 59.7798 78.2152 59.0893C78.813 58.3869 79.1118 57.4524 79.1118 56.2857C79.1118 53.6786 77.9502 52.375 75.627 52.375H72.1218V60.125Z" fill="#54606E"/>
<path d="M64 17C39.7003 17 20 36.8356 20 61.3056C20 85.774 39.7003 105.611 64 105.611C88.2997 105.611 108 85.774 108 61.3056C108 36.8356 88.2997 17 64 17ZM64 101.181C42.1643 101.181 24.4 83.2929 24.4 61.3056C24.4 39.3182 42.1643 21.4306 64 21.4306C85.8357 21.4306 103.6 39.3182 103.6 61.3056C103.6 83.2929 85.8357 101.181 64 101.181Z" fill="#54606E"/>
</svg>
