<svg width="42" height="42" viewBox="0 0 42 42" fill="none" xmlns="http://www.w3.org/2000/svg">
<path d="M41.8009 21.0994C41.8009 32.6425 32.4435 41.9999 20.9005 41.9999C9.35746 41.9999 0 32.6425 0 21.0994C0 9.55644 9.35746 0.198975 20.9005 0.198975C32.4435 0.198975 41.8009 9.55644 41.8009 21.0994Z" fill="#F4F5F6"/>
<path d="M30.7107 17.3861C30.7107 18.8859 30.3826 20.3081 29.7951 21.5831C28.233 24.9729 20.9003 34.4758 20.9003 34.4758C20.9003 34.4758 13.5675 24.9729 12.0055 21.5831C11.418 20.3081 11.0898 18.8859 11.0898 17.3861C11.0898 11.8986 15.4821 7.4502 20.9003 7.4502C26.3184 7.4502 30.7107 11.8986 30.7107 17.3861Z" fill="#54606E"/>
<ellipse cx="20.9005" cy="17.3863" rx="5.62464" ry="5.69657" fill="#F4F5F6"/>
</svg>
