<svg width="112" height="112" viewBox="0 0 112 112" fill="none" xmlns="http://www.w3.org/2000/svg">
<circle cx="56" cy="56" r="56" fill="white"/>
<path d="M19.9286 27H91.0714C92.6438 27 94.1517 27.6216 95.2636 28.7281C96.3754 29.8345 97 31.3352 97 32.9V80.1C97 81.6648 96.3754 83.1655 95.2636 84.2719C94.1517 85.3784 92.6438 86 91.0714 86H19.9286C18.3562 86 16.8483 85.3784 15.7364 84.2719C14.6246 83.1655 14 81.6648 14 80.1V32.9C14 31.3352 14.6246 29.8345 15.7364 28.7281C16.8483 27.6216 18.3562 27 19.9286 27ZM26.45 32.9L55.5 52.901L84.55 32.9H26.45ZM91.0714 80.1V35.5845L57.1896 58.919C56.6934 59.2616 56.1039 59.4452 55.5 59.4452C54.8961 59.4452 54.3066 59.2616 53.8104 58.919L19.9286 35.5845V80.1H91.0714Z" fill="#57B99D"/>
</svg>
