<svg width="16" height="13" viewBox="0 0 16 13" fill="none" xmlns="http://www.w3.org/2000/svg">
<path d="M16 3.45627V10.725C16 11.9817 15.0105 13 13.7895 13H2.21053C1.62426 13 1.062 12.7603 0.647448 12.3337C0.232894 11.907 0 11.3284 0 10.725V3.45627L7.74653 7.8416C7.90442 7.93087 8.096 7.93087 8.25347 7.8416L16 3.45583V3.45627ZM13.7895 9.78392e-09C14.3665 5.51874e-05 14.9207 0.232333 15.3335 0.647216C15.7464 1.0621 15.9853 1.6267 15.9992 2.2204L8 6.74873L0.000842044 2.21997L0.00168429 2.18097C0.0252643 1.59434 0.268298 1.03982 0.679962 0.63335C1.09163 0.226881 1.64004 -5.44063e-05 2.21053 9.78392e-09H13.7895Z" fill="#54606E"/>
</svg>
