<?xml version="1.0" encoding="UTF-8"?>
<svg width="34px" height="40px" viewBox="0 0 34 40" version="1.1" xmlns="http://www.w3.org/2000/svg" xmlns:xlink="http://www.w3.org/1999/xlink">
    <!-- Generator: Sketch 47.1 (45422) - http://www.bohemiancoding.com/sketch -->
    <title>notify</title>
    <desc>Created with Sketch.</desc>
    <defs></defs>
    <g id="mobile" stroke="none" stroke-width="1" fill="none" fill-rule="evenodd">
        <g id="frontpage" transform="translate(-166.000000, -1466.000000)" fill-rule="nonzero" fill="#18BC9C">
            <g id="Group-6" transform="translate(0.000000, 956.000000)">
                <g id="Group-26" transform="translate(51.000000, 510.000000)">
                    <g id="notify" transform="translate(115.000000, 0.000000)">
                        <g id="633816">
                            <path d="M33.2665625,33.7383594 L30.4049219,28.9683594 C29.0832812,26.7667188 28.3849219,24.245 28.3849219,21.6783594 L28.3849219,17.5 C28.3849219,12.225 24.8649219,7.76335938 20.0515625,6.325 L20.0515625,3.33335938 C20.0515625,1.495 18.5565625,0 16.7182031,0 C14.8798438,0 13.3848438,1.495 13.3848438,3.33335938 L13.3848438,6.325 C8.5715625,7.76335938 5.0515625,12.225 5.0515625,17.5 L5.0515625,21.6783594 C5.0515625,24.245 4.35320313,26.765 3.03320313,28.9667188 L0.1715625,33.7367188 C0.0165625,33.9950781 0.013203125,34.3150781 0.1615625,34.5767188 C0.309921875,34.8383594 0.584921875,35.0000781 0.884921875,35.0000781 L32.5515625,35.0000781 C32.8515625,35.0000781 33.1282031,34.8384375 33.2765625,34.5784375 C33.4249219,34.3183594 33.4199219,33.995 33.2665625,33.7383594 Z" id="Shape"></path>
                            <path d="M11.4699219,36.6666406 C12.4099219,38.63 14.3999219,40 16.7182031,40 C19.0364844,40 21.0265625,38.63 21.9665625,36.6666406 L11.4699219,36.6666406 L11.4699219,36.6666406 Z" id="Shape"></path>
                        </g>
                    </g>
                </g>
            </g>
        </g>
    </g>
</svg>