<svg width="39" height="94" viewBox="0 0 39 94" fill="none" xmlns="http://www.w3.org/2000/svg">
<path d="M25.931 93.9999H12.9655C11.2462 93.9999 9.59727 93.3169 8.38152 92.1012C7.16576 90.8854 6.48276 89.2365 6.48276 87.5172V64.8275C4.76342 64.8275 3.11451 64.1445 1.89876 62.9288C0.683004 61.713 0 60.0641 0 58.3448V38.8965C0 36.3175 1.0245 33.8441 2.84813 32.0205C4.67176 30.1969 7.14514 29.1724 9.72414 29.1724H29.1724C31.7514 29.1724 34.2248 30.1969 36.0484 32.0205C37.872 33.8441 38.8965 36.3175 38.8965 38.8965V58.3448C38.8965 60.0641 38.2135 61.713 36.9978 62.9288C35.782 64.1445 34.1331 64.8275 32.4138 64.8275V87.5172C32.4138 89.2365 31.7308 90.8854 30.515 92.1012C29.2993 93.3169 27.6504 93.9999 25.931 93.9999ZM9.72414 35.6551C9.29106 35.6265 8.85686 35.6907 8.45061 35.8434C8.04436 35.9962 7.67543 36.234 7.36853 36.5409C7.06163 36.8478 6.82384 37.2167 6.67108 37.623C6.51831 38.0292 6.45411 38.4634 6.48276 38.8965V58.3448H12.9655V87.5172H25.931V58.3448H32.4138V38.8965C32.4424 38.4634 32.3782 38.0292 32.2255 37.623C32.0727 37.2167 31.8349 36.8478 31.528 36.5409C31.2211 36.234 30.8522 35.9962 30.4459 35.8434C30.0397 35.6907 29.6055 35.6265 29.1724 35.6551H9.72414Z" fill="#578BC7"/>
<path d="M19.4483 25.931C16.8839 25.931 14.3772 25.1706 12.245 23.746C10.1129 22.3213 8.45103 20.2963 7.4697 17.9272C6.48838 15.5581 6.23161 12.9511 6.73189 10.4361C7.23217 7.92101 8.46702 5.61078 10.2803 3.79752C12.0935 1.98426 14.4038 0.749412 16.9188 0.249135C19.4339 -0.251143 22.0408 0.00561771 24.41 0.986947C26.7791 1.96828 28.804 3.6301 30.2287 5.76227C31.6534 7.89444 32.4138 10.4012 32.4138 12.9655C32.4138 16.4042 31.0478 19.702 28.6163 22.1335C26.1848 24.565 22.887 25.931 19.4483 25.931ZM19.4483 6.48276C18.1661 6.48276 16.9127 6.86297 15.8467 7.57531C14.7806 8.28764 13.9497 9.30011 13.459 10.4847C12.9683 11.6692 12.8399 12.9727 13.0901 14.2302C13.3402 15.4878 13.9577 16.6429 14.8643 17.5495C15.7709 18.4562 16.926 19.0736 18.1836 19.3237C19.4411 19.5739 20.7446 19.4455 21.9291 18.9548C23.1137 18.4641 24.1262 17.6332 24.8385 16.5672C25.5508 15.5011 25.931 14.2477 25.931 12.9655C25.931 11.2462 25.248 9.59727 24.0323 8.38152C22.8165 7.16577 21.1676 6.48276 19.4483 6.48276V6.48276Z" fill="#578BC7"/>
</svg>
