<svg width="487" height="486" viewBox="0 0 487 486" fill="none" xmlns="http://www.w3.org/2000/svg">
<g clip-path="url(#clip0_634:296)">
<path d="M467.177 170.538L441.075 196.64C453.07 208.634 453.07 228.149 441.075 240.144C434.764 246.454 426.371 249.44 418.086 249.109C410.387 191.181 366.99 142.674 307.436 120.538C305.918 129.156 302.909 137.254 298.68 144.563H234.754V427.569C251.801 427.569 268.302 425.557 283.972 421.808V452.178H345.495V395.584C384.993 369.87 412.19 330.743 418.102 286.006C418.51 286.013 418.916 286.034 419.323 286.034C436.65 286.033 453.985 279.436 467.177 266.244C493.564 239.86 493.563 196.924 467.177 170.538Z" fill="#192536"/>
<path d="M234.754 144.563H170.827C164.542 133.702 160.927 121.102 160.927 107.649C160.927 102.15 161.546 96.8014 162.686 91.6446C134.423 70.7477 99.4037 70.7354 99.4037 70.7354V158.873C85.6311 171.744 74.2727 186.58 65.9523 202.844L0.966797 230.695V304.523L65.9523 332.374C78.8168 357.52 98.9336 379.257 124.013 395.584V452.178H148.622H185.536V421.808C201.206 425.557 217.708 427.569 234.754 427.569V144.563ZM130.165 243C119.972 243 111.708 234.736 111.708 224.543C111.708 214.35 119.972 206.086 130.165 206.086C140.358 206.086 148.622 214.35 148.622 224.543C148.622 234.736 140.358 243 130.165 243Z" fill="#203A60"/>
<path d="M170.826 144.563H234.753V33.8213C199.477 33.8213 169.998 58.5683 162.685 91.6443C161.545 96.8 160.926 102.15 160.926 107.649C160.926 121.102 164.541 133.701 170.826 144.563Z" fill="#FFE98F"/>
<path d="M234.754 144.563H298.681C302.912 137.254 305.919 129.156 307.437 120.538C308.175 116.352 308.582 112.049 308.582 107.649C308.582 66.8739 275.528 33.8213 234.754 33.8213V144.563Z" fill="#FFDA44"/>
<path d="M130.166 243C140.359 243 148.623 234.736 148.623 224.543C148.623 214.349 140.359 206.086 130.166 206.086C119.972 206.086 111.709 214.349 111.709 224.543C111.709 234.736 119.972 243 130.166 243Z" fill="white"/>
</g>
<defs>
<clipPath id="clip0_634:296">
<rect width="486" height="486" fill="white" transform="translate(0.966797)"/>
</clipPath>
</defs>
</svg>
