<svg width="150" height="175" viewBox="0 0 150 175" fill="none" xmlns="http://www.w3.org/2000/svg">
<mask id="mask0_47:8" style="mask-type:alpha" maskUnits="userSpaceOnUse" x="22" y="132" width="108" height="43">
<path d="M22.8926 132.864H129.973V174.504H22.8926V132.864Z" fill="white"/>
</mask>
<g mask="url(#mask0_47:8)">
<path fill-rule="evenodd" clip-rule="evenodd" d="M129.973 153.684C129.973 165.182 106.002 174.504 76.433 174.504C46.8635 174.504 22.8926 165.182 22.8926 153.684C22.8926 142.186 46.8635 132.864 76.433 132.864C106.002 132.864 129.973 142.186 129.973 153.684Z" fill="black"/>
</g>
<path fill-rule="evenodd" clip-rule="evenodd" d="M84.6561 149.49H98.3381L102.217 129.638H80.7769L84.6561 149.49Z" fill="#20528D"/>
<path fill-rule="evenodd" clip-rule="evenodd" d="M104.458 153.46H117.96L124.055 120.505L100.629 133.687L104.458 153.46Z" fill="#20528D"/>
<path fill-rule="evenodd" clip-rule="evenodd" d="M21.0216 43.7987L6.13232 38.7139L9.19005 54.1987L12.2474 69.6836L24.0793 59.2835L35.9109 48.8835L21.0216 43.7987Z" fill="#183A63"/>
<path d="M133.135 44.5947C135.666 43.6454 138.502 44.8286 139.614 47.6807C140.146 49.0471 140.397 50.6093 140.299 52.1809L140.29 52.3036L140.351 52.2915C143.503 51.6474 146.024 49.6938 147.002 46.8008L147.033 46.7061C147.247 46.0485 147.95 45.689 148.605 45.9031C149.26 46.1172 149.618 46.8238 149.405 47.4813C148.084 51.5553 144.512 54.1908 140.214 54.8596C140.092 54.8785 139.971 54.8956 139.85 54.9111L139.75 54.9234L139.722 55.0036C139.636 55.2428 139.54 55.4794 139.435 55.7126L139.381 55.829C137.776 59.2445 134.24 61.6062 128.68 62.52C128 62.6317 127.359 62.169 127.248 61.4866C127.137 60.8041 127.598 60.1604 128.277 60.0487C132.931 59.2838 135.726 57.4875 137.011 54.9937L137.028 54.9605L137.016 54.9595C134.289 54.6904 131.976 53.4854 130.938 51.4935L130.896 51.4101C129.403 48.4114 130.501 45.5827 133.135 44.5947ZM137.291 48.5933C136.688 47.0432 135.289 46.4599 134.008 46.9407C132.765 47.4067 132.294 48.6194 133.126 50.2901C133.746 51.5359 135.486 52.3678 137.63 52.4951L137.764 52.5018L137.776 52.4045C137.916 51.1167 137.747 49.8103 137.328 48.6889L137.291 48.5933Z" fill="black"/>
<path fill-rule="evenodd" clip-rule="evenodd" d="M54.361 155.843H40.7463L37.1016 122.888L56.5569 136.07L54.361 155.843Z" fill="#20528D"/>
<path fill-rule="evenodd" clip-rule="evenodd" d="M137.069 89.6552C136.137 121.189 105.84 145.877 69.4003 144.799C32.9601 143.721 4.17555 117.284 5.10848 85.7507C6.04101 54.2174 36.3377 29.529 72.7774 30.6067C109.218 31.6849 138.002 58.1216 137.069 89.6552Z" fill="#20528D"/>
<path fill-rule="evenodd" clip-rule="evenodd" d="M55.1559 74.0436C55.1559 76.3297 53.3028 78.1827 51.0175 78.1827C48.7317 78.1827 46.8789 76.3297 46.8789 74.0436C46.8789 71.7579 48.7317 69.9045 51.0175 69.9045C53.3028 69.9045 55.1559 71.7579 55.1559 74.0436Z" fill="black"/>
<path fill-rule="evenodd" clip-rule="evenodd" d="M26.3932 74.0436C26.3932 76.3297 24.5401 78.1827 22.2548 78.1827C19.969 78.1827 18.1162 76.3297 18.1162 74.0436C18.1162 71.7579 19.969 69.9045 22.2548 69.9045C24.5401 69.9045 26.3932 71.7579 26.3932 74.0436Z" fill="black"/>
<path fill-rule="evenodd" clip-rule="evenodd" d="M74.8218 160.156H61.21L59.0146 140.288H77.0172L74.8218 160.156Z" fill="#20528D"/>
<path d="M59.1649 117.282C59.6883 117.725 59.7536 118.508 59.3107 119.032L59.2143 119.145L59.0249 119.366L58.8397 119.579L58.6582 119.784C58.6282 119.817 58.5984 119.85 58.5687 119.883L58.3921 120.077L58.2181 120.263C58.1894 120.293 58.1607 120.324 58.1321 120.354L57.9615 120.53C56.9715 121.538 56.068 122.214 54.8832 122.807C52.7797 123.859 50.1216 124.333 46.5327 124.231C45.8473 124.211 45.3076 123.64 45.3272 122.954C45.3468 122.269 45.9183 121.729 46.6037 121.748C49.8113 121.84 52.0711 121.436 53.7727 120.585C54.6822 120.131 55.393 119.6 56.2088 118.769L56.3584 118.614L56.5107 118.453L56.6661 118.284C56.6923 118.256 56.7187 118.226 56.7451 118.197L56.906 118.017L57.0711 117.829L57.2406 117.632L57.4152 117.427C57.8581 116.904 58.6414 116.839 59.1649 117.282Z" fill="#162537"/>
<path fill-rule="evenodd" clip-rule="evenodd" d="M108.411 30.5587C108.411 39.5193 101.124 46.3496 92.1334 46.3496C83.1442 46.3496 75.8564 39.5193 75.8564 30.5587C75.8564 21.5981 83.1442 14.3345 92.1334 14.3345C101.124 14.3345 108.411 21.5981 108.411 30.5587Z" fill="#EEC131"/>
<mask id="mask1_47:8" style="mask-type:alpha" maskUnits="userSpaceOnUse" x="70" y="6" width="44" height="43">
<path d="M70.4658 6H113.801V48.6733H70.4658V6Z" fill="white"/>
</mask>
<g mask="url(#mask1_47:8)">
<path fill-rule="evenodd" clip-rule="evenodd" d="M92.1332 48.6733C79.9828 48.6733 70.4653 39.4159 70.4653 27.5972C70.4653 15.6883 80.186 6 92.1332 6C104.081 6 113.802 15.6883 113.802 27.5972C113.802 39.4159 104.284 48.6733 92.1332 48.6733Z" fill="#F5DB34"/>
</g>
<mask id="mask2_47:8" style="mask-type:alpha" maskUnits="userSpaceOnUse" x="73" y="10" width="38" height="37">
<path d="M73.9243 10.2446H110.342V46.001H73.9243V10.2446Z" fill="white"/>
</mask>
<g mask="url(#mask2_47:8)">
<path fill-rule="evenodd" clip-rule="evenodd" d="M92.1332 10.2446C82.0927 10.2446 73.9238 18.3873 73.9238 28.3956C73.9238 38.2671 81.9236 46.0011 92.1332 46.0011C102.344 46.0011 110.343 38.2671 110.343 28.3956C110.343 18.3873 102.174 10.2446 92.1332 10.2446Z" fill="white"/>
</g>
<path fill-rule="evenodd" clip-rule="evenodd" d="M92.2826 9.26392C82.2421 9.26392 74.0732 17.4066 74.0732 27.4149C74.0732 37.2864 82.072 45.0204 92.2826 45.0204C102.493 45.0204 110.492 37.2864 110.492 27.4149C110.492 17.4066 102.323 9.26392 92.2826 9.26392Z" fill="#DCA427"/>
<path fill-rule="evenodd" clip-rule="evenodd" d="M92.1332 9.9104C82.0927 9.9104 73.9238 18.0531 73.9238 28.0614C73.9238 37.9341 81.9236 45.6677 92.1332 45.6677C102.344 45.6677 110.343 37.9341 110.343 28.0614C110.343 18.0531 102.174 9.9104 92.1332 9.9104Z" fill="#EEBE2D"/>
<path fill-rule="evenodd" clip-rule="evenodd" d="M91.4025 33.7287H99.6946V37.1613H85.1479V33.7287H87.1598V28.7302H85.1479V26.2037H87.1598V23.0467C87.1598 21.9658 87.421 21.0095 87.9442 20.1766C88.468 19.3439 89.2077 18.6975 90.1621 18.241C91.1164 17.7834 92.22 17.5535 93.4675 17.5535C94.7176 17.5535 95.9016 17.742 97.0219 18.117C98.143 18.4922 99.125 19.0283 99.971 19.7232L98.5927 22.7711C96.792 21.5262 95.1934 20.9043 93.7993 20.9043C93.0273 20.9043 92.4357 21.1101 92.0222 21.5234C91.6085 21.9342 91.4025 22.5349 91.4025 23.3208V26.2037H95.8374V28.7302H91.4025V33.7287Z" fill="#FFE14D"/>
<path fill-rule="evenodd" clip-rule="evenodd" d="M45.6478 115H20.5204C11.5001 115 4.1875 107.711 4.1875 98.7201C4.1875 89.7287 11.5001 82.4395 20.5204 82.4395H45.6478C54.6681 82.4395 61.9805 89.7287 61.9805 98.7201C61.9805 107.711 54.6681 115 45.6478 115Z" fill="#20528D"/>
<mask id="mask3_47:8" style="mask-type:alpha" maskUnits="userSpaceOnUse" x="0" y="82" width="58" height="34">
<path d="M0 82.4395H57.7927V115H0V82.4395Z" fill="white"/>
</mask>
<g mask="url(#mask3_47:8)">
<path fill-rule="evenodd" clip-rule="evenodd" d="M41.4598 115H16.3324C7.31214 115 -0.000488281 107.711 -0.000488281 98.7201C-0.000488281 89.7287 7.31214 82.4395 16.3324 82.4395H41.4598C50.4801 82.4395 57.7925 89.7287 57.7925 98.7201C57.7925 107.711 50.4801 115 41.4598 115Z" fill="#183A63"/>
</g>
<path fill-rule="evenodd" clip-rule="evenodd" d="M20.9821 98.72C20.9821 102.178 18.1696 104.982 14.7003 104.982C11.231 104.982 8.41846 102.178 8.41846 98.72C8.41846 95.2617 11.231 92.4583 14.7003 92.4583C18.1696 92.4583 20.9821 95.2617 20.9821 98.72Z" fill="#162537"/>
<path fill-rule="evenodd" clip-rule="evenodd" d="M45.5856 98.72C45.5856 102.178 42.7735 104.982 39.3038 104.982C35.8345 104.982 33.022 102.178 33.022 98.72C33.022 95.2617 35.8345 92.4583 39.3038 92.4583C42.7735 92.4583 45.5856 95.2617 45.5856 98.72Z" fill="#162537"/>
<path fill-rule="evenodd" clip-rule="evenodd" d="M65.87 46.0432L80.7404 41L77.6866 56.3583L74.6331 71.7168L62.8162 61.4016L51 51.0865L65.87 46.0432Z" fill="#183A63"/>
<path d="M70.3371 52.827C70.5234 50.1611 72.8355 48.151 75.5013 48.3372L107.046 50.5407C109.712 50.7269 111.722 53.039 111.536 55.7049V55.7049C111.35 58.3708 109.038 60.3809 106.372 60.1947L74.827 57.9912C72.1611 57.805 70.1509 55.4929 70.3371 52.827V52.827Z" fill="black"/>
<rect x="70.4297" y="45.405" width="9.21598" height="14" transform="rotate(10.6625 70.4297 45.405)" fill="#183A63"/>
</svg>
