<svg width="14" height="14" viewBox="0 0 14 14" fill="none" xmlns="http://www.w3.org/2000/svg">
<path d="M12.3437 7.6825C12.3725 7.4585 12.3941 7.231 12.3941 7C12.3941 6.769 12.3725 6.5415 12.3437 6.3175L13.8654 5.159C14.0021 5.054 14.0416 4.865 13.9517 4.711L12.5128 2.2855C12.4229 2.135 12.2358 2.072 12.0739 2.135L10.2825 2.8385C9.91198 2.562 9.50549 2.3275 9.06663 2.149L8.79683 0.294C8.76446 0.1295 8.61697 0 8.43711 0H5.5593C5.37943 0 5.23195 0.1295 5.20317 0.294L4.93337 2.149C4.49451 2.3275 4.08802 2.5585 3.7175 2.8385L1.92606 2.135C1.76419 2.0755 1.57713 2.135 1.4872 2.2855L0.0482914 4.711C-0.0416401 4.8615 -0.00207018 5.0505 0.134626 5.159L1.65267 6.3175C1.62389 6.5415 1.60231 6.769 1.60231 7C1.60231 7.231 1.62389 7.4585 1.65267 7.6825L0.134626 8.841C-0.00207018 8.946 -0.0416401 9.135 0.0482914 9.289L1.4872 11.7145C1.57713 11.865 1.76419 11.928 1.92606 11.865L3.7175 11.1615C4.08802 11.438 4.49451 11.6725 4.93337 11.851L5.20317 13.706C5.23195 13.8705 5.37943 14 5.5593 14H8.43711C8.61697 14 8.76446 13.8705 8.79323 13.706L9.06303 11.851C9.50189 11.6725 9.90838 11.4415 10.2789 11.1615L12.0703 11.865C12.2322 11.9245 12.4193 11.865 12.5092 11.7145L13.9481 9.289C14.038 9.1385 13.9985 8.9495 13.8618 8.841L12.3437 7.6825V7.6825ZM6.9982 9.45C5.60606 9.45 4.48012 8.3545 4.48012 7C4.48012 5.6455 5.60606 4.55 6.9982 4.55C8.39034 4.55 9.51628 5.6455 9.51628 7C9.51628 8.3545 8.39034 9.45 6.9982 9.45Z" fill="#57B99D"/>
</svg>
