<svg width="60" height="48" viewBox="0 0 60 48" fill="none" xmlns="http://www.w3.org/2000/svg">
<path d="M57 20.998H45.18C44.9709 20.9695 44.7591 20.9695 44.55 20.998H44.04C43.8831 21.0874 43.7328 21.1876 43.59 21.298C43.4229 21.4084 43.2627 21.5284 43.11 21.6581C43.0098 21.7808 42.9195 21.9113 42.84 22.0481C42.7026 22.2371 42.582 22.4378 42.48 22.6481L37.68 35.8791L25.17 1.97661C24.9597 1.39741 24.5763 0.897006 24.0717 0.54334C23.5673 0.189704 22.9661 0 22.35 0C21.7339 0 21.1327 0.189704 20.6281 0.54334C20.1236 0.897006 19.7402 1.39741 19.53 1.97661L12.6 20.998H3C2.20434 20.998 1.44129 21.3142 0.87867 21.8768C0.31608 22.4393 0 23.2026 0 23.9982C0 24.7939 0.31608 25.5571 0.87867 26.1197C1.44129 26.6822 2.20434 26.9985 3 26.9985H15.9C16.0705 26.9162 16.2315 26.8157 16.38 26.6984C16.547 26.588 16.7073 26.468 16.86 26.3384L17.13 25.9484C17.273 25.763 17.3938 25.5616 17.49 25.3483L22.35 11.7573L34.83 46.0199C35.0397 46.5998 35.4228 47.1008 35.9274 47.4552C36.432 47.8095 37.0335 47.9997 37.65 48C38.2665 47.9997 38.868 47.8095 39.3726 47.4552C39.8772 47.1008 40.2603 46.5998 40.47 46.0199L47.37 26.9985H57C57.7956 26.9985 58.5588 26.6822 59.1213 26.1197C59.6838 25.5571 60 24.7939 60 23.9982C60 23.2026 59.6838 22.4393 59.1213 21.8768C58.5588 21.3142 57.7956 20.998 57 20.998Z" fill="#203A60"/>
</svg>
