<svg width="20" height="20" viewBox="0 0 20 20" fill="none" xmlns="http://www.w3.org/2000/svg">
<path fill-rule="evenodd" clip-rule="evenodd" d="M7.67237 19.7246C8.00424 19.7914 8.53553 19.8984 8.80113 19.9501C8.9093 19.9697 9.40099 19.9894 9.89267 19.9992C13.7868 20.0484 17.3761 17.767 19.0773 14.158C19.451 13.3615 19.5198 13.1353 19.7165 12.1913C19.9033 11.2669 20.0115 9.58537 19.8738 9.78204C19.8148 9.86071 19.7657 10.0869 19.7657 10.2737C19.7657 10.9227 19.4117 12.1225 18.92 13.2042C18.1234 14.9447 16.0879 17.0491 14.3572 17.9145C14.0621 18.0718 13.7966 18.2193 13.7671 18.2488C13.718 18.3078 13.4033 18.4258 13.2263 18.4455C13.1789 18.4455 13.0586 18.5002 12.9531 18.5482L12.9411 18.5537C12.8428 18.6127 12.4003 18.7405 11.9577 18.8585C10.4925 19.2322 8.26028 19.0847 6.93274 18.534C6.7754 18.4652 6.55906 18.3865 6.46072 18.3767C6.37222 18.357 6.11654 18.2292 5.9002 18.0915C5.68386 17.9538 5.47735 17.8456 5.42818 17.8456C5.38885 17.8456 5.25118 17.7571 5.13317 17.649C5.01517 17.531 4.91683 17.4818 4.91683 17.5211C4.91683 17.5605 4.8775 17.5605 4.83816 17.5015C4.79883 17.4523 4.55299 17.2261 4.28748 17.0098C3.70729 16.5476 3.34345 16.2133 3.34345 16.1543C3.34345 16.1248 3.16644 15.9183 2.9501 15.6822L2.9459 15.6776C2.53695 15.2297 2.51524 15.206 1.87823 13.9613C1.45538 13.1255 1.12104 12.1421 1.04237 11.5029C1.0227 11.2866 0.973533 10.8637 0.934198 10.5687C0.708024 8.661 1.59305 5.91741 2.9501 4.32436C3.52045 3.65567 5.04467 2.25929 5.06434 2.40679C5.06434 2.43629 5.20201 2.36746 5.35935 2.24945C5.7232 2.00361 6.81473 1.48243 7.27691 1.33492C9.97134 0.499059 13.2066 1.04974 15.3504 2.71163C15.8814 3.12465 17.0122 4.21619 17.0122 4.31452C17.0122 4.34402 16.8451 4.48169 16.6484 4.61937C16.4419 4.75704 16.1764 4.93404 16.0485 5.02255C15.8322 5.18972 15.8125 5.17988 15.4979 4.85537C14.603 3.93101 13.895 3.43933 12.7838 2.97714C10.9744 2.22978 9.00764 2.24945 7.06057 3.01648C6.7459 3.13448 6.49022 3.27215 6.49022 3.31149C6.49022 3.36066 6.44105 3.39016 6.39188 3.39016C6.23455 3.39016 5.54619 3.87201 5.08401 4.29485C4.85783 4.50136 4.64149 4.66853 4.60216 4.66853C4.55299 4.66853 4.52349 4.72754 4.52349 4.8062C4.52349 4.88487 4.44482 5.01271 4.34648 5.08155C4.24814 5.15038 4.08097 5.35689 3.98264 5.5339C3.87447 5.70107 3.75646 5.84857 3.71713 5.84857C3.67779 5.84857 3.63846 5.93708 3.63846 6.03541C3.63846 6.14358 3.60896 6.24192 3.56962 6.26159C3.42212 6.32059 3.04844 7.23512 2.84193 8.03165C2.56659 9.12318 2.55675 10.5392 2.8321 11.5619C3.04844 12.3781 3.43195 13.3517 3.55979 13.4008C3.59912 13.4205 3.63846 13.4795 3.63846 13.5385C3.63846 13.7843 4.72016 15.0627 5.41835 15.6331C6.12638 16.2231 7.33592 16.7836 8.47662 17.0491C9.14531 17.2065 10.994 17.1868 11.7316 17.0098C12.4789 16.8328 13.5803 16.3608 14.0326 16.0166C14.2097 15.8789 14.3572 15.8002 14.3572 15.8396C14.3572 15.9478 15.9699 14.2662 16.1567 13.9613C16.8451 12.8206 17.3663 11.2669 17.2876 10.6179C17.2483 10.3229 17.2483 10.3229 17.1302 10.7162C16.9631 11.3063 16.2846 12.5846 15.8617 13.1058C15.3504 13.745 14.1703 14.866 13.8458 15.0136C13.6885 15.0824 13.5705 15.1709 13.5705 15.2004C13.5705 15.2496 12.9608 15.5741 12.1642 15.9182C11.4071 16.2624 9.82383 16.3706 8.7028 16.1641C7.26708 15.8986 5.47735 14.6989 4.71033 13.4893C4.53332 13.214 4.33665 12.9485 4.27765 12.9091C4.22848 12.8698 4.21864 12.8305 4.26781 12.8305C4.31698 12.8305 4.30715 12.7715 4.24814 12.7026C4.10064 12.5256 3.76629 11.5816 3.64829 10.9817C3.42212 9.89021 3.57946 8.40533 4.0318 7.40229C4.13997 7.14662 4.21864 6.92044 4.20881 6.90078C4.18914 6.89094 4.23831 6.81227 4.30715 6.7336C4.52349 6.47793 4.91683 5.90758 4.97584 5.75024C5.07417 5.5044 6.35255 4.45219 6.90323 4.17685C7.7981 3.71467 8.14228 3.58683 9.02731 3.43933C10.6007 3.16398 12.3904 3.58683 13.7671 4.5702C14.2785 4.93404 15.0357 5.6814 14.9865 5.7699C14.957 5.81907 14.7603 5.95674 14.5637 6.09442C14.3572 6.22225 14.1211 6.39926 14.0326 6.48776C13.9343 6.57626 13.8655 6.6156 13.8655 6.57626C13.8655 6.53693 13.777 6.5861 13.6688 6.68444C13.482 6.86144 13.4623 6.85161 13.1968 6.57626C12.7346 6.09442 11.9774 5.6519 11.2989 5.46506C11.0137 5.38639 10.4532 5.34706 9.814 5.37656C8.88964 5.40606 8.7323 5.43556 8.11278 5.7404C6.12638 6.72377 5.13317 8.81834 5.66419 10.9326C5.7527 11.3063 5.86087 11.6209 5.89037 11.6504C5.9297 11.6799 6.0182 11.8569 6.09687 12.0438C6.29355 12.5256 7.36542 13.5582 7.92594 13.8138C8.78147 14.2072 9.08631 14.276 10.0303 14.2859C10.8367 14.2957 11.0629 14.2564 11.6922 14.0105C12.0954 13.8532 12.5379 13.6172 12.6756 13.4697C12.8231 13.332 12.9903 13.2238 13.0591 13.2238C13.1279 13.2238 13.1771 13.1845 13.1771 13.1452C13.1771 13.096 13.305 12.9386 13.4525 12.7715C13.8655 12.3388 14.3473 11.4538 14.1801 11.4538C14.1408 11.4538 13.9048 11.6308 13.6688 11.8569C12.6461 12.7813 11.2792 13.3517 10.0795 13.3615C9.38132 13.3713 8.45695 13.1747 8.45695 13.0173C8.45695 12.9681 8.38812 12.9288 8.29962 12.9288C8.14228 12.9288 7.45392 12.3683 7.40475 12.211C7.38509 12.1716 7.28675 12.0438 7.16874 11.9159C6.58856 11.3063 6.31321 10.1557 6.49022 9.17235C6.55906 8.79867 6.64756 8.50366 6.68689 8.50366C6.7164 8.50366 6.8049 8.35616 6.8639 8.16932C7.15891 7.37279 8.38812 6.45826 9.46982 6.24192C10.4237 6.04525 11.5349 6.38943 12.3904 7.13678L12.4363 7.17755C12.5659 7.29233 12.6408 7.35873 12.6391 7.42311C12.6368 7.51146 12.4902 7.59601 12.1423 7.79659L12.0757 7.83497C11.8692 7.95298 11.7021 8.08082 11.7021 8.12998C11.7021 8.16932 11.6332 8.20865 11.5546 8.20865C11.4759 8.20865 11.4071 8.24799 11.4071 8.29716C11.4071 8.4545 11.1022 8.50366 10.8859 8.38566C10.6007 8.23816 9.74516 8.27749 9.45999 8.46433C9.09614 8.70034 8.8503 9.19202 8.8503 9.69354C8.8503 10.0574 8.9093 10.2147 9.17481 10.5196C9.45999 10.8539 9.56816 10.9031 10.0598 10.9621C10.3647 10.9916 10.699 10.9817 10.7875 10.9326C11.053 10.7949 11.5054 10.3524 11.5054 10.2344C11.5054 9.98855 11.7217 9.38869 11.8004 9.38869C11.8594 9.38869 12.2331 9.23135 12.6461 9.04452C13.0493 8.85768 13.4328 8.70034 13.482 8.70034C13.5311 8.70034 13.5705 8.661 13.5705 8.602C13.5705 8.55283 13.6098 8.50366 13.6688 8.50366C13.7573 8.50366 14.5342 8.13982 17.1598 6.88111C17.5322 6.70402 17.9806 6.49281 18.3564 6.31576C18.5858 6.20768 18.7882 6.11234 18.9298 6.04525L19.0499 5.98892C19.5148 5.77119 19.7163 5.67679 19.7498 5.54092C19.7755 5.43693 19.7028 5.30865 19.5745 5.08219L19.5745 5.08217L19.5297 5.00288C19.3625 4.70787 19.1068 4.25552 18.9691 3.99984C18.625 3.38032 18.4775 3.31149 18.1333 3.55733L17.8579 3.754L17.2188 3.10498C16.1567 2.04294 15.5077 1.57093 14.2687 0.980908C13.1279 0.430223 12.6953 0.312219 11.0629 0.0958783C10.1188 -0.0319594 9.85334 -0.0319594 8.89947 0.0958783C7.66043 0.263051 6.82457 0.459724 6.19521 0.7449C5.50685 1.06941 4.58249 1.55126 4.52349 1.6201C4.49399 1.6496 4.25798 1.8266 4.0023 2.00361C3.51062 2.33795 2.43875 3.37049 2.14374 3.7835C2.10815 3.83333 2.05967 3.90249 2.00484 3.98071L2.0048 3.98077C1.90815 4.11865 1.79177 4.28468 1.69139 4.42269C1.38655 4.86521 0.59002 6.42876 0.540852 6.7041L0.525421 6.77989C0.512057 6.84492 0.501517 6.89621 0.501517 6.91061C0.491683 6.92044 0.501517 6.94011 0.511351 6.95978C0.521184 6.96961 0.472016 7.07778 0.413014 7.19579C0.255675 7.4908 0 9.25102 0 10.0475C0 11.5226 0.501517 13.4893 1.18987 14.7579C2.14374 16.5083 3.71713 18.0227 5.50685 18.9274C6.12638 19.242 7.02124 19.5862 7.42442 19.6747L7.67237 19.7246Z" fill="white"/>
</svg>
