<svg width="88" height="88" viewBox="0 0 88 88" fill="none" xmlns="http://www.w3.org/2000/svg">
<path d="M39.0332 87.5946C37.4823 87.293 33.8636 86.5606 33.002 86.3883C31.2358 86.0005 27.3155 84.4925 24.6014 83.1138C16.7609 79.15 9.86811 72.515 5.68936 64.8459C2.67376 59.288 0.476685 50.671 0.476685 44.2083C0.476685 40.7185 1.59676 33.0063 2.28604 31.7138C2.54452 31.1967 2.75992 30.7228 2.71684 30.6797C2.67376 30.5936 2.63068 30.5074 2.67376 30.4643C2.67376 30.3781 2.75992 29.9904 2.84608 29.5595C3.06148 28.3532 6.55095 21.5027 7.88643 19.5639C8.57571 18.616 9.43731 17.3666 9.86811 16.7634C11.1605 14.9538 15.8562 10.4299 18.0102 8.96503C19.1303 8.18951 20.1642 7.41398 20.2935 7.28473C20.5519 6.98314 24.6014 4.87199 27.617 3.45019C30.3742 2.20073 34.0359 1.33904 39.464 0.606599C43.6428 0.0464981 44.8059 0.0464981 48.9416 0.606599C56.0929 1.55446 57.9884 2.07148 62.9857 4.48422C68.4137 7.06931 71.257 9.13737 75.9096 13.7905L78.7098 16.6341L79.9161 15.7724C81.4239 14.6953 82.0701 14.9969 83.5779 17.7112C84.181 18.8314 85.3011 20.8133 86.0334 22.1059C87.5843 24.8633 87.7135 24.6479 83.4055 26.6728C81.7685 27.4484 78.279 29.0856 75.6512 30.335C64.1488 35.8499 60.7455 37.444 60.3578 37.444C60.0993 37.444 59.927 37.6595 59.927 37.8749C59.927 38.1334 59.7547 38.3057 59.5393 38.3057C59.3239 38.3057 57.6438 38.9951 55.8775 39.8137C54.0681 40.6323 52.4311 41.3217 52.1726 41.3217C51.828 41.3217 50.8802 43.9498 50.8802 45.0269C50.8802 45.544 48.8985 47.4828 47.7354 48.0859C47.3476 48.3014 45.8829 48.3445 44.5475 48.2152C42.3935 47.9567 41.9196 47.7413 40.6703 46.2764C39.5071 44.9408 39.2486 44.2514 39.2486 42.6573C39.2486 40.46 40.3256 38.3057 41.9196 37.2717C43.1689 36.4531 46.9168 36.2807 48.1662 36.927C49.1139 37.444 50.4494 37.2286 50.4494 36.5392C50.4494 36.3238 50.751 36.1515 51.0956 36.1515C51.4402 36.1515 51.7418 35.9791 51.7418 35.8068C51.7418 35.5914 52.4742 35.0313 53.3788 34.5143C56.4375 32.7478 56.3514 32.877 54.7574 31.4553C51.0094 28.1808 46.1414 26.6728 41.9627 27.5345C37.2239 28.4824 31.8389 32.4893 30.5465 35.9791C30.288 36.7978 29.9003 37.444 29.771 37.444C29.5987 37.444 29.211 38.7366 28.9094 40.3738C28.134 44.6823 29.3402 49.7232 31.8819 52.3944C32.3989 52.9545 32.8297 53.5146 32.9159 53.687C33.1313 54.3763 36.1469 56.8321 36.8361 56.8321C37.2239 56.8321 37.5254 57.0045 37.5254 57.2199C37.5254 57.9093 41.5749 58.771 44.6336 58.7279C49.8894 58.6848 55.8775 56.1859 60.3578 52.1359C61.3917 51.145 62.4256 50.3694 62.5979 50.3694C63.3303 50.3694 61.2194 54.2471 59.41 56.1428C58.7638 56.8752 58.2038 57.5646 58.2038 57.78C58.2038 57.9523 57.9884 58.1247 57.6868 58.1247C57.3853 58.1247 56.6529 58.5986 56.0067 59.2018C55.4036 59.8481 53.465 60.8821 51.6987 61.5715C48.9416 62.6486 47.9508 62.8209 44.4182 62.7778C40.2825 62.7348 38.9471 62.4332 35.1991 60.7098C32.7436 59.5896 28.0478 55.0657 27.1862 52.9545C26.8416 52.1359 26.4539 51.3604 26.2816 51.2311C26.1523 51.1019 25.6784 49.7232 25.2907 48.0859C22.9644 38.8227 27.3155 29.6457 36.0176 25.3372C38.7317 24.0016 39.4209 23.8723 43.4705 23.7431C46.2707 23.6138 48.7262 23.7862 49.9755 24.1309C52.948 24.9495 56.2652 26.8883 58.2899 28.9994C59.4531 30.2058 59.5393 30.2489 60.3578 29.4734C60.8317 29.0425 61.2194 28.8271 61.2194 28.9994C61.2194 29.1718 61.5209 28.9994 61.9517 28.6117C62.3395 28.2239 63.3734 27.4484 64.2781 26.8883C65.1397 26.2851 66.0013 25.6819 66.1305 25.4665C66.3459 25.0787 63.0287 21.8043 60.7886 20.2101C54.7574 15.9017 46.9168 14.049 40.0241 15.2554C36.1469 15.9017 34.6391 16.4618 30.7188 18.4868C28.3063 19.6931 22.7059 24.3032 22.2751 25.3803C22.0166 26.0697 20.2935 28.5686 19.3457 29.6888C19.0441 30.0335 18.8287 30.3781 18.9149 30.4212C18.958 30.5074 18.6133 31.4983 18.1395 32.6185C16.1578 37.0132 15.4685 43.519 16.4593 48.3014C16.9763 50.9295 18.441 55.0657 19.0872 55.8412C19.3457 56.1428 19.3888 56.4013 19.1734 56.4013C18.958 56.4013 19.0011 56.5736 19.2165 56.746C19.4749 56.9183 20.3365 58.0816 21.112 59.288C24.4722 64.5874 32.3128 69.8437 38.6024 71.007C43.5135 71.9118 50.4494 71.4379 53.7666 69.9299C57.256 68.4219 59.927 67.0001 59.927 66.7847C59.927 66.6555 60.4439 66.2677 61.1332 65.9661C62.5549 65.3198 67.7245 60.4082 69.9646 57.6077C71.817 55.3242 74.7896 49.7232 75.5219 47.1381C76.0389 45.4147 76.0389 45.4147 76.2112 46.7072C76.5558 49.5508 74.2726 56.3582 71.257 61.356C70.4385 62.6917 63.3734 70.0592 63.3734 69.5852C63.3734 69.4129 62.7272 69.7576 61.9517 70.3607C59.9701 71.8687 55.1451 73.9368 51.871 74.7123C48.64 75.4878 40.541 75.574 37.6116 74.8846C32.6143 73.7214 27.3155 71.2655 24.2137 68.6804C21.155 66.1815 16.4163 60.5805 16.4163 59.5034C16.4163 59.2449 16.2439 58.9864 16.0716 58.9002C15.5116 58.6848 13.8315 54.4194 12.8837 50.8434C11.6775 46.3626 11.7205 40.1584 12.9268 35.376C13.8315 31.8861 15.4685 27.8792 16.1147 27.6207C16.287 27.5345 16.4163 27.1037 16.4163 26.6298C16.4163 26.1989 16.5886 25.8112 16.7609 25.8112C16.9332 25.8112 17.4502 25.1649 17.9241 24.4324C18.3549 23.6569 19.0872 22.7521 19.518 22.4505C19.9488 22.149 20.2935 21.5889 20.2935 21.2442C20.2935 20.8995 20.4227 20.641 20.6381 20.641C20.8104 20.641 21.7582 19.9085 22.749 19.0038C24.7738 17.1511 27.7894 15.04 28.4786 15.04C28.694 15.04 28.9094 14.9107 28.9094 14.6953C28.9094 14.523 30.0295 13.9198 31.4081 13.4028C39.9379 10.0422 48.5539 9.95598 56.4806 13.2304C61.3486 15.2554 64.4504 17.4096 68.3707 21.4596C69.7492 22.8814 69.8354 22.9245 70.7831 22.192C71.3432 21.8043 72.5063 21.0288 73.411 20.4256C74.2726 19.8224 75.005 19.2192 75.005 19.0899C75.005 18.6591 70.0508 13.8767 67.7245 12.0671C58.333 4.78582 44.1597 2.37307 32.3558 6.03527C30.3311 6.68154 25.5492 8.96503 23.9552 10.0422C23.266 10.5592 22.6628 10.8608 22.6628 10.7315C22.5767 10.0852 15.8993 16.2033 13.4007 19.133C7.45563 26.1127 3.57844 38.1334 4.56928 46.4918C4.7416 47.7844 4.957 49.637 5.04316 50.5849C5.3878 53.3854 6.85251 57.6938 8.70495 61.356C11.5051 66.8278 11.5913 66.914 13.4007 68.8959C14.3484 69.9299 15.1239 70.8347 15.1239 70.9639C15.1239 71.2224 16.7178 72.6873 19.2595 74.7123C20.4227 75.6602 21.4997 76.6511 21.672 76.8665C21.8443 77.125 22.0166 77.1251 22.0166 76.9527C22.0166 76.7804 22.4474 76.9958 22.9644 77.5128C23.4814 77.9867 24.0845 78.3745 24.2568 78.3745C24.4722 78.3745 25.3769 78.8484 26.3246 79.4516C27.2724 80.0548 28.3925 80.6149 28.7802 80.7011C29.211 80.7442 30.1588 81.0888 30.848 81.3904C36.6638 83.8032 46.443 84.4494 52.8619 82.8122C54.8005 82.2952 56.7391 81.7351 57.1699 81.4766C57.6438 81.2612 58.2038 81.0027 58.4192 81.0027C59.1946 80.9165 60.5732 80.3995 60.7886 80.141C60.9178 80.0117 62.081 79.3655 63.3734 78.6761C70.9554 74.8846 79.873 65.6645 83.3625 58.0385C85.5165 53.2992 87.0673 48.0429 87.0673 45.1993C87.0673 44.3807 87.2827 43.3897 87.5412 43.045C88.1443 42.1833 87.6705 49.5508 86.8519 53.6008C85.9903 57.7369 85.6888 58.7279 84.0517 62.2177C76.5989 78.0298 60.8747 88.0255 43.8151 87.8101C41.6611 87.767 39.5071 87.6808 39.0332 87.5946Z" fill="white"/>
</svg>
