<svg width="88" height="88" viewBox="0 0 88 88" fill="none" xmlns="http://www.w3.org/2000/svg">
<path d="M39.0332 87.4081C37.4823 87.1065 33.8636 86.3741 33.002 86.2017C31.2358 85.814 27.3155 84.306 24.6014 82.9273C16.7609 78.9635 9.86811 72.3285 5.68936 64.6594C2.67376 59.1015 0.476685 50.4845 0.476685 44.0218C0.476685 40.5319 1.59676 32.8198 2.28604 31.5272C2.54452 31.0102 2.75992 30.5363 2.71684 30.4932C2.67376 30.407 2.63068 30.3209 2.67376 30.2778C2.67376 30.1916 2.75992 29.8038 2.84608 29.373C3.06148 28.1666 6.55095 21.3162 7.88643 19.3773C8.57571 18.4295 9.43731 17.18 9.86811 16.5768C11.1605 14.7673 15.8562 10.2434 18.0102 8.77851C19.1303 8.00299 20.1642 7.22746 20.2935 7.09821C20.5519 6.79661 24.6014 4.68546 27.617 3.26367C30.3742 2.01421 34.0359 1.15252 39.464 0.420076C43.6428 -0.140025 44.8059 -0.140025 48.9416 0.420076C56.0929 1.36794 57.9884 1.88496 62.9857 4.2977C68.4137 6.88278 71.257 8.95085 75.9096 13.604L78.7098 16.4476L79.9161 15.5859C81.4239 14.5088 82.0701 14.8104 83.5779 17.5247C84.181 18.6449 85.3011 20.6268 86.0334 21.9193C87.5843 24.6768 87.7135 24.4613 83.4055 26.4863C81.7685 27.2619 78.279 28.8991 75.6512 30.1485C64.1488 35.6634 60.7455 37.2575 60.3578 37.2575C60.0993 37.2575 59.927 37.4729 59.927 37.6884C59.927 37.9469 59.7547 38.1192 59.5393 38.1192C59.3239 38.1192 57.6438 38.8086 55.8775 39.6272C54.0681 40.4458 52.4311 41.1351 52.1726 41.1351C51.828 41.1351 50.8802 43.7633 50.8802 44.8404C50.8802 45.3574 48.8985 47.2962 47.7354 47.8994C47.3476 48.1148 45.8829 48.1579 44.5475 48.0287C42.3935 47.7702 41.9196 47.5548 40.6703 46.0899C39.5071 44.7542 39.2486 44.0649 39.2486 42.4708C39.2486 40.2734 40.3256 38.1192 41.9196 37.0852C43.1689 36.2666 46.9168 36.0942 48.1662 36.7405C49.1139 37.2575 50.4494 37.0421 50.4494 36.3527C50.4494 36.1373 50.751 35.965 51.0956 35.965C51.4402 35.965 51.7418 35.7926 51.7418 35.6203C51.7418 35.4049 52.4742 34.8448 53.3788 34.3277C56.4375 32.5613 56.3514 32.6905 54.7574 31.2687C51.0094 27.9943 46.1414 26.4863 41.9627 27.348C37.2239 28.2959 31.8389 32.3028 30.5465 35.7926C30.288 36.6112 29.9003 37.2575 29.771 37.2575C29.5987 37.2575 29.211 38.55 28.9094 40.1873C28.134 44.4957 29.3402 49.5366 31.8819 52.2079C32.3989 52.768 32.8297 53.3281 32.9159 53.5004C33.1313 54.1898 36.1469 56.6456 36.8361 56.6456C37.2239 56.6456 37.5254 56.818 37.5254 57.0334C37.5254 57.7227 41.5749 58.5844 44.6336 58.5414C49.8894 58.4983 55.8775 55.9994 60.3578 51.9494C61.3917 50.9584 62.4256 50.1829 62.5979 50.1829C63.3303 50.1829 61.2194 54.0605 59.41 55.9563C58.7638 56.6887 58.2038 57.3781 58.2038 57.5935C58.2038 57.7658 57.9884 57.9382 57.6868 57.9382C57.3853 57.9382 56.6529 58.4121 56.0067 59.0153C55.4036 59.6616 53.465 60.6956 51.6987 61.3849C48.9416 62.4621 47.9508 62.6344 44.4182 62.5913C40.2825 62.5482 38.9471 62.2466 35.1991 60.5233C32.7436 59.403 28.0478 54.8791 27.1862 52.768C26.8416 51.9494 26.4539 51.1739 26.2816 51.0446C26.1523 50.9154 25.6784 49.5366 25.2907 47.8994C22.9644 38.6362 27.3155 29.4592 36.0176 25.1507C38.7317 23.8151 39.4209 23.6858 43.4705 23.5566C46.2707 23.4273 48.7262 23.5997 49.9755 23.9443C52.948 24.7629 56.2652 26.7017 58.2899 28.8129C59.4531 30.0193 59.5393 30.0624 60.3578 29.2868C60.8317 28.856 61.2194 28.6406 61.2194 28.8129C61.2194 28.9852 61.5209 28.8129 61.9517 28.4251C62.3395 28.0374 63.3734 27.2619 64.2781 26.7017C65.1397 26.0986 66.0013 25.4954 66.1305 25.28C66.3459 24.8922 63.0287 21.6178 60.7886 20.0236C54.7574 15.7151 46.9168 13.8625 40.0241 15.0689C36.1469 15.7151 34.6391 16.2752 30.7188 18.3002C28.3063 19.5066 22.7059 24.1167 22.2751 25.1938C22.0166 25.8831 20.2935 28.3821 19.3457 29.5023C19.0441 29.8469 18.8287 30.1916 18.9149 30.2347C18.958 30.3209 18.6133 31.3118 18.1395 32.432C16.1578 36.8267 15.4685 43.3324 16.4593 48.1148C16.9763 50.743 18.441 54.8792 19.0872 55.6547C19.3457 55.9563 19.3888 56.2148 19.1734 56.2148C18.958 56.2148 19.0011 56.3871 19.2165 56.5595C19.4749 56.7318 20.3365 57.8951 21.112 59.1015C24.4722 64.4009 32.3128 69.6572 38.6024 70.8205C43.5135 71.7253 50.4494 71.2513 53.7666 69.7434C57.256 68.2354 59.927 66.8136 59.927 66.5982C59.927 66.4689 60.4439 66.0812 61.1332 65.7796C62.5549 65.1333 67.7245 60.2217 69.9646 57.4212C71.817 55.1377 74.7896 49.5366 75.5219 46.9516C76.0389 45.2282 76.0389 45.2282 76.2112 46.5207C76.5558 49.3643 74.2726 56.1717 71.257 61.1695C70.4385 62.5051 63.3734 69.8726 63.3734 69.3987C63.3734 69.2264 62.7272 69.571 61.9517 70.1742C59.9701 71.6822 55.1451 73.7503 51.871 74.5258C48.64 75.3013 40.541 75.3875 37.6116 74.6981C32.6143 73.5348 27.3155 71.079 24.2137 68.4939C21.155 65.995 16.4163 60.394 16.4163 59.3169C16.4163 59.0584 16.2439 58.7999 16.0716 58.7137C15.5116 58.4983 13.8315 54.2329 12.8837 50.6568C11.6775 46.176 11.7205 39.9718 12.9268 35.1894C13.8315 31.6996 15.4685 27.6927 16.1147 27.4342C16.287 27.348 16.4163 26.9172 16.4163 26.4432C16.4163 26.0124 16.5886 25.6246 16.7609 25.6246C16.9332 25.6246 17.4502 24.9784 17.9241 24.2459C18.3549 23.4704 19.0872 22.5656 19.518 22.264C19.9488 21.9624 20.2935 21.4023 20.2935 21.0576C20.2935 20.713 20.4227 20.4545 20.6381 20.4545C20.8104 20.4545 21.7582 19.722 22.749 18.8172C24.7738 16.9646 27.7894 14.8535 28.4786 14.8535C28.694 14.8535 28.9094 14.7242 28.9094 14.5088C28.9094 14.3364 30.0295 13.7333 31.4081 13.2162C39.9379 9.85563 48.5539 9.76946 56.4806 13.0439C61.3486 15.0689 64.4504 17.2231 68.3707 21.2731C69.7492 22.6949 69.8354 22.738 70.7831 22.0055C71.3432 21.6178 72.5063 20.8422 73.411 20.239C74.2726 19.6359 75.005 19.0327 75.005 18.9034C75.005 18.4726 70.0508 13.6902 67.7245 11.8806C58.333 4.5993 44.1597 2.18655 32.3558 5.84875C30.3311 6.49502 25.5492 8.77851 23.9552 9.85563C23.266 10.3726 22.6628 10.6742 22.6628 10.545C22.5767 9.89871 15.8993 16.0167 13.4007 18.9465C7.45563 25.9262 3.57844 37.9469 4.56928 46.3053C4.7416 47.5978 4.957 49.4505 5.04316 50.3983C5.3878 53.1988 6.85251 57.5073 8.70495 61.1695C11.5051 66.6413 11.5913 66.7274 13.4007 68.7093C14.3484 69.7434 15.1239 70.6482 15.1239 70.7774C15.1239 71.0359 16.7178 72.5008 19.2595 74.5258C20.4227 75.4736 21.4997 76.4646 21.672 76.68C21.8443 76.9385 22.0166 76.9385 22.0166 76.7662C22.0166 76.5939 22.4474 76.8093 22.9644 77.3263C23.4814 77.8002 24.0845 78.188 24.2568 78.188C24.4722 78.188 25.3769 78.6619 26.3246 79.2651C27.2724 79.8683 28.3925 80.4284 28.7802 80.5146C29.211 80.5576 30.1588 80.9023 30.848 81.2039C36.6638 83.6167 46.443 84.2629 52.8619 82.6257C54.8005 82.1087 56.7391 81.5486 57.1699 81.2901C57.6438 81.0747 58.2038 80.8162 58.4192 80.8162C59.1946 80.73 60.5732 80.213 60.7886 79.9545C60.9178 79.8252 62.081 79.1789 63.3734 78.4896C70.9554 74.6981 79.873 65.478 83.3625 57.852C85.5165 53.1127 87.0673 47.8563 87.0673 45.0128C87.0673 44.1941 87.2827 43.2032 87.5412 42.8585C88.1443 41.9968 87.6705 49.3643 86.8519 53.4143C85.9903 57.5504 85.6888 58.5414 84.0517 62.0312C76.5989 77.8433 60.8747 87.839 43.8151 87.6235C41.6611 87.5804 39.5071 87.4943 39.0332 87.4081Z" fill="#18BC9C"/>
</svg>
