<?xml version="1.0" encoding="UTF-8"?>
<svg width="40px" height="40px" viewBox="0 0 40 40" version="1.1" xmlns="http://www.w3.org/2000/svg" xmlns:xlink="http://www.w3.org/1999/xlink">
    <!-- Generator: Sketch 47.1 (45422) - http://www.bohemiancoding.com/sketch -->
    <title>renteradar</title>
    <desc>Created with Sketch.</desc>
    <defs></defs>
    <g id="mobile" stroke="none" stroke-width="1" fill="none" fill-rule="evenodd">
        <g id="frontpage" transform="translate(-160.000000, -1036.000000)" fill-rule="nonzero" fill="#fff">
            <g id="Group-6" transform="translate(0.000000, 956.000000)">
                <g id="Group-29" transform="translate(40.000000, 80.000000)">
                    <g id="renteradar" transform="translate(120.000000, 0.000000)">
                        <path d="M17.6587843,39.900105 C16.9484868,39.7624337 15.2911261,39.428089 14.8965164,39.3494196 C14.0875665,39.1724136 12.2920923,38.4840569 11.0490717,37.8547022 C7.45812342,36.0453074 4.30124578,33.0165379 2.38738872,29.5157524 C1.00625475,26.9786662 0,23.0451993 0,20.0950991 C0,18.502045 0.512992616,14.9815921 0.82868038,14.3915721 C0.947063292,14.1555641 1.04571572,13.9392234 1.02598523,13.919556 C1.00625475,13.8802214 0.986524262,13.8408867 1.00625475,13.8212194 C1.00625475,13.7818847 1.04571572,13.6048787 1.08517669,13.4082053 C1.18382911,12.85752 2.78199842,9.73041378 3.39364346,8.84538372 C3.70933123,8.41270236 4.10394093,7.84234966 4.30124578,7.56700697 C4.89316034,6.74097892 7.04378323,4.67590879 8.0303075,4.00721942 C8.54330011,3.6532074 9.01683176,3.29919537 9.07602321,3.24019337 C9.19440613,3.10252203 11.0490717,2.13882263 12.4302057,1.48980059 C13.6929568,0.919447891 15.370048,0.5261012 17.8560892,0.191756512 C19.7699462,-0.0639188373 20.3026693,-0.0639188373 22.1967959,0.191756512 C25.4720565,0.624437873 26.3401978,0.860445887 28.6289341,1.96181662 C31.1149752,3.1418567 32.4171873,4.08588876 34.5480797,6.20996089 L35.8305612,7.50800497 L36.3830148,7.11465828 C37.0735818,6.62297492 37.3695391,6.76064626 38.060106,7.99968834 C38.3363328,8.51103903 38.8493255,9.41573642 39.1847437,10.0057565 C39.8950412,11.2644659 39.9542326,11.1661292 37.9811841,12.0904939 C37.2314257,12.4445059 35.6332564,13.1918647 34.4296968,13.7622174 C29.1616572,16.2796362 27.6029489,17.0073276 27.4253745,17.0073276 C27.3069916,17.0073276 27.2280696,17.1056642 27.2280696,17.2040009 C27.2280696,17.3220049 27.1491477,17.4006743 27.0504953,17.4006743 C26.9518429,17.4006743 26.1823539,17.7153516 25.373404,18.089031 C24.5447237,18.4627103 23.7949652,18.7773877 23.6765823,18.7773877 C23.5187384,18.7773877 23.0846677,19.9770951 23.0846677,20.4687785 C23.0846677,20.7047865 22.1770654,21.5898165 21.6443423,21.8651592 C21.466768,21.9634959 20.7959315,21.9831632 20.1842864,21.9241612 C19.1977621,21.8061572 18.9807268,21.7078205 18.4085427,21.0391312 C17.8758196,20.4294438 17.7574367,20.1147664 17.7574367,19.3870751 C17.7574367,18.384041 18.2506989,17.4006743 18.9807268,16.9286582 C19.5529109,16.5549789 21.2694631,16.4763095 21.8416472,16.7713196 C22.2757178,17.0073276 22.8873629,16.9089909 22.8873629,16.5943135 C22.8873629,16.4959769 23.0254763,16.4173075 23.1833202,16.4173075 C23.3411641,16.4173075 23.4792774,16.3386382 23.4792774,16.2599689 C23.4792774,16.1616322 23.8146957,15.9059568 24.2290359,15.6699488 C25.6299003,14.8635881 25.5904394,14.9225901 24.8604114,14.2735681 C23.1438592,12.7788506 20.9143144,12.0904939 19.0004573,12.4838406 C16.8301039,12.916522 14.3637933,14.7455841 13.7718787,16.3386382 C13.6534958,16.7123175 13.4759214,17.0073276 13.41673,17.0073276 C13.337808,17.0073276 13.1602337,17.5973476 13.0221203,18.3447063 C12.6669715,20.3114398 13.2194251,22.6125179 14.3835237,23.8318927 C14.6202896,24.087568 14.8175944,24.3432434 14.8570554,24.4219127 C14.9557078,24.7365901 16.3368418,25.8576281 16.6525296,25.8576281 C16.8301039,25.8576281 16.9682173,25.9362975 16.9682173,26.0346341 C16.9682173,26.3493115 18.8228829,26.7426582 20.2237474,26.7229908 C22.6308666,26.7033235 25.373404,25.5626181 27.4253745,23.7138887 C27.8989061,23.26154 28.3724378,22.9075279 28.4513597,22.9075279 C28.786778,22.9075279 27.8199842,24.677588 26.9913038,25.5429508 C26.6953465,25.8772955 26.4388502,26.1919728 26.4388502,26.2903095 C26.4388502,26.3689788 26.3401978,26.4476482 26.2020844,26.4476482 C26.063971,26.4476482 25.7285528,26.6639888 25.4325955,26.9393315 C25.1563687,27.2343415 24.2684969,27.7063576 23.459547,28.0210349 C22.1967959,28.5127183 21.7429947,28.5913876 20.125095,28.5717203 C18.2309684,28.552053 17.6193233,28.4143816 15.9027711,27.6276882 C14.7781335,27.1163375 12.6275106,25.0512674 12.2329009,24.087568 C12.075057,23.7138887 11.8974826,23.3598766 11.8185607,23.3008746 C11.7593692,23.2418726 11.5423339,22.6125179 11.3647595,21.8651592 C10.2993133,17.6366823 12.2920923,13.44754 16.2776503,11.4808066 C17.5206709,10.8711192 17.8363587,10.8121172 19.6910243,10.7531152 C20.9735058,10.6941132 22.0981435,10.7727825 22.6703276,10.9301212 C24.031731,11.3038005 25.5509784,12.1888306 26.4783112,13.15253 C27.0110343,13.7032154 27.0504953,13.7228827 27.4253745,13.3688707 C27.6424098,13.1721973 27.8199842,13.0738607 27.8199842,13.15253 C27.8199842,13.2311993 27.9580976,13.15253 28.1554025,12.975524 C28.3329768,12.798518 28.8065085,12.4445059 29.2208487,12.1888306 C29.6154584,11.9134879 30.0100681,11.6381452 30.0692595,11.5398086 C30.1679119,11.3628025 28.6486646,9.86808512 27.6226793,9.14039374 C24.8604114,7.17366028 21.2694631,6.3279649 18.1125855,6.87865027 C16.3368418,7.17366028 15.6462748,7.42933563 13.8508006,8.35370036 C12.7458935,8.90438573 10.1809304,11.0087905 9.98362554,11.5004739 C9.86524262,11.8151512 9.07602321,12.9558566 8.64195254,13.4672073 C8.50383914,13.624546 8.40518672,13.7818847 8.44464769,13.801552 C8.46437817,13.8408867 8.30653429,14.2932354 8.08949895,14.8045861 C7.18189663,16.8106542 6.86620887,19.7804217 7.32001003,21.9634959 C7.55677585,23.1632033 8.22761235,25.0512674 8.52356963,25.4052794 C8.64195254,25.5429508 8.66168302,25.6609548 8.5630306,25.6609548 C8.46437817,25.6609548 8.48410866,25.7396241 8.58276108,25.8182935 C8.701144,25.8969628 9.0957537,26.4279808 9.45090243,26.9786662 C10.9898803,29.3977483 14.5808286,31.7971632 17.4614794,32.3281812 C19.7107548,32.7411952 22.8873629,32.5248545 24.4066103,31.8364978 C26.0047796,31.1481411 27.2280696,30.4991191 27.2280696,30.4007824 C27.2280696,30.3417804 27.4648355,30.1647744 27.7805232,30.0271031 C28.4316292,29.732093 30.7992875,27.4900169 31.8252727,26.2116401 C32.6736836,25.1692714 34.0350871,22.6125179 34.3705053,21.4324778 C34.6072711,20.6457845 34.6072711,20.6457845 34.6861931,21.2358045 C34.844037,22.5338486 33.7983212,25.6412874 32.4171873,27.9226983 C32.042308,28.5323856 28.8065085,31.8954998 28.8065085,31.6791592 C28.8065085,31.6004898 28.5105512,31.7578285 28.1554025,32.0331712 C27.2478001,32.7215279 25.0379858,33.6655599 23.5384689,34.019572 C22.0586825,34.373584 18.3493513,34.4129187 17.0076783,34.0982413 C14.718942,33.5672233 12.2920923,32.4461852 10.8714974,31.2661451 C9.47063292,30.1254397 7.30027954,27.5686862 7.30027954,27.0770029 C7.30027954,26.9589989 7.2213576,26.8409949 7.14243566,26.8016602 C6.88593935,26.7033235 6.11645043,24.7562574 5.68237975,23.1238686 C5.12992616,21.0784658 5.14965665,18.2463696 5.70211024,16.0632955 C6.11645043,14.4702414 6.86620887,12.6411793 7.16216615,12.5231753 C7.24108809,12.4838406 7.30027954,12.2871673 7.30027954,12.0708266 C7.30027954,11.8741532 7.37920148,11.6971472 7.45812342,11.6971472 C7.53704537,11.6971472 7.77381119,11.4021372 7.99084653,11.0677925 C8.18815138,10.7137805 8.52356963,10.3007665 8.72087448,10.1630951 C8.91817933,10.0254238 9.07602321,9.76974845 9.07602321,9.61240977 C9.07602321,9.45507109 9.13521467,9.33706709 9.2338671,9.33706709 C9.31278904,9.33706709 9.74685971,9.0027224 10.2006609,8.58970837 C11.1279937,7.74401299 12.5091276,6.78031359 12.8248154,6.78031359 C12.9234678,6.78031359 13.0221203,6.72131159 13.0221203,6.62297492 C13.0221203,6.54430558 13.5351129,6.26896289 14.1664884,6.03295488 C18.0731245,4.49890278 22.0192215,4.45956811 25.6496308,5.95428554 C27.8791757,6.87865027 29.2997706,7.86201699 31.0952448,9.71074644 C31.7266203,10.3597685 31.7660813,10.3794358 32.2001519,10.0450911 C32.4566482,9.86808512 32.9893713,9.5140731 33.4037115,9.23873041 C33.7983212,8.96338773 34.1337395,8.68804505 34.1337395,8.62904304 C34.1337395,8.4323697 31.8647337,6.24929556 30.7992875,5.42326751 C26.4980417,2.09948797 20.006712,0.998117229 14.6005591,2.66984067 C13.6732263,2.96485069 11.4831424,4.00721942 10.7531145,4.49890278 C10.4374267,4.7349108 10.1611999,4.87258214 10.1611999,4.81358014 C10.1217389,4.51857012 7.06351372,7.31133163 5.91914557,8.64871038 C3.19633861,11.8348186 1.42059494,17.3220049 1.8743961,21.1374678 C1.95331804,21.7274879 2.05197047,22.5731833 2.09143144,23.0058646 C2.24927532,24.2842414 2.92011182,26.2509748 3.76852268,27.9226983 C5.05100422,30.4204497 5.09046519,30.4597844 5.91914557,31.3644818 C6.35321625,31.8364978 6.70836498,32.2495119 6.70836498,32.3085139 C6.70836498,32.4265179 7.43839294,33.0952072 8.60249157,34.019572 C9.13521467,34.4522533 9.6284768,34.904602 9.70739874,35.0029387 C9.78632068,35.1209427 9.86524262,35.1209427 9.86524262,35.0422734 C9.86524262,34.963604 10.0625475,35.0619407 10.2993133,35.2979487 C10.5360791,35.5142894 10.8123059,35.6912954 10.8912279,35.6912954 C10.9898803,35.6912954 11.4042205,35.9076361 11.8382911,36.1829788 C12.2723618,36.4583215 12.7853544,36.7139968 12.9629288,36.7533315 C13.1602337,36.7729988 13.5943043,36.9303375 13.9099921,37.0680088 C16.5736076,38.1693796 21.0524278,38.4643896 23.9922701,37.7170309 C24.8801419,37.4810229 25.7680137,37.2253475 25.9653186,37.1073435 C26.1823539,37.0090068 26.4388502,36.8910028 26.5375027,36.8910028 C26.8926514,36.8516681 27.5240269,36.6156601 27.6226793,36.4976561 C27.6818708,36.4386541 28.2145939,36.1436441 28.8065085,35.8289667 C32.2790739,34.0982413 36.3632843,29.8894317 37.9614536,26.4083135 C38.9479779,24.2449067 39.6582754,21.8454919 39.6582754,20.5474478 C39.6582754,20.1737684 39.7569278,19.7214197 39.8753107,19.5640811 C40.1515375,19.1707344 39.9345021,22.5338486 39.5596229,24.382578 C39.1650132,26.2706421 39.0268998,26.7229908 38.2771414,28.3160449 C34.8637674,35.5339567 27.6621403,40.0967784 19.8488682,39.9984417 C18.8623439,39.9787743 17.8758196,39.9394397 17.6587843,39.900105 Z" id="Shape"></path>
                    </g>
                </g>
            </g>
        </g>
    </g>
</svg>