<svg width="112" height="112" viewBox="0 0 112 112" fill="none" xmlns="http://www.w3.org/2000/svg">
<circle cx="56" cy="56" r="56" fill="white"/>
<path d="M51.0332 99.5946C49.4823 99.293 45.8636 98.5606 45.002 98.3883C43.2358 98.0005 39.3155 96.4925 36.6014 95.1138C28.7609 91.15 21.8681 84.515 17.6894 76.8459C14.6738 71.288 12.4767 62.671 12.4767 56.2083C12.4767 52.7185 13.5968 45.0063 14.286 43.7138C14.5445 43.1967 14.7599 42.7228 14.7168 42.6797C14.6738 42.5936 14.6307 42.5074 14.6738 42.4643C14.6738 42.3781 14.7599 41.9904 14.8461 41.5595C15.0615 40.3532 18.551 33.5027 19.8864 31.5639C20.5757 30.616 21.4373 29.3666 21.8681 28.7634C23.1605 26.9538 27.8562 22.4299 30.0102 20.965C31.1303 20.1895 32.1642 19.414 32.2935 19.2847C32.5519 18.9831 36.6014 16.872 39.617 15.4502C42.3742 14.2007 46.0359 13.339 51.464 12.6066C55.6428 12.0465 56.8059 12.0465 60.9416 12.6066C68.0929 13.5545 69.9884 14.0715 74.9857 16.4842C80.4137 19.0693 83.257 21.1374 87.9096 25.7905L90.7098 28.6341L91.9161 27.7724C93.4239 26.6953 94.0701 26.9969 95.5779 29.7112C96.181 30.8314 97.3011 32.8133 98.0334 34.1059C99.5843 36.8633 99.7135 36.6479 95.4055 38.6728C93.7685 39.4484 90.279 41.0856 87.6512 42.335C76.1488 47.8499 72.7455 49.444 72.3578 49.444C72.0993 49.444 71.927 49.6595 71.927 49.8749C71.927 50.1334 71.7547 50.3057 71.5393 50.3057C71.3239 50.3057 69.6438 50.9951 67.8775 51.8137C66.0681 52.6323 64.4311 53.3217 64.1726 53.3217C63.828 53.3217 62.8802 55.9498 62.8802 57.0269C62.8802 57.544 60.8985 59.4828 59.7354 60.0859C59.3476 60.3014 57.8829 60.3445 56.5475 60.2152C54.3935 59.9567 53.9196 59.7413 52.6703 58.2764C51.5071 56.9408 51.2486 56.2514 51.2486 54.6573C51.2486 52.46 52.3256 50.3057 53.9196 49.2717C55.1689 48.4531 58.9168 48.2807 60.1662 48.927C61.1139 49.444 62.4494 49.2286 62.4494 48.5392C62.4494 48.3238 62.751 48.1515 63.0956 48.1515C63.4402 48.1515 63.7418 47.9791 63.7418 47.8068C63.7418 47.5914 64.4742 47.0313 65.3788 46.5143C68.4375 44.7478 68.3514 44.877 66.7574 43.4553C63.0094 40.1808 58.1414 38.6728 53.9627 39.5345C49.2239 40.4824 43.8389 44.4893 42.5465 47.9791C42.288 48.7978 41.9003 49.444 41.771 49.444C41.5987 49.444 41.211 50.7366 40.9094 52.3738C40.134 56.6823 41.3402 61.7232 43.8819 64.3944C44.3989 64.9545 44.8297 65.5146 44.9159 65.687C45.1313 66.3763 48.1469 68.8321 48.8361 68.8321C49.2239 68.8321 49.5254 69.0045 49.5254 69.2199C49.5254 69.9093 53.5749 70.771 56.6336 70.7279C61.8894 70.6848 67.8775 68.1859 72.3578 64.1359C73.3917 63.145 74.4256 62.3694 74.5979 62.3694C75.3303 62.3694 73.2194 66.2471 71.41 68.1428C70.7638 68.8752 70.2038 69.5646 70.2038 69.78C70.2038 69.9524 69.9884 70.1247 69.6868 70.1247C69.3853 70.1247 68.6529 70.5986 68.0067 71.2018C67.4036 71.8481 65.465 72.8821 63.6987 73.5715C60.9416 74.6486 59.9508 74.8209 56.4182 74.7778C52.2825 74.7348 50.9471 74.4332 47.1991 72.7098C44.7436 71.5896 40.0478 67.0657 39.1862 64.9545C38.8416 64.1359 38.4539 63.3604 38.2816 63.2311C38.1523 63.1019 37.6784 61.7232 37.2907 60.0859C34.9644 50.8227 39.3155 41.6457 48.0176 37.3372C50.7317 36.0016 51.4209 35.8723 55.4705 35.7431C58.2706 35.6138 60.7262 35.7862 61.9755 36.1309C64.948 36.9495 68.2652 38.8883 70.2899 40.9994C71.4531 42.2058 71.5393 42.2489 72.3578 41.4734C72.8317 41.0425 73.2194 40.8271 73.2194 40.9994C73.2194 41.1718 73.5209 40.9994 73.9517 40.6117C74.3395 40.2239 75.3734 39.4484 76.2781 38.8883C77.1397 38.2851 78.0013 37.6819 78.1305 37.4665C78.3459 37.0787 75.0287 33.8043 72.7886 32.2101C66.7574 27.9017 58.9168 26.049 52.0241 27.2554C48.1469 27.9017 46.6391 28.4618 42.7188 30.4868C40.3063 31.6931 34.7059 36.3032 34.2751 37.3803C34.0166 38.0697 32.2935 40.5686 31.3457 41.6888C31.0441 42.0335 30.8287 42.3781 30.9149 42.4212C30.958 42.5074 30.6133 43.4983 30.1395 44.6185C28.1578 49.0132 27.4685 55.519 28.4593 60.3014C28.9763 62.9295 30.441 67.0657 31.0872 67.8412C31.3457 68.1428 31.3888 68.4013 31.1734 68.4013C30.958 68.4013 31.0011 68.5736 31.2165 68.746C31.4749 68.9183 32.3365 70.0816 33.112 71.288C36.4722 76.5874 44.3128 81.8437 50.6024 83.007C55.5135 83.9118 62.4494 83.4379 65.7666 81.9299C69.256 80.4219 71.927 79.0001 71.927 78.7847C71.927 78.6555 72.4439 78.2677 73.1332 77.9661C74.5549 77.3198 79.7245 72.4082 81.9646 69.6077C83.817 67.3242 86.7896 61.7232 87.5219 59.1381C88.0389 57.4147 88.0389 57.4147 88.2112 58.7072C88.5558 61.5508 86.2726 68.3582 83.257 73.356C82.4385 74.6917 75.3734 82.0592 75.3734 81.5852C75.3734 81.4129 74.7272 81.7576 73.9517 82.3607C71.9701 83.8687 67.1451 85.9368 63.871 86.7123C60.64 87.4878 52.541 87.574 49.6116 86.8846C44.6143 85.7214 39.3155 83.2655 36.2137 80.6804C33.155 78.1815 28.4163 72.5805 28.4163 71.5034C28.4163 71.2449 28.2439 70.9864 28.0716 70.9002C27.5116 70.6848 25.8315 66.4194 24.8837 62.8434C23.6775 58.3626 23.7205 52.1584 24.9268 47.376C25.8315 43.8861 27.4685 39.8792 28.1147 39.6207C28.287 39.5345 28.4163 39.1037 28.4163 38.6298C28.4163 38.1989 28.5886 37.8112 28.7609 37.8112C28.9332 37.8112 29.4502 37.1649 29.9241 36.4324C30.3549 35.6569 31.0872 34.7521 31.518 34.4505C31.9488 34.149 32.2935 33.5889 32.2935 33.2442C32.2935 32.8995 32.4227 32.641 32.6381 32.641C32.8104 32.641 33.7582 31.9085 34.749 31.0038C36.7738 29.1511 39.7894 27.04 40.4786 27.04C40.694 27.04 40.9094 26.9107 40.9094 26.6953C40.9094 26.523 42.0295 25.9198 43.4081 25.4028C51.9379 22.0421 60.5539 21.956 68.4806 25.2304C73.3486 27.2554 76.4504 29.4096 80.3707 33.4596C81.7492 34.8814 81.8354 34.9245 82.7831 34.192C83.3432 33.8043 84.5063 33.0288 85.411 32.4256C86.2726 31.8224 87.005 31.2192 87.005 31.0899C87.005 30.6591 82.0508 25.8767 79.7245 24.0671C70.333 16.7858 56.1597 14.3731 44.3558 18.0353C42.3311 18.6815 37.5492 20.965 35.9552 22.0422C35.266 22.5592 34.6628 22.8608 34.6628 22.7315C34.5767 22.0852 27.8993 28.2033 25.4007 31.133C19.4556 38.1127 15.5784 50.1334 16.5693 58.4918C16.7416 59.7844 16.957 61.637 17.0432 62.5849C17.3878 65.3854 18.8525 69.6938 20.705 73.356C23.5051 78.8278 23.5913 78.914 25.4007 80.8959C26.3484 81.9299 27.1239 82.8347 27.1239 82.9639C27.1239 83.2224 28.7178 84.6873 31.2595 86.7123C32.4227 87.6602 33.4997 88.6511 33.672 88.8665C33.8443 89.125 34.0166 89.1251 34.0166 88.9527C34.0166 88.7804 34.4474 88.9958 34.9644 89.5128C35.4814 89.9867 36.0845 90.3745 36.2568 90.3745C36.4722 90.3745 37.3769 90.8484 38.3246 91.4516C39.2724 92.0548 40.3925 92.6149 40.7802 92.7011C41.211 92.7442 42.1588 93.0888 42.848 93.3904C48.6638 95.8032 58.443 96.4494 64.8619 94.8122C66.8005 94.2952 68.7391 93.7351 69.1699 93.4766C69.6438 93.2612 70.2038 93.0027 70.4192 93.0027C71.1946 92.9165 72.5732 92.3995 72.7886 92.141C72.9178 92.0117 74.081 91.3655 75.3734 90.6761C82.9554 86.8846 91.873 77.6645 95.3625 70.0385C97.5165 65.2992 99.0673 60.0429 99.0673 57.1993C99.0673 56.3807 99.2827 55.3897 99.5412 55.045C100.144 54.1833 99.6705 61.5508 98.8519 65.6008C97.9903 69.7369 97.6888 70.7279 96.0517 74.2177C88.5989 90.0298 72.8747 100.025 55.8151 99.8101C53.6611 99.767 51.5071 99.6808 51.0332 99.5946Z" fill="#18BC9C"/>
</svg>
