<svg width="63" height="63" viewBox="0 0 63 63" fill="none" xmlns="http://www.w3.org/2000/svg">
<circle r="31.2585" transform="matrix(-1 0 0 1 31.2581 31.2585)" fill="white"/>
<g clip-path="url(#clip0)">
<path fill-rule="evenodd" clip-rule="evenodd" d="M25.2011 55.4207L25.2043 55.4213C26.0379 55.5892 27.37 55.8575 28.0363 55.987C28.308 56.0364 29.5427 56.0858 30.7774 56.1105C40.5565 56.234 49.5701 50.5048 53.8422 41.4419C54.7806 39.4416 54.9535 38.8736 55.4474 36.5029C55.9166 34.1816 56.1882 29.9588 55.8425 30.4527C55.6944 30.6503 55.5709 31.2183 55.5709 31.6875C55.5709 33.3173 54.6819 36.3301 53.4471 39.0465C51.4469 43.4174 46.3351 48.7021 41.9888 50.8752C41.248 51.2703 40.5812 51.6408 40.5071 51.7148C40.3836 51.863 39.5934 52.1594 39.1489 52.2087C39.03 52.2087 38.7278 52.3462 38.463 52.4666L38.463 52.4667L38.4328 52.4804C38.1858 52.6285 37.0746 52.9496 35.9633 53.2459C32.2838 54.1843 26.6781 53.8139 23.3443 52.431C22.9492 52.2581 22.4059 52.0606 22.159 52.0359C21.9367 51.9865 21.2947 51.6655 20.7514 51.3197C20.2081 50.974 19.6895 50.7024 19.566 50.7024C19.4673 50.7024 19.1215 50.4801 18.8252 50.2085C18.5289 49.9121 18.2819 49.7887 18.2819 49.8874C18.2819 49.9862 18.1831 49.9862 18.0844 49.8381C17.9856 49.7146 17.3682 49.1466 16.7015 48.6033C15.2445 47.4427 14.3308 46.603 14.3308 46.4549C14.3308 46.3808 13.8863 45.8622 13.343 45.2695L13.3324 45.258C12.3054 44.1332 12.2509 44.0735 10.6513 40.948C9.58938 38.8489 8.74976 36.3794 8.55221 34.7743C8.50282 34.231 8.37934 33.1691 8.28056 32.4283C7.71259 27.6375 9.93511 20.7477 13.343 16.7472C14.7753 15.0679 18.6029 11.5613 18.6523 11.9317C18.6523 12.0058 18.9981 11.8329 19.3932 11.5366C20.3069 10.9192 23.048 9.61042 24.2086 9.24C30.975 7.14095 39.0995 8.52385 44.483 12.6973C45.8165 13.7344 48.6564 16.4755 48.6564 16.7225C48.6564 16.7966 48.2366 17.1423 47.7427 17.488L47.7422 17.4883C47.2237 17.834 46.5572 18.2783 46.2363 18.5005C45.693 18.9203 45.6436 18.8956 44.8534 18.0807C42.6062 15.7594 40.8282 14.5247 38.0377 13.364C33.4938 11.4872 28.5549 11.5366 23.6654 13.4628C22.8751 13.7591 22.2331 14.1048 22.2331 14.2036C22.2331 14.3271 22.1096 14.4012 21.9861 14.4012C21.591 14.4012 19.8624 15.6112 18.7017 16.6731C18.1337 17.1917 17.5905 17.6115 17.4917 17.6115C17.3682 17.6115 17.2941 17.7597 17.2941 17.9572C17.2941 18.1548 17.0966 18.4758 16.8496 18.6487C16.6027 18.8215 16.1829 19.3401 15.9359 19.7846C15.6643 20.2044 15.3679 20.5749 15.2692 20.5749C15.1704 20.5749 15.0716 20.7971 15.0716 21.0441C15.0716 21.3157 14.9975 21.5626 14.8987 21.612C14.5283 21.7602 13.5899 24.0568 13.0713 26.0571C12.3799 28.7982 12.3552 32.3542 13.0466 34.9225C13.5899 36.9721 14.553 39.4169 14.874 39.5404C14.9728 39.5898 15.0716 39.7379 15.0716 39.8861C15.0716 40.5035 17.788 43.7138 19.5413 45.1461C21.3194 46.6277 24.3568 48.0353 27.2214 48.7021C28.9006 49.0972 33.5432 49.0478 35.3953 48.6033C37.2721 48.1588 40.0379 46.9735 41.1739 46.1092C41.6184 45.7634 41.9888 45.5659 41.9888 45.6646C41.9888 45.9363 46.0387 41.7135 46.5079 40.948C48.2366 38.0834 49.5454 34.1816 49.3478 32.5518C49.3025 32.2118 49.278 32.0278 49.236 32.0238C49.1866 32.019 49.113 32.2643 48.9527 32.7987C48.5329 34.2804 46.829 37.4907 45.7671 38.7995C44.483 40.4047 41.5196 43.2199 40.7047 43.5903C40.3096 43.7632 40.0132 43.9854 40.0132 44.0595C40.0132 44.183 38.4822 44.9979 36.4819 45.8622C34.5804 46.7265 30.6046 46.9982 27.7894 46.4796C24.1839 45.8128 19.6895 42.8001 17.7633 39.7626C17.3188 39.0712 16.8249 38.4044 16.6768 38.3056C16.5533 38.2069 16.5286 38.1081 16.6521 38.1081C16.7755 38.1081 16.7508 37.9599 16.6027 37.787C16.2323 37.3425 15.3926 34.9719 15.0963 33.4655C14.5283 30.7244 14.9234 26.9955 16.0594 24.4766C16.331 23.8346 16.5286 23.2666 16.5039 23.2172C16.4545 23.1925 16.578 22.9949 16.7508 22.7974C17.2941 22.1553 18.2819 20.723 18.4301 20.3279C18.677 19.7105 21.8873 17.0682 23.2702 16.3768C25.5175 15.2161 26.3818 14.8951 28.6043 14.5247C32.5554 13.8332 37.0499 14.8951 40.5071 17.3645C41.7912 18.2782 43.6927 20.155 43.5693 20.3773C43.4952 20.5008 43.0013 20.8465 42.5074 21.1922C41.9888 21.5133 41.3961 21.9578 41.1739 22.18C40.9269 22.4023 40.7541 22.501 40.7541 22.4023C40.7541 22.3035 40.5318 22.427 40.2602 22.6739C39.791 23.1184 39.7416 23.0937 39.0748 22.4023C37.9142 21.1922 36.0127 20.081 34.3088 19.6118C33.5926 19.4142 32.185 19.3154 30.5799 19.3895C28.2586 19.4636 27.8634 19.5377 26.3077 20.3032C21.3194 22.7727 18.8252 28.0326 20.1587 33.342C20.381 34.2804 20.6526 35.0706 20.7267 35.1447C20.8255 35.2188 21.0477 35.6633 21.2453 36.1325C21.7392 37.3425 24.4309 39.9355 25.8385 40.5775C27.9869 41.5653 28.7525 41.7382 31.1231 41.7629C33.1481 41.7876 33.7161 41.6888 35.2965 41.0714C36.309 40.6763 37.4203 40.0837 37.766 39.7132C38.1364 39.3675 38.5562 39.0959 38.7291 39.0959C38.902 39.0959 39.0254 38.9971 39.0254 38.8983C39.0254 38.7748 39.3465 38.3797 39.7169 37.9599C40.7541 36.8733 41.9641 34.6508 41.5443 34.6508C41.4455 34.6508 40.8528 35.0953 40.2602 35.6633C37.6919 37.9846 34.2594 39.4169 31.2466 39.4416C29.4933 39.4663 27.172 38.9724 27.172 38.5773C27.172 38.4538 26.9991 38.355 26.7769 38.355C26.3818 38.355 24.6531 36.9474 24.5297 36.5523C24.4803 36.4535 24.2333 36.1325 23.937 35.8115C22.48 34.2804 21.7886 31.3911 22.2331 28.9217C22.4059 27.9833 22.6282 27.2424 22.727 27.2424C22.801 27.2424 23.0233 26.872 23.1715 26.4028C23.9123 24.4025 26.9991 22.1059 29.7155 21.5626C32.1109 21.0687 34.9014 21.9331 37.0499 23.8099C37.0893 23.845 37.127 23.8785 37.1631 23.9104L37.1633 23.9106L37.1646 23.9118L37.1652 23.9122L37.1652 23.9122C37.4905 24.2005 37.6787 24.3672 37.6744 24.5289C37.6686 24.7507 37.3003 24.9631 36.4267 25.4668L36.2596 25.5632C35.741 25.8595 35.3212 26.1805 35.3212 26.304C35.3212 26.4028 35.1484 26.5016 34.9508 26.5016C34.7533 26.5016 34.5804 26.6004 34.5804 26.7238C34.5804 27.1189 33.8149 27.2424 33.2716 26.9461C32.5554 26.5757 30.407 26.6744 29.6909 27.1436C28.7771 27.7363 28.1598 28.971 28.1598 30.2305C28.1598 31.1442 28.308 31.5393 28.9747 32.3048C29.6909 33.1444 29.9625 33.2679 31.1972 33.4161C31.9628 33.4902 32.8024 33.4655 33.0246 33.342C33.6914 32.9963 34.8273 31.885 34.8273 31.5887C34.8273 30.9713 35.3706 29.4649 35.5682 29.4649C35.7164 29.4649 36.6548 29.0698 37.6919 28.6006C38.7044 28.1314 39.6675 27.7363 39.791 27.7363C39.9145 27.7363 40.0132 27.6375 40.0132 27.4894C40.0132 27.3659 40.112 27.2424 40.2602 27.2424C40.4824 27.2424 42.4333 26.3287 49.0268 23.1678C49.962 22.7232 51.0877 22.1929 52.0314 21.7483C52.6076 21.4768 53.1161 21.2373 53.4718 21.0687L53.7735 20.9273C54.9408 20.3805 55.4469 20.1435 55.5311 19.8023C55.5956 19.5411 55.4131 19.219 55.0908 18.6502L55.0906 18.65L55.0875 18.6445L55.0314 18.5454L54.9782 18.4511C54.5584 17.7103 53.9163 16.5743 53.5706 15.9323C52.7063 14.3765 52.3359 14.2036 51.4716 14.821L50.7801 15.3149L49.175 13.685C46.5079 11.018 44.8781 9.83267 41.7666 8.35099C38.902 6.96809 37.8154 6.67175 33.7161 6.12847C31.3454 5.80744 30.6786 5.80744 28.2833 6.12847C25.1717 6.54828 23.0727 7.04217 21.4922 7.75832C19.7636 8.57324 17.4423 9.78328 17.2941 9.95614C17.22 10.0302 16.6274 10.4747 15.9853 10.9192C14.7506 11.7589 12.0589 14.3518 11.318 15.389C11.2286 15.5141 11.1068 15.6879 10.9691 15.8843L10.969 15.8844C10.7263 16.2307 10.4341 16.6476 10.1821 16.9941C9.41652 18.1054 7.41625 22.0318 7.29278 22.7233C7.27954 22.7895 7.26631 22.8539 7.25403 22.9136C7.22047 23.0769 7.194 23.2057 7.194 23.2419C7.1693 23.2666 7.194 23.316 7.21869 23.3654C7.24339 23.39 7.11991 23.6617 6.97175 23.958C6.57663 24.6989 5.93457 29.1192 5.93457 31.1195C5.93457 34.8237 7.194 39.7626 8.92263 42.9482C11.318 47.3439 15.2692 51.1469 19.7636 53.4188C21.3194 54.209 23.5666 55.0733 24.5791 55.2956C24.7023 55.3202 24.924 55.3649 25.2011 55.4207Z" fill="#18BC9C"/>
</g>
<defs>
<clipPath id="clip0">
<rect width="50.3186" height="50.3186" fill="white" transform="matrix(-1 0 0 1 56.417 6.09961)"/>
</clipPath>
</defs>
</svg>
