<svg width="95" height="137" viewBox="0 0 95 137" fill="none" xmlns="http://www.w3.org/2000/svg">
<path d="M95 0H0V136.395H95V0Z" fill="#9FA5AC"/>
<path d="M55.4166 79.3564H42.2222V91.756H55.4166V79.3564Z" fill="white"/>
<path d="M29.0284 79.3564H15.834V91.756H29.0284V79.3564Z" fill="white"/>
<path d="M55.4166 101.677H42.2222V114.076H55.4166V101.677Z" fill="white"/>
<path d="M29.0284 101.677H15.834V114.076H29.0284V101.677Z" fill="white"/>
<path d="M55.4166 54.5576H42.2222V66.9571H55.4166V54.5576Z" fill="white"/>
<path d="M29.0284 54.5576H15.834V66.9571H29.0284V54.5576Z" fill="white"/>
<path d="M55.4166 32.2373H42.2222V44.6368H55.4166V32.2373Z" fill="white"/>
<path d="M29.0284 32.2373H15.834V44.6368H29.0284V32.2373Z" fill="white"/>
<path d="M55.4166 9.91895H42.2222V22.3185H55.4166V9.91895Z" fill="white"/>
<path d="M29.0284 9.91895H15.834V22.3185H29.0284V9.91895Z" fill="white"/>
<path d="M81.8053 32.2373H68.6108V44.6368H81.8053V32.2373Z" fill="white"/>
<path d="M81.8053 9.91895H68.6108V22.3185H81.8053V9.91895Z" fill="white"/>
<path d="M81.8053 54.5576H68.6108V66.9571H81.8053V54.5576Z" fill="white"/>
<path d="M81.8053 79.3564H68.6108V91.756H81.8053V79.3564Z" fill="white"/>
<path d="M81.8053 101.677H68.6108V114.076H81.8053V101.677Z" fill="white"/>
</svg>
