<svg width="51" height="45" viewBox="0 0 51 45" fill="none" xmlns="http://www.w3.org/2000/svg">
<path d="M20.188 16.4956H30.8139L25.5008 13.0703L20.188 16.4956Z" fill="#18BC9C"/>
<path d="M6.33398 33.1318H19.1922V36.9676H6.33398V33.1318Z" fill="#18BC9C"/>
<path d="M49.1211 15.7705L42.1598 11.3543V3.41735C42.1598 2.31285 41.2643 1.41736 40.1598 1.41736H37.5001C36.3955 1.41736 35.5001 2.31285 35.5001 3.41735V7.49996L32.1444 4.99996L25.5009 0.785156L1.8794 15.7713C0.0950009 16.8079 -0.526397 19.0849 0.484503 20.8841C1.1775 22.1183 2.46 22.8105 3.779 22.8105C4.4222 22.8105 5.074 22.6463 5.6708 22.2996L25.5009 9.51496L45.3294 22.2984C45.9262 22.6451 46.5784 22.8097 47.2211 22.8097C48.5401 22.8097 49.8211 22.1183 50.5151 20.8848C51.5261 19.0857 50.9051 16.8071 49.1211 15.7705Z" fill="#18BC9C"/>
<path d="M41.3986 23.3201L35.3928 19.4482V19.4843H15.5527L9.60303 23.3201H41.3986Z" fill="#18BC9C"/>
<path d="M6.33398 26.3076H19.1922V30.1437H6.33398V26.3076Z" fill="#18BC9C"/>
<path d="M22.1797 26.3076H28.8197V44.1495H22.1797V26.3076Z" fill="#18BC9C"/>
<path d="M6.33398 39.957H19.1922V44.15H6.33398V39.957Z" fill="#18BC9C"/>
<path d="M31.8086 39.957H44.6664V44.15H31.8086V39.957Z" fill="#18BC9C"/>
<path d="M31.8086 33.1318H44.6664V36.9676H31.8086V33.1318Z" fill="#18BC9C"/>
<path d="M31.8086 26.3076H44.6664V30.1437H31.8086V26.3076Z" fill="#18BC9C"/>
</svg>
