<svg width="95" height="95" viewBox="0 0 95 95" fill="none" xmlns="http://www.w3.org/2000/svg">
<circle cx="47.5" cy="47.5" r="47.5" fill="#F4F5F6"/>
<rect x="30" y="20" width="36" height="55" fill="#18BC9C"/>
<rect x="46" y="52" width="5" height="5" fill="#F4F5F6"/>
<rect x="36" y="52" width="5" height="5" fill="#F4F5F6"/>
<rect x="46" y="61" width="5" height="5" fill="#F4F5F6"/>
<rect x="36" y="61" width="5" height="5" fill="#F4F5F6"/>
<rect x="46" y="42" width="5" height="5" fill="#F4F5F6"/>
<rect x="36" y="42" width="5" height="5" fill="#F4F5F6"/>
<rect x="46" y="33" width="5" height="5" fill="#F4F5F6"/>
<rect x="36" y="33" width="5" height="5" fill="#F4F5F6"/>
<rect x="46" y="24" width="5" height="5" fill="#F4F5F6"/>
<rect x="36" y="24" width="5" height="5" fill="#F4F5F6"/>
<rect x="56" y="33" width="5" height="5" fill="#F4F5F6"/>
<rect x="56" y="24" width="5" height="5" fill="#F4F5F6"/>
<rect x="56" y="42" width="5" height="5" fill="#F4F5F6"/>
<rect x="56" y="52" width="5" height="5" fill="#F4F5F6"/>
<rect x="56" y="61" width="5" height="5" fill="#F4F5F6"/>
</svg>
