<svg width="95" height="95" viewBox="0 0 95 95" fill="none" xmlns="http://www.w3.org/2000/svg">
<path d="M95 0H0V95H95V0Z" fill="#18BC9C"/>
<path d="M55.4166 55.2725H42.2222V63.9088H55.4166V55.2725Z" fill="white"/>
<path d="M29.0279 55.2725H15.8335V63.9088H29.0279V55.2725Z" fill="white"/>
<path d="M55.4166 70.8184H42.2222V79.4547H55.4166V70.8184Z" fill="white"/>
<path d="M29.0279 70.8184H15.8335V79.4547H29.0279V70.8184Z" fill="white"/>
<path d="M55.4166 38H42.2222V46.6364H55.4166V38Z" fill="white"/>
<path d="M29.0279 38H15.8335V46.6364H29.0279V38Z" fill="white"/>
<path d="M55.4166 22.4541H42.2222V31.0905H55.4166V22.4541Z" fill="white"/>
<path d="M29.0279 22.4541H15.8335V31.0905H29.0279V22.4541Z" fill="white"/>
<path d="M55.4166 6.90918H42.2222V15.5455H55.4166V6.90918Z" fill="white"/>
<path d="M29.0279 6.90918H15.8335V15.5455H29.0279V6.90918Z" fill="white"/>
<path d="M81.8058 22.4541H68.6113V31.0905H81.8058V22.4541Z" fill="white"/>
<path d="M81.8058 6.90918H68.6113V15.5455H81.8058V6.90918Z" fill="white"/>
<path d="M81.8058 38H68.6113V46.6364H81.8058V38Z" fill="white"/>
<path d="M81.8058 55.2725H68.6113V63.9088H81.8058V55.2725Z" fill="white"/>
<path d="M81.8058 70.8184H68.6113V79.4547H81.8058V70.8184Z" fill="white"/>
</svg>
