<svg width="36" height="55" viewBox="0 0 36 55" fill="none" xmlns="http://www.w3.org/2000/svg">
<path d="M36 0H0V55H36V0Z" fill="#9FA5AC"/>
<path d="M21 32H16V37H21V32Z" fill="white"/>
<path d="M11 32H6V37H11V32Z" fill="white"/>
<path d="M21 41H16V46H21V41Z" fill="white"/>
<path d="M11 41H6V46H11V41Z" fill="white"/>
<path d="M21 22H16V27H21V22Z" fill="white"/>
<path d="M11 22H6V27H11V22Z" fill="white"/>
<path d="M21 13H16V18H21V13Z" fill="white"/>
<path d="M11 13H6V18H11V13Z" fill="white"/>
<path d="M21 4H16V9H21V4Z" fill="white"/>
<path d="M11 4H6V9H11V4Z" fill="white"/>
<path d="M31 13H26V18H31V13Z" fill="white"/>
<path d="M31 4H26V9H31V4Z" fill="white"/>
<path d="M31 22H26V27H31V22Z" fill="white"/>
<path d="M31 32H26V37H31V32Z" fill="white"/>
<path d="M31 41H26V46H31V41Z" fill="white"/>
</svg>
