<svg width="95" height="95" viewBox="0 0 95 95" fill="none" xmlns="http://www.w3.org/2000/svg">
<path d="M36.5384 67.8246V91.6068C36.5384 92.5058 36.1536 93.3691 35.4684 94.0053C34.7831 94.6415 33.8538 95 32.8846 95H3.65387C2.68487 95 1.75548 94.6415 1.07027 94.0053C0.385056 93.3691 5.18312e-06 92.5058 5.18312e-06 91.6068V44.11C-0.000803327 43.6643 0.0929849 43.2227 0.276113 42.8105C0.459038 42.3984 0.72787 42.0238 1.06684 41.7081L44.9132 0.996752C45.2525 0.680705 45.6558 0.430156 46.0997 0.258995C46.5435 0.0880212 47.0193 0 47.5 0C47.9807 0 48.4565 0.0880212 48.9003 0.258995C49.3444 0.430156 49.7475 0.680705 50.0868 0.996752L93.9328 41.7081C94.2723 42.0238 94.5412 42.3984 94.7231 42.8105C94.907 43.2227 95 43.6643 95 44.11V91.6068C95 92.5058 94.6139 93.3691 93.9287 94.0053C93.2455 94.6415 92.3157 95 91.3455 95H62.1154C61.1464 95 60.2169 94.6415 59.5316 94.0053C58.8464 93.3691 58.4616 92.5058 58.4616 91.6068V67.8584C58.4616 66.1624 56.6346 64.4658 54.8077 64.4658H40.1923C38.3654 64.4658 36.5384 66.1624 36.5384 67.8246Z" fill="#9FA5AC"/>
<path fill-rule="evenodd" clip-rule="evenodd" d="M88 17.6249V36L74 25.4999V17.6249C74 16.9287 74.369 16.261 75.0254 15.7688C75.6814 15.2765 76.5716 15 77.5 15H84.5C85.4284 15 86.3188 15.2765 86.9746 15.7688C87.631 16.261 88 16.9287 88 17.6249Z" fill="#9FA5AC"/>
</svg>
