<svg width="47" height="51" viewBox="0 0 47 51" fill="none" xmlns="http://www.w3.org/2000/svg">
<path d="M18.0769 36.1391V48.811C18.0769 49.29 17.8865 49.75 17.5475 50.089C17.2085 50.428 16.7487 50.619 16.2692 50.619H1.8077C1.3283 50.619 0.868502 50.428 0.529502 50.089C0.190502 49.75 2.56428e-06 49.29 2.56428e-06 48.811V23.5032C-0.000397436 23.2657 0.0460031 23.0304 0.136603 22.8108C0.227103 22.5912 0.360104 22.3916 0.527804 22.2234L22.2202 0.531101C22.3881 0.362701 22.5876 0.2292 22.8072 0.138C23.0268 0.0469005 23.2622 0 23.5 0C23.7378 0 23.9732 0.0469005 24.1928 0.138C24.4125 0.2292 24.6119 0.362701 24.7798 0.531101L46.472 22.2234C46.64 22.3916 46.773 22.5912 46.863 22.8108C46.954 23.0304 47 23.2657 47 23.5032V48.811C47 49.29 46.809 49.75 46.47 50.089C46.132 50.428 45.672 50.619 45.192 50.619H30.7308C30.2514 50.619 29.7915 50.428 29.4525 50.089C29.1135 49.75 28.9231 49.29 28.9231 48.811V36.1571C28.9231 35.2534 28.0192 34.3494 27.1154 34.3494H19.8846C18.9808 34.3494 18.0769 35.2534 18.0769 36.1391Z" fill="#18BC9C"/>
</svg>
