<svg width="95" height="95" viewBox="0 0 95 95" fill="none" xmlns="http://www.w3.org/2000/svg">
<circle cx="47.5" cy="47.5" r="47.5" fill="#9FA5AC"/>
<path d="M42.0769 56.1391V68.8109C42.0769 69.2904 41.8865 69.7503 41.5475 70.0893C41.2085 70.428 40.7487 70.6186 40.2692 70.6186H25.8077C25.3283 70.6186 24.8685 70.428 24.5295 70.0893C24.1905 69.7503 24 69.2904 24 68.8109V43.5032C23.9996 43.2657 24.046 43.0304 24.1366 42.8108C24.2271 42.5912 24.3601 42.3916 24.5278 42.2234L46.2202 20.5311C46.3881 20.3627 46.5876 20.2292 46.8072 20.138C47.0268 20.0469 47.2622 20 47.5 20C47.7378 20 47.9732 20.0469 48.1928 20.138C48.4125 20.2292 48.6119 20.3627 48.7798 20.5311L70.4723 42.2234C70.6401 42.3916 70.7728 42.5912 70.8634 42.8108C70.954 43.0304 71.0003 43.2657 71 43.5032V68.8109C71 69.2904 70.8094 69.7503 70.4704 70.0893C70.1317 70.428 69.6718 70.6186 69.1923 70.6186H54.7308C54.2514 70.6186 53.7915 70.428 53.4525 70.0893C53.1135 69.7503 52.9231 69.2904 52.9231 68.8109V56.1571C52.9231 55.2534 52.0192 54.3494 51.1154 54.3494H43.8846C42.9808 54.3494 42.0769 55.2534 42.0769 56.1391Z" fill="#F4F5F6"/>
<path fill-rule="evenodd" clip-rule="evenodd" d="M65.5769 25.4263V38.0802L58.3462 30.8494V25.4263C58.3462 24.9469 58.5367 24.4871 58.8758 24.1481C59.2145 23.8091 59.6744 23.6187 60.1538 23.6187H63.7692C64.2487 23.6187 64.7086 23.8091 65.0473 24.1481C65.3864 24.4871 65.5769 24.9469 65.5769 25.4263Z" fill="#F4F5F6"/>
</svg>
