<svg width="95" height="95" viewBox="0 0 95 95" fill="none" xmlns="http://www.w3.org/2000/svg">
<circle cx="47.5" cy="47.5" r="47.5" fill="white"/>
<g clip-path="url(#clip0)">
<path d="M42.188 41.4956H52.8139L47.5008 38.0703L42.188 41.4956Z" fill="#9FA5AC"/>
<path d="M28.3338 58.1323H41.1919V61.9681H28.3338V58.1323Z" fill="#9FA5AC"/>
<path d="M71.1207 40.7705L64.1597 36.3543V28.4174C64.1597 27.3129 63.2642 26.4174 62.1597 26.4174H59.5C58.3954 26.4174 57.5 27.3129 57.5 28.4174V32.5L54.1443 30L47.5008 25.7852L23.8793 40.7713C22.0949 41.8079 21.4735 44.0849 22.4844 45.8841C23.1774 47.1183 24.4599 47.8105 25.7789 47.8105C26.4221 47.8105 27.0739 47.6463 27.6707 47.2996L47.5008 34.515L67.3293 47.2984C67.9261 47.6451 68.5783 47.8097 69.2211 47.8097C70.5397 47.8097 71.8214 47.1183 72.5148 45.8848C73.5265 44.0857 72.9054 41.8071 71.1207 40.7705Z" fill="#9FA5AC"/>
<path d="M63.3986 48.3197L57.3928 44.4478V44.4839H37.5527L31.603 48.3197H63.3986Z" fill="#9FA5AC"/>
<path d="M28.3338 51.3081H41.1919V55.1442H28.3338V51.3081Z" fill="#9FA5AC"/>
<path d="M44.1798 51.3081H50.8198V69.1498H44.1798V51.3081Z" fill="#9FA5AC"/>
<path d="M28.3338 64.9565H41.1919V69.1499H28.3338V64.9565Z" fill="#9FA5AC"/>
<path d="M53.8085 64.9565H66.6662V69.1499H53.8085V64.9565Z" fill="#9FA5AC"/>
<path d="M53.8085 58.1323H66.6662V61.9681H53.8085V58.1323Z" fill="#9FA5AC"/>
<path d="M53.8085 51.3081H66.6662V55.1442H53.8085V51.3081Z" fill="#9FA5AC"/>
</g>
<defs>
<clipPath id="clip0">
<rect width="51" height="51" fill="white" transform="translate(22 22)"/>
</clipPath>
</defs>
</svg>
