<?xml version="1.0" encoding="UTF-8"?>
<svg width="39px" height="36px" viewBox="0 0 39 36" version="1.1" xmlns="http://www.w3.org/2000/svg" xmlns:xlink="http://www.w3.org/1999/xlink">
    <!-- Generator: Sketch 47.1 (45422) - http://www.bohemiancoding.com/sketch -->
    <title>save</title>
    <desc>Created with Sketch.</desc>
    <defs></defs>
    <g id="mobile" stroke="none" stroke-width="1" fill="none" fill-rule="evenodd">
        <g id="frontpage" transform="translate(-160.000000, -1323.000000)" fill-rule="nonzero" fill="#18BC9C">
            <g id="Group-6" transform="translate(0.000000, 956.000000)">
                <g id="Group-27" transform="translate(48.000000, 367.000000)">
                    <g id="save" transform="translate(112.000000, 0.000000)">
                        <g id="1553161">
                            <path d="M37.6793511,25.1947518 C37.428753,25.1947518 37.1957237,25.0361842 37.1122159,24.7855861 L31.6984898,8.54500598 L26.2847638,24.7855861 C26.1802482,25.0986842 25.8443481,25.2686154 25.5284091,25.1638008 C25.215311,25.0592853 25.0459779,24.7204695 25.1504934,24.4071471 L31.1313547,6.4645634 C31.2125449,6.22039474 31.440939,6.05569677 31.6984898,6.05569677 C31.9560407,6.05569677 32.1844348,6.22039474 32.265625,6.4645634 L38.2464862,24.4071471 C38.3510018,24.7204695 38.1816687,25.0592853 37.8685706,25.1638008 C37.8054725,25.1848086 37.7418511,25.1947518 37.6793511,25.1947518 Z" id="Shape"></path>
                            <path d="M26.3621411,24.5963666 C25.9999252,24.5963666 25.7145634,24.9173146 25.7648026,25.2760167 C26.1360646,27.9279306 28.6510915,29.9791417 31.6984151,29.9791417 C34.7457386,29.9791417 37.2607656,27.9280054 37.6320275,25.2760167 C37.6822667,24.9173146 37.3969049,24.5963666 37.034689,24.5963666 L26.3621411,24.5963666 Z" id="Shape"></path>
                            <path d="M28.7967255,25.2760167 C28.7464862,24.9173146 29.0318481,24.5963666 29.394064,24.5963666 L26.3621411,24.5963666 C25.9999252,24.5963666 25.7145634,24.9173146 25.7648026,25.2760167 C26.1360646,27.9280054 28.6510915,29.9791417 31.6984151,29.9791417 C32.2227871,29.9791417 32.7384868,29.9167165 33.2230861,29.8026316 C30.8913726,29.253738 29.104067,27.4716657 28.7967255,25.2760167 Z" id="Shape"></path>
                            <path d="M12.5597339,20.4100628 C12.3091358,20.4100628 12.0761065,20.2514952 11.9925987,20.0008971 L6.57887261,3.76031699 L1.16514653,20.0008971 C1.06063098,20.3139952 0.724730861,20.4839264 0.408791866,20.3791118 C0.0956937799,20.2745963 -0.0736393541,19.9357805 0.0308761962,19.6224581 L6.01173744,1.6798744 C6.09292763,1.43570574 6.32132177,1.27100778 6.57887261,1.27100778 C6.83642344,1.27100778 7.06481758,1.43570574 7.14600778,1.6798744 L13.126869,19.6224581 C13.2313846,19.9357805 13.0620514,20.2745963 12.7489533,20.3791118 C12.68593,20.4001196 12.6222339,20.4100628 12.5597339,20.4100628 Z" id="Shape"></path>
                            <path d="M19.1386812,0.672921651 L19.1386812,0.672921651 C18.8083882,0.672921651 18.5405951,0.940714713 18.5405951,1.27100778 L18.5405951,21.605936 L19.7367673,21.605936 L19.7367673,1.27100778 C19.7367673,0.940714713 19.469049,0.672921651 19.1386812,0.672921651 Z" id="Shape"></path>
                            <path d="M19.1386812,20.4097638 C18.4780951,20.4097638 17.942509,20.9452751 17.942509,21.605936 L17.942509,33.5676585 L20.3348535,33.5676585 L20.3348535,21.605936 C20.3348535,20.9452751 19.7993421,20.4097638 19.1386812,20.4097638 Z" id="Shape"></path>
                            <path d="M19.1386812,20.4097638 L19.1386812,20.4097638 L19.1386812,33.5676585 L17.942509,33.5676585 L17.942509,21.605936 C17.942509,20.9453499 18.4780951,20.4097638 19.1386812,20.4097638 Z" id="Shape"></path>
                            <path d="M1.24259868,19.8116776 C0.880382775,19.8116776 0.595020933,20.1326256 0.645260167,20.4913278 C1.01652213,23.1432416 3.53154904,25.1944528 6.57887261,25.1944528 C9.62619617,25.1944528 12.1412231,23.1432416 12.512485,20.4913278 C12.5627243,20.1326256 12.2773624,19.8116776 11.9151465,19.8116776 L1.24259868,19.8116776 Z" id="Shape"></path>
                            <path d="M34.0914324,7.25186902 C34.0523325,7.25186902 34.0131579,7.24805622 33.9734599,7.24020634 L4.06915371,1.2593451 C3.74558911,1.19452751 3.53528708,0.879410885 3.60017943,0.555547249 C3.66499701,0.231384569 3.97981459,0.0208582536 4.30397727,0.0865729665 L34.2082835,6.06743421 C34.5318481,6.13225179 34.7421501,6.44736842 34.6772578,6.77123206 C34.6205891,7.05532297 34.3706639,7.25186902 34.0914324,7.25186902 Z" id="Shape"></path>
                            <path d="M24.3745514,33.4994019 C24.1020484,32.8181818 23.4422847,32.371561 22.7085825,32.371561 L15.5687799,32.371561 C14.8350778,32.371561 14.175314,32.8182566 13.902811,33.4994019 L13.15782,35.3619916 L25.1195425,35.3619916 L24.3745514,33.4994019 Z" id="Shape"></path>
                            <path d="M26.3157147,35.960003 L11.9616477,35.960003 C11.6310556,35.960003 11.3635616,35.6922099 11.3635616,35.3619169 C11.3635616,35.0316238 11.6310556,34.7638307 11.9616477,34.7638307 L26.3157147,34.7638307 C26.6463068,34.7638307 26.9138008,35.0316238 26.9138008,35.3619169 C26.9138008,35.6922099 26.6463068,35.960003 26.3157147,35.960003 Z" id="Shape"></path>
                            <path d="M17.9611244,32.3714862 L15.5687799,32.3714862 C14.8350778,32.3714862 14.175314,32.8181818 13.902811,33.4993272 L13.15782,35.3619169 L15.5501645,35.3619169 L16.2951555,33.4993272 C16.5676585,32.8181818 17.2274222,32.3714862 17.9611244,32.3714862 Z" id="Shape"></path>
                            <path d="M16.7463367,35.3619169 C16.7463367,35.0316238 17.0141298,34.7638307 17.3444228,34.7638307 L11.9616477,34.7638307 C11.6313547,34.7638307 11.3635616,35.0316238 11.3635616,35.3619169 C11.3635616,35.6922099 11.6313547,35.960003 11.9616477,35.960003 L17.3444228,35.960003 C17.0141298,35.960003 16.7463367,35.6922099 16.7463367,35.3619169 Z" id="Shape"></path>
                            <path d="M18.5405951,3.66335227 L18.5405951,5.97114234 C18.732805,6.02093301 18.9309211,6.05569677 19.1386812,6.05569677 C19.3464414,6.05569677 19.5445574,6.02093301 19.7367673,5.97114234 L19.7367673,3.66335227 L18.5405951,3.66335227 Z" id="Shape"></path>
                            <circle id="Oval" cx="19.1386812" cy="3.66335227" r="1.19617225"></circle>
                            <path d="M3.67718301,20.4913278 C3.62694378,20.1326256 3.91230562,19.8116776 4.27452153,19.8116776 L1.24259868,19.8116776 C0.880382775,19.8116776 0.595020933,20.1326256 0.645260167,20.4913278 C1.01652213,23.1433164 3.53154904,25.1944528 6.57887261,25.1944528 C7.10324462,25.1944528 7.61931818,25.1315789 8.10399222,25.017494 C5.77220395,24.4686005 3.98452452,22.6869767 3.67718301,20.4913278 Z" id="Shape"></path>
                        </g>
                    </g>
                </g>
            </g>
        </g>
    </g>
</svg>