<svg width="66" height="66" viewBox="0 0 66 66" fill="none" xmlns="http://www.w3.org/2000/svg">
<path d="M20 41C25 51 42.1786 51.2176 47 41" stroke="black" stroke-width="2" stroke-linecap="round" stroke-linejoin="round"/>
<circle cx="33" cy="33" r="33" fill="#18BC9C"/>
<path d="M23 29.0721C23 30.729 21.6569 32.0721 20 32.0721C18.3431 32.0721 17 30.729 17 29.0721C17 27.4153 18.3431 26.0721 20 26.0721C21.6569 26.0721 23 27.4153 23 29.0721Z" fill="black"/>
<path d="M49.3442 29.0719C49.3442 30.7287 48.0011 32.0719 46.3442 32.0719C44.6874 32.0719 43.3442 30.7287 43.3442 29.0719C43.3442 27.415 44.6874 26.0719 46.3442 26.0719C48.0011 26.0719 49.3442 27.415 49.3442 29.0719Z" fill="black"/>
<path d="M20 41C25 51 42.1786 51.2176 47 41" stroke="black" stroke-width="2" stroke-linecap="round" stroke-linejoin="round"/>
</svg>
