<svg width="17" height="17" viewBox="0 0 17 17" fill="none" xmlns="http://www.w3.org/2000/svg">
<path fill-rule="evenodd" clip-rule="evenodd" d="M2.55506 8.23989C3.43549 8.23989 4.02138 7.68709 4.02138 6.85638L4.01713 6.41995C4.01713 6.41995 3.79915 5.18292 5.54831 5.18292L12.6311 5.22907V6.99383C12.7964 7.14883 13.02 7.23582 13.2531 7.23582C13.4862 7.23582 13.7098 7.14883 13.8752 6.99383L16.6111 4.41341C16.7754 4.2574 16.8676 4.04642 16.8676 3.8265C16.8676 3.60658 16.7754 3.39559 16.6111 3.23958L13.8752 0.50567C13.7098 0.350667 13.4862 0.263672 13.2531 0.263672C13.02 0.263672 12.7964 0.350667 12.6311 0.50567V2.35671C12.4599 2.30955 5.76948 2.28246 5.76948 2.28246C1.8235 2.28246 0.960083 4.71941 0.960083 5.70061V6.73498C0.960083 7.13411 1.12813 7.51689 1.42724 7.79911C1.72636 8.08134 2.13205 8.23989 2.55506 8.23989V8.23989Z" fill="#54606E"/>
<path fill-rule="evenodd" clip-rule="evenodd" d="M15.2734 8.28125C14.393 8.28125 13.6784 8.86716 13.6784 9.69787L13.6806 10.658C13.6327 11.0162 12.9947 11.2499 12.059 11.2499H5.10596L5.10383 9.68583C4.93849 9.53083 4.71487 9.44383 4.48179 9.44383C4.24871 9.44383 4.02509 9.53083 3.85975 9.68583L1.12489 12.2662C0.960611 12.4223 0.868408 12.6332 0.868408 12.8532C0.868408 13.0731 0.960611 13.2841 1.12489 13.4401L3.85975 16.0205C3.94134 16.0977 4.03829 16.159 4.14503 16.2008C4.25178 16.2426 4.36622 16.2641 4.48179 16.2641C4.59737 16.2641 4.71181 16.2426 4.81855 16.2008C4.92529 16.159 5.02224 16.0977 5.10383 16.0205L5.10596 14.1634H12.059C16.005 14.1634 16.8684 11.7134 16.8684 10.7312V9.69687C16.8684 8.86716 16.1539 8.28125 15.2734 8.28125Z" fill="#54606E"/>
</svg>
