<svg width="4" height="16" viewBox="0 0 4 16" fill="none" xmlns="http://www.w3.org/2000/svg">
<path d="M0.41377 8.6365C0.47427 9.2625 0.57527 9.7285 0.71652 10.0345C0.85752 10.3403 1.11027 10.4937 1.47402 10.4937C1.54227 10.4937 1.60352 10.4825 1.66427 10.471C1.72552 10.4825 1.78602 10.4937 1.85402 10.4937C2.21727 10.4937 2.46952 10.3403 2.61152 10.0345C2.75227 9.7285 2.85352 9.2625 2.91377 8.6365L3.23677 3.804C3.29727 2.862 3.32752 2.18575 3.32752 1.77575C3.32752 1.21725 3.18127 0.7815 2.88927 0.46925C2.59602 0.15675 2.21077 0 1.73327 0C1.70827 0 1.68902 0.00574999 1.66477 0.00674999C1.64052 0.00574999 1.62102 0 1.59627 0C1.11827 0 0.73352 0.1565 0.44052 0.46925C0.14802 0.78175 0.00177002 1.2175 0.00177002 1.776C0.00177002 2.18625 0.0322698 2.86225 0.0925198 3.80425L0.41527 8.6365" fill="white"/>
<path d="M1.674 12.2585C1.21175 12.2585 0.817 12.4053 0.49 12.697C0.1635 12.9905 0 13.345 0 13.7615C0 14.2335 0.16525 14.6028 0.49525 14.8713C0.82625 15.1403 1.21175 15.2758 1.6515 15.2758C2.1 15.2758 2.49075 15.1423 2.825 14.877C3.15925 14.6113 3.325 14.2395 3.325 13.7613C3.325 13.3448 3.165 12.9903 2.84575 12.6968C2.52675 12.4053 2.136 12.2585 1.673 12.2585" fill="white"/>
</svg>
