<svg width="128" height="123" viewBox="0 0 128 123" fill="none" xmlns="http://www.w3.org/2000/svg">
<ellipse cx="63.695" cy="61.21" rx="63.695" ry="61.21" fill="#F4F5F6"/>
<path d="M75.1803 32.3481C72.252 27.851 68.6574 23.753 64.5 20.1708C60.3426 23.753 56.748 27.851 53.8197 32.3481H75.1803Z" fill="#18BC9C"/>
<path d="M52.1675 35.0814C50.1816 38.5614 48.6033 42.227 47.4583 46.0147H81.5416C80.3965 42.227 78.8183 38.5614 76.8323 35.0814H52.1675Z" fill="#18BC9C"/>
<path d="M84.6257 46.0147H105.897C104.203 42.0588 101.851 38.3706 98.9252 35.0814H80.1655C82.0458 38.5788 83.54 42.2417 84.6257 46.0147Z" fill="#18BC9C"/>
<path d="M80.1655 87.0147H98.9296C101.855 83.7255 104.207 80.0365 105.902 76.0813H84.6257C83.54 79.8537 82.0458 83.5166 80.1655 87.0147Z" fill="#18BC9C"/>
<path d="M48.8345 35.0814H30.0675C27.1414 38.3699 24.7897 42.0588 23.0956 46.0147H44.3743C45.46 42.2417 46.9542 38.5788 48.8345 35.0814Z" fill="#18BC9C"/>
<path d="M96.2613 32.348C88.9286 25.4393 79.1754 21.1491 68.7349 20.2375C72.5707 23.8678 75.8835 27.9384 78.5916 32.348H96.2613Z" fill="#18BC9C"/>
<path d="M32.7344 89.748C40.0685 96.6568 49.8224 100.948 60.2651 101.858C56.4293 98.2277 53.1164 94.1577 50.4083 89.748H32.7344Z" fill="#18BC9C"/>
<path d="M68.7349 101.858C79.1754 100.947 88.9286 96.6561 96.2613 89.748H78.5916C75.8835 94.1577 72.5707 98.2277 68.7349 101.858V101.858Z" fill="#18BC9C"/>
<path d="M44.3744 76.0813H23.1014C24.7955 80.0365 27.148 83.7255 30.0734 87.0147H48.8345C46.9543 83.5166 45.4601 79.8537 44.3744 76.0813Z" fill="#18BC9C"/>
<path d="M60.2651 20.2375C49.8224 21.1478 40.0685 25.4386 32.7344 32.348H50.4083C53.1164 27.9384 56.4293 23.8678 60.2651 20.2375Z" fill="#18BC9C"/>
<path d="M76.8323 87.0147C78.8183 83.5339 80.3965 79.869 81.5416 76.0813H47.4583C48.6033 79.869 50.1816 83.5339 52.1675 87.0147H76.8323Z" fill="#18BC9C"/>
<path d="M53.8197 89.748C56.748 94.2444 60.3426 98.3431 64.5 101.925C68.6574 98.3431 72.252 94.2444 75.1803 89.748H53.8197Z" fill="#18BC9C"/>
<path d="M106.959 48.748H22.041C19.3198 56.7559 19.3198 65.3396 22.041 73.348H106.959C109.68 65.3396 109.68 56.7559 106.959 48.748ZM43.6811 68.2404C43.5073 68.829 42.9315 69.24 42.2695 69.248H42.2499C41.5945 69.248 41.0172 68.8517 40.8289 68.2731L37.7999 58.9707L34.771 68.2731C34.5827 68.8517 34.0054 69.248 33.3499 69.248H33.3304C32.6691 69.24 32.0926 68.829 31.9188 68.2404L27.4688 53.2071L30.3311 52.4884L33.418 62.9159L36.3847 53.8223C36.573 53.2438 37.1503 52.8474 37.8057 52.8474C38.4612 52.8474 39.0392 53.2438 39.2268 53.8223L42.1934 62.9159L45.2803 52.4884L48.1434 53.2071L43.6811 68.2404ZM70.3811 68.2404C70.2073 68.829 69.6315 69.24 68.9695 69.248H68.9499C68.2945 69.248 67.7172 68.8517 67.5289 68.2731L64.4999 58.9707L61.471 68.2731C61.2827 68.8517 60.7054 69.248 60.0499 69.248H60.0304C59.3691 69.24 58.7926 68.829 58.6188 68.2404L54.1688 53.2071L57.0311 52.4884L60.118 62.9159L63.0847 53.8223C63.273 53.2438 63.8503 52.8474 64.5057 52.8474C65.1612 52.8474 65.7392 53.2438 65.9268 53.8223L68.8934 62.9159L71.9803 52.4884L74.8434 53.2071L70.3811 68.2404ZM97.0811 68.2404C96.9073 68.829 96.3315 69.24 95.6695 69.248H95.6499C94.9945 69.248 94.4172 68.8517 94.2289 68.2731L91.1999 58.9707L88.171 68.2731C87.9827 68.8517 87.4054 69.248 86.7499 69.248H86.7304C86.0691 69.24 85.4926 68.829 85.3188 68.2404L80.8688 53.2071L83.7311 52.4884L86.818 62.9159L89.7847 53.8223C89.973 53.2438 90.5503 52.8474 91.2057 52.8474C91.8612 52.8474 92.4392 53.2438 92.6268 53.8223L95.5934 62.9159L98.6803 52.4884L101.543 53.2071L97.0811 68.2404Z" fill="#18BC9C"/>
</svg>
