<svg width="88" height="103" viewBox="0 0 88 103" fill="none" xmlns="http://www.w3.org/2000/svg">
<path d="M0 6.5C0 2.91015 2.91015 0 6.5 0V0C10.0899 0 13 2.91015 13 6.5V103H0V6.5Z" fill="white"/>
<path d="M25 29.5C25 25.9102 27.9101 23 31.5 23V23C35.0899 23 38 25.9101 38 29.5V103H25V29.5Z" fill="white"/>
<path d="M50 58.5C50 54.9102 52.9101 52 56.5 52V52C60.0899 52 63 54.9101 63 58.5V103H50V58.5Z" fill="white"/>
<path d="M75 90.5C75 86.9101 77.9101 84 81.5 84V84C85.0899 84 88 86.9101 88 90.5V103H75V90.5Z" fill="white"/>
</svg>
