<svg width="40" height="40" viewBox="0 0 40 40" fill="none" xmlns="http://www.w3.org/2000/svg">
<circle cx="19.9221" cy="19.9221" r="19.9221" fill="#004465"/>
<path d="M27.6185 15.707C27.6436 15.6847 27.6683 15.6617 27.6922 15.6375L28.688 14.6268C29.2772 14.0288 29.2772 13.0592 28.688 12.4612L26.8387 10.5843C26.2494 9.98624 25.2941 9.98624 24.7049 10.5843L23.7091 11.5949C23.6852 11.6192 23.6626 11.6443 23.6406 11.6698L27.6185 15.707Z" fill="white"/>
<path d="M13.5022 25.9966L15.4689 27.9926L13.1519 28.3481L10.835 28.7036L11.1852 26.352L11.5355 24.0005L13.5022 25.9966Z" fill="white"/>
<path d="M24.2426 13.3636L24.2213 13.3421L23.6523 12.7646L23.6736 12.7861L23.1046 12.2086L12.0088 23.47L15.9919 27.5125L27.0877 16.2511L24.2426 13.3636Z" fill="white"/>
</svg>
