<svg width="95" height="95" viewBox="0 0 95 95" fill="none" xmlns="http://www.w3.org/2000/svg">
<path d="M37.6055 34.4169H57.3989L47.5019 26.9131L37.6055 34.4169Z" fill="#18BC9C"/>
<path d="M11.7988 70.8623H35.7505V79.2655H11.7988V70.8623Z" fill="#18BC9C"/>
<path d="M91.5005 32.8286L78.5333 23.1539V5.7664C78.5333 3.34675 76.8652 1.38498 74.8078 1.38498H69.8534C67.7958 1.38498 66.1279 3.34675 66.1279 5.7664V14.7102L59.8771 9.23344L47.5019 0L3.50086 32.8303C0.176963 35.1012 -0.980547 40.0895 0.90251 44.031C2.1934 46.7348 4.58238 48.2512 7.03935 48.2512C8.23747 48.2512 9.45161 47.8915 10.5633 47.132L47.5019 19.1245L84.4375 47.1293C85.5492 47.8889 86.7641 48.2494 87.9612 48.2494C90.4182 48.2494 92.8044 46.7348 94.0972 44.0325C95.9804 40.0912 94.8236 35.0994 91.5005 32.8286Z" fill="#18BC9C"/>
<path d="M77.1155 49.368L65.9282 40.8857V40.9648H28.971L17.8882 49.368H77.1155Z" fill="#18BC9C"/>
<path d="M11.7988 55.9121H35.7505V64.3159H11.7988V55.9121Z" fill="#18BC9C"/>
<path d="M41.3154 55.9121H53.6841V94.9987H41.3154V55.9121Z" fill="#18BC9C"/>
<path d="M11.7988 85.8145H35.7505V95.0001H11.7988V85.8145Z" fill="#18BC9C"/>
<path d="M59.2515 85.8145H83.2024V95.0001H59.2515V85.8145Z" fill="#18BC9C"/>
<path d="M59.2515 70.8623H83.2024V79.2655H59.2515V70.8623Z" fill="#18BC9C"/>
<path d="M59.2515 55.9121H83.2024V64.3159H59.2515V55.9121Z" fill="#18BC9C"/>
</svg>
