<svg width="66" height="66" viewBox="0 0 66 66" fill="none" xmlns="http://www.w3.org/2000/svg">
<circle opacity="0.5" cx="33" cy="33" r="33" fill="#46BA75"/>
<path d="M23 30.0721C23 31.729 21.6569 33.0721 20 33.0721C18.3431 33.0721 17 31.729 17 30.0721C17 28.4153 18.3431 27.0721 20 27.0721C21.6569 27.0721 23 28.4153 23 30.0721Z" fill="black"/>
<path d="M49.3442 30.0719C49.3442 31.7287 48.0011 33.0719 46.3442 33.0719C44.6874 33.0719 43.3442 31.7287 43.3442 30.0719C43.3442 28.415 44.6874 27.0719 46.3442 27.0719C48.0011 27.0719 49.3442 28.415 49.3442 30.0719Z" fill="black"/>
<path d="M26 44C29 48 34.8 50 40 44" stroke="black" stroke-width="2" stroke-linecap="round" stroke-linejoin="round"/>
</svg>
