<?xml version="1.0" encoding="UTF-8"?>
<svg width="31px" height="39px" viewBox="0 0 31 39" version="1.1" xmlns="http://www.w3.org/2000/svg" xmlns:xlink="http://www.w3.org/1999/xlink">
    <!-- Generator: Sketch 47.1 (45422) - http://www.bohemiancoding.com/sketch -->
    <title>user</title>
    <desc>Created with Sketch.</desc>
    <defs></defs>
    <g id="mobile" stroke="none" stroke-width="1" fill="none" fill-rule="evenodd">
        <g id="frontpage" transform="translate(-165.000000, -1180.000000)" fill-rule="nonzero" fill="#fff">
            <g id="Group-6" transform="translate(0.000000, 956.000000)">
                <g id="Group-28" transform="translate(48.000000, 224.000000)">
                    <g id="user" transform="translate(117.000000, 0.000000)">
                        <g id="1144811">
                            <path d="M15.4705882,0.321514907 C11.027593,0.321514907 7.41257051,3.93626401 7.41257051,8.37970882 C7.41257051,12.8228013 11.027593,16.4375504 15.4705882,16.4375504 C19.9135834,16.4375504 23.528606,12.8228013 23.528606,8.37970882 C23.528606,3.93626401 19.9135834,0.321514907 15.4705882,0.321514907 Z" id="Shape"></path>
                            <path d="M0.321514907,33.3868931 C4.41686783,36.8870013 9.70400706,39 15.4705882,39 C21.2371694,39 26.5243086,36.886638 30.6196616,33.3868931 C30.2424958,29.9180292 28.7026115,26.6660603 26.2483425,24.1813976 C23.3688199,21.2662151 19.5411795,19.6607575 15.4705882,19.6607575 C7.71769632,19.6607575 1.16305041,25.6484348 0.321514907,33.3868931 L0.321514907,33.3868931 Z" id="Shape"></path>
                        </g>
                    </g>
                </g>
            </g>
        </g>
    </g>
</svg>