<svg width="130" height="118" viewBox="0 0 130 118" fill="none" xmlns="http://www.w3.org/2000/svg">
<path d="M122.043 32V22.4664C122.043 14.4768 115.567 8 107.577 8H22.4664C14.4768 8 8 14.4768 8 22.4664V95.2806C8 103.27 14.4768 109.747 22.4664 109.747H107.577C115.567 109.747 122.043 103.27 122.043 95.2806V88" stroke="#578BC7" stroke-width="15"/>
<path d="M80.0909 58.7213C80.0909 48.9341 88.025 41 97.8122 41H125.178C127.841 41 130 43.1589 130 45.8221V71.6205C130 74.2837 127.841 76.4427 125.178 76.4427H97.8122C88.025 76.4427 80.0909 68.5086 80.0909 58.7213Z" fill="#578BC7"/>
<circle cx="98.0533" cy="59.0771" r="8.07708" fill="#203A60"/>
</svg>
