<svg width="128" height="123" viewBox="0 0 128 123" fill="none" xmlns="http://www.w3.org/2000/svg">
<ellipse cx="63.695" cy="61.21" rx="63.695" ry="61.21" fill="#F4F5F6"/>
<path d="M57 75.976V93.4997C57 94.1621 56.7366 94.7983 56.2678 95.2671C55.799 95.7359 55.1631 96 54.5 96H34.5C33.837 96 33.2011 95.7359 32.7323 95.2671C32.2635 94.7983 32 94.1621 32 93.4997V58.5021C31.9995 58.1737 32.0636 57.8483 32.1889 57.5446C32.3141 57.2409 32.498 56.9649 32.7299 56.7323L62.7301 26.7344C62.9623 26.5016 63.2382 26.317 63.5419 26.1908C63.8456 26.0649 64.1711 26 64.5 26C64.8289 26 65.1544 26.0649 65.4581 26.1908C65.762 26.317 66.0377 26.5016 66.2699 26.7344L96.2698 56.7323C96.5021 56.9649 96.6861 57.2409 96.8105 57.5446C96.9364 57.8483 97 58.1737 97 58.5021V93.4997C97 94.1621 96.7359 94.7983 96.267 95.2671C95.7996 95.7359 95.1634 96 94.4996 96H74.5C73.837 96 73.201 95.7359 72.7322 95.2671C72.2633 94.7983 72 94.1621 72 93.4997V76.0009C72 74.7512 70.75 73.5011 69.5 73.5011H59.5C58.25 73.5011 57 74.7512 57 75.976Z" fill="#18BC9C"/>
<path fill-rule="evenodd" clip-rule="evenodd" d="M87.3461 34.8685V50.6187L76.3461 41.6186V34.8685C76.3461 34.2718 76.636 33.6995 77.1517 33.2776C77.6671 32.8556 78.3666 32.6187 79.0961 32.6187H84.5961C85.3255 32.6187 86.0252 32.8556 86.5404 33.2776C87.0561 33.6995 87.3461 34.2718 87.3461 34.8685Z" fill="#18BC9C"/>
</svg>
