<?xml version="1.0" encoding="UTF-8"?>
<svg width="66px" height="14px" viewBox="0 0 66 14" version="1.1" xmlns="http://www.w3.org/2000/svg" xmlns:xlink="http://www.w3.org/1999/xlink">
    <!-- Generator: Sketch 47.1 (45422) - http://www.bohemiancoding.com/sketch -->
    <title>nordea</title>
    <desc>Created with Sketch.</desc>
    <defs></defs>
    <g id="mobile" stroke="none" stroke-width="1" fill="none" fill-rule="evenodd">
        <g id="frontpage" transform="translate(-227.000000, -435.000000)" fill-rule="nonzero" fill="#FFFFFF">
            <g id="Group-22" transform="translate(20.000000, 401.000000)">
                <g id="Group-20" transform="translate(170.000000, 0.000000)">
                    <g id="nordea" transform="translate(37.000000, 34.000000)">
                        <path d="M59.9103448,2.99310345 C57.2551724,3.1862069 55.1310345,5.35862069 54.937931,8.0137931 C54.7448276,11.1517241 57.2068966,13.7586207 60.2965517,13.7586207 C61.4068966,13.7586207 62.9034483,13.1793103 63.5793103,12.0206897 L63.5793103,13.6137931 L65.6551724,13.6137931 L65.6551724,8.49655172 C65.7517241,5.11724138 63.0482759,2.75172414 59.9103448,2.99310345 Z M63.4344828,8.49655172 C63.337931,10.2827586 61.7931034,11.6344828 59.9586207,11.3931034 C58.5586207,11.2 57.4482759,10.0896552 57.2551724,8.68965517 C57.062069,6.80689655 58.5103448,5.2137931 60.3448276,5.2137931 C61.9862069,5.2137931 63.337931,6.51724138 63.4344828,8.15862069 L63.4344828,8.49655172 L63.4344828,8.49655172 Z" id="Shape"></path>
                        <path d="M48.5172414,2.99310345 C45.6689655,3.08965517 43.2551724,5.26206897 43.2551724,8.44827586 C43.2551724,11.3448276 45.6206897,13.8068966 48.662069,13.8068966 C50.7862069,13.8068966 52.862069,12.5517241 53.6827586,10.4758621 L51.6068966,9.84827586 C51.2206897,10.7172414 50.3034483,11.4413793 49.2896552,11.6344828 C47.8413793,11.9241379 46.4896552,11.0068966 45.9586207,10.0413793 L54.0206897,7.82068966 C53.7793103,5.69655172 51.9448276,2.89655172 48.5172414,2.99310345 Z M45.5241379,8.11034483 C45.5241379,7 46.2,5.69655172 47.6482759,5.16551724 C49.2896552,4.53793103 50.737931,5.35862069 51.3655172,6.51724138 L45.5241379,8.11034483 Z" id="Shape"></path>
                        <path d="M30.8,5.16551724 L30.8,2.94482759 C28.7724138,2.94482759 28.0965517,3.95862069 27.7586207,4.48965517 L27.7586207,3.28275862 L25.4413793,3.28275862 L25.4413793,8.20689655 L25.4413793,13.5655172 L27.8068966,13.5655172 C27.8068966,10.3793103 27.8068966,10.4275862 27.8068966,8.49655172 C27.8068966,6.17931034 29.1586207,5.26206897 30.8,5.16551724 Z" id="Shape"></path>
                        <polygon id="Shape" points="9.51034483 9.46206897 2.46206897 1.15862069 0.0482758621 1.15862069 0.0482758621 13.5655172 2.55862069 13.5655172 2.55862069 5.26206897 9.70344828 13.6137931 11.8758621 13.6137931 11.8758621 1.15862069 9.51034483 1.15862069"></polygon>
                        <path d="M41.8551724,0.0482758621 L39.6344828,0.0482758621 L39.6344828,4.10344828 C39.1034483,3.42758621 37.462069,2.84827586 36.062069,2.99310345 C33.4068966,3.1862069 31.2827586,5.35862069 31.0896552,8.0137931 C30.8965517,11.1517241 33.3586207,13.7586207 36.4482759,13.7586207 C37.6068966,13.7586207 39.2,13.2275862 39.7310345,12.2137931 L39.7310345,13.5655172 L41.8068966,13.5655172 L41.8068966,8.44827586 C41.8068966,8.4 41.8068966,8.4 41.8068966,8.35172414 C41.8068966,8.30344828 41.8068966,8.30344828 41.8068966,8.25517241 L41.8551724,0.0482758621 L41.8551724,0.0482758621 Z M39.537931,8.49655172 C39.4413793,10.2827586 37.8965517,11.6344828 36.062069,11.3931034 C34.662069,11.2 33.5517241,10.0896552 33.3586207,8.68965517 C33.1655172,6.80689655 34.6137931,5.2137931 36.4482759,5.2137931 C38.0896552,5.2137931 39.4413793,6.51724138 39.537931,8.15862069 C39.537931,8.15862069 39.537931,8.49655172 39.537931,8.49655172 Z" id="Shape"></path>
                        <path d="M18.6827586,2.94482759 C15.6896552,2.94482759 13.2758621,5.35862069 13.2758621,8.35172414 C13.2758621,11.3448276 15.6896552,13.7586207 18.6827586,13.7586207 C21.6758621,13.7586207 24.0896552,11.3448276 24.0896552,8.35172414 C24.0413793,5.35862069 21.6275862,2.94482759 18.6827586,2.94482759 Z M18.6827586,11.4413793 C16.9931034,11.4413793 15.5931034,10.0413793 15.5931034,8.35172414 C15.5931034,6.66206897 16.9931034,5.26206897 18.6827586,5.26206897 C20.3724138,5.26206897 21.7724138,6.66206897 21.7724138,8.35172414 C21.7724138,10.0896552 20.3724138,11.4413793 18.6827586,11.4413793 Z" id="Shape"></path>
                    </g>
                </g>
            </g>
        </g>
    </g>
</svg>