<svg height="64" viewBox="0 0 307 64" width="307" xmlns="http://www.w3.org/2000/svg"><g fill="none"><path d="m49.2 26 4.4 4.1-3.7 4h-.6s-.1-5.5-.1-8.1zm-5.4 8.1-3.9-3.7 4.3-4.3.1 8zm9 17.4c-1.3 0-2.3.2-3.3-1.2v-9.3l7.5-7.6 2.9 2.9-6.6 6.6v4.6h25.1l-4.8-4.7h-13.5l6.5-6.9-15.2-15.1h-8.8l-15.5 15.1 6.6 6.9h-13.6l-4.5 4.7h25.1v-4.5c-2.1-2.2-6.8-6.7-6.8-6.7l3.2-2.9 7.5 7.6.1 9.3c-.5.8-.9.9-1.7 1.2h-12v4.7h32.2v-4.7z" fill="#007c4c"/><path d="m0 47.6.1-1.9 3.8.2c-.3-.3-.6-.5-.9-.7l-2.8-2.1.2-2.4 3.5 3 5.1-2.7-.1 2.3-3.9 1.9.9.8 2.8.1-.1 2zm7.5-14.8-1.9-.1c-.5 0-1.2-.1-1.7-.1.5.3 1 .7 1.5.9l1.5 1.1zm.7 2.6 1.9 1.3-.6 1.9-7.4-5.3.9-2.4 9 .2-.7 2-2.3-.1zm2.5-11.4.4-.7c.6-.8.5-1.5-.1-1.9-.7-.5-1.3-.3-1.8.5-.3.4-.4.6-.5.7zm-4.2-.5c.3-.6.7-1.4 1.3-2.3.8-1 1.4-1.7 2.2-1.9.6-.2 1.3-.1 1.9.3.9.7 1.1 1.7.9 2.5h.1c.5-.3 1.1-.3 1.9 0 1 .3 2.1.7 2.4.8l-1.1 1.6c-.3 0-1-.2-2-.6s-1.5-.3-1.9.4l-.3.5 2.8 1.9-1.1 1.6zm16.4-10.2c-.7-.8-1.5-1.8-2.3-2.8.5 1.1 1 2.3 1.3 3.3l1.3 3.3-1.1.9-2.9-2c-.8-.6-1.8-1.4-2.7-2.2v.1c.7.9 1.5 2 2.1 2.8l2 2.7-1.5 1.1-4.9-7.1 2-1.6 2.5 1.7c.8.6 1.7 1.3 2.5 2-.4-1-.9-2-1.3-3l-1.1-2.8 2-1.6 5.8 6.5-1.5 1.1zm9-3c.3.1.6.1 1 0 1.3-.5 1.6-1.9 1-3.5-.1-.5-.4-.9-.8-1.3zm0-5.6c-.3-.1-.7-.1-1.1.1-1.2.5-1.6 1.9-1 3.5.2.6.5 1 .9 1.4zm-2 8.2.3-1.3c-1-.5-1.8-1.4-2.2-2.6-.9-2.4 0-4.8 2.3-5.7.7-.2 1.4-.3 2-.2l.3-1.2 1.3.3-.3 1.3c1 .5 1.7 1.4 2.1 2.5 1 2.7 0 4.9-2.3 5.7-.6.3-1.3.3-1.9.3l-.3 1.3zm12.7-3.5-.3-3.5-3.1-4.9 2.2-.2 1.1 2c.3.7.5 1.1.8 1.6.1-.5.3-1 .5-1.7l.7-2.1 2.2-.2-2.4 5.3.2 3.6zm10.7-4.9.6.1c1 .2 1.6-.1 1.8-.7.1-.7-.4-1.1-1.2-1.2-.5-.1-.7-.1-.9-.1zm-.7 3.8c.2.1.4.1.7.2.9.1 1.7-.1 1.9-1 .1-.8-.6-1.3-1.5-1.5l-.7-.1zm-.6-7.4c.5 0 1.5.1 2.5.3 1.2.2 1.9.5 2.4 1 .5.4.9 1 .7 1.8-.1.8-.7 1.4-1.7 1.6.9.4 1.5 1.3 1.3 2.4-.2.8-.6 1.3-1.2 1.6-.7.4-1.8.5-3.5.2-1-.2-1.7-.4-2.1-.5zm13.3 9.2.3-1.9c.1-.5.3-1.2.4-1.7h-.1c-.3.4-.7.9-1 1.3l-1.3 1.4zm-2.6.3-1.5 1.8-1.8-.9 6.1-6.7 2.3 1.2-1.3 8.9-1.9-.9.3-2.3zm6.5 6.2 5.7-6.4 1.7 1.5-.8 3.5c-.2 1.1-.5 2.2-.9 3.2.7-.9 1.5-1.8 2.3-2.8l1.7-1.8 1.4 1.2-5.8 6.4-1.6-1.4.9-3.7c.2-1.1.6-2.3.9-3.3-.7.9-1.5 1.8-2.5 2.8l-1.7 2zm15 3.1 1 1.7-3.2 2h1.1l3.5.2 1.3 2-4.7-.5-2.6 5.2-1.2-1.9 2-3.8-1.1-.1-2.4 1.5-1-1.7zm2.5 17.1-.9-3-2 .6 1.1 3.4-1.6.5-1.6-5.3 8.2-2.6 1.6 5.1-1.5.5-1-3.2-1.7.5.9 3zm-2.7 4.9 8.7-.5.1 2.3-3.1 2c-.9.5-1.9 1.1-2.9 1.5 1.2-.1 2.3-.2 3.6-.3l2.5-.1.1 1.8-8.6.4-.1-2 3.2-2c.9-.6 2-1.2 3-1.7-1.1.1-2.4.2-3.8.2l-2.6.1z" fill="#8a8b8a"/><path d="m117.2 25.5c.2.4.4.7.7 1 .3.5.9 1.3 2.3 1.7.2.1.9.3 1.7.3 3.2-.1 3.9-2.7 3.9-4 0-.6-.1-1.7-1.1-2.6-.8-.8-1.8-1.1-2.7-1.5-1.6-.6-2.6-1.1-3.2-1.5-1.4-.9-2.2-2.4-2.2-4.1 0-.9.2-2.6 1.7-4 .8-.9 2.1-1.6 4.7-1.6.2 0 .9 0 1.5.1 1.1.2 1.9.6 2.8 1.1-.2.7-.4 1.1-.7 2.4h-.3c-.1-.1-.4-.7-.7-1.1-.5-.6-1.4-1.4-3.2-1.4-2.6 0-3.4 2.1-3.4 3.3 0 .9.4 1.6.6 1.8.4.6 1.1 1.1 2.4 1.7 1.5.7 3.6 1.2 4.8 2.5.9.9 1.4 2.3 1.4 3.7 0 3.2-2.1 4.8-3 5.4-1.6 1-3.2 1-3.9 1-2.7 0-3.8-.9-5-1.7.4-1.1.5-1.3.6-2.5zm20.2 2.9c-.5-.6-.9-1.2-1.4-1.9-.7-1-1.5-1.9-2.3-2.9-.3-.3-.9-1-1.2-1-.2 0-.2.1-.3.2-.1.3-.1.5-.1 1.2 0 1.1.1 2.2.1 3.3.1.7.1 1.4.2 2-.9 0-1.2-.1-2.8 0 .1-1.4.1-2.9.2-4.3 0-2.1-.1-4.2-.1-6.3 0-1.5.1-3.1.1-4.6 0-2.1-.1-4.1-.2-6.2.5.1.9.1 1.4.1s1 0 1.4-.1c-.1 1.8-.2 3.7-.3 5.5v6.7c0 .6 0 1.3.4 1.3.2 0 .7-.5 1.3-1 .8-.9 1.7-1.9 2.5-2.8.7-.8 1.4-1.6 2-2.4 0 0 .9.1 1.5.1h1.4c-.7.5-1.4 1.1-2.2 1.8-.8.6-1.5 1.4-2.3 2.1-.6.6-1.3 1.2-2 1.8 1 1.1 1.9 2.2 2.8 3.3.7 1 1.5 2 2.3 2.9.6.7 1.3 1.4 2 2.1-2.1-.1-2.5-.1-3.8.1zm13.7-1.6c-.3.4-.6.7-.8 1-1.1 1.2-2.1 1.9-3.7 1.9-1.9 0-3.6-1-4.3-2.9-.3-.8-.3-1.5-.3-2.3 0-1.3 0-2.6.1-4v-2.9c-.1-.8-.1-1.6-.2-2.4.7.1 1 .1 1.4.1.6 0 1.2-.1 1.4-.1 0 1.3-.1 2.5-.1 3.7v4.4c0 .4 0 .8.1 1.1 0 1.2.2 2.1 1 2.8.3.2.9.7 1.8.7 1 0 2.1-.7 2.6-1.6.7-1.1.8-2.2.8-3.5.1-1.5.1-3 0-4.5 0-1.1 0-2.1-.1-3.1.8.1 1 .1 1.5.1s.9 0 1.4-.1c-.2 1.1-.2 2.1-.3 3.2v4.8c0 1.1 0 2.2.1 3.3 0 1 .1 2 .1 2.9-.4 0-.9-.1-1.3-.1s-.6 0-1.3.1zm8.3.3c1 1 2.2 1.1 2.7 1.1 1.9 0 3.3-1.5 3.8-3.4.1-.6.2-1.2.2-2.5v-1.2c0-.7-.2-2.4-1.6-3.7-.4-.3-1.2-1-2.5-1-1.4 0-2.3.7-2.6 1-.7.8-1.4 2.3-1.4 4.9 0 2.5.7 4.1 1.4 4.8zm6.8-.4c-.1.1-.4.6-.7 1-.5.7-1.9 1.9-4.1 1.9-1.4 0-2.6-.5-3.1-.8-3-1.8-3.1-5.5-3.1-6.5 0-1.2.1-4.6 3-6.4 1-.7 2.2-1 3.3-1 2 0 3.3 1 3.8 1.6.4.5.7 1 .7 1.1 0-2.4 0-4.9-.1-7.4 0-.8-.1-1.6-.1-2.3 1.5.1 2 .1 2.8 0-.1 1.9-.2 3.7-.2 5.6v8.4c0 1.6 0 3.1.1 4.6 0 1 .1 2 .2 2.9-.7-.1-1-.1-1.4-.1-.3 0-.6 0-1.2.1zm13.8-5.7c0-1.5-.1-3-1.2-4.1-.8-.8-1.8-.9-2.1-.9-.4 0-1.2.1-2.1.7-1.3 1.1-1.5 2.6-1.7 4.3zm-7.1 1.2c0 .5 0 .9.1 1.4.1.7.3 2.5 1.9 3.8.4.3 1.2.9 2.6.9 1.1 0 2.1-.5 2.5-.7.8-.4 1.2-.9 1.9-1.6l.3.1c-.2.7-.3.8-.3 1.6-.2.2-.6.6-1.1.9-1.5 1-3.6 1-4.1 1s-1.7 0-3-.7c-1.4-.6-3.5-2.5-3.5-6.6 0-2.6.8-4.1 1.5-5 .8-1 2.2-2.4 5-2.4 2.6 0 3.9 1 4.7 2 .2.3.7 1 1 2 .2.8.3 1.6.3 3.2zm13.5-4.3c.3-.4.6-.9 1-1.3.7-.7 1.9-1.5 4.1-1.5.3 0 .8-.1 1.4.1 1.3.4 2.4 1.5 2.7 2.7.2.7.3 1.2.3 2.7-.1 1.5-.1 3-.1 4.5 0 1.4.1 2.8.1 4.2-.2 0-.8-.1-1.4-.1-.4 0-.6 0-1.3.1.1-1.6.1-3.2.1-4.8.1-1.2 0-2.5 0-3.7 0-1.3-.1-2.6-1.2-3.4-.3-.2-.9-.6-1.9-.6-.5 0-2 .1-3 1.4-.6.9-.7 2-.7 3.1-.1 1.6-.1 3.3-.1 4.9 0 .6.1 1.1.1 1.6v1.5c-.8-.2-1.2-.2-2.7-.1.1-1.1.1-2.3.2-3.4v-5.2c0-1 0-2.1-.1-3.2 0-.7 0-1.4-.1-2.1.5.1.9.1 1.3.1.3 0 .7 0 1.4-.2zm20.9 3.1c0-1.5-.1-3-1.2-4.1-.8-.8-1.7-.9-2.1-.9s-1.2.1-2 .7c-1.3 1.1-1.6 2.6-1.8 4.3zm-7.1 1.2c.1.5.1.9.1 1.4.1.7.3 2.5 1.9 3.8.4.3 1.3.9 2.6.9 1.2 0 2.1-.5 2.5-.7.8-.4 1.3-.9 1.9-1.6l.3.1c-.2.7-.2.8-.3 1.6-.1.2-.6.6-1.1.9-1.5 1-3.6 1-4 1-.5 0-1.8 0-3.1-.7-1.3-.6-3.5-2.5-3.5-6.6 0-2.6.9-4.1 1.5-5 .8-1 2.2-2.4 5-2.4 2.7 0 3.9 1 4.7 2 .2.4.7 1 1 2 .2.8.3 1.6.4 3.2zm11 3.8c.6 1.1 1.1 1.8 2.2 2.2.2.1.6.2 1.2.2.2 0 .6 0 1-.1.8-.4 1.5-1.3 1.5-2.2 0-.4-.1-.7-.2-.9-.3-.7-.8-1.1-1.4-1.4-1-.4-2.1-.7-3-1.2-1.6-1-1.8-2.7-1.8-3.4 0-.5 0-1.4.6-2.3.6-1 1.7-1.9 4-1.9 1.7 0 2.6.6 3.3.9-.3.8-.4 1-.6 2.4h-.3c-.1-.1-.3-.8-.6-1.1-.2-.4-1-1.1-2.2-1.1-1.7 0-2.2 1.5-2.2 2.2 0 .2 0 .6.2 1 .3.6 1 1.1 2.4 1.5.9.4 2 .7 2.8 1.4 1.1.9 1.1 2.2 1.1 2.8 0 .3 0 1.2-.5 2.1-.5 1-1.9 2.4-4.6 2.4h-1.2c-1-.2-1.7-.6-2.6-1.2.4-1.1.4-1.2.6-2.3zm21.5-9.9c.2-.3 1.2-1.5 1.2-3.1 0-.2 0-.7-.2-1.2-.3-.7-1.1-1.2-1.9-1.2-.2 0-.5 0-.9.2-1.3.5-1.4 1.9-1.4 2.3 0 .2.1.8.3 1.4.3 1 1 1.9 1.6 2.7.7-.5 1-.8 1.3-1.1zm-3.7 3.6c-.6.4-2 1.7-2 3.7 0 .4 0 1.2.4 2 1 2.3 3.3 2.6 4 2.6.3 0 .9 0 1.5-.3 1-.3 1.6-.9 2.3-1.6-1.1-1.4-2.3-2.8-3.4-4.2-.7-.9-1.4-1.8-2-2.8-.3.2-.6.4-.8.6zm10.7-1.4c.4.5.6.7 1.3 1.4l-1.3 2.3c-.3.5-.7 1.1-1 1.5-.4.5-.8 1-1.1 1.5.3.3.7.7 1 1.1.4.5.9 1.1 1.4 1.6.4.4.9.8 1.3 1.2v.5c-.9-.2-1.3-.2-1.8-.2s-.8 0-1.7.2c-.3-.5-.6-.9-.9-1.4-.3-.4-.7-.8-1-1.2-.4.4-.7.7-1.1 1-.8.6-2.3 1.8-4.9 1.8-2.9 0-5.3-1.8-5.3-5 0-.6.1-2.1 1-3.4 1-1.2 2.4-2 3.6-2.7-.9-1.4-1.7-2.7-1.7-4.5 0-.5.1-1 .2-1.4.4-1.1 1.4-3 4.2-3 .2 0 .7 0 1.2.2.6.2 2.4.9 2.4 3.2s-2 3.8-3.6 4.9c.6.7 1.1 1.4 1.6 2.1 1.2 1.4 2.3 2.8 3.4 4.2 1.9-3 2.3-4 2.6-5.9zm16.7 2-3.1-7.2-1.5 3.3-1.5 3.9zm-1.7-11c.3.8.5 1.6.9 2.3.4 1 .8 1.9 1.2 2.8.6 1.4 1.2 2.8 1.7 4.1.7 1.5 1.3 3 1.9 4.5.5 1.2.9 2.4 1.5 3.6.4.9.8 1.8 1.3 2.7-.9-.1-1.3-.2-1.8-.2-.4 0-.8.1-1.7.3-.7-2.6-1-3.5-2.8-7.7h-3.2c-1.4 0-2.6 0-3.9.1-1.6 4.1-1.8 4.9-2.5 7.5-.6-.1-.8-.1-1.2-.1-.2 0-.6 0-1.1.1.8-1.9 1.7-3.8 2.5-5.6.9-2.1 1.8-4.3 2.6-6.4.7-1.5 1.3-3.1 2-4.6.5-1.2.9-2.3 1.3-3.5zm15.7 12.6c-.9.2-1.7.3-2.5.6-.9.2-1.7.5-2.2 1.3-.2.2-.5.8-.5 1.6 0 .2 0 .7.2 1.2.6 1.2 1.7 1.3 2.1 1.3.5 0 1.5-.2 2.3-1.2.2-.3.4-.6.5-1 .1-.2.1-.4.1-.9zm-7-3.3.1-1.8c.4-.3.7-.5 1.1-.8.6-.4 1.8-1 3.6-1 .2 0 .8 0 1.4.1 1.2.4 2.4 1.2 2.9 2.4.2.7.3 1.6.3 2.4v6.2c0 .6 0 1.3.2 1.7.3.5.9.4 1.5.4v.7c-.7.3-1.2.6-1.9.6-.5 0-.9-.2-1.1-.3-.6-.4-.9-1-1.1-1.7l-1 1c-1.2.9-2.6 1-3.1 1s-1.6 0-2.5-.9c-.5-.5-1.2-1.3-1.2-3 0-1.2.3-2.7 2.6-3.5 1.1-.4 2.3-.6 3.4-1 1.1-.3 1.7-.3 1.7-1.6 0-.3-.1-.9-.4-1.6-.3-.6-1.1-1.4-2.7-1.4-.2 0-.7 0-1.2.2-1 .3-1.4 1-1.9 1.9zm19.7 9.8c-.5-.6-.9-1.2-1.4-1.9-.8-1-1.6-1.9-2.4-2.9-.2-.3-.8-1-1.1-1-.2 0-.2.1-.3.2-.1.3-.1.5-.1 1.2 0 1.1 0 2.2.1 3.3.1.7.1 1.4.2 2-1 0-1.3-.1-2.8 0 .1-1.4.1-2.8.1-4.3.1-2.1 0-4.2 0-6.3v-4.6c0-2.1 0-4.1-.1-6.2.4.1.9.1 1.4.1.4 0 .9 0 1.4-.1-.1 1.9-.3 3.7-.3 5.5v6.7c0 .6 0 1.3.3 1.3s.7-.5 1.3-1c.9-.9 1.8-1.9 2.6-2.8.7-.8 1.3-1.6 2-2.4 0 0 .9.1 1.5.1h1.4c-.7.5-1.5 1.1-2.2 1.8-.8.6-1.5 1.4-2.3 2.1-.6.6-1.3 1.2-2 1.8l2.7 3.3c.8 1 1.5 2 2.4 2.9.6.7 1.3 1.4 2 2.1-2.1-.1-2.5-.1-3.8.1zm11.5-10.7c-.5-.1-.9-.3-1.5-.3-.4 0-1.6.2-2.3 1.5-.6 1-.6 2-.7 3.2v4.2c.1 1 .2 2.1.3 3.1-.6-.1-.9-.1-1.5-.1-.5 0-.9 0-1.4.1.3-2.7.3-3.1.3-5.7 0-1.9 0-3.8-.1-5.7 0-1-.1-1.9-.2-2.8.5 0 1 .1 1.5.1.4 0 .9-.1 1.3-.1-.1.7-.2 1.4-.2 2.1v1.2c.3-.6.5-1.2.9-1.7 1.4-2 3.1-1.8 3.9-1.8-.1.9-.2 1.1-.1 2.7zm8 4.2c-.8.2-1.7.3-2.5.6-.9.2-1.6.5-2.2 1.3-.1.2-.5.8-.5 1.6 0 .2.1.7.3 1.2.6 1.2 1.7 1.3 2.1 1.3s1.5-.2 2.3-1.2c.2-.3.4-.6.5-1 0-.2.1-.4.1-.9s-.1-1.1-.1-1.7zm-6.9-3.3.1-1.8c.4-.3.7-.5 1.1-.8.6-.4 1.7-1 3.6-1 .2 0 .7 0 1.4.1 1.2.4 2.4 1.2 2.8 2.4.3.7.3 1.6.3 2.4v6.2c0 .6.1 1.3.3 1.7.3.5.8.4 1.4.4v.7c-.6.3-1.1.6-1.9.6-.5 0-.8-.2-1-.3-.7-.4-.9-1-1.2-1.7 0 0-.6.7-1 1-1.1.9-2.5 1-3.1 1-.4 0-1.5 0-2.5-.9-.5-.5-1.2-1.3-1.2-3 0-1.2.4-2.7 2.6-3.5 1.2-.4 2.3-.6 3.5-1 1.1-.3 1.6-.3 1.6-1.6 0-.3 0-.9-.4-1.6-.3-.6-1-1.4-2.6-1.4-.2 0-.7 0-1.2.2-1 .3-1.4 1-2 1.9zm-179.2 33.7c.3.4.5.7.7 1 .3.5 1 1.3 2.3 1.7.3.1.9.3 1.7.3 3.2 0 3.9-2.6 3.9-4 0-.5-.1-1.7-1.1-2.6-.8-.8-1.8-1.1-2.7-1.5-1.6-.6-2.6-1.1-3.2-1.4-1.3-1-2.2-2.4-2.2-4.2 0-.8.2-2.6 1.7-4 .8-.9 2.1-1.6 4.7-1.6.2 0 .9 0 1.6.1 1 .2 1.8.6 2.8 1.2-.3.6-.5 1-.8 2.3h-.3c-.1 0-.4-.7-.7-1.1-.4-.5-1.4-1.4-3.1-1.4-2.7 0-3.5 2.1-3.5 3.3 0 .9.4 1.6.6 1.9.4.6 1.1 1.1 2.4 1.6 1.5.7 3.7 1.3 4.9 2.5.9.9 1.3 2.4 1.3 3.8 0 3.1-2.1 4.8-2.9 5.3-1.6 1-3.3 1-3.9 1-2.8 0-3.9-.8-5.1-1.6.4-1.2.5-1.4.6-2.6zm15.2-.4c.8 2.8 2.9 3.3 3.9 3.3.7 0 2.1-.3 3.1-2 .5-.9.9-2 .9-4.2 0-.4 0-1.5-.4-2.7-.5-1.8-1.9-3.1-3.8-3.1-.8 0-1.7.3-2.3 1-1.6 1.3-1.8 3.2-1.7 5.1 0 .4 0 1.6.3 2.6zm-.4-7.3c.6-.6 1.1-1.3 1.7-1.8 1.3-.9 2.7-1 3.2-1s1.5 0 2.7.6c3.2 1.5 3.5 5.2 3.5 6.4 0 1.6-.5 3.8-1.4 5.1-1.2 1.6-3.2 2.6-5 2.6-1.8-.1-3-.9-3.5-1.3-.4-.4-.7-.8-1-1.2 0 2.1-.1 4.2 0 6.3.1 1.1.1 2.2.2 3.3-.8-.2-1-.2-1.4-.2-.6 0-1.2.1-1.4.1.1-1.7.2-3.4.2-5.2v-4.4-6c0-1.1 0-2.2-.1-3.3 0-.9-.1-1.7-.1-2.6.7.1.9.2 1.2.2.5 0 .9-.1 1.4-.1zm19.5 4.1c-.9.2-1.7.4-2.5.6-.9.2-1.7.5-2.2 1.3-.2.2-.5.8-.5 1.6 0 .2 0 .7.2 1.2.6 1.2 1.7 1.3 2.1 1.3.5 0 1.5-.1 2.3-1.2.3-.2.5-.6.5-.9.1-.3.2-.4.2-.9 0-.6-.1-1.2-.1-1.8zm-7-3.2.2-1.9c.3-.2.6-.5 1-.7.6-.5 1.8-1.1 3.6-1.1.2 0 .8 0 1.4.2 1.2.3 2.4 1.1 2.9 2.3.2.7.3 1.6.3 2.4v6.2c0 .6 0 1.3.3 1.7.2.5.8.5 1.4.4v.7c-.7.4-1.2.6-1.9.6-.5 0-.9-.1-1.1-.2-.6-.5-.9-1.1-1.1-1.8 0 0-.6.7-1 1-1.2 1-2.6 1.1-3.1 1.1s-1.5-.1-2.5-1c-.5-.4-1.2-1.3-1.2-3 0-1.2.4-2.6 2.6-3.5 1.1-.4 2.3-.6 3.4-.9 1.1-.4 1.7-.4 1.7-1.7 0-.3 0-.9-.4-1.6-.3-.5-1.1-1.4-2.7-1.4-.2 0-.6 0-1.2.2-1 .4-1.4 1-1.9 2zm18.9-.9c-.5-.2-.9-.4-1.4-.4s-1.7.2-2.4 1.5c-.6 1-.6 2.1-.6 3.2v4.2c0 1 .1 2.1.2 3.1-.5-.1-.9-.1-1.4-.1-.6 0-.9 0-1.5.1.3-2.7.3-3 .3-5.7v-5.7c-.1-.9-.1-1.8-.2-2.8.5.1.9.1 1.4.1.4 0 .9 0 1.3-.1 0 .7-.1 1.4-.1 2.1-.1.4-.1.9-.1 1.3.3-.7.5-1.2.9-1.8 1.4-1.9 3.2-1.8 4-1.8-.2.9-.2 1.2-.2 2.7zm9.4 3.2c0-1.5-.1-3-1.2-4.1-.8-.8-1.8-.9-2.1-.9-.4 0-1.2.1-2.1.8-1.3 1-1.5 2.6-1.7 4.2zm-7.1 1.2c0 .5 0 1 .1 1.5.1.7.3 2.4 1.9 3.7.4.4 1.2.9 2.6.9 1.1 0 2.1-.5 2.5-.7.8-.4 1.2-.9 1.9-1.5h.3c-.2.8-.3.9-.3 1.7-.2.1-.6.5-1.1.8-1.5 1-3.6 1.1-4.1 1.1s-1.7-.1-3-.7c-1.4-.7-3.5-2.6-3.5-6.7 0-2.6.8-4.1 1.5-5 .8-1 2.2-2.3 5-2.3 2.6 0 3.9 1 4.7 2 .2.3.7.9 1 1.9.2.8.3 1.6.3 3.3zm13.3 1.4c0 .6.1 2.5 1.6 3.9.7.6 1.4.9 2.3.9 1.2 0 2-.5 2.3-.8 2.1-1.7 2-5 2-5.6 0-.5 0-2.1-.8-3.5-.3-.6-1.3-2.1-3.2-2.1-.6 0-2.2.2-3.2 1.7-.8 1.2-1 2.6-1 4-.1.5-.1 1 0 1.5zm-1.8 5.7h-.8c.1-1.1.2-2.2.2-3.4.1-1.3.1-2.6.1-3.9v-5.1-4.5c0-1.5-.1-3-.1-4.6.8.1 1 .2 1.5.2.4 0 .9-.1 1.3-.1-.1 1.4-.2 2.8-.2 4.3-.1 1.7-.1 3.5 0 5.3.1-.2.5-.8 1.1-1.2.5-.6 1.6-1.4 3.5-1.4.5 0 1.6.1 2.8.7 2.4 1.2 3.4 3.7 3.4 6.5 0 .5-.1 1.7-.5 2.9-.9 2.8-3.4 4.7-6.1 4.7-.5 0-2.1-.1-3.5-1.1-.6-.4-1-1-1.2-1.1zm21.2-7.4c-.9.2-1.7.4-2.5.6-.9.2-1.7.5-2.2 1.3-.2.3-.5.8-.5 1.6 0 .2 0 .7.2 1.2.6 1.2 1.7 1.3 2.1 1.3.5 0 1.5-.1 2.3-1.2.2-.2.5-.6.5-.9.1-.2.1-.4.1-.9zm-7-3.2.1-1.9c.4-.2.7-.5 1.1-.7.6-.5 1.8-1.1 3.6-1.1.2 0 .8 0 1.4.2 1.2.3 2.4 1.1 2.9 2.3.2.7.3 1.6.3 2.4v6.2c0 .6 0 1.3.2 1.7.3.5.9.5 1.5.4v.7c-.7.4-1.2.6-1.9.6-.5 0-.9-.1-1.1-.2-.6-.5-.9-1.1-1.1-1.8l-1 1c-1.2 1-2.6 1.1-3.1 1.1s-1.6-.1-2.6-1c-.4-.4-1.1-1.3-1.1-3 0-1.2.4-2.6 2.6-3.5 1.1-.4 2.3-.6 3.4-.9 1.1-.4 1.7-.4 1.7-1.7 0-.3 0-.9-.4-1.6-.3-.5-1.1-1.4-2.7-1.4-.2 0-.6 0-1.2.2-1 .4-1.4 1-1.9 2zm14.6-.7c.2-.5.6-1 .9-1.4.7-.7 2-1.5 4.2-1.5.2 0 .7 0 1.4.2 1.2.3 2.3 1.4 2.7 2.7.2.6.3 1.2.3 2.6-.1 1.5-.1 3-.1 4.6 0 1.3 0 2.7.1 4.1-.2 0-.8-.1-1.4-.1-.4 0-.6 0-1.4.1.1-1.6.2-3.2.2-4.8v-3.7c-.1-1.3-.2-2.6-1.2-3.4-.3-.2-1-.6-1.9-.6-.5 0-2 .1-3 1.5-.7.9-.7 1.9-.8 3.1 0 1.6-.1 3.2 0 4.9 0 .5 0 1 .1 1.5v1.5c-.9-.1-1.2-.2-2.7-.1 0-1.1.1-2.2.1-3.3.1-1.8.1-3.5.1-5.2 0-1.1 0-2.2-.1-3.3 0-.7-.1-1.4-.1-2.1.4.1.8.1 1.3.1.3 0 .6 0 1.3-.1zm19.6 10.4c-.5-.6-.9-1.2-1.4-1.8-.8-1-1.6-2-2.4-2.9-.2-.4-.8-1.1-1.1-1.1-.2 0-.3.1-.3.2-.1.3-.1.5-.1 1.2 0 1.1 0 2.2.1 3.3 0 .7.1 1.4.2 2.1-1-.1-1.3-.1-2.8 0 .1-1.5.1-2.9.1-4.4.1-2.1 0-4.2 0-6.3v-4.5c0-2.1 0-4.2-.1-6.2h2.8c-.1 1.8-.3 3.6-.3 5.4v6.8c0 .5 0 1.2.3 1.2s.7-.4 1.3-1c.9-.9 1.8-1.8 2.6-2.8.7-.8 1.3-1.6 2-2.4 0 0 .9.2 1.5.2.5 0 .9-.1 1.4-.1-.7.6-1.5 1.2-2.2 1.8-.8.7-1.5 1.4-2.3 2.1-.6.6-1.3 1.2-2 1.8l2.7 3.3c.8 1 1.5 2 2.4 2.9.6.7 1.3 1.4 2 2.1-2.1-.1-2.5 0-3.8.1z" fill="#1a1918"/></g></svg>