<svg id="Layer_1" xmlns="http://www.w3.org/2000/svg" viewBox="0 0 461.53 55.28"><style>.st0{fill:#00597d}.st1{fill:#89c1d8}</style><path class="st0" d="M12.5 44.17c3.41 4.29 6.9 6.16 12.87 6.98.85.08 1.63.15 2.65.09-1.13-.39-2.06-.73-3.3-1.35-5.59-2.76-10.55-7.87-11.41-11.06-.14-.52-.1-1.34-.02-1.68.12-.49-.14-.75-.51-.33-.5.6-.77 1-1.12 1.89-.32.81-.44 1.89-.39 2.52.06.89.53 2.09 1.23 2.94m16.88 7.12s1.88-.63 2.34-.89c.43-.24 1.04-.74 1.25-1.17.21-.43.24-.7.14-1.14-.2-.88-.73-1.27-1.73-2-1-.74-1.89-1.3-3.37-2.37-1.48-1.07-4.72-3.58-5.61-4.32-.89-.74-3.06-2.51-4.54-3.94-1.48-1.43-2.79-2.81-4-4.28-1.21-1.46-2.01-2.76-2.47-3.75-.47-.99-1.11-2.63-1.21-3.88-.15-1.21-.14-3.05.47-4.8.62-1.73 1.16-2.78 2.11-4.07.93-1.27 1.29-1.54 2.05-2.23.77-.64 1.22-.98 1.6-1.21 0 0-1.02 1.21-1.45 1.85-.43.65-.91 1.37-1.17 2.33-.29 1.08-.37 1.79-.09 2.82.31 1.12 2.15 3.55 4.29 5.58 2.14 2.03 6.28 5.56 7.95 6.87 1.67 1.32 5.68 4.62 7.99 6.72 2.31 2.1 3.89 3.61 4.69 4.84.71 1.04 1 1.84.98 2.81-.03 1.04-.42 1.78-.74 2.29-.32.53-1.03 1.26-1.87 1.82-.91.6-1.65.97-2.79 1.37-1.13.4-1.8.54-2.98.66-.72.1-1.84.09-1.84.09"/><path class="st1" d="M44.34 14.55c-3.41-4.29-6.9-6.16-12.87-6.98-.85-.08-1.63-.15-2.65-.09 1.13.39 2.05.73 3.31 1.35 5.59 2.76 10.33 7.57 11.19 10.76.14.52.33 1.64.24 1.98-.12.49.14.75.51.33.5-.6.77-1 1.12-1.89.32-.81.44-1.89.39-2.52-.06-.89-.54-2.09-1.24-2.94M27.46 7.43s-1.88.63-2.34.89c-.43.24-1.04.75-1.25 1.17-.21.43-.24.7-.14 1.13.2.88.73 1.27 1.73 2 1 .74 1.89 1.3 3.37 2.37 1.48 1.07 4.72 3.58 5.61 4.32.89.74 3.06 2.51 4.54 3.94 1.48 1.43 2.79 2.81 4 4.28 1.21 1.46 2.01 2.76 2.47 3.75.47.99 1.11 2.63 1.21 3.88.16 1.21.14 3.05-.47 4.8-.62 1.73-1.16 2.78-2.11 4.07-.93 1.27-1.29 1.54-2.05 2.23-.77.64-1.22.98-1.6 1.21 0 0 1.02-1.21 1.45-1.85.43-.65.91-1.37 1.17-2.33.29-1.08.37-1.79.09-2.82-.31-1.12-2.15-3.55-4.29-5.58-2.14-2.03-6.28-5.56-7.95-6.87-1.67-1.32-5.68-4.62-7.99-6.72-2.31-2.1-3.89-3.61-4.69-4.84-.71-1.04-1-1.84-.98-2.81.03-1.04.42-1.77.74-2.29.32-.53 1.02-1.26 1.87-1.82.91-.6 1.65-.97 2.79-1.37 1.13-.4 1.8-.54 2.98-.66.72-.09 1.84-.08 1.84-.08"/><g><path class="st0" d="M72.02 25.57c-.47-1.12-1.45-1.96-2.71-1.96-1.21 0-2.34.7-2.34 2.2 0 1.4.94 1.82 3.13 2.75 2.8 1.17 4.11 2.06 4.86 2.99.84 1.03 1.03 2.06 1.03 3.13 0 4.06-2.94 6.35-6.68 6.35-.79 0-5.14-.09-6.77-4.95l2.9-1.21c.37 1.03 1.5 3.18 3.92 3.18 2.2 0 3.17-1.64 3.17-3.08 0-1.82-1.31-2.43-3.13-3.22-2.34-1.03-3.83-1.77-4.72-2.85-.75-.93-.89-1.87-.89-2.85 0-3.41 2.38-5.42 5.65-5.42 1.03 0 3.78.19 5.32 3.5l-2.74 1.44zm11.81 25.64h-3.36V21.09h3.36v2.71c2.29-2.85 5.23-3.17 6.63-3.17 6.07 0 9.43 5.04 9.43 10.28 0 5.32-3.41 10.13-9.29 10.13-3.13 0-5.32-1.4-6.77-3.27v13.44zM96.44 30.9c0-4.77-3.22-7.29-6.35-7.29-3.13 0-6.45 2.57-6.45 7.24 0 3.97 2.52 7.19 6.49 7.19 3.93 0 6.31-3.27 6.31-7.14zm23.44-9.81h3.36v19.38h-3.36v-2.71c-1.12 1.45-3.22 3.27-6.63 3.27-4.9 0-9.43-3.46-9.43-10.28 0-6.68 4.48-10.13 9.43-10.13 3.74 0 5.74 2.05 6.63 3.22v-2.75zm-12.61 9.67c0 4.16 2.34 7.29 6.35 7.29 4.11 0 6.45-3.41 6.45-7.24 0-5-3.46-7.19-6.45-7.19-3.31-.01-6.35 2.42-6.35 7.14zm22.33-9.67h3.36v2.1c.33-.51 1.77-2.57 4.39-2.57 1.03 0 2.15.37 2.99.79l-1.59 3.04c-.75-.51-1.45-.65-1.96-.65-1.36 0-2.2.56-2.71 1.21-.56.75-1.12 2.06-1.12 5.23v10.23h-3.36V21.09zm29.89 14.43c-.56 1.07-1.4 2.24-2.38 3.13-1.77 1.59-3.97 2.38-6.44 2.38-4.67 0-9.57-2.94-9.57-10.13 0-5.79 3.55-10.28 9.39-10.28 3.78 0 6.16 1.87 7.33 3.55 1.21 1.73 1.91 4.72 1.82 7.29h-15.09c.05 4.02 2.8 6.58 6.17 6.58 1.59 0 2.85-.47 3.97-1.4.89-.75 1.59-1.73 2.01-2.66l2.79 1.54zm-3.32-6.86c-.56-3.04-2.85-5.04-5.7-5.04s-5.18 2.15-5.7 5.04h11.4zm16.58-3.09c-.47-1.12-1.45-1.96-2.71-1.96-1.21 0-2.34.7-2.34 2.2 0 1.4.94 1.82 3.13 2.75 2.8 1.17 4.11 2.06 4.86 2.99.84 1.03 1.03 2.06 1.03 3.13 0 4.06-2.94 6.35-6.68 6.35-.79 0-5.14-.09-6.77-4.95l2.9-1.21c.37 1.03 1.5 3.18 3.92 3.18 2.2 0 3.17-1.64 3.17-3.08 0-1.82-1.31-2.43-3.13-3.22-2.34-1.03-3.83-1.77-4.72-2.85-.75-.93-.89-1.87-.89-2.85 0-3.41 2.38-5.42 5.65-5.42 1.03 0 3.78.19 5.32 3.5l-2.74 1.44zm11.82-19.15v21.86l7.1-7.19h4.39l-8.31 8.31 9.81 11.07h-4.39l-7.75-8.83-.84.84v7.99h-3.36V6.42h3.35zm18.02 4.95c1.31 0 2.38 1.07 2.38 2.38s-1.07 2.38-2.38 2.38c-1.31 0-2.38-1.07-2.38-2.38s1.07-2.38 2.38-2.38zm1.68 9.72v19.38h-3.36V21.09h3.36zm9.72-14.67v34.05h-3.36V6.42h3.36zm9.71 0v34.05h-3.36V6.42h3.36zm8.03 4.95c1.31 0 2.38 1.07 2.38 2.38s-1.07 2.38-2.38 2.38c-1.31 0-2.38-1.07-2.38-2.38s1.08-2.38 2.38-2.38zm1.68 9.72v19.38h-3.36V21.09h3.36zm6.36 0h3.36v2.24c.61-.79 2.34-2.71 5.56-2.71 2.29 0 4.39.93 5.56 2.66.98 1.45 1.12 3.04 1.12 5.18v12H252v-11.9c0-1.17-.09-2.52-.89-3.55-.65-.84-1.68-1.4-3.17-1.4-1.17 0-2.43.33-3.41 1.49-1.31 1.54-1.4 3.83-1.4 5.23v10.14h-3.36V21.09zm36.8 0h3.36v18.92c0 2.1 0 5.09-1.87 7.61-1.45 1.96-4.11 3.6-7.75 3.6-3.32 0-5.6-1.31-6.91-2.62-1.31-1.31-2.52-3.41-2.52-6.26h3.32c0 1.64.65 3.08 1.5 4.02 1.4 1.54 3.17 1.87 4.67 1.87 2.38 0 4.02-.84 5.14-2.71.98-1.59 1.07-3.32 1.07-4.95v-2.8c-1.12 1.45-3.22 3.27-6.63 3.27-2.85 0-5.14-1.12-6.63-2.62-1.31-1.31-2.8-3.74-2.8-7.66 0-3.78 1.4-6.12 2.8-7.52 1.64-1.59 4.02-2.61 6.63-2.61 2.85 0 5.09 1.21 6.63 3.22v-2.76zm-10.65 4.34c-1.64 1.68-1.96 3.74-1.96 5.32 0 1.68.33 3.97 2.2 5.7 1.07.98 2.38 1.59 4.16 1.59s3.18-.56 4.25-1.64c1.31-1.26 2.2-3.32 2.2-5.6 0-2.29-.84-4.3-2.06-5.47-1.07-1.07-2.66-1.73-4.39-1.73-2.07.01-3.47.9-4.4 1.83zm28.35.14c-.47-1.12-1.45-1.96-2.71-1.96-1.21 0-2.34.7-2.34 2.2 0 1.4.94 1.82 3.13 2.75 2.8 1.17 4.11 2.06 4.86 2.99.84 1.03 1.03 2.06 1.03 3.13 0 4.06-2.94 6.35-6.68 6.35-.79 0-5.14-.09-6.77-4.95l2.9-1.21c.37 1.03 1.5 3.18 3.92 3.18 2.2 0 3.17-1.64 3.17-3.08 0-1.82-1.31-2.43-3.13-3.22-2.34-1.03-3.83-1.77-4.72-2.85-.75-.93-.89-1.87-.89-2.85 0-3.41 2.38-5.42 5.65-5.42 1.03 0 3.78.19 5.32 3.5l-2.74 1.44zm14.8-19.15v15.55c1.68-2.29 4.2-3.04 6.49-3.04 2.85 0 5.42 1.07 7.24 2.8 2.01 1.91 3.27 4.76 3.27 8.22 0 3.22-1.12 6.21-3.27 8.36-1.82 1.87-4.06 2.85-7.14 2.85-3.69 0-5.56-1.73-6.59-3.22v2.52h-6.73V6.42h6.73zm1.07 19.85c-.79.84-1.5 2.05-1.5 3.83 0 1.73.75 2.99 1.54 3.74 1.07 1.03 2.57 1.54 3.83 1.54 1.17 0 2.47-.47 3.5-1.45a5.28 5.28 0 0 0 1.64-3.83c0-1.68-.65-3.04-1.64-3.97-1.07-1.03-2.24-1.4-3.6-1.4-1.43 0-2.69.42-3.77 1.54zm36.11-6.63h6.73v20.83h-6.73v-2.52c-1.82 2.8-4.44 3.22-6.17 3.22-2.99 0-5.51-.75-7.8-3.17-2.2-2.34-3.04-5.04-3.04-7.8 0-3.5 1.31-6.49 3.22-8.41 1.82-1.82 4.34-2.85 7.24-2.85 1.77 0 4.62.42 6.54 3.04v-2.34zm-8.55 6.59c-.7.7-1.54 1.92-1.54 3.78 0 1.87.79 3.08 1.4 3.74.94.98 2.38 1.64 3.97 1.64 1.36 0 2.62-.56 3.5-1.45.89-.84 1.64-2.15 1.64-3.92 0-1.49-.56-2.9-1.54-3.83-1.03-.98-2.52-1.45-3.74-1.45-1.45-.01-2.8.6-3.69 1.49zm20.5-6.59h6.72v2.47c2.06-2.61 4.48-3.04 6.45-3.04 1.82 0 4.2.33 5.98 2.1 1.96 1.96 2.1 4.44 2.1 6.12v13.17h-6.73v-10.7c0-1.35-.05-3.08-1.12-4.16-.51-.51-1.36-.94-2.57-.94-1.4 0-2.29.56-2.8 1.12-1.12 1.12-1.31 2.61-1.31 3.97v10.7h-6.72V19.64zm33.39-13.22V27.3l7.57-7.66h8.83l-9.9 9.43 10.6 11.4h-9.06l-8.03-8.97v8.97h-6.73V6.42h6.72zm39.88 24.8h-15.55c0 1.12.42 2.62 1.26 3.55 1.03 1.12 2.43 1.31 3.46 1.31.98 0 2.01-.19 2.71-.61.09-.05.89-.56 1.45-1.73l6.35.65c-.93 2.94-2.8 4.48-4.02 5.23-2.01 1.21-4.25 1.54-6.58 1.54-3.13 0-5.88-.56-8.31-2.99-1.82-1.82-3.13-4.58-3.13-8.03 0-2.99 1.07-6.07 3.18-8.22 2.52-2.52 5.65-2.99 7.99-2.99s5.7.42 8.27 3.13c2.47 2.61 2.94 5.88 2.94 8.45v.71zm-6.21-4.01c-.05-.19-.37-1.49-1.35-2.43-.75-.7-1.82-1.17-3.18-1.17-1.73 0-2.75.7-3.41 1.35-.51.56-.98 1.31-1.17 2.24h9.11zm10.42-7.57h6.72v2.47c2.06-2.61 4.48-3.04 6.45-3.04 1.82 0 4.2.33 5.98 2.1 1.96 1.96 2.1 4.44 2.1 6.12v13.17h-6.73v-10.7c0-1.35-.05-3.08-1.12-4.16-.51-.51-1.36-.94-2.57-.94-1.4 0-2.29.56-2.8 1.12-1.12 1.12-1.31 2.61-1.31 3.97v10.7h-6.72V19.64z"/></g></svg>