<svg height="30" viewBox="0 0 81 30" width="81" xmlns="http://www.w3.org/2000/svg"><g fill="none" transform="translate(.572848)"><path d="m37.7227773 8.8284375h2.5612666l4.1961175 12.271875h.0864404l4.2393378-12.271875h2.4522765l-5.3790356 14.65875h-2.7980381z" fill="#565368"/><path d="m52.6974311 23.48675h2.3240957v-10.39675h-2.3240957zm1.0214001-15.79825h.2812954c.6893504 0 1.2481536.55275 1.2481536 1.2355v.2785c0 .68275003-.5588032 1.236-1.2481536 1.236h-.2812954c-.6893504 0-1.2481535-.55324997-1.2481535-1.236v-.2785c0-.68275.5588031-1.2355 1.2481535-1.2355zm3.8436715 5.4015h2.2379901v1.5125h.0646424c.5163815-1.10775 1.4415756-1.76825 2.7758348-1.76825.4302759 0 .9251941.06375 1.4632915.42625l-.6024872 2.045c-.473455-.23425-.8822675-.34075-1.2910802-.34075-1.5708603 0-2.3240957 1.51275-2.3240957 3.3235v5.1985h-2.3240957zm12.1278456 8.798825c1.6569661 0 2.8834038-1.32075 2.8834038-3.6005s-1.2264377-3.6005-2.8834038-3.6005c-1.6355029 0-2.8619406 1.406-2.8619406 3.6855 0 2.28 1.2264377 3.5155 2.8619406 3.5155zm-.4088126-9.05475c1.5062181 0 2.6682659.554 3.3139322 1.811h.0861057c-.1078215-1.3635-.1078215-2.791-.1078215-3.494v-3.2595h2.3240957v15.59525h-2.2162742v-1.55525h-.0861057c-.6456663 1.257-1.9367464 1.81075-3.4861436 1.81075-2.6468026 0-4.691118-1.91725-4.691118-5.369 0-3.45125 2.1733477-5.53925 4.8633294-5.53925zm8.1809988 10.652675h2.3240957v-10.39675h-2.3240957zm1.1617953-15.65925h.0002525c.6890979 0 1.2479011.55325 1.2479011 1.23575v.00025c0 .68225003-.5588032 1.2355-1.2479011 1.2355h-.0002525c-.6890979 0-1.247901-.55324997-1.247901-1.2355v-.00025c0-.6825.5588031-1.23575 1.247901-1.23575z" fill="#565368"/><path d="m20.0680767 14.368075c-1.2797172-1.267-1.2797172-3.32125 0-4.58849997 1.2797172-1.26675003 3.3545862-1.26675003 4.6343034 0 1.2797172 1.26724997 1.2797172 3.32149997 0 4.58849997s-3.3545862 1.267-4.6343034 0zm-4.7794963 9.119-9.72691128-9.6305-.00454517-5.0575 5.10851595.00425 9.7269112 9.6305zm-15.2886814-8.36225c0 10.14875 4.77419358 14.875 15.0243041 14.875 10.2503631 0 15.0243041-4.72625 15.0243041-14.875 0-10.14825-4.773941-14.875-15.0243041-14.875-10.25011052 0-15.0243041 4.72675-15.0243041 14.875z" fill="#ff8269"/></g></svg>