<?xml version="1.0" encoding="utf-8"?>
<!-- Generator: Adobe Illustrator 23.0.3, SVG Export Plug-In . SVG Version: 6.00 Build 0)  -->
<svg version="1.1" xmlns="http://www.w3.org/2000/svg" xmlns:xlink="http://www.w3.org/1999/xlink" x="0px" y="0px"
	 viewBox="0 0 1417.32 896.63" style="enable-background:new 0 0 1417.32 896.63;" xml:space="preserve">
<style type="text/css">
	.st0{display:none;}
	.st1{display:inline;}
	.st2{fill:#EEB211;}
	.st3{fill:none;stroke:#FCB131;stroke-width:21.8405;}
	.st4{fill:none;stroke:#FCB131;stroke-width:3.0395;}
	.st5{display:inline;fill:#FFFFFF;}
	.st6{display:inline;fill:#FFFFFF;stroke:#008152;stroke-width:12.8413;}
	.st7{display:inline;fill:#FCB131;}
	.st8{fill:#008348;stroke:#000000;stroke-width:3.6453;}
	.st9{fill:#008348;}
	.st10{fill:#FAA61A;}
	.st11{fill:#ABE1FA;}
	.st12{fill:#006C32;}
	.st13{fill:#007DC5;}
</style>
<g id="Norges_bondelag" class="st0">
	<g class="st1">
		<path class="st2" d="M723.24,502.11c-4.45,2.36-9.01,4.52-13.77,5.05c-5.81,0.66-11.16,3.08-17.08,2.26
			c-1.79-0.25-3.55-1.19-4.03-3.19c-0.73-3.04-0.34-6.24,2.71-7.28c7.89-2.69,16.05-2.71,24.07-5.38c3.54-1.18,8.44-1.19,10.02,3.14
			C725.91,498.77,725.45,500.94,723.24,502.11z"/>
		<path class="st2" d="M553.61,462.98c10.71-7,7.95-20.6,2.39-30.39c-2.36-4.16,1.41-7.44,4.72-8.89
			c6.17-2.71,13.47,3.31,19.38,0.82c6.71-2.84,6.23-13.59,13.49-16.82c1.74-0.77,4.32-0.1,6.21,0.52c3.5,1.14,9.28,2.38,10.55-2.29
			c2.85-10.48-3.67-21.58,2.33-31.09c3.56-5.64,12.12-6.36,18.36-4.59c8.2,2.33,14,9.06,19.86,15.37
			c10.83,11.66,20.24,23.31,30.96,35.04c8.82,9.65,15.46,20.09,25.72,28.47c0.84,0.68,1.65-0.77,1.72-1.26
			c1.27-9.2-2.31-18.1-8.07-23.97c-9.41-9.6-15.37-21.08-26.63-28.71c-4.93-3.34-11.72-4.34-12.96-11.19
			c-0.48-2.66,1-5.06,1.43-7.59c1-5.9-1.9-11.33,0.56-17.04c1.15-2.68,4.49-3.78,7.49-2.23c4.64,2.39,8.35,6.05,13.58,3.99
			c6.63-2.61,12.41-17.26,18.24-6.41c2.39,4.45,2.06,9.8,3.39,14.83c3.57,13.53,8.76,25.56,12.38,39.14
			c0.39,1.45,0.89,3.34,2.51,4.12c4.24,2.04,8-0.5,9.23-4.17c2.19-6.5-3.52-11.17-6.76-16.63c-1.89-3.18-0.58-7.92,2.55-9.58
			c4.77-2.53,10.29,1.42,15.45,0.39c3.37-0.67,5.29-3.91,6.78-7.51c0.58-1.42,2.84-3.62,4.97-3.36c2.63,0.32,5.63,0.49,6.64,3.25
			c0.7,1.91,1.43,3.86,3.1,4.47c1.84,0.67,3.69-1.04,4.51-2.61c3.52-6.73,6.65-13.21,11.09-19.4c3.18-4.43,9.16,0.07,10.77,4.52
			c1.87,5.15-4.04,10.55-0.7,15.44c2.59,3.79,7.71,5.41,11.93,3.45c2.91-1.35,5.04-4.3,7.83-5.59c2.87-1.32,5.3,1.62,7.28,3.83
			c3.82,4.27,7.45,8.36,9.65,13.67c2.83,6.83,0.35,14.93,4.31,20.71c4.61,6.74,16.54,6.38,23.5,3.1
			c9.29-4.37,17.61-11.75,27.71-15.4c2.06-0.74,4.48-2,6.6-3.2c1.89-1.07,4.98-2.18,7.14-0.84c6.05,3.79,10.89,7.42,17.14,10.44
			c1.93,0.93,1.93,3.64,0.59,5.55c-3.22,4.62-9.34,1.08-13.1,2.95c-5.26,2.61-8.22,11.95-3.48,16.9c1.7,1.78,5.14,0.78,7.05-0.16
			c2.57-1.26,6.46-1.35,7.27,0.63c4,9.77-3.79,19.49-4.47,29.37c-0.1,1.44,0.47,4.33,2.32,5.24c4.44,2.21,8.46,4.74,13.56,5.99
			c1.78,0.44,3.86,1.68,4.6,3.28c2.02,4.38,1.57,10.26,6.55,11.98c5.19,1.79,10.17,2.94,14.76,6.13c3.5,2.43,7.11,5.08,8.77,8.74
			c2.92,6.41-5.89,10.3-11.14,12.44c-3.53,1.44-7.67,5.35-5.94,9.19c3.06,6.79,2.61,16.09-3.96,19.74
			c-6.49,3.61-13.62-1.19-19.39-3.86c-15.97-7.38-31-15.35-48.57-19.16c-2.84-0.62-3.77,4.24-1.66,6.64
			c3.79,4.32,6.2,8.99,9.63,13.59c4.64,6.23,8.25,12.63,12.25,19.24c2.1,3.47,5.43,7.1,3.99,12.04c-0.32,1.09-1.8,1.01-2.07,1.01
			c-8.47-0.04-16.08-4.54-24.78-6.24c-3.2-0.63-6.27-1.65-9.54-0.84c-2.62,0.65-3.87,3.15-2.48,5.18c2.54,3.71,5.59,7.09,9.49,8.74
			c4.13,1.75,8.29-1.9,12.33-4.17c2.56-1.44,4.87,0.6,6,3.21c3.41,7.94,1.98,15.94-0.23,23.94c-0.97,3.53-4.14,6.41-7.77,3.92
			c-8.44-5.79-15.68-11.19-22.06-19.04c-7.3-8.99-14.68-16.65-23.09-24.29c-3.64-3.3-6.65-6.86-11.05-9.75
			c-11.11-7.27-14.59-19.99-23.84-28.87c-1.63-1.56-4.06-2.5-5.07-4.44c-1.56-3-2.23-6.88-4.19-9.02
			c-5.94-6.47-15.36-9.03-17.78-18.91c-0.58-2.38-3.76-3.44-6.32-4.51c-3.62-1.51-5.23-6.41-2.01-9.13
			c1.59-1.34,3.94-1.89,6.03-2.05c6.17-0.5,12.5,1.78,18.43-0.47c13.42-5.11,27.43-6.2,41.27-5.33c4.48,0.28,9.35,0.46,13.74,2.25
			c5.35,2.18,10.1,5.23,15.84,6.77c13.93,3.74,26.41-3.01,36.72-11.42c4.14-3.38,4.77-9.34,4.17-14.63
			c-0.4-3.48-4.13-4.38-7.16-3.26c-11.52,4.27-21.89,10.51-33.18,15.27c-3.33,1.4-8.04,0.56-9.07-3.23
			c-1.85-6.81,0.02-13.91,2.67-20.63c0.96-2.42,2.33-5.89-1.07-7.33c-1.99-0.84-3.8,0.81-5.26,1.64c-6.39,3.6-12.46,9.72-20.02,7.57
			c-5.64-1.6-10.91-3.62-16.46-2.04c-2.4,0.68-5.05,1.85-6.83,3.86c-3.42,3.87-6.89,7.27-10.73,10.52
			c-2.21,1.87-4.65,4.21-7.93,3.01c-2.19-0.8-4.32-3.04-3.24-5.31c6.61-13.9,20.62-19.09,33.33-27.05c2.39-1.5,3.77-3.83,5.52-6.08
			c0.41-0.53-0.27-1.29-0.55-1.16c-12.49,5.71-24.61,10.76-36.88,16.88c-6.46,3.22-10.97,10.02-18.71,12.18
			c-2.67,0.74-5.44,3.33-5.78,5.88c-0.55,4.12-3.83,8.27-7,5.67c-6.65-5.47-8.07-13.79-9.15-22.23c-0.37-2.9-2.73-4.22-4.46-5.08
			c-2.74-1.36-7.94-0.77-8.08,2.38c-0.44,9.79,1.1,20.1-2.49,29.32c-0.67,1.72-1.68,4.51-4.36,4.91c-1.6,0.24-3.33,0.45-4.72-0.11
			c-3.52-1.41-5.85-4.45-8.11-7.52c-20.51-27.82-41.58-50.08-63.45-76.03c-1.78-2.11-4.57-2.45-6.91-3.11
			c-4.69-1.33-10.39,2.02-10.62,7.19c-0.16,3.61,2.14,6.18,4.72,8.73c16.87,16.66,37.1,27.13,52.45,45.72
			c3.9,4.73-2.3,12.44-7.03,10.21c-19.31-9.08-31.81-26.84-50.66-37.44c-3.39-1.91-7.44-0.55-9.9,3.08
			c-0.45,0.66-0.46,2.05,0.01,2.48c9.74,9.04,21.21,14.97,29.45,25.38c2.97,3.76,3.24,9.7,3.48,14.65
			c0.4,8.38-7.75,14.01-14.75,17.39c-7.5,3.62-16.17,1.15-24.49,2.02c-1.36,0.14-3.05,1.29-3.18,2.57c-0.26,2.5,1.92,4.95,1.52,7.48
			c-0.71,4.48-5.9,6.23-7.4,9.89c-0.95,2.31,3.75,3.82,6.24,3.03c8.45-2.7,16.32-6,24.88-8.38c6.57-1.82,12.34-4.54,19.05-6.17
			c6.59-1.6,12.76-3.36,19.28-2.83c1.51,0.12,2.13,2.55,1.78,3.73c-1.28,4.31-4.11,7.75-6.66,11.7
			c-5.82,9.04-13.43,15.71-18.03,24.99c-2.02,4.08,2.56,7.62,6.52,8.34c12.21,2.22,21.26-6.82,31.65-11.72
			c7.5-3.54,15.54-2.48,23.42,0.63c3.61,1.43,6.95-2.87,10.83-3.38c5.65-0.74,8.89,5.54,5.78,9.79
			c-9.99,13.66-21.93,23.17-31.01,37.49c-3.79,5.97-7.25,13-4.04,19.63c0.64,1.32,2.76,2.62,4.43,1.99
			c5.99-2.27,12.35,0.68,17.78-2.16c2.48-1.29,4.74-4.09,4.08-7.2c-0.97-4.52-3.05-8.67-2.09-12.99c0.8-3.61,3.82-6.52,5.34-9.89
			c0.88-1.96,1.89-4.4,2.18-6.72c0.36-2.91,1.45-6.14,3.75-6.33c1.18-0.1,4-0.72,4.65,1.59c0.82,2.92-1.48,6.79,1.09,8.45
			c3.25,2.1,7.66-0.34,7.69-4.36c0.05-7.61,4.15-14.14,5.17-21.37c1.08-7.63,8.68-13.57,14.77-12.01
			c5.44,1.39,12.76,0.79,15.13,6.69c1.21,2.99,1.59,6.4,2.67,9.39c2.11,5.83,4.31,11.72,5.41,17.94c0.38,2.15,1.69,4.65,3.89,5.28
			c7.95,2.26,15.61,3.03,23.15,6.07c7.22,2.91,13.97,6.35,20.44,11.07c7.42,5.43,11.9,12.84,18.97,18.66
			c7.75,6.37,21.45,11.33,19.33,22.75c-0.63,3.41-5.22,1.56-7.98,0.64c-5.44-1.8-11.18,4.13-12.97,9.32
			c-1.18,3.45-0.64,8.72-4.81,11.23c-0.87,0.52-2.36,0.52-3.23,0c-10.86-6.49-18.92-15.23-27.58-23.86
			c-2.98,7.78,1.02,16.49-3.12,23.83c-3.93,6.99-10.78,11.91-11.86,20.14c-0.57,4.38-0.53,8.67,0.21,12.97
			c4.65,27.01,6.63,52.25,10.04,79.03c2.09,16.4,7.79,31.77,7.81,48.08c0,3.21-2.71,6.21-6.49,6.94c-4.35,0.84-9.41,0.68-13.19-0.22
			c-8.21-1.95-16.1-0.18-24.59,1.54c-5.42,1.1-9.76,4.35-15.12,4.66c-3.97,0.23-7.68-0.65-11.76-1.49
			c-8.79-1.8-16.83,2.04-25.35,2.62c-5.65,0.38-11.4-3.33-16.61-4.11c-10.17-1.53-20.74,0.26-30.57-2.95
			c-5.09-1.66-11.27-2.74-14.3-7.86c-2.33-3.94-2.33-8.67-1.21-13.6c5.43-23.77,12.93-45.54,13.7-69.33
			c0.21-6.61,0.77-13.12-0.17-19.95c-1.19-8.61,1.89-16.86,1.65-25.37c-0.2-7.23-2.83-13.59-6.6-20c-0.69-1.17-0.16-2.68-0.43-4.12
			c-1.58-8.6,5.32-15.87,4.38-23.88c-2.01-17.1-7.79-37.59-24.41-45.2c-6.87-3.14-12.8,6.18-17.96,11.62
			c-1.81,1.91-3.08,4.52-4.72,6.31c-6.81,7.45-11.56,15.78-18.12,23.06c-11.91,1.39-10.72-14.2-15.5-21.73
			c-4.28-6.74-10.98,0.06-16.86,1.45c-4.91,1.16-8.06-3.51-5.8-7.72c4.25-7.88,10.41-13.73,17.75-19.13
			c3.36-2.47,7.42-3.49,10.54-6.07c21.41-17.78,42.52-33.25,57.08-57.49c0.08-0.14-0.77-1.14-1.17-1.09
			c-16.44,2.05-33,8.11-41.23,22.87c-2.83,5.09-5.16,11.35-11.03,13.23c-4.8,1.54-9.06-1.38-13.56-2.47
			c-3.99-0.97-8.01-1.47-11.94-2.2c-8.88-1.63-17.51-3.42-26.76-1.1c-1.23,0.31-3.35-0.43-4.47-1.28c-1.55-1.17-3.07-3.36-2.24-5.86
			c1.74-5.25,8.63-4.29,10.64-9.07c1.32-3.12,0.72-6.81-1.42-9.18c-4.66-5.18-12.59-6.15-18.8-5.55c-2.94,0.29-6.54,4.22-10.32,2.96
			c-2.6-0.87-4.11-2.36-4.77-5.3c-1.09-4.89,0.66-9.35,2.29-13.58c1.04-2.71,3.4-5.34,6.01-6.67c10.82-5.51,21.29-10.43,31.96-16.4
			C550.93,465.97,551.86,464.12,553.61,462.98z M570.83,490.96c-6.53-1.53-12.2-4.1-18.66-5.7c-5.49-1.35-10.82,1.69-15.04,5.2
			c4.61,6.97,14.07,7.15,21.33,7.51c5.22,0.26,11.92,0.47,15.36-4.36C574.43,492.76,572.74,491.41,570.83,490.96z M604.35,447.46
			c-5.76-2.11-10.86-5.55-17.09-6.36c-3.32-0.43-6.69-0.59-9.47,1.48c-3.08,2.29-2.64,6.36,1.27,7.2
			c7.85,1.68,15.08,3.06,22.52,5.33c7.63,2.33,14.89,5.26,22.81,6.21c1.19,0.14,2.75-1.15,3.25-2.5c0.79-2.11,0.21-4.42-1.97-5.3
			C618.78,450.71,611.42,450.05,604.35,447.46z M574.9,516.08c-6.2-0.18-19.53-1.78-18.91,6.65c0.12,1.61,2.44,2.72,3.9,3.1
			c9.58,2.53,19.39,7.31,28.47,3.75c2.57-1.01,6.06-5.87,3.9-8.47C588.34,516.38,581.04,516.26,574.9,516.08z M625.77,566.74
			c2.14-2.14,3.85-4.41,5.32-6.98c2.13-3.75,1.02-7.77-0.08-11.53c-0.45-1.53-2.27-2.99-3.74-1.92
			c-13.78,9.95-25.51,19.7-35.91,32.59c-2.62,3.25-0.6,8.74,3.65,10.82c2.06,1.01,5.19,1.03,7.21-0.01
			C612.26,584.53,617.83,574.66,625.77,566.74z M700.03,395.01c0.16-6.27,0.3-12.83-2.08-18.29c-2.69-6.15-13.45-2.73-16.36,2.62
			c-1.04,1.91,0.44,4.47,1.52,5.73c4.83,5.62,7.8,13.48,14.92,15.42C698.85,400.71,699.97,397.39,700.03,395.01z M751.01,414.82
			c1.31-5.36,1.38-10.73,0.29-16.36c-0.33-1.69-1.67-2.86-3.22-1.93c-4.54,2.73-3.48,7.93-4.34,12.32
			c-0.83,4.24-0.11,10.3,4.4,11.79C750.73,421.49,750.47,417.03,751.01,414.82z M773.97,418.25c5.58-5.77,12.51-9.79,15.65-17.17
			c2.09-4.91-4.24-6.16-7.67-8.59c-3.46-2.45-7.15-2.48-9.19,1.17c-6.07,10.9-10.34,21.84-16.3,32.69c-1.26,2.3-4.94,3.51-6.03,5.92
			c-1.21,2.69-0.6,6.22-0.31,9.42c0.05,0.51,0.77,1.05,1.19,0.61C759.11,434.19,766.15,426.34,773.97,418.25z M863.19,440.27
			c-0.96,2.75-0.02,6.33,2.26,6.42c6.7,0.25,13.91-3.12,16.64-9.32c2.19-4.97,0.98-11.74-3.94-14.25
			C869.36,418.61,865.61,433.28,863.19,440.27z M892.3,517.49c8.42,1.68,18.57,12.04,24.64,4.05c2.82-3.71,3.71-9.44,8.82-11.43
			c2.52-0.98,2.05-5.24-0.62-5.64c-17.78-2.65-34.66-2.03-52.01,2.38c-3.48,0.88-0.45,4.51,1.98,5.41
			C880.77,514.36,886.28,516.29,892.3,517.49z M852.08,536.71c-4.45-5.78-6.34-12.21-8.75-18.73c-1-2.71-3.64-4.99-6.71-4.04
			c-5.82,1.81-7.54,8.42-5.31,13.51c2.44,5.58,7.53,9.34,10.47,14.68c1.47,2.66,1.21,5.9,2.17,8.59c2.14,6.05,10.47,5.96,16.67,5.67
			C862.79,548.9,856.48,542.41,852.08,536.71z M813.89,499.95c5.37-0.94,11.98-0.38,15.13-5.36c-6.99-5.75-17.06-3.24-25.41-3.13
			c-0.93,0.01-2.25,1.39-2.53,2.5c-0.69,2.67,1.32,5.53,0.27,8.1c-1.11,2.72-3.5,4.82-4.52,7.67c-0.65,1.83-0.06,3.84,0.83,5.33
			c0.89,1.49,1.65,3.44,3.27,4.09c3.15,1.24,4.27,4.5,7.32,6.01c0.78,0.39,1.42,2.09,2.34,2.98c0.36,0.35,1.71,0.16,1.72,0.09
			c0.7-7.03-5.43-11.51-7.17-17.88c-0.47-1.74-0.53-3.72,0.03-5.39C806.28,501.59,810.34,500.57,813.89,499.95z M764.31,559.04
			c1.37-2.03,1.89-4.33,0.84-6.76c-0.43-0.99-1.31-0.64-2.06-0.69c1.64-3.2-1.13-7.05-2.48-9.75c-1.83-3.68-1.38-11.77-6.26-10.25
			c-3.52,1.09-3.89,7.22-3.98,11.06c-0.01,0.3-0.57,1.64-0.68,2.14c-1.15,5.11-0.58,10.36,2.05,14.84
			C754.18,563.81,761.57,563.11,764.31,559.04z M823.23,606.7c1.4,2.49,3.12,4.58,5.27,5.69c3.96,2.05,6.37-2.79,7.87-5.96
			c0.63-1.33,0.68-3.33-0.02-4.58c-1.07-1.9-2.75-3.55-4.68-4.77c-3.67-2.33-8.74-3.26-10.23-6.64c-2.12-4.8-7.78-9.22-12.21-8.54
			c-4.48,0.69-1.7,7.22,0.79,10C814.53,596.96,819.93,600.81,823.23,606.7z M671.48,566.48c7.53-9.24,15.87-16.85,22.24-26.57
			c-1.08-0.27-0.3-1.99-1.37-1.96c-12.23,0.4-21.72,8.28-30.03,16.57c-2.05,2.04-0.83,5.63-2.51,7.85
			c-1.22,1.62-4.06,1.63-5.11,3.69c-1.99,3.9-0.45,8.03,3.38,10.11c0.72,0.39,1.84,0.35,2.63,0.02
			C665.4,574.29,668.38,570.3,671.48,566.48z M710.26,634.65c2.57,3.43-3.05,6.54-0.97,8.48c7.1,6.62,19.18,4.89,27.32,1.6
			c11.47-4.62,23.83-0.93,35.35-2.29c5.4-0.64,13.72-3.94,11.73-11.19c-10.78-5.08-24.44-2.9-35.51-8.63
			c-1.79-0.92-3.62-3.46-2.66-5.67c1.19-2.74,5.17-2.95,6.96-5.18c1.21-1.51-1.25-3.02-2.56-3.62c-13.43-6.15-27.96-3.83-42.52-0.49
			c-4.99,1.14-8.93-3.44-13.58-1.58c-4.24,1.69-8.08,4.07-11.1,7.98c-4.88,6.33-8.84,18.67,0.22,21.27
			c8.44,2.41,14.63-12.83,23.58-12.29C707.27,623.11,709.75,633.97,710.26,634.65z M699.55,658.07c-0.06-0.69-0.76-2.21-1.76-2.65
			c-4.33-1.89-8.94-3.56-13.61-1.98c-1.62,0.55-3.09,2.35-3.22,3.93c-0.87,10.99,0.12,21.94-0.5,32.93
			c-0.66,11.76-4.21,23.24-3.57,35.02c0.19,3.44,0.59,6.88,0.12,10.29c-1.86,13.55-5.69,25.65-8.27,39.26
			c-1,5.28-2.98,10.35-1.57,15.65c1.47,5.48,7.55,8.53,12.79,8.08c2.87-0.25,4.79-2.11,5.99-4.68c4.06-8.65,2.71-17.95,4.72-27.29
			c0.67-3.09,0.9-7.12,4.44-8.22c1.95-0.6,4.56,0.5,4.98,1.47c2.93,6.86-2.32,13.67-3.38,20.54c-0.9,5.89-2.01,14.36,4.08,18.79
			c2.7,1.96,6.3,0.91,9.31,0.02c3.69-1.09,4.75-5.38,5.8-8.79c6.33-20.51,0.15-41.09,3.31-62.44c1.94-13.08-0.43-25.94,1.05-39.01
			c1.08-9.54,2.39-18.72,1.2-28.16c-0.34-2.7-3.67-4.37-6.41-3.33c-1.93,0.73-2.82,2.94-3.18,4.72
			c-2.53,12.43-1.37,24.19-4.66,36.27c-0.59,2.16-1.8,4.47-3.96,5.39c-2.26,0.95-5.29-0.08-5.59-1.97
			C695.36,687.04,700.75,672.81,699.55,658.07z M752.24,663.48c-2.1-5.38-8.67-5.7-13.29-7.19c-3.11-1-7.18,0.76-7.79,3.88
			c-2.01,10.28-0.53,20.02,0.22,30.16c1.19,16.01-1.62,31.46-3.15,47.4c-0.72,7.49,0.59,14.49,2.38,22.01
			c1.8,7.6-3.79,14.95-1.19,21.67c2.5,6.44-2.03,15.15,5.03,17.49c3.9,1.3,11.02,4.79,12.42-1.53c1.25-5.66-0.37-11.47,1.37-16.99
			c1-3.16,3.76-7.56,7.92-6.1c0.99,0.35,2.26,0.75,2.77,1.91c2.8,6.27,1.35,15.5,7.85,17.74c6.13,2.11,13.4,2.51,20.29,0.63
			c1.71-0.47,1.91-2.53,1.22-3.86c-1.22-2.38-4.09-3.19-6.52-4c-3.17-1.06-5.53-4.62-6.71-7.89c-4.51-12.54-1.27-26.84-9.69-38.01
			c-2.12-2.81-5.04-5.35-6.12-8.68c-3.74-11.61-0.86-23.32-3.29-35.7c-1.76-9.01,1.1-17.84-1.48-26.6
			C753.9,667.73,753.06,665.58,752.24,663.48z M783.97,610.82c1.46-1.99,1.76-5.88-0.79-6.71c-4.78-1.55-8.75,3.62-12.16,6.78
			C774.84,613.13,780.97,614.9,783.97,610.82z"/>
	</g>
	<g class="st1">
		<path d="M200.99,201.05c1.86-0.1,3,1.35,3.52,1.97c1.55,1.66,3.11,5.08,4.66,7.15c1.55,2.18,3,5.08,4.45,7.56
			c1.55,2.38,3,5.39,4.25,7.77c1.14,2.49,3.52,5.18,4.87,7.46c1.14,2.18,2.69,5.49,4.14,7.46c0.1,0.1,1.35,0.52,1.14-0.1
			c0.1-3.11-0.31-6.32,0-9.22c0.41-2.8,0-6.22,0.1-9.12c0.1-2.9,0.31-5.59-0.1-9.01c-0.41-3.32-1.04-5.59-0.21-8.6
			c0.73-1.45,0.41-2.59,1.66-3.52c2.38-1.35,5.18,0,7.56,0.21c0.93,0,2.28,1.76,2.49,2.28c0.62,2.69-0.1,7.15-0.1,9.94
			c0,2.8,0.1,6.84-0.1,9.84c-0.21,3,0.1,6.94-0.21,9.74c-0.41,2.8,0.1,7.04-0.1,9.95c-0.21,2.8-0.62,6.73-0.21,9.53
			c0.52,3,0.41,7.15-0.1,10.05c0,1.04-1.76,2.8-3.21,3c-1.35,0.31-3.32-0.1-4.66-0.1c-0.93,0.1-3.21-1.04-3.63-1.66
			c-1.35-1.76-3-5.08-4.25-7.87c-1.14-2.59-3.21-4.77-4.66-6.94c-1.55-2.38-3-5.8-3.94-7.98c-0.83-2.28-2.9-5.28-4.56-7.46
			c-1.66-2.17-3.31-4.87-4.66-7.15c-1.35-2.28-3.32-5.08-4.66-7.36c0.21-0.21-1.04,0.52-0.62,0.31c0.21,2.28-0.62,5.28-0.62,8.49
			c0,3.31,0.21,6.11,0.41,8.81c0.31,2.69-0.31,6.11,0,8.49c0.41,2.38-0.21,6.22-0.1,8.6c0.1,2.38,0.62,6.32-0.52,9.01
			c-0.62,0.73-1.24,2.18-2.18,2.49c-2.07,0.72-5.39,0.31-7.15-0.21c-0.52-0.21-1.76-0.83-2.28-2.38c-0.83-3.73-0.52-6.84-0.1-9.94
			c0.41-3,0.21-6.01,0.41-9.63c0.21-3.73-0.52-7.04-0.21-9.84c0.41-2.8,1.04-6.73,0.72-9.63c-0.31-3.11,0-6.94-0.21-10.15
			c-0.21-3.11-1.14-6.84,0-9.53c0.83-1.14,2.38-2.28,3.52-3.11C194.16,199.5,197.37,200.12,200.99,201.05z"/>
		<path d="M269.38,215.24c1.66-2.28,2.69-3.11,4.45-5.28c1.97-2.28,3-4.14,5.39-5.59c2.59-1.45,5.39-2.18,7.67-2.8
			c2.38-0.52,4.97-1.35,8.08-1.76c2.9-0.41,5.59-0.1,7.67,0.72c1.97,0.73,4.76,0.83,7.15,2.07c2.59,1.24,4.35,2.8,6.63,4.56
			c2.18,1.55,3.63,3.63,4.66,5.8c1.04,1.97,2.18,4.35,3,6.11c0.83,1.97,1.04,4.87,1.66,7.67c0.52,2.8,0.62,5.49,0.62,7.87
			c0,3.11-0.62,6.84-1.66,9.84c-0.93,2.8-2.07,6.42-3.63,8.81c-1.66,2.38-4.66,5.39-6.94,7.15c-1.86,1.45-5.28,2.69-7.67,3.63
			c-1.97,0.72-4.45,0.83-7.04,1.24c-2.69,0.41-4.56,0.83-7.46,0.31c-2.9-0.52-4.87-0.72-7.46-1.24c-2.18-0.52-4.45-0.83-6.01-2.38
			c-1.76-1.76-3.63-2.8-5.39-4.87c-1.76-2.07-2.8-3.52-4.25-5.9c-1.55-2.8-2.59-5.8-2.69-8.18c-0.21-2.49-0.73-6.32-0.93-9.22
			c-0.31-3.63,0.31-7.98,1.35-11.4C267.41,220.32,268.45,217.01,269.38,215.24z M285.13,251.71c0.93,1.76,3,2.18,4.45,3.21
			c1.04,0.93,2.28,1.14,4.14,1.24c1.86,0.1,3,0.52,4.25-0.1c1.76-0.73,3.42-0.41,5.28-1.55c1.86-1.14,2.8-2.9,3.83-3.83
			c1.04-0.93,2.59-3.31,2.8-4.56c0.21-1.04,0.52-2.69,1.04-4.66c0.62-2.69,0.62-4.14,0.52-6.84c-0.1-3.21,0.73-5.39,0.41-8.49
			c-0.21-2.59-0.83-4.45-1.66-6.53c-0.62-1.66-2.18-2.9-2.69-4.56c-0.31-1.24-1.86-1.55-2.9-2.8c-1.14-1.24-2.59-0.93-3.94-1.55
			c-1.45-0.72-3-0.62-4.56-0.31c-1.55,0.31-2.49,0.1-4.35,0c-1.76,0-2.69,0.83-3.94,1.66c-1.45,1.04-2.8,3.11-3.42,3.94
			c-0.62,0.83-2.59,2.69-2.9,4.25c-0.31,1.76-1.66,3.73-1.45,5.49c0.1,2.18-0.21,4.76-0.1,6.94c0.21,2.9-0.83,6.22,0,9.01
			c0.72,2.07,1.04,4.56,2.59,6.32C283.78,249.02,283.68,250.98,285.13,251.71z"/>
		<path d="M382.99,201.05c2.69,0.31,3.83,1.24,6.32,2.9c2.38,1.66,3.83,3.21,4.97,4.56c0.93,1.14,1.35,4.14,2.28,5.49
			c0.83,1.45,0.31,4.25,0.52,6.11c0.1,1.86-0.21,4.35-1.35,6.01c-0.93,1.24-1.76,2.8-2.18,4.35c-0.31,1.35-2.38,1.97-3,3.11
			c-0.72,1.14-3.42,1.55-4.25,2.59c0.1,0.52-1.14,1.35-1.14,1.55c0.21,1.55,1.24,4.25,2.59,5.7c2.38,3.83,4.25,8.39,6.11,12.64
			c1.04,2.69,2.8,4.35,4.25,7.46c0.52,0.83-0.21,1.55-0.52,1.35c-3.63,0.21-7.67,1.14-11.39,0.21c-1.14-0.52-2.69-0.31-2.8-1.55
			c-0.83-2.28-2.49-3.73-3-6.11c-1.14-3.52-3.42-6.63-4.45-9.84c-0.41-2.18-1.55-4.04-2.59-6.63c-0.31-1.24-1.45-1.35-1.86-1.55
			c-1.14-0.31-3-1.14-4.87-0.31c-1.04,0.62-1.35,1.55-1.45,1.97c-0.31,3-0.62,6.84-0.21,10.46c0.31,3.94-0.31,7.25-0.31,11.19
			c0.41,1.24-0.93,1.97-1.55,2.38c-2.69,0.93-6.01,1.04-9.43,0c-1.04-0.52-1.35-0.62-1.35-1.97c-0.21-3.73-0.41-6.32,0.1-9.95
			c0.52-3.52,0.1-6.42,0.1-9.63c-0.1-3.52,0.21-6.73,0.1-10.15c-0.21-3.42,0.41-6.94,0.41-9.84c-0.1-2.9-0.83-6.73-0.21-9.84
			c0.62-3-0.31-6.94,0.62-9.63c0.52-1.04,1.55-3.11,2.49-3.42c5.91-1.04,13.05-0.21,19.27,0
			C377.61,200.85,380.09,200.12,382.99,201.05z M365.17,228.4c0.41,1.04,1.04,1.45,1.87,1.04c2.59-0.21,4.56,0.62,7.56,0.21
			c1.76-0.31,2.59-0.93,3.63-1.04c1.14-0.1,3-1.04,3.42-2.18c0.52-1.04,1.04-2.59,1.76-3.52c0.83-1.04,0.52-2.8,0.83-4.45
			c0.41-1.76-1.45-3.32-1.76-4.45c0-0.52-1.35-0.93-2.28-1.76c-0.93-0.93-2.38-0.21-2.9-0.93c-0.62-0.72-2.8,0.21-3.52-0.31
			c-1.14-0.52-3,0-4.66-0.62c-0.83-0.41-1.04,0.31-2.07,0.1c-0.93-0.21-1.35,0.73-1.04,1.24
			C365.8,217.21,364.76,222.39,365.17,228.4z"/>
		<path d="M475.88,213.48c0,0.41-1.97,0.83-2.59,0.83c-1.55-0.21-3.73-1.97-5.28-2.18c-1.97-0.31-4.97-1.66-6.63-1.55
			c-1.66,0.1-4.66-0.62-6.53-0.41c-2.07,0.21-5.18,0.93-6.73,2.49c-1.35,1.45-3.83,2.8-5.08,4.45c-1.55,1.86-3.11,4.45-3.11,7.15
			c-0.1,3.32-0.83,6.63-0.31,9.43c0.41,2.8-0.1,5.7,1.04,9.12c1.04,2.69,0.93,5.08,2.69,6.63c1.66,1.35,2.59,3.52,4.56,4.66
			c1.86,1.14,3.73,1.04,6.22,1.66c2.38,0.52,4.35-1.04,6.32-0.93c1.14,0.1,2.9-0.41,3.52-0.62c0.1,0,0.62-0.52,1.04-1.24
			c0.93-5.59-0.21-10.77,0.62-16.37c0.21-1.76,1.97-2.9,3-3.52c1.76-0.93,4.35-0.73,6.63,0c1.76,0.52,2.8,2.07,3,3.73
			c0.52,3.83-0.21,7.77-0.41,11.08c-0.1,3.52,0.52,8.39,0,11.6c-0.21,0.52-0.62,2.18-1.66,2.49c-1.55,0.62-3.32,1.86-4.56,1.66
			c-1.35-0.1-3.11-0.1-5.18,0.52c-2.28,0.62-3.83,1.55-5.7,1.24c-2.69-0.21-5.18,0.41-8.18,0.41c-3.42,0-6.53-0.72-9.32-1.97
			c-2.28-1.04-5.39-1.76-6.94-3.32c-1.66-1.76-4.04-4.35-5.28-6.22c-1.14-1.55-2.28-4.56-3.42-6.73c-1.55-3.21-1.55-7.36-2.38-10.88
			c-0.72-3,0.31-6.11,0.41-9.74c-0.1-2.9,0.83-4.76,1.76-7.35c1.14-3.21,2.18-6.22,4.45-8.29c1.87-1.66,3.52-4.14,5.49-5.39
			c1.55-0.93,3.42-2.59,5.59-3.32c2.28-0.62,3.94-1.55,6.32-2.07c2.59-0.72,5.18-0.41,7.36-0.62c2.9-0.31,6.01,0.62,9.43,0.62
			c2.8,0,4.87,0.62,7.36,1.76c1.55,0.83,2.28,0.83,3.73,1.97c1.24,1.04,1.55,2.49,1.45,3.11
			C478.37,209.03,477.65,211.52,475.88,213.48z"/>
		<path d="M546.94,208.82c0.1,0.93-0.93,2.17-2.59,2.69c-3.63,0.93-6.22-0.31-9.94,0c-3.73,0.41-6.94-1.14-10.05-0.52
			c-0.31,0.52-0.83,0.83-0.93,1.14c-0.31,4.45-0.72,10.05-0.1,14.19c0.31-0.21,0.31,0.31,0.93,0.62c3,0.62,6.01,0.1,8.49,0.31
			c2.69,0.21,6.11-0.52,9.22,0.21c0.83,0.52,1.66,0.83,1.97,1.14c0.62,1.66,0.52,4.45-0.21,6.53c-0.41,1.35-0.83,2.59-2.49,2.9
			c-6.11,0.93-11.5-0.1-17.3-0.21c-0.83-0.41-1.04,1.04-1.14,1.55c-0.52,4.45-1.35,8.91-0.41,13.67c0.52,0.93,1.24,1.14,1.55,1.24
			c3.11,0.31,6.42-0.1,10.36,0.1c3.94,0.21,6.42-0.21,10.36,0.41c1.76,0.31,2.9,0.83,3.11,2.38c0.52,2.28,0,4.25-0.31,6.11
			c0,0.93-1.14,2.49-2.28,2.07c-3.83,0-7.56,0.21-11.19-0.31c-3.83-0.41-7.46-0.31-11.71-0.31c-4.14,0-7.77,0.93-11.29,0.31
			c-0.72-0.31-2.28-0.83-2.07-2.07c-0.21-3.73,0.21-6.84,0.1-10.46c-0.21-3.42,0-6.42,0.1-9.43c0-3.31,0.62-7.25,0.52-10.46
			c-0.21-3,0.21-6.42,0.21-9.84c-0.1-3.42-0.62-6.84-0.31-9.95c0.31-3-0.62-6.84,0.41-9.74c0.62-0.83,1.04-1.45,2.59-2.18
			c3.94-1.14,7.15-0.52,10.36-0.1c3.42,0.41,7.25,0.1,10.98,0.1c3.63-0.1,7.67-0.31,10.77-0.41c0.72-0.31,1.86,1.04,2.59,2.07
			C548.39,204.57,547.04,207.27,546.94,208.82z"/>
		<path d="M584.16,252.74c2.59,0.41,4.56,0.83,6.22,1.45c1.55,0.52,4.04,0.62,5.59,0.62c1.24,0,3.52,0.93,4.77-0.21
			c1.24-1.14,2.38-2.38,3.73-3.32c1.24-0.72,1.14-2.07,1.86-3.94c0.52-1.45,0.1-1.76-0.83-3c-1.14-1.66-2.18-1.97-3.11-3.11
			c-1.55-1.55-3.83-2.07-6.11-2.9c-2.49-0.83-4.97-1.55-7.15-2.69c-1.66-0.83-3.42-1.14-5.39-2.59c-1.86-1.55-3-1.86-4.56-3.32
			c-1.76-1.76-3-3.73-3.83-5.7c-0.73-2.18-0.52-5.39,0.21-7.36c0.72-2.07,1.55-5.28,2.8-7.15c1.24-1.97,3.63-4.45,5.49-5.8
			c1.76-1.24,4.35-1.76,7.04-2.69c3.32-1.14,6.53-1.45,9.12-1.35c2.07,0.1,5.49,0.41,7.56,0.93c1.35,0.41,3,1.14,5.08,1.55
			c1.24,0.1,1.35,0,2.49,1.04c1.14,1.24,1.35,1.86,1.45,2.9c-0.1,2.38-1.24,4.56-2.69,6.84c-0.72,0.93-2.18,1.45-2.59,1.24
			c-0.62-0.21-1.97-0.83-3-1.55c-1.76-0.93-3.63-0.72-5.49-1.35c-1.76-0.72-3.52-0.72-5.49-0.41c-1.66,0.21-3-0.21-4.66,0.41
			c-1.76,0.62-3.11,1.76-4.04,3c-0.62,0.93-0.83,2.49-0.83,3.73c-0.1,0.93,0.72,2.18,1.04,2.9c0.31,0.73,1.04,1.66,2.38,2.18
			c1.66,0.62,2.8,1.66,3.83,1.66c1.97,0.31,4.25,0.93,6.84,1.87c2.9,1.04,5.28,1.66,7.35,3.31c1.66,1.55,3.63,2.07,5.39,3.63
			c1.66,1.35,1.76,3.11,2.59,4.87c0.93,1.76,1.04,3.73,1.24,5.39c0.31,2.18,0.62,5.08-0.1,7.04c-0.62,1.97-2.18,3.94-3.73,6.11
			c-1.35,2.18-3.11,3.94-4.56,4.97c-1.35,0.72-3.52,1.76-5.39,2.38c-2.9,0.83-6.01,1.45-9.01,1.24c-2.9-0.1-5.9-0.52-8.81-0.62
			c-2.28-0.1-4.97-1.55-6.84-1.86c-0.62-0.1-2.69-0.52-3.31-0.93c-0.62-0.52-1.86-2.69-1.35-3.52c0.72-2.07,0.41-4.87,2.18-7.15
			c1.04-0.93,1.35-1.24,2.59-0.83C581.99,251.19,582.61,252.74,584.16,252.74z"/>
		<path d="M717.93,201.88c2.28,0.1,3.94,0.62,5.39,1.35c1.35,0.73,2.9,2.38,4.25,3.11c1.35,0.83,1.66,3.42,2.8,4.66
			c1.24,1.35,1.24,4.14,1.35,5.59c0,0.62-0.72,2.28-0.93,3.21c-0.31,1.35-0.1,3.21-1.24,4.25c-1.14,1.04-2.18,2.8-2.8,3.32
			c-0.72,0.52-3.42,1.55-4.25,2.18c-0.1,0-0.93,1.76-0.31,1.76c1.76,0.72,4.25,1.04,5.49,1.97c1.35,0.93,1.97,3.94,2.8,5.28
			c0.93,1.55,1.76,4.14,1.97,6.42c0.31,2.59,0,5.28-1.04,7.25c-0.83,1.66-1.76,3.83-3,5.59c-1.14,1.76-3.63,3-5.08,4.04
			c-1.66,1.04-4.66,1.76-6.73,2.28c-1.86,0.41-4.76,1.04-6.73,0.62c-2.9-0.31-6.73-0.1-9.74,0.21c-3.11,0.21-6.94,0.21-10.05-0.31
			c-1.04,0-2.9-0.62-2.59-2.07c-0.21-3.63,0.31-6.42,0.1-9.94c-0.1-3.52-0.52-6.84-0.1-9.94c0.41-3,0.1-6.84,0.31-9.53
			c0.1-2.9,0.21-6.32,0.62-9.94c0.31-3.73-0.52-6.94-0.31-10.26c0.21-3.21-0.21-6.22,0.62-9.63c0.41-1.24,0.93-2.38,1.97-2.49
			c3.63-0.73,7.25-0.52,11.29-0.31c3.42,0.1,6.32,0.41,9.63,0.1C713.79,200.33,715.44,201.88,717.93,201.88z M699.8,254.09
			c0.41,0.21,1.45,1.14,1.66,1.04c1.55,0,4.04,0.31,6.11,0.1c1.24-0.31,2.49,0,3.83,0c1.35-0.1,2.49-1.35,3.31-1.97
			s2.07-0.72,3.32-2.18c1.14-1.66,0.31-2.9,1.04-4.35c0.62-1.14,0.31-2.07-0.21-3.52c-0.52-1.24-0.72-1.45-1.35-2.59
			c-0.72-1.14-1.45-1.86-2.07-2.28c-0.62-0.41-2.28-0.72-2.69-1.45c-0.21-0.62-1.14-0.31-2.18-0.73c-1.76-0.41-2.69-0.1-4.35,0
			c-1.76,0.21-3.32-0.31-4.77,0.21c-0.41,0.31-1.04,0.62-1.04,1.14C699.8,243.01,698.87,249.12,699.8,254.09z M700.63,225.5
			c0.62,0.21,0.41,1.04,1.35,1.55c1.45,0.72,2.59,0.21,3.42,0.31c1.24,0.21,3.21-0.1,4.56-0.21c1.24-0.1,2.18-0.52,3.73-1.35
			c1.45-0.72,2.18-1.45,3-1.97c0.62-0.21,0.72-1.35,1.04-2.38c0.31-1.14,0.52-2.38,0.93-2.9c0.41-0.62-1.24-1.55-1.14-3
			c0.1-1.45-0.62-1.66-1.35-3c-0.83-1.35-2.28-0.93-3.32-1.76c-0.93-0.83-2.69-0.41-3.42,0c-0.83,0.41-3,0-3.83-0.1
			c-0.62-0.1-2.38-1.14-3.32-0.41c-0.52,0.62-0.93,1.45-1.35,1.66C700.11,215.87,700.63,221.36,700.63,225.5z"/>
		<path d="M761.5,215.24c1.66-2.28,2.69-3.11,4.45-5.28c1.97-2.28,3-4.14,5.39-5.59c2.59-1.45,5.39-2.18,7.67-2.8
			c2.38-0.52,4.97-1.35,8.08-1.76c2.9-0.41,5.59-0.1,7.67,0.72c1.97,0.73,4.76,0.83,7.15,2.07c2.59,1.24,4.35,2.8,6.63,4.56
			c2.18,1.55,3.63,3.63,4.66,5.8c1.04,1.97,2.18,4.35,3,6.11c0.83,1.97,1.04,4.87,1.66,7.67c0.52,2.8,0.62,5.49,0.62,7.87
			c0,3.11-0.62,6.84-1.66,9.84c-0.93,2.8-2.07,6.42-3.63,8.81c-1.66,2.38-4.66,5.39-6.94,7.15c-1.86,1.45-5.28,2.69-7.67,3.63
			c-1.97,0.72-4.45,0.83-7.04,1.24c-2.69,0.41-4.56,0.83-7.46,0.31c-2.9-0.52-4.87-0.72-7.46-1.24c-2.18-0.52-4.45-0.83-6.01-2.38
			c-1.76-1.76-3.63-2.8-5.39-4.87c-1.76-2.07-2.8-3.52-4.25-5.9c-1.55-2.8-2.59-5.8-2.69-8.18c-0.21-2.49-0.73-6.32-0.93-9.22
			c-0.31-3.63,0.31-7.98,1.35-11.4C759.53,220.32,760.57,217.01,761.5,215.24z M777.25,251.71c0.93,1.76,3,2.18,4.45,3.21
			c1.04,0.93,2.28,1.14,4.14,1.24c1.86,0.1,3,0.52,4.25-0.1c1.76-0.73,3.42-0.41,5.28-1.55c1.87-1.14,2.8-2.9,3.83-3.83
			c1.04-0.93,2.59-3.31,2.8-4.56c0.21-1.04,0.52-2.69,1.04-4.66c0.62-2.69,0.62-4.14,0.52-6.84c-0.1-3.21,0.72-5.39,0.41-8.49
			c-0.21-2.59-0.83-4.45-1.66-6.53c-0.62-1.66-2.18-2.9-2.69-4.56c-0.31-1.24-1.86-1.55-2.9-2.8c-1.14-1.24-2.59-0.93-3.94-1.55
			c-1.45-0.72-3-0.62-4.56-0.31c-1.55,0.31-2.49,0.1-4.35,0c-1.76,0-2.69,0.83-3.94,1.66c-1.45,1.04-2.8,3.11-3.42,3.94
			c-0.62,0.83-2.59,2.69-2.9,4.25c-0.31,1.76-1.66,3.73-1.45,5.49c0.1,2.18-0.21,4.76-0.1,6.94c0.21,2.9-0.83,6.22,0,9.01
			c0.73,2.07,1.04,4.56,2.59,6.32C775.9,249.02,775.8,250.98,777.25,251.71z"/>
		<path d="M859.65,201.05c1.86-0.1,3,1.35,3.52,1.97c1.55,1.66,3.11,5.08,4.66,7.15c1.55,2.18,3,5.08,4.45,7.56
			c1.55,2.38,3,5.39,4.25,7.77c1.14,2.49,3.52,5.18,4.87,7.46c1.14,2.18,2.69,5.49,4.14,7.46c0.1,0.1,1.35,0.52,1.14-0.1
			c0.1-3.11-0.31-6.32,0-9.22c0.41-2.8,0-6.22,0.1-9.12c0.1-2.9,0.31-5.59-0.1-9.01c-0.41-3.32-1.04-5.59-0.21-8.6
			c0.72-1.45,0.41-2.59,1.66-3.52c2.38-1.35,5.18,0,7.56,0.21c0.93,0,2.28,1.76,2.49,2.28c0.62,2.69-0.1,7.15-0.1,9.94
			c0,2.8,0.1,6.84-0.1,9.84c-0.21,3,0.1,6.94-0.21,9.74c-0.41,2.8,0.1,7.04-0.1,9.95c-0.21,2.8-0.62,6.73-0.21,9.53
			c0.52,3,0.41,7.15-0.1,10.05c0,1.04-1.76,2.8-3.21,3c-1.35,0.31-3.31-0.1-4.66-0.1c-0.93,0.1-3.21-1.04-3.63-1.66
			c-1.35-1.76-3-5.08-4.25-7.87c-1.14-2.59-3.21-4.77-4.66-6.94c-1.55-2.38-3-5.8-3.94-7.98c-0.83-2.28-2.9-5.28-4.56-7.46
			c-1.66-2.17-3.31-4.87-4.66-7.15c-1.35-2.28-3.32-5.08-4.66-7.36c0.21-0.21-1.04,0.52-0.62,0.31c0.21,2.28-0.62,5.28-0.62,8.49
			c0,3.31,0.21,6.11,0.41,8.81c0.31,2.69-0.31,6.11,0,8.49c0.41,2.38-0.21,6.22-0.1,8.6c0.1,2.38,0.62,6.32-0.52,9.01
			c-0.62,0.73-1.24,2.18-2.18,2.49c-2.07,0.72-5.39,0.31-7.15-0.21c-0.52-0.21-1.76-0.83-2.28-2.38c-0.83-3.73-0.52-6.84-0.1-9.94
			c0.41-3,0.21-6.01,0.41-9.63c0.21-3.73-0.52-7.04-0.21-9.84c0.41-2.8,1.04-6.73,0.72-9.63c-0.31-3.11,0-6.94-0.21-10.15
			c-0.21-3.11-1.14-6.84,0-9.53c0.83-1.14,2.38-2.28,3.52-3.11C852.81,199.5,856.02,200.12,859.65,201.05z"/>
		<path d="M957.62,201.36c2.38-0.1,4.25,0.1,5.7,0.93c1.45,0.83,4.04,0.41,5.39,1.76c1.86,1.45,4.45,1.86,6.01,4.04
			c1.45,2.07,2.18,3.63,3.63,5.8c1.55,2.38,2.9,4.66,3.11,6.94c0.41,2.9,1.55,5.8,1.35,9.22c-0.21,2.9-0.83,5.49-1.04,7.67
			c-0.1,1.97-0.73,5.08-1.35,6.84c-0.62,1.66-1.55,4.56-2.9,6.11c-1.35,1.66-2.28,4.56-3.42,6.42c-1.24,2.07-4.25,3.94-6.32,4.66
			c-1.97,0.72-4.45,1.66-7.25,2.69c-1.66,0.72-3.11,0.83-4.35,0.41c-2.28-0.41-5.39-0.1-7.56,0.21c-2.38,0.41-5.28,0.41-8.39,0.52
			c-3.21,0.1-5.8,0.1-8.8-0.31c-1.45,0-3.11-0.72-2.9-2.49c-0.21-3.83,0.31-6.84,0.41-10.26c0.21-2.9,0.72-6.32,0.52-8.91
			c-0.31-3,0.21-6.73,0.1-10.05c0-3.11-0.41-5.7,0.21-9.22c0.62-3.83,0-6.84,0.21-10.15c0.1-3.11-0.52-6.94-0.21-9.63
			c0-1.04,1.66-2.9,2.8-3.52c5.08-1.35,11.19,0.21,16.68-0.21C952.03,200.33,954.31,201.05,957.62,201.36z M952.34,255.02
			c2.28-0.1,3.32-0.93,5.08-1.14c1.66-0.21,3.63-0.52,4.56-2.18c1.14-1.76,2.49-2.38,3.73-4.66c1.14-2.38,1.35-3.94,1.55-6.11
			c0.41-2.59,0.83-5.08,1.35-7.56c0.41-2.38-0.1-4.66-0.52-7.35c-0.31-1.97-0.83-3.11-1.35-5.18c-0.52-2.28-1.45-4.25-3.21-5.28
			c-1.45-0.62-2.9-1.66-4.25-2.18c-1.45-0.62-2.8-1.04-4.97-1.55c-3.83-0.72-7.25,0.31-10.36,0.1c-0.1-0.41-1.14,0.21-1.04,1.14
			c-0.1,3.83,0,7.25-0.1,10.46c0,2.9-0.41,6.42-0.41,9.53c-0.1,3.52-0.21,7.04-0.41,10.57c-0.1,3.31-0.21,6.32,0.41,9.74
			c0.31,0.83,0.62,1.04,1.45,1.14C946.74,254.92,949.75,255.02,952.34,255.02z"/>
		<path d="M1048.67,208.82c0.1,0.93-0.93,2.17-2.59,2.69c-3.63,0.93-6.22-0.31-9.95,0c-3.73,0.41-6.94-1.14-10.05-0.52
			c-0.31,0.52-0.83,0.83-0.93,1.14c-0.31,4.45-0.72,10.05-0.1,14.19c0.31-0.21,0.31,0.31,0.93,0.62c3,0.62,6.01,0.1,8.49,0.31
			c2.69,0.21,6.11-0.52,9.22,0.21c0.83,0.52,1.66,0.83,1.97,1.14c0.62,1.66,0.52,4.45-0.21,6.53c-0.41,1.35-0.83,2.59-2.49,2.9
			c-6.11,0.93-11.5-0.1-17.3-0.21c-0.83-0.41-1.04,1.04-1.14,1.55c-0.52,4.45-1.35,8.91-0.41,13.67c0.52,0.93,1.24,1.14,1.55,1.24
			c3.11,0.31,6.42-0.1,10.36,0.1s6.42-0.21,10.36,0.41c1.76,0.31,2.9,0.83,3.11,2.38c0.52,2.28,0,4.25-0.31,6.11
			c0,0.93-1.14,2.49-2.28,2.07c-3.83,0-7.56,0.21-11.19-0.31c-3.83-0.41-7.46-0.31-11.71-0.31c-4.14,0-7.77,0.93-11.29,0.31
			c-0.73-0.31-2.28-0.83-2.07-2.07c-0.21-3.73,0.21-6.84,0.1-10.46c-0.21-3.42,0-6.42,0.1-9.43c0-3.31,0.62-7.25,0.52-10.46
			c-0.21-3,0.21-6.42,0.21-9.84c-0.1-3.42-0.62-6.84-0.31-9.95c0.31-3-0.62-6.84,0.41-9.74c0.62-0.83,1.04-1.45,2.59-2.18
			c3.94-1.14,7.15-0.52,10.36-0.1c3.42,0.41,7.25,0.1,10.98,0.1c3.63-0.1,7.67-0.31,10.77-0.41c0.73-0.31,1.87,1.04,2.59,2.07
			C1050.12,204.57,1048.78,207.27,1048.67,208.82z"/>
		<path d="M1092.41,213.9c0.52,3,0.1,6.63-0.1,9.84c-0.21,3.21-0.41,7.04-0.52,9.95c-0.21,3-0.52,7.25,0,10.05
			c0.41,2.59,0.31,6.73,0.21,9.53c-0.21,0.21-0.41,1.24,0.41,1.55c3.83,0.72,6.73-0.1,10.46-0.31c3.63-0.21,7.15-0.41,10.15,0.21
			c0.83,0.21,2.07,0.72,2.59,2.07c0.73,2.28,1.14,4.45,0.41,6.63c-0.52,1.04-1.35,1.55-2.59,1.86c-3.94,0.62-7.98,0.21-11.08-0.41
			c-3-0.62-6.73,0.21-10.46,0.1c-3.94-0.21-7.04,0.83-10.98,0c-1.45-0.41-2.38-1.66-2.49-2.49c-0.41-2.9-0.1-6.32-0.1-9.63
			c0.1-3.21-0.31-5.8,0.31-9.43c0.62-3.73,0.21-6.42,0.52-9.84c0.31-3.32-0.41-6.22-0.31-9.74c0.21-3.42,0-6.73,0.52-9.53
			c0.52-3-0.83-6.53,0-10.15c0.52-1.76,1.45-2.9,3.11-3.52c2.38-0.83,4.77,0,7.04,0.31c1.45,0,2.8,1.76,3.32,3.11
			C1093.65,207.06,1092.3,210.48,1092.41,213.9z"/>
		<path d="M1265.02,213.48c0,0.41-1.97,0.83-2.59,0.83c-1.55-0.21-3.73-1.97-5.28-2.18c-1.97-0.31-4.97-1.66-6.63-1.55
			c-1.66,0.1-4.66-0.62-6.53-0.41c-2.07,0.21-5.18,0.93-6.73,2.49c-1.35,1.45-3.83,2.8-5.08,4.45c-1.55,1.86-3.11,4.45-3.11,7.15
			c-0.1,3.32-0.83,6.63-0.31,9.43c0.41,2.8-0.1,5.7,1.04,9.12c1.04,2.69,0.93,5.08,2.69,6.63c1.66,1.35,2.59,3.52,4.56,4.66
			c1.86,1.14,3.73,1.04,6.22,1.66c2.38,0.52,4.35-1.04,6.32-0.93c1.14,0.1,2.9-0.41,3.52-0.62c0.1,0,0.62-0.52,1.04-1.24
			c0.93-5.59-0.21-10.77,0.62-16.37c0.21-1.76,1.97-2.9,3-3.52c1.76-0.93,4.35-0.73,6.63,0c1.76,0.52,2.8,2.07,3,3.73
			c0.52,3.83-0.21,7.77-0.41,11.08c-0.1,3.52,0.52,8.39,0,11.6c-0.21,0.52-0.62,2.18-1.66,2.49c-1.55,0.62-3.32,1.86-4.56,1.66
			c-1.35-0.1-3.11-0.1-5.18,0.52c-2.28,0.62-3.83,1.55-5.7,1.24c-2.69-0.21-5.18,0.41-8.18,0.41c-3.42,0-6.53-0.72-9.32-1.97
			c-2.28-1.04-5.39-1.76-6.94-3.32c-1.66-1.76-4.04-4.35-5.28-6.22c-1.14-1.55-2.28-4.56-3.42-6.73c-1.55-3.21-1.55-7.36-2.38-10.88
			c-0.72-3,0.31-6.11,0.41-9.74c-0.1-2.9,0.83-4.76,1.76-7.35c1.14-3.21,2.18-6.22,4.45-8.29c1.86-1.66,3.52-4.14,5.49-5.39
			c1.55-0.93,3.42-2.59,5.59-3.32c2.28-0.62,3.94-1.55,6.32-2.07c2.59-0.72,5.18-0.41,7.36-0.62c2.9-0.31,6.01,0.62,9.43,0.62
			c2.8,0,4.87,0.62,7.36,1.76c1.55,0.83,2.28,0.83,3.73,1.97c1.24,1.04,1.55,2.49,1.45,3.11
			C1267.51,209.03,1266.78,211.52,1265.02,213.48z"/>
	</g>
	<path class="st1" d="M1176.76,211.3c1.45,2.59,1.66,5.59,3,8.6c1.35,2.9,1.55,5.18,2.9,8.08c1.35,3.11,2.18,6.32,2.59,8.6
		c0.52,2.38,2.07,5.59,2.59,8.81c0.41,3,2.18,5.18,2.59,8.29c0.52,3.21,2.38,6.11,2.59,8.6c0,0.41,0,2.07-0.93,2.49
		c-3.11,0.93-8.88,1.04-11.47,0.1c-0.62-0.72-0.86-1.14-1.17-1.97c-1.86-4.45-3.92-15.76-5.37-20.01c0.1-0.21-1.85-0.23-2.48,0.19
		c-4.87,0.1-6.73,2.47-10.15,5.03c-1.05,0.78-7.36,7.87-8.29,9.25c-0.84,1.25-1.24,3.44-3.04,5.75c-0.46,0.59-1.86,2.38-2.38,2.07
		c-2.38-0.1-6.22,0.31-8.91-0.31c-0.72,0.1-1.04-1.35-1.14-2.49c0.1-3.21,1.05-5.08,2.19-8.39c1.24-3.21,1.87-6.01,2.8-8.39
		c0.93-2.59,1.98-5.49,2.81-8.81c0.72-3.11,2.28-5.39,3.21-8.39c1.04-3,1.36-5.49,2.6-8.6c1.24-3,2.58-6.22,3.2-8.6
		c0.73-2.38,2.88-8.15,4.43-10.43c0.83-1.04,1.98-0.57,4.04-0.65c3.04-0.12,5.59-0.31,7.56,0c1.04,0,3.21,0.72,3.73,2.38
		C1175.52,205.6,1175.73,208.19,1176.76,211.3z M1169.64,232.81c2.8-1.22,2.16-1.65,1.96-2.27c-0.52-3.52-0.85-2.66-1.37-6.18
		c-0.41-3.32-1.56-6.42-2.39-9.63c0.31-0.73-2.66-0.93-3.28-0.21c-1.66,3.42-2.47,6.93-3.81,10.56c-1.24,3.83-5.25,11.21-5.46,14.94
		c0.21,1.04,0.16,1.46,0.94,0.54C1159.56,236.62,1164.45,235.08,1169.64,232.81z"/>
</g>
<g id="NBK" class="st0">
	<g class="st1">
		<path class="st3" d="M1202.72,323.74c45.63,152.38-138.23,342.05-410.68,423.63c-272.44,81.58-530.29,24.18-575.93-128.2
			C170.49,466.79,354.36,277.12,626.8,195.54C899.24,113.96,1157.09,171.35,1202.72,323.74z"/>
		<path class="st4" d="M1183.17,329.59c42.59,142.23-134.98,321.05-396.63,399.4c-261.65,78.35-508.27,26.56-550.87-115.68
			c-42.59-142.24,134.98-321.06,396.63-399.4C893.94,135.56,1140.57,187.35,1183.17,329.59z"/>
	</g>
	<rect x="884.69" y="571.81" class="st5" width="267.26" height="98.02"/>
	<path class="st6" d="M1269.13,390.53"/>
	<path class="st7" d="M922.59,233.99c0,0,7.71-3.5,14.02-0.7c6.31,2.8,9.08,5.02,10.51,3.5c4.09-4.31,1.42-17.39,9.26-16.68
		c7.85,0.71,10.58,0.68,13.38-2.67c6.38-7.65,11-3.77,14.51,2.53c3.51,6.31,6.31,38.55,6.31,38.55s5.61-25.93,17.52-25.93
		s13.44,0.29,16.24-3.91s5.9-10.53,9.69,1.11c2.08,6.38-4.91,16.12-4.91,16.12s-4.91,7.71,0,8.41c4.91,0.7,8.41-8.41,8.41-8.41
		s-2.8-9.81,2.8-14.02c5.61-4.21,2.8-7.01,7.01-9.11c4.21-2.1,12.62,2.1,13.32,15.42c0.7,13.32-4.2,22.43,8.41,19.62
		c12.62-2.8,32.24-17.52,37.15-12.62c4.91,4.91,7.1,0.74,6.4,9.15c-0.21,2.55-5.05,5.95-5.35,8.03c-0.68,4.77,3.54,3.84,6.96,4.82
		c4.91,1.4,3.21,9.54,1.81,14.45c-1.4,4.91,1.94,13.91,4.08,18.72c2.17,4.88,20.33,4.28,14.15,18.43
		c-4.78,10.93-8.59,2.89-7.19,7.79c1.4,4.9-5.35,13.91-11.04,13.23c-13-1.55-15.42-9.81-21.73-7.71c-6.31,2.1-10.09,1.34-3.09,6.25
		c7.01,4.91,6.59,12.68,11.5,12.68c4.91,0,12.62,1.4,8.41,8.41c-4.21,7.01-6.42,8.42-12.95,6.2c-4.1-1.39-7.81-5.48-12.31-6.96
		c-4.4-1.45-10.89,1.13-5.89,5.35c2.53,2.13,17.59,5.44,17.83,7.32c0.7,5.61,5.61,18.22-0.7,18.22c-6.31,0-9.81-4.9-11.91-2.1
		c-2.1,2.8-7.71,13.32-13.32,13.32c-2.47,0-7.27,2.23-10.51,0.7c-4.1-1.94-6.54-7.42-7.71-3.5c0,0-4.9,16.82-2.1,28.74
		c2.8,11.92,5.6,25.93,7.01,39.95c1.4,14.02,19.62,56.77-4.91,62.38c-24.53,5.61-57.47,7.01-70.79,4.91
		c-13.32-2.1-35.75,7.71-32.94-22.43c2.81-30.14,11.21-91.11,11.21-91.11s-8.23-16.85-0.47-31.77c2.49-4.78-3-2.97-5.89-4.28
		c-3.98-1.8-5.02-5.97-10.46-4.6c-11.15,2.79-15.51,22.54-25.38,15.3c-8.03-5.88-11.77-13.91-11.77-13.91s-2.08-4.38-2.67-6.42
		c-1.33-4.61-5.2-11.04,1.61-14.45c9.81-4.91,16.05-8.56,16.05-8.56s-12.17-4.2-19.18,0s-24.53,4.9-24.53-1.4
		c0-6.31,3.51-13.32-4.2-14.02c-7.71-0.7-19.49-6.25-13.32-25.93c3.98-12.69,25.92-16.97,25.92-30.88
		c0-12.24,7.72-11.87,14.03-13.27c6.31-1.4,0.16-5.32,5.76-8.13c5.61-2.8,9.1,3.06,9.1-5.35s-7.15-11.05-2.24-14.56
		C918.39,234.69,922.59,233.99,922.59,233.99z"/>
	<path class="st5" d="M944.08,260.24c-4.82-1.07-13.38-2.67-13.38-6.96c0-4.28,6.96-4.28,12.31,0.53
		C948.36,258.64,948.81,261.29,944.08,260.24z"/>
	<path class="st5" d="M964.95,255.96c0,0,13.91,14.45,9.63,14.45c-4.28,0-14.45-12.84-14.45-12.84S958.53,252.22,964.95,255.96z"/>
	<path class="st5" d="M976.72,245.8c-4.28-1.61-3.21,0-5.35-3.74c-2.14-3.74,0-5.89,0-5.89s2.68,0,3.75,2.14
		c1.07,2.14,3.21,6.96,3.21,6.96L976.72,245.8z"/>
	<path class="st5" d="M907.16,283.79c4.28-1.61,8.03-2.14,13.38,3.21c5.35,5.35,9.09,1.07,4.82,4.28
		c-1.18,0.89-7.17,3.23-11.77,2.14c-3.71-0.88-6.3-5.05-6.42-5.89C906.63,283.79,907.16,283.79,907.16,283.79z"/>
	<path class="st5" d="M886.83,315.35c5.88-2.14,10.7-1.61,10.7-1.61s3.21,4.28,1.07,4.28C889.89,318.03,886.83,315.35,886.83,315.35
		z"/>
	<path class="st5" d="M901.28,336.22c0.53-1.61,8.56-4.82,11.24-1.61c2.67,3.21,5.88,2.14-1.07,2.67
		C904.49,337.83,901.28,336.22,901.28,336.22z"/>
	<path class="st5" d="M934.99,359.23c-2.14-2.14-4.82,0-6.96,5.35c-2.14,5.35-6.96,9.1-3.21,7.49s9.09-4.82,9.09-7.49
		C933.92,361.9,937.13,361.37,934.99,359.23z"/>
	<path class="st5" d="M960.67,361.9c3.74-4.82,12.84-9.63,7.49-2.14c-5.35,7.49-6.42,8.56-9.09,8.56s0.53-5.89,0.53-5.89"/>
	<path class="st5" d="M979.4,365.65c2.14-3.21,8.02-8.03,9.09,0c0.66,4.92-0.58,13.55-4.28,15.52c-2.34,1.24-7.9-2.42-7.49-4.28
		C977.79,372.07,977.26,368.86,979.4,365.65z"/>
	<path class="st5" d="M1057.51,380.63c-1.07-6.42-4.28-9.1,0.54-8.03c4.82,1.07,8.03,3.75,8.03,3.75s8.03,3.74,3.21,7.49
		c-4.82,3.75-5.35,5.89-8.56,2.68S1057.51,380.63,1057.51,380.63z"/>
	<path class="st5" d="M1069.29,338.36c5.35-1.07,7.49,1.07,10.17,2.14c2.67,1.07-0.54,6.42-5.35,2.68
		C1069.29,339.43,1069.29,338.36,1069.29,338.36z"/>
	<path class="st5" d="M1071.96,322.84c-2.01-1.4,0-5.88,0-5.88c2.14-2.14,4.28-2.68,6.42-1.07s8.03,2.67,3.75,5.35
		C1079.99,322.58,1073.97,324.25,1071.96,322.84z"/>
	<path class="st5" d="M1096.57,316.42c1.61-1.07,12.84-2.67,14.45,0c1.05,1.74,0.44,3.52-2.14,4.82c-2.89,1.45-7.94,2.23-9.63,0.54
		C1096.04,318.56,1096.57,316.42,1096.57,316.42z"/>
	<path class="st5" d="M1048.42,309.47c6.42-1.61,8.56-3.74,8.56-0.53s1.61,4.81-3.75,4.28
		C1047.88,312.68,1048.42,309.47,1048.42,309.47z"/>
	<path class="st5" d="M999.73,281.11c0,0,0.04,0.27,0.13,0.72c0.74,3.67,4.92,19.43,19.66,5.16c16.59-16.05,23.54-14.98,24.08-11.77
		c0.54,3.21,5.35,7.49,11.77,6.42c6.42-1.07,11.77-0.54,17.66-5.89c5.88-5.35,14.98-12.31,18.19-8.03c3.21,4.28,7.49,2.68-1.61,4.28
		c-9.09,1.61-11.24-1.07-12.84,5.35c-1.61,6.42-4.82,11.77,2.14,11.77s14.45-1.61,14.45-1.61s-2.9,1-4.82,8.03
		c-1.61,5.89-6.22,4.19-10.7,3.75c-16.05-1.61-48.69-10.17-53.51-1.61c-4.82,8.56-10.17,7.49-0.54,18.73
		c9.63,11.24,18.73,18.19,18.73,18.19s23.54,21.4,16.05,23.54s-9.09,3.75-17.66-4.28c-8.56-8.03-11.24-4.82-12.84-12.31
		c-1.61-7.49,1.61-14.98-5.35-12.84c-6.96,2.14-6.96,4.82-8.56,6.42s-3.74-5.35-6.95,3.21c-3.21,8.56-12.31-3.21-12.31-3.21
		s-25.68-5.35-40.66,10.17c-14.98,15.52-3.21,0.54-3.21,0.54s9.1-12.31,8.03-23.01s9.63-12.84-4.28-11.77
		c-13.91,1.07-18.72,8.56-26.22,7.49c-7.49-1.07-8.03-1.07-8.03-3.75c0-2.67,0-0.53,5.35-2.14s17.12-0.53,18.19-8.56
		s5.35-8.03,0.54-14.45c-4.82-6.42-11.77-9.63-14.98-11.24c-3.21-1.61-8.03-4.82-3.75-5.89c4.28-1.07,4.82-2.14,9.63,2.14
		c4.82,4.28,12.31,14.45,17.12,14.45s8.56,4.28,9.63-0.53s-1.61-11.23,0-11.77c1.61-0.54,8.56,5.88,8.56,5.88
		s-4.82,11.77,8.03,14.98c12.84,3.21,12.84,14.45,18.19,5.35"/>
	<path class="st5" d="M1012.04,384.91c0,0,1.07-3.21,3.74-1.07s6.42,5.89,8.03,5.89c1.61,0-3.21,1.6-3.74,6.96s0.13,4.16,3.21,6.42
		c4.02,2.95,11.77,4.82,11.77,4.82s9.63,2.14,0.54,3.75c-9.09,1.61-19.8,3.74-24.08,1.07c-4.28-2.67-1.61-4.82-11.24-4.82
		c-9.63,0-17.12,1.07-19.26,0c-2.14-1.07-9.63-5.88-5.35-8.56c4.28-2.68,4.28-6.42,12.84-6.42s17.12,1.07,19.8-1.61
		C1010.96,388.66,1012.04,384.91,1012.04,384.91z"/>
	<path class="st5" d="M1007.22,259.17c0,0-0.54-6.42,2.14-6.96c2.68-0.53,0.53,2.14,0,4.28
		C1008.83,258.64,1007.22,259.17,1007.22,259.17z"/>
	<path class="st5" d="M1009.89,267.73c0,0,3.75,3.75,6.96,4.28c1.63,0.27-2.2,4.71-4.82,3.21
		C1008.29,273.08,1009.89,267.73,1009.89,267.73z"/>
	<path class="st5" d="M1025.95,388.66c0,0,9.63-2.14,12.31,0.54c2.68,2.67,1.61,3.75-3.74,3.21
		C1029.16,391.87,1025.95,388.66,1025.95,388.66z"/>
	<path class="st5" d="M1010.43,489.78c0.6-13.16,3.51-29.42,3.74-41.2c0.15-7.67-1.61-15.52-1.61-15.52s-2.14-6.42,2.68-2.68
		s5.88,15.52,4.28,22.47s1.61,26.22,6.96,28.36c5.35,2.14,11.24-4.82,12.84,0.53c1.61,5.35-2.14,12.84-2.14,12.84l1.61,10.7
		c0,0,0.54,9.63-7.49,5.35c-8.03-4.28-11.78-9.09-13.91-4.28c-2.14,4.82-4.28,10.7-5.35,3.74
		C1011.7,507.95,1009.98,499.61,1010.43,489.78z"/>
	<path class="st5" d="M974.58,484.97c0.99-7.57,4.18-18.11,4.82-24.61c0.83-8.42-0.77-13.35-0.54-14.98
		c0.57-3.95,2.68-1.61,2.68-1.61s9.1,12.84,12.84-1.07c3.74-13.91,2.14-13.38,2.14-13.38s1.07-5.35,2.14,1.07
		c1.07,6.42-1.61,22.47-1.61,22.47l1.07,52.44c0,0-3.21,10.17-5.35,3.21c-1.12-3.63,0.7-10.23,0-14.98c-0.64-4.36-3.66-7-7.49-8.03
		c-4.8-1.28-7.37,3.36-7.49,8.56c-0.08,3.5,1.82,6.94,1.61,10.17c-0.54,8.03-4.81,10.17-5.88,5.35
		C973.03,507.4,972.71,499.31,974.58,484.97z"/>
	<path class="st7" d="M978.33,323.38c-1.12-2.03,0-6.42,0-6.42s8.56-14.45,16.05-2.68c7.49,11.77-6.42,12.31-9.1,12.31
		C983.76,326.59,979.8,326.07,978.33,323.38z"/>
	<g class="st1">
		<path d="M311.41,598.97l1.26,7.56c3.37-4.38,7.34-7.56,12.14-7.56c7.42,0,12.99,5.03,12.99,16.53v29.9l3.97,0.77v7.23h-21.93
			v-7.23l2.61-0.77v-28.14c0-4.71-1.18-7.34-5.06-7.34c-1.94,0-4.13,1.97-4.13,4.6v30.88l2.61,0.77v7.23h-21.92v-7.23l3.96-0.77
			v-31.1c0-2.08-2.02-2.96-3.96-3.06v-6.35L311.41,598.97z"/>
		<path d="M387.64,627.01c0,16.97-8.85,27.92-21,27.92c-12.14,0-21-10.95-21-28.03c0-16.98,8.85-27.92,21-27.92
			C378.79,598.97,387.64,609.92,387.64,627.01z M361.84,627.01c0,11.61,0,20.7,4.81,20.7c4.81,0,4.81-9.09,4.81-20.7
			c0-8.1,0-20.81-4.81-20.81C361.84,606.2,361.84,618.9,361.84,627.01z"/>
		<path d="M415.72,653.4h-23.27v-7.23l3.96-0.77v-22.45c0-8.98-1.77-11.39-6.16-11.39v-6.35l15.43-6.24
			c2.02,4.82,3.54,9.52,3.79,14.68h0.17c2.28-5.81,4.72-14.68,10.79-14.68c4.98,0,7.67,4.49,7.67,9.96c0,5.59-2.7,9.97-7.67,9.97
			c-1.77,0-3.46-1.87-4.89-1.87c-3.03,0-3.79,15.22-3.79,18.62v9.75l3.96,0.77V653.4z"/>
		<path d="M471.46,591.53c0,5.14-2.36,8.21-6.16,8.21c-2.45,0-4.47-1.75-6.16-4.05c-0.84,0-3.71,3.29-3.71,4.27
			c6.41,2.74,12.65,7.22,12.65,17.08c0,13.58-10.2,19.06-19.23,19.06c-1.18,0-2.02-0.22-2.95-0.22c-1.01,0-2.36,0.99-2.36,2.63
			c0,2.3,14.42,2.52,17.29,2.52c6.24,0,10.54,6.68,10.54,14.68c0,13.36-7.34,16.86-21.92,16.86c-11.47,0-20.74-0.55-20.74-7.56
			c0-4.6,3.46-7.56,6.07-9.75v-0.33c-2.19-0.33-5.82-2.63-5.82-5.91c0-6.57,7.25-11.5,10.37-15.77c-5.82-3.07-8.69-7.67-8.69-16.1
			c0-13.15,10.71-18.18,19.14-18.18c3.88-6.35,8.52-15.67,15.52-15.67C469.09,583.31,471.46,586.37,471.46,591.53z M459.57,661.28
			c0-2.96-5.9-2.85-7.34-2.96l-3.71-0.22c-2.53-0.11-4.98-0.55-6.07-0.87c-1.26,0.98-1.94,2.63-1.94,4.6
			c0,3.72,4.64,3.94,10.03,3.94C455.1,665.77,459.57,664.9,459.57,661.28z M445.99,617.8c0,2.96,0,11.06,3.37,11.06
			c3.37,0,3.37-8.1,3.37-11.06c0-6.46,0-11.61-3.37-11.61C445.99,606.2,445.99,611.34,445.99,617.8z"/>
		<path d="M491.95,631.28c0.51,5.8,3.37,11.61,8.26,11.61c3.96,0,6.32-3.18,8.35-7.23l4.13,6.35c-3.8,8.43-10.88,12.92-18.21,12.92
			c-12.82,0-18.89-12.59-18.89-26.39c0-17.63,7.84-29.56,19.65-29.56c11.13,0,17.03,11.71,17.63,24.96L491.95,631.28z
			 M490.94,623.28l3.71-1.31c2.19-0.77,3.71-1.75,3.71-5.92c0-3.5-0.76-9.85-3.96-9.85c-3.46,0-3.46,7.56-3.46,11.61V623.28z"/>
		<path d="M548.53,609.26c0,4.49-2.95,6.68-6.07,6.68c-3.79,0-6.49-4.93-7.17-9.74c-2.28,0-5.31,1.2-5.31,5.59
			c0,8.32,20.24,2.4,20.24,23.43c0,15.77-10.2,19.71-18.64,19.71c-5.14,0-15.09-0.87-15.09-11.06c0-4.6,2.7-8.43,6.24-8.43
			c5.48,0,6.66,6.24,7.59,10.84c0.25,1.2,2.28,1.43,3.04,1.43c2.53,0,5.48-1.86,5.48-5.58c0-8.99-20.24-3.62-20.24-24.1
			c0-15.55,10.2-19.05,18.64-19.05C543.72,598.97,548.53,601.92,548.53,609.26z"/>
		<path d="M592.46,569.95v33.73c2.78-3.18,5.48-4.71,9.27-4.71c10.71,0,14.59,13.69,14.59,25.51c0,17.63-5.73,30.44-20.4,30.44
			c-5.23,0-8.1-1.75-11.22-5.47l-4.13,5.47h-4.89c0.51-6.24,1.43-8.32,1.43-13.8v-56.4c0-2.08-2.02-2.95-3.96-3.06v-6.35
			L592.46,569.95z M592.46,635.87c0,8.43,0,11.83,3.63,11.83c3.88,0,4.89-8.98,4.89-17.96c0-9.09-0.42-19.82-6.41-19.82
			c-0.76,0-1.43,0.11-2.11,0.44V635.87z"/>
		<path d="M633.95,598.97c3.12,11.71,6.49,23.87,10.71,35.37h0.25c1.35-2.08,4.98-13.14,4.98-15.33c0-2.63-6.24-5.81-6.24-13.47
			c0-5.81,3.46-9.42,7.76-9.42c4.81,0,7.67,4.05,7.67,10.18c0,11.17-8.68,31.76-12.14,39.75c-4.81,11.17-11.89,26.5-23.36,26.5
			c-5.23,0-8.86-3.51-8.86-10.73c0-4.93,2.95-9.2,6.75-9.2c5.9,0,7.5,7.01,9.53,7.01c1.18,0,5.06-4.06,5.06-6.03
			c0-0.98-4.05-9.31-7.34-18.84c-3.37-9.86-5.73-18.4-6.66-20.48c-0.76-1.75-1.69-2.96-4.13-3.61v-6.35L633.95,598.97z"/>
		<path d="M702.33,591.53c0,5.14-2.36,8.21-6.16,8.21c-2.45,0-4.47-1.75-6.16-4.05c-0.84,0-3.71,3.29-3.71,4.27
			c6.41,2.74,12.65,7.22,12.65,17.08c0,13.58-10.2,19.06-19.22,19.06c-1.18,0-2.03-0.22-2.95-0.22c-1.01,0-2.36,0.99-2.36,2.63
			c0,2.3,14.42,2.52,17.29,2.52c6.24,0,10.54,6.68,10.54,14.68c0,13.36-7.34,16.86-21.92,16.86c-11.47,0-20.74-0.55-20.74-7.56
			c0-4.6,3.46-7.56,6.07-9.75v-0.33c-2.19-0.33-5.82-2.63-5.82-5.91c0-6.57,7.25-11.5,10.37-15.77c-5.82-3.07-8.69-7.67-8.69-16.1
			c0-13.15,10.71-18.18,19.14-18.18c3.88-6.35,8.52-15.67,15.52-15.67C699.97,583.31,702.33,586.37,702.33,591.53z M690.44,661.28
			c0-2.96-5.9-2.85-7.34-2.96l-3.71-0.22c-2.53-0.11-4.98-0.55-6.07-0.87c-1.26,0.98-1.94,2.63-1.94,4.6
			c0,3.72,4.64,3.94,10.04,3.94C685.98,665.77,690.44,664.9,690.44,661.28z M676.87,617.8c0,2.96,0,11.06,3.37,11.06
			c3.37,0,3.37-8.1,3.37-11.06c0-6.46,0-11.61-3.37-11.61C676.87,606.2,676.87,611.34,676.87,617.8z"/>
		<path d="M739.35,641.57c0,2.08,2.02,2.95,3.96,3.07v7.23l-15.94,3.07c-1.27-1.97-2.11-4.27-2.53-6.79
			c-2.95,4.82-6.41,6.79-11.05,6.79c-10.54,0-13.41-15-13.41-25.95c0-14.02,4.81-30.01,17.29-30.01c2.11,0,4.3,0.55,6.33,1.53
			v-15.77c0-2.08-2.02-2.95-3.96-3.06v-6.35l19.31-5.37V641.57z M724.01,608.72c0-1.65-1.94-2.52-3.12-2.52
			c-4.3,0-5.14,10.95-5.14,16.21c0,15.22,0.51,21.57,5.31,21.57c1.52,0,2.95-1.42,2.95-3.72V608.72z"/>
		<path d="M762.63,631.28c0.5,5.8,3.37,11.61,8.26,11.61c3.96,0,6.32-3.18,8.35-7.23l4.13,6.35c-3.8,8.43-10.88,12.92-18.22,12.92
			c-12.81,0-18.89-12.59-18.89-26.39c0-17.63,7.84-29.56,19.65-29.56c11.13,0,17.03,11.71,17.62,24.96L762.63,631.28z
			 M761.61,623.28l3.71-1.31c2.19-0.77,3.71-1.75,3.71-5.92c0-3.5-0.76-9.85-3.96-9.85c-3.46,0-3.46,7.56-3.46,11.61V623.28z"/>
		<path d="M786.24,653.4v-7.23l3.97-0.77v-60.67c0-2.08-2.03-2.95-3.97-3.06v-6.35l19.31-5.37v46.88l6.07-8.66
			c3.29-4.71,7.42-9.2,12.73-9.2c4.22,0,7.84,2.95,7.84,8.87c0,5.15-2.11,9.2-6.32,9.2c-3.8,0-6.07-1.75-8.09-5.8l-1.77,1.31
			l12.48,32.85l2.62,0.77v7.23h-16.11l-8.77-28.04l-0.67,0.66v19.38l2.62,0.77v7.23H786.24z"/>
		<path d="M848.21,653.83c-6.74-16.42-9.78-35.04-11.13-38.43c-1.1-2.85-2.36-3.95-4.39-4.16v-6.35l16.78-5.91
			c2.28,12.37,4.47,25.51,9.02,37.23c1.44-2.85,5.32-14.24,5.32-17.41c0-1.43-6.41-5.04-6.41-12.48c0-6.14,2.87-10.18,7.68-10.18
			c4.8,0,7.67,2.73,7.67,11.71c0,10.41-10.29,36.14-14.59,46H848.21z"/>
		<path d="M895.44,645.4l3.97,0.77v7.23h-23.27v-7.23l3.96-0.77v-30.23c0-2.08-2.02-2.95-3.96-3.07v-6.35l19.31-6.78V645.4z
			 M887.76,595.9c-4.72,0-8.77-4.6-8.77-11.39c0-6.68,4.05-11.39,8.77-11.39s8.77,4.71,8.77,11.39
			C896.53,591.3,892.48,595.9,887.76,595.9z"/>
		<path d="M919.8,598.97l1.27,7.56c3.37-4.38,7.34-7.56,12.14-7.56c7.42,0,12.99,5.03,12.99,16.53v29.9l3.96,0.77v7.23h-21.92v-7.23
			l2.62-0.77v-28.14c0-4.71-1.18-7.34-5.06-7.34c-1.94,0-4.13,1.97-4.13,4.6v30.88l2.61,0.77v7.23h-21.92v-7.23l3.96-0.77v-31.1
			c0-2.08-2.02-2.96-3.96-3.06v-6.35L919.8,598.97z"/>
		<path d="M970.48,598.97l1.26,7.56c3.37-4.38,7.34-7.56,12.14-7.56c7.42,0,12.99,5.03,12.99,16.53v29.9l3.96,0.77v7.23h-21.92
			v-7.23l2.61-0.77v-28.14c0-4.71-1.18-7.34-5.06-7.34c-1.94,0-4.13,1.97-4.13,4.6v30.88l2.61,0.77v7.23h-21.92v-7.23l3.96-0.77
			v-31.1c0-2.08-2.02-2.96-3.96-3.06v-6.35L970.48,598.97z"/>
		<path d="M1020.4,631.28c0.51,5.8,3.37,11.61,8.26,11.61c3.97,0,6.33-3.18,8.35-7.23l4.13,6.35c-3.79,8.43-10.88,12.92-18.22,12.92
			c-12.82,0-18.89-12.59-18.89-26.39c0-17.63,7.84-29.56,19.64-29.56c11.13,0,17.04,11.71,17.63,24.96L1020.4,631.28z
			 M1019.39,623.28l3.71-1.31c2.19-0.77,3.71-1.75,3.71-5.92c0-3.5-0.76-9.85-3.96-9.85c-3.46,0-3.46,7.56-3.46,11.61V623.28z"/>
		<path d="M1045.36,653.4v-7.23l3.96-0.77v-60.67c0-2.08-2.03-2.95-3.96-3.06v-6.35l19.31-5.37v75.46l3.96,0.77v7.23H1045.36z"/>
		<path d="M1110.88,643.1c0,1.21,0.76,1.75,1.52,1.75c0.59,0,1.18-0.11,1.52-0.44l1.86,5.92c-3.03,3.28-7.08,4.6-11.05,4.6
			c-3.12,0-6.25-1.97-7.76-5.7c-3.88,4.28-7.76,5.7-12.82,5.7c-6.74,0-12.57-5.58-12.57-14.56c0-16.32,14.17-20.37,23.95-22.78
			c-0.25-4.93-1.77-10.62-5.98-11.39c-0.85,5.59-3.8,10.84-8.35,10.84c-3.63,0-7.08-2.3-7.08-7.56c0-8.76,6.33-10.51,11.81-10.51
			c11.3,0,24.96,5.25,24.96,26.17V643.1z M1095.54,624.49c-5.4,1.31-7.76,5.47-7.76,11.5c0,3.18,0.76,7.99,3.8,7.99
			c1.69,0,3.96-1.42,3.96-3.72V624.49z"/>
		<path d="M1160.55,591.53c0,5.14-2.36,8.21-6.16,8.21c-2.44,0-4.47-1.75-6.15-4.05c-0.84,0-3.71,3.29-3.71,4.27
			c6.41,2.74,12.65,7.22,12.65,17.08c0,13.58-10.21,19.06-19.23,19.06c-1.18,0-2.03-0.22-2.95-0.22c-1.01,0-2.36,0.99-2.36,2.63
			c0,2.3,14.42,2.52,17.29,2.52c6.24,0,10.54,6.68,10.54,14.68c0,13.36-7.34,16.86-21.92,16.86c-11.47,0-20.74-0.55-20.74-7.56
			c0-4.6,3.46-7.56,6.07-9.75v-0.33c-2.19-0.33-5.82-2.63-5.82-5.91c0-6.57,7.26-11.5,10.37-15.77c-5.82-3.07-8.69-7.67-8.69-16.1
			c0-13.15,10.71-18.18,19.14-18.18c3.88-6.35,8.52-15.67,15.52-15.67C1158.19,583.31,1160.55,586.37,1160.55,591.53z
			 M1148.66,661.28c0-2.96-5.9-2.85-7.34-2.96l-3.71-0.22c-2.52-0.11-4.97-0.55-6.07-0.87c-1.26,0.98-1.94,2.63-1.94,4.6
			c0,3.72,4.63,3.94,10.03,3.94C1144.19,665.77,1148.66,664.9,1148.66,661.28z M1135.09,617.8c0,2.96,0,11.06,3.37,11.06
			c3.37,0,3.37-8.1,3.37-11.06c0-6.46,0-11.61-3.37-11.61C1135.09,606.2,1135.09,611.34,1135.09,617.8z"/>
	</g>
	<g class="st1">
		<path class="st8" d="M424.17,259.28c17.87,27.34,10.94,62.34,7.66,93.69c-2.19,16.04-2.92,32.44-2.19,49.21v110.09
			c3.28,4.37,6.93,8.38,6.56,14.22c-1.1,2.91-1.46,7.29-5.1,8.02c-5.47,2.19-11.3,0.36-17.5,0.73
			c-14.95-13.49-20.78-32.81-33.9-47.02c-14.58-25.52-34.63-47.03-44.84-75.1c-1.09-0.37-1.46-2.19-3.28-1.46
			c-8.02,2.55-4.74,12.39-5.47,18.95c1.82,30.62-10.57,71.09,20.78,90.41c0.73,4.37,2.55,10.2-1.46,13.49
			c-3.65,1.82-5.47,0-9.48,0.73c-11.3,0-22.97-0.37-34.63,0c-1.09,0.73-2.55-0.37-4.01-0.73c-3.65-3.65-4.38-9.84-2.92-14.58
			c15.68-16.04,5.83-39,9.48-58.69c-1.09-28.07-0.36-56.14-0.73-84.94c-1.09-16.4-0.37-30.99-0.37-47.39l-0.36-55.05
			c-2.92-4.74-10.57-6.93-8.02-13.85l2.92-2.55c11.3-1.82,22.97-1.09,34.27-0.73c20.42,25.88,28.44,57.6,48.12,83.48
			c7.29,9.48,12.03,20.05,14.22,31.71c2.55,3.64,6.93,2.19,10.57,1.46c14.58-12.4,6.2-33.17,2.92-48.49
			c-8.02-21.14-37.55-38.64-22.97-63.79c2.92-6.56,10.57-8.75,16.77-10.94C409.95,249.8,417.97,253.81,424.17,259.28z"/>
		<path class="st8" d="M827.72,264.75c2.55,9.84,1.82,21.87-5.47,29.16c-10.57,8.38-29.89-5.1-37.19,9.84
			c-2.18,18.96,7.66,34.27,12.76,51.04c11.67,44.11,19.32,89.31,20.42,135.97c0.73,8.02-2.19,18.23,5.1,23.7
			c2.55,4.38,8.02,8.02,5.47,14.22c-1.09,2.92-4.01,5.1-7.29,5.47c-23.7,0.36-48.84,0.36-72.54,0c-2.55-0.36-3.64-3.28-5.1-5.11
			c-0.36-3.28-1.82-8.38,2.19-10.21c2.92-2.19,6.93-4.01,7.66-7.66c-1.46-36.82-4.74-73.27-8.02-109.73
			c-1.46-9.48-2.55-19.69-5.1-28.8c-2.55-4.74-5.1-13.12-12.03-12.39c-3.28,0-6.2,0.37-8.38,2.92l-0.73,2.19
			c7.66,50.67,4.38,96.97,2.92,147.64c2.55,5.47,13.49,9.48,9.11,17.5c-4.01,4.37-9.48,3.65-14.58,4.01
			c-21.14-0.73-41.56-1.46-62.7-1.09c-3.28-1.09-2.92-5.1-3.28-8.02l1.09-5.11c4.74-4.01,7.29-10.2,6.2-16.04
			c0.73-46.3-1.82-91.14-2.92-136.7c-1.09-29.89,0-61.24,0.73-91.5c-1.1-6.2-13.49-12.03-4.38-17.5
			c24.06-2.92,50.67-1.46,74.73-1.46c3.65,1.82,2.55,6.93,2.19,10.21c-0.73,3.28-4.38,3.64-6.56,5.1
			c-1.09,6.93-0.36,14.22-0.36,20.78c-0.37,14.22-2.19,26.25-0.37,40.46c4.74,4.74,12.03,3.65,17.86,1.82
			c29.16-14.58,25.15-49.94,40.83-73.64c4.74-6.93,12.39-10.21,20.05-10.57C810.22,253.45,823.71,252.72,827.72,264.75z"/>
		<path class="st8" d="M544.06,530.8c21.35-0.29,43.09-1.84,62.02-9.78c22.24-13.49,31.35-39.01,31.72-64.16
			c1.09-9.48,0.36-20.42-0.73-30.62c0-21.87-14.95-39.74-33.18-49.58c-4.37-2.55-10.57-2.19-13.49-6.56
			c-1.82-10.21,10.94-6.2,16.4-9.48c19.68-8.02,25.15-31.35,25.52-50.31c-1.46-9.84-2.92-19.69-8.75-27.71
			c-9.11-14.22-25.52-22.24-40.46-27.34H544.1l0.27,15.31c0,0,11.03-1.82,13.22,4.38c0,2.92,1.09,6.2,2.19,9.11
			c3.65,26.25,8.02,54.32-7.29,75.09c-3.65,3.28-8.38,3.28-12.39,1.46c-6.93-8.02,0.73-18.96,0-28.8
			c-0.36-10.94-0.73-21.87-1.09-32.45c-1.09-6.56-1.46-14.95-3.28-21.87c0.37-5.79,7.51-7.02,7.51-7.02l-0.31-14.88l-79.02-1.07
			l-1.46,0.37c-3.28,2.19-3.28,5.83-3.28,9.11c1.46,7.65,10.94,8.75,9.11,17.5c-0.37,50.31-0.37,99.16,0,149.83
			c0.73,24.79,0,54.32,0.73,79.47c0,2.92-2.92,3.65-4.38,5.11c-1.82,1.82-2.92,4.01-2.19,6.56c0.73,3.64,0.37,9.11,5.47,10.57
			c4.74-1.09,10.21-1.45,15.31-2.18c4.01,0.73,8.38-1.09,12.39-0.36c3.28-1.1,7.29,0.73,9.84-0.36c7.29,0.36,14.58,0.36,21.87,0.73
			c0.73,0.73,3.6-1.09,4.69,0.36l5.38-0.14l3.67-18.26c0,0-0.42-0.12-0.62-0.2c-5.47-2.55-3.28-9.48-2.55-14.22
			c2.19-6.19,2.92-13.49,2.55-20.05c-0.73-30.62,4.74-62.34-4.38-92.23c0.73-2.19,2.19-5.47,5.1-5.47
			c7.29,1.82,16.77,2.19,18.59,10.94c8.75,30.99,4.01,68.9,3.65,101.34c-1.82,7.29-6.2,15.68-14.22,18.23
			c-1.6,1.07-6.97,1.9-6.97,1.9l-3.19,17.76C539.05,530.84,542.92,530.81,544.06,530.8"/>
		<polygon class="st9" points="543.37,529.18 544.51,515.28 538.59,514.14 535.63,529.18 		"/>
		<path class="st8" d="M538.13,521.66"/>
		<polyline class="st9" points="547.02,268.76 547.25,257.37 540.41,257.37 540.41,269.44 		"/>
		<path class="st8" d="M543.72,262.72"/>
	</g>
</g>
<g id="LK">
	<g>
		<path class="st10" d="M883.23,218.01c0,79.25-64.23,143.45-143.44,143.45c-79.24,0-143.41-64.2-143.41-143.45
			c0-79.2,64.17-143.4,143.41-143.4C819,74.61,883.23,138.81,883.23,218.01z"/>
		<path class="st11" d="M828.95,307.46c0,0-153.74,13.55-298.04-109.59C530.91,197.86,597.78,388.98,828.95,307.46z"/>
		<path class="st12" d="M965.65,381.73c0,0-185.27,144.63-465.81,108.83C499.84,490.56,797.03,637.13,965.65,381.73z"/>
		<path class="st13" d="M962.24,362.39c0,0-250.13,86.4-506.48-44.88C455.75,317.51,675.17,568.28,962.24,362.39z"/>
	</g>
	<g>
		<path class="st12" d="M170.93,777.09V602.71h20.5v155.39h73.15v18.99H170.93z"/>
		<path class="st12" d="M348.09,777.09l-1.52-6.58h-0.76c-13.16,7.85-26.33,9.37-38.98,9.12c-16.95-0.51-31.89-12.15-31.89-32.66
			c0-11.89,2.53-24.8,16.46-31.89c14.18-6.83,37.46-6.83,52.38-7.34v-19.23c0-11.14-7.59-15.94-21.25-15.94
			c-10.88,0-27.34,3.04-36.95,6.32l-1.26-18.22c13.66-3.29,23.02-4.3,39.98-4.3c22.27,0,38.47,7.34,38.47,29.36v91.36H348.09z
			 M343.54,723.18c-10.38,0.25-31.39,0.76-41.76,6.33c-5.82,3.04-7.09,10.38-7.09,16.95c-0.25,9.11,6.32,16.2,14.68,16.2
			c13.16,0,23.03-1.77,34.41-8.6L343.54,723.18z"/>
		<path class="st12" d="M484.24,777.09h-19.23v-88.07c0-11.14-9.87-15.7-16.2-15.7c-15.69,0-31.13,4.56-37.46,9.37v94.41h-19.23
			V658.64h14.93l1.52,7.09l0.51,0.25c16.95-8.86,28.59-9.61,41.75-9.61c15.44,0,33.41,7.34,33.41,29.36V777.09z"/>
		<path class="st12" d="M589.53,777.09l-1.77-7.09H587c-12.4,7.34-24.81,9.36-35.18,9.36c-31.13,0-43.53-19.23-43.53-61.24
			c0-44.54,14.42-61.76,48.84-61.76c9.87,0,19.24,1.26,27.34,4.55h0.51v-66.05h19.23v182.23H589.53z M584.97,679.4
			c-10.12-4.3-16.96-5.82-27.84-5.82c-19.48,0-29.11,8.86-29.11,44.54c0,32.9,7.34,43.53,24.81,43.53c12.91,0,26.07-4.3,32.14-8.1
			V679.4z"/>
		<path class="st12" d="M705.44,777.09l-28.85-51.88l-3.3-6.58h-0.76l-15.94,19.75v38.72h-19.23l-0.25-182.23h19.49v115.16h0.51
			l4.81-6.32l35.68-45.06h23.79l-35.68,44.04l41,74.41H705.44z"/>
		<path class="st12" d="M802.62,675.6c-4.04-1.52-9.61-0.76-12.9-0.76c-9.37,0-20.76,7.34-26.07,15.7v86.56h-19.23V658.64h14.42
			l2.53,12.15h0.76c7.84-8.86,15.44-14.43,29.86-14.43c4.05,0,8.1,0,11.64,1.26L802.62,675.6z"/>
		<path class="st12" d="M909.16,720.4h-71.88c0.51,33.91,13.42,41.25,32.4,41.25c14.68,0,24.8-2.27,34.17-4.3l1.27,18.22
			c-9.62,2.03-22.78,3.79-35.44,3.79c-34.42,0-52.14-16.7-52.14-61.24c0-44.54,15.18-61.76,49.86-61.76
			c13.16,0,24.05,3.04,30.88,10.63c7.34,7.84,10.88,20.25,10.88,38.72V720.4z M883.1,678.39c-3.3-3.29-8.61-4.56-15.7-4.56
			c-18.73,0-27.59,6.08-29.36,31.39h51.63C889.68,691.54,888.16,682.94,883.1,678.39z"/>
		<path class="st12" d="M1010.64,777.09l-1.77-7.09h-0.76c-12.41,7.34-24.81,9.36-35.18,9.36c-31.14,0-43.53-19.23-43.53-61.24
			c0-44.54,14.43-61.76,48.84-61.76c9.87,0,19.24,1.26,27.34,4.55h0.5v-66.05h19.23v182.23H1010.64z M1006.09,679.4
			c-10.12-4.3-16.96-5.82-27.84-5.82c-19.48,0-29.11,8.86-29.11,44.54c0,32.9,7.34,43.53,24.81,43.53c12.91,0,26.07-4.3,32.14-8.1
			V679.4z"/>
		<path class="st12" d="M1056.96,633.34v-23.79h23.79v23.79H1056.96z M1059.48,777.09V658.64h19.24v118.45H1059.48z"/>
		<path class="st12" d="M1140.97,676.11v79.47c0,3.29,0.51,6.07,6.08,6.07c9.61,0,16.44-1.52,23.28-2.78l1.02,18.22
			c-7.85,1.52-22.78,2.27-29.86,2.27c-14.43,0-19.75-7.08-19.75-21.51v-81.5h-18.22v-14.93l18.22-2.79v-35.18h19.23v35.18h35.69
			v17.47H1140.97z"/>
		<path class="st12" d="M1228.8,676.11v79.47c0,3.29,0.51,6.07,6.08,6.07c9.62,0,16.45-1.52,23.28-2.78l1.02,18.22
			c-7.85,1.52-22.78,2.27-29.87,2.27c-14.43,0-19.74-7.08-19.74-21.51v-81.5h-18.23v-14.93l18.23-2.79v-35.18h19.23v35.18h35.68
			v17.47H1228.8z"/>
	</g>
</g>
</svg>
