<svg enable-background="new 0 0 1417.32 896.63" viewBox="0 0 1417.32 896.63" xmlns="http://www.w3.org/2000/svg"><path d="m883.23 218.01c0 79.25-64.23 143.45-143.44 143.45-79.24 0-143.41-64.2-143.41-143.45 0-79.2 64.17-143.4 143.41-143.4 79.21 0 143.44 64.2 143.44 143.4z" fill="#faa61a"/><path d="m828.95 307.46s-153.74 13.55-298.04-109.59c0-.01 66.87 191.11 298.04 109.59z" fill="#abe1fa"/><path d="m965.65 381.73s-185.27 144.63-465.81 108.83c0 0 297.19 146.57 465.81-108.83z" fill="#006c32"/><path d="m962.24 362.39s-250.13 86.4-506.48-44.88c-.01 0 219.41 250.77 506.48 44.88z" fill="#007dc5"/><g fill="#006c32"><path d="m170.93 777.09v-174.38h20.5v155.39h73.15v18.99z"/><path d="m348.09 777.09-1.52-6.58h-.76c-13.16 7.85-26.33 9.37-38.98 9.12-16.95-.51-31.89-12.15-31.89-32.66 0-11.89 2.53-24.8 16.46-31.89 14.18-6.83 37.46-6.83 52.38-7.34v-19.23c0-11.14-7.59-15.94-21.25-15.94-10.88 0-27.34 3.04-36.95 6.32l-1.26-18.22c13.66-3.29 23.02-4.3 39.98-4.3 22.27 0 38.47 7.34 38.47 29.36v91.36zm-4.55-53.91c-10.38.25-31.39.76-41.76 6.33-5.82 3.04-7.09 10.38-7.09 16.95-.25 9.11 6.32 16.2 14.68 16.2 13.16 0 23.03-1.77 34.41-8.6z"/><path d="m484.24 777.09h-19.23v-88.07c0-11.14-9.87-15.7-16.2-15.7-15.69 0-31.13 4.56-37.46 9.37v94.41h-19.23v-118.46h14.93l1.52 7.09.51.25c16.95-8.86 28.59-9.61 41.75-9.61 15.44 0 33.41 7.34 33.41 29.36z"/><path d="m589.53 777.09-1.77-7.09h-.76c-12.4 7.34-24.81 9.36-35.18 9.36-31.13 0-43.53-19.23-43.53-61.24 0-44.54 14.42-61.76 48.84-61.76 9.87 0 19.24 1.26 27.34 4.55h.51v-66.05h19.23v182.23zm-4.56-97.69c-10.12-4.3-16.96-5.82-27.84-5.82-19.48 0-29.11 8.86-29.11 44.54 0 32.9 7.34 43.53 24.81 43.53 12.91 0 26.07-4.3 32.14-8.1z"/><path d="m705.44 777.09-28.85-51.88-3.3-6.58h-.76l-15.94 19.75v38.72h-19.23l-.25-182.23h19.49v115.16h.51l4.81-6.32 35.68-45.06h23.79l-35.68 44.04 41 74.41h-21.27z"/><path d="m802.62 675.6c-4.04-1.52-9.61-.76-12.9-.76-9.37 0-20.76 7.34-26.07 15.7v86.56h-19.23v-118.46h14.42l2.53 12.15h.76c7.84-8.86 15.44-14.43 29.86-14.43 4.05 0 8.1 0 11.64 1.26z"/><path d="m909.16 720.4h-71.88c.51 33.91 13.42 41.25 32.4 41.25 14.68 0 24.8-2.27 34.17-4.3l1.27 18.22c-9.62 2.03-22.78 3.79-35.44 3.79-34.42 0-52.14-16.7-52.14-61.24s15.18-61.76 49.86-61.76c13.16 0 24.05 3.04 30.88 10.63 7.34 7.84 10.88 20.25 10.88 38.72zm-26.06-42.01c-3.3-3.29-8.61-4.56-15.7-4.56-18.73 0-27.59 6.08-29.36 31.39h51.63c.01-13.68-1.51-22.28-6.57-26.83z"/><path d="m1010.64 777.09-1.77-7.09h-.76c-12.41 7.34-24.81 9.36-35.18 9.36-31.14 0-43.53-19.23-43.53-61.24 0-44.54 14.43-61.76 48.84-61.76 9.87 0 19.24 1.26 27.34 4.55h.5v-66.05h19.23v182.23zm-4.55-97.69c-10.12-4.3-16.96-5.82-27.84-5.82-19.48 0-29.11 8.86-29.11 44.54 0 32.9 7.34 43.53 24.81 43.53 12.91 0 26.07-4.3 32.14-8.1z"/><path d="m1056.96 633.34v-23.79h23.79v23.79zm2.52 143.75v-118.45h19.24v118.45z"/><path d="m1140.97 676.11v79.47c0 3.29.51 6.07 6.08 6.07 9.61 0 16.44-1.52 23.28-2.78l1.02 18.22c-7.85 1.52-22.78 2.27-29.86 2.27-14.43 0-19.75-7.08-19.75-21.51v-81.5h-18.22v-14.93l18.22-2.79v-35.18h19.23v35.18h35.69v17.47h-35.69z"/><path d="m1228.8 676.11v79.47c0 3.29.51 6.07 6.08 6.07 9.62 0 16.45-1.52 23.28-2.78l1.02 18.22c-7.85 1.52-22.78 2.27-29.87 2.27-14.43 0-19.74-7.08-19.74-21.51v-81.5h-18.23v-14.93l18.23-2.79v-35.18h19.23v35.18h35.68v17.47h-35.68z"/></g></svg>