<svg id="Lager_1" data-name="Lager 1" xmlns="http://www.w3.org/2000/svg" viewBox="0 0 89.05 43.67"><defs><style>.cls-1{fill:#fff;}</style></defs><title>NordeaDirect_Secondary_SmallSize_White_RGB</title><path class="cls-1" d="M55.84,2.72a5,5,0,0,0,.39,10,3.73,3.73,0,0,0,3.09-1.61V12.6h1.94V7.82a5,5,0,0,0-5.42-5.1m3.28,5.15a2.89,2.89,0,1,1,0-.3Z" transform="translate(0 0)"/><path class="cls-1" d="M45.22,2.7A5,5,0,1,0,50,9.64l-1.94-.58a2.94,2.94,0,0,1-5.27.16l7.53-2.05a5,5,0,0,0-5.1-4.47M42.41,7.52a3,3,0,0,1,2-2.77A2.74,2.74,0,0,1,47.84,6Z" transform="translate(0 0)"/><path class="cls-1" d="M28.66,4.74V2.68a2.87,2.87,0,0,0-2.82,1.44V3H23.7V12.6h2.2c0-3,0-2.91,0-4.7,0-2.22,1.28-3.08,2.77-3.16" transform="translate(0 0)"/><polygon class="cls-1" points="8.84 8.75 2.28 1.02 0.04 1.02 0.04 12.59 2.35 12.59 2.35 4.85 9 12.6 11.05 12.6 11.05 1.02 8.84 1.02 8.84 8.75"/><path class="cls-1" d="M39,0H36.9V3.77a4.39,4.39,0,0,0-3.35-1,5,5,0,0,0,.4,10A3.81,3.81,0,0,0,37,11.32V12.6H39V0ZM36.84,7.87a2.89,2.89,0,1,1,0-.3Z" transform="translate(0 0)"/><path class="cls-1" d="M17.37,2.7a5,5,0,1,0,5,5,5,5,0,0,0-5-5m0,7.91a2.89,2.89,0,1,1,2.89-2.89,2.89,2.89,0,0,1-2.89,2.89" transform="translate(0 0)"/><path class="cls-1" d="M20.07,30.39c0,8.43-4.71,12.85-11.71,12.85H0V17.51H8.36C15.36,17.51,20.07,21.92,20.07,30.39Zm-3.36,0c0-5.18-2.22-10-8.35-10H3.28v20H8.36C14.49,40.39,16.71,35.54,16.71,30.39Z" transform="translate(0 0)"/><path class="cls-1" d="M23.58,19a2.15,2.15,0,0,1,4.3,0,2.15,2.15,0,0,1-4.3,0ZM29,41V43.2a3.79,3.79,0,0,1-1.35.22c-2.33,0-3.5-1.42-3.5-4.23v-15H27.3V39C27.3,40.46,27.77,41,29,41Z" transform="translate(0 0)"/><path class="cls-1" d="M42.52,24.26l-.73,3.06a6.22,6.22,0,0,0-1.57-.18c-3,0-4.56,2.59-4.56,6.61v9.49H32.52V24.15h3V28c.55-1.86,2-4.09,5-4.09A5.07,5.07,0,0,1,42.52,24.26Z" transform="translate(0 0)"/><path class="cls-1" d="M59.31,40.9a8.91,8.91,0,0,1-6.9,2.77c-5.15,0-9.09-3.06-9.09-9.81,0-7,4.24-10.11,8.87-10.11,4.12,0,6.71,2.33,6.71,5.73,0,3.61-2.84,5.73-8.42,5.73a24.9,24.9,0,0,1-4.06-.33C46.83,39,49.2,41,52.63,41a6.83,6.83,0,0,0,5.07-2.08ZM46.39,32.58a22.81,22.81,0,0,0,3.65.33c4.34,0,5.84-1.35,5.84-3.43S54.38,26.3,52,26.3C49.05,26.3,46.72,28.31,46.39,32.58Z" transform="translate(0 0)"/><path class="cls-1" d="M70.44,43.67c-4.93,0-8.91-3.1-8.91-10s4-10,9-10A8,8,0,0,1,76.57,26l-1.71,2.08a5.67,5.67,0,0,0-4.24-1.64c-3.43,0-5.87,2.34-5.87,7.3s2.44,7.3,5.8,7.3A5.71,5.71,0,0,0,75,39l1.83,1.83A7.61,7.61,0,0,1,70.44,43.67Z" transform="translate(0 0)"/><path class="cls-1" d="M81.35,38.16V26.63H78.14V24.15h3.21V19h3.14v5.11h4.56v2.48H84.49v10.8c0,2.23.65,3.4,3.06,3.4a5.84,5.84,0,0,0,1.5-.18v2.48a6.44,6.44,0,0,1-2.3.36C82.81,43.49,81.35,41.49,81.35,38.16Z" transform="translate(0 0)"/></svg>