<svg viewBox="0 0 326.6 101" xmlns="http://www.w3.org/2000/svg" xmlns:xlink="http://www.w3.org/1999/xlink" id="Layer_1" overflow="hidden"><g><g><path d="M261.4 39.5C265.1 38.1 268.4 34.6 268.4 29 268.4 22.3 263.8 16.7 256 16.7L241 16.7 241 56.8 248.5 56.8 248.5 40.9 254.1 40.9 261.9 56.8 270 56.8 261.4 39.5ZM255.6 34.4 248.5 34.4 248.5 24.1 255.6 24.1C258.9 24.1 261.1 26.2 261.1 29.2 261.1 32.3 258.9 34.4 255.6 34.4ZM236.3 23.2 236.3 16.7 209.3 16.7 209.3 56.8 236.3 56.8 236.3 49.3 217.6 49.3 217.6 40 233.5 40 233.5 33.5 217.6 33.5 217.6 23.2 236.3 23.2ZM189.7 34.4 189.7 40.9 197.2 40.9 197.2 42.5C197.2 44.6 196.7 46.5 195.4 48 194.1 49.4 192.2 50.3 189.8 50.3 187.6 50.3 185.9 49.5 184.7 48.2 183.2 46.5 182.8 44.5 182.8 36.6 182.8 28.7 183.2 26.8 184.7 25.1 185.8 23.8 187.6 22.9 189.8 22.9 193.8 22.9 196.2 25 197.1 28.9L204.7 28.9C203.6 21.8 199 15.3 189.8 15.3 185.4 15.3 181.9 17 179.1 19.9 175.1 24.2 175.2 29.5 175.2 36.8 175.2 44.1 175.1 49.4 179.1 53.7 181.9 56.7 185.4 58.3 189.8 58.3 194 58.3 197.8 57 200.9 53.5 203.7 50.4 204.7 46.7 204.7 40.6L204.7 34.4 189.7 34.4ZM156.1 34.4 156.1 40.9 163.6 40.9 163.6 42.5C163.6 44.6 163.1 46.5 161.8 48 160.5 49.4 158.6 50.3 156.2 50.3 154 50.3 152.3 49.5 151.1 48.2 149.6 46.5 149.2 44.5 149.2 36.6 149.2 28.7 149.6 26.8 151.1 25.1 152.2 23.8 154 22.9 156.2 22.9 160.2 22.9 162.6 25 163.5 28.9L171.1 28.9C170 21.8 165.4 15.3 156.2 15.3 151.8 15.3 148.3 17 145.5 19.9 141.5 24.2 141.6 29.5 141.6 36.8 141.6 44.1 141.5 49.4 145.5 53.7 148.3 56.7 151.8 58.3 156.2 58.3 160.4 58.3 164.2 57 167.3 53.5 170.1 50.4 171.1 46.7 171.1 40.6L171.1 34.4 156.1 34.4ZM132.5 16.7 125.4 32.9 118.2 16.7 110 16.7 121.6 40.4 121.6 56.9 129.1 56.9 129.1 40.3 140.7 16.6 132.5 16.6ZM103.2 36.2C105.2 35.2 108.2 32.4 108.2 27.9 108.2 21 103.7 16.7 95.9 16.6L92.7 23.1 95.9 23.1C99.3 23.1 101.1 25 101.1 27.8 101.1 30.6 99.2 32.5 95.9 32.5L88 32.5 84.2 40.3 79.6 50.6 79.6 56.8 96.4 56.8C103.6 56.8 108.7 52.7 108.7 45.3 108.7 39.9 105.6 37.3 103.2 36.2ZM95.8 49.3 88 49.3 88 40 95.7 40C99.1 40 100.7 42.1 100.7 44.6 100.7 47.2 99.1 49.3 95.8 49.3Z" fill="#CCF4FF"/><path d="M272.7 56.8 272.7 53 276.4 53 276.4 56.7 272.7 56.7 272.7 56.8ZM287.6 56.8 281.1 47.1 281.1 56.8 278.3 56.8 278.3 40.9 281.1 40.9 287.6 50.6 287.6 40.9 290.4 40.9 290.4 56.8 287.6 56.8 287.6 56.8ZM302.7 55C301.6 56.1 300.2 56.7 298.4 56.7 296.6 56.7 295.2 56.1 294.1 55 292.5 53.4 292.5 51.4 292.5 48.6 292.5 45.8 292.5 43.9 294.1 42.2 295.2 41.1 296.6 40.5 298.4 40.5 300.2 40.5 301.6 41.1 302.7 42.2 304.3 43.8 304.3 45.8 304.3 48.6 304.3 51.4 304.3 53.4 302.7 55L302.7 55ZM300.4 44.2C300 43.7 299.3 43.3 298.4 43.3 297.5 43.3 296.8 43.6 296.4 44.2 295.8 44.9 295.6 45.6 295.6 48.7 295.6 51.8 295.8 52.5 296.4 53.2 296.8 53.7 297.6 54.1 298.4 54.1 299.3 54.1 299.9 53.8 300.4 53.2 301 52.5 301.2 51.8 301.2 48.7 301.2 45.6 301 44.8 300.4 44.2L300.4 44.2Z" fill="#CCF4FF"/><path d="M45.3 56.8 29.7 32.2 29.7 56.8 22.3 56.8 22.3 16.7 29.1 16.7 44.7 41.2 44.7 16.7 52.1 16.7 52.1 56.8 45.3 56.8Z" fill="#CCF4FF"/><path d="M73.6 40.3 73.6 56.8 66.1 56.8 66.1 40.3 54.5 16.7 62.7 16.7 69.9 32.8 77 16.7 85.1 16.7 73.6 40.3Z" fill="#CCF4FF"/></g><g><path d="M30.5 84C29.6 84.7 28.5 85.1 27 85.1 26.5 85.1 26 85.1 25.6 85 25.2 84.9 24.8 84.8 24.4 84.7 24 84.5 23.7 84.4 23.3 84.1 23 83.9 22.6 83.6 22.3 83.3L23.1 82.5C23.4 82.8 23.7 83.1 24 83.3 24.3 83.5 24.6 83.7 24.9 83.8 25.2 83.9 25.6 84 25.9 84.1 26.3 84.2 26.6 84.2 27.1 84.2 28.2 84.2 29.1 83.9 29.8 83.4 30.5 82.9 30.8 82.2 30.8 81.2 30.8 80.3 30.5 79.7 30 79.2 29.9 79.1 29.7 79 29.6 78.9 29.5 78.8 29.3 78.8 29.2 78.7 29 78.6 28.9 78.6 28.7 78.5 28.5 78.5 28.3 78.4 28 78.4L26.3 78.1C25.2 77.9 24.4 77.6 23.8 77.1 23.1 76.5 22.7 75.6 22.7 74.5 22.7 73.3 23.1 72.4 23.9 71.7 24.7 71 25.8 70.7 27.1 70.7 28 70.7 28.7 70.8 29.3 71.1 29.9 71.3 30.5 71.7 31.1 72.3L30.4 73C30.2 72.8 29.9 72.6 29.7 72.5 29.5 72.3 29.2 72.2 29 72.1 28.7 72 28.4 71.9 28.1 71.8 27.8 71.7 27.4 71.7 27 71.7 26 71.7 25.2 72 24.6 72.5 24 73 23.7 73.7 23.7 74.7 23.7 75.5 23.9 76.1 24.4 76.6 24.7 76.8 25 77 25.3 77.1 25.7 77.3 26.1 77.4 26.5 77.4L28 77.6C28.3 77.7 28.6 77.7 28.9 77.8 29.2 77.9 29.4 77.9 29.6 78 29.8 78.1 30 78.2 30.1 78.3 30.3 78.4 30.4 78.5 30.6 78.6 31 78.9 31.3 79.3 31.5 79.8 31.7 80.3 31.8 80.8 31.8 81.4 31.8 82.3 31.4 83.3 30.5 84Z" fill="#CCF4FF"/><path d="M44.4 76.5C44.2 77 43.9 77.4 43.5 77.8 43.1 78.2 42.7 78.4 42.1 78.6 41.6 78.8 41 78.9 40.4 78.9L36.3 78.9 36.3 84.9 35.2 84.9 35.2 70.7 40.4 70.7C41 70.7 41.6 70.8 42.1 71 42.6 71.2 43.1 71.5 43.5 71.8 43.9 72.1 44.2 72.6 44.4 73.1 44.6 73.6 44.7 74.2 44.7 74.8 44.7 75.5 44.6 76 44.4 76.5ZM43.4 73.4C43.2 73 43 72.7 42.7 72.4 42.4 72.1 42.1 71.9 41.7 71.8 41.3 71.7 40.8 71.6 40.4 71.6L36.4 71.6 36.4 77.9 40.4 77.9C40.9 77.9 41.3 77.8 41.7 77.7 42.1 77.6 42.5 77.4 42.7 77.1 43 76.8 43.2 76.5 43.4 76.1 43.6 75.7 43.6 75.2 43.6 74.7 43.6 74.3 43.5 73.8 43.4 73.4Z" fill="#CCF4FF"/><path d="M55.2 84.9 54 81.4 47.4 81.4 46 84.9 44.8 84.9 50 70.7 51 70.7 56.2 84.9 55.2 84.9ZM50.6 72.1 47.6 80.5 53.6 80.5 50.6 72.1Z" fill="#CCF4FF"/><path d="M67.2 84.9 63.8 78.3 59.9 78.3 59.9 84.9 58.8 84.9 58.8 70.7 64.2 70.7C64.8 70.7 65.3 70.8 65.8 70.9 66.3 71.1 66.7 71.3 67.1 71.6 67.5 71.9 67.8 72.3 68 72.8 68.2 73.3 68.3 73.8 68.3 74.4 68.3 75.5 68 76.3 67.4 77 66.8 77.7 66 78.1 65 78.2L68.4 84.8 67.2 84.8ZM67 73.3C66.8 72.9 66.6 72.6 66.4 72.4 66.1 72.2 65.8 72 65.4 71.9 65 71.8 64.6 71.7 64.1 71.7L59.9 71.7 59.9 77.5 64.1 77.5C64.6 77.5 65 77.4 65.4 77.3 65.8 77.2 66.1 77 66.4 76.8 66.7 76.6 66.9 76.3 67 75.9 67.2 75.5 67.2 75.1 67.2 74.6 67.2 74.1 67.2 73.6 67 73.3Z" fill="#CCF4FF"/><path d="M71.9 84.9 71.9 70.7 80.5 70.7 80.5 71.7 73 71.7 73 77.3 79.4 77.3 79.4 78.3 73 78.3 73 84 80.6 84 80.6 85 71.9 85Z" fill="#CCF4FF"/><path d="M93.2 82.7C93 83.2 92.7 83.6 92.4 83.9 92 84.2 91.6 84.5 91.1 84.6 90.6 84.8 90 84.8 89.4 84.8L84 84.8 84 70.7 89.2 70.7C89.8 70.7 90.3 70.8 90.8 70.9 91.3 71.1 91.7 71.3 92.1 71.6 92.5 71.9 92.8 72.3 93 72.8 93.2 73.3 93.3 73.8 93.3 74.4 93.3 75.1 93.1 75.8 92.7 76.4 92.3 77 91.8 77.4 91.1 77.6 91.9 77.9 92.5 78.3 92.9 78.9 93.3 79.5 93.5 80.2 93.5 81 93.5 81.7 93.4 82.3 93.2 82.7ZM91.9 73.2C91.7 72.9 91.5 72.6 91.2 72.4 90.9 72.2 90.6 72 90.2 71.9 89.8 71.8 89.4 71.7 89 71.7L85 71.7 85 77.2 89 77.2C89.4 77.2 89.8 77.1 90.2 77 90.6 76.9 90.9 76.7 91.2 76.5 91.5 76.3 91.7 76 91.9 75.7 92.1 75.4 92.1 74.9 92.1 74.4 92.2 73.9 92.1 73.5 91.9 73.2ZM91.5 78.9C90.9 78.4 90.1 78.1 89.2 78.1L85 78.1 85 84 89.2 84C90.2 84 91 83.7 91.5 83.2 92.1 82.7 92.4 82 92.4 81.1 92.4 80.1 92.1 79.4 91.5 78.9Z" fill="#CCF4FF"/><path d="M105.7 84.9 104.5 81.4 97.9 81.4 96.7 84.9 95.5 84.9 100.7 70.7 101.7 70.7 106.9 84.9 105.7 84.9ZM101.1 72.1 98.1 80.5 104.1 80.5 101.1 72.1Z" fill="#CCF4FF"/><path d="M118.6 84.9 110.4 72.5 110.4 84.9 109.3 84.9 109.3 70.7 110.4 70.7 118.6 83 118.6 70.7 119.7 70.7 119.7 84.9 118.6 84.9Z" fill="#CCF4FF"/><path d="M133.1 84.9 128.5 76.9 125.1 81 125.1 84.9 124 84.9 124 70.7 125.1 70.7 125.1 79.6 132.3 70.7 133.6 70.7 129.2 76.1 134.3 84.9 133.1 84.9Z" fill="#CCF4FF"/><path d="M137 84.9 137 70.7 145.6 70.7 145.6 71.7 138 71.7 138 77.3 144.4 77.3 144.4 78.3 138 78.3 138 84 145.6 84 145.6 85 137 85Z" fill="#CCF4FF"/><path d="M158.2 84.9 150 72.6 150 85 148.9 85 148.9 70.7 150 70.7 158.2 83 158.2 70.7 159.3 70.7 159.3 84.9 158.2 84.9Z" fill="#CCF4FF"/><path d="M178 79.9C178 80.5 177.9 81 177.9 81.4 177.8 81.8 177.7 82.2 177.5 82.6 177.3 83 177.1 83.3 176.8 83.6 176.3 84.1 175.8 84.4 175.2 84.7 174.6 85 173.9 85.1 173.3 85.1 172.4 85.1 171.5 84.9 170.7 84.4L170 85.9 168.9 85.9 169.9 83.9 169.7 83.7C169.4 83.4 169.1 83.1 169 82.7 168.9 82.3 168.7 82 168.6 81.5 168.5 81.1 168.5 80.5 168.5 80 168.5 79.5 168.5 78.7 168.5 77.9 168.5 77.1 168.5 76.4 168.5 75.8 168.5 75.2 168.6 74.7 168.6 74.3 168.6 73.9 168.8 73.5 169 73.1 169.2 72.7 169.4 72.4 169.7 72.1 170.2 71.6 170.7 71.3 171.3 71 171.9 70.7 172.6 70.6 173.2 70.6 174.1 70.6 175 70.8 175.8 71.3L176.5 69.8 177.6 69.8 176.6 71.8 176.8 72C177.1 72.3 177.4 72.7 177.5 73 177.6 73.3 177.8 73.7 177.9 74.2 178 74.7 178 75.1 178 75.7 178 76.3 178 77 178 77.8 178 78.6 178 79.3 178 79.9ZM173.1 71.5C172.6 71.5 172.1 71.6 171.6 71.8 171.1 72 170.7 72.3 170.4 72.6 170.1 72.9 169.9 73.1 169.8 73.4 169.7 73.7 169.5 74 169.5 74.4 169.5 74.8 169.4 75.3 169.4 75.8 169.4 76.3 169.4 77 169.4 77.7 169.4 78.4 169.4 79 169.4 79.5 169.4 80 169.5 80.5 169.5 80.8 169.6 81.2 169.6 81.5 169.8 81.8 169.9 82.1 170.1 82.3 170.3 82.6L175.4 72C174.6 71.8 173.9 71.5 173.1 71.5ZM176.9 76C176.9 75.5 176.8 75 176.8 74.7 176.7 74.3 176.7 74 176.5 73.7 176.3 73.4 176.2 73.2 176 72.9L170.9 83.5C171.2 83.7 171.5 83.9 171.9 84 172.3 84.1 172.7 84.2 173 84.2 173.5 84.2 174 84.1 174.5 83.9 175 83.7 175.4 83.4 175.7 83.1 176 82.8 176.2 82.6 176.3 82.3 176.4 82 176.6 81.7 176.6 81.3 176.7 80.9 176.7 80.4 176.7 79.9 176.7 79.4 176.7 78.7 176.7 78 176.9 77.1 176.9 76.5 176.9 76Z" fill="#CCF4FF"/><path d="M188.9 84C188 84.7 186.9 85.1 185.4 85.1 184.9 85.1 184.4 85.1 184 85 183.6 84.9 183.2 84.8 182.8 84.7 182.4 84.5 182.1 84.4 181.7 84.1 181.4 83.9 181 83.6 180.7 83.3L181.5 82.5C181.8 82.8 182.1 83.1 182.4 83.3 182.7 83.5 183 83.7 183.3 83.8 183.6 83.9 184 84 184.3 84.1 184.7 84.2 185 84.2 185.5 84.2 186.6 84.2 187.5 83.9 188.2 83.4 188.9 82.9 189.2 82.2 189.2 81.2 189.2 80.3 188.9 79.7 188.4 79.2 188.3 79.1 188.1 79 188 78.9 187.9 78.8 187.7 78.8 187.6 78.7 187.4 78.6 187.3 78.6 187.1 78.5 186.9 78.5 186.7 78.4 186.4 78.4L184.7 78.1C183.6 77.9 182.8 77.6 182.2 77.1 181.5 76.5 181.1 75.6 181.1 74.5 181.1 73.3 181.5 72.4 182.3 71.7 183.1 71 184.2 70.7 185.5 70.7 186.4 70.7 187.1 70.8 187.7 71.1 188.3 71.3 188.9 71.7 189.5 72.3L188.8 73C188.6 72.8 188.3 72.6 188.1 72.5 187.9 72.3 187.6 72.2 187.4 72.1 187.1 72 186.8 71.9 186.5 71.8 186.2 71.7 185.8 71.7 185.4 71.7 184.4 71.7 183.6 72 183 72.5 182.4 73 182.1 73.7 182.1 74.7 182.1 75.5 182.3 76.1 182.8 76.6 183.1 76.8 183.4 77 183.7 77.1 184.1 77.3 184.5 77.4 184.9 77.4L186.4 77.6C186.7 77.7 187 77.7 187.3 77.8 187.6 77.9 187.8 77.9 188 78 188.2 78.1 188.4 78.2 188.5 78.3 188.7 78.4 188.8 78.5 189 78.6 189.4 78.9 189.7 79.3 189.9 79.8 190.1 80.3 190.2 80.8 190.2 81.4 190.2 82.3 189.7 83.3 188.9 84Z" fill="#CCF4FF"/><path d="M197.3 71.7 197.3 85 196.2 85 196.2 71.7 192 71.7 192 70.7 201.6 70.7 201.6 71.7 197.3 71.7Z" fill="#CCF4FF"/></g></g></svg>