<svg height="50" viewBox="0 0 50 50" width="50" xmlns="http://www.w3.org/2000/svg"><path d="m37.5 37.4765625h-5.1796875v-8.10625c0-1.9328125-.034375-4.41875-2.6921875-4.41875-2.6953125 0-3.10625 2.10625-3.10625 4.28125v8.24375h-5.175v-16.66875h4.965625v2.2796875h.071875c.690625-1.3109375 2.38125-2.69375 4.9015625-2.69375 5.2453125 0 6.2140625 3.4515625 6.2140625 7.940625zm-21.99375-18.9453125c-1.6640625 0-3.00625-1.346875-3.00625-3.0046875s1.3421875-3.0046875 3.00625-3.0046875c1.65625 0 3.0015625 1.346875 3.0015625 3.0046875s-1.3453125 3.0046875-3.0015625 3.0046875zm2.590625 18.9453125h-5.1859375v-16.66875h5.1859375zm6.903125-37.4765625c-13.8078125 0-25 11.1921875-25 25 0 13.80625 11.1921875 25 25 25s25-11.19375 25-25c0-13.8078125-11.1921875-25-25-25z" fill="#fff" fill-rule="evenodd"/></svg>