<svg height="20" viewBox="0 0 150 20" width="150" xmlns="http://www.w3.org/2000/svg"><g fill="#fff"><path d="m8.82939215 19.9500525c-.35514874-.0688357-1.18382912-.236008-1.38113397-.2753427-.40447495-.088503-1.30221202-.4326813-1.92372231-.7473587-1.79547416-.9046974-3.37391298-2.4190821-4.33084151-4.1694749-.69056699-1.2685431-1.19369436-3.2352766-1.19369436-4.7103267 0-.796527.25649631-2.55675345.41434019-2.85176346.05919146-.11800401.10851767-.22617435.09865243-.23600802-.00986525-.01966733-.01973049-.03933467-.00986525-.04916834 0-.01966733.01973049-.10817034.03946097-.20650701.04932622-.27534268.84841087-1.83889578 1.15423339-2.28141081.15784388-.21634068.35514874-.50151703.45380116-.63918837.29595728-.41301403 1.37126873-1.44554909 1.86453086-1.77989378.25649631-.17700601.49326213-.35401202.52285786-.38351302.05919145-.06883568.98652426-.55068537 1.67709124-.87519639.63137553-.28517635 1.46992115-.4818497 2.71294173-.64902204.95692853-.12783768 1.22329012-.12783768 2.17035342 0 1.6376302.21634068 2.0717009.33434468 3.216069.88503005 1.2430206.59002004 1.8941266 1.06203607 2.9595728 2.12407213l.6412408.64902205.2762268-.19667335c.3452835-.24584168.4932621-.17700601.8385456.44251503.1381134.25567535.3946097.70802404.5623189 1.00303406.3551487.62935471.3847444.58018637-.6017798 1.04236873-.3748793.17700601-1.1739639.55068537-1.7757437.83586172-2.6340198 1.25870941-3.413374 1.6225551-3.5021612 1.6225551-.0591914 0-.0986524.04916834-.0986524.09833668 0 .059002-.0394609.09833667-.0887872.09833667-.0493262 0-.4340706.15733868-.8385456.34417835-.4143402.18683968-.7892194.34417836-.8484109.34417836-.0789219 0-.2959572.5998537-.2959572.84569536 0 .118004-.4538012.5605191-.7201627.6981904-.0887872.0491683-.4242055.059002-.730028.029501-.49326213-.059002-.60177979-.1081703-.88787183-.442515-.26636155-.3048437-.32555301-.4621824-.32555301-.82602807 0-.50151704.24663107-.9932004.61164505-1.22920842.28609203-.18683967 1.14436809-.22617434 1.43046019-.07866933.2170353.118004.5228578.06883567.5228578-.08850301 0-.04916834.0690567-.088503.1479787-.088503.0789219 0 .1479786-.03933467.1479786-.07866934 0-.04916834.1677091-.17700601.3748792-.29501002.7004323-.40318036.6807018-.37367936.3156878-.69819038-.8582761-.74735871-1.9730485-1.09153707-2.92997705-.89486372-1.08517669.21634068-2.31833202 1.13087174-2.6142893 1.92739879-.05919145.18683967-.14797864.33434468-.17757437.33434468-.03946097 0-.12824815.29501002-.19730485.66868938-.17757436.98336674.09865243 2.13390584.68070174 2.74359314.11838291.1278377.21703534.2556754.23676583.29501.04932621.1573387.73989319.7178578.89773708.7178578.08878718 0 .15784388.0393346.15784388.088503 0 .1573386.9273328.354012 1.62776504.3441783 1.2035596-.0098336 2.5748283-.5801863 3.6008135-1.5045511.2367659-.2261743.4735317-.4031803.5129927-.4031803.1677091 0-.3156878.88503-.730028 1.3177114-.1479786.1671723-.2762268.324511-.2762268.3736793 0 .0393347-.0493262.0786694-.1183829.0786694s-.2367658.1081703-.3847445.2458417c-.1381134.147505-.5820493.383513-.9865242.5408517-.6313755.2458416-.8582761.2851763-1.667226.2753426-.94706331-.0098336-1.25288584-.0786693-2.11116194-.472016-.56231883-.2556753-1.63763028-1.2882104-1.83493513-1.7700601-.07892194-.1868397-.16770913-.3638457-.2071701-.3933467-.02959573-.029501-.13811339-.3441783-.22690058-.7178577-.5327231-2.11423846.46366641-4.20880959 2.45644542-5.19217632.62151028-.30484369.77935416-.33434469 1.70668697-.36384569.64124076-.029501 1.20355956.00983366 1.48965166.088503.6807017.18683968 1.4403254.62935471 1.9039918 1.11120441.2663616.27534268.286092.28517635.4735316.10817034.1085177-.09833668.1973049-.14750501.1973049-.10817034s.0690567 0 .1677091-.08850301c.0887872-.088503.325553-.26550902.5327231-.39334669.1973049-.13767134.3946097-.27534268.4242055-.32451102.0493262-.08850301-.7102975-.83586172-1.2232901-1.19970741-1.381134-.98336673-3.1766082-1.40621442-4.75504697-1.13087174-.88787184.14750501-1.23315533.27534269-2.13089241.73752505-.55245358.27534268-1.83493513 1.32754508-1.93358755 1.57338676-.05919146.15733868-.45380116.72769138-.6708365.98336673-.0690567.07866934-.11838291.15733868-.09865243.16717235.00986525.01966733-.06905669.24584168-.17757436.50151703-.45380116 1.00303406-.61164505 2.48791782-.38474447 3.57945485.11838292.5998537.45380116 1.5438858.6017798 1.7208918.05919146.0688357.0690567.1278377.01973049.1278377s-.03946097.0393347.00986524.0786693c.05919146.0393347.25649631.3048437.43407068.5801864.76948892 1.2095411 2.56496308 2.4092485 4.0052885 2.6747575 1.12463766.206507 2.71294168.0983367 3.47256538-.2458417.7990847-.3441783 1.4107297-.6686894 1.4107297-.7178577 0-.029501.1183829-.118004.2762268-.1868397.325553-.147505 1.5093821-1.2685431 2.0223748-1.9077314.4242054-.5211844 1.1049071-1.7995611 1.2726163-2.3895812.1183829-.3933467.1183829-.3933467.1578438-.0983367.078922.6490221-.4439359 2.2027415-1.1345029 3.3434469-.1874396.3048437-1.8053394 1.9864008-1.8053394 1.8782305 0-.0393347-.1479786.0393346-.325553.177006-.4538011.3441783-1.5587083.8161944-2.3084667.9932004-.7398932.177006-2.59455886.1966733-3.26539536.0393347-1.14436814-.2655091-2.35779298-.8260281-3.06809045-1.4160481-.70043223-.5703527-1.78560892-1.8487295-1.78560892-2.0945712 0-.059002-.03946097-.118004-.07892194-.1376713-.12824815-.0491683-.51299262-1.0227014-.73002795-1.8388958-.2762268-1.0227014-.26636155-2.43874948.00986524-3.53028655.20717009-.79652705.58204931-1.7110581.73002795-1.77006011.03946097-.01966733.0690567-.118004.0690567-.22617434 0-.09833668.03946097-.18683968.07892194-.18683968s.15784388-.14750501.26636155-.31467736c.09865243-.17700601.26636155-.38351302.36501398-.45234869s.17757437-.19667335.17757437-.27534268c0-.07866934.02959573-.13767135.07892194-.13767135.03946097 0 .25649631-.16717234.48339689-.37367935.4636664-.4228477 1.15423338-.90469739 1.31207727-.90469739.04932621 0 .09865242-.02950101.09865242-.07866934 0-.03933467.25649631-.17700601.57218407-.29501002 1.95331804-.76702605 3.9263666-.78669338 5.7415712-.03933467 1.1147724.46218236 1.8250699.95386573 2.722807 1.87823045.3156877.32451102.3354182.33434469.5524536.16717235.1282481-.08850301.3946097-.26550902.6017798-.40318036.1973048-.13767135.3650139-.27534269.3650139-.30484369 0-.09833667-1.1345029-1.18987374-1.667226-1.60288777-2.1506229-1.66188977-5.3962877-2.21257513-8.09936416-1.37671342-.4636664.14750501-1.55870833.66868938-1.92372231.91453106-.15784388.11800401-.29595728.18683968-.29595728.15733868-.01973048-.14750501-1.54884309 1.24887574-2.12102716 1.91756512-1.36140348 1.5930541-2.24927532 4.33664727-2.02237474 6.24437871.03946097.29501.08878718.7178577.10851767.9341984.07892194.6391884.41434019 1.6225551.83854562 2.4584168.64124077 1.2488758.66097126 1.2685431 1.07531145 1.7208918.21703534.236008.3946097.442515.3946097.472016 0 .059002.36501398.3933467.94706329.8555291.26636156.2163407.51299262.442515.55245359.4916833.03946097.0590021.07892194.0590021.07892194.0196674s.09865243.0098337.21703534.1278377c.11838291.1081703.25649631.1966733.29595728.1966733.04932621 0 .25649631.1081703.47353164.2458417.21703534.1376713.47353165.265509.56231883.2851763.09865243.0098337.31568777.088503.47353165.1573387 1.33180775.5506854 3.57121785.6981904 5.04113895.324511.4439359-.118004.8878719-.2458416.9865243-.3048437.1085177-.0491683.2367658-.1081703.286092-.1081703.1775744-.0196673.4932622-.1376713.5425884-.1966733.0295957-.029501.2959573-.177006.5919145-.3343447 1.7362827-.8653627 3.778388-2.9697675 4.5774726-4.7103267.4932621-1.0817034.8484109-2.2814108.8484109-2.9304328 0-.1868397.0493262-.41301403.1085176-.49168337.1381134-.19667335.0295958 1.48488377-.1578438 2.40924847-.1973049.9440321-.2663616 1.1702064-.6412408 1.9667335-1.706687 3.6089559-5.3075005 5.8903667-9.21413662 5.8411983-.49326213-.0098336-.98652426-.029501-1.09504193-.0491683z"/><path d="m129.252106 16.7478937c-.474615-.4647272-.247195-1.2359766.415288-1.3941816.524055-.1384293 1.117323.4548394.978894.9788935-.158205.6624834-.929454.8899031-1.394182.4152881z"/><path d="m144.474497 16.895462c-.926296-.3083522-1.583667-.8156412-2.101596-1.6213355-1.16534-1.8202723-.846614-4.9037938.647411-6.22672395 1.543827-1.36271754 4.262953-1.40250491 5.727098-.07957474.468128.4376611.906376 1.20356809 1.105579 1.93963449.189243.7261195.199204 2.4071361.00996 3.0835214-.318725 1.1936212-1.145419 2.2280929-2.181277 2.6955946-.537849.2486711-.756973.2884584-1.713149.3083521-.707172.0198937-1.235061-.0198937-1.494026-.0994684zm2.689246-1.1140465c.647411-.2984053 1.015938-.6664385 1.294822-1.2831428.727093-1.6113886.448208-3.869322-.567729-4.79437848-.597611-.53712955-.996017-.67638535-1.972114-.67638535-.956177 0-1.354583.12930896-1.932273.64654482-.527889.45755481-.836655.97479061-1.005977 1.70091021-.368527 1.5716013.02988 3.2227773.966136 4.0085779.866535.7360664 2.141437.885269 3.217135.3978737z"/><path d="m26.5068273 16.5625579c-.1638554-.0871608-.173494-.4745422-.173494-5.839775 0-5.52018524.0096386-5.75261409.1831326-5.90756666.1638554-.15495257.4048192-.16463711 2.3903614-.1355835 2.0433735.02905361 2.2361446.04842268 2.7662651.26148246 1.2433735.49391132 1.8987952 1.48173395 1.8987952 2.83756893 0 .64886388-.0385543.86192367-.2795181 1.37520405-.2987952.64886389-.8578313 1.19119792-1.4939759 1.46236492l-.346988.145268.4240964.3970659c.2313253.2227444.539759.6004413.6843374.8522392.2891566.5132804 1.7734939 4.1449812 1.7734939 4.3289874 0 .0677917-.086747.1743216-.1831325.2324288-.2409639.125899-1.1180723.125899-1.3590361 0-.0963856-.0484226-.2891567-.4067505-.433735-.7941319s-.3469879-.8812927-.4337349-1.0943525c-.0963856-.2130598-.260241-.6391793-.3759036-.9490845-.4626506-1.2589896-.973494-1.9950143-1.6-2.2468122-.2024097-.0871609-.6554217-.1452681-1.1566265-.1452681h-.8192771v2.566402c0 2.4308184-.0096386 2.5664019-.1831326 2.6632472-.2409638.125899-1.0698795.125899-1.2819277-.0096845zm4.3373494-6.93412747c.6843374-.34864329.9831325-.86192367.9831325-1.66574013 0-.76507831-.2987951-1.33646591-.8674698-1.65605558-.3855422-.21305978-.5590362-.24211339-1.7060241-.271167l-1.2819277-.03873814v2.00469887 2.01438335l1.166265-.05810716c1.0409639-.04842268 1.233735-.07747629 1.7060241-.32927421z"/><path d="m37.1515969 16.6273556c-.0775888-.0291014-.2230679-.1164057-.3103553-.20371-.1648763-.1358067-.1745749-.5335263-.1745749-5.8008857 0-5.00544642.0193972-5.6650789.1551776-5.80088559.1260819-.13580669.5625191-.15520764 3.239334-.15520764 2.725308 0 3.093855.01940095 3.142348.15520764.096986.2619129.0678902.96034729-.0581916 1.0864535-.0872875.0873043-.7661898.11640573-2.4731443.11640573h-2.3567609v1.84309075 1.84309076h2.0755014c1.8039405 0 2.0852.01940095 2.133693.15520764.0969861.26191291.0678903.96034731-.0581916 1.08645351-.0872874.0873043-.6982995.1164057-2.133693.1164057h-2.0173098v2.0856027 2.0856027h2.4246512c2.3761581 0 2.4246512 0 2.5313358.20371.1066847.2134105.0678903 1.0088497-.0581916 1.1349559-.0775888.0776038-5.8579573.1261062-6.061628.0485024z"/><path d="m46.1791739 16.8948644c-.1692198-.0890269-.1791739-.484702-.1791739-5.9648021 0-5.55923522.0099541-5.8757753.1791739-6.02415346.1393575-.12859441.3882101-.16816192 1.0750434-.16816192 1.2542172 0 1.0750433-.21762131 3.1853136 3.70945409.2588067.49459387.6768792 1.24637657.9058236 1.68161919.2388985.4352426.7067415 1.3156197 1.0252728 1.9585917.3284855.6330802.756512 1.4541061.94564 1.8102136l.3483937.652864v-4.85691192-4.85691189l.2787149-.10881065c.3284855-.12859441 1.2144009-.03956751 1.3338501.12859441.0398165.06924314.0696788 2.74005008.0497706 5.93512655-.0199083 6.7561524.0796328 6.1626397-1.1148598 6.1626397-1.1447221 0-.9058236.326432-4.2304947-5.8362078-.6171545-1.13756587-1.3836206-2.59167187-1.702152-3.21486016l-.5872922-1.13756592v5.01518188c0 4.8569119-.0099541 5.0250738-.189128 5.1239926-.2488526.1285944-1.1049057.1285944-1.323896-.0098919z"/><path d="m60.8115136 16.6068898c-.0970264-.0387765-.1261343-1.1923773-.1261343-5.3220742v-5.27360358h-1.7852856c-1.533017 0-1.7949883-.01938825-1.8435015-.15510599-.0873238-.21327073-.0679185-.94033005.0194053-1.08574191.0679184-.09694125 1.0187771-.11632949 4.4341061-.09694125l4.3564851.02908238.0970264.3199061c.0485132.19388248.0485132.42654146 0 .63011807l-.0970264.31021198-1.7658803.02908237-1.7658804.01938825v5.23482708c0 5.070027-.0097026 5.2348271-.1843502 5.3317683-.1940527.0969413-1.1158035.1260236-1.3389642.0290824z"/><path d="m68.1497583 16.6064159c-.0772947-.0290495-.2222222-.116198-.3091787-.2033465-.1642511-.1355643-.1739129-.532574-.1739129-5.7905323 0-4.99651287.0193236-5.65496806.1545893-5.79053236.1256038-.1355643.5603862-.15493063 3.2270518-.15493063 3.4009649 0 3.1884046-.03873266 3.1884046.63908885 0 .7359205.0772946.71655417-2.5603855.71655417h-2.3671488v1.83980125 1.83980124h1.9710137c1.0821252 0 2.0386465.02904949 2.125603.05809899.1932367.07746531.2222221.99736589.0386473 1.18134609-.0869564.0871484-.6956519.1161979-2.125603.1161979h-2.009661v2.0818804 2.0818804h2.3961343c1.7391297 0 2.4251198.0290494 2.5120763.1161979.0676328.0677822.115942.3195445.115942.5713067 0 .7746532.0193236.76497-3.2367137.7552869-1.5362313 0-2.8695641-.0290495-2.9468587-.058099z"/><path d="m77 10.6666667v-6.00000003h1.93c3.13 0 4.16.39344262 4.93 1.87868852.23.44262295.27.65901639.28 1.31803279 0 1.02295082-.34 1.81967213-1.07 2.46885242-.27.2360656-.53.4327869-.57.4327869-.05 0-.3.0885246-.57.2065574l-.48.2065574.26.1278688c.44.2360656 1.05 1.1606558 2.49 3.8360656.29.5409836.59 1.0721312.67 1.1803279.07.1081967.13.2262295.13.2655737 0 .0491804-.31.0786886-.68.0786886h-.68l-1.08-2.0065574c-1.13-2.1147541-1.59-2.7540984-2.13-2.9704918-.2-.0885246-.7-.1377049-1.28-.1377049h-.95v2.557377 2.5573771h-.6-.6zm4.56-.5213115c.88-.44262296 1.34-1.18032788 1.34-2.1442623 0-.70819673-.17-1.12131148-.64-1.5442623-.57-.51147541-.91-.6-2.63-.67868852l-1.43-.0590164v2.39016394 2.39016398l1.43-.0491804c1.29-.0393442 1.47-.0688524 1.93-.304918z"/><path d="m85.6704791 16.5604828c.0298541-.0689212.2388329-.5907525.457763-1.1618132s.8160122-2.0971712 1.3135807-3.3968266c.4975684-1.2996554 1.0747478-2.80607418 1.2837266-3.34759726.2189301-.54152309.6468389-1.66395275.9553314-2.48116031l.5771794-1.50641876h.567228.567228l.3184438.76797819c.1691733.42337259.3881034 1.00427917.4975685 1.2996554.109465.29537623.6070335 1.6048775 1.1046019 2.9045329 1.0050883 2.59931084 1.5225594 3.94819554 2.049982 5.36600144.189076.5119855.4080061 1.0732003.4876171 1.2504261.0796109.1673798.1492705.3347597.1492705.3642973 0 .0393835-.2985411.0590752-.6567903.0393835l-.6667418-.0295376-.6567903-1.723028-.6567903-1.723028-2.5475505-.0295376-2.537599-.0196918-.3582493.9550498c-.1990274.5316772-.4876171 1.3193472-.646839 1.7525656l-.2885897.78767-.6766931.0295376c-.5274225.0196917-.6667417 0-.6368876-.0984587zm7.2445966-4.5094104c0-.0590753-.1293678-.4430644-.2885897-.866437-.1592219-.4135267-.5174712-1.37842238-.7961095-2.13655469-.9851856-2.66823192-1.0946506-2.95376228-1.0946506-2.78638242-.0099514.15753399-.3084925 1.00427918-1.7016841 4.83432421l-.3881034 1.0535086h2.1395443c1.3931917 0 2.129593-.0393835 2.129593-.0984587z"/><path d="m97.3333333 10.6715807v-6.00491403h1.8032661c4.0841536 0 5.9069146.73710073 6.9108956 2.82063882.399642.8058968.536106 1.4054054.604337 2.58476661.107222 1.7886978-.3704 3.4594594-1.315896 4.5700245-.584843.6879607-1.618066 1.3660934-2.57331 1.6904177-.770043.2555283-.896759.2751843-3.1094153.3046683l-2.3198774.0294841zm4.6300077 4.7567567c.887012-.2358722 1.608318-.6191646 2.154172-1.1793612.906506-.9140049 1.306149-2.034398 1.306149-3.6855036 0-2.12285016-.692064-3.4594595-2.163919-4.19656023-.81878-.40294841-1.325644-.5012285-3.12891-.57985258l-1.5303398-.06879607v4.92383288 4.933661h1.393876c.9357488 0 1.5888238-.0491401 1.9689718-.1474202z"/><path d="m107.666667 16.5683141c0-.0590116.194174-.6097861.436893-1.2392427.242718-.6196214.436893-1.1507254.436893-1.1802311 0-.0295058.067961-.1967052.145631-.3639046.07767-.1770347.291262-.7376445.475728-1.249078s.54369-1.4654536.786408-2.1145808c.242719-.64912708.563107-1.48512413.699029-1.86869924.135923-.37373986.300971-.81632653.378641-.98352594.067961-.15736415.281553-.71797394.466019-1.22940743.631068-1.77034669.563107-1.6719941 1.203884-1.6719941h.563107l.407767 1.11138432c.213592.59995082.572815 1.59331202.796116 2.18342758.213592.59995083.436893 1.17039587.485437 1.27858373.048544.10818785.242719.61962134.427185 1.13105478.184466.5114335.514563 1.3966069.728155 1.9670519 1.300971 3.4718466 1.563107 4.1799853 1.563107 4.2488321 0 .039341-.281554.0786821-.62136.0786821h-.621359l-.271844-.757315c-.145632-.4229162-.339806-.9441849-.427185-1.1605606s-.262136-.6687977-.388349-1.0031965l-.213593-.6196213h-2.504854-2.495146l-.126213.4229161c-.058253.226211-.339806 1.022867-.611651 1.7703467l-.485437 1.3474306h-.621359c-.349514 0-.61165-.0393411-.61165-.0983526zm6.854369-5.0848291c-.300971-.9146792-1.019418-2.88173105-1.135923-3.12761253-.048543-.10818785-.242718-.64912712-.417475-1.20973691l-.320389-1.01303172-.252427.76715024c-.135922.42291615-.601942 1.74084091-1.029126 2.9309073-.436893 1.19006642-.786408 2.19326282-.786408 2.23260392 0 .0491763.932039.078682 2.07767.078682h2.087379z"/><path d="m119.666667 10.6666667v-6.00000003l2.067088.03927987c1.795359.03927986 2.144726.06873977 2.707595.25531914.776372.26513912 1.523629.90343699 1.843882 1.57119477.300844.64811784.300844 2.12111293.009705 2.76923077-.310549.64811784-.883123 1.20785598-1.63038 1.57119478l-.659916.3142389.310549.2454992c.427004.3436989.902532 1.0900164 1.940928 3.0736498.494937.9427168.94135 1.7577741.989874 1.8166939.048523.0490998.087341.1472995.087341.2160393 0 .1080196-.155274.1276596-.650211.1080196l-.659915-.0294599-1.067511-2.0425532c-1.465401-2.8085106-1.678903-3.0147299-3.202531-3.0147299h-.921941v2.5531915 2.5531915h-.582279-.582278zm4.415611-.5400982c1.164557-.59901804 1.610971-1.99345339 1.018988-3.18166943-.427004-.84451718-.989874-1.07037643-2.882279-1.14893617l-1.387763-.0589198v2.38625204 2.37643206l1.33924-.0392798c1.251899-.0294599 1.35865-.0490999 1.911814-.3338789z"/><path d="m133 12.4019608v-4.2647059h.599144.599144v.6372549.62745098l.449358-.47058823c.669044-.69607843 1.278174-.93137255 2.396577-.93137255.778887 0 .968616.03921569 1.417974.26470588.339515.16666667.629101.42156863.828816.70588236.629101.89215686.639087.97058823.67903 4.49019606l.029957 3.2058824h-.549215-.559202v-2.3725491c-.009985-2.872549-.089871-3.6274509-.449358-4.34313721-.3495-.71568627-.81883-.98039215-1.747503-.97058823-.788873.00980392-1.318117.24509804-1.82739.83333333-.629101.71568631-.669044.96078431-.669044 4.07843141v2.7745098h-.599144-.599144z"/></g></svg>