<svg enable-background="new 0 0 60 60" height="60" viewBox="0 0 60 60" width="60" xmlns="http://www.w3.org/2000/svg"><path d="m0 0h60v60h-60z" fill="#fff"/><path d="m5 5h50v50h-50z" fill="#fff"/><path d="m23.39 21.826-4.298 2.545h7.741z" fill="#ffca05"/><path d="m31.046 12.364c-1.188-.012-2.377.163-3.533.52-1.805.556-3.459 1.543-4.92 2.93-3.509 3.334-3.519 7.91-3.501 8.559l1.625-.96 2.675-1.583c.055-.219.611-2.188 2.723-3.864 2.066-1.642 4.565-1.856 4.931-1.878z" fill="#f52612"/><path d="m42.294 40.941h-12.484l-7.045 3.811h16.399l3.13 3.667z" fill="#0064d2"/><path d="m39.348 24.317c0-4.547-3.717-8.232-8.302-8.232v3.791c2.476 0 4.478 1.99 4.478 4.443 0 .887-.264 1.711-.717 2.404-.222.308-.518.643-.918 1.027l-5.593 4.327c-4.052 3.084-6.479 6.408-6.852 6.963-.664.99-1.562 2.5-2.2 4.174-.702 1.854-1.112 3.648-1.158 5.077l4.681-3.54c.06-.234.643-2.417 2.78-4.947 2.249-2.668 4.021-3.979 5.443-5.037.316-.236.619-.461.908-.686.219-.17.547-.405.929-.684.979-.703 2.378-1.712 3.521-2.742 1.832-1.511 3-3.789 3-6.338z" fill="#30b32b"/></svg>