<svg height="33" viewBox="0 0 40 33" width="40" xmlns="http://www.w3.org/2000/svg"><path d="m12.6291693 32.424936c14.9947174 0 23.1941694-12.4223533 23.1941694-23.19416667 0-.35283733-.0071867-.70408266-.0230134-1.05374 1.591732-1.150688 2.9752614-2.58666533 4.0663494-4.221312-1.460612.64924934-3.0324774 1.08632134-4.681428 1.28340134 1.6831213-1.00923867 2.9752613-2.60573867 3.5847773-4.50898534-1.5750453.93374267-3.319356 1.612396-5.1765107 1.97874-1.4876306-1.58458133-3.6054386-2.57554-5.9505226-2.57554-4.501832 0-8.152568 3.650736-8.152568 8.15097734 0 .639712.07152 1.261944.211384 1.85874263-6.7753947-.34091463-12.78313737-3.58477597-16.8033947-8.5173213-.70010933 1.20472667-1.10380267 2.604148-1.10380267 4.09734133 0 2.828248 1.43915467 5.32511597 3.627688 6.78572797-1.337436-.0413226-2.59381733-.408464-3.69205866-1.019568-.0012.0342027-.0012.067548-.0012.1041027 0 3.9479427 2.80997066 7.2442533 6.54017333 7.9912467-.68500933.1867493-1.40578.2868773-2.14959467.2868773-.52448533 0-1.03546133-.0516213-1.532132-.1470133 1.037844 3.2390933 4.047276 5.5960973 7.61536667 5.6620573-2.790104 2.1869427-6.30494933 3.489416-10.12494933 3.489416-.65719734 0-1.30644534-.0373813-1.94456934-.1128453 3.607824 2.3125053 7.89191467 3.6618613 12.49625737 3.6618613" fill="#1da1f2"/></svg>