<svg width="14" height="16" viewBox="0 0 14 16" fill="none" xmlns="http://www.w3.org/2000/svg">
<path d="M0 1.0097C0 0.452058 0.452058 0 1.0097 0V0C1.56734 0 2.0194 0.452058 2.0194 1.0097V15.9999H0V1.0097Z" fill="white"/>
<path d="M3.88348 4.5827C3.88348 4.02506 4.33554 3.573 4.89318 3.573V3.573C5.45083 3.573 5.90288 4.02506 5.90288 4.5827V16.0001H3.88348V4.5827Z" fill="white"/>
<path d="M7.76691 9.08734C7.76691 8.5297 8.21896 8.07764 8.77661 8.07764V8.07764C9.33425 8.07764 9.78631 8.52969 9.78631 9.08734V15.9999H7.76691V9.08734Z" fill="white"/>
<path d="M11.6504 14.0583C11.6504 13.5006 12.1024 13.0486 12.6601 13.0486V13.0486C13.2177 13.0486 13.6698 13.5006 13.6698 14.0583V16H11.6504V14.0583Z" fill="white"/>
</svg>
