<?xml version="1.0" encoding="UTF-8"?>
<svg width="150px" height="150px" viewBox="0 0 150 150" version="1.1" xmlns="http://www.w3.org/2000/svg" xmlns:xlink="http://www.w3.org/1999/xlink">
    <!-- Generator: Sketch 55.1 (78136) - https://sketchapp.com -->
    <title>ic_main_3</title>
    <desc>Created with Sketch.</desc>
    <g id="Page-1" stroke="none" stroke-width="1" fill="none" fill-rule="evenodd">
        <g id="Artboard" transform="translate(-640.000000, -29.000000)">
            <g id="Group-5" transform="translate(674.000000, 49.000000)">
                <path d="M6,0 L76,0 C79.3137085,-6.08718376e-16 82,2.6862915 82,6 L82,87.5857864 C82,87.8510029 81.8946432,88.1053568 81.7071068,88.2928932 L60.2928932,109.707107 C60.1053568,109.894643 59.8510029,110 59.5857864,110 L6,110 C2.6862915,110 4.05812251e-16,107.313708 0,104 L0,6 C-4.05812251e-16,2.6862915 2.6862915,6.08718376e-16 6,0 Z" id="Rectangle" stroke="#2B3E50" stroke-width="3"></path>
                <path d="M67,89 L81,89 L61,109 L61,95 C61,91.6862915 63.6862915,89 67,89 Z" id="Rectangle" stroke="#2B3E50" stroke-width="3" stroke-linejoin="round"></path>
                <rect id="Rectangle" fill="#18BC9C" x="10" y="77" width="39" height="6" rx="2"></rect>
                <path d="M12.1055728,34.4472136 L24.1055728,28.4472136 C25.0935298,27.9532351 26.2948759,28.3536838 26.7888544,29.3416408 C26.9277098,29.6193517 27,29.9255778 27,30.236068 L27,66 C27,67.1045695 26.1045695,68 25,68 L13,68 C11.8954305,68 11,67.1045695 11,66 L11,36.236068 C11,35.4785239 11.4280048,34.7859976 12.1055728,34.4472136 Z" id="Rectangle-Copy-3" fill="#2B3E50"></path>
                <path d="M35.8944272,28.4472136 L47.8944272,34.4472136 C48.5719952,34.7859976 49,35.4785239 49,36.236068 L49,66 C49,67.1045695 48.1045695,68 47,68 L35,68 C33.8954305,68 33,67.1045695 33,66 L33,30.236068 C33,29.1314985 33.8954305,28.236068 35,28.236068 C35.3104902,28.236068 35.6167163,28.3083582 35.8944272,28.4472136 Z" id="Rectangle-Copy-4" fill="#2B3E50"></path>
                <path d="M56.1055728,34.4472136 L68.1055728,28.4472136 C69.0935298,27.9532351 70.2948759,28.3536838 70.7888544,29.3416408 C70.9277098,29.6193517 71,29.9255778 71,30.236068 L71,66 C71,67.1045695 70.1045695,68 69,68 L57,68 C55.8954305,68 55,67.1045695 55,66 L55,36.236068 C55,35.4785239 55.4280048,34.7859976 56.1055728,34.4472136 Z" id="Rectangle-Copy-5" fill="#2B3E50"></path>
                <rect id="Rectangle-Copy-2" fill="#18BC9C" x="10" y="88" width="39" height="6" rx="2"></rect>
                <polyline id="Line-2" stroke="#18BC9C" stroke-width="3" stroke-linecap="round" stroke-linejoin="round" points="11 25.5 30 16 52.5 27 69 18.5"></polyline>
                <circle id="Oval" stroke="#18BC9C" stroke-width="3" fill="#FFFFFF" cx="30" cy="16" r="4"></circle>
                <circle id="Oval-Copy-4" stroke="#18BC9C" stroke-width="3" fill="#FFFFFF" cx="10" cy="26" r="4"></circle>
                <circle id="Oval-Copy-3" stroke="#18BC9C" stroke-width="3" fill="#FFFFFF" cx="52" cy="26" r="4"></circle>
                <circle id="Oval-Copy-5" stroke="#18BC9C" stroke-width="3" fill="#FFFFFF" cx="71" cy="17" r="4"></circle>
            </g>
        </g>
    </g>
</svg>