<?xml version="1.0" encoding="UTF-8"?>
<svg width="24px" height="24px" viewBox="0 0 24 24" version="1.1" xmlns="http://www.w3.org/2000/svg" xmlns:xlink="http://www.w3.org/1999/xlink">
    <!-- Generator: Sketch 55.1 (78136) - https://sketchapp.com -->
    <title>ic_bolig_active</title>
    <desc>Created with Sketch.</desc>
    <g id="Page-1" stroke="none" stroke-width="1" fill="none" fill-rule="evenodd">
        <g id="Artboard" transform="translate(-396.000000, -238.000000)">
            <g id="ic_bolig" transform="translate(396.000000, 238.000000)">
                <polygon id="Path" points="0 0 24 0 24 24 0 24"></polygon>
                <path d="M10.57,1.49 L2.67,5.65 C2.26,5.86 2,6.29 2,6.75 C2,7.44 2.56,8 3.25,8 L11.5,8 L11.5,3.9079251 C11.4999923,3.34118758 11.7404351,2.80105861 12.1615584,2.42178754 C12.5967453,2.02985057 12.7952436,1.81679691 12.7570532,1.78262657 C12.6843747,1.71759844 12.575357,1.62005625 12.43,1.49 C11.85,1.18 11.15,1.18 10.57,1.49 Z" id="Path" fill="#18BC9C" fill-rule="nonzero"></path>
                <path d="M18,22 L19.5,22 C20.33,22 21,21.33 21,20.5 C21,19.67 20.33,19 19.5,19 L18,22 Z" id="Path" fill="#18BC9C" fill-rule="nonzero"></path>
                <path d="M3.5,22 L14.5,22 L14.5,19 L3.5,19 C2.67,19 2,19.67 2,20.5 C2,21.33 2.67,22 3.5,22 Z" id="Path-Copy" fill="#18BC9C" fill-rule="nonzero"></path>
                <path d="M11.5,8 L7.5,8 C6.67157288,8 6,8.67157288 6,9.5 C6,10.3284271 6.67157288,11 7.5,11 L11.5,11 L11.5,13.5 C11.5,14.6045695 12.3954305,15.5 13.5,15.5 L14.5,15.5 L14.5,21 L4.5,21 L4.5,7 L11.5,7 L11.5,8 Z" id="Path-2" fill="#18BC9C" fill-rule="nonzero"></path>
                <path d="M13,4 L13,13 C13,13.55 13.45,14 14,14 L16,14 L16,21.15 C16,21.66 16.67,21.84 16.93,21.4 L22.12,12.5 C22.51,11.83 22.03,11 21.26,11 L19,11 L21.49,4.35 C21.74,3.7 21.26,3 20.56,3 L14,3 C13.45,3 13,3.45 13,4 Z" id="Path" fill="#18BC9C" fill-rule="nonzero"></path>
            </g>
        </g>
    </g>
</svg>