<svg width="504" height="504" viewBox="0 0 504 504" fill="none" xmlns="http://www.w3.org/2000/svg">
<path d="M252 45.471C319.266 45.471 327.233 45.728 353.8 46.94C378.362 48.061 391.7 52.164 400.578 55.614C411.52 59.6525 421.418 66.092 429.544 74.459C437.911 82.585 444.35 92.4829 448.389 103.425C451.839 112.302 455.943 125.641 457.063 150.203C458.275 176.768 458.532 184.735 458.532 252.003C458.532 319.271 458.275 327.236 457.063 353.803C455.942 378.365 451.838 391.703 448.389 400.581C444.198 411.446 437.779 421.313 429.544 429.547C421.31 437.782 411.443 444.201 400.578 448.392C391.701 451.842 378.362 455.946 353.8 457.066C327.24 458.278 319.273 458.535 252 458.535C184.727 458.535 176.763 458.278 150.2 457.066C125.638 455.945 112.3 451.841 103.422 448.392C92.4799 444.354 82.582 437.914 74.456 429.547C66.089 421.421 59.6495 411.523 55.611 400.581C52.161 391.704 48.057 378.365 46.937 353.803C45.725 327.239 45.468 319.271 45.468 252.003C45.468 184.735 45.725 176.77 46.937 150.203C48.058 125.641 52.161 112.303 55.611 103.425C59.65 92.4824 66.0901 82.5841 74.458 74.458C82.584 66.091 92.4819 59.6516 103.424 55.613C112.301 52.163 125.64 48.059 150.202 46.939C176.767 45.727 184.734 45.47 252.002 45.47L252 45.471ZM252.002 0.07901C183.584 0.07901 175.002 0.36901 148.136 1.59501C121.321 2.81901 103.009 7.07701 86.985 13.305C70.1756 19.6306 54.9483 29.5468 42.365 42.362C29.5469 54.9445 19.628 70.1719 13.3 86.982C7.07698 103.007 2.81898 121.319 1.59998 148.134C0.368979 175 0.0789795 183.582 0.0789795 252C0.0789795 320.418 0.368979 329 1.59998 355.866C2.82398 382.681 7.08198 400.993 13.31 417.017C19.6356 433.826 29.5518 449.054 42.367 461.637C54.9503 474.452 70.1775 484.368 86.987 490.694C103.012 496.922 121.324 501.18 148.138 502.404C175.008 503.63 183.587 503.92 252.004 503.92C320.421 503.92 329.004 503.63 355.87 502.404C382.685 501.18 400.997 496.922 417.021 490.694C433.756 484.222 448.954 474.325 461.641 461.637C474.329 448.95 484.226 433.752 490.698 417.017C496.926 400.992 501.184 382.68 502.408 355.866C503.634 328.996 503.924 320.417 503.924 252C503.924 183.583 503.634 175 502.408 148.134C501.184 121.319 496.926 103.007 490.698 86.983C484.372 70.1736 474.456 54.9463 461.641 42.363C449.057 29.5452 433.829 19.627 417.018 13.3C400.993 7.07701 382.681 2.81901 355.866 1.60001C329 0.36901 320.418 0.07901 252 0.07901H252.002Z" fill="white"/>
<path d="M252 122.635C226.414 122.635 201.403 130.222 180.129 144.437C158.855 158.652 142.274 178.856 132.482 202.494C122.691 226.133 120.129 252.144 125.121 277.238C130.112 302.332 142.433 325.383 160.525 343.475C178.617 361.567 201.668 373.888 226.762 378.879C251.857 383.871 277.867 381.309 301.506 371.518C325.144 361.726 345.348 345.145 359.563 323.871C373.778 302.597 381.365 277.586 381.365 252C381.365 217.69 367.735 184.786 343.475 160.525C319.214 136.264 286.31 122.635 252 122.635V122.635ZM252 335.973C235.392 335.973 219.157 331.048 205.347 321.821C191.538 312.593 180.775 299.478 174.42 284.134C168.064 268.79 166.401 251.906 169.642 235.617C172.882 219.328 180.88 204.366 192.623 192.622C204.367 180.878 219.33 172.88 235.619 169.64C251.908 166.4 268.792 168.063 284.136 174.419C299.48 180.775 312.595 191.538 321.822 205.347C331.049 219.156 335.974 235.392 335.974 252C335.974 274.271 327.126 295.63 311.378 311.378C295.63 327.126 274.271 335.973 252 335.973Z" fill="white"/>
<path d="M386.476 147.754C403.172 147.754 416.706 134.22 416.706 117.524C416.706 100.828 403.172 87.294 386.476 87.294C369.78 87.294 356.246 100.828 356.246 117.524C356.246 134.22 369.78 147.754 386.476 147.754Z" fill="white"/>
</svg>
