<svg width="149" height="163" viewBox="0 0 149 163" fill="none" xmlns="http://www.w3.org/2000/svg">
<rect width="149" height="163" rx="15" fill="#18BC9C"/>
<circle cx="74.5" cy="81.5" r="47.5" fill="white"/>
<rect x="54" y="47" width="40.515" height="69" rx="2.76553" fill="#18BC9C"/>
<rect x="58.01" y="53.6377" width="32.3567" height="55.1723" fill="white"/>
<rect x="69.7635" y="50.7334" width="8.8497" height="1.38277" rx="0.691383" fill="white"/>
<circle cx="74.2575" cy="112.474" r="2.41984" fill="white"/>
<rect width="5.94589" height="2.21242" rx="1.10621" transform="matrix(1 0 0 -1 63.5411 71.8896)" fill="#C4C4C4"/>
<rect width="5.94589" height="2.21242" rx="1.10621" transform="matrix(1 0 0 -1 63.5411 83.0898)" fill="#C4C4C4"/>
<rect width="5.94589" height="2.21242" rx="1.10621" transform="matrix(1 0 0 -1 63.5411 88.6211)" fill="#C4C4C4"/>
<rect width="5.80762" height="2.21242" rx="1.10621" transform="matrix(1 0 0 -1 71.2846 77.4209)" fill="#C4C4C4"/>
<rect width="5.80762" height="2.21242" rx="1.10621" transform="matrix(1 0 0 -1 71.2846 83.0898)" fill="#C4C4C4"/>
<rect width="5.94589" height="2.21242" rx="1.10621" transform="matrix(1 0 0 -1 78.8898 71.8896)" fill="#C4C4C4"/>
<rect width="5.94589" height="2.21242" rx="1.10621" transform="matrix(1 0 0 -1 78.8898 77.4209)" fill="#C4C4C4"/>
<rect width="5.94589" height="2.21242" rx="1.10621" transform="matrix(1 0 0 -1 78.8898 88.6211)" fill="#C4C4C4"/>
</svg>
