<svg width="94" height="94" viewBox="0 0 94 94" fill="none" xmlns="http://www.w3.org/2000/svg">
<circle cx="47" cy="47" r="42" stroke="#578BC7" stroke-width="10"/>
<path d="M37.1092 60C37.1092 59.3254 36.8639 58.9421 36.3732 58.8501C36.2199 58.8194 36.0666 58.8041 35.9133 58.8041H33.4754V48.0867L35.8673 45.8329L46.7686 60H53.1622C53.1622 59.3254 52.9169 58.9421 52.4263 58.8501C52.2729 58.8194 52.1196 58.8041 51.9663 58.8041H50.7244L38.7191 43.165L46.9066 35.5295C48.0412 34.4562 48.8998 33.8429 49.4824 33.6896C49.7584 33.6283 50.0497 33.5976 50.3564 33.5976C51.031 33.5976 51.4143 33.3523 51.5063 32.8617C51.537 32.7083 51.5523 32.555 51.5523 32.4017H43.2728V33.5976H46.9526L33.4754 46.0169V33.5976H37.1092V32.4017H25.8399V33.5976H29.5197V58.8041H25.8399V60H37.1092ZM64.8455 58.8501H61.5337V49.6966C61.5337 46.9061 62.3923 44.6676 64.1096 42.981C64.7842 42.3371 65.3515 41.9998 65.8114 41.9691C66.3327 41.9691 66.8081 42.3524 67.2374 43.119C67.728 43.9776 68.188 44.4683 68.6173 44.5909C68.8013 44.6523 68.9853 44.6829 69.1692 44.6829C70.0892 44.6829 70.6718 44.2383 70.9171 43.349C70.9785 43.165 71.0091 42.981 71.0091 42.7971C71.0091 41.4171 70.3038 40.5739 68.8933 40.2672C68.5866 40.2059 68.2953 40.1752 68.0193 40.1752C66.1794 40.1752 64.5389 40.9572 63.0976 42.5211C62.423 43.257 61.8864 44.085 61.4877 45.0049L61.3037 40.4512H54.6341V41.6011H58.0839V56.0902C58.0839 57.5008 57.6853 58.3441 56.888 58.6201C56.428 58.7734 55.6767 58.8501 54.6341 58.8501V60H65.9954C65.9954 59.3254 65.7655 58.9574 65.3055 58.8961C65.1828 58.8654 65.0295 58.8501 64.8455 58.8501Z" fill="#578BC7"/>
<path d="M37.1092 60V61.4854H38.5946V60H37.1092ZM36.3732 58.8501L36.0819 60.3066L36.0907 60.3084L36.0995 60.31L36.3732 58.8501ZM33.4754 58.8041H31.9901V60.2894H33.4754V58.8041ZM33.4754 48.0867L32.4568 47.0057L31.9901 47.4455V48.0867H33.4754ZM35.8673 45.8329L37.0445 44.927L36.0434 43.626L34.8486 44.7518L35.8673 45.8329ZM46.7686 60L45.5914 60.9058L46.0374 61.4854H46.7686V60ZM53.1622 60V61.4854H54.6476V60H53.1622ZM52.4263 58.8501L52.135 60.3066L52.1437 60.3084L52.1525 60.31L52.4263 58.8501ZM50.7244 58.8041L49.5461 59.7085L49.992 60.2894H50.7244V58.8041ZM38.7191 43.165L37.706 42.0787L36.7192 42.9991L37.5409 44.0695L38.7191 43.165ZM46.9066 35.5295L47.9197 36.6158L47.9273 36.6086L46.9066 35.5295ZM49.4824 33.6896L49.1602 32.2396L49.1322 32.2458L49.1044 32.2531L49.4824 33.6896ZM51.5063 32.8617L50.0498 32.5704L50.048 32.5791L50.0464 32.5879L51.5063 32.8617ZM51.5523 32.4017H53.0377V30.9163H51.5523V32.4017ZM43.2728 32.4017V30.9163H41.7875V32.4017H43.2728ZM43.2728 33.5976H41.7875V35.083H43.2728V33.5976ZM46.9526 33.5976L47.9592 34.6899L50.7564 32.1122H46.9526V33.5976ZM33.4754 46.0169H31.9901V49.4055L34.482 47.1092L33.4754 46.0169ZM33.4754 33.5976V32.1122H31.9901V33.5976H33.4754ZM37.1092 33.5976V35.083H38.5946V33.5976H37.1092ZM37.1092 32.4017H38.5946V30.9163H37.1092V32.4017ZM25.8399 32.4017V30.9163H24.3545V32.4017H25.8399ZM25.8399 33.5976H24.3545V35.083H25.8399V33.5976ZM29.5197 33.5976H31.005V32.1122H29.5197V33.5976ZM29.5197 58.8041V60.2894H31.005V58.8041H29.5197ZM25.8399 58.8041V57.3187H24.3545V58.8041H25.8399ZM25.8399 60H24.3545V61.4854H25.8399V60ZM38.5946 60C38.5946 59.5074 38.509 58.9256 38.1763 58.4059C37.81 57.8336 37.2517 57.5035 36.647 57.3901L36.0995 60.31C36.059 60.3024 35.9803 60.2802 35.8894 60.2215C35.7957 60.1609 35.7229 60.0835 35.6741 60.0072C35.5868 59.8708 35.6238 59.818 35.6238 60H38.5946ZM36.6645 57.3935C36.4172 57.3441 36.1663 57.3187 35.9133 57.3187V60.2894C35.9669 60.2894 36.0226 60.2947 36.0819 60.3066L36.6645 57.3935ZM35.9133 57.3187H33.4754V60.2894H35.9133V57.3187ZM34.9608 58.8041V48.0867H31.9901V58.8041H34.9608ZM34.4941 49.1678L36.8859 46.9139L34.8486 44.7518L32.4568 47.0057L34.4941 49.1678ZM34.6901 46.7387L45.5914 60.9058L47.9458 59.0942L37.0445 44.927L34.6901 46.7387ZM46.7686 61.4854H53.1622V58.5146H46.7686V61.4854ZM54.6476 60C54.6476 59.5074 54.562 58.9256 54.2293 58.4059C53.8631 57.8336 53.3048 57.5035 52.7 57.3901L52.1525 60.31C52.112 60.3024 52.0333 60.2802 51.9424 60.2215C51.8487 60.1609 51.7759 60.0835 51.7271 60.0072C51.6398 59.8708 51.6768 59.818 51.6768 60H54.6476ZM52.7176 57.3935C52.4702 57.3441 52.2194 57.3187 51.9663 57.3187V60.2894C52.0199 60.2894 52.0756 60.2947 52.135 60.3066L52.7176 57.3935ZM51.9663 57.3187H50.7244V60.2894H51.9663V57.3187ZM51.9026 57.8996L39.8973 42.2606L37.5409 44.0695L49.5461 59.7085L51.9026 57.8996ZM39.7322 44.2513L47.9197 36.6158L45.8935 34.4432L37.706 42.0787L39.7322 44.2513ZM47.9273 36.6086C48.4663 36.0988 48.9104 35.7265 49.2649 35.4733C49.441 35.3475 49.5824 35.2602 49.6913 35.2022C49.7449 35.1737 49.7865 35.1545 49.8166 35.1422C49.8469 35.1297 49.8611 35.1259 49.8605 35.1261L49.1044 32.2531C48.5547 32.3978 48.0209 32.7111 47.5382 33.0559C47.034 33.416 46.4815 33.887 45.8859 34.4504L47.9273 36.6086ZM49.8047 35.1396C49.9664 35.1037 50.1491 35.083 50.3564 35.083V32.1122C49.9504 32.1122 49.5505 32.1529 49.1602 32.2396L49.8047 35.1396ZM50.3564 35.083C50.849 35.083 51.4308 34.9974 51.9505 34.6647C52.5228 34.2985 52.8529 33.7401 52.9663 33.1354L50.0464 32.5879C50.054 32.5474 50.0762 32.4687 50.1349 32.3778C50.1955 32.2841 50.2729 32.2113 50.3491 32.1625C50.4856 32.0752 50.5384 32.1122 50.3564 32.1122V35.083ZM52.9628 33.153C53.0123 32.9056 53.0377 32.6547 53.0377 32.4017H50.0669C50.0669 32.4553 50.0617 32.511 50.0498 32.5704L52.9628 33.153ZM51.5523 30.9163H43.2728V33.8871H51.5523V30.9163ZM41.7875 32.4017V33.5976H44.7582V32.4017H41.7875ZM43.2728 35.083H46.9526V32.1122H43.2728V35.083ZM45.946 32.5053L32.4689 44.9245L34.482 47.1092L47.9592 34.6899L45.946 32.5053ZM34.9608 46.0169V33.5976H31.9901V46.0169H34.9608ZM33.4754 35.083H37.1092V32.1122H33.4754V35.083ZM38.5946 33.5976V32.4017H35.6238V33.5976H38.5946ZM37.1092 30.9163H25.8399V33.8871H37.1092V30.9163ZM24.3545 32.4017V33.5976H27.3253V32.4017H24.3545ZM25.8399 35.083H29.5197V32.1122H25.8399V35.083ZM28.0343 33.5976V58.8041H31.005V33.5976H28.0343ZM29.5197 57.3187H25.8399V60.2894H29.5197V57.3187ZM24.3545 58.8041V60H27.3253V58.8041H24.3545ZM25.8399 61.4854H37.1092V58.5146H25.8399V61.4854ZM61.5337 58.8501H60.0483V60.3354H61.5337V58.8501ZM64.1096 42.981L63.0839 41.9066L63.0763 41.9139L63.0687 41.9213L64.1096 42.981ZM65.8114 41.9691V40.4837H65.762L65.7126 40.487L65.8114 41.9691ZM67.2374 43.119L65.9413 43.8448L65.9477 43.856L67.2374 43.119ZM68.6173 44.5909L69.087 43.1818L69.0564 43.1716L69.0253 43.1627L68.6173 44.5909ZM70.9171 43.349L69.508 42.8793L69.4956 42.9164L69.4852 42.954L70.9171 43.349ZM68.8933 40.2672L69.2088 38.8157L69.1967 38.8131L69.1846 38.8107L68.8933 40.2672ZM63.0976 42.5211L62.0053 41.5145L62.0027 41.5174L63.0976 42.5211ZM61.4877 45.0049L60.0036 45.0649L62.8506 45.5955L61.4877 45.0049ZM61.3037 40.4512L62.7879 40.3912L62.7303 38.9658H61.3037V40.4512ZM54.6341 40.4512V38.9658H53.1488V40.4512H54.6341ZM54.6341 41.6011H53.1488V43.0865H54.6341V41.6011ZM58.0839 41.6011H59.5693V40.1158H58.0839V41.6011ZM56.888 58.6201L57.3577 60.0292L57.3658 60.0265L57.3739 60.0237L56.888 58.6201ZM54.6341 58.8501V57.3647H53.1488V58.8501H54.6341ZM54.6341 60H53.1488V61.4854H54.6341V60ZM65.9954 60V61.4854H67.4808V60H65.9954ZM65.3055 58.8961L64.9452 60.3371L65.0263 60.3574L65.1092 60.3684L65.3055 58.8961ZM64.8455 57.3647H61.5337V60.3354H64.8455V57.3647ZM63.0191 58.8501V49.6966H60.0483V58.8501H63.0191ZM63.0191 49.6966C63.0191 47.2358 63.7632 45.4032 65.1504 44.0408L63.0687 41.9213C61.0215 43.932 60.0483 46.5765 60.0483 49.6966H63.0191ZM65.1352 44.0555C65.4219 43.7818 65.643 43.6152 65.8001 43.5218C65.9638 43.4245 65.9921 43.4457 65.9103 43.4512L65.7126 40.487C64.6927 40.555 63.7934 41.2294 63.0839 41.9066L65.1352 44.0555ZM65.8114 43.4545C65.755 43.4545 65.702 43.4433 65.6606 43.4273C65.6219 43.4125 65.611 43.4003 65.6265 43.4128C65.6669 43.4454 65.782 43.5602 65.9414 43.8448L68.5334 42.3933C68.0284 41.4915 67.1669 40.4837 65.8114 40.4837V43.4545ZM65.9477 43.856C66.2263 44.3436 66.5298 44.7875 66.8667 45.1469C67.1942 45.4962 67.6372 45.8557 68.2092 46.0192L69.0253 43.1627C69.168 43.2035 69.1664 43.2564 69.034 43.1151C68.9109 42.9838 68.739 42.7531 68.527 42.3821L65.9477 43.856ZM68.1476 46.0001C68.4748 46.1092 68.8171 46.1683 69.1692 46.1683V43.1976C69.1534 43.1976 69.1278 43.1954 69.087 43.1818L68.1476 46.0001ZM69.1692 46.1683C69.8704 46.1683 70.5872 45.9959 71.1973 45.5303C71.807 45.065 72.1627 44.4194 72.349 43.744L69.4852 42.954C69.4263 43.1679 69.368 43.1893 69.395 43.1687C69.4225 43.1477 69.388 43.1976 69.1692 43.1976V46.1683ZM72.3263 43.8187C72.4354 43.4915 72.4945 43.1492 72.4945 42.7971H69.5238C69.5238 42.8129 69.5216 42.8385 69.508 42.8793L72.3263 43.8187ZM72.4945 42.7971C72.4945 41.8501 72.2481 40.9282 71.6196 40.1767C70.9973 39.4326 70.1353 39.0171 69.2088 38.8157L68.5777 41.7187C69.0618 41.8239 69.2578 41.9834 69.3408 42.0826C69.4175 42.1744 69.5238 42.3641 69.5238 42.7971H72.4945ZM69.1846 38.8107C68.7944 38.7327 68.405 38.6898 68.0193 38.6898V41.6606C68.1856 41.6606 68.3788 41.6791 68.602 41.7237L69.1846 38.8107ZM68.0193 38.6898C65.6984 38.6898 63.6797 39.6976 62.0053 41.5145L64.1899 43.5277C65.398 42.2167 66.6604 41.6606 68.0193 41.6606V38.6898ZM62.0027 41.5174C61.2159 42.3757 60.5889 43.3434 60.1248 44.4143L62.8506 45.5955C63.1838 44.8266 63.6301 44.1384 64.1926 43.5248L62.0027 41.5174ZM62.9719 44.9449L62.7879 40.3912L59.8196 40.5112L60.0036 45.0649L62.9719 44.9449ZM61.3037 38.9658H54.6341V41.9366H61.3037V38.9658ZM53.1488 40.4512V41.6011H56.1195V40.4512H53.1488ZM54.6341 43.0865H58.0839V40.1158H54.6341V43.0865ZM56.5985 41.6011V56.0902H59.5693V41.6011H56.5985ZM56.5985 56.0902C56.5985 56.6783 56.5119 56.998 56.4421 57.1458C56.4114 57.2107 56.3914 57.2267 56.3962 57.2222C56.4034 57.2155 56.4107 57.2134 56.4021 57.2164L57.3739 60.0237C59.1238 59.418 59.5693 57.6519 59.5693 56.0902H56.5985ZM56.4183 57.2109C56.2018 57.2831 55.6574 57.3647 54.6341 57.3647V60.3354C55.6961 60.3354 56.6542 60.2637 57.3577 60.0292L56.4183 57.2109ZM53.1488 58.8501V60H56.1195V58.8501H53.1488ZM54.6341 61.4854H65.9954V58.5146H54.6341V61.4854ZM67.4808 60C67.4808 59.5262 67.4056 58.9477 67.0825 58.4308C66.7149 57.8426 66.1358 57.5083 65.5018 57.4237L65.1092 60.3684C65.0449 60.3598 64.939 60.3332 64.8226 60.2607C64.7036 60.1866 64.6176 60.0921 64.5634 60.0053C64.4703 59.8564 64.5101 59.7991 64.5101 60H67.4808ZM65.6657 57.455C65.3852 57.3849 65.1012 57.3647 64.8455 57.3647V60.3354C64.8973 60.3354 64.9315 60.3376 64.9507 60.3396C64.9706 60.3416 64.9669 60.3425 64.9452 60.3371L65.6657 57.455Z" fill="#578BC7"/>
</svg>
