<svg height="308" viewBox="0 0 601 308" width="601" xmlns="http://www.w3.org/2000/svg"><g fill="none"><path d="m.8.3h600v306.9h-600z" fill="#007684"/><g fill="#fff"><path d="m469.6 222.7h-44.8v-65.4h51.1c22.3 0 37.8 12.5 37.8 30.4 0 8.7 0 35-44.1 35zm-44.8-138h38.1c13.4 0 23.4 2.3 29.8 6.7 4.1 2.9 9.6 8.5 9.6 22.7 0 25.5-20.1 27.5-26.2 27.5h-51.3zm99.4 126.3c3.1-6.7 4.7-14.6 4.7-23.4 0-13.4-5.7-25.4-16-33.9-2.7-2.2-5.6-4.1-8.9-5.8l-.9-.4.7-.6c6.1-5.4 13.4-15.4 13.4-32.8 0-15.9-5.5-27.9-16.3-35.5-9.2-6.5-21.8-9.6-38.7-9.6h-48.6c-2.8 0-5.1 2.3-5.1 5.1v159.2c0 2.8 2.3 5.1 5.1 5.1h55.5c17.5 0 31.5-3.7 41.6-11.1 5.9-4.3 10.4-9.8 13.5-16.3z"/><path d="m365.6 239.3 2.3-.6c1.6-.9 2.5-2.6 2.5-4.5v-234h-15.7v202.4l-104.4-133c-.9-1.3-2.4-2-3.9-2l-2.3.6c-1.6.9-2.5 2.6-2.5 4.5v234.5h15.7v-202.9l104.4 133c.9 1.2 2.4 2 3.9 2"/><path d="m134.4 222.7h-35.4v-138h35.5c13 0 31.3 3.4 44.4 19.4 14.1 17.3 15.2 43.1 15.2 50.6 0 11.2-2 32.4-15.2 48.6-13.2 16-31.4 19.4-44.5 19.4m56-9.5c16.3-19.9 18.7-45.2 18.7-58.5 0-11.3-1.8-39.8-18.7-60.5-7.2-8.8-16.2-15.4-26.8-19.7-9.1-3.7-19.1-5.5-29.8-5.5h-46.1c-2.8 0-5.2 2.3-5.2 5.1v159.2c0 2.8 2.3 5.1 5.1 5.1h46.1c10.7 0 20.7-1.9 29.8-5.5 10.7-4.3 19.8-10.9 26.9-19.7"/></g></g></svg>