<?xml version="1.0" encoding="UTF-8"?>
<svg width="86px" height="29px" viewBox="0 0 86 29" version="1.1" xmlns="http://www.w3.org/2000/svg" xmlns:xlink="http://www.w3.org/1999/xlink">
    <!-- Generator: Sketch 47.1 (45422) - http://www.bohemiancoding.com/sketch -->
    <title>finansportalen</title>
    <desc>Created with Sketch.</desc>
    <defs>
        <linearGradient x1="49.9996539%" y1="6.9213732%" x2="49.9996539%" y2="113.817945%" id="linearGradient-1">
            <stop stop-color="#D9F6F7" offset="25.4%"></stop>
            <stop stop-color="#D5F5F6" offset="39.6%"></stop>
            <stop stop-color="#CAF2F4" offset="53.08%"></stop>
            <stop stop-color="#B7EDF0" offset="66.27%"></stop>
            <stop stop-color="#9CE7EA" offset="79.28%"></stop>
            <stop stop-color="#79DEE2" offset="92.05%"></stop>
            <stop stop-color="#60D8DD" offset="100%"></stop>
        </linearGradient>
        <radialGradient cx="105.413682%" cy="109.967306%" fx="105.413682%" fy="109.967306%" r="169.296182%" gradientTransform="translate(1.054137,1.099673),scale(1.000000,0.804904),translate(-1.054137,-1.099673)" id="radialGradient-2">
            <stop stop-color="#38CED5" offset="23.31%"></stop>
            <stop stop-color="#2FB8C0" offset="38.45%"></stop>
            <stop stop-color="#177F8B" offset="69.85%"></stop>
            <stop stop-color="#004959" offset="96.93%"></stop>
        </radialGradient>
        <radialGradient cx="90.2675983%" cy="87.8954862%" fx="90.2675983%" fy="87.8954862%" r="107.850131%" gradientTransform="translate(0.902676,0.878955),scale(0.660449,1.000000),translate(-0.902676,-0.878955)" id="radialGradient-3">
            <stop stop-color="#38CED5" offset="13.5%"></stop>
            <stop stop-color="#33C8CF" offset="23.68%"></stop>
            <stop stop-color="#26B5BE" offset="37.95%"></stop>
            <stop stop-color="#1098A2" offset="54.54%"></stop>
            <stop stop-color="#00818D" offset="65.03%"></stop>
            <stop stop-color="#004959" offset="92.64%"></stop>
        </radialGradient>
        <radialGradient cx="86.8488185%" cy="33.0667155%" fx="86.8488185%" fy="33.0667155%" r="130.052027%" gradientTransform="translate(0.868488,0.330667),scale(1.000000,0.546983),translate(-0.868488,-0.330667)" id="radialGradient-4">
            <stop stop-color="#38CED5" offset="11.66%"></stop>
            <stop stop-color="#23B2BA" offset="41.88%"></stop>
            <stop stop-color="#00818D" offset="86.5%"></stop>
        </radialGradient>
    </defs>
    <g id="mobile" stroke="none" stroke-width="1" fill="none" fill-rule="evenodd">
        <g id="frontpage" transform="translate(-67.000000, -549.000000)" fill-rule="nonzero">
            <g id="Group-2" transform="translate(67.000000, 549.000000)">
                <g id="finansportalen">
                    <g id="fp_data-levert-av_rgb">
                        <g id="Group" transform="translate(8.746327, 20.660896)" fill="#07456B">
                            <path d="M1.65742902,4.15132369 L1.65742902,7.90629936 L0.0416401234,7.90629936 L0.0416401234,0.200732925 L1.62472536,0.200732925 L4.07027453,4.40190813 L4.49694319,5.4057623 C4.49504182,4.78536678 4.50131635,4.21956151 4.49618264,4.14070892 L4.49618264,0.200732925 L6.10094356,0.200732925 L6.10094356,7.90629936 L4.38685355,7.90629936 L2.02876766,3.85752196 L1.65590792,3.02786378 L1.65742902,4.15132369 Z" id="Shape"></path>
                            <path d="M22.1803057,5.62071144 C22.8790612,6.73090289 24.9095401,6.75270108 24.9751376,5.67511215 C25.0078412,5.01130979 24.2872199,4.85891199 23.4903535,4.75011057 C22.2784167,4.56511025 21.0229385,3.99911544 21.0448043,2.30132053 C21.1320774,0.842926644 22.4750189,0.0811271877 23.861502,0.0811271877 C24.8659986,0.0811271877 25.8265735,0.472926013 26.4707595,1.44152398 L25.1496839,2.32311872 C24.8220769,1.82251848 24.3636552,1.59392178 23.861502,1.59392178 C23.2502097,1.59392178 22.7151627,1.82251848 22.682459,2.35572124 L22.682459,2.36671511 C22.6932968,2.99791496 23.3374829,3.08510773 24.0143725,3.22651166 C25.3571239,3.476717 26.6673618,3.96651292 26.5909265,5.78410311 C26.4599217,7.23169268 25.0624107,8.01529033 23.654252,8.01529033 C22.6497553,8.01529033 21.623583,7.52549441 20.9685591,6.54609212 L22.1803057,5.62071144 Z" id="Shape"></path>
                        </g>
                        <g id="Group" transform="translate(36.506410, 20.660896)" fill="#07456B">
                            <path d="M0.804852248,7.90629936 L0.175496958,7.90629936 L0.175496958,0.376634864 L3.02375745,0.376634864 C6.3629531,0.376634864 6.35211526,5.08788779 3.03440516,5.08788779 L0.804852248,5.08788779 C0.804852248,6.13022051 0.804852248,6.86396664 0.804852248,7.90629936 Z M3.02375745,1.00423327 L0.804852248,1.00423327 L0.804852248,4.46047893 L3.02375745,4.46047893 C5.55220659,4.46047893 5.49877794,0.972199406 3.02375745,1.00423327 Z" id="Shape"></path>
                            <path d="M12.3249061,2.49314463 L12.3249061,5.77936438 C12.3249061,8.86352436 6.3401366,8.86352436 6.3401366,5.77936438 L6.3401366,2.49314463 C6.3401366,-0.591015354 12.3249061,-0.591015354 12.3249061,2.49314463 Z M6.96949189,5.77936438 C6.96949189,8.03405573 11.684713,8.03405573 11.6953607,5.77936438 L11.6953607,2.49314463 C11.6953607,1.30201554 10.5005363,0.802173501 9.31635967,0.802173501 C8.14302085,0.812788273 6.96949189,1.32324509 6.96949189,2.49314463 L6.96949189,5.77936438 Z" id="Shape"></path>
                            <path d="M18.9207777,7.90629936 L18.1634599,7.90629936 L15.624363,4.71580211 L14.1842612,4.71580211 C14.1842612,5.76874961 14.1842612,6.86396664 14.1842612,7.90629936 L13.5549059,7.90629936 L13.5549059,0.376634864 L16.4031664,0.376634864 C17.8219728,0.376634864 18.8994823,1.00423327 18.9314254,2.56744803 C18.9314254,4.13085234 17.7687343,4.71561256 16.4138141,4.71561256 L16.3925187,4.71561256 L18.9207777,7.90629936 Z M16.4138141,4.14146711 C17.5766954,4.14146711 18.3020701,3.75857712 18.3020701,2.56744803 C18.3020701,1.38693372 17.512619,0.982814178 16.4138141,1.00404372 L14.1842612,1.00404372 L14.1842612,4.14127756 L16.4138141,4.14127756 L16.4138141,4.14146711 Z" id="Shape"></path>
                            <polygon id="Shape" points="24.8462243 0.366020092 24.8462243 0.9936185 22.328613 0.9936185 22.328613 7.90629936 21.6992577 7.90629936 21.6992577 0.9936185 19.1816464 0.9936185 19.1816464 0.366020092 24.8462243 0.366020092"></polygon>
                            <path d="M27.0305245,0.376634864 L27.9479382,0.376634864 L30.6788838,7.90629936 L30.0173953,7.90629936 L29.1106293,5.39647438 L25.8674531,5.39647438 L24.9819825,7.90629936 L24.320494,7.90629936 L27.0305245,0.376634864 Z M28.8866473,4.76906552 L27.4891363,0.84463259 L26.0916253,4.76906552 L28.8866473,4.76906552 Z" id="Shape"></path>
                            <path d="M35.9772568,7.90629936 C34.3023351,7.90629936 33.2463111,7.90629936 31.5713895,7.90629936 L31.5713895,0.376634864 L32.2007447,0.376634864 L32.2007447,7.2788905 L35.9772568,7.2788905 L35.9772568,7.90629936 Z" id="Shape"></path>
                            <polygon id="Shape" points="41.6207294 0.9936185 37.5135682 0.9936185 37.5135682 3.8224553 41.3007279 3.8224553 41.3007279 4.46047893 37.5135682 4.46047893 37.5135682 7.2788905 41.6207294 7.2788905 41.6207294 7.90629936 36.8842129 7.90629936 36.8842129 0.366020092 41.6207294 0.366020092"></polygon>
                            <path d="M43.7546431,0.376634864 L48.02171,7.21501232 L48.02171,0.376634864 L48.6512554,0.376634864 L48.6512554,7.90629936 C48.3419016,7.90629936 48.0325478,7.90629936 47.7123562,7.90629936 L43.6158427,1.34447463 L43.6158427,7.90629936 L42.9864874,7.90629936 L42.9864874,0.376634864 L43.7546431,0.376634864 Z" id="Shape"></path>
                        </g>
                        <path d="M16.4826439,14.7642004 C16.4826439,15.6852215 15.7338822,16.4316674 14.8100039,16.4316674 L1.67283016,16.4316674 C0.748951809,16.4316674 0,15.6852215 0,14.7642004 L0,1.66746699 C0,0.746635496 0.748951809,0 1.67283016,0 L14.810194,0 C15.7338822,0 16.4828341,0.746635496 16.4828341,1.66746699 L16.4828341,14.7642004 L16.4826439,14.7642004 Z" id="Shape" fill="url(#linearGradient-1)"></path>
                        <path d="M24.473935,24.8122196 L24.473935,28.5671953 L22.8581461,28.5671953 L22.8581461,20.8616289 L24.4412313,20.8616289 L26.8867805,25.0628041 L27.3134492,26.0666582 C27.3115478,25.4462627 27.3178223,24.8804574 27.3126886,24.8016049 L27.3126886,20.8616289 L28.9174495,20.8616289 L28.9174495,28.5671953 L27.2033595,28.5671953 L24.8452736,24.5184179 L24.4724139,23.6887597 L24.473935,24.8122196 Z" id="Shape" fill="#07456B"></path>
                        <path d="M18.1003342,20.8612498 L19.6402582,20.8612498 L22.4139848,28.5690908 L20.7322182,28.5690908 L20.0549482,26.8053327 L17.7508614,26.8053327 C17.5105275,27.4587098 17.3576569,27.8833007 17.1066754,28.5690908 L15.3922051,28.5690908 L18.1003342,20.8612498 Z M18.8688702,22.5594238 L18.1550938,25.3357554 L19.6404483,25.3357554 L18.8719124,22.5594238 L18.8688702,22.5594238 Z" id="Shape" fill="#07456B"></path>
                        <polygon id="Shape" fill="#07456B" points="5.19855075 22.416693 1.61635931 22.416693 1.61635931 24.114867 4.75077682 24.114867 4.75077682 25.6934353 1.61635931 25.6934353 1.61635931 28.5675744 0 28.5675744 0 20.8599229 5.19855075 20.8599229"></polygon>
                        <polygon id="Shape" fill="#07456B" points="5.91860165 20.8599229 7.52374285 20.8599229 7.52374285 28.5675744 5.91860165 28.5675744"></polygon>
                        <g id="Group" transform="translate(3.042201, 3.222342)">
                            <path d="M4.85021876,3.60750616 L4.85021876,7.20212295 L7.35166836,7.20212295 C7.56709421,7.20212295 7.74354185,7.02641056 7.74354185,6.81165098 L7.74354185,3.60750616 L4.85021876,3.60750616 Z" id="Shape" fill="url(#radialGradient-2)"></path>
                            <path d="M9.90122277,0.0587603462 L5.62293776,0.0587603462 C5.11184803,0.304037404 4.85021876,0.699816769 4.85021876,1.51487964 L4.85021876,1.81019776 L4.85021876,3.65337714 L9.90122277,3.65337714 C10.1166486,3.65337714 10.2929061,3.47766475 10.2929061,3.26290516 L10.2929061,0.449042775 C10.2929061,0.234283187 10.1166486,0.0587603462 9.90122277,0.0587603462 Z" id="Shape" fill="url(#radialGradient-3)"></path>
                            <path d="M5.60240291,7.2023125 L5.60240291,1.85606874 L5.60240291,1.56056107 C5.60240291,0.692803437 5.89920762,0.300246414 6.47779618,0.0585707967 L5.77181546,0.0585707967 C5.1932269,0.300056865 4.89642218,0.692803437 4.89642218,1.56056107 L4.89642218,1.85606874 L4.89642218,7.2023125 L5.60240291,7.2023125 Z" id="Shape" fill="#004855" opacity="0.3"></path>
                            <path d="M5.30559819,0.0587603462 C4.17808252,0.0587603462 0.784887806,1.02148228 0.738684381,1.03399254 C0.376092074,1.13180009 0.107237578,1.45858343 0.107237578,1.85057181 C0.107237578,1.99633538 0.1443144,2.13337967 0.20953158,2.25317495 L0.306882005,2.43419473 L4.59334293,10.330448 C4.6220537,10.3833323 4.67700345,10.4146079 4.73518554,10.4146079 C4.74811489,10.4146079 4.76142452,10.412902 4.77473415,10.4096797 C4.84641601,10.3916725 4.89642218,10.3274152 4.89642218,10.25387 L4.89642218,1.85606874 L4.89642218,1.56056107 C4.89642218,0.692803437 5.19341704,0.300246414 5.77181546,0.0585707967 L5.30559819,0.0585707967 L5.30559819,0.0587603462 Z" id="Shape" fill="url(#radialGradient-4)"></path>
                        </g>
                        <g id="Group" transform="translate(38.407785, 8.150629)" fill="#07456B">
                            <path d="M1.72854047,5.35647943 L0.0281403574,5.35647943 L0.0281403574,0.447526379 L1.71542097,0.447526379 C3.2123739,0.447526379 3.83621521,1.16099071 3.83621521,2.88228976 C3.83602507,4.66917293 3.14658631,5.35647943 1.72854047,5.35647943 Z M1.70876616,1.07588298 L0.69761467,1.07588298 L0.69761467,4.73475706 L1.71523084,4.73475706 C2.68036904,4.73475706 3.13346682,4.36816832 3.13346682,2.88247931 C3.13346682,1.46862956 2.71991765,1.07588298 1.70876616,1.07588298 Z" id="Shape"></path>
                            <path d="M6.97519602,4.87862513 L6.95542171,4.8719909 C6.72573555,5.20578758 6.29887675,5.41523978 5.79330101,5.41523978 C5.07762327,5.41523978 4.59182183,5.04220636 4.59182183,4.1651608 C4.59182183,3.43217287 5.06450378,2.9804764 5.99674818,2.9804764 C6.33158041,2.9804764 6.65329314,3.04587098 6.89628893,3.13097871 L6.89628893,2.74467682 C6.89628893,2.12939913 6.62058948,1.91350224 5.98362869,1.91350224 C5.57007952,1.91350224 5.23505716,1.98553105 4.88710544,2.14911228 L4.82797266,1.63202123 C5.20216336,1.46180577 5.62236735,1.37669805 6.08858462,1.37669805 C7.11932028,1.37669805 7.5068206,1.80868137 7.5068206,2.83622923 L7.5068206,5.35610033 L7.03413866,5.35610033 L6.97519602,4.87862513 Z M6.88982426,3.57604094 C6.791333,3.51709105 6.50251407,3.43217287 6.10854906,3.43217287 C5.45846878,3.43217287 5.17630466,3.69394073 5.17630466,4.15871612 C5.17630466,4.71523346 5.51113688,4.90497252 5.96423466,4.90497252 C6.4500361,4.90497252 6.89001439,4.57762052 6.89001439,4.25045808 L6.89001439,3.57604094 L6.88982426,3.57604094 Z" id="Shape"></path>
                            <path d="M9.37872478,1.93984962 L9.37872478,4.33537626 C9.37872478,4.74120174 9.59529145,4.90478297 9.94989798,4.90478297 C10.0615087,4.90478297 10.1993584,4.88506982 10.2782655,4.8524673 L10.317624,5.32368737 C10.1995486,5.38263727 9.98279178,5.42187401 9.77268979,5.42187401 C9.10302534,5.42187401 8.75488348,5.04884059 8.75488348,4.3550894 L8.75488348,1.93984962 L8.20994926,1.93984962 L8.20994926,1.45555064 L8.77465779,1.45555064 L8.8927332,0.486763126 L9.37872478,0.434447463 L9.37872478,1.45555064 L10.343863,1.45555064 L10.343863,1.93984962 L9.37872478,1.93984962 Z" id="Shape"></path>
                            <path d="M13.31172,4.87862513 L13.2919457,4.8719909 C13.0622595,5.20578758 12.6354007,5.41523978 12.129825,5.41523978 C11.4141473,5.41523978 10.9283458,5.04220636 10.9283458,4.1651608 C10.9283458,3.43217287 11.4010278,2.9804764 12.3332722,2.9804764 C12.6681044,2.9804764 12.9898171,3.04587098 13.2328129,3.13097871 L13.2328129,2.74467682 C13.2328129,2.12939913 12.9571135,1.91350224 12.3201527,1.91350224 C11.9066035,1.91350224 11.5715811,1.98553105 11.2236294,2.14911228 L11.1644967,1.63202123 C11.5386873,1.46180577 11.9588913,1.37669805 12.4251086,1.37669805 C13.4558443,1.37669805 13.8433446,1.80868137 13.8433446,2.83622923 L13.8433446,5.35610033 L13.3706626,5.35610033 L13.31172,4.87862513 Z M13.2263482,3.57604094 C13.127857,3.51709105 12.8390381,3.43217287 12.445073,3.43217287 C11.7949928,3.43217287 11.5126385,3.69394073 11.5126385,4.15871612 C11.5126385,4.71523346 11.8474707,4.90497252 12.3005685,4.90497252 C12.78637,4.90497252 13.2263482,4.57762052 13.2263482,4.25045808 L13.2263482,3.57604094 Z" id="Shape"></path>
                            <polygon id="Shape" points="16.9695862 5.35647943 16.9695862 0.192203197 17.5934275 0.15296645 17.5934275 5.35647943"></polygon>
                            <path d="M18.5849948,3.30119416 C18.5849948,2.07727301 19.1234643,1.38996651 20.2002133,1.38996651 C21.1324577,1.38996651 21.7431795,1.93984962 21.7431795,3.1899286 C21.7431795,3.28811525 21.7365247,3.40601504 21.73006,3.49093322 L19.2221457,3.49093322 C19.2550395,4.51848108 19.6356949,4.8719909 20.4761029,4.8719909 C20.8700679,4.8719909 21.2049001,4.78688317 21.5397323,4.62330195 L21.6119846,5.14683768 C21.2836171,5.32349782 20.8765326,5.43495293 20.4038506,5.43495293 C19.1168095,5.43495293 18.5849948,4.76091489 18.5849948,3.30119416 Z M21.1718162,3.06558413 C21.1586967,2.24085424 20.7713865,1.92677071 20.206678,1.92677071 C19.5434782,1.92677071 19.2480044,2.29335945 19.208646,3.06558413 L21.1718162,3.06558413 Z" id="Shape"></path>
                            <polygon id="Shape" points="26.0309714 1.45555064 24.5142442 5.35647943 23.7921017 5.35647943 22.2753745 1.45555064 22.9646231 1.45555064 23.9757746 4.30921842 24.1465181 4.80678587 24.1662924 4.80678587 24.3303811 4.30921842 25.3413425 1.45555064 26.0309714 1.45555064"></polygon>
                            <path d="M26.5698212,3.30119416 C26.5698212,2.07727301 27.1082908,1.38996651 28.1850397,1.38996651 C29.1172841,1.38996651 29.7280059,1.93984962 29.7280059,3.1899286 C29.7280059,3.28811525 29.7213511,3.40601504 29.7148864,3.49093322 L27.206782,3.49093322 C27.2396758,4.51848108 27.6203312,4.8719909 28.4607391,4.8719909 C28.8547041,4.8719909 29.1895364,4.78688317 29.5243686,4.62330195 L29.5966209,5.14683768 C29.2682533,5.32349782 28.8611688,5.43495293 28.3884869,5.43495293 C27.1016359,5.43495293 26.5698212,4.76091489 26.5698212,3.30119416 Z M29.1566426,3.06558413 C29.1435231,2.24085424 28.7562129,1.92677071 28.1915044,1.92677071 C27.5283046,1.92677071 27.2328308,2.29335945 27.1934724,3.06558413 L29.1566426,3.06558413 Z" id="Shape"></path>
                            <path d="M30.5883783,5.35647943 L30.5883783,1.48151892 L31.0872993,1.44891641 L31.1397772,2.28672522 L31.1528967,2.28672522 C31.3958925,1.72376319 31.8225612,1.39660075 32.3543759,1.39660075 C32.4988804,1.39660075 32.6367302,1.41631389 32.7416861,1.44891641 L32.7023276,2.07727301 C32.584062,2.03803627 32.4528671,2.02495735 32.3150174,2.02495735 C31.7044857,2.02495735 31.2120295,2.5420484 31.2120295,3.37985721 L31.2120295,5.35647943 L30.5883783,5.35647943 Z" id="Shape"></path>
                            <path d="M34.3510103,1.93984962 L34.3510103,4.33537626 C34.3510103,4.74120174 34.567577,4.90478297 34.9221835,4.90478297 C35.0337942,4.90478297 35.171644,4.88506982 35.250551,4.8524673 L35.2899095,5.32368737 C35.171644,5.38263727 34.9550773,5.42187401 34.7449753,5.42187401 C34.0753109,5.42187401 33.727169,5.04884059 33.727169,4.3550894 L33.727169,1.93984962 L33.1822348,1.93984962 L33.1822348,1.45555064 L33.7469433,1.45555064 L33.8650187,0.486763126 L34.3510103,0.434447463 L34.3510103,1.45555064 L35.3161485,1.45555064 L35.3161485,1.93984962 L34.3510103,1.93984962 Z" id="Shape"></path>
                            <path d="M40.2538305,4.87862513 L40.2340562,4.8719909 C40.0043701,5.20578758 39.5775113,5.41523978 39.0719355,5.41523978 C38.3562578,5.41523978 37.8704563,5.04220636 37.8704563,4.1651608 C37.8704563,3.43217287 38.3431383,2.9804764 39.2753827,2.9804764 C39.6102149,2.9804764 39.9319277,3.04587098 40.1749235,3.13097871 L40.1749235,2.74467682 C40.1749235,2.12939913 39.899224,1.91350224 39.2622632,1.91350224 C38.848714,1.91350224 38.5136917,1.98553105 38.16574,2.14911228 L38.1066072,1.63202123 C38.4807979,1.46180577 38.9010019,1.37669805 39.3672191,1.37669805 C40.3979548,1.37669805 40.7854551,1.80868137 40.7854551,2.83622923 L40.7854551,5.35610033 L40.3127732,5.35610033 L40.2538305,4.87862513 Z M40.1686489,3.57604094 C40.0701577,3.51709105 39.7813387,3.43217287 39.3873737,3.43217287 C38.7372934,3.43217287 38.4549392,3.69394073 38.4549392,4.15871612 C38.4549392,4.71523346 38.7897714,4.90497252 39.2428692,4.90497252 C39.7286706,4.90497252 40.1686489,4.57762052 40.1686489,4.25045808 L40.1686489,3.57604094 L40.1686489,3.57604094 Z" id="Shape"></path>
                            <polygon id="Shape" points="45.2443708 1.45555064 43.7276436 5.35647943 43.0055012 5.35647943 41.4887739 1.45555064 42.1780225 1.45555064 43.189174 4.30921842 43.3599175 4.80678587 43.3796919 4.80678587 43.5437806 4.30921842 44.5547419 1.45555064 45.2443708 1.45555064"></polygon>
                            <path d="M46.2889865,2.45694067 C46.0066322,2.45694067 45.881902,2.34567511 45.881902,2.05111518 C45.881902,1.795792 46.0066322,1.65192393 46.2889865,1.65192393 C46.5711506,1.65192393 46.696071,1.79598155 46.696071,2.05111518 C46.696071,2.30624882 46.5711506,2.45694067 46.2889865,2.45694067 Z M46.2889865,5.42850825 C46.0066322,5.42850825 45.881902,5.31724269 45.881902,5.02268276 C45.881902,4.76735958 46.0066322,4.6234915 46.2889865,4.6234915 C46.5711506,4.6234915 46.696071,4.76735958 46.696071,5.02268276 C46.696071,5.27800594 46.5711506,5.42850825 46.2889865,5.42850825 Z" id="Shape"></path>
                        </g>
                    </g>
                </g>
            </g>
        </g>
    </g>
</svg>