<svg data-name="Layer 1" xmlns="http://www.w3.org/2000/svg" viewBox="0 0 458 136"><path d="M99.64 4.09a9.41 9.41 0 0 0-8.86 6.2l-9.33 25.63-9.33 25.63a18.82 18.82 0 0 0 0 12.9l9.33 25.63 9.33 25.63a9.41 9.41 0 0 0 8.86 6.2h21.3a7.34 7.34 0 0 0 7.34-7.33V11.42a7.34 7.34 0 0 0-7.34-7.33h-21.3zm-68.12 0a9.41 9.41 0 0 1 8.86 6.2l9.33 25.63L59 61.55a18.82 18.82 0 0 1 0 12.9l-9.33 25.63-9.33 25.63a9.41 9.41 0 0 1-8.86 6.2H10.22a7.34 7.34 0 0 1-7.34-7.33V11.42a7.34 7.34 0 0 1 7.34-7.33h21.3z" fill="#2e47e5"/><path d="M177.18 20.53h6.26v16h17.67v-16h6.26v38.08h-6.26V42.07h-17.67v16.54h-6.26zm62.99 32.96v5.12h-3.1c-3.8 0-5.11-1.69-5.11-4.46a10.24 10.24 0 0 1-9.19 4.78c-6.09 0-10.34-3-10.34-8.16 0-5.71 4.14-8.92 11.91-8.92h7v-1.68c0-3.1-2.23-5-6.09-5-3.48 0-5.82 1.63-6.26 4.08h-5.76c.6-5.44 5.27-8.81 12.29-8.81 7.4 0 11.64 3.54 11.64 10.12V51.7c0 1.41.6 1.79 1.8 1.79zm-8.81-7.29h-7.29c-3.64 0-5.65 1.36-5.65 4.19 0 2.34 2 4 5.16 4 4.9 0 7.73-2.88 7.78-7.18zm30.72-15.44H268v27.85h-5.17l-.65-3.54a10.36 10.36 0 0 1-8.59 3.86c-5.93 0-11-3.15-11-12.67v-15.5h5.87v14.85c0 5.44 2.18 8.21 6.48 8.21 4.46 0 7.18-3.37 7.18-9.14zm33.19 0h5.11v26.7c0 7.56-4.24 12.35-14.25 12.35-7.39 0-12.56-3.43-13.11-9.68h6c.71 3.1 3.42 4.89 7.56 4.89 5.11 0 8-2.44 8-7.77v-3.1c-1.85 2.77-4.73 4.57-9.08 4.57-7.56 0-13.16-5.28-13.16-14.15 0-8.54 5.6-14.14 13.16-14.14a10.3 10.3 0 0 1 9.14 4.68zm-.71 13.92c0-5.49-3.2-9.3-8.1-9.3s-8.11 3.81-8.11 9.19 3.21 9.2 8.11 9.2 8.1-3.77 8.1-9.09zm10.19.06c0-8.6 5.49-14.31 13.71-14.31 8.05 0 13.43 5.11 13.6 13.27a15.76 15.76 0 0 1-.17 2.23h-21v.38c.16 4.74 3.15 7.84 7.77 7.84 3.6 0 6.21-1.8 7-4.9h5.88c-1 5.49-5.66 9.68-12.57 9.68-8.73 0-14.22-5.65-14.22-14.19zm21.25-3.1c-.49-4.14-3.37-6.48-7.45-6.48a7.2 7.2 0 0 0-7.4 6.48zm14.7 7.77c.22 2.89 2.72 5 7 5 3.64 0 6-1.41 6-3.64 0-3-2.56-3.21-6.85-3.75-6.37-.77-11.37-2.13-11.37-7.89 0-5.28 4.73-8.7 11.42-8.65 6.85 0 11.69 3.15 12.07 8.87h-5.76c-.33-2.56-2.72-4.36-6.2-4.36s-5.77 1.42-5.77 3.65c0 2.61 2.67 2.94 6.69 3.37 6.37.76 11.53 2.07 11.53 8.27 0 5.33-5 8.7-11.8 8.7-7.45 0-12.56-3.48-12.73-9.52zm42.07-18.65h5.88v27.85h-5.17l-.65-3.54a10.36 10.36 0 0 1-8.59 3.86c-5.93 0-11-3.15-11-12.67v-15.5h5.87v14.85c0 5.44 2.18 8.21 6.47 8.21 4.47 0 7.18-3.37 7.18-9.14zm37.36 12.34v15.51h-5.93v-15c0-5.27-2.23-8.1-6.63-8.1-4.68 0-7.46 3.43-7.46 9.08v14h-5.87V30.76h5.11l.65 3.64c1.74-2.17 4.4-4 8.92-4 6.15.03 11.21 3.4 11.21 12.7zm26.16-22.57h5.87v38.08h-5.11l-.71-4.19a10.76 10.76 0 0 1-9.08 4.51c-7.56 0-13.17-5.33-13.17-14.25 0-8.59 5.61-14.25 13.17-14.25a10.7 10.7 0 0 1 9 4.19zm0 24.26c0-5.55-3.21-9.36-8.1-9.36s-8.11 3.81-8.11 9.25 3.21 9.3 8.11 9.3 8.15-3.81 8.15-9.19zM182 103.32c.32 4.45 3.81 7.45 9.14 7.45 4.51 0 7.77-2 7.77-5.66 0-4-4-4.89-10-6-6.31-1.09-12.3-3.1-12.3-10.66 0-6.64 5.44-11.16 13.55-11.16 8.7 0 14.14 4.74 14.41 11.75h-6.25c-.49-3.86-3.54-6.47-8.16-6.47-4.3 0-7.29 1.85-7.29 5.44 0 3.92 3.91 4.73 9.9 5.77 6.31 1.14 12.45 3.15 12.4 10.66 0 6.85-5.71 11.58-14.09 11.58-9.46 0-15.17-5.22-15.39-12.83zm56-1.53c0 8.6-5.55 14.25-13.16 14.25-4.3 0-7.29-1.74-9-4.24v14.8H210V87.87h5.12l.7 4.13a10.89 10.89 0 0 1 9.09-4.46c7.57 0 13.09 5.33 13.09 14.25zm-6 0c0-5.49-3.27-9.25-8.16-9.25s-8.11 3.76-8.11 9.14c0 5.55 3.21 9.41 8.11 9.41s8.21-3.86 8.21-9.3zm36.72 8.81v5.12h-3.1c-3.81 0-5.11-1.69-5.11-4.46a10.22 10.22 0 0 1-9.19 4.78c-6.1 0-10.34-3-10.34-8.15 0-5.72 4.14-8.93 11.91-8.93h7v-1.68c0-3.1-2.23-5-6.09-5-3.48 0-5.82 1.64-6.26 4.08h-5.74c.6-5.44 5.27-8.81 12.29-8.81 7.4 0 11.64 3.54 11.64 10.12v11.15c0 1.41.6 1.79 1.8 1.79zm-8.81-7.28h-7.29c-3.64 0-5.65 1.36-5.65 4.18 0 2.34 1.95 4 5.16 4 4.9 0 7.73-2.88 7.78-7.18zm27.56-15.45v5.49h-2.61c-5.22 0-6.91 4.08-6.91 8.38v14h-5.87V87.87h5.22l.65 4.19c1.42-2.34 3.65-4.19 8.22-4.19zm1.25 13.98c0-8.6 5.5-14.31 13.71-14.31 8.05 0 13.43 5.11 13.6 13.27a15.76 15.76 0 0 1-.17 2.23h-21v.38c.16 4.74 3.15 7.84 7.78 7.84 3.59 0 6.2-1.8 7-4.9h5.88c-1 5.49-5.66 9.68-12.57 9.68-8.73-.04-14.23-5.65-14.23-14.19zm21.21-3.1c-.48-4.14-3.37-6.48-7.45-6.48a7.19 7.19 0 0 0-7.39 6.48zm38.53 3.04c0 8.54-5.55 14.25-13.16 14.25-4.35 0-7.35-1.85-9.09-4.35l-.7 4h-5.12V77.64h5.88V92a10.73 10.73 0 0 1 9-4.46c7.64 0 13.19 5.28 13.19 14.25zm-6 0c0-5.44-3.27-9.25-8.16-9.25s-8.11 3.81-8.11 9.2 3.21 9.35 8.11 9.35 8.18-3.8 8.18-9.3zm36.69 8.81v5.12h-3.1c-3.8 0-5.11-1.69-5.11-4.46a10.22 10.22 0 0 1-9.19 4.78c-6.09 0-10.34-3-10.34-8.15 0-5.72 4.14-8.93 11.91-8.93h7v-1.68c0-3.1-2.23-5-6.09-5-3.48 0-5.82 1.64-6.26 4.08h-5.76c.6-5.44 5.27-8.81 12.29-8.81 7.4 0 11.64 3.54 11.64 10.12v11.15c0 1.41.6 1.79 1.8 1.79zm-8.81-7.28h-7.29c-3.64 0-5.65 1.36-5.65 4.18 0 2.34 2 4 5.16 4 4.9 0 7.73-2.88 7.78-7.18zm38.06-3.1v15.5h-5.93v-15c0-5.27-2.23-8.1-6.63-8.1-4.68 0-7.46 3.43-7.46 9.08v14h-5.87V87.87h5.11l.65 3.64c1.75-2.17 4.41-4 8.93-4 6.14.03 11.2 3.4 11.2 12.71zm5.32-22.58h5.87v23.72l12.62-13.49h6.91l-10.5 11.26 11.15 16.59h-7l-8.21-12.3-5 5.23v7.07h-5.87z" fill="#0f163b"/></svg>