<svg enable-background="new 0 0 959 314" viewBox="0 0 959 314" xmlns="http://www.w3.org/2000/svg"><path d="m931.3 279.8-18.9-26.1 10.2-9.5 3.5-3.3c3.1-3.1 5.6-5.2 7.5-6.5 1.9-1.2 4-1.9 6.3-1.9v-3.5h-21.4v3.5h2.8c1.1 0 1.9.2 2.5.6.5.4.8 1 .8 1.6 0 1-.5 2-1.5 3l-26.3 25.2v-24.2c0-1.9.2-3.3.5-4.1s1-1.4 2-1.7 2.6-.4 5-.4v-3.5h-33.8v3.5c2.4 0 4.1.1 5.1.4s1.7.8 2 1.6.4 2.2.4 4.2v51.3c0 1.9-.1 3.3-.4 4.1s-.9 1.3-1.9 1.6c-1 .2-2.7.4-5.2.4v3.5h33.8v-3.6c-2.5 0-4.2-.1-5.2-.4-1-.2-1.6-.8-1.9-1.6s-.4-2.1-.4-4.1v-21.7l2.7-2.5 17.7 24.4c1.2 1.8 1.9 3.1 1.9 4.1 0 1.1-.9 1.7-2.7 1.7h-3.7v3.5h35.3v-3.4c-1.7 0-3.2-.4-4.4-1.2-1.3-.8-2.5-1.9-3.7-3.4s-2.9-3.8-5.2-7c-.6-.6-1.7-2.1-3.4-4.6m-90.8 20.5h12.7v-62.7c0-3.4 1.7-5.1 5-5.1h2.1v-3.5h-20.3v3.5h3.1c3.7 0 5.6 1.7 5.6 5.1v41.6h-.3l-32.9-50.3h-25.8v3.5c2.4.1 4.1.2 5.2.5s1.7.8 2.1 1.6.5 2.1.5 4v51.9c0 1.9-.4 3.3-1.3 4.2-.8.9-2.1 1.3-3.9 1.3h-2.5v3.5h20.6v-3.4h-3c-2.1 0-3.6-.4-4.3-1.2-.8-.8-1.1-2.3-1.1-4.3v-47.6h.1zm-113-29.3 9.5-25.2h.3l9.5 25.2zm45.8 19.7-23.2-61.8h-11.3l-24.9 61.2c-.7 1.8-1.5 3.1-2.2 3.9-.8.8-1.7 1.4-2.8 1.6s-2.8.4-5 .4v3.5h22.8v-3.5h-4.2c-2.2 0-3.3-.7-3.3-2.1 0-.6.1-1.2.4-2l6.3-16.7h22.4l6.2 16.4c.4.9.5 1.7.5 2.2 0 1.5-1 2.2-3 2.2h-5.4v3.5h35v-3.5c-2.1 0-3.6-.1-4.6-.3s-1.7-.7-2.2-1.3c-.2-.7-.8-1.9-1.5-3.7m-106.3 4.8c-2.8 0-4.7-.5-5.7-1.4-1-1-1.5-2.8-1.5-5.4v-24.7h5.3c4.8 0 8.5 1.4 11.2 4.3 2.6 2.9 3.9 7 3.9 12.4-.1 9.9-4.5 14.8-13.2 14.8m-7.2-35.6v-22.6c0-1.4.1-2.3.3-2.9s.7-.9 1.3-1.1c.7-.2 1.8-.3 3.5-.3 8.9 0 13.3 4.4 13.3 13.2 0 9.1-4.5 13.7-13.5 13.7zm-26.4 39.7h36.5c19.5 0 29.3-6.3 29.3-18.9 0-10.5-6.6-16.9-19.9-19.2v-.1c5.5-1.1 9.7-3.1 12.6-5.8 2.8-2.7 4.3-6.2 4.3-10.4 0-5.4-2.3-9.4-6.9-12.2-4.6-2.7-11.5-4.1-20.5-4.1h-35.3v3.5c2.4 0 4.1.1 5.1.4s1.6.8 2 1.6c.3.8.5 2.2.5 4.2v51.4c0 1.7-.2 3-.5 3.8-.4.8-1.1 1.4-2.1 1.7-1.1.3-2.7.5-4.9.5v3.6zm-73.2 0h60.1l1.3-18.6h-4.5c-.8 3.9-2 7-3.7 9.1s-3.8 3.6-6.3 4.4-5.7 1.2-9.5 1.2c-3.6 0-6.1-.2-7.6-.5-1.5-.4-2.4-1-2.8-1.9s-.6-2.4-.6-4.7v-23.6h13c2 0 3.5.2 4.5.8 1 .5 1.8 1.4 2.4 2.8.5 1.4 1 3.5 1.3 6.4h3.6v-24.5h-3.6c-.4 2.8-.8 4.9-1.3 6.2-.5 1.4-1.3 2.3-2.3 2.8s-2.5.8-4.5.8h-13v-23.8c0-1.4.3-2.3.9-2.8s1.7-.8 3.1-.8h7.5c3.5 0 6.2.3 8.3 1 2 .6 3.6 1.9 4.9 3.7s2.4 4.5 3.3 8.2h4.5v-16.8h-59v3.5c2.3 0 4 .1 5 .4s1.7.8 2 1.7.5 2.2.5 4v51.4c0 1.9-.2 3.2-.5 4s-1 1.3-2 1.6-2.7.4-5 .4zm-52-37.1v-25.9c0-1.6.3-2.6.8-3.1s1.6-.7 3.3-.7c4.6 0 7.9 1.2 10 3.6s3.1 6.1 3.1 11.1c0 5.3-1.1 9.1-3.4 11.5s-5.8 3.5-10.7 3.5zm-26.4 37.1h33.5v-3.6c-2.2 0-3.8-.1-4.7-.4s-1.6-.8-1.9-1.6-.5-2.1-.5-4v-23.2h4.5c2.5 0 4.3.7 5.5 2 1.2 1.4 2 3.4 2.6 6.1l3.3 14.8c.5 2.1 1.2 4.1 2.2 6 .9 1.9 1.9 3.1 3 3.9h21.6v-3.6c-2.3 0-4-.4-5.2-1.1s-2.1-1.8-2.8-3.4c-.7-1.5-1.3-3.8-2-6.9l-1.3-6c-1-4.9-2.5-8.3-4.5-10.3s-5.2-3.4-9.7-4.1v-.2c5.5-.9 10-2.7 13.5-5.7 3.4-2.9 5.1-7 5.1-12.1 0-5.6-2.3-9.9-6.9-12.9s-11.8-4.4-21.6-4.4h-33.6v3.5c2.3 0 4 .1 5 .4s1.7.8 2 1.7c.3.8.5 2.2.5 4v51.5c0 1.9-.1 3.3-.4 4s-.9 1.3-1.9 1.6-2.7.4-5.2.4v3.6zm-62.7-28.6 9.5-25.2h.3l9.5 25.2zm45.9 19.7-23.2-61.8h-11.3l-24.9 61.2c-.7 1.8-1.5 3.1-2.2 3.9-.8.8-1.7 1.4-2.8 1.6s-2.8.4-5 .4v3.5h22.8v-3.5h-4.2c-2.2 0-3.3-.7-3.3-2.1 0-.6.1-1.2.4-2l6.3-16.7h22.4l6.2 16.4c.4.9.5 1.7.5 2.2 0 1.5-1 2.2-3 2.2h-5.4v3.5h35v-3.5c-2.1 0-3.6-.1-4.6-.3-.9-.2-1.7-.7-2.2-1.3-.3-.7-.9-1.9-1.5-3.7m-105.5-23.5v-30.6c0-1.6.2-2.7.7-3.1s1.5-.6 3.2-.6c4.4 0 7.8 1.4 10.1 4.2s3.4 7 3.4 12.5c0 6-1.3 10.4-4 13.3s-6.1 4.3-10.4 4.3zm-26.3 32.4h33.5v-3.6c-2.2 0-3.8-.1-4.7-.4s-1.6-.8-1.9-1.6-.5-2.1-.5-4v-18.5h3c10.8 0 19.1-1.7 24.8-5.2 5.8-3.5 8.6-9.2 8.6-17 0-6.6-2.5-11.6-7.6-15.1s-12.3-5.2-21.6-5.2h-33.6v3.5c2.3 0 4 .1 5 .4s1.7.8 2 1.7c.3.8.5 2.2.5 4v51.4c0 1.9-.1 3.3-.4 4s-.9 1.3-1.9 1.6-2.7.4-5.2.4zm-61 0h3.6c.6-1.3 1.7-1.9 3.3-1.9.7 0 1.6.2 2.7.5s1.8.5 2.2.6c4.7 1.4 8.8 2.1 12.3 2.1 4.3 0 8.4-.9 12.4-2.6 3.9-1.7 7.1-4.4 9.6-8s3.7-8 3.7-13.3c0-9.9-5.5-16.8-16.5-20.8l-9.7-3.4c-2.8-1-5-1.8-6.5-2.5-1.5-.6-3-1.7-4.4-3.3-1.4-1.5-2.1-3.4-2.1-5.7 0-3.1 1.3-5.7 3.8-7.7 2.6-2 5.7-3 9.5-3 4.5 0 8.5 1.5 11.8 4.4 3.4 3 5.6 6.9 6.7 11.8h4.5l-1.1-18.3h-3.6c-.2.6-.5 1.1-.9 1.5s-1.1.5-2.1.5-2.1-.2-3.1-.5c-1.1-.3-1.7-.5-2-.6-3.4-1.2-6.6-1.8-9.6-1.8-4.9 0-9.2.9-13 2.7s-6.7 4.3-8.8 7.7-3.2 7.2-3.2 11.7c0 5.5 1.5 9.9 4.5 13.3s7.7 6.1 14.1 8.2l7.8 2.7c4 1.4 7 3 8.9 4.8 1.9 1.9 2.9 4.3 2.9 7.3 0 4-1.4 7-4.2 9s-6.1 3-9.8 3c-3.5 0-6.7-.9-9.7-2.7s-5.4-4.1-7.2-6.8c-1.9-2.7-3-5.4-3.4-8h-4.5z" fill="#667380"/><path d="m896.2 192.5h3.6c.6-1.3 1.7-1.9 3.3-1.9.7 0 1.6.2 2.7.5s1.8.5 2.2.6c4.7 1.4 8.8 2.1 12.2 2.1 4.3 0 8.4-.9 12.4-2.6 3.9-1.7 7.1-4.4 9.6-8s3.7-8 3.7-13.3c0-9.9-5.5-16.8-16.5-20.8l-9.7-3.4c-2.8-1-5-1.8-6.5-2.5-1.5-.6-3-1.7-4.4-3.3-1.4-1.5-2.1-3.4-2.1-5.7 0-3.1 1.3-5.7 3.8-7.7 2.6-2 5.7-3 9.5-3 4.5 0 8.5 1.5 11.8 4.4 3.4 3 5.6 6.9 6.7 11.8h4.5l-1.1-18.3h-3.6c-.2.6-.5 1.1-.9 1.5s-1.1.5-2.1.5-2.1-.2-3.1-.5c-1.1-.3-1.7-.5-2-.6-3.4-1.2-6.6-1.8-9.6-1.8-4.9 0-9.2.9-13 2.7s-6.7 4.3-8.8 7.7c-2.1 3.3-3.2 7.2-3.2 11.7 0 5.5 1.5 9.9 4.5 13.3s7.7 6.1 14.1 8.2l7.8 2.7c4 1.4 7 3 8.9 4.8 1.9 1.9 2.9 4.3 2.9 7.3 0 4-1.4 7-4.2 9s-6.1 3-9.8 3c-3.5 0-6.7-.9-9.7-2.7s-5.4-4.1-7.2-6.8c-1.9-2.7-3-5.4-3.4-8h-4.5zm-53.1-3.9c-1.7 0-2.9-.1-3.8-.4-.8-.3-1.5-.9-1.9-1.8s-.6-2.3-.6-4.1v-52.3c0-1.9.5-3 1.4-3.4s2.8-.6 5.5-.6c7.1 0 12.5 2.6 16.2 7.7 3.6 5.1 5.5 12.8 5.5 23 0 11-1.8 19.1-5.4 24.2s-9.2 7.7-16.9 7.7m-33.7 3.9h33.1c14 0 24.6-2.9 31.8-8.6s10.8-15 10.8-27.7c0-11.6-3.3-20.2-9.8-25.8-6.6-5.6-16.3-8.4-29.2-8.6h-36.8v3.5c2.8 0 4.7.1 5.9.4 1.1.3 1.9.8 2.2 1.6.4.8.5 2.1.5 4.1v51.6c0 2-.1 3.4-.4 4.1-.3.8-1 1.3-2.1 1.5s-3.1.4-6.1.4v3.5zm-29.8.8h12.7v-62.7c0-3.4 1.7-5.1 5-5.1h2.1v-3.5h-20.2v3.5h3.1c3.7 0 5.6 1.7 5.6 5.1v41.6h-.3l-32.9-50.3h-25.8v3.5c2.4.1 4.1.2 5.2.5s1.7.8 2.1 1.6c.3.8.5 2.1.5 4v51.9c0 1.9-.4 3.3-1.3 4.2-.8.9-2.1 1.3-3.9 1.3h-2.5v3.5h20.6v-3.4h-3c-2.1 0-3.6-.4-4.3-1.2-.8-.8-1.1-2.3-1.1-4.3v-47.6h.1zm-109.8-29.4 9.5-25.2h.3l9.5 25.2zm45.9 19.7-23.2-61.8h-11.3l-24.9 61.2c-.7 1.8-1.5 3.1-2.2 3.9-.8.8-1.7 1.4-2.8 1.6s-2.8.4-5 .4v3.5h22.7v-3.4h-4.2c-2.2 0-3.3-.7-3.3-2.1 0-.6.1-1.2.4-2l6.3-16.7h22.4l6.2 16.4c.4.9.5 1.7.5 2.2 0 1.5-1 2.2-3 2.2h-5.4v3.5h35v-3.5c-2.1 0-3.6-.1-4.6-.3s-1.7-.7-2.2-1.3c-.2-.8-.8-2-1.4-3.8m-121.2 8.9h3.6c.6-1.3 1.7-1.9 3.3-1.9.7 0 1.6.2 2.7.5s1.8.5 2.2.6c4.7 1.4 8.8 2.1 12.2 2.1 4.3 0 8.4-.9 12.4-2.6 3.9-1.7 7.1-4.4 9.6-8s3.7-8 3.7-13.3c0-9.9-5.5-16.8-16.5-20.8l-9.7-3.4c-2.8-1-5-1.8-6.5-2.5-1.5-.6-3-1.7-4.4-3.3-1.4-1.5-2.1-3.4-2.1-5.7 0-3.1 1.3-5.7 3.8-7.7 2.6-2 5.7-3 9.5-3 4.5 0 8.5 1.5 11.8 4.4 3.4 3 5.6 6.9 6.7 11.8h4.5l-1.1-18.3h-3.6c-.2.6-.5 1.1-.9 1.5s-1.1.5-2.1.5-2.1-.2-3.1-.5c-1.1-.3-1.7-.5-2-.6-3.4-1.2-6.6-1.8-9.6-1.8-4.9 0-9.2.9-13 2.7s-6.7 4.3-8.8 7.7c-2.1 3.3-3.2 7.2-3.2 11.7 0 5.5 1.5 9.9 4.5 13.3s7.7 6.1 14.1 8.2l7.8 2.7c4 1.4 7 3 8.9 4.8 1.9 1.9 2.9 4.3 2.9 7.3 0 4-1.4 7-4.2 9s-6.1 3-9.8 3c-3.5 0-6.7-.9-9.7-2.7s-5.4-4.1-7.2-6.8c-1.9-2.7-3-5.4-3.4-8h-4.5zm-74.6 0h60.1l1.3-18.6h-4.5c-.8 3.9-2 7-3.7 9.1s-3.8 3.6-6.3 4.4-5.7 1.2-9.5 1.2c-3.6 0-6.1-.2-7.6-.5-1.5-.4-2.4-1-2.8-1.9s-.6-2.4-.6-4.7v-23.5h13c2 0 3.5.2 4.5.8 1 .5 1.8 1.4 2.3 2.8s1 3.5 1.3 6.4h3.6v-24.5h-3.6c-.4 2.8-.8 4.9-1.3 6.2-.5 1.4-1.3 2.3-2.3 2.8s-2.5.8-4.5.8h-13v-23.8c0-1.4.3-2.3.9-2.8s1.7-.8 3.1-.8h7.5c3.5 0 6.3.3 8.3 1 2 .6 3.6 1.9 4.9 3.7s2.4 4.5 3.3 8.2h4.5v-16.8h-59v3.5c2.3 0 4 .1 5 .4s1.7.8 2 1.7c.3.8.5 2.2.5 4v51.4c0 1.9-.2 3.2-.5 4s-1 1.3-2 1.6-2.7.4-5 .4v3.5zm-68.3 0h58l1.3-18.6h-4.5c-1.2 5.6-3.5 9.4-7 11.5s-8.4 3.2-14.7 3.2c-2.2 0-3.7-.1-4.6-.4s-1.5-.8-1.7-1.6c-.3-.8-.4-2.1-.4-4v-51c0-1.9.2-3.3.5-4.1s1-1.4 2-1.7 2.6-.4 5-.4v-3.5h-33.8v3.5c2.4 0 4.1.1 5.1.4s1.7.8 2 1.6.4 2.2.4 4.2v51.4c0 1.9-.1 3.3-.4 4.1s-.9 1.3-1.9 1.6-2.7.4-5.2.4v3.4zm-68.2 0h58l1.3-18.6h-4.5c-1.2 5.6-3.5 9.4-7 11.5s-8.4 3.2-14.7 3.2c-2.2 0-3.7-.1-4.7-.4-.9-.3-1.5-.8-1.7-1.6-.3-.8-.4-2.1-.4-4v-51c0-1.9.2-3.3.5-4.1s1-1.4 2-1.7 2.6-.4 5-.4v-3.5h-33.8v3.5c2.4 0 4.1.1 5.1.4s1.7.8 2 1.6.4 2.2.4 4.2v51.4c0 1.9-.1 3.3-.4 4.1s-.9 1.3-1.9 1.6c-1 .2-2.7.4-5.2.4zm-44.3 0h33.8v-3.5c-2.4 0-4.1-.1-5-.4-.9-.2-1.6-.8-1.9-1.6s-.5-2.1-.5-4.1v-51.4c0-1.9.2-3.3.5-4.1s1-1.4 2-1.7 2.6-.4 5-.4v-3.5h-33.8v3.5c2.3 0 4 .1 5 .4s1.7.8 2 1.7c.4.8.5 2.2.5 4.1v51.5c0 1.9-.1 3.3-.4 4-.3.8-.9 1.3-1.9 1.6s-2.7.4-5.2.4v3.5zm-68.3 0h58l1.3-18.6h-4.5c-1.2 5.6-3.5 9.4-7 11.5s-8.4 3.2-14.7 3.2c-2.2 0-3.7-.1-4.6-.4s-1.5-.8-1.8-1.6-.4-2.1-.4-4v-51c0-1.9.2-3.3.5-4.1s1-1.4 2-1.7 2.6-.4 5-.4v-3.5h-33.8v3.5c2.4 0 4.1.1 5.1.4s1.7.8 2 1.6.4 2.2.4 4.2v51.4c0 1.9-.1 3.3-.4 4.1s-.9 1.3-1.9 1.6c-1 .2-2.7.4-5.2.4z" fill="#667380"/><path d="m120.4 10.5-100.1 66.3 100.1 73z" fill="#c7db54"/><path d="m237.2 118.4-100.2-66.3v139.4z" fill="#80a333"/><g fill="#667380"><path d="m120.3 171.1-91.2-66.4-17.7 26.2 78.2 57v81.9h-54.4v32h85.2v-130.6-.1z"/><path d="m167.8 229.3 78.2-56.9-17.7-26.3-91.1 66.5h-.2v.1 89.1h85.2v-32h-54.4z"/></g></svg>