<svg width="287" height="57" xmlns="http://www.w3.org/2000/svg" xmlns:xlink="http://www.w3.org/1999/xlink"><defs><path id="a" d="M.048 56.872h286.288V.107H.048v56.765z"/></defs><g fill="none" fill-rule="evenodd"><mask id="b" fill="#fff"><use xlink:href="#a"/></mask><path d="M280.148 21.974c-7.08-2.592-7.943 1.72-7.924 4.136.022.383-.092.441-.143-.012-.104-.938-.266-2.117-1.2-4.094-1.865-3.936-6.116-2.971-7.37-4.588-.101-.097-.249-.075-.243-.07l.19.258-.19-.256c-.006-.007-.068.13-.003.255 1.19 1.662-.943 5.46 2.299 8.369 1.627 1.459 2.714 1.95 3.582 2.318.42.177.335.27-.027.14-2.313-.707-6.69-1.107-6.223 6.419.002.027.038.045.055.025 4.095-4.336 7.616-2.181 9.239-.484.057.061.244.11.343.058.17-.09.366-.25.383-.262.457-.292 1.866-1.396 1.87-1.402.017-.01 1.73-1.313 2.011-1.534.013-.011.05-.038.203-.15.15-.108.068-.26.026-.334-1.163-2.033-2.198-6.039 3.133-8.732.02-.01.015-.052-.01-.06" fill="#F3B229" mask="url(#b)"/><path d="M277.464 32.643l-.017.015s-3.507 2.598-3.985 2.97c-.03.024-.127.092-.085.199.147.364.23.619.292.958 2.72 14.73-10.864 14.627-13.192 14.466-5.406-.251-9.701-2.728-12.893-5.406-9.298-7.8-9.944-23.105-6.28-29.648.129-.362-.059-2.567-.59-1.968-1.478 2.788-3.633 8.404-3.314 15.743.295 6.72 2.36 11.838 5.312 16.17 4.453 6.523 12.981 11.81 22.2 10.606 15.305-1.999 16.554-16.158 12.863-24.188-.006-.014-.097-.1-.31.083" fill="#0082A4" mask="url(#b)"/><path d="M286.32 27.35c-.214-6.723-2.22-11.864-5.12-16.23C276.828 4.542 268.36-.847 259.13.25c-15.33 1.815-16.747 15.96-13.153 24.032.005.013.097.1.314-.08l.015-.015s3.54-2.556 4.022-2.922c.031-.023.128-.09.086-.197a4.711 4.711 0 0 1-.28-.962C247.589 5.342 261.172 5.608 263.5 5.798c5.401.316 9.668 2.843 12.827 5.559 9.203 7.912 9.665 23.223 5.924 29.722-.135.359.027 2.567.567 1.974 1.51-2.77 3.733-8.36 3.502-15.703" fill="#0082A4" mask="url(#b)"/><path d="M258.11 31.015c-1.612-1.48-2.69-1.984-3.553-2.36-.42-.184-.329-.275.029-.14 2.303.734 6.675 1.185 6.298-6.344-.003-.028-.037-.047-.057-.026-4.144 4.285-7.641 2.09-9.241.371-.058-.061-.243-.111-.344-.06-.169.088-.368.246-.385.254-.461.29-1.883 1.377-1.887 1.38v.002c-.01.005-1.746 1.292-2.03 1.51-.012.011-.05.036-.203.147-.152.109-.073.261-.034.334 1.143 2.046 2.129 6.065-3.234 8.694-.02.012-.015.052.01.061 7.048 2.675 7.964-1.625 7.974-4.041-.02-.383.094-.44.14.013.092.94.241 2.121 1.153 4.108 1.818 3.958 6.078 3.045 7.313 4.675.102.099.249.081.244.075a25.58 25.58 0 0 1-.185-.256l.185.253c.007.007.067-.129.007-.255-1.172-1.675 1.007-5.45-2.2-8.395" fill="#F3B229" mask="url(#b)"/><path d="M0 22.028V42.5h9.462v-2.53H3.807V22.029H0" fill="#0082A4" mask="url(#b)"/><path d="M19.136 42.825c-4.286 0-6.222-1.874-6.222-5.413V26.46h3.63v11.157c0 1.52.834 2.71 2.707 2.71 1.043 0 1.786-.179 2.41-.538V26.46h3.634v15.088c-1.34.711-3.366 1.277-6.16 1.277m14.073-.056c-1.876 0-3.484-.51-4.436-1.161l.952-2.321c.596.475 1.698.922 3.006.922 1.49 0 2.47-.952 2.47-2.264 0-1.367-.713-2.022-2.35-2.647-3.036-1.161-3.66-2.826-3.66-4.491 0-2.56 2.023-4.642 5.089-4.642 1.785 0 3.124.445 4.164 1.129l-.893 2.114a4.245 4.245 0 0 0-2.557-.893c-1.489 0-2.291.982-2.291 2.11 0 1.31.98 1.967 2.38 2.532 3.123 1.248 3.838 2.856 3.838 4.73 0 2.618-2.203 4.882-5.712 4.882m14.663-.092c-3.153 0-4.402-2.113-4.402-4.345v-9.55h-1.785V26.46h1.785v-3.54l3.628-1.011v4.55h2.622v2.323h-2.622v9.372c0 1.25.509 2.082 1.757 2.082.328 0 .565-.06.865-.147v2.26c-.328.15-.983.328-1.848.328m8.035-6.874c.296 2.976 1.726 4.464 4.374 4.464 1.845 0 3.183-.445 4.045-.893l.864 2.292c-1.13.624-2.855 1.13-5.296 1.13-4.552 0-7.44-2.947-7.44-8.36 0-5.237 2.648-8.271 6.843-8.271 4.258 0 6.577 2.824 6.43 8.212l-9.82 1.426zm3.275-7.406c-2.113 0-3.572 1.725-3.481 5.562l6.634-1.012c0-3.243-1.162-4.55-3.153-4.55zm17.465.443c-1.22-.416-2.56-.356-3.393.121V42.5h-3.63V27.325c1.666-.805 3.69-1.25 7.735-1.133l-.712 2.648m16.602 13.957c-2.44 0-3.957-.447-5.056-1.162l.92-2.647c.715.478 1.876.952 3.421.952 2.024 0 3.275-1.249 3.275-3.153 0-1.548-.894-2.5-3.184-3.453-3.333-1.398-4.226-3.599-4.226-5.593 0-3.244 2.35-6.01 6.13-6.01 2.054 0 3.57.503 4.492 1.159l-.833 2.322c-.712-.446-1.845-.924-3.153-.924-1.876 0-2.948 1.162-2.948 2.975 0 1.785 1.312 2.62 3.098 3.362 4.014 1.698 4.61 3.958 4.61 5.922 0 3.63-2.737 6.25-6.546 6.25m16.335-.089c-.92 0-1.873-.121-2.41-.327v6.515h-3.599V27.325c1.218-.656 3.003-1.161 5.563-1.161 4.67 0 7.498 3.003 7.498 8.122 0 5.238-2.857 8.422-7.052 8.422m-.536-14.371c-.802 0-1.368.118-1.873.324v11.606c.415.178.953.269 1.607.269 2.854 0 4.252-2.232 4.252-6.13 0-3.84-1.04-6.07-3.986-6.07m17.078 14.46c-4.372 0-6.542-1.786-6.542-4.878 0-4.228 4.074-5.445 8.956-5.923v-.861c0-2.086-1.312-2.65-3.185-2.65-1.548 0-3.034.505-4.018.983l-.832-2.082c1.042-.51 2.974-1.221 5.503-1.221 3.305 0 5.922 1.399 5.922 5.535v9.936c-1.278.687-3.303 1.162-5.804 1.162m2.414-9.076c-3.422.416-5.535 1.162-5.535 4.078 0 2.082 1.248 2.975 3.362 2.975.833 0 1.636-.178 2.173-.447v-6.606m14.877-4.881c-1.22-.416-2.56-.356-3.393.121V42.5h-3.63V27.325c1.667-.805 3.689-1.25 7.739-1.133l-.716 2.648m6.547 6.963c.296 2.976 1.726 4.464 4.373 4.464 1.845 0 3.183-.445 4.047-.893l.86 2.292c-1.126.624-2.856 1.13-5.294 1.13-4.554 0-7.44-2.947-7.44-8.36 0-5.237 2.65-8.271 6.843-8.271 4.256 0 6.579 2.824 6.429 8.212l-9.818 1.426zm3.271-7.406c-2.111 0-3.57 1.725-3.48 5.562l6.633-1.012c0-3.243-1.159-4.55-3.153-4.55zm15.74 14.4c-2.468 0-4.283-.506-5.295-1.162V19.14h3.6v7.767c.773-.356 1.638-.655 3.153-.655 3.72 0 6.31 3.065 6.31 7.857 0 5.385-2.767 8.688-7.768 8.688m.478-14.432c-.983 0-1.577.15-2.173.475v11.397c.478.21 1.16.328 1.844.328 2.857 0 4.018-2.439 4.018-6.247 0-3.334-.952-5.953-3.69-5.953m16.932 14.432c-4.376 0-6.549-1.787-6.549-4.88 0-4.227 4.08-5.444 8.958-5.922v-.861c0-2.086-1.31-2.65-3.183-2.65-1.548 0-3.038.505-4.017.983l-.833-2.082c1.042-.51 2.973-1.221 5.503-1.221 3.302 0 5.922 1.399 5.922 5.535v9.936c-1.278.687-3.303 1.162-5.801 1.162m2.41-9.076c-3.42.416-5.535 1.162-5.535 4.078 0 2.082 1.249 2.975 3.363 2.975.833 0 1.635-.178 2.171-.447v-6.606m16.87 8.779V31.134c0-1.311-.595-2.68-2.883-2.68-1.192 0-1.817.18-2.502.448V42.5h-3.63V27.326c1.519-.716 3.572-1.162 6.278-1.162 4.792 0 6.368 2.32 6.368 4.908V42.5h-3.63m17.525 0l-5.356-8.182h-.056V42.5h-3.604V19.14h3.604v14.581h.056l5.088-7.26h3.692l-5.536 7.349 6.189 8.69h-4.077" fill="#0082A4"/></g></svg>