<?xml version="1.0" encoding="utf-8"?>
<!-- Generator: Adobe Illustrator 25.2.1, SVG Export Plug-In . SVG Version: 6.00 Build 0)  -->
<svg version="1.1" id="SB1_Telemark" xmlns="http://www.w3.org/2000/svg" xmlns:xlink="http://www.w3.org/1999/xlink" x="0px"
	 y="0px" viewBox="0 0 244.2 55.5" style="enable-background:new 0 0 244.2 55.5;" xml:space="preserve">
<style type="text/css">
	.st0{fill:#E60000;}
	.st1{fill:#AF0000;}
	.st2{fill:#FFFFFF;}
	.st3{fill:none;}
	.st4{fill:#002776;}
</style>
<g>
	<g>
		<path class="st0" d="M216.4,0c-2.9,0-5.8,0.5-8.4,1.3c11.2-2.4,22.2,2.2,26.2,11.6c4.6,10.9-2,24.1-14.7,29.5
			c-11.4,4.8-23.9,1.7-29.7-6.8c3.4,11.5,14,19.9,26.6,19.9c15.3,0,27.8-12.4,27.8-27.8S231.7,0,216.4,0z"/>
		<path class="st1" d="M219.4,42.4c12.7-5.4,19.3-18.6,14.7-29.5c-4-9.4-15.1-14-26.2-11.6c-11.2,3.6-19.3,14.1-19.3,26.5
			c0,2.7,0.4,5.3,1.1,7.8C195.5,44.1,208,47.2,219.4,42.4z"/>
		<g>
			<path class="st2" d="M223.5,40.3V11.8c0-0.6-0.5-1-1-1H216c-0.5,0-0.7,0.1-1.1,0.3l-8.3,4.3c-0.5,0.2-0.7,0.5-0.7,1v4.7
				c0,0.5,0.4,1,1,1h5.3v22.4c2.4-0.3,4.9-1,7.3-2C220.9,41.7,222.2,41,223.5,40.3z"/>
			<path class="st3" d="M213.2,48.9h9.3c0.6,0,1-0.5,1-1v-7.6c-1.3,0.8-2.6,1.5-4,2.1c-2.4,1-4.9,1.7-7.3,2v3.5
				C212.1,48.5,212.6,48.9,213.2,48.9z"/>
		</g>
	</g>
	<g>
		<g>
			<g>
				<path class="st4" d="M10.2,30.8c-4.9,0-8.7-1.1-9.4-1.3c-0.4-0.2-0.6-0.4-0.6-0.8v-0.2L0.7,26c0.1-0.4,0.3-0.5,0.6-0.5
					c0.1,0,0.1,0,0.3,0c0.8,0.2,4.6,1.2,8.2,1.2c3.1,0,5.8-0.9,5.8-4.1c0-3.2-2.8-3.6-6.4-4.1c-4-0.6-9.2-1.7-9.2-8
					C0,4,4.9,2.2,10.6,2.2c4.4,0,8,1,8.8,1.3c0.4,0.1,0.7,0.4,0.7,0.8v0.3L19.6,7c0,0.3-0.3,0.5-0.6,0.5h-0.1
					c-1.8-0.4-4.6-1.1-7.9-1.1c-2.8,0-5.7,0.5-5.7,3.7c0,3.1,3.1,3.6,6.5,4c4.4,0.7,9.4,1.3,9.4,8.3C21.1,28.9,15.8,30.8,10.2,30.8z
					"/>
				<path class="st4" d="M57.7,30.3c-1.3,0.3-3.1,0.5-5.2,0.5c-4,0-9-0.4-9-6.4c0-4.8,3-5.4,6-5.8l6.7-1.1v-1.2c0-1-0.1-1.8-1-2.2
					c-0.6-0.3-1.5-0.4-2.8-0.4c-2.5,0-5.3,0.7-6.4,1c-0.1,0-0.2,0-0.3,0c-0.2,0-0.4-0.1-0.4-0.3l-0.5-2.3V12c0-0.3,0.3-0.5,0.4-0.6
					c0.9-0.3,4.3-1.3,8.2-1.3c2.7,0,4.5,0.4,5.7,1c1.9,1,2.3,2.8,2.3,4.8v10.3C61.2,29.3,60.3,29.7,57.7,30.3z M56.2,20.8l-4.6,0.8
					c-1.5,0.2-3,0.4-3,2.9c0,2.9,2.4,3.1,4.2,3.1c1.5,0,2.7-0.3,3.4-0.5C56.2,27.1,56.2,20.8,56.2,20.8z"/>
				<path class="st4" d="M74.6,14.1c-2.3,0-4.2,0.2-5.3,0.5v15.2c0,0.3-0.2,0.6-0.6,0.6h-3.8c-0.2,0-0.6-0.2-0.6-0.6V13.7
					c0-1.5,0.9-1.9,2.7-2.4c1.6-0.5,4.3-0.9,6.4-0.9H74c0.5,0,0.5,0,0.8,0.1c0.1,0.1,0.3,0.2,0.3,0.6v2.4
					C75.1,13.8,75.1,14.1,74.6,14.1z"/>
				<path class="st4" d="M94.2,22c0,0.4-0.2,0.9-0.8,0.9H80.8c0,1.7,0.5,2.7,1.5,3.4c1,0.8,2.4,1.1,4.4,1.1c2.3,0,4.1-0.6,5.2-0.9
					c0.1,0,0.1,0,0.2,0c0.2,0,0.4,0.2,0.5,0.5l0.5,1.9c0,0,0,0.1,0,0.2c0,0.3-0.2,0.4-0.4,0.6c-1.3,0.5-3.8,1.2-6.8,1.2
					c-7.3,0-10.2-2.9-10.2-10.2c0-7,1.9-10.4,9.2-10.4c3.8,0,6.1,1,7.4,2.8c1.3,1.7,1.7,4.1,1.7,7.2V22H94.2z M88.9,16.4
					c-0.5-2.1-1.6-2.7-3.8-2.7c-2.5,0-3.6,0.7-4,2.6c-0.3,1-0.3,2.1-0.3,3.4h8.4C89.2,18.4,89.1,17.4,88.9,16.4z"/>
				<path class="st4" d="M136.7,30.3c-1.3,0.3-3.1,0.5-5.2,0.5c-4,0-9-0.4-9-6.4c0-4.8,3-5.4,6-5.8l6.7-1.1v-1.2c0-1-0.1-1.8-1-2.2
					c-0.6-0.3-1.5-0.4-2.8-0.4c-2.5,0-5.3,0.7-6.4,1c-0.1,0-0.2,0-0.3,0c-0.2,0-0.4-0.1-0.4-0.3l-0.5-2.3V12c0-0.3,0.3-0.5,0.4-0.6
					c0.9-0.3,4.3-1.3,8.2-1.3c2.7,0,4.5,0.4,5.7,1c1.9,1,2.3,2.8,2.3,4.8v10.3C140.2,29.3,139.3,29.7,136.7,30.3z M135.2,20.8
					l-4.6,0.7c-1.5,0.2-3,0.4-3,2.9c0,2.9,2.4,3.1,4.2,3.1c1.5,0,2.7-0.3,3.4-0.5L135.2,20.8L135.2,20.8z"/>
				<path class="st4" d="M160.2,30.4h-3.9c-0.3,0-0.6-0.2-0.6-0.6V16.6c0-2.2-0.8-2.9-2.8-2.9c-2.2,0-4.7,0.6-4.7,0.6v15.5
					c0,0.3-0.2,0.6-0.6,0.6h-3.7c-0.4,0-0.6-0.2-0.6-0.6V13.7c0-1.4,0.7-1.9,2.8-2.5c1.9-0.5,5.1-1,7.4-1c4.7,0,7.3,1.2,7.3,5.7
					v13.9C160.8,30.2,160.5,30.4,160.2,30.4z"/>
				<path class="st4" d="M181.9,30c0,0.2-0.1,0.3-0.4,0.3h-5c-0.2,0-0.4,0-0.6-0.2l-5.8-7.9h-1.2v7.6c0,0.3-0.2,0.6-0.6,0.6h-3.9
					c-0.3,0-0.6-0.2-0.6-0.6V3.7c0-0.4,0.2-0.7,0.6-0.8l3.7-0.6h0.2c0.3,0,0.6,0.2,0.6,0.6v16h1.3l5.9-7.9c0.1-0.2,0.3-0.3,0.5-0.3
					l4.6,0.1c0.3,0,0.4,0.2,0.4,0.3c0,0.1,0,0.1-0.1,0.2l-7.1,8.9l7.5,9.6C181.9,29.9,181.9,30,181.9,30z"/>
				<path class="st4" d="M28.8,27"/>
				<path class="st4" d="M33.8,10.2c-2.5,0-5.4,0.4-7.6,1.2c-1.7,0.5-2.4,1.1-2.4,3v21.5c0,0.4,0.3,0.7,0.8,0.6
					c0.5-0.1,3.5-0.7,3.5-0.7c0.4-0.1,0.6-0.3,0.6-0.7v-4.9c1.3,0.3,3,0.6,4.9,0.6c7,0,8.3-4.4,8.3-10.3S41,10.2,33.8,10.2z
					 M32.4,27.4c-2,0-3.6-0.4-3.6-0.4V14.4c0,0,2.2-0.6,3.9-0.6c2.8,0,4.1,0.6,4.1,6.7C36.8,26.2,35.8,27.4,32.4,27.4z"/>
				<path class="st4" d="M110.6,30.4H98.1c-0.3,0-0.6-0.3-0.6-0.6V3.3c0-0.3,0.3-0.6,0.6-0.6h12.5c6.3,0,8.9,2.5,8.9,7
					c0,4-2.2,5.4-5.6,6.4c3.8,0.6,6.5,2.7,6.5,7.1C120.5,28.2,117,30.4,110.6,30.4z M110.1,6.6h-7.2v8l7-0.3c2.8-0.1,4.3-1.1,4.3-4
					C114.2,7.7,112.9,6.6,110.1,6.6z M109.9,18.2l-7-0.2v8.5h7c3.8,0,5-1.6,5-3.9C114.9,19.5,113.9,18.3,109.9,18.2z"/>
			</g>
		</g>
		<g>
			<path class="st4" d="M73.4,40.2l4.4,9.2h0.6l-0.2-9.2c0-0.1,0.1-0.2,0.3-0.2h1.8c0.2,0,0.2,0.1,0.2,0.2v11.9
				c0,0.1-0.1,0.2-0.3,0.2h-3c-0.3,0-0.4-0.1-0.5-0.3l-4.4-9.2h-0.6l0.2,9.2c0,0.1-0.1,0.2-0.3,0.2h-1.7c-0.2,0-0.3-0.1-0.3-0.2
				V40.1c0-0.1,0.1-0.2,0.3-0.2h3C73.2,39.9,73.3,40,73.4,40.2z"/>
			<path class="st4" d="M89.8,52.5c-4.9,0-5.9-2.6-5.9-6.4c0-3.9,1-6.4,5.9-6.4s5.9,2.6,5.9,6.4S94.7,52.5,89.8,52.5z M89.8,41.4
				c-3.1,0-3.4,1.6-3.4,4.7s0.3,4.7,3.4,4.7s3.4-1.6,3.4-4.7C93.2,43,92.9,41.4,89.8,41.4z"/>
			<path class="st4" d="M99.2,52V40.1c0-0.2,0.1-0.3,0.3-0.3h5.8c2.7,0,4.1,1,4.1,3.4c0,1.7-0.7,2.8-2.5,3.1v0.4
				c1.9,0.2,2.6,0.9,2.7,2.8l0.1,2.5c0,0.1-0.1,0.2-0.3,0.2h-2c-0.2,0-0.3-0.1-0.3-0.2l-0.1-2.3c-0.1-1.6-1-2-2.6-2.1l-2.8-0.1V52
				c0,0.2-0.1,0.3-0.3,0.3h-1.9C99.3,52.3,99.2,52.2,99.2,52z M106.9,43.8c0-1.5-0.5-2.2-2-2.2h-3.3v4.3l2.8-0.1
				C105.8,45.8,106.9,45.5,106.9,43.8z"/>
			<path class="st4" d="M118.5,52.3h-5c-0.2,0-0.3-0.1-0.3-0.3V40.1c0-0.2,0.1-0.3,0.3-0.3h5c4.1,0,5.7,1.6,5.7,6.2
				C124.2,50.7,122.6,52.3,118.5,52.3z M118.2,41.6h-2.6v8.9h2.6c2.5,0,3.5-0.7,3.5-4.5C121.7,42.3,120.7,41.6,118.2,41.6z"/>
			<path class="st4" d="M137.4,39.9h3.7c0.2,0,0.3,0.1,0.3,0.3l1.3,11.9c0,0.2-0.1,0.3-0.3,0.3h-1.8c-0.2,0-0.3-0.1-0.3-0.3l-1-10.5
				h-0.4l-2.3,8.6c0,0.2-0.2,0.3-0.3,0.3h-2.6c-0.2,0-0.3-0.1-0.3-0.3l-2.3-8.6h-0.5l-1,10.5c0,0.2-0.1,0.3-0.3,0.3h-1.7
				c-0.2,0-0.3-0.1-0.3-0.3l1.3-11.9c0-0.2,0.2-0.3,0.3-0.3h3.8c0.2,0,0.3,0.1,0.3,0.3l2,7.8h0.2l2-7.8
				C137.1,40,137.3,39.9,137.4,39.9z"/>
			<path class="st4" d="M156.2,41.5c0.8,1.1,1.1,2.7,1.1,4.6c0,3.8-1,6.4-5.9,6.4c-1.7,0-3-0.3-3.8-0.9l-1.1,1.3
				c-0.1,0.1-0.1,0.1-0.2,0.1c0,0-0.1,0-0.2-0.1l-0.8-0.6c-0.1-0.1-0.1-0.1-0.1-0.1s0-0.1,0.1-0.2l1.2-1.4c-0.8-1.1-1-2.7-1-4.5
				c0-3.9,1-6.4,5.9-6.4c1.7,0,2.9,0.3,3.8,0.9l1.1-1.3c0.1,0,0.1-0.1,0.2-0.1c0,0,0.1,0,0.2,0.1l0.8,0.6c0,0.1,0.1,0.1,0.1,0.2
				c0,0.1,0,0.1-0.1,0.2L156.2,41.5z M151.4,41.4c-3.1,0-3.4,1.6-3.4,4.7c0,1,0,1.9,0.3,2.6l5.6-6.5
				C153.3,41.6,152.5,41.4,151.4,41.4z M154.5,43.4l-5.6,6.6c0.5,0.5,1.3,0.7,2.5,0.7c3.1,0,3.4-1.6,3.4-4.7
				C154.8,45,154.7,44.1,154.5,43.4z"/>
			<path class="st4" d="M160.7,52V40.1c0-0.2,0.1-0.3,0.3-0.3h5.8c2.7,0,4.1,1,4.1,3.4c0,1.7-0.7,2.8-2.5,3.1v0.4
				c1.9,0.2,2.6,0.9,2.7,2.8l0.1,2.5c0,0.1-0.1,0.2-0.3,0.2h-2c-0.2,0-0.3-0.1-0.3-0.2l-0.1-2.3c-0.1-1.6-1-2-2.6-2.1l-2.8-0.1V52
				c0,0.2-0.1,0.3-0.3,0.3h-1.9C160.8,52.3,160.7,52.2,160.7,52z M168.4,43.8c0-1.5-0.5-2.2-2-2.2h-3.3v4.3l2.8-0.1
				C167.3,45.8,168.4,45.5,168.4,43.8z"/>
			<path class="st4" d="M174.7,52V40.1c0-0.2,0.1-0.3,0.3-0.3h8c0.2,0,0.3,0.1,0.3,0.3v1.3c0,0.2-0.1,0.3-0.3,0.3h-5.9V45h5.6
				c0.2,0,0.3,0.1,0.3,0.3v1.3c0,0.2-0.1,0.3-0.3,0.3h-5.6v3.6h5.9c0.1,0,0.3,0.1,0.3,0.3v1.3c0,0.2-0.1,0.3-0.3,0.3h-8
				C174.8,52.3,174.7,52.2,174.7,52z"/>
		</g>
	</g>
</g>
</svg>
