<svg height="22" viewBox="0 0 100 22" width="100" xmlns="http://www.w3.org/2000/svg"><g fill="none" fill-rule="evenodd"><g fill="#153162"><path d="m4.27480315 16.9259561c-2.01929134 0-3.61929134-.4590945-3.91456693-.5510686-.15551181-.0613161-.23307087-.1835602-.23307087-.3213273v-.0764511l.20196851-1.0109392c.03110236-.1529022.13976378-.1986952.26417323-.1986952.03110236 0 .06220472 0 .10866141.015135.32637796.0613161 1.91062993.5052756 3.40196851.5052756 1.27362205 0 2.40748031-.3675085 2.40748031-1.6687289 0-1.3171317-1.16456693-1.4545107-2.67165354-1.669117-1.67755906-.2452644-3.83661417-.6892239-3.83661417-3.29244097 0-2.67928009 2.01929133-3.38363892 4.41141732-3.38363892 1.81771653 0 3.32440945.42882452 3.66574803.52041057.18661417.0461811.27992126.16881327.27992126.32171541v.07645107l-.21732283.9954162c-.01574804.10710911-.12440945.21421822-.2488189.21421822-.01535433 0-.03110236-.01513498-.04645669-.01513498-.7456693-.15329022-1.8952756-.45948257-3.26220473-.45948257-1.1496063 0-2.36102362.2146063-2.36102362 1.50069179 0 1.27095051 1.30472441 1.45451069 2.68740157 1.65359388 1.81732284.2755344 3.88307087.5359337 3.88307087 3.384027 0 2.6792801-2.20551181 3.46009-4.52007874 3.46009"/><path d="m23.3748031 12.8534814-1.9263779.3061924c-.6370079.091586-1.2271654.1835602-1.2271654 1.1785883 0 1.1944994.9787402 1.2864736 1.7244095 1.2864736.6055118 0 1.1027559-.1071092 1.4291338-.2146063zm.6366142 3.8889146c-.5437008.1226321-1.2893701.2142182-2.1590551.2142182-1.6775591 0-3.7437008-.1680371-3.7437008-2.602829 0-1.9753094 1.2582677-2.1891395 2.5011811-2.3886108l2.7649606-.4443476v-.4897526c0-.4288245-.0468503-.7350168-.4350393-.903442-.2488189-.1071091-.6216536-.15290217-1.1807087-.15290217-1.0562992 0-2.2059055.30619237-2.6716535.42843647-.0468504 0-.0775591.015523-.1086614.015523-.0779528 0-.1555119-.030658-.1712599-.1377671l-.2173228-.94923511v-.06131609c0-.13776715.1090551-.19908324.1866142-.22974128.3728346-.13776715 1.8015748-.52079865 3.3862204-.52079865 1.1027559 0 1.8484252.15329021 2.3456693.42882452.792126.42882452.9476378 1.14831831.9476378 1.97530931v4.226153c0 1.1483183-.3885827 1.3474016-1.4448819 1.5922779z"/><path d="m30.9980315 10.0969741c-.9472441 0-1.7551181.0919742-2.1901575.1990833v6.2321203c0 .1377672-.0933071.2297413-.2326771.2297413h-1.5846457c-.0933071 0-.2641732-.0919741-.2641732-.2297413v-6.61476375c0-.59724972.3570866-.7808099 1.1027559-.9954162.6834645-.21421822 1.7866141-.36712036 2.6720472-.38264342h.2637795c.2177166 0 .2177166 0 .326378.04579303.0622047.03065804.1397638.09197412.1397638.24487626v.9954162c0 .15329021-.0153544.27553428-.2330709.27553428"/><path d="m36.938189 11.0465973c-.2019685-.842126-.6677166-1.11804837-1.584252-1.11804837-1.0409449 0-1.4759842.30619237-1.6468504 1.07186727-.1086614.4288245-.1086614.8731721-.1240157 1.3780596l3.4795275-.015523c0-.4893645-.015748-.903054-.1244094-1.3163555zm2.1901575 2.2815017c0 .1680371-.0933071.3519854-.3259843.3519854h-5.203937c0 .7043588.2019685 1.0873903.6212598 1.4087176.403937.3213274.9940945.4590945 1.8330709.4590945.9633858 0 1.6929134-.2293532 2.1748032-.3675084.0311023-.015135.0464566-.015135.077559-.015135.0933071 0 .1708662.0613161.2177165.2146063l.2015748.7804218c0 .0155231.0157481.0465692.0157481.0768392 0 .1226321-.0775591.1835601-.1866142.2297412-.5279527.2142183-1.584252.4897526-2.8114173.4897526-3.0444882 0-4.2405512-1.1789764-4.2405512-4.1795838 0-2.87875143.8074803-4.25719913 3.8366142-4.25719913 1.5688976 0 2.5318897.39816648 3.0913386 1.13318335.5279527.68922388.6988189 1.66911698.6988189 2.93967938z"/><path d="m56.1625984 12.8534814-1.9259842.3061924c-.6370079.091586-1.2271654.1835602-1.2271654 1.1785883 0 1.1944994.9783465 1.2864736 1.7240158 1.2864736.6055118 0 1.1027559-.1071092 1.4291338-.2146063zm.6366142 3.8889146c-.5433071.1226321-1.2893701.2142182-2.1590551.2142182-1.6779528 0-3.7437008-.1680371-3.7437008-2.602829 0-1.9753094 1.2586614-2.1891395 2.5011811-2.3886108l2.7649606-.4443476v-.4897526c0-.4288245-.0468504-.7350168-.4350393-.903442-.2484252-.1071091-.6212599-.15290217-1.180315-.15290217-1.0566929 0-2.2062992.30619237-2.6720472.42843647-.0464567 0-.0779528.015523-.1086615.015523-.077559 0-.1551181-.030658-.1708661-.1377671l-.2173228-.94923511v-.06131609c0-.13776715.1082677-.19908324.1862204-.22974128.3728347-.13776715 1.8019685-.52079865 3.3862205-.52079865 1.1027559 0 1.8484252.15329021 2.3456693.42882452.7925197.42882452.9476378 1.14831831.9476378 1.97530931v4.226153c0 1.1483183-.3885827 1.3474016-1.4448819 1.5922779z"/><path d="m66.5511811 16.757919h-1.6c-.1401575 0-.2484252-.0919741-.2484252-.2297413v-5.4051293c0-.8883071-.3417323-1.19449947-1.1649606-1.19449947-.9322835 0-1.9417323.26039937-1.9417323.26039937v6.3392294c0 .1377672-.0933071.2297413-.2330709.2297413h-1.5846456c-.1555119 0-.2637796-.0919741-.2637796-.2297413v-6.59962877c0-.58172666.2948819-.7808099 1.1649607-1.01055118.7921259-.21421822 2.0968504-.39816648 3.0909448-.39816648 1.9417323 0 3.0137796.49014061 3.0137796 2.32729473v5.6810517c0 .1377672-.0933071.2297413-.2330709.2297413"/><path d="m75.5586614 16.6197638c0 .0613161-.061811.1381552-.1555118.1381552h-2.0814961c-.077559 0-.1551181 0-.2330708-.0919741l-2.4074803-3.2311249h-.5279528v3.0933577c0 .1377672-.0779527.2297413-.2330709.2297413h-1.6c-.13937 0-.2488189-.0919741-.2488189-.2297413v-10.70314958c0-.18356018.0779528-.27553431.264567-.32132733l1.5220472-.26039933h.0622047c.1397638 0 .2330709.09197413.2330709.26039933v6.55305961h.5279528l2.4547244-3.23073678c.061811-.09158605.1240157-.10672103.2015748-.10672103l1.8952756.04579302c.1086614 0 .1551181.07645107.1551181.13776716 0 .03065804-.0153544.04579302-.0311024.07645107l-2.9358268 3.64442636 3.1070867 3.9195725c.0153543.0155231.0307086.0461811.0307086.0764511"/><path d="m13.4767717 15.5478965c-.8385827 0-1.4755906-.1831721-1.4755906-.1831721v-5.1602531s.9165354-.24487625 1.6307087-.24487625c1.1807086 0 1.6933071.26001125 1.6933071 2.74059615 0 2.3272947-.4350394 2.8477053-1.8484252 2.8477053zm.5901574-7.02806523c-1.0405511 0-2.2366141.16881327-3.1685039.49014061-.6992126.21421822-.97874016.4439595-.97874016 1.24029242v9.4779922c0 .1529021.12165356.2782508.34566926.2382789.2236221-.0395838 1.4716536-.2669966 1.4716536-.2669966.1866141-.030658.2641732-.1226322.2641732-.3061923v-2.6695782c.5511811.1323341 1.2464567.2328459 2.0192913.2328459 2.8893701 0 3.4326772-1.7913611 3.4326772-4.2106299 0-2.4344039-.388189-4.22615303-3.3862205-4.22615303z"/><path d="m45.6755906 11.7812261-2.9200788-.0915861v3.4907481h2.9200788c1.5688976 0 2.081496-.6733127 2.081496-1.6078009 0-1.2550394-.4192913-1.7455681-2.081496-1.7913611zm.077559-4.76169854h-2.9976378v3.27652984l2.8893701-.1222441c1.180315-.0461811 1.7862205-.45948259 1.7862205-1.62293591 0-1.07225534-.5283465-1.53134983-1.6779528-1.53134983zm.2023622 9.73839144h-5.1728346c-.1401575 0-.2641733-.1074972-.2641733-.2448763v-10.82578173c0-.13776716.1240158-.24487627.2641733-.24487627h5.1881889c2.6267717 0 3.6968504 1.0152081 3.6968504 2.85391451 0 1.62293589-.9145669 2.20388639-2.3299212 2.60321709 1.5712598.2557424 2.7185039 1.0963161 2.7185039 2.9028122 0 2.0517604-1.4602362 2.9555905-4.1007874 2.9555905z"/></g><path d="m88.7929134.05083802c-1.1543307 0-2.2665354.17773903-3.3114173.50449944 4.3972441-.94030934 8.7559055.84523059 10.3259842 4.50246344 1.8145669 4.22692913-.7830709 9.3510911-5.8023622 11.4447638-4.5019685 1.8779021-9.4216535.6779696-11.6972441-2.6396963 1.3311024 4.4690889 5.5200788 7.7335883 10.4850394 7.7335883 6.0358268 0 10.9291338-4.8230146 10.9291338-10.7730034 0-5.94960066-4.893307-10.77261528-10.9291338-10.77261528" fill="#d8232a"/><path d="m90.0051181 16.5025647c5.0192913-2.0936727 7.6169291-7.21783467 5.8023622-11.4447638-1.5700787-3.65723285-5.9287401-5.44277278-10.3259842-4.50246344-4.4165355 1.38310461-7.6177166 5.45674353-7.6177166 10.26811584 0 1.0559561.1570866 2.075045.4440945 3.0394151 2.2755906 3.3176659 7.1952756 4.5175984 11.6972441 2.6396963" fill="#9f1e24"/><path d="m91.1893701 4.23197413h-2.5409449c-.1814961 0-.2834646.03997188-.4456693.09973566l-3.2787402 1.66368391c-.2019685.08033183-.2830708.19947132-.2830708.39933071v1.81270529c0 .21305399.1755905.38497187.3909449.38497187h2.0984252v8.68864453c.9582677-.1311698 1.9255905-.3826434 2.8748031-.7784814.561811-.2343982 1.0913386-.5083802 1.5893701-.8130203v-11.05901572c0-.21965129-.1818898-.39855455-.4051181-.39855455" fill="#fffffe"/></g></svg>