<svg width="256" height="60" xmlns="http://www.w3.org/2000/svg"><g fill="none" fill-rule="evenodd"><path d="M89.044 1.998h3.692L81.784 28.013h-.84L69.78 1.998h3.734l7.79 18.19 7.74-18.19m17.869 3.152c-2.966 0-5.4.928-7.31 2.78-1.907 1.856-2.862 4.223-2.862 7.103 0 2.795.958 5.117 2.874 6.972 1.913 1.854 4.31 2.78 7.187 2.78 2.89 0 5.3-.944 7.235-2.836 1.93-1.892 2.897-4.246 2.897-7.066 0-2.743-.966-5.052-2.897-6.925-1.934-1.874-4.308-2.81-7.122-2.81zm-.15-3.523c4.002 0 7.335 1.267 9.996 3.802 2.662 2.533 3.994 5.71 3.994 9.53 0 3.818-1.345 6.98-4.032 9.484-2.687 2.502-6.074 3.754-10.162 3.754-3.905 0-7.157-1.252-9.757-3.754-2.6-2.504-3.9-5.64-3.9-9.41 0-3.87 1.31-7.07 3.93-9.605 2.617-2.536 5.927-3.803 9.93-3.803zM131.35 17.05l-2.818-1.713c-1.767-1.08-3.027-2.143-3.773-3.187-.75-1.045-1.123-2.247-1.123-3.607 0-2.04.707-3.695 2.123-4.97 1.415-1.272 3.253-1.908 5.516-1.908 2.163 0 4.148.607 5.952 1.822v4.21c-1.866-1.797-3.876-2.694-6.026-2.694-1.212 0-2.206.28-2.985.84-.78.56-1.17 1.277-1.17 2.15 0 .777.288 1.502.863 2.18.572.678 1.494 1.388 2.766 2.134l2.832 1.675c3.16 1.888 4.74 4.29 4.74 7.207 0 2.075-.695 3.763-2.086 5.06-1.39 1.298-3.2 1.948-5.424 1.948-2.558 0-4.89-.787-6.99-2.36V21.13c2.002 2.535 4.32 3.805 6.954 3.805 1.16 0 2.13-.324 2.9-.97.774-.648 1.16-1.458 1.16-2.43 0-1.577-1.138-3.072-3.412-4.486m17.774.001l-2.82-1.713c-1.765-1.08-3.024-2.143-3.77-3.187-.75-1.045-1.124-2.247-1.124-3.607 0-2.04.708-3.695 2.123-4.97 1.414-1.272 3.254-1.908 5.514-1.908 2.166 0 4.148.607 5.952 1.822v4.21c-1.867-1.797-3.875-2.694-6.027-2.694-1.21 0-2.205.28-2.984.84-.78.56-1.168 1.277-1.168 2.15 0 .777.285 1.502.86 2.18.573.678 1.495 1.388 2.766 2.134l2.833 1.675c3.16 1.888 4.74 4.29 4.74 7.207 0 2.075-.695 3.763-2.085 5.06-1.392 1.298-3.2 1.948-5.425 1.948-2.557 0-4.888-.787-6.99-2.36V21.13c2.003 2.535 4.32 3.805 6.953 3.805 1.162 0 2.13-.324 2.902-.97.772-.648 1.16-1.458 1.16-2.43 0-1.577-1.14-3.072-3.412-4.486M84.36 34.66v2.118c-2.16-1.27-4.017-1.905-5.573-1.905-1.494 0-2.743.454-3.746 1.36-1.002.91-1.503 2.034-1.503 3.375 0 .96.297 1.827.89 2.6.593.77 1.834 1.512 3.72 2.224 1.886.71 3.263 1.305 4.13 1.78.865.475 1.603 1.163 2.208 2.064.604.902.906 2.07.906 3.507 0 1.91-.698 3.524-2.1 4.842-1.398 1.318-3.108 1.975-5.124 1.975-2.066 0-4.19-.723-6.373-2.17v-2.262c2.41 1.77 4.497 2.653 6.264 2.653 1.472 0 2.715-.477 3.73-1.43 1.015-.957 1.522-2.13 1.522-3.52a4.681 4.681 0 0 0-.945-2.855c-.63-.85-1.904-1.642-3.824-2.38-1.92-.737-3.296-1.332-4.12-1.783-.825-.45-1.526-1.093-2.1-1.93-.578-.836-.866-1.912-.866-3.228 0-1.827.7-3.384 2.1-4.67 1.4-1.287 3.086-1.932 5.056-1.932 1.935 0 3.85.524 5.75 1.568m7.295.354v10.04h4.627c2.08 0 3.657-.44 4.736-1.317 1.08-.88 1.62-2.12 1.62-3.72 0-1.532-.53-2.748-1.583-3.65-1.058-.9-2.57-1.353-4.54-1.353h-4.86zm-1.922-1.6h6.854c2.62 0 4.63.586 6.025 1.76 1.394 1.176 2.09 2.778 2.09 4.806 0 2.054-.703 3.68-2.11 4.88-1.405 1.2-3.468 1.8-6.185 1.8h-4.753v11.62h-1.922V33.414zm29.589 14.667l-5.36-11.714-5.34 11.714h10.7zm-4.814-14.846l11.496 25.044h-2.016l-3.935-8.598h-12.16l-3.92 8.598h-2.017l11.495-25.044h1.057zm16.047 1.779v9.737h4.13c2.1 0 3.706-.424 4.815-1.273 1.11-.85 1.666-2.05 1.666-3.606 0-1.53-.564-2.723-1.69-3.576-1.13-.855-2.75-1.283-4.862-1.283h-4.06zm-1.92-1.6h6.37c2.67 0 4.713.577 6.125 1.734 1.41 1.156 2.117 2.72 2.117 4.69 0 2.87-1.578 4.888-4.736 6.05.82.392 1.923 1.656 3.312 3.792l5.624 8.598h-2.276l-4.33-6.815c-1.448-2.28-2.576-3.7-3.382-4.263-.806-.566-1.988-.848-3.542-.848h-3.363V58.28h-1.92V33.414zm34.493-.001v1.6h-11.64v9.952h11.34v1.62h-11.34v10.093h11.925v1.6h-13.847V33.414h13.563m6.232 13.136v10.13h5.143c2.124 0 3.738-.458 4.84-1.373 1.105-.912 1.656-2.136 1.656-3.666 0-3.393-2.444-5.09-7.333-5.09h-4.307zm0-11.535v9.915h2.67c4.52 0 6.78-1.65 6.78-4.95 0-3.31-2.283-4.965-6.852-4.965h-2.597zm-1.923-1.6h5.18c2.717 0 4.776.568 6.177 1.707 1.4 1.14 2.1 2.712 2.1 4.717 0 2.397-1.192 4.242-3.578 5.536 3.83.83 5.748 2.93 5.748 6.3 0 2.018-.752 3.624-2.25 4.816-1.503 1.192-3.536 1.788-6.098 1.788h-7.28V33.414zm34.287 14.667l-5.36-11.714-5.338 11.714h10.697zm-4.813-14.846L208.41 58.28h-2.017l-3.934-8.598h-12.162l-3.918 8.598h-2.018l11.495-25.044h1.057zm36.5.178V58.28h-1.582l-18.906-21.733V58.28h-1.924V33.414h1.63l18.86 21.734V33.414h1.922m21.116 0l-11.905 12.42L255.67 58.28h-2.446L240.2 45.856V58.28h-1.92V33.414h1.92v12.37l11.93-12.37h2.4" fill="#485357"/><path d="M6.707 4.965C1.567 9.06.057 16.46 0 29.352 3.755 23.76 6.965 17.026 6.965 8.946c0-1.37-.095-2.694-.258-3.98m23.98 23.614C22.117 38.64 10.072 44.318 1.2 45.393c.675 3.04 1.676 5.477 3.11 7.424 4.492-3.17 10.655-4.525 15.38-4.407 8.406.21 17.34 4.15 20.47 7.913 0 0-8.805-4.567-19.837-4.567-6.257 0-10.99 1.147-14.366 2.91 4.397 4.076 11.775 5.264 23.838 5.264 10.12 0 16.94-.837 21.473-3.513-1.777-7.388-5.39-15.437-7.58-22.29-4.09-.802-8.74-2.425-13-5.547M21.21.62c.946 9.432 3.156 16.622 6.84 21.734 3.245-5.89 5.403-13.153 5.403-21.92v-.05A142.81 142.81 0 0 0 29.795.34c-3.178 0-6.027.084-8.585.28m31.86 34.566c1.725 4.546 3.402 8.72 4.664 12.628 1.124-3.516 1.645-7.988 1.8-13.652-1.47 1.09-3.618 1.213-6.463 1.024" fill="#EE2326"/><path d="M13.566 4.22C13.664 18.646 5.303 29.132.06 34.577c.095 3.09.305 5.818.665 8.226 5.082-.037 17.815-5.52 25.817-17.923-4.668-5.054-8.32-12.602-9.318-23.825-1.344.2-2.59.444-3.74.743.043.79.077 1.592.082 2.422M32.18 26.736c2.948 2.373 6.508 3.945 10.73 4.76-2.827-10.473-.023-12.792 6.06-17.367 2.674-2.013 6.733-1.567 9.97 3.93C57.404 6.822 52.755 2.34 41.29.91c-.243 10.382-3.873 19.01-9.11 25.826" fill="#EE2326"/><path d="M49.71 15.402c-2.09.894-1.808 5.193 1.115 13.632.365 1.053.736 2.085 1.106 3.1 4.72-.144 7.49-1.794 7.642-4.067 0-.147-.004-.293-.007-.438a3.295 3.295 0 0 0-.103-.63c-2.463-9.17-7.617-12.513-9.75-11.598" fill="#EE2326"/></g></svg>